<?xml version="1.0" encoding="utf-8"?>
<!-- Generator: Adobe Illustrator 19.2.1, SVG Export Plug-In . SVG Version: 6.00 Build 0)  -->
<svg version="1.1" id="Capa_1" xmlns="http://www.w3.org/2000/svg" xmlns:xlink="http://www.w3.org/1999/xlink" x="0px" y="0px"
	 viewBox="0 0 260.6 371.5" style="enable-background:new 0 0 260.6 371.5;" xml:space="preserve">
<style type="text/css">
	.st0{fill:#1E1E1C;}
	.st1{fill:#F29107;}
</style>
<g>
	<g>
		<path class="st0" d="M0,276.5h4.4v44H0V276.5z"/>
		<path class="st0" d="M20.6,320.5v-44h1l29.3,33.7v-33.7h4.3v44h-1l-29.1-33.3v33.3H20.6z"/>
		<path class="st0" d="M72.1,276.5h22.1v4.3H76.5v13.8h17.7v4.3H76.5v21.6h-4.4V276.5z"/>
		<path class="st0" d="M107.3,276.5h4.4v44h-4.4V276.5z"/>
		<path class="st0" d="M127.9,320.5v-44h1l29.3,33.7v-33.7h4.3v44h-1l-29.1-33.3v33.3H127.9z"/>
		<path class="st0" d="M178.7,276.5h4.4v44h-4.4V276.5z"/>
		<path class="st0" d="M195,280.8v-4.3h24.1v4.3h-9.8v39.7h-4.5v-39.7H195z"/>
		<path class="st0" d="M228.1,276.5h5.1l11.3,18.2l11.1-18.2h5.1l-13.9,23v21h-4.3v-21L228.1,276.5z"/>
		<path class="st1" d="M55.5,327.5l20.5,44h-4.8L64.3,357h-19l-6.9,14.5h-4.9l20.8-44H55.5z M54.9,336.8l-7.5,15.9h15L54.9,336.8z"
			/>
		<path class="st1" d="M89.2,327.5H98c4.9,0,8.2,0.2,9.9,0.6c2.6,0.6,4.7,1.9,6.4,3.8c1.6,2,2.5,4.4,2.5,7.3c0,2.4-0.6,4.5-1.7,6.3
			c-1.1,1.8-2.7,3.2-4.8,4.1c-2.1,0.9-5,1.4-8.7,1.4l15.8,20.4h-5.4l-15.8-20.4h-2.5v20.4h-4.4V327.5z M93.6,331.8v15l7.6,0.1
			c2.9,0,5.1-0.3,6.5-0.8c1.4-0.6,2.5-1.5,3.3-2.7c0.8-1.2,1.2-2.6,1.2-4.1c0-1.5-0.4-2.8-1.2-4c-0.8-1.2-1.8-2.1-3.1-2.6
			c-1.3-0.5-3.5-0.8-6.5-0.8H93.6z"/>
		<path class="st1" d="M130.3,371.5l6.3-44h0.7l17.9,36.1l17.7-36.1h0.7l6.3,44h-4.3l-4.3-31.5l-15.6,31.5h-1.1l-15.8-31.7
			l-4.3,31.7H130.3z"/>
		<path class="st1" d="M191.2,327.5h5.1l11.3,18.2l11.1-18.2h5.1l-13.9,23v21h-4.3v-21L191.2,327.5z"/>
	</g>
	<g>
		<path class="st0" d="M130.3,29.9L3.9,250l126.4-36.6L256.7,250L130.3,29.9z M72.4,196l57.9-101.5L188.2,196l-57.9-16.9L72.4,196z"
			/>
		<polygon class="st1" points="153.3,190.2 256.6,220.1 130.3,0 4,220.1 107.3,190.2 107.3,156 72.5,166.2 130.3,64.7 188.1,166.2 
			153.3,156 		"/>
	</g>
</g>
</svg>
