<svg xmlns="http://www.w3.org/2000/svg" viewBox="0 0 566.93 566.93"><defs><style>.cls-1{fill:#fff;}.cls-2{fill:#cc1333;}.cls-3{fill:#feffff;}</style></defs><title>Aragoto Senkenbutai</title><g id="Capa_2" data-name="Capa 2"><ellipse class="cls-1" cx="283.46" cy="283.46" rx="279.21" ry="277.77"/><ellipse class="cls-1" cx="283.46" cy="283.46" rx="279.21" ry="277.77"/><ellipse class="cls-1" cx="283.46" cy="283.46" rx="279.21" ry="277.77"/></g><g id="Capa_1" data-name="Capa 1"><path class="cls-2" d="M283.46,84.43c100.66,0,183.93,73.95,198,170.21h68.34C535.27,121.21,421.38,17,283.46,17S31.66,121.21,17.16,254.64H85.5C99.54,158.38,182.81,84.43,283.46,84.43Z"/><path class="cls-2" d="M283.46,550c138,0,252-104.37,266.34-237.94H481.47c-13.92,96.4-97.26,170.49-198,170.49S99.38,408.41,85.46,312H17.13C31.5,445.58,145.45,550,283.46,550Z"/><path class="cls-2" d="M553.84,312a267.82,267.82,0,0,1-78.13,162.71,272.87,272.87,0,0,1-384.49,0A267.77,267.77,0,0,1,13.09,312H4.25c14.37,140.8,133.9,250.67,279.21,250.67S548.3,452.81,562.68,312Z"/><path class="cls-2" d="M283.46,13A270.78,270.78,0,0,1,475.71,92.21a267.84,267.84,0,0,1,78.1,162.43h8.84C548.14,114,428.69,4.25,283.46,4.25S18.78,114,4.28,254.64h8.84A267.84,267.84,0,0,1,91.22,92.21,270.78,270.78,0,0,1,283.46,13Z"/><path class="cls-3" d="M283.46,553.94a270.78,270.78,0,0,0,192.25-79.22A267.82,267.82,0,0,0,553.84,312h-4C535.43,445.58,421.48,550,283.46,550S31.5,445.58,17.13,312h-4A267.77,267.77,0,0,0,91.22,474.72,270.78,270.78,0,0,0,283.46,553.94Z"/><path class="cls-3" d="M283.46,17c137.92,0,251.81,104.23,266.31,237.66h4a267.84,267.84,0,0,0-78.1-162.43,272.87,272.87,0,0,0-384.49,0,267.84,267.84,0,0,0-78.1,162.43h4C31.66,121.21,145.55,17,283.46,17Z"/><path class="cls-1" d="M166.55,56l2.85,4.5-8.05,5,1.49,2.35-5.59,3.51L155.75,69l-11.1,7,1.49,2.36-5.6,3.51-1.49-2.36-8.05,5L128.15,80l8-5-1.87-3,5.6-3.51,1.87,3,11.11-7-1.88-3,5.6-3.5,1.87,3Zm7.9,13L147.15,86l1.17,1.84c.63,1,1.38,1.35,2.25,1a70.35,70.35,0,0,0,8-4.67q6.72-4.22,14.56-9.78l3,4.25q-6.25,4.65-14.78,10-5,3.12-7.28,4.38t-4.4,2.31c-1.41.7-2.46.85-3.14.44a10.78,10.78,0,0,1-1.85-1.39,16.89,16.89,0,0,1-2.2-3l-1.17-1.84-4.9,3.07-2.8-4.41,16.15-10.12-1.66-2.61L153.86,72l1.65,2.62,16.15-10.13ZM150.12,97.43,155.59,94a19.08,19.08,0,0,1,3.25,11.15,16.66,16.66,0,0,1-4.06,10.18l-5.71-2.29Q154.89,105,150.12,97.43Zm17.22,8.48-8.66-13.67,5.77-3.61,8.66,13.66ZM168,86.23l5.29-3.32,5.24,8.27c.43.69.75,1.06,1,1.13s.59-.07,1.17-.43a1.4,1.4,0,0,0,.78-1.71,57.79,57.79,0,0,0-3.52-6.32L183,81.41c.92,1.58,1.62,2.8,2.11,3.67s1,1.79,1.43,2.78.78,1.71.95,2.16a5,5,0,0,1,.27,1.66,2.59,2.59,0,0,1-.24,1.37,10.22,10.22,0,0,1-2.42,2.36L183,96.74q-4.09,2.57-5.39,2.61c-.87,0-1.79-.74-2.77-2.28Z"/><path class="cls-1" d="M230.8,58.25l1.57,4.55-2.94,1L232.28,72,226,74.17,225.27,72,215.7,75.3l.06.19a29.85,29.85,0,0,1,1.12,3.77,3.31,3.31,0,0,1-.41,2.33,4.49,4.49,0,0,1-2,1.75A40,40,0,0,1,210.22,85c-1.38.48-3.83,1.22-7.35,2.25L201,82.39q4.36-1.22,6.67-2a4.17,4.17,0,0,0,1.51-.7c.11-.16.06-.53-.14-1.11l-.31-.9-17,5.8-1.41-4.07,17-5.8-.69-2L187.9,78l-1.58-4.55L205.1,67l-.68-2-17,5.81L186,66.76,203,61l-.56-1.63-9,3.07-6.3,2.16-3.34-9.67,15.3-5.23L198.53,48l-18.29,6.25-1.62-4.69,18.29-6.25-1-2.93,6.93-2.36,1,2.92,18.29-6.26,1.62,4.69-18.29,6.26.56,1.63,15.31-5.24,3.34,9.67L209.36,57l.56,1.63,15.84-5.42,2.1,6.08Zm-38.61.56,9-3.07-.76-2.21-9,3.08Zm15.93-5.44,9-3.08-.76-2.2-9,3.07Zm3.9,11.3,9.58-3.28-.68-2-9.57,3.27Zm2.27,6.56L223.87,68l-.7-2-9.57,3.27Z"/><path class="cls-1" d="M254.85,42a58.71,58.71,0,0,0,6.47-15.43l6.2,1.14c-.21,1.09-.58,2.53-1.1,4.34l7-.21-.17-5.77,7-.2.17,5.77,15.46-.45.17,5.57-15.47.45.23,7.59,18.56-.54.17,5.77-13.33.39.38,12.9c0,1,.23,1.67.59,1.86a9.5,9.5,0,0,0,3.24.21c1.83-.06,2.92-.44,3.27-1.16s.59-3.19.7-7.42l6,.34c-.07,2.4-.13,4.25-.19,5.57a17.72,17.72,0,0,1-.58,3.74,9.24,9.24,0,0,1-1,2.49,4.28,4.28,0,0,1-1.82,1.32,8.53,8.53,0,0,1-2.68.71c-.9.07-2.21.14-3.94.19-1.93,0-3.46,0-4.58,0a16.46,16.46,0,0,1-2.94-.42,3.1,3.1,0,0,1-1.81-1.09,4.77,4.77,0,0,1-.8-1.83,17.36,17.36,0,0,1-.29-2.93l-.41-14.27-4.63.14q-1.25,16.84-18.19,22.05l-2.77-5.74A21.69,21.69,0,0,0,264,60.9a16.71,16.71,0,0,0,4.29-10l-14.4.41-.17-5.77L273.83,45l-.23-7.59-9.2.27a54.38,54.38,0,0,1-3.57,7Z"/><path class="cls-1" d="M308.43,45.36l11.27,2.28-3.15,15.43a8.08,8.08,0,0,0,2.37,3.63,17,17,0,0,0,5.33,2.52A111.17,111.17,0,0,0,335.75,72L350.26,75l-1.4,5.34-14.21-2.87a84.08,84.08,0,0,1-14.61-4q-4.85-2-6.87-5a65.11,65.11,0,0,1-7.86,3.89l-2-5.83c2.26-.89,4.45-1.87,6.58-3l2.39-11.71-5-1Zm14.51-6.21-5.05,3.11q-2.55-4.55-6.73-10.76l5.19-3Q319.5,33.08,322.94,39.15ZM327.29,59l23.19,4.69-1.72,8.43-29.63-6,3.65-17.86,28.53,5.77-1.68,8.18L327.54,57.8Zm28.12-21.49-2,9.92L341.66,45.1l-.25,1.24,13.81,2.8-.87,4.26-34.91-7.06.87-4.26L334.73,45l.25-1.24-6-1.21-6-1.22,2-9.92,12,2.43.55-2.68,6.68,1.35-.55,2.68ZM326.6,62.41l-.3,1.49L343,67.28l.31-1.49Zm1.62-7.94,15.56,3.15.31-1.54-15.56-3.14Zm7.47-14.19.43-2.08-6-1.21-.42,2.08Zm6.68,1.35L348,42.77l.42-2.08-5.63-1.14Z"/><path class="cls-1" d="M360,83.48l-.78,1.7-6.06-2.77,8.35-18.08,20.67,9.45-8.35,18.08-5.78-2.64.79-1.71ZM361,60.61l2.33-5.06L368,57.71q.79-4,1.54-8.55l-2.32-1.06,2.28-4.92L377.91,47l1.85-4,6.15,2.81-1.85,4,8.75,4-2.28,4.92-2.12-1a82.61,82.61,0,0,1-5.52,6.73l4.58,2.09-2.34,5.06ZM371,82.77l3.1-6.71-8.83-4-3.1,6.72ZM377.43,62A66.43,66.43,0,0,0,383,55.29l-7.82-3.57c-.51,3.22-1.06,6.05-1.63,8.5Zm23.21,13a16.42,16.42,0,0,1,1.42,6.86,16,16,0,0,1-1.45,6.67Q398.6,93,396,94t-6.26-.64L386.82,92l1.28-5.7,1,.46c1.73.79,3,1.1,3.72.92s1.43-.91,2-2.2q2.25-4.87-.66-13.11a66.46,66.46,0,0,0,10.67-9.78l-5.59-2.56L382.73,95.91l-5.87-2.68,18.75-40.62,17.48,8-2.21,4.79A77.86,77.86,0,0,1,400.64,75.07Z"/><path class="cls-1" d="M420.4,120.68q-2.49-1.94-7.07-5.81l2.85-3.88a51.06,51.06,0,0,1-7.87-.91l1.35-5.83q11,2.5,19.73.68a18,18,0,0,0,.86-2.74,46.65,46.65,0,0,1-13.68-.34q-3.46,2.12-7.68-1.15l-.72-.56,2.32-4.94.56.44a2.79,2.79,0,0,0,2.26.82,5.49,5.49,0,0,0,2.3-2,10.24,10.24,0,0,0,2-3.78,20.07,20.07,0,0,0,.39-5.38l-16.59,21.15-4.9-3.8,27.64-35.24,13.48,10.46-3.16,4a.22.22,0,0,0-.13.09.24.24,0,0,1-.14.09l3.41,2.64c.46-1.74.87-3.49,1.23-5.27l5.94,2.23c-.42,2.12-1,4.51-1.83,7.18l4.17,3.24a46.22,46.22,0,0,0,7.05-3.39L458,93.59a42.19,42.19,0,0,1-5.43,2.72l5.26,4.08-3.35,4.27-7.22-5.61a78.79,78.79,0,0,0-3.88,7q3.13-.39,6-1l.1,5.72a54.59,54.59,0,0,1-8.53,1.41,35.7,35.7,0,0,0-2.19,13.58l-6.27,3a42,42,0,0,1,2-15.88,70.33,70.33,0,0,1,8.15-17.4l-1.36-1.06a26.9,26.9,0,0,1-3.61.41,33.84,33.84,0,0,1-7.31,21.49q-3.5,4.48-5.55,5.32T420.4,120.68Zm6.19-10.29a42.15,42.15,0,0,1-9.49.66q2.64,2.31,4.21,3.53a1.32,1.32,0,0,0,1.44.22,10.52,10.52,0,0,0,2.47-2.58C425.83,111.45,426.28,110.84,426.59,110.39Zm3.19-32.13-3.94-3.05-7,9A59.2,59.2,0,0,0,429.78,78.26Zm1.3,18.92c.06-1.07.11-1.9.16-2.51a54.12,54.12,0,0,1-7.72-1.36l1.11-5.44a44.93,44.93,0,0,0,10.52,1.81l-5.94-4.61a52.11,52.11,0,0,1-6.14,3.14A18.8,18.8,0,0,1,421,96.76,38.48,38.48,0,0,0,431.08,97.18Z"/><path class="cls-1" d="M52.56,333.62l2.13,9.07,3-1.87c1.09-.74,2.1-1.46,3.06-2.15a18.53,18.53,0,0,0,2.54-2.22,2.48,2.48,0,0,0,1-2.1,2.61,2.61,0,0,0-1.83-1.54,21.42,21.42,0,0,0-3.25-.83c-1.17-.2-2.4-.39-3.7-.58l-14.11-1.71-1.5-6.43,17.4,2.46a48.08,48.08,0,0,1,8.83,2.16,7.14,7.14,0,0,1,2.7,11.43,44.7,44.7,0,0,1-7,5.81L47.28,355l-1.55-6.59,3.6-2.3L46.72,335Z"/><path class="cls-1" d="M51.56,366.49l-2.26-5.58,21.85-8.76a2.91,2.91,0,0,1,2.28.09A3,3,0,0,1,75,353.92l.82,2L77.88,361,82,371.24a3.8,3.8,0,0,1,.16.51l.1.25a9.54,9.54,0,0,1,.59,5.28,8.35,8.35,0,0,1-1.76,3.83,7.36,7.36,0,0,1-2.88,2.11,7.68,7.68,0,0,1-3.59.5,8.12,8.12,0,0,1-3.93-1.54,9.61,9.61,0,0,1-3.26-4.24l-3-7.27A5.63,5.63,0,0,0,62,373.26a3.66,3.66,0,0,0,0,2.92l4.55,11.24L61,389.65l-4.85-12a8.1,8.1,0,0,1,.16-6.5,11.09,11.09,0,0,1,4.59-5.35c2.3-1.5,3.59-2.3,3.9-2.43a2.92,2.92,0,0,1,2.3,0,2.84,2.84,0,0,1,1.6,1.64L73.11,376a3.17,3.17,0,0,0,.88,1.16,2.48,2.48,0,0,0,1,.48,1.63,1.63,0,0,0,.91-.08,1.61,1.61,0,0,0,.71-.57,2.51,2.51,0,0,0,.4-1.05,3.14,3.14,0,0,0-.18-1.44l-4.53-11.2L71,360a1.06,1.06,0,0,0-1.52-.64Z"/><path class="cls-1" d="M78.54,400.49l4.79,8,2.25-2.68c.81-1,1.56-2,2.26-3A18.32,18.32,0,0,0,89.59,400a2.49,2.49,0,0,0,.29-2.29,2.64,2.64,0,0,0-2.22-.92,20.54,20.54,0,0,0-3.35.19c-1.17.16-2.4.35-3.7.56l-14,2.62-3.38-5.67,17.33-2.9a46.8,46.8,0,0,1,9.08-.6,7.16,7.16,0,0,1,6,10.07,44.53,44.53,0,0,1-4.89,7.64L80,422.48l-3.48-5.82,2.73-3.28-5.89-9.84Z"/><path class="cls-1" d="M109.53,417.19,123,433.55l-4.65,3.78-12.46-15.19a4,4,0,0,0-2.79-1.35,7.58,7.58,0,0,0-3.17.47,9.79,9.79,0,0,0-2.77,1.59A10,10,0,0,0,95,425.23a7.54,7.54,0,0,0-1.1,3,4,4,0,0,0,.78,3l8.61,10.49a.83.83,0,0,0,1.23.09l2-1.64a.79.79,0,0,0,.16-1.22l-8.84-10.76,4.65-3.78,11.27,13.74a2.93,2.93,0,0,1,.7,2.19,3,3,0,0,1-1,1.95l-.07.06-8.12,6.59a2.85,2.85,0,0,1-2.1.61,3,3,0,0,1-2-1l-12.06-14.7a7.3,7.3,0,0,1-1.42-5.5,13,13,0,0,1,2.07-5.41,19.12,19.12,0,0,1,3.92-4.31,18.71,18.71,0,0,1,5-2.94,13.65,13.65,0,0,1,5.74-.93A7.31,7.31,0,0,1,109.53,417.19Z"/><path class="cls-1" d="M143.6,452.34a6.68,6.68,0,0,1,2.09,3.75,10.94,10.94,0,0,1,0,4.38,15.78,15.78,0,0,1-1.48,4.11,18.35,18.35,0,0,1-2.52,3.62,19.11,19.11,0,0,1-4.53,3.71,13.19,13.19,0,0,1-5.59,1.76,7.56,7.56,0,0,1-5.48-1.68l-11.69-10.33a7.39,7.39,0,0,1-2.37-5.19,12.21,12.21,0,0,1,1.14-5.73,19.62,19.62,0,0,1,3.21-4.91,19.06,19.06,0,0,1,4.52-3.72,13,13,0,0,1,5.59-1.8,7.36,7.36,0,0,1,5.46,1.7l.64.56,10.41,9.2Zm-14.7,14.18a4.15,4.15,0,0,0,3,.93,7,7,0,0,0,3-1,10.43,10.43,0,0,0,2.48-2,9.6,9.6,0,0,0,1.71-2.69,7.41,7.41,0,0,0,.61-3.13,4,4,0,0,0-1.25-2.83l-9.51-8.4a4,4,0,0,0-3-.9,7.59,7.59,0,0,0-3,1,9.86,9.86,0,0,0-2.48,2,10.43,10.43,0,0,0-1.74,2.69,6.87,6.87,0,0,0-.61,3.13,4.07,4.07,0,0,0,1.28,2.83Z"/><path class="cls-1" d="M153.35,460.4l26.3,16.48-3.2,5.05-10.57-6.62L155,492.54l-5.12-3.21,10.9-17.23-10.61-6.64Z"/><path class="cls-1" d="M205.4,488.06a6.7,6.7,0,0,1,3.2,2.88A11.17,11.17,0,0,1,210,495.1a15.92,15.92,0,0,1-.07,4.36,18,18,0,0,1-1.21,4.24,18.57,18.57,0,0,1-3.09,5,13,13,0,0,1-4.72,3.46,7.52,7.52,0,0,1-5.73.17l-14.41-6a7.38,7.38,0,0,1-3.92-4.15,12.38,12.38,0,0,1-.79-5.79,20,20,0,0,1,1.45-5.68,19.1,19.1,0,0,1,3.08-5,13,13,0,0,1,4.7-3.49A7.39,7.39,0,0,1,191,482l.78.33,12.84,5.37Zm-9.32,18.14a4.11,4.11,0,0,0,3.12-.08,6.8,6.8,0,0,0,2.57-1.89,10.45,10.45,0,0,0,1.69-2.73,9.59,9.59,0,0,0,.75-3.09,7.42,7.42,0,0,0-.44-3.16,4,4,0,0,0-2.1-2.28L190,488.07a4,4,0,0,0-3.11.1,7.46,7.46,0,0,0-2.57,1.9,9.86,9.86,0,0,0-1.7,2.69,10.68,10.68,0,0,0-.78,3.11,7,7,0,0,0,.44,3.16,4.1,4.1,0,0,0,2.13,2.26Z"/><path class="cls-1" d="M258,507.17l-20.45-3.64a3.25,3.25,0,0,0-1.46.13,2.67,2.67,0,0,0-.95.6,1.65,1.65,0,0,0-.41.81,1.51,1.51,0,0,0,.11.9,2.28,2.28,0,0,0,.68.89,3,3,0,0,0,1.32.62l12.52,2.23a9.61,9.61,0,0,1,4.84,2.33,8.26,8.26,0,0,1,2.31,3.58,8,8,0,0,1,.23,3.68,7.82,7.82,0,0,1-1.51,3.33,8.47,8.47,0,0,1-3.42,2.56,9,9,0,0,1-5.31.44l-.26,0a3.19,3.19,0,0,1-.54-.05l-19.49-3.46,1.06-5.88,20.54,3.65a2.34,2.34,0,0,0,1.45-.06,2.48,2.48,0,0,0,1-.66,2,2,0,0,0,.43-.9,2.15,2.15,0,0,0-.11-.9,2.24,2.24,0,0,0-.65-1.05,2.92,2.92,0,0,0-1.32-.64l-12.52-2.22a9.84,9.84,0,0,1-4.84-2.31,8.18,8.18,0,0,1-2.33-3.52,7.61,7.61,0,0,1-.24-3.59,7.45,7.45,0,0,1,1.49-3.24,8.45,8.45,0,0,1,3.41-2.5,9.65,9.65,0,0,1,5.32-.5l.27.05a3.07,3.07,0,0,1,.53.05l19.4,3.44Z"/><path class="cls-1" d="M272.25,502l2.06.06,17.73.49-.17,6L273.6,508a4,4,0,0,0-2.85,1.21,7.39,7.39,0,0,0-1.71,2.7,9.56,9.56,0,0,0-.61,3.12,9.73,9.73,0,0,0,.43,3.16,7.42,7.42,0,0,0,1.55,2.78,4,4,0,0,0,2.79,1.37l18.26.51-.17,6-18.93-.53-.85,0a7.35,7.35,0,0,1-5.11-2.53,13,13,0,0,1-2.76-5.09,19.07,19.07,0,0,1-.71-5.77,18.6,18.6,0,0,1,1.05-5.72,13.28,13.28,0,0,1,3.06-4.93A7.25,7.25,0,0,1,272.25,502Zm19.16,16.49L273.05,518l.17-6,18.36.52Z"/><path class="cls-1" d="M310.15,499.45a20.48,20.48,0,0,1,4.63,0,19.75,19.75,0,0,1,4.48,1.06,12.87,12.87,0,0,1,3.95,2.33,6.51,6.51,0,0,1,2.22,3.91l.22,1.85,2,16.59-6,.72-2.07-17.07a3.32,3.32,0,0,0-1.32-2.15,7.69,7.69,0,0,0-2.31-1.19,13,13,0,0,0-2.54-.5,13.18,13.18,0,0,0-2.59,0,12.8,12.8,0,0,0-2.52.58,11.16,11.16,0,0,0-2.35,1.09,7.36,7.36,0,0,0-2,1.69,3.27,3.27,0,0,0-.77,2.4l2.07,17.08-6,.71-2-16.59-.23-1.85a6.6,6.6,0,0,1,1.19-4.32,12.59,12.59,0,0,1,3.27-3.2,19.51,19.51,0,0,1,4.1-2.08A19.74,19.74,0,0,1,310.15,499.45Z"/><path class="cls-1" d="M335,496.28l7.14,25.49-5.83,1.62-7.14-25.5Zm6.49,5.74a45,45,0,0,1,6.71-6.07l9.19-7,1.78,6.35-6.65,4.8q-1.58,1.19-3,2.28a18.7,18.7,0,0,0-2.44,2.32,2.52,2.52,0,0,0-.89,2.14,2.61,2.61,0,0,0,1.88,1.38,18.21,18.21,0,0,0,3.29.73q1.77.22,3.72.42l8.55.64,1.82,6.48-11.92-1.37a45.54,45.54,0,0,1-8.93-1.75A7.15,7.15,0,0,1,341.44,502Z"/><path class="cls-1" d="M368.65,485.4l1.88-.84,16.18-7.22,2.45,5.45-16.67,7.43a4,4,0,0,0-2,2.33,7.29,7.29,0,0,0-.37,3.17,9.83,9.83,0,0,0,.82,3.07,10,10,0,0,0,1.76,2.66,7.52,7.52,0,0,0,2.62,1.83,4,4,0,0,0,3.11,0l16.67-7.44,2.46,5.45L380.23,509l-.78.34a7.32,7.32,0,0,1-5.7-.07,13.1,13.1,0,0,1-4.71-3.39,18.88,18.88,0,0,1-3.16-4.89,18.43,18.43,0,0,1-1.55-5.61,13.38,13.38,0,0,1,.6-5.75A7.2,7.2,0,0,1,368.65,485.4ZM393.1,492l-16.75,7.47L373.89,494l16.76-7.47Z"/><path class="cls-1" d="M401.69,466.7a20.16,20.16,0,0,1,4.15-2,19.37,19.37,0,0,1,4.5-1,12.71,12.71,0,0,1,4.58.39,6.46,6.46,0,0,1,3.7,2.56l1,1.57,9.07,14.06-5.09,3.25-9.33-14.47a3.4,3.4,0,0,0-2.14-1.37,7.52,7.52,0,0,0-2.59-.06,11.44,11.44,0,0,0-2.51.65,12.44,12.44,0,0,0-2.31,1.15,13.1,13.1,0,0,0-2,1.61,12,12,0,0,0-1.64,2,7.81,7.81,0,0,0-1,2.37,3.34,3.34,0,0,0,.36,2.5l9.33,14.47-5.05,3.23-9.07-14.06-1-1.58a6.51,6.51,0,0,1-.82-4.4,12.26,12.26,0,0,1,1.54-4.29,19.68,19.68,0,0,1,6.35-6.57Z"/><path class="cls-1" d="M450.25,448.48a8.42,8.42,0,0,1,3,2.15,7.72,7.72,0,0,1,1.68,3.24,8.38,8.38,0,0,1-.11,4.26,9,9,0,0,1-3,4.41l-.2.17a3.5,3.5,0,0,1-.38.39l-13.51,11.84a2.91,2.91,0,0,1-2.1.69,2.94,2.94,0,0,1-2-.95l-13.56-15.31a2.91,2.91,0,0,1-.69-2.1,2.85,2.85,0,0,1,1-2L432,445.15a3.43,3.43,0,0,1,.43-.32l.2-.18a9.67,9.67,0,0,1,4.81-2.31,8.46,8.46,0,0,1,4.21.37,7.42,7.42,0,0,1,3,2,7.58,7.58,0,0,1,1.67,3.16.33.33,0,0,1,0,.16A8.36,8.36,0,0,1,450.25,448.48Zm-10,2.21a2.31,2.31,0,0,0,.12-1.08,1.56,1.56,0,0,0-.38-.83,1.62,1.62,0,0,0-.78-.48,2.45,2.45,0,0,0-1.12,0,3,3,0,0,0-1.31.64l-9.07,8a1.07,1.07,0,0,0-.14,1.72l1.86,2.11,10-8.78A2.89,2.89,0,0,0,440.21,450.69Zm8,7.22a2.25,2.25,0,0,0,.85-1.16,2.34,2.34,0,0,0,.08-1.16,2,2,0,0,0-.44-.9,2.24,2.24,0,0,0-.78-.47,2.19,2.19,0,0,0-1.22-.14,2.81,2.81,0,0,0-1.33.62l-2.15,1.89-9.81,8.6,2,2.31a1.09,1.09,0,0,0,1.74.07l.27-.23Z"/><path class="cls-1" d="M474.07,440.79a20.11,20.11,0,0,1-3.36,3.16,18.84,18.84,0,0,1-4,2.29,12.59,12.59,0,0,1-4.47,1,6.67,6.67,0,0,1-4.29-1.35l-1.44-1.2-12.76-10.59,3.84-4.59,13.14,10.91a3.4,3.4,0,0,0,2.45.66,7.84,7.84,0,0,0,2.49-.71,12.83,12.83,0,0,0,2.2-1.37,12.6,12.6,0,0,0,1.85-1.8,12,12,0,0,0,1.45-2.14,12.7,12.7,0,0,0,1-2.39,7.63,7.63,0,0,0,.25-2.57,3.29,3.29,0,0,0-1.09-2.27l-13.14-10.91L462,412.3l12.76,10.58,1.45,1.2a6.48,6.48,0,0,1,2.09,4,12.57,12.57,0,0,1-.19,4.58,19.14,19.14,0,0,1-1.55,4.31A19.94,19.94,0,0,1,474.07,440.79Z"/><path class="cls-1" d="M464.6,409.07l16-26.52,5.15,3.06-6.42,10.67,17.55,10.46-3.11,5.16L476.2,401.44l-6.45,10.7Z"/><path class="cls-1" d="M501.54,375.28l3.53-8.63-3.51-.17c-1.31,0-2.56,0-3.74,0a17.85,17.85,0,0,0-3.36.35,2.51,2.51,0,0,0-2,1.15,2.57,2.57,0,0,0,.6,2.31,20.83,20.83,0,0,0,2.18,2.55c.83.83,1.72,1.7,2.68,2.6l10.52,9.5-2.5,6.11-12.78-12a46.84,46.84,0,0,1-6-6.84,6.68,6.68,0,0,1-.63-6.6,6.75,6.75,0,0,1,5.06-4.28,45.49,45.49,0,0,1,9.07-.73l17.6.25-2.57,6.27-4.27-.19-4.34,10.61Z"/><path class="cls-1" d="M513.94,354l2.65-10.73-14-3.42-2.64,10.73-5.83-1.42,6.72-27.26,5.83,1.42L504,334l14,3.42,2.64-10.69,5.82,1.43-6.72,27.25Z"/><path class="cls-2" d="M205.32,278.47V205.15l-19.69-18.68c24.84-25.41,55.45-38.49,89-40.77,40.2-2.73,75.63,12,105.14,39.63L361,203.73v74.74Zm107.8-14.9c8.95-2.15,14.85-6.8,16.76-15.4,1.31-5.89-2.48-10.1-8.18-9.43C310.65,240,304,250.29,307.33,261A10.63,10.63,0,0,0,313.12,263.57Zm-54-1.91c3.07-7.59.86-13.49-4.82-18.38-4.87-4.18-10.19-6.31-16.61-2.95l-2.58,5.91C240.62,260.88,248.57,266.09,259.14,261.66Z"/><path class="cls-2" d="M348.4,350h-129l-32.27,32.52c-10.2-8.5-16.74-19-23.65-29.32l41.88-41.39V294.23H360.86v16.25l42.35,41.59c-6.87,11.25-13.88,21.4-23.35,29.69Z"/><path class="cls-2" d="M200.21,393.63l28.52-28.55H338.16L366,393.28C326.1,426.67,253.49,434.93,200.21,393.63Z"/><path class="cls-2" d="M174.57,198.54l13.72,13.18v66.76H144.55C146.58,248.66,156,222,174.57,198.54Z"/><path class="cls-2" d="M422.38,278.55h-44v-67l13.33-12.81C410.55,221.71,419,248.8,422.38,278.55Z"/><path class="cls-2" d="M145.15,294.05H188c.87,3.37.26,6.71.4,9.9l-33,32.66A135.37,135.37,0,0,1,145.15,294.05Z"/><path class="cls-2" d="M378.21,304.34V294.1h43.56c-2.19,14.4-5,28.61-10.62,41.83l-32.07-32.47Z"/></g></svg>