<?xml version="1.0" encoding="UTF-8"?><svg id="Capa_1" xmlns="http://www.w3.org/2000/svg" viewBox="0 0 566.93 566.93"><defs><style>.cls-1{fill:#2d3d4f;}.cls-1,.cls-2,.cls-3,.cls-4,.cls-5{stroke-width:0px;}.cls-6{font-family:Tahoma-Bold, Tahoma;font-size:42px;font-weight:700;}.cls-6,.cls-3{fill:#fff;}.cls-2{fill:none;}.cls-4{fill:#35495e;}.cls-5{fill:#f1c410;}</style></defs><circle class="cls-4" cx="283.46" cy="283.46" r="277.5"/><path class="cls-4" d="m283.46,562.68c-153.96,0-279.21-125.25-279.21-279.21S129.51,4.25,283.46,4.25s279.21,125.25,279.21,279.21-125.26,279.21-279.21,279.21Zm0-555C131.39,7.68,7.68,131.39,7.68,283.46s123.72,275.79,275.79,275.79,275.79-123.72,275.79-275.79S435.53,7.68,283.46,7.68Z"/><circle class="cls-5" cx="283.46" cy="283.46" r="264.2"/><path class="cls-4" d="m283.46,549.38c-146.62,0-265.91-119.29-265.91-265.91S136.84,17.55,283.46,17.55s265.91,119.29,265.91,265.91-119.29,265.91-265.91,265.91Zm0-528.4C138.73,20.98,20.98,138.73,20.98,283.46s117.75,262.49,262.48,262.49,262.49-117.75,262.49-262.49S428.2,20.98,283.46,20.98Z"/><path class="cls-4" d="m433.11,198.3c1.26,2.35,2.47,4.74,3.62,7.16l-10.01-.79c11.4,22.09,17.85,47.14,17.85,73.66,0,88.84-72.27,161.11-161.11,161.11s-161.11-72.27-161.11-161.11c0-27.81,7.09-54,19.55-76.86l-10.03.58c-11.56,22.93-18.08,48.84-18.08,76.28,0,93.71,75.97,169.67,169.67,169.67s169.67-75.97,169.67-169.67c0-28.94-7.25-56.19-20.03-80.03Z"/><circle class="cls-3" cx="283.46" cy="278.33" r="161.11" transform="translate(-113.78 281.96) rotate(-45)"/><path class="cls-2" d="m433.11,198.3c-23.35-43.58-65.18-75.77-115.01-86.1l32.76,79.58,82.25,6.52Z"/><path class="cls-2" d="m246.89,112.62c-47.7,10.48-87.87,41.03-111.23,82.35l80.22-4.64,31.01-77.7Z"/><path class="cls-2" d="m114.21,266.39c-.27,3.94-.42,7.92-.42,11.94,0,43.5,16.38,83.17,43.3,113.2l18.11-74.07-60.98-51.08Z"/><path class="cls-2" d="m221.72,436.41c19.14,7.48,39.96,11.59,61.75,11.59s43.32-4.25,62.72-11.98l-61.16-38.53-63.31,38.91Z"/><path class="cls-2" d="m411.65,389.49c25.84-29.78,41.49-68.64,41.49-111.17,0-2.56-.07-5.1-.18-7.62l-59.37,49.11,18.06,69.68Z"/><path class="cls-4" d="m246.89,112.62l21.29-53.34c-86.36,5.94-158.99,61.81-189.23,138.96l56.71-3.28c23.35-41.32,63.53-71.86,111.23-82.35Z"/><path class="cls-4" d="m113.79,278.33c0-4.01.15-7.99.42-11.94l-44.75-37.48c-3.65,15.88-5.59,32.42-5.59,49.42,0,68.04,30.95,128.85,79.54,169.13l13.67-55.92c-26.92-30.03-43.3-69.7-43.3-113.2Z"/><path class="cls-4" d="m433.11,198.3l56.6,4.49c-29.4-80.25-104.31-138.54-193.46-143.66l21.85,53.07c49.83,10.33,91.66,42.53,115.01,86.1Z"/><path class="cls-4" d="m503.05,278.33c0-15.49-1.61-30.61-4.67-45.2l-45.42,37.57c.11,2.53.18,5.07.18,7.62,0,42.52-15.64,81.39-41.49,111.17l14.45,55.77c47.09-40.27,76.94-100.11,76.94-166.94Z"/><path class="cls-4" d="m283.46,448c-21.79,0-42.61-4.11-61.75-11.59l-50.19,30.85c32.78,19.46,71.05,30.65,111.93,30.65s79.3-11.23,112.12-30.76l-49.4-31.12c-19.4,7.72-40.56,11.98-62.72,11.98Z"/><path class="cls-5" d="m427.87,479.39l-7.6-29.31c-5.83,4.65-11.9,9.02-18.19,13.07l25.79,16.24Z"/><path class="cls-5" d="m288.71,58.81l-6.58-15.99-6.42,16.08c2.58-.09,5.16-.15,7.76-.15,1.75,0,3.5.03,5.24.07Z"/><path class="cls-5" d="m143.36,476.53l21.63-13.3c-5.39-3.46-10.62-7.16-15.67-11.07l-5.96,24.37Z"/><path class="cls-5" d="m385.86,317.31l3.36-2.78,63.16-52.24c-1.89-20.18-7.31-39.33-15.65-56.84l-86.42-6.85-4.19-.33-1.6-3.89-34.43-83.65c-8.67-1.37-17.56-2.08-26.62-2.08-9.74,0-19.29.83-28.58,2.41l-32.65,81.8-1.62,4.05-4.35.25-84.4,4.88c-8.68,17.21-14.51,36.11-16.88,56.06l64.6,54.11,3.27,2.74-1.01,4.14-19.16,78.39c14.64,14.84,31.99,27,51.26,35.66l67.49-41.49,3.63-2.23,3.61,2.27,65.17,41.05c19.76-9.02,37.48-21.71,52.29-37.21l-19.18-74.01-1.09-4.22Z"/><path class="cls-5" d="m513.71,211.56l-21.56-1.71c1.7,5.18,3.21,10.45,4.53,15.8l17.03-14.09Z"/><path class="cls-5" d="m76.35,205.26l-22.87,1.32,17.84,14.94,43.68,36.58c2.37-19.96,8.2-38.85,16.88-56.06l-55.52,3.21Z"/><path class="cls-5" d="m353.85,432.75l48.24,30.39c6.29-4.05,12.36-8.41,18.19-13.07l-14.13-54.53c-14.81,15.5-32.54,28.19-52.29,37.21Z"/><path class="cls-5" d="m496.67,225.65c-1.32-5.35-2.83-10.62-4.53-15.8l-55.41-4.39c8.34,17.5,13.76,36.65,15.65,56.84l44.29-36.64Z"/><path class="cls-5" d="m162.68,397.48l-13.37,54.68c5.06,3.91,10.28,7.61,15.67,11.07l48.95-30.09c-19.27-8.66-36.62-20.82-51.26-35.66Z"/><path class="cls-4" d="m182.86,314.95l-3.27-2.74-64.6-54.11c-.33,2.74-.59,5.5-.78,8.28l60.98,51.08-18.11,74.07c1.82,2.03,3.68,4.01,5.6,5.95l19.16-78.39,1.01-4.14Z"/><path class="cls-4" d="m285.07,389.43l-3.63,2.23-67.49,41.49c2.56,1.15,5.15,2.24,7.77,3.26l63.31-38.91,61.16,38.53c2.59-1.03,5.14-2.12,7.66-3.27l-65.17-41.05-3.61-2.27Z"/><path class="cls-2" d="m243,122.36c-40.85,10.61-75.45,36.88-96.98,72l69.86-4.04,27.12-67.96Z"/><path class="cls-2" d="m220.62,196.91l-4.35.25-74.37,4.3c-12.46,22.86-19.55,49.05-19.55,76.86,0,88.84,72.27,161.11,161.11,161.11s161.11-72.27,161.11-161.11-72.27-161.11-161.11-161.11c-11.07,0-21.89,1.12-32.34,3.26l-28.89,72.38-1.62,4.05Z"/><path class="cls-4" d="m131.87,202.04c1.21-2.39,2.47-4.75,3.78-7.08-1.31,2.33-2.58,4.69-3.78,7.08Z"/><path class="cls-4" d="m243,122.36l3.89-9.75c2.64-.58,5.31-1.1,8-1.56-51.19,8.68-94.58,40.29-119.23,83.9l10.36-.6c21.53-35.12,56.13-61.39,96.98-72Z"/><polygon class="cls-4" points="131.87 202.04 131.87 202.04 131.87 202.04 131.87 202.04"/><polygon class="cls-4" points="254.89 111.06 254.89 111.06 254.89 111.06 254.89 111.06"/><polygon class="cls-4" points="135.66 194.96 135.66 194.96 135.66 194.96 135.66 194.96"/><path class="cls-4" d="m215.88,190.32l-69.86,4.04c-1.43,2.33-2.8,4.7-4.11,7.1l74.37-4.3,4.35-.25,1.62-4.05,28.89-72.38c-2.74.56-5.45,1.19-8.13,1.89l-27.12,67.96Z"/><path class="cls-4" d="m146.01,194.36l-10.36.6h0c-1.31,2.33-2.58,4.69-3.78,7.08,0,0,0,0,0,0l10.03-.58c1.31-2.41,2.69-4.77,4.11-7.1Z"/><path class="cls-4" d="m243,122.36c2.68-.7,5.39-1.33,8.13-1.89l3.76-9.42s0,0,0,0c-2.69.46-5.35.98-8,1.56l-3.89,9.75Z"/><path class="cls-4" d="m143.36,476.53l5.96-24.37c-1.99-1.54-3.96-3.11-5.9-4.71l-10.67,43.65,38.78-23.84c-2.2-1.31-4.39-2.64-6.54-4.02l-21.63,13.3Z"/><path class="cls-4" d="m389.22,314.54l-3.36,2.78,1.09,4.22,19.18,74.01c1.88-1.97,3.72-3.99,5.51-6.05l-18.06-69.68,59.37-49.11c-.12-2.82-.32-5.63-.58-8.41l-63.16,52.24Z"/><path class="cls-4" d="m53.48,206.58l22.87-1.32c.83-2.35,1.69-4.7,2.6-7.01l-43.12,2.49,33.63,28.17c.57-2.48,1.2-4.94,1.85-7.39l-17.84-14.94Z"/><path class="cls-4" d="m427.87,479.39l-25.79-16.24c-2.14,1.37-4.31,2.7-6.49,4.01l43.25,27.25-12.73-49.13c-1.91,1.64-3.86,3.24-5.83,4.81l7.6,29.31Z"/><path class="cls-4" d="m513.71,211.56l-17.03,14.09c.61,2.48,1.18,4.97,1.71,7.48l32.72-27.06-41.39-3.28c.86,2.33,1.66,4.69,2.44,7.07l21.56,1.71Z"/><path class="cls-4" d="m282.12,42.81l6.58,15.99c2.52.06,5.04.17,7.54.31l-14.22-34.55-13.85,34.7c2.5-.17,5.01-.3,7.53-.39l6.42-16.08Z"/><path class="cls-2" d="m322.09,121.91l28.76,69.87,71.92,5.7c-21.68-37.21-57.83-64.98-100.68-75.57Z"/><path class="cls-4" d="m422.77,197.48l10.33.82c-23.35-43.58-65.18-75.77-115.01-86.1l4,9.72c42.85,10.59,79,38.36,100.68,75.57Z"/><polygon class="cls-4" points="433.11 198.3 433.11 198.3 433.11 198.3 433.11 198.3"/><polygon class="cls-4" points="318.09 112.19 318.09 112.19 318.09 112.19 318.09 112.19"/><path class="cls-4" d="m350.85,191.77l-28.76-69.87c-2.69-.66-5.4-1.26-8.15-1.79l30.57,74.26,1.6,3.89,4.19.33,76.41,6.06c-1.26-2.43-2.57-4.83-3.95-7.19l-71.92-5.7Z"/><path class="cls-4" d="m433.11,198.3s0,0,0,0l-10.33-.82c1.37,2.36,2.69,4.75,3.95,7.19l10.01.79c-1.15-2.42-2.36-4.8-3.62-7.16Z"/><path class="cls-4" d="m114.99,258.11l-43.68-36.58c-.65,2.45-1.28,4.91-1.85,7.39l44.75,37.48c.19-2.78.45-5.54.78-8.28Z"/><path class="cls-4" d="m353.85,432.75c-2.52,1.15-5.08,2.24-7.66,3.27l49.4,31.12c2.19-1.3,4.36-2.63,6.49-4.01l-48.24-30.39Z"/><path class="cls-4" d="m213.94,433.15l-48.95,30.09c2.15,1.38,4.34,2.71,6.54,4.02l50.19-30.85c-2.62-1.03-5.22-2.11-7.77-3.26Z"/><path class="cls-4" d="m406.14,395.54l14.13,54.53c1.97-1.57,3.92-3.18,5.83-4.81l-14.45-55.77c-1.79,2.06-3.63,4.08-5.51,6.05Z"/><path class="cls-4" d="m162.68,397.48c-1.91-1.94-3.78-3.92-5.6-5.95l-13.67,55.92c1.94,1.61,3.91,3.17,5.9,4.71l13.37-54.68Z"/><path class="cls-4" d="m452.38,262.29c.26,2.79.46,5.59.58,8.41l45.42-37.57c-.53-2.51-1.1-5-1.71-7.48l-44.29,36.64Z"/><path class="cls-4" d="m131.87,202.04c1.21-2.39,2.47-4.75,3.79-7.08l-56.71,3.28c-.91,2.32-1.77,4.66-2.6,7.01l55.52-3.21Z"/><path class="cls-4" d="m436.73,205.46l55.41,4.39c-.78-2.37-1.58-4.73-2.44-7.07l-56.6-4.49c1.26,2.35,2.47,4.74,3.62,7.16Z"/><path class="cls-4" d="m310.08,110.74c2.69.42,5.36.91,8.01,1.46l-21.85-53.07c-2.5-.14-5.01-.25-7.54-.31l21.38,51.93Z"/><path class="cls-4" d="m254.89,111.06l20.82-52.17c-2.52.09-5.03.22-7.53.39l-21.29,53.34c2.64-.58,5.31-1.1,8-1.56Z"/><polygon class="cls-3" points="333.59 214.26 467.66 224.89 365.38 309.5 399.03 439.35 284.63 367.28 171.36 436.9 202.93 307.75 99.27 220.93 233.19 213.18 282.39 89.89 333.59 214.26"/><path class="cls-4" d="m282.49,108.13l44.76,108.74,1.6,3.89,4.19.33,117.22,9.29-89.26,73.84-3.36,2.78,1.09,4.22,29.32,113.13-99.79-62.86-3.61-2.27-3.63,2.23-99.07,60.89,27.61-112.96,1.01-4.14-3.27-2.74-90.41-75.73,116.67-6.75,4.35-.25,1.62-4.05,42.94-107.59m-.1-18.24l-49.2,123.28-133.92,7.75,103.66,86.82-31.57,129.15,113.27-69.62,114.41,72.07-33.66-129.85,102.28-84.61-134.07-10.63-51.2-124.36h0Z"/><path class="cls-5" d="m422.77,196.24l-43.25-11.97-8.32,30.39,1.62.74.55,2.12,5.71-.42,2.51,1.34-6.49,5.8s30.85,8.74,38.59,10.25c-2.63-6.82-7.63-22.17-7.63-22.17l16.72-16.08Z"/><path class="cls-4" d="m380.91,186.73l37.96,10.5-14.2,13.66-.9.87.39,1.19c.17.54,3.72,11.4,6.38,18.81-8.31-2-24.34-6.46-31.41-8.44l3.78-3.38,2.12-1.9-2.51-1.34-2.51-1.34-.51-.27-.58.04-4.05.3-.13-.51-.24-.92-.87-.39-.07-.03,7.35-26.82m-1.39-2.45l-8.32,30.39,1.62.74.55,2.12,5.71-.42,2.51,1.34-6.49,5.8s30.85,8.74,38.59,10.25c-2.63-6.82-7.63-22.17-7.63-22.17l16.72-16.08-43.25-11.97h0Z"/><polygon class="cls-4" points="377.53 205.11 371.19 214.56 375.09 224.25 384.93 218.31 377.53 205.11"/><path class="cls-4" d="m377.38,208.91l4.87,8.69-6.18,3.73-2.63-6.53,3.94-5.88m.15-3.81l-6.34,9.46,3.9,9.68,9.84-5.93-7.4-13.2h0Z"/><path class="cls-5" d="m144.3,196.24l43.25-11.97,8.32,30.39-1.62.74-.55,2.12-5.71-.42-2.51,1.34,6.49,5.8s-30.85,8.74-38.59,10.25c2.63-6.82,7.63-22.17,7.63-22.17l-16.72-16.08Z"/><path class="cls-4" d="m186.16,186.73l7.35,26.82-.07.03-.87.39-.24.92-.13.51-4.05-.3-.58-.04-.51.27-2.51,1.34-2.51,1.34,2.12,1.9,3.78,3.38c-7.07,1.98-23.11,6.44-31.41,8.44,2.66-7.4,6.21-18.27,6.38-18.81l.39-1.19-.9-.87-14.2-13.66,37.96-10.5m1.39-2.45l-43.25,11.97,16.72,16.08s-5,15.35-7.63,22.17c7.73-1.52,38.59-10.25,38.59-10.25l-6.49-5.8,2.51-1.34,5.71.42.55-2.12,1.62-.74-8.32-30.39h0Z"/><polygon class="cls-4" points="189.54 205.11 195.88 214.56 191.98 224.25 182.14 218.31 189.54 205.11"/><path class="cls-4" d="m189.69,208.91l3.94,5.88-2.63,6.53-6.18-3.73,4.87-8.69m-.15-3.81l-7.4,13.2,9.84,5.93,3.9-9.68-6.34-9.46h0Z"/><path class="cls-5" d="m384.93,218.31s-47.38-18.6-103.16-18.6-99.62,18.6-99.62,18.6l-14.17-40.29s49.59-23.47,113.79-23.47,113.79,25.24,113.79,25.24l-10.63,38.52Z"/><path class="cls-4" d="m281.77,158.54c53.74,0,97.59,18.2,109.06,23.42l-8.58,31.12c-12.82-4.52-53.41-17.35-100.47-17.35s-85.16,12.8-97.23,17.36l-11.57-32.9c12-5.05,55.54-21.65,108.8-21.65m0-3.98c-64.2,0-113.79,23.47-113.79,23.47l14.17,40.29s43.83-18.6,99.62-18.6,103.16,18.6,103.16,18.6l10.63-38.52s-49.59-25.24-113.79-25.24h0Z"/><path class="cls-4" d="m340.11,283.46l13.56-7.91-14.98-4.69,11.46-10.73-15.65-1.24,8.79-13.01-15.54,2.27,5.67-14.64-14.64,5.67,2.27-15.54-13.01,8.79-1.24-15.65-10.73,11.46-4.69-14.98-7.91,13.56-7.91-13.56-4.69,14.98-10.73-11.46-1.24,15.65-13.01-8.79,2.27,15.54-14.64-5.67,5.67,14.64-15.54-2.27,8.79,13.01-15.65,1.24,11.46,10.73-14.98,4.69,13.56,7.91-13.56,7.91,14.98,4.69-11.46,10.73,15.65,1.24-8.79,13.01,15.54-2.27-5.67,14.64,14.64-5.67-2.27,15.54,13.01-8.79,1.24,15.65,10.73-11.46,4.69,14.98,7.91-13.56,7.91,13.56,4.69-14.98,10.73,11.46,1.24-15.65,13.01,8.79-2.27-15.54,14.64,5.67-5.67-14.64,15.54,2.27-8.79-13.01,15.65-1.24-11.46-10.73,14.98-4.69-13.56-7.91Zm-56.65,49.89c-27.55,0-49.89-22.34-49.89-49.89s22.34-49.89,49.89-49.89,49.89,22.34,49.89,49.89-22.34,49.89-49.89,49.89Z"/><path class="cls-4" d="m132.75,470.56c-11.34,0-20.53,9.19-20.53,20.53,0,2.1.32,4.13.91,6.04.79,2.57,2.07,4.93,3.74,6.96,2.41,2.95,5.64,5.19,9.32,6.44,2.06.7,4.26,1.09,6.56,1.09.43,0,.84-.04,1.26-.06,10.75-.65,19.27-9.56,19.27-20.47s-9.19-20.53-20.53-20.53Z"/><path class="cls-4" d="m432.6,470.56c-11.34,0-20.53,9.19-20.53,20.53s8.74,20.04,19.67,20.49c.29.01.57.04.86.04,2.67,0,5.21-.53,7.55-1.45,2.91-1.15,5.48-2.95,7.56-5.21,1.94-2.11,3.44-4.61,4.37-7.39.68-2.04,1.06-4.21,1.06-6.48,0-11.34-9.19-20.53-20.53-20.53Z"/><circle class="cls-4" cx="528.84" cy="205.93" r="20.53"/><circle class="cls-4" cx="281.94" cy="26.78" r="20.53"/><circle class="cls-4" cx="39.8" cy="200.73" r="20.53"/><path class="cls-4" d="m310.08,110.74l-21.38-51.93c-1.74-.04-3.49-.07-5.24-.07-2.6,0-5.18.06-7.76.15l-20.82,52.17c9.29-1.58,18.84-2.41,28.58-2.41,9.06,0,17.95.72,26.62,2.08Z"/><path class="cls-4" d="m318.09,112.19s0,0,0,0c-2.61-.54-5.25-1.02-7.91-1.44-.03,0-.07-.01-.1-.02h0c-8.67-1.37-17.56-2.08-26.62-2.08-9.74,0-19.29.83-28.58,2.41l-3.76,9.42c10.45-2.14,21.26-3.26,32.34-3.26,10.42,0,20.61,1.01,30.48,2.91,2.74.53,5.46,1.12,8.15,1.79l-4-9.72Z"/><text class="cls-6" transform="translate(138.35 182.28) rotate(-52.02)"><tspan x="0" y="0">N</tspan></text><text class="cls-6" transform="translate(157.61 157.69) rotate(-42.51)"><tspan x="0" y="0">A</tspan></text><text class="cls-6" transform="translate(177.98 138.92) rotate(-33.55)"><tspan x="0" y="0">V</tspan></text><text class="cls-6" transform="translate(200.66 123.76) rotate(-24.59)"><tspan x="0" y="0">A</tspan></text><text class="cls-6" transform="translate(225.95 112.3) rotate(-16.29)"><tspan x="0" y="0">L</tspan></text><text class="cls-6" transform="translate(248.38 106.01) rotate(-10.57)"><tspan x="0" y="0"> </tspan></text><text class="cls-6" transform="translate(259.68 103.47) rotate(-4.41)"><tspan x="0" y="0">S</tspan></text><text class="cls-6" transform="translate(285.18 101.45) rotate(3.98)"><tspan x="0" y="0">E</tspan></text><text class="cls-6" transform="translate(309.95 103.01) rotate(12.7)"><tspan x="0" y="0">C</tspan></text><text class="cls-6" transform="translate(336.24 108.71) rotate(22.32)"><tspan x="0" y="0">U</tspan></text><text class="cls-6" transform="translate(363.85 120.01) rotate(32.09)"><tspan x="0" y="0">R</tspan></text><text class="cls-6" transform="translate(388.68 135.96) rotate(40.41)"><tspan x="0" y="0">I</tspan></text><text class="cls-6" transform="translate(403.62 148.38) rotate(47.91)"><tspan x="0" y="0">T</tspan></text><text class="cls-6" transform="translate(420.28 166.56) rotate(56.67)"><tspan x="0" y="0">Y</tspan></text><path class="cls-4" d="m206.39,193.49c.33,1.1.39,2.13.21,3.08-.19.96-.56,1.82-1.12,2.59-.66.91-1.46,1.67-2.39,2.27-.93.6-2.18,1.16-3.75,1.69-3.61,1.22-5.41,1.86-8.99,3.21-3.25-8.61-4.88-12.92-8.14-21.53,3.43-1.3,5.16-1.92,8.62-3.1,1.8-.62,3.19-1,4.16-1.18.97-.18,1.93-.2,2.86-.06,1.01.15,1.84.51,2.49,1.09.65.58,1.11,1.33,1.4,2.26.33,1.08.32,2.12,0,3.14-.33,1.02-.94,1.88-1.84,2.6.01.05.02.07.04.12,1.56-.18,2.92.04,4.06.66,1.15.62,1.94,1.68,2.39,3.18Zm-10.45-6.64c-.12-.35-.34-.68-.66-.99-.32-.31-.72-.47-1.2-.5-.45-.02-.95.05-1.5.22-.55.17-1.37.44-2.45.82-.17.06-.25.09-.42.15.65,1.84.97,2.76,1.62,4.59.3-.11.45-.16.75-.26,1.02-.36,1.73-.61,2.13-.77.4-.16.79-.4,1.17-.74.41-.36.65-.76.71-1.18.06-.42.01-.87-.14-1.35Zm4.39,8.4c-.22-.68-.54-1.16-.95-1.45-.42-.29-.96-.42-1.61-.43-.39,0-.91.08-1.54.28-.63.2-1.47.47-2.51.84-.43.15-.65.23-1.08.38.77,2.18,1.15,3.26,1.92,5.44.12-.04.18-.06.31-.11,1.49-.52,2.53-.88,3.1-1.1.57-.21,1.11-.54,1.63-.98.45-.39.74-.83.84-1.32.11-.5.08-1.01-.09-1.54Z"/><path class="cls-4" d="m227.01,195.44c-6.17,1.36-9.24,2.13-15.33,3.86-2.51-8.86-3.77-13.29-6.28-22.14,2.49-.71,3.74-1.05,6.25-1.7,1.87,7.21,2.81,10.82,4.68,18.03,3.88-1.01,5.83-1.48,9.74-2.34.38,1.71.57,2.57.94,4.29Z"/><path class="cls-4" d="m239.24,193.53c-3.12.54-5.64.27-7.62-.86-1.98-1.13-3.28-3.08-3.88-5.9-1.21-5.75-1.82-8.63-3.03-14.39,2.53-.53,3.79-.78,6.33-1.26,1.06,5.65,1.58,8.47,2.64,14.12.29,1.57.83,2.68,1.59,3.34.76.66,1.83.86,3.23.62,1.36-.23,2.3-.77,2.83-1.61.52-.84.66-2.09.41-3.73-.89-5.68-1.33-8.51-2.22-14.19,2.54-.4,3.82-.58,6.37-.92.78,5.82,1.17,8.73,1.94,14.56.37,2.81-.18,5.08-1.62,6.82-1.44,1.74-3.75,2.85-6.96,3.4Z"/><path class="cls-4" d="m253.43,191.01c-1.06-9.15-1.59-13.72-2.65-22.86,6.88-.8,10.33-1.09,17.23-1.48.1,1.75.15,2.63.24,4.38-4.29.24-6.43.4-10.71.8.15,1.61.23,2.41.38,4.02,3.89-.36,5.83-.51,9.73-.74.1,1.75.15,2.63.26,4.38-3.83.22-5.75.37-9.57.73.22,2.32.33,3.47.54,5.79,4.06-.38,6.1-.53,10.17-.76.1,1.75.15,2.63.24,4.38-6.35.35-9.53.62-15.86,1.36Z"/><path class="cls-4" d="m283.42,189.69c-3.52,0-6.33-.96-8.49-2.98-2.17-2.02-3.37-4.89-3.54-8.67-.17-3.64.79-6.61,2.96-8.85,2.16-2.24,5.2-3.41,9.04-3.42,1.02,0,1.94.05,2.75.16.81.11,1.6.26,2.33.46.58.16,1.21.39,1.89.67.68.28,1.23.53,1.64.74-.06,2.19-.09,3.29-.15,5.49-.26,0-.38-.01-.64-.02-.29-.26-.67-.56-1.12-.92-.45-.35-.97-.7-1.55-1.04-.58-.34-1.22-.63-1.92-.87-.7-.24-1.44-.36-2.21-.36-.91,0-1.75.13-2.51.4-.76.27-1.48.74-2.15,1.39-.62.6-1.12,1.4-1.49,2.41-.37,1.01-.54,2.19-.51,3.55.03,1.43.26,2.63.68,3.6.42.97.96,1.74,1.61,2.33.63.57,1.33.98,2.09,1.23.77.25,1.53.38,2.29.38.79,0,1.54-.12,2.26-.37.72-.25,1.33-.53,1.83-.82.53-.31,1.02-.63,1.44-.95.42-.32.78-.61,1.09-.86.22,0,.33,0,.55.01-.06,2.16-.09,3.24-.15,5.41-.44.18-.95.39-1.52.63-.58.24-1.17.44-1.77.61-.74.2-1.43.36-2.07.47-.64.11-1.52.16-2.65.16Z"/><path class="cls-4" d="m317.61,179.79c-.45,3.69-1.85,6.46-4.13,8.36-2.28,1.89-5.14,2.67-8.66,2.39-3.53-.28-6.23-1.51-8.17-3.76-1.94-2.25-2.88-5.2-2.75-8.86.13-3.7,1.3-6.59,3.58-8.63,2.27-2.04,5.38-2.95,9.23-2.64,3.84.3,6.77,1.68,8.71,4.05,1.94,2.37,2.65,5.41,2.2,9.1Zm-6.33-.72c.14-1.36.1-2.54-.11-3.53-.21-.99-.54-1.82-1-2.48-.47-.68-1.05-1.18-1.7-1.51-.66-.33-1.35-.53-2.08-.58-.78-.06-1.49.01-2.14.22-.65.21-1.3.61-1.91,1.22-.55.55-1.02,1.33-1.4,2.3-.38.97-.6,2.14-.68,3.51-.08,1.41,0,2.59.23,3.54.24.95.59,1.75,1.05,2.41.47.67,1.02,1.17,1.66,1.48.63.32,1.29.51,1.98.56.7.06,1.4-.04,2.08-.27.69-.23,1.3-.64,1.84-1.21.58-.62,1.05-1.36,1.42-2.22.37-.86.62-2.01.77-3.44Z"/><path class="cls-4" d="m317.17,191.33c4.31-8.74,6.6-13.06,11.45-21.62,2.78.44,4.16.67,6.93,1.17,1.76,9.68,2.5,14.52,3.7,24.19-2.39-.51-3.59-.75-5.99-1.21-.23-1.96-.35-2.94-.6-4.89-2.97-.55-4.46-.8-7.44-1.26-.88,1.77-1.31,2.65-2.17,4.42-2.35-.35-3.52-.51-5.88-.81Zm14.93-6.7c-.45-3.16-.68-4.75-1.19-7.91-1.52,2.82-2.26,4.24-3.72,7.08,1.97.31,2.95.48,4.91.83Z"/><path class="cls-4" d="m345.98,196.6c1.74-7.24,2.62-10.87,4.36-18.11-2.91-.7-4.37-1.03-7.3-1.65.37-1.72.55-2.58.91-4.29,8.47,1.8,12.68,2.87,21.02,5.31-.49,1.69-.74,2.53-1.24,4.21-2.88-.85-4.33-1.25-7.23-2.02-1.91,7.2-2.86,10.8-4.77,18.01-2.3-.61-3.46-.9-5.77-1.46Z"/><path class="cls-4" d="m367.73,203.27c-1.73-.58-3.2-1.23-4.41-1.96-1.21-.74-2.32-1.52-3.31-2.34.63-2.1.94-3.15,1.56-5.25.21.06.32.1.53.16.89,1.29,1.95,2.4,3.18,3.34,1.23.94,2.5,1.63,3.8,2.06.33.11.77.22,1.33.33.56.12,1.04.15,1.41.12.45-.03.88-.14,1.26-.34.38-.2.66-.54.83-1.03.19-.54.12-1.07-.22-1.57-.34-.5-.8-.94-1.38-1.31-.73-.47-1.51-.94-2.36-1.41-.85-.48-1.62-.97-2.33-1.47-1.63-1.18-2.69-2.39-3.18-3.65-.49-1.26-.51-2.65-.06-4.18.62-2.06,2.08-3.45,4.42-4.12,2.34-.67,4.99-.52,7.91.47,1.46.5,2.87,1.13,4.21,1.91s2.5,1.6,3.46,2.47c-.74,1.97-1.1,2.95-1.84,4.92-.21-.08-.32-.12-.53-.2-.63-1.02-1.5-1.99-2.62-2.93-1.12-.94-2.36-1.64-3.73-2.1-.53-.18-1.02-.31-1.47-.38-.45-.07-.94-.09-1.46-.05-.43.03-.84.16-1.21.38-.38.22-.63.52-.75.9-.18.56-.11,1.07.22,1.54.33.47,1.07,1.04,2.22,1.72.74.44,1.46.86,2.14,1.27.68.41,1.4.9,2.13,1.47,1.44,1.13,2.39,2.3,2.83,3.51.45,1.21.38,2.56-.18,4.05-.81,2.14-2.35,3.52-4.59,4.18-2.24.66-4.83.47-7.83-.53Z"/><path class="cls-5" d="m173.3,348.67s51.62,20.06,112.41,20.06,108.55-20.06,108.55-20.06l15.44,43.46s-54.04,25.31-123.99,25.31-124.5-25.41-124.5-25.41l12.08-43.36Z"/><path class="cls-4" d="m391.7,354.29l12.61,35.5c-13.06,5.44-60.46,23.36-118.6,23.36s-106.57-18.24-119.35-23.57l9.83-35.28c13.89,4.85,58.16,18.73,109.52,18.73s92.91-13.85,105.99-18.74m2.57-5.62s-47.76,20.06-108.55,20.06-112.41-20.06-112.41-20.06l-12.08,43.36s54.54,25.41,124.5,25.41,123.99-25.31,123.99-25.31l-15.44-43.46h0Z"/><path class="cls-1" d="m190.74,392.56c-2.02-.58-3.74-1.29-5.16-2.11-1.42-.82-2.69-1.7-3.82-2.63.72-2.25,1.08-3.37,1.8-5.62.23.08.35.11.59.19.96,1.42,2.15,2.64,3.55,3.66,1.4,1.02,2.85,1.74,4.33,2.17.37.11.88.21,1.51.31.63.1,1.17.11,1.58.06.5-.06.96-.21,1.37-.44.4-.24.68-.63.83-1.16.16-.6.04-1.16-.36-1.67-.4-.51-.94-.96-1.59-1.32-.81-.46-1.69-.93-2.62-1.41-.94-.48-1.79-.99-2.56-1.52-1.78-1.24-2.92-2.56-3.42-3.91-.5-1.36-.48-2.86.04-4.5.71-2.21,2.26-3.68,4.63-4.46,2.36-.77,4.97-.74,7.87.08,1.45.41,2.86.96,4.23,1.63,1.36.68,2.56,1.41,3.58,2.19-.56,2.2-.84,3.3-1.4,5.49-.22-.06-.33-.09-.56-.14-.74-1-1.71-1.95-2.89-2.83-1.19-.88-2.48-1.52-3.88-1.91-.54-.15-1.04-.26-1.5-.31-.45-.05-.95-.03-1.49.04-.44.06-.85.21-1.23.46-.38.25-.64.59-.76,1-.18.61-.1,1.16.25,1.65.35.49,1.13,1.08,2.35,1.73.79.42,1.56.83,2.3,1.22.74.39,1.51.85,2.33,1.4,1.6,1.07,2.7,2.22,3.31,3.46.61,1.24.71,2.69.29,4.36-.6,2.39-2.1,4.07-4.54,4.98-2.44.91-5.44.89-8.95-.13Z"/><path class="cls-1" d="m210.87,397.25c1.75-7.84,2.63-11.76,4.38-19.61-2.97-.66-4.45-1.01-7.4-1.75.46-1.84.69-2.76,1.14-4.59,8.29,2.06,12.47,2.95,20.85,4.43-.33,1.86-.5,2.8-.83,4.66-2.99-.53-4.48-.81-7.45-1.41-1.59,7.88-2.39,11.82-3.98,19.69-2.69-.54-4.03-.83-6.71-1.43Z"/><path class="cls-1" d="m225.4,400.16c5.37-9.13,7.92-13.75,12.76-23.07,2.74.41,4.11.6,6.85.95,2.13,10.28,3.33,15.42,6.01,25.66-2.8-.28-4.2-.43-6.99-.77-.43-2.09-.64-3.14-1.06-5.24-3.35-.42-5.02-.65-8.35-1.16-.97,1.9-1.45,2.85-2.44,4.75-2.71-.42-4.07-.65-6.77-1.13Zm16.68-7.12c-.65-3.39-.96-5.08-1.55-8.47-1.49,3.1-2.25,4.64-3.8,7.73,2.14.31,3.21.46,5.35.74Z"/><path class="cls-1" d="m278.82,405.3c-3.33-.05-4.99-.1-8.32-.24-2.88-3.76-4.28-5.66-6.99-9.48-.95-.06-1.42-.09-2.37-.16-.26,3.63-.39,5.45-.64,9.08-2.71-.19-4.07-.3-6.77-.55.9-9.89,1.35-14.83,2.25-24.72,4.04.37,6.06.52,10.1.76,1.4.08,2.61.23,3.64.45,1.03.22,1.98.62,2.84,1.2.88.6,1.58,1.34,2.09,2.23.51.89.75,2,.71,3.35-.05,1.9-.54,3.43-1.48,4.58-.94,1.15-2.18,2.05-3.73,2.69,3.36,4.37,5.09,6.54,8.68,10.82Zm-10.14-17.56c.03-.62-.07-1.16-.29-1.63s-.62-.83-1.17-1.1c-.39-.19-.83-.32-1.32-.39-.49-.07-1.1-.13-1.83-.18-.86-.05-1.28-.08-2.14-.14-.19,2.67-.28,4-.47,6.67.75.05,1.12.08,1.87.13.91.06,1.69.05,2.33-.02.64-.07,1.19-.27,1.65-.59.43-.29.76-.64.99-1.07.22-.42.35-.98.39-1.68Z"/><path class="cls-1" d="m308.57,404.47c-2.71.2-4.07.28-6.78.42-.34-6.57-.51-9.86-.85-16.43-1.66,4.34-2.52,6.5-4.31,10.82-1.83.07-2.74.1-4.57.14-2.04-4.2-3.03-6.31-4.95-10.54.06,6.58.09,9.87.14,16.45-2.57.02-3.85.02-6.42,0,.1-9.93.15-14.89.26-24.82,2.91.03,4.37.03,7.29,0,2.3,4.87,3.49,7.3,5.96,12.13,2.16-4.97,3.2-7.47,5.18-12.47,2.91-.14,4.37-.23,7.28-.44.71,9.9,1.07,14.86,1.79,24.76Z"/><path class="cls-1" d="m311.26,404.27c2.87-10.19,4.17-15.3,6.49-25.54,2.75-.3,4.12-.46,6.86-.82,4.66,9.41,7.12,14.07,12.31,23.3-2.78.44-4.18.65-6.97,1.03-.95-1.92-1.42-2.88-2.35-4.8-3.34.44-5.02.64-8.37.99-.45,2.09-.68,3.13-1.16,5.21-2.73.27-4.09.4-6.82.62Zm14.31-11.1c-1.48-3.11-2.21-4.67-3.64-7.8-.66,3.38-1,5.06-1.72,8.44,2.15-.24,3.22-.36,5.36-.64Z"/><path class="cls-1" d="m360.58,383.87c.54,2.25.51,4.39-.14,6.42-.64,2.03-1.7,3.71-3.12,5.04-1.2,1.11-2.59,1.97-4.17,2.55s-3.3,1.04-5.15,1.4c-3.35.65-5.04.95-8.4,1.51-1.63-9.8-2.44-14.69-4.07-24.49,3.09-.51,4.64-.79,7.72-1.38,1.74-.34,3.4-.56,4.96-.66,1.57-.1,3.11.12,4.63.65,1.86.65,3.48,1.72,4.84,3.22,1.37,1.5,2.34,3.41,2.91,5.74Zm-6.63,1.48c-.35-1.59-.94-2.9-1.76-3.91-.82-1.01-1.89-1.72-3.21-2.11-.95-.28-1.9-.35-2.85-.2-.95.14-2.08.34-3.39.59-.05,0-.07.01-.12.02,1.14,6.11,1.72,9.16,2.86,15.27.05,0,.07-.01.12-.02,1.49-.28,2.74-.55,3.76-.8,1.01-.25,1.92-.74,2.73-1.47.95-.86,1.59-1.9,1.91-3.13s.3-2.64-.05-4.24Z"/><path class="cls-1" d="m364.58,395.65c1.23-10.52,1.7-15.78,2.38-26.26,2.68-.74,4.02-1.12,6.69-1.92,6.13,8.53,9.33,12.74,15.96,21.01-2.7.89-4.06,1.32-6.77,2.15-1.25-1.74-1.87-2.61-3.1-4.36-3.26.98-4.89,1.44-8.16,2.34-.12,2.13-.18,3.2-.32,5.34-2.67.71-4,1.05-6.68,1.71Zm12.46-13.28c-1.97-2.83-2.94-4.25-4.87-7.11-.12,3.44-.19,5.16-.37,8.61,2.1-.58,3.14-.88,5.23-1.5Z"/><circle class="cls-4" cx="283.46" cy="283.46" r="38.32"/></svg>