<svg enable-background="new 0 0 113.4 113.3" viewBox="0 0 113.4 113.3" xmlns="http://www.w3.org/2000/svg"><path d="m56.8 0c31.3 0 56.6 25.5 56.6 56.8s-25.5 56.6-56.9 56.5c-31.2-.1-56.5-25.5-56.5-56.8 0-31.2 25.5-56.6 56.8-56.5z" fill="#ef7e00"/><path d="m1.8 56.6c0-30.3 24.6-54.8 55-54.8 30.2 0 54.7 24.7 54.6 55.1-.1 30.2-24.7 54.7-55 54.6-30.1-.1-54.6-24.7-54.6-54.9z" fill="#fff"/><path d="m56.6 96.3c-21.9 0-39.6-17.8-39.6-39.8 0-21.8 17.8-39.6 39.7-39.6s39.7 17.8 39.6 39.8c0 21.9-17.8 39.6-39.7 39.6z" fill="#ef7e00"/><path d="m39.4 86.6-17.3-29.9 17.3-29.9h34.5l17.3 29.9-17.3 29.9z" fill="#010100"/><path d="m40.3 85-16.3-28.3 16.3-28.3h32.7l16.3 28.3-16.3 28.3z" fill="#ef7e00"/><path d="m81.4 34-.6.4c-.1.1-.2.2-.2.4s.1.4.3.8l1.5 2.6c0 .1.1.2 0 .2 0 .1-.1.1-.2.2s-.2.1-.2.1c-.1 0-.1 0-.2-.1l-1.6-2.8c-.6-1.1-.6-1.8.1-2.2l1.9-1.1c.7-.4 1.3 0 1.9 1l .5.8c0 .1.1.2 0 .2 0 .1-.1.1-.2.2s-.2.1-.2.1c-.1 0-.1 0-.2-.1l-.4-.8c-.2-.3-.4-.5-.5-.6-.2-.1-.3-.1-.4 0l-.7.4 2 3.5c0 .1.1.2 0 .2 0 .1-.1.1-.2.2s-.2.1-.2.1c-.1 0-.1 0-.2-.1z" fill="#fff"/><path d="m84.6 43.5c0-.1-.1-.1 0 0l-.1-.2v-.1s0-.1 0-.2l.9-5-2.7 1.6c-.1.1-.2.1-.3 0-.1 0-.1-.1-.2-.2s-.1-.2-.1-.3 0-.1.2-.2l3.4-2c .1-.1.2-.1.3 0 .1 0 .1.1.2.2s.1.2.1.3 0 .2 0 .3l-.9 4.9 2.8-1.6c.1-.1.2-.1.3 0 .1 0 .1.1.2.2s.1.2.1.3 0 .1-.2.2l-3.4 2c-.2.1-.3.1-.4.1 0-.1-.1-.1-.2-.3z" fill="#fff"/><path d="m88.9 48.6c-.3.2-.7.2-1 0s-.6-.5-.9-1.1l-.9-1.6c-.6-1.1-.6-1.8.1-2.2l1.9-1.1c.7-.4 1.3 0 1.9 1l .4.8c0 .1.1.2 0 .2 0 .1-.1.1-.2.2s-.2.1-.2.1c-.1 0-.1 0-.2-.1l-.4-.7c-.2-.3-.4-.5-.5-.6s-.3-.1-.4 0l-1.9 1.1c-.1.1-.2.2-.2.4s.1.4.3.8l.9 1.6c.2.3.4.5.5.6.2.1.3.1.4 0l1-.5c.1-.1.2-.1.3 0 .1 0 .1.1.2.2s.1.2.1.3 0 .1-.2.2z" fill="#fff"/><path d="m6.7 67c-.1-.4-.2-.7-.1-1 0-.2.2-.4.5-.5h.3c.1 0 .2.1.3.1l8.8 5.7c.1.1.2.2.3.3s.1.3.2.4c0 .1 0 .2.1.3v.2c0 .1 0 .1-.1.2s-.2.1-.3.1-.2 0-.3 0-.2-.1-.4-.2l-7.9-5.2 1.9 6.8c.1.2 0 .3 0 .4-.1.1-.2.2-.4.2-.2.1-.4.1-.5 0-.1 0-.2-.1-.3-.3z" fill="#0b0b0b"/><path d="m11.3 79.8c-1.1-2-1-3.4.2-4.1l3.6-2c1.3-.7 2.5 0 3.6 2l1.6 3c1.1 2 1 3.4-.2 4.1l-3.6 2c-1.3.7-2.5 0-3.6-2zm2.8 2.3c.3.6.7 1 1 1.2s.6.2.8.1l3.6-2c .2-.1.3-.4.3-.7 0-.4-.2-.8-.5-1.4l-1.6-2.9c-.3-.6-.6-1-1-1.2-.3-.2-.6-.2-.8-.1l-3.6 2c-.2.1-.3.4-.3.7s.2.8.5 1.4z" fill="#0b0b0b"/><path d="m22.7 94.8c-.1-.1-.1-.1-.2-.2 0-.1-.1-.1-.1-.2s0-.1 0-.2 0-.2 0-.3l-.6-9.5-4.3 4.1c-.2.2-.3.2-.5.2-.1 0-.3-.2-.5-.4s-.3-.3-.3-.5c0-.1 0-.3.2-.4l5.4-5.1c.2-.1.3-.2.4-.2s.3.1.5.3.3.4.3.5c.1.2.1.3.1.6l.5 9.4 4.3-4.1c.2-.2.3-.2.5-.2s.3.2.5.3c.2.2.3.4.3.5s0 .3-.2.4l-5.4 5.1c-.2.2-.3.2-.5.2-.1 0-.3-.1-.4-.3z" fill="#0b0b0b"/><path d="m35.3 100.7c-.8 1.2-2.1 1.2-4.1 0l-5.6-3.5c-.3-.2-.4-.4-.2-.7l3.9-6.2c.2-.3.4-.4.7-.2l5.6 3.5c1.9 1.2 2.5 2.5 1.8 3.7zm-8.2-4 4.7 3c .6.4 1 .6 1.4.6s.6-.1.7-.3l2.2-3.5c.1-.2.1-.5-.1-.8s-.5-.7-1.1-1l-4.7-3z" fill="#0b0b0b"/><path d="m39.4 104.5c-2.2-.7-3-1.8-2.6-3.2l1.3-3.9c.5-1.4 1.8-1.7 4-1l5.4 1.8c.2.1.3.1.3.3 0 .1 0 .3-.1.5s-.1.3-.2.4-.2.1-.4 0l-5.4-1.8c-.7-.2-1.1-.3-1.5-.2s-.6.2-.6.5l-1.3 3.9c-.1.2 0 .5.2.8s.7.5 1.3.7l5.4 1.8c.2.1.3.1.3.3 0 .1 0 .3-.1.5s-.1.3-.2.4-.2.1-.4 0z" fill="#0b0b0b"/><path d="m53.6 98.9c.2 0 .4.1.5.1s.2.2.3.3l4.6 7.6c0 .1.1.2.1.3s0 .2-.1.2c-.1.1-.1.1-.2.2-.1 0-.2.1-.3.1s-.2 0-.3 0-.2 0-.3-.1c-.1 0-.2-.1-.2-.2l-1.2-2.1-6.5-.5-1.4 1.9c-.1.1-.1.1-.2.2-.1 0-.2 0-.3 0s-.2 0-.3-.1c-.1 0-.2-.1-.3-.2s-.1-.1-.2-.2c0-.1-.1-.2-.1-.3s0-.2.1-.3l5.3-6.9c.1-.1.2-.2.4-.3.2.3.4.3.6.3zm-2.7 4.9 4.8.3-2.2-3.8z" fill="#0b0b0b"/><path d="m62.5 99.9.8 6.6c0 .2 0 .4-.1.5s-.3.1-.6.2c-.2 0-.4 0-.6 0-.1-.1-.2-.2-.2-.4l-.8-6.6-3.5.4c-.2 0-.3 0-.4-.1s-.1-.3-.1-.5 0-.4 0-.5.2-.2.3-.2l8.5-1c .2 0 .3 0 .4.1s.1.3.1.5 0 .4 0 .5-.2.2-.3.2z" fill="#0b0b0b"/><path d="m15.9 67.6c0 .2 0 .3-.1.3-.1.1-.2.1-.4.2-.2 0-.3.1-.4 0-.1 0-.2-.1-.2-.3l-1-4c0-.2 0-.3.1-.3.1-.1.2-.1.4-.2.2 0 .3-.1.4 0 .1 0 .2.1.2.3z"/><g fill="#010100"><circle cx="70.9" cy="36.8" r="3.3"/><circle cx="43" cy="76.5" r="3.3"/><circle cx="56.7" cy="45.2" r="3.3"/><circle cx="56.7" cy="67.7" r="3.3"/><circle cx="67.6" cy="56.5" r="3.3"/><circle cx="45.7" cy="56.5" r="3.3"/><path d="m56.7 36.5c-11.1 0-20 9-20 20 0 11.1 9 20 20 20 11.1 0 20-9 20-20 0-11.1-9-20-20-20zm0 36c-8.9 0-16-7.2-16-16s7.2-16 16-16c8.9 0 16 7.2 16 16s-7.2 16-16 16z"/></g><circle cx="43.2" cy="67.8" fill="#fff" r="3.7"/><path d="m43.2 64.6c1.8 0 3.3 1.5 3.3 3.3s-1.5 3.3-3.3 3.3-3.3-1.5-3.3-3.3 1.5-3.3 3.3-3.3m0-1c-2.3 0-4.2 1.9-4.2 4.2s1.9 4.2 4.2 4.2 4.2-1.9 4.2-4.2-1.9-4.2-4.2-4.2z" fill="#ef7e00"/><circle cx="69.9" cy="44.8" fill="#fff" r="3.7"/><path d="m69.9 41.6c1.8 0 3.3 1.5 3.3 3.3s-1.5 3.3-3.3 3.3-3.3-1.5-3.3-3.3c.1-1.9 1.5-3.3 3.3-3.3m0-1c-2.3 0-4.2 1.9-4.2 4.2s1.9 4.2 4.2 4.2 4.2-1.9 4.2-4.2-1.8-4.2-4.2-4.2z" fill="#ef7e00"/></svg>