<?xml version="1.0" encoding="UTF-8"?><svg id="Capa_1" xmlns="http://www.w3.org/2000/svg" viewBox="0 0 566.93 566.93"><defs><style>.cls-1,.cls-2{fill:none;}.cls-1,.cls-3,.cls-4,.cls-5,.cls-6{stroke-width:0px;}.cls-2{stroke:#e62c35;stroke-miterlimit:10;stroke-width:6px;}.cls-3,.cls-7,.cls-8{fill:#fff;}.cls-7{font-size:41.6px;}.cls-7,.cls-8{font-family:Tahoma-Bold, Tahoma;font-weight:700;}.cls-4{fill:#e62c35;}.cls-5{fill:#fffdfe;}.cls-6{fill:#35495e;}.cls-8{font-size:36.12px;}</style></defs><path class="cls-3" d="m283.47,4.26c154.2,0,279.21,125,279.21,279.21s-125.01,279.21-279.21,279.21S4.25,437.67,4.25,283.47,129.26,4.26,283.47,4.26Z"/><path class="cls-2" d="m562.68,283.47c0,154.2-125.01,279.21-279.21,279.21S4.25,437.67,4.25,283.47,129.26,4.26,283.47,4.26s279.21,125,279.21,279.21Z"/><text class="cls-7" transform="translate(171.81 668.29) rotate(-25.16)"><tspan x="0" y="0">C</tspan></text><text class="cls-7" transform="translate(196.15 656.73) rotate(-18.25)"><tspan x="0" y="0">R</tspan></text><text class="cls-7" transform="translate(223.98 647.47) rotate(-11.02)"><tspan x="0" y="0">U</tspan></text><text class="cls-7" transform="translate(253.36 641.84) rotate(-4.23)"><tspan x="0" y="0">S</tspan></text><text class="cls-7" transform="translate(278.81 639.74) rotate(2.72)"><tspan x="0" y="0">H</tspan></text><text class="cls-7" transform="translate(309.71 641.34) rotate(9.61)"><tspan x="0" y="0">E</tspan></text><text class="cls-7" transform="translate(334.18 645.3) rotate(16.33)"><tspan x="0" y="0">R</tspan></text><text class="cls-7" transform="translate(362.35 653.62) rotate(23.12)"><tspan x="0" y="0">S</tspan></text><path class="cls-6" d="m283.46,58.16c30.44,0,59.94,5.95,87.68,17.69,26.82,11.35,50.92,27.6,71.63,48.3,20.71,20.71,36.96,44.81,48.3,71.63,11.74,27.74,17.69,57.25,17.69,87.68s-5.95,59.94-17.69,87.68c-11.35,26.82-27.6,50.92-48.3,71.63-20.71,20.71-44.81,36.96-71.63,48.3-27.75,11.74-57.25,17.69-87.68,17.69s-59.94-5.95-87.68-17.69c-26.82-11.35-50.92-27.6-71.63-48.3-20.71-20.71-36.96-44.81-48.3-71.63-11.74-27.75-17.69-57.25-17.69-87.68s5.95-59.94,17.69-87.68c11.35-26.82,27.6-50.92,48.3-71.63,20.71-20.71,44.81-36.96,71.63-48.3,27.74-11.74,57.25-17.69,87.68-17.69m0-49C131.97,9.16,9.16,131.97,9.16,283.46s122.81,274.3,274.3,274.3,274.3-122.81,274.3-274.3S434.96,9.16,283.46,9.16h0Z"/><text class="cls-7" transform="translate(171.81 78.99) rotate(-25.16)"><tspan x="0" y="0">C</tspan></text><text class="cls-7" transform="translate(196.15 67.43) rotate(-18.25)"><tspan x="0" y="0">R</tspan></text><text class="cls-7" transform="translate(223.98 58.17) rotate(-11.02)"><tspan x="0" y="0">U</tspan></text><text class="cls-7" transform="translate(253.36 52.53) rotate(-4.23)"><tspan x="0" y="0">S</tspan></text><text class="cls-7" transform="translate(278.81 50.43) rotate(2.72)"><tspan x="0" y="0">H</tspan></text><text class="cls-7" transform="translate(309.71 52.04) rotate(9.61)"><tspan x="0" y="0">E</tspan></text><text class="cls-7" transform="translate(334.18 56) rotate(16.33)"><tspan x="0" y="0">R</tspan></text><text class="cls-7" transform="translate(362.35 64.32) rotate(23.12)"><tspan x="0" y="0">S</tspan></text><path class="cls-1" d="m276.41,475.69c0,2.11,0,4.23,0,6.34,0,.42-.01.81-.05,1.19-2.95,2.05-5.18,5.16-6.04,8.94-1.83,8.04,3.19,16.04,11.23,17.88,1.12.26,2.24.38,3.34.38,6.81,0,12.96-4.69,14.54-11.61,1.47-6.42-1.45-12.82-6.78-16.07-.02-.23-.04-.47-.04-.72,0-2.14,0-4.27,0-6.41-3.03.14-6.07.22-9.14.22-2.36,0-4.71-.06-7.05-.14Z"/><path class="cls-3" d="m292.59,465.6c0,3.33,0,6.67.01,10,1.67-.08,3.34-.18,5-.3,0-3.34,0-6.68-.01-10.02-1.66.13-3.33.24-5,.32Z"/><path class="cls-3" d="m276.4,465.68c-1.67-.06-3.34-.15-5-.26,0,3.34.01,6.68.02,10.02,1.66.1,3.33.18,5,.24,0-3.34-.01-6.67-.02-10.01Z"/><path class="cls-4" d="m283.46,62.68c29.81,0,58.72,5.84,85.94,17.35,26.29,11.12,49.9,27.04,70.18,47.32,20.28,20.28,36.2,43.89,47.32,70.18,11.51,27.22,17.35,56.13,17.35,85.94s-5.84,58.72-17.35,85.94c-11.12,26.29-27.04,49.9-47.32,70.18-20.28,20.28-43.89,36.2-70.18,47.32-27.22,11.51-56.13,17.35-85.94,17.35s-58.72-5.84-85.94-17.35c-26.29-11.12-49.9-27.04-70.18-47.32-20.28-20.28-36.2-43.89-47.32-70.18-11.51-27.22-17.35-56.13-17.35-85.94s5.84-58.72,17.35-85.94c11.12-26.29,27.04-49.9,47.32-70.18,20.28-20.28,43.89-36.2,70.18-47.32,27.22-11.51,56.13-17.35,85.94-17.35m0-5c-124.7,0-225.78,101.09-225.78,225.78s101.09,225.78,225.78,225.78,225.78-101.09,225.78-225.78S408.16,57.68,283.46,57.68h0Z"/><circle class="cls-6" cx="284.88" cy="283.46" r="161.13"/><path class="cls-4" d="m284.88,452.1c-92.98,0-168.63-75.65-168.63-168.63s75.65-168.63,168.63-168.63,168.63,75.65,168.63,168.63-75.65,168.63-168.63,168.63Zm0-322.27c-84.71,0-153.63,68.92-153.63,153.63s68.92,153.63,153.63,153.63,153.63-68.92,153.63-153.63-68.92-153.63-153.63-153.63Z"/><path class="cls-4" d="m284.89,478.53c-1.49,0-2.98-.17-4.45-.5-5.19-1.19-9.61-4.32-12.44-8.83-2.83-4.51-3.74-9.85-2.55-15.04.91-3.99,2.97-7.52,5.97-10.26l-.26-168.01c-16.08-1.68-31.37-6.5-45.46-14.33h-106.85l-.97-.43c-5.52-2.45-9.09-7.92-9.09-13.94v-10.75h85.12c-.71-.73-1.4-1.47-2.08-2.22h-87.29c-8.41,0-15.26-6.84-15.26-15.25v-10.75h85.78c-.33-.73-.66-1.47-.97-2.22h-92.16c-8.41,0-15.26-6.84-15.26-15.25v-10.75h99.41c-.15-.73-.3-1.47-.44-2.22H63.92c-8.41,0-15.26-6.84-15.26-15.26v-10.75l72.93-.02c28.14-.01,39.93-.02,44.25-.02h24.88s-.34,5.32-.34,5.32c-.13,1.97-.19,3.81-.19,5.62,0,3.18.18,6.43.54,9.65,5.17,23.62,15.52,42.97,30.79,57.51,2.84,2.44,5.8,4.71,8.89,6.78l4.17-10.05c.2-.5.36-.88.53-1.24l2.02-4.42c1.53-3.34,3.1-6.77,4.69-10.17-3.02-4.65-5.3-9.87-6.63-15.23-3.67-1.2-7.33-2.45-10.88-3.66-1.49-.51-2.99-1.02-4.48-1.53-.58-.2-1.12-.41-1.74-.67-.31-.12-.6-.24-.93-.37l-11.32-4.44,11.16-4.81,1.19-.52c.74-.32,1.38-.6,2.04-.86l2.27-.91c4.07-1.62,8.26-3.29,12.42-4.93.02-.09.04-.19.06-.28,1.18-5.18,3.17-10.09,5.9-14.62-.55-1.18-1.1-2.36-1.63-3.52l-12.3-26.65,30.04,13.77c4.82-3.02,10.24-5.25,15.78-6.47l11.71-25.55,1.79,4.11c.31.7,7.06,16.23,9.2,21.75,5.16,1.28,10.03,3.35,14.5,6.17,3.75-1.78,7.5-3.51,11.15-5.19l4.13-1.91c.6-.28,1.21-.54,1.96-.87l1.21-.53,12.02-5.26-5.47,11.92c-.85,1.86-1.68,3.69-2.49,5.48l-.09.2c-2.04,4.52-3.97,8.78-6.08,13.04,2.49,4.23,4.33,8.76,5.47,13.49l31.57,11.66-31.57,11.7c-1.15,4.78-3,9.33-5.48,13.55,1.85,3.9,3.65,7.83,5.4,11.65l1.7,3.71c.31.67.53,1.32.74,1.94.09.28.19.57.31.91l3.35,9.33c21.36-16.48,34.79-40.71,39.91-72.03.01-.55.02-1.1.02-1.65,0-1.81-.06-3.65-.19-5.62l-.34-5.32h23.89c14.37.02,95.12.04,109.87.05h7.3v10.75c0,8.41-6.84,15.26-15.26,15.26h-101.72c-.14.74-.29,1.48-.44,2.22h99.41v10.75c0,8.41-6.84,15.25-15.26,15.25h-92.17c-.32.75-.64,1.49-.97,2.22h85.78v10.75c0,8.41-6.84,15.25-15.25,15.25h-87.03c-.62.74-1.26,1.48-1.9,2.22h84.68v10.75c0,6.02-3.57,11.49-9.09,13.94l-.97.43h-105.86c-13.91,7.72-28.98,12.52-44.83,14.26.08,51.92.16,110.22.22,167.44,5.75,4.77,8.37,12.42,6.7,19.77-2.08,9.12-10.07,15.5-19.41,15.5Zm-53.21-241.07c11.8,7.67,25.22,12.62,39.45,14.49l-.03-20.2c-4.69-1.2-9.16-3.07-13.3-5.57-3.62,1.7-7.23,3.36-10.72,4.97l-3.99,1.84c-.52.24-1.01.43-1.59.64-.28.11-.53.2-.81.31l-9.01,3.53Zm65.68,14.4c14.05-1.95,27.58-7.01,39.33-14.71l-9.96-4.28c-.64-.27-1.15-.49-1.66-.72l-4.29-1.96c-3.42-1.56-6.93-3.17-10.41-4.8-4.05,2.61-8.43,4.6-13.04,5.95l.03,20.53Z"/><path class="cls-5" d="m284.44,114.4s8.01,18.42,9.53,22.66c.04,0,.07.02.11.02,5.67,1.29,10.95,3.56,15.75,6.74,4.04-1.93,8.15-3.82,12.13-5.66,1.38-.64,2.76-1.27,4.13-1.91.59-.27,1.18-.53,1.91-.84.37-.16.77-.33,1.22-.53l7.21-3.15-3.28,7.15c-.89,1.93-1.74,3.83-2.58,5.69-2.05,4.54-3.99,8.82-6.1,13.09-.16.33-.3.62-.41.9,2.86,4.62,4.88,9.61,6.03,14.87l19.9,7.35,7.61,2.81-7.6,2.82-19.91,7.38c-.03.15-.07.3-.1.45-1.18,5.15-3.17,10.02-5.94,14.49,2.01,4.21,3.97,8.49,5.87,12.64.56,1.22,1.12,2.45,1.68,3.67.27.58.46,1.15.66,1.75.09.28.2.59.32.93l2.34,6.5-6.35-2.73c-.4-.17-.74-.32-1.06-.45-.62-.26-1.12-.48-1.61-.7-1.38-.63-2.76-1.27-4.15-1.9-3.79-1.73-7.69-3.52-11.55-5.33-4.53,3.06-9.6,5.35-14.88,6.71v9.22s.04,15.11.04,15.11c15.47-1.78,30.33-7.21,43.18-15.81,22.1-16.83,35.96-41.66,41.18-73.81.01-.61.02-1.22.02-1.84,0-1.86-.06-3.74-.19-5.75l-.21-3.19h20.84c12.47.02,112.02.05,113.09.05h3v8.75c0,7.31-5.95,13.26-13.26,13.26h-103.39c-.38,2.09-.79,4.17-1.25,6.22h99.88v8.75c0,7.31-5.95,13.25-13.26,13.25h-93.49c-.88,2.12-1.81,4.2-2.79,6.22h86.92v8.75c0,7.31-5.95,13.25-13.25,13.25h-87.97c-1.75,2.14-3.59,4.21-5.5,6.22h87.21v8.75c0,5.23-3.1,9.99-7.9,12.11l-.58.26h-105.96c-14.33,8.04-29.89,12.9-46.31,14.46.08,52.66.16,112.02.22,170.21,5.64,4.21,8.34,11.38,6.75,18.35-1.87,8.21-9.06,13.94-17.46,13.94-1.34,0-2.69-.15-4-.45-4.67-1.07-8.64-3.89-11.19-7.94-2.55-4.05-3.36-8.86-2.3-13.53.88-3.86,3-7.29,6.02-9.8-.07-44.39-.14-88.78-.2-133.17l-.06-37.56c-16.65-1.49-32.43-6.37-46.94-14.51h-106.95l-.58-.26c-4.8-2.12-7.9-6.88-7.9-12.11v-8.75h88.05c-2.14-1.96-4.18-4.04-6.12-6.22h-88.18c-7.31,0-13.26-5.95-13.26-13.25v-8.75h86.92c-.98-2.02-1.91-4.1-2.79-6.22h-93.49c-7.31,0-13.26-5.95-13.26-13.25v-8.75h99.88c-.46-2.05-.87-4.12-1.25-6.22H63.92c-7.31,0-13.26-5.95-13.26-13.26v-8.75h3s59.67-.02,59.67-.02h7.3s.96,0,.96,0c30.43-.01,41.73-.02,45.16-.02h0s1.3,0,1.3,0h20.53l-.21,3.19c-.13,2.01-.19,3.89-.19,5.75,0,3.29.19,6.65.56,9.97,5.24,24.07,15.8,43.8,31.39,58.64,14.96,12.89,33.23,20.78,52.99,22.91l-.04-24.03c-.09-.02-.17-.04-.25-.06-5.32-1.21-10.33-3.3-14.91-6.21-3.9,1.84-7.85,3.66-11.69,5.42-1.33.61-2.66,1.22-3.99,1.84-.48.22-.93.39-1.45.59-.25.09-.52.2-.83.32l-6.57,2.57,2.71-6.52c.13-.31.24-.58.33-.8.19-.47.33-.82.49-1.16.68-1.47,1.35-2.95,2.03-4.42,1.68-3.67,3.41-7.45,5.16-11.18-3.44-5.02-5.91-10.7-7.23-16.61-4.01-1.3-8.02-2.67-11.92-4-1.5-.51-2.99-1.02-4.49-1.53-.54-.18-1.05-.39-1.63-.63-.28-.11-.59-.24-.95-.38l-6.79-2.66,6.7-2.88c.44-.19.84-.36,1.2-.52.72-.31,1.34-.59,1.98-.84l2.27-.91c4.4-1.75,8.93-3.56,13.42-5.32.09-.45.18-.88.27-1.3,1.22-5.33,3.31-10.34,6.22-14.93-.71-1.5-1.41-3.01-2.08-4.48-.33-.72-.66-1.44-.99-2.16-1.21-2.62-2.42-5.23-3.71-8.04l-1.93-4.18-3.4-7.37,7.37,3.38,15.6,7.16,3.14,1.44c5.16-3.4,10.98-5.8,17.02-7l10.26-22.4M113.82,247.98c-.02-.26-.03-.52-.03-.78h0c0,.26,0,.52.03.78m170.71-143.4l-3.73,8.15-9.43,20.59c-5.07,1.23-10.02,3.25-14.5,5.94l-1.17-.54-15.6-7.16-7.37-3.38-9.83-4.51,4.53,9.82,3.4,7.37,1.93,4.18c1.3,2.81,2.5,5.43,3.72,8.05.33.71.66,1.43.99,2.15.39.85.78,1.71,1.19,2.57-2.44,4.23-4.25,8.77-5.41,13.53-3.85,1.52-7.7,3.05-11.44,4.54l-2.28.91c-.7.28-1.35.56-2.1.89-.37.16-.75.33-1.18.51l-6.7,2.88-8.93,3.85,9.05,3.55,6.79,2.66c.34.13.63.25.9.36.63.26,1.21.49,1.86.71,1.42.48,2.85.97,4.27,1.46l.21.07c3.22,1.1,6.53,2.23,9.86,3.33,1.32,4.83,3.36,9.54,6.01,13.81-1.44,3.09-2.86,6.19-4.23,9.2-.67,1.47-1.35,2.95-2.02,4.42-.18.39-.34.78-.56,1.32-.1.23-.2.48-.32.78l-2.71,6.52-.19.45c-2.3-1.64-4.53-3.38-6.68-5.24-14.91-14.23-25.04-33.18-30.12-56.32-.34-3.11-.52-6.25-.52-9.32,0-1.77.06-3.57.18-5.5l.21-3.19.27-4.26h-27.83c-4.91,0-16.9.02-43.43.03h-.96s-7.3,0-7.3,0l-59.67.02h-3s-4,0-4,0v12.75c0,9.52,7.74,17.26,17.26,17.26h.75v10.97c0,9.51,7.74,17.25,17.26,17.25h5.36v10.97c0,9.51,7.74,17.25,17.26,17.25h2.25v10.97c0,6.81,4.03,13,10.28,15.77l.58.26.77.34h106.76c13.68,7.52,28.45,12.26,43.98,14.11l.05,33.96c.07,43.8.13,87.6.2,131.4-2.92,2.91-4.99,6.63-5.92,10.67-1.3,5.71-.31,11.59,2.81,16.55,3.12,4.96,7.98,8.41,13.69,9.71,1.61.37,3.25.55,4.89.55,10.29,0,19.07-7.01,21.36-17.05,1.77-7.77-.82-15.85-6.65-21.13-.06-57.41-.15-116.55-.22-164.74,15.29-1.91,29.85-6.62,43.35-14.04h105.77l.77-.34.58-.26c6.24-2.77,10.28-8.96,10.28-15.77v-10.97h2.25c9.51,0,17.25-7.74,17.25-17.25v-10.97h5.36c9.52,0,17.26-7.74,17.26-17.25v-10.97h.75c9.52,0,17.26-7.74,17.26-17.26v-12.75h-4s-3,0-3,0h-.44c-16.12,0-94.51-.03-110.92-.04h0s-1.73,0-1.73,0h-25.1l.27,4.26.21,3.19c.12,1.92.18,3.72.18,5.5,0,.49,0,.98-.02,1.47-4.87,29.67-17.31,52.84-36.97,68.92l-.08-.21-2.34-6.5c-.11-.31-.21-.59-.29-.84-.24-.7-.47-1.39-.82-2.16-.55-1.2-1.1-2.41-1.66-3.61l-.02-.05c-1.61-3.53-3.28-7.15-4.98-10.77,2.14-3.82,3.79-7.88,4.91-12.13l17.91-6.64,7.6-2.82,10.14-3.76-10.14-3.75-7.61-2.81-17.9-6.61c-1.11-4.2-2.75-8.24-4.89-12.05,1.94-3.97,3.74-7.95,5.63-12.14.84-1.87,1.69-3.75,2.58-5.67l3.28-7.15,4.38-9.54-9.62,4.21-7.21,3.15c-.45.2-.84.37-1.21.52-.77.33-1.39.6-2.01.89-1.38.64-2.75,1.27-4.13,1.91-3.34,1.54-6.77,3.12-10.18,4.74-4.09-2.46-8.5-4.33-13.14-5.58-2.49-6.23-8.56-20.2-8.85-20.87l-3.57-8.22h0Zm14.8,128.22c3.92-1.27,7.66-2.99,11.18-5.15,3.22,1.5,6.44,2.97,9.58,4.41,1.38.63,2.76,1.26,4.14,1.9.52.24,1.05.47,1.71.75.31.13.65.28,1.04.44l5.41,2.33c-10.08,6.03-21.35,10.14-33.04,12.06l-.02-10.52v-6.21h0Zm-63.19,5.06l5.28-2.07c.29-.11.55-.21.78-.3.58-.22,1.11-.42,1.72-.7,1.33-.61,2.66-1.22,3.99-1.83,3.2-1.47,6.5-2.99,9.78-4.53,3.59,2.07,7.42,3.69,11.41,4.84l.02,16.36c-11.75-1.83-22.9-5.82-32.99-11.78h0Z"/><text class="cls-8" transform="translate(28.36 344.34) rotate(74.4)"><tspan x="0" y="0">S</tspan></text><text class="cls-8" transform="translate(35.03 367.99) rotate(68.9)"><tspan x="0" y="0">P</tspan></text><text class="cls-8" transform="translate(44.29 391.67) rotate(63.46)"><tspan x="0" y="0">E</tspan></text><text class="cls-8" transform="translate(55.01 413.06) rotate(57.99)"><tspan x="0" y="0">C</tspan></text><text class="cls-8" transform="translate(68.77 434.67) rotate(53.1)"><tspan x="0" y="0">I</tspan></text><text class="cls-8" transform="translate(80.08 449.78) rotate(48.56)"><tspan x="0" y="0">A</tspan></text><text class="cls-8" transform="translate(97.75 469.42) rotate(42.97)"><tspan x="0" y="0">L</tspan></text><text class="cls-8" transform="translate(113.88 484.17) rotate(39.3)"><tspan x="0" y="0"> </tspan></text><text class="cls-8" transform="translate(123.01 492.01) rotate(34.76)"><tspan x="0" y="0">N</tspan></text><text class="cls-8" transform="translate(147.52 508.8) rotate(28.56)"><tspan x="0" y="0">A</tspan></text><text class="cls-8" transform="translate(170.87 521.39) rotate(22.75)"><tspan x="0" y="0">V</tspan></text><text class="cls-8" transform="translate(195.01 531.43) rotate(16.98)"><tspan x="0" y="0">A</tspan></text><text class="cls-8" transform="translate(220.28 538.97) rotate(11.66)"><tspan x="0" y="0">L</tspan></text><text class="cls-8" transform="translate(241.74 543.19) rotate(7.99)"><tspan x="0" y="0"> </tspan></text><text class="cls-8" transform="translate(253.59 545.12) rotate(3.56)"><tspan x="0" y="0">D</tspan></text><text class="cls-8" transform="translate(282.67 546.71) rotate(-2.22)"><tspan x="0" y="0">E</tspan></text><text class="cls-8" transform="translate(306.82 545.95) rotate(-8.58)"><tspan x="0" y="0">M</tspan></text><text class="cls-8" transform="translate(340.79 540.56) rotate(-15.62)"><tspan x="0" y="0">O</tspan></text><text class="cls-8" transform="translate(369.22 532.33) rotate(-21.35)"><tspan x="0" y="0">L</tspan></text><text class="cls-8" transform="translate(389.73 524.19) rotate(-25.86)"><tspan x="0" y="0">I</tspan></text><text class="cls-8" transform="translate(406.8 515.95) rotate(-30.55)"><tspan x="0" y="0">T</tspan></text><text class="cls-8" transform="translate(427.04 503.82) rotate(-35.22)"><tspan x="0" y="0">I</tspan></text><text class="cls-8" transform="translate(442.74 492.94) rotate(-40.49)"><tspan x="0" y="0">O</tspan></text><text class="cls-8" transform="translate(465.3 473.54) rotate(-46.9)"><tspan x="0" y="0">N</tspan></text><text class="cls-8" transform="translate(485 451.9) rotate(-51.41)"><tspan x="0" y="0"> </tspan></text><text class="cls-8" transform="translate(492.49 442.76) rotate(-55.28)"><tspan x="0" y="0">T</tspan></text><text class="cls-8" transform="translate(505.97 423.19) rotate(-60.53)"><tspan x="0" y="0">E</tspan></text><text class="cls-8" transform="translate(517.72 402.35) rotate(-66.08)"><tspan x="0" y="0">A</tspan></text><text class="cls-8" transform="translate(528.67 377.9) rotate(-72.78)"><tspan x="0" y="0">M</tspan></text></svg>