<?xml version="1.0" encoding="UTF-8"?><svg id="Capa_1" xmlns="http://www.w3.org/2000/svg" viewBox="0 0 566.93 566.93"><defs><style>.cls-1{fill:#3d6c84;}.cls-1,.cls-2,.cls-3,.cls-4,.cls-5,.cls-6{stroke-width:0px;}.cls-2{fill:#fff;}.cls-3{fill:#e65f54;}.cls-4{fill:#35495e;}.cls-5{fill:#f1c410;}.cls-6{fill:#d7282f;}</style></defs><path class="cls-6" d="m480.9,86.03C428.16,33.3,358.04,4.25,283.46,4.25s-144.69,29.04-197.43,81.78C33.3,138.77,4.25,208.88,4.25,283.46s29.04,144.7,81.78,197.44c52.74,52.74,122.85,81.78,197.43,81.78s144.7-29.04,197.44-81.78c52.74-52.74,81.78-122.85,81.78-197.44s-29.04-144.69-81.78-197.43Zm-197.44,472.17c-151.73,0-274.73-123.01-274.73-274.74S131.73,8.73,283.46,8.73s274.74,123.01,274.74,274.73-123.01,274.74-274.74,274.74Z"/><path class="cls-6" d="m283.46,8.73C131.73,8.73,8.73,131.73,8.73,283.46s123.01,274.74,274.73,274.74,274.74-123.01,274.74-274.74S435.2,8.73,283.46,8.73Zm0,545c-149.02,0-270.26-121.24-270.26-270.27S134.44,13.2,283.46,13.2s270.27,121.24,270.27,270.26-121.24,270.27-270.27,270.27Z"/><path class="cls-2" d="m283.46,13.2C134.44,13.2,13.2,134.44,13.2,283.46s121.24,270.27,270.26,270.27,270.27-121.24,270.27-270.27S432.49,13.2,283.46,13.2Z"/><polygon class="cls-3" points="278.97 454.54 244.22 366.52 141.62 397.94 195.09 304.91 106.56 244.29 212.62 228.08 204.82 121.07 283.62 193.89 362.39 121.1 361.48 134.01 354.62 228.08 460.69 244.29 372.16 304.91 425.56 397.84 413.42 394.2 323.02 366.52 283.64 466.27 278.97 454.54"/><path class="cls-6" d="m356.52,133.34l-.02.32-7.17,98.35-.02.32,96.18,14.69,1.93.3-81.59,55.87-.31.21,49.45,86.06-.12-.04-94.68-29-.1-.03-36.43,92.27-.02.05-36.45-92.32h-.05s-94.86,29.07-94.86,29.07l.66-1.15,48.8-84.91-.34-.23-81.56-55.85.52-.08,97.26-14.86.34-.05-7.2-98.78-.02-.22,72.89,67.36.02-.02,72.87-67.34m-72.55,150.68l-.27.21h-.06s-.19.06-.19.06l-.27.06-.42-.1.19.15.27.21.33.27.09.07.21.17-.21-.43.1-.21.14-.29.08-.17m84.36-175.22l-18.6,17.19-66.11,61.09-66.11-61.09-18.6-17.19,1.84,25.26.02.22,6.53,89.56-88.46,13.51-.52.08-25.04,3.82,20.9,14.31,74.27,50.86-44.19,76.9-.66,1.15-12.62,21.96,24.22-7.42,86.07-26.36,33.05,83.73,9.31,23.59,9.29-23.6.02-.05,33.03-83.66,85.94,26.32.12.04,24.23,7.43-12.63-21.97-44.85-78.04,74.27-50.86,20.9-14.31-25.04-3.83-1.93-.3-87.05-13.3,6.52-89.46.02-.32,1.84-25.26h0Z"/><polygon class="cls-3" points="283.29 283.87 283.49 283.82 283.49 196.26 283.46 196.28 207.08 125.69 207.09 125.91 283.29 283.87"/><polygon class="cls-6" points="282.97 285.36 359.83 126.02 359.85 125.69 282.63 197.05 282.63 285.6 282.69 285.58 282.97 285.36"/><polygon class="cls-6" points="352.29 229.42 352.31 229.08 283.83 283.59 283.74 283.77 453.08 244.82 352.29 229.42"/><polygon class="cls-3" points="359.83 126.02 283.83 283.59 352.31 229.08 359.83 126.02"/><polygon class="cls-3" points="455.1 245.13 453.08 244.82 283.74 283.77 283.6 284.07 369.61 303.67 455.1 245.13"/><polygon class="cls-6" points="421.11 394.07 369.28 303.89 369.61 303.67 283.6 284.07 283.49 284.29 283.71 284.74 420.98 394.03 421.11 394.07"/><polygon class="cls-3" points="420.98 394.03 283.71 284.74 321.77 363.65 420.98 394.03"/><polygon class="cls-3" points="283.39 284.49 245.22 363.63 245.27 363.61 283.46 460.36 283.49 460.3 283.49 284.57 283.39 284.49"/><polygon class="cls-6" points="283.49 284.57 283.49 460.3 321.66 363.61 321.77 363.65 283.71 284.74 283.49 284.57"/><polygon class="cls-6" points="282.57 283.83 112.37 245.04 111.83 245.13 197.29 303.65 282.76 283.99 282.57 283.83"/><polygon class="cls-6" points="283.04 284.21 146.51 392.87 145.82 394.07 245.22 363.63 283.39 284.49 283.04 284.21"/><polygon class="cls-3" points="283.04 284.21 282.76 283.99 197.29 303.65 197.65 303.89 146.51 392.87 283.04 284.21"/><polygon class="cls-3" points="282.57 283.83 214.29 229.47 112.37 245.04 282.57 283.83"/><polygon class="cls-6" points="282.15 285.71 282.43 285.65 205.38 125.91 213.01 230.58 212.66 230.64 281.7 285.61 282.15 285.71"/><path class="cls-4" d="m283.46,203.92s-.07,0-.1,0v161.17s.07,0,.1,0c45.23,0,81.89-36.08,81.89-80.58s-36.66-80.58-81.89-80.58Z"/><path class="cls-1" d="m201.57,284.5c0,44.47,36.61,80.53,81.8,80.58v-161.17c-45.18.05-81.8,36.11-81.8,80.58Z"/><polygon class="cls-5" points="283.85 282.9 283.55 283.14 283.76 283.09 283.85 282.9"/><polygon class="cls-5" points="283.49 283.19 283.49 283.15 283.27 283.2 283.33 283.32 283.49 283.19"/><polygon class="cls-5" points="283.49 283.15 283.49 283.19 283.55 283.14 283.49 283.15"/><polygon class="cls-5" points="283.49 283.39 283.49 283.19 283.33 283.32 283.35 283.36 283.49 283.39"/><polygon class="cls-5" points="283.76 283.09 283.55 283.14 283.49 283.19 283.49 283.39 283.6 283.41 283.76 283.09"/><polygon class="cls-5" points="283.49 283.39 283.35 283.36 283.49 283.65 283.49 283.39"/><polygon class="cls-5" points="283.6 283.41 283.49 283.39 283.49 283.65 283.49 283.65 283.6 283.41"/><polygon class="cls-5" points="283.49 283.65 283.39 283.87 283.49 283.95 283.49 283.65"/><polygon class="cls-5" points="283.49 283.65 283.49 283.65 283.49 283.95 283.72 284.14 283.49 283.65"/><polygon class="cls-5" points="282.98 283.27 282.5 283.16 282.71 283.33 282.98 283.27"/><polygon class="cls-5" points="283.49 283.65 283.49 283.65 283.49 283.65 283.49 283.65"/><polygon class="cls-5" points="283.49 283.65 283.49 283.65 283.35 283.36 283.29 283.34 283.01 283.57 283.39 283.87 283.49 283.65"/><polygon class="cls-5" points="283.29 283.34 282.98 283.27 282.71 283.33 283.01 283.57 283.29 283.34"/><polygon class="cls-5" points="283.33 283.32 283.27 283.2 282.98 283.27 283.29 283.34 283.33 283.32"/><polygon class="cls-5" points="283.33 283.32 283.29 283.34 283.35 283.36 283.33 283.32"/><path class="cls-6" d="m229.55,337.14c-.49,0-.94-.24-1.22-.63s-.35-.91-.19-1.36l39.44-112.28c.21-.6.78-1,1.42-1h30.77c.64,0,1.2.4,1.42,1l39.44,112.28c.16.46.09.97-.19,1.36s-.74.63-1.22.63h-109.64Zm72.27-23.89l-17.83-53.21-17.89,53.21h35.72Z"/><path class="cls-2" d="m299.76,223.36l39.44,112.28h-109.64l39.44-112.28h30.77m-35.74,91.39h39.89l-19.91-59.42-19.98,59.42m35.74-94.39h-30.77c-1.27,0-2.41.8-2.83,2.01l-39.44,112.28c-.32.92-.18,1.94.38,2.73.56.79,1.47,1.27,2.45,1.27h109.64c.97,0,1.89-.47,2.45-1.27.56-.79.71-1.81.38-2.73l-39.44-112.28c-.42-1.2-1.56-2.01-2.83-2.01h0Zm-31.57,91.39l15.8-46.99,15.74,46.99h-31.55Z"/><path class="cls-4" d="m465.94,100.99c-48.74-48.74-113.54-75.58-182.47-75.58s-133.73,26.84-182.47,75.58c-48.74,48.74-75.58,113.54-75.58,182.47s26.84,133.73,75.58,182.47c48.74,48.74,113.54,75.58,182.47,75.58s133.73-26.84,182.47-75.58c48.74-48.74,75.58-113.54,75.58-182.47s-26.84-133.73-75.58-182.47Zm17.1,182.47c0,110.04-89.53,199.57-199.57,199.57s-199.57-89.53-199.57-199.57,89.53-199.57,199.57-199.57,199.57,89.53,199.57,199.57Z"/><path class="cls-2" d="m86.93,228.96c-1.46,6.05-4.45,10.4-8.96,13.07s-10.08,3.21-16.7,1.6c-6.39-1.54-11.05-4.56-13.99-9.04-2.94-4.48-3.67-9.74-2.21-15.79.39-1.6.83-3.03,1.32-4.26.49-1.24,1.04-2.4,1.65-3.5.49-.85,1.11-1.77,1.84-2.74s1.35-1.75,1.85-2.33l9.6,2.32-.25,1.03c-.55.38-1.22.87-2,1.46-.78.59-1.58,1.29-2.38,2.09-.8.8-1.55,1.71-2.23,2.74-.68,1.03-1.17,2.16-1.46,3.38-.35,1.46-.45,2.86-.28,4.19.16,1.33.68,2.68,1.55,4.06.78,1.26,1.97,2.42,3.57,3.48,1.6,1.06,3.59,1.88,5.97,2.46,2.51.61,4.69.78,6.56.53,1.86-.25,3.45-.8,4.76-1.63,1.26-.8,2.27-1.79,3.04-2.97.76-1.18,1.3-2.41,1.61-3.69.32-1.34.41-2.66.26-3.98-.15-1.32-.39-2.45-.74-3.41-.34-1.04-.71-1.97-1.13-2.79-.41-.82-.78-1.54-1.11-2.16l.22-.92,9.48,2.29c.16.82.35,1.77.55,2.86.21,1.08.34,2.17.4,3.28.08,1.35.08,2.61,0,3.75-.07,1.15-.33,2.69-.8,4.62Z"/><path class="cls-2" d="m98.51,196c-2.27,5.09-5.24,8.45-8.92,10.09-3.68,1.64-7.88,1.41-12.61-.7l-24.18-10.79,4.24-9.51,23.62,10.54c2.63,1.17,4.81,1.55,6.54,1.13,1.73-.42,3.09-1.74,4.09-3.98.98-2.19,1.08-4.07.29-5.65-.78-1.58-2.53-2.97-5.27-4.19l-23.62-10.54,4.24-9.51,24.16,10.77c4.66,2.08,7.65,5.01,8.96,8.8,1.31,3.79.8,8.3-1.54,13.53Z"/><path class="cls-2" d="m108.2,174.43l-34.29-23.3,15.75-23.19,6.54,4.44-9.93,14.63,6.01,4.08,9.15-13.47,6.54,4.44-9.15,13.47,8.66,5.88,9.93-14.62,6.54,4.44-15.75,23.19Z"/><path class="cls-2" d="m153.97,119.53l-8.85,9.1-18.95-2.33-2.6,2.67,10.89,10.6-7.23,7.42-29.7-28.92,11.63-11.95c1.61-1.65,3.11-2.98,4.51-4.01,1.39-1.02,2.93-1.74,4.59-2.14,1.71-.4,3.4-.41,5.05-.02,1.65.39,3.29,1.37,4.89,2.94,2.28,2.21,3.62,4.52,4.04,6.93.42,2.4.21,4.87-.62,7.4l22.36,2.3Zm-32.3-8.05c-.74-.73-1.53-1.21-2.34-1.44-.82-.24-1.7-.17-2.63.21-.65.27-1.28.67-1.9,1.19-.61.52-1.33,1.21-2.15,2.06l-2.43,2.49,8,7.79,2.08-2.13c1.01-1.04,1.8-1.98,2.38-2.83.58-.85.91-1.73.99-2.63.09-.84,0-1.63-.3-2.37-.29-.74-.86-1.51-1.7-2.33Z"/><path class="cls-2" d="m159.75,65.3l12.29,42.08-8.86,6.27-35.57-25.63,8.82-6.23,23.58,17.73-8.85-28.15,8.59-6.07Z"/><path class="cls-2" d="m211.42,63.88c2.76,6.11,3.3,11.65,1.61,16.62-1.69,4.98-5.37,8.75-11.05,11.32-5.7,2.58-10.97,2.82-15.82.75-4.85-2.08-8.63-6.13-11.36-12.15-2.74-6.07-3.29-11.61-1.63-16.6,1.65-4.99,5.33-8.78,11.03-11.35,5.68-2.57,10.95-2.83,15.8-.8,4.85,2.04,8.65,6.11,11.41,12.21Zm-9.8,4.4c-1.02-2.25-2.11-4.06-3.29-5.43-1.18-1.37-2.39-2.39-3.62-3.05-1.28-.66-2.53-.99-3.76-.98-1.23.01-2.39.27-3.49.77-1.16.53-2.13,1.21-2.89,2.05-.76.84-1.34,1.99-1.74,3.46-.33,1.33-.38,2.92-.13,4.76.25,1.84.89,3.89,1.9,6.14,1.05,2.32,2.14,4.14,3.29,5.46,1.15,1.33,2.35,2.32,3.61,3,1.29.68,2.55,1.01,3.78,1,1.23-.02,2.4-.27,3.5-.77,1.12-.5,2.09-1.23,2.92-2.19.83-.96,1.4-2.11,1.7-3.47.32-1.47.36-3.03.14-4.69-.22-1.66-.87-3.68-1.94-6.05Z"/><path class="cls-2" d="m273.39,70.3c-1.7.99-3.93,2.04-6.71,3.15-2.78,1.11-5.56,1.86-8.35,2.26-6.45.92-11.85-.21-16.22-3.38-4.36-3.18-7.03-8.18-8-15.02-.92-6.43.27-11.86,3.54-16.28,3.28-4.42,8.25-7.11,14.9-8.06,3.43-.49,6.28-.56,8.52-.22,2.24.35,4.59.92,7.05,1.71l1.37,9.62-.94.13c-.55-.32-1.34-.76-2.37-1.34-1.03-.57-2.02-1.05-2.97-1.42-1.11-.44-2.37-.78-3.79-1.01-1.41-.23-2.87-.24-4.37-.02-1.76.25-3.33.76-4.71,1.51-1.37.76-2.55,1.79-3.53,3.09-.93,1.26-1.59,2.78-1.98,4.56-.39,1.78-.43,3.79-.11,6.03.68,4.8,2.39,8.16,5.12,10.1,2.73,1.94,6.18,2.61,10.36,2.01.37-.05.8-.12,1.29-.21.49-.09.92-.18,1.28-.27l-1.15-8.05-7.97,1.13-1.09-7.69,17.95-2.56,2.88,20.2Z"/><path class="cls-2" d="m318.65,54.15c-.43,6.69-2.55,11.83-6.37,15.44-3.82,3.61-8.84,5.21-15.07,4.81-6.25-.4-11.02-2.65-14.33-6.76s-4.75-9.46-4.33-16.05c.42-6.65,2.54-11.79,6.34-15.43,3.8-3.64,8.83-5.25,15.07-4.86,6.23.4,11,2.63,14.33,6.7,3.33,4.07,4.78,9.45,4.35,16.14Zm-10.72-.71c.16-2.46.04-4.58-.36-6.34-.4-1.77-.99-3.23-1.77-4.4-.82-1.19-1.77-2.06-2.86-2.62s-2.24-.88-3.44-.96c-1.28-.08-2.45.07-3.52.46s-2.12,1.13-3.16,2.24c-.92,1.02-1.7,2.4-2.34,4.15-.64,1.75-1.04,3.85-1.2,6.31-.16,2.54-.04,4.66.35,6.37s.99,3.16,1.79,4.34c.82,1.21,1.77,2.09,2.87,2.65,1.1.56,2.25.88,3.45.96,1.22.08,2.42-.11,3.61-.56,1.18-.46,2.23-1.21,3.13-2.27.97-1.15,1.74-2.51,2.33-4.08.58-1.57.96-3.65,1.12-6.25Z"/><path class="cls-2" d="m348.48,82.87l-26.86-6.66,9.97-40.24,10.11,2.5-8.07,32.57,16.75,4.15-1.9,7.67Z"/><path class="cls-2" d="m393.85,80.11c-1.58,3.52-3.78,6.33-6.57,8.42-2.8,2.09-5.7,3.35-8.72,3.78-2.53.39-5.04.24-7.51-.43-2.47-.68-5.02-1.6-7.62-2.77l-11.83-5.32,17.01-37.81,11.73,5.28c2.66,1.2,5.07,2.48,7.24,3.87,2.16,1.38,3.97,3.18,5.42,5.4,1.77,2.71,2.77,5.74,2.99,9.09.22,3.35-.49,6.85-2.13,10.51Zm-9.72-4.46c1.12-2.49,1.65-4.81,1.59-6.96-.06-2.15-.75-4.13-2.08-5.93-.96-1.29-2.14-2.29-3.52-2.99-1.38-.7-3.06-1.5-5.02-2.38l-.18-.08-10.65,23.66.18.08c2.13.96,3.94,1.73,5.44,2.31,1.5.58,3.09.76,4.79.52,2-.28,3.79-1.1,5.38-2.46,1.59-1.36,2.94-3.29,4.06-5.77Z"/><path class="cls-2" d="m398.93,109.59c-2.6-1.82-4.71-3.67-6.33-5.55-1.62-1.88-3.01-3.78-4.18-5.71l5.66-8.07.77.54c.69,2.64,1.79,5.06,3.3,7.27,1.51,2.21,3.23,4,5.16,5.35.49.34,1.16.74,2.04,1.19.87.45,1.63.74,2.28.85.78.16,1.53.15,2.27-.03.73-.18,1.37-.64,1.9-1.4.6-.85.75-1.78.45-2.78-.3-1-.82-1.95-1.58-2.84-.94-1.11-1.98-2.27-3.1-3.46-1.12-1.19-2.12-2.39-2.98-3.58-1.98-2.77-3-5.34-3.04-7.7-.04-2.36.76-4.73,2.41-7.08,2.22-3.18,5.37-4.81,9.44-4.89,4.07-.08,8.12,1.28,12.15,4.11,2.02,1.42,3.89,3.03,5.6,4.84,1.71,1.81,3.11,3.62,4.21,5.43l-5.43,7.75-.75-.53c-.51-1.96-1.41-3.95-2.7-5.97s-2.9-3.7-4.82-5.04c-.74-.52-1.45-.94-2.12-1.25-.67-.31-1.43-.54-2.3-.69-.7-.13-1.41-.09-2.14.12-.72.21-1.29.61-1.71,1.2-.61.87-.78,1.77-.52,2.71.26.94,1.13,2.23,2.6,3.88.96,1.06,1.88,2.08,2.77,3.06.89.98,1.78,2.11,2.68,3.38,1.76,2.5,2.71,4.87,2.85,7.11.14,2.24-.61,4.54-2.26,6.9-2.36,3.37-5.59,5.16-9.68,5.35-4.09.19-8.39-1.29-12.91-4.45Z"/><path class="cls-2" d="m422.39,127.48l23.53-23.92-8.74-8.59,5.55-5.64,24.89,24.48-5.55,5.64-8.73-8.59-23.53,23.92-7.42-7.3Z"/><path class="cls-2" d="m440.09,145.68l33.46-24.48,16.55,22.63-6.38,4.67-10.44-14.27-5.86,4.29,9.62,13.14-6.38,4.67-9.62-13.14-8.45,6.18,10.44,14.27-6.38,4.67-16.56-22.63Z"/><path class="cls-2" d="m468.98,191.5l-10.47-19.72,6.39-3.39,2.79,5.26,23.83-12.65-2.79-5.26,6.39-3.39,10.47,19.72-6.39,3.39-2.79-5.26-23.83,12.65,2.79,5.26-6.39,3.39Z"/><path class="cls-2" d="m482.88,229.83l-3.19-9.5,22.3-24.36-27.39,9.21-3.03-9.03,39.3-13.21,4.07,12.11-18.3,20.1,22.51-7.57,3.03,9.03-39.3,13.21Z"/><path class="cls-2" d="m161,475.31c-2.23,2.96-4.88,5.11-7.95,6.48-3.06,1.36-6.05,1.92-8.97,1.67-2.46-.18-4.77-.85-6.94-2.01-2.17-1.16-4.35-2.57-6.54-4.22l-9.94-7.51,24-31.75,9.85,7.44c2.23,1.69,4.21,3.41,5.95,5.17,1.73,1.76,3.04,3.83,3.92,6.21,1.08,2.92,1.37,5.96.86,9.15s-1.92,6.31-4.24,9.38Zm-8.14-6.25c1.58-2.09,2.57-4.15,2.97-6.17.41-2.03.18-4.03-.68-5.99-.63-1.41-1.52-2.6-2.66-3.55-1.14-.95-2.54-2.05-4.19-3.3l-.15-.12-15.02,19.87.15.11c1.79,1.35,3.33,2.47,4.6,3.33,1.28.86,2.74,1.37,4.37,1.51,1.93.16,3.78-.22,5.56-1.16,1.78-.93,3.46-2.45,5.04-4.54Z"/><path class="cls-2" d="m157.62,496.03l18.58-35.2,23.8,12.57-3.54,6.71-15.01-7.92-3.26,6.17,13.83,7.3-3.54,6.71-13.83-7.3-4.69,8.89,15.01,7.92-3.55,6.71-23.8-12.57Z"/><path class="cls-2" d="m215.92,521.55l-25.01-8.97,13.44-37.46,9.41,3.37-10.88,30.32,15.6,5.6-2.56,7.15Z"/><path class="cls-2" d="m231.34,525.15l6.52-31.54-11.52-2.38,1.54-7.43,32.82,6.78-1.54,7.43-11.52-2.38-6.52,31.54-9.79-2.02Z"/><path class="cls-2" d="m256.25,530.18l15.4-39.08,10.89.54,11.45,40.42-10.28-.51-2.08-8.24-12.49-.62-2.89,7.99-10.01-.5Zm23.56-14.19l-3.41-13.31-4.71,12.91,8.11.4Z"/><path class="cls-2" d="m335.85,527.66c-5.25,1.02-9.53.53-12.85-1.46-3.32-1.99-5.45-5.43-6.39-10.31l-4.83-24.96,9.81-1.9,4.72,24.38c.52,2.71,1.43,4.64,2.71,5.76,1.28,1.14,3.08,1.47,5.38,1.03,2.26-.44,3.79-1.4,4.6-2.88.81-1.48.94-3.63.4-6.45l-4.72-24.38,9.82-1.9,4.82,24.93c.93,4.81.27,8.77-1.99,11.89-2.26,3.11-6.09,5.19-11.49,6.24Z"/><path class="cls-2" d="m395.51,507.82l-8.95,3.52-24.44-20.2,10.16,25.82-8.5,3.35-14.57-37.03,11.42-4.49,20.16,16.57-8.35-21.22,8.51-3.35,14.57,37.03Z"/><path class="cls-2" d="m423.07,492.03l-18.5,10.84-3.51-6,4.93-2.89-13.09-22.35-4.94,2.89-3.51-6,18.5-10.84,3.51,6-4.94,2.89,13.1,22.34,4.93-2.89,3.51,6Z"/><path class="cls-2" d="m437.37,481.82l-19.89-25.33-9.25,7.26-4.69-5.97,26.36-20.7,4.69,5.97-9.25,7.27,19.89,25.33-7.86,6.17Z"/></svg>