<?xml version="1.0" encoding="UTF-8"?><svg id="Capa_1" xmlns="http://www.w3.org/2000/svg" viewBox="0 0 566.93 566.93"><defs><style>.cls-1{fill:#035d88;}.cls-1,.cls-2,.cls-3,.cls-4,.cls-5,.cls-6,.cls-7,.cls-8{stroke-width:0px;}.cls-2{fill:#2d3d4f;}.cls-3{fill:#1b7b97;}.cls-4{fill:#fff;}.cls-5{fill:#e65f54;}.cls-6{fill:#35495e;}.cls-7{fill:#f1c410;}.cls-8{fill:#d7282f;}</style></defs><path class="cls-6" d="m480.9,86.03C428.16,33.3,358.04,4.25,283.46,4.25s-144.69,29.04-197.43,81.78C33.3,138.77,4.25,208.88,4.25,283.46s29.04,144.7,81.78,197.44c52.74,52.74,122.85,81.78,197.43,81.78s144.7-29.04,197.44-81.78c52.74-52.74,81.78-122.85,81.78-197.44s-29.04-144.69-81.78-197.43Zm-197.44,472.17c-151.73,0-274.73-123.01-274.73-274.74S131.73,8.73,283.46,8.73s274.74,123.01,274.74,274.73-123.01,274.74-274.74,274.74Z"/><path class="cls-6" d="m283.46,8.73C131.73,8.73,8.73,131.73,8.73,283.46s123.01,274.74,274.73,274.74,274.74-123.01,274.74-274.74S435.2,8.73,283.46,8.73Zm0,545c-149.02,0-270.26-121.24-270.26-270.27S134.44,13.2,283.46,13.2s270.27,121.24,270.27,270.26-121.24,270.27-270.27,270.27Z"/><path class="cls-4" d="m283.46,13.2C134.44,13.2,13.2,134.44,13.2,283.46s121.24,270.27,270.26,270.27,270.27-121.24,270.27-270.27S432.49,13.2,283.46,13.2Z"/><path class="cls-8" d="m283.46,506.62l-24.79,11.12c-8,3.59-16.67,4.95-25.36,4.03-36.1-3.82-52.35-4.39-88.71-17.49,35.9,3.03,75.95-1.37,126.18-21.9,1.4-.58,2.75-1.14,4.03-1.68,1.26-.6,2.46-1.17,3.56-1.7,2.57-1.25,4.13-2,5.1-2.48.97.47,2.53,1.23,5.1,2.48,1.1.53,2.3,1.1,3.56,1.7,1.28.53,2.63,1.1,4.03,1.68,50.23,20.53,90.28,24.93,126.18,21.9-37.24,13.42-53.4,13.69-91.38,17.77-6.88.74-13.85-.35-20.18-3.19l-27.3-12.24Z"/><path class="cls-8" d="m250.32,479.11c-21.82,11.43-41.16,16.77-65.78,20.29-12.69-2.42-32.04-8.4-53.27-18.46l-2.47-1.18c-.83-.38-1.61-.84-2.41-1.26-15.64-8.39-27.92-15.8-45.02-29.99,18.93,8.72,48.46,20.62,107.88,23.15,9.69.37,20.8.36,30.36-.93,5.2,1.79,15.32,5.58,30.7,8.37Z"/><path class="cls-8" d="m316.61,479.11c21.82,11.43,41.16,16.77,65.78,20.29,12.69-2.42,32.04-8.4,53.27-18.46l2.47-1.18c.83-.38,1.61-.84,2.41-1.26,15.64-8.39,27.92-15.8,45.02-29.99-18.93,8.72-48.46,20.62-107.88,23.15-9.69.37-20.8.36-30.36-.93-5.2,1.79-15.32,5.58-30.7,8.37Z"/><path class="cls-8" d="m187.64,455.64s-.99.12-2.73.32c-.43.05-.92.11-1.45.16-.52.04-1.08.08-1.68.12-1.22.08-2.59.17-4.08.27-1.52.08-3.18.17-4.92.26-.89.06-1.77.05-2.69.06-.92,0-1.86,0-2.82,0-16.88-.03-32.87-2.09-46.49-5.52-31.81-21.09-56.85-45.75-78.24-82.28,32.41,32.19,78.83,56.44,118.95,67.94,1.08.96-.55-.4,7.92,6.41,1.53,1.11,3.16,2.29,4.78,3.46.81.59,1.63,1.18,2.43,1.77.8.59,1.64,1.08,2.42,1.61,1.58,1.03,3.05,1.99,4.31,2.82.63.41,1.2.8,1.72,1.12.53.31.99.58,1.37.8.76.44,1.19.7,1.19.7Z"/><path class="cls-8" d="m379.29,455.64s.99.12,2.73.32c.43.05.92.11,1.45.16.52.04,1.08.08,1.68.12,1.22.08,2.59.17,4.08.27,1.52.08,3.18.17,4.92.26.89.06,1.77.05,2.69.06.92,0,1.86,0,2.82,0,16.88-.03,32.87-2.09,46.49-5.52,31.81-21.09,56.85-45.75,78.24-82.28-32.41,32.19-78.83,56.44-118.95,67.94-1.08.96.55-.4-7.92,6.41-1.53,1.11-3.16,2.29-4.78,3.46-.81.59-1.63,1.18-2.43,1.77-.8.59-1.64,1.08-2.42,1.61-1.58,1.03-3.05,1.99-4.31,2.82-.63.41-1.2.8-1.72,1.12-.53.31-.99.58-1.37.8-.76.44-1.19.7-1.19.7Z"/><path class="cls-8" d="m136.44,411.68c-18.38-4.45-40.89-14.38-59.57-27.1-21.75-29.46-37.64-62.89-44.69-102.65,20.98,44.95,64.68,87.48,85.89,103,4.33,7.7,12.4,19.75,18.37,26.75Z"/><path class="cls-8" d="m430.49,411.68c18.38-4.45,40.89-14.38,59.57-27.1,21.75-29.46,37.64-62.89,44.69-102.65-20.98,44.95-64.68,87.48-85.89,103-4.33,7.7-12.4,19.75-18.37,26.75Z"/><path class="cls-8" d="m102.96,352.56c-16.44-12.11-31.7-26.24-45.21-45.45-11.48-39.87-12.89-78.18-7.22-109.86,3.43,39.62,27.46,98.08,44.14,123.7,2.74,15.71,6.42,25.97,8.28,31.61Z"/><path class="cls-8" d="m463.97,352.56c16.44-12.11,31.7-26.24,45.21-45.45,11.48-39.87,12.89-78.18,7.22-109.86-3.43,39.62-27.46,98.08-44.14,123.7-2.74,15.71-6.42,25.97-8.28,31.61Z"/><path class="cls-8" d="m91.34,285.25c-12.38-19.33-18.74-32.8-26.13-57.16.89-29.01,11.08-70.14,29.94-103.49-9.85,37.22-7.56,97.62-1.05,127.88-2.13,12.04-2.49,22.46-2.76,32.76Z"/><path class="cls-8" d="m475.59,285.25c12.38-19.33,18.74-32.8,26.13-57.16-.89-29.01-11.08-70.14-29.94-103.49,9.85,37.22,7.56,97.62,1.05,127.88,2.13,12.04,2.49,22.46,2.76,32.76Z"/><path class="cls-8" d="m102.84,217.85c-3.88-13.76-6.66-44.94-4.56-61.12,5.96-13.16,22.66-51.47,61.84-84.81-19.26,28.07-38.71,82.13-43.65,116.07-7.28,12.88-13.15,27.99-13.63,29.86Z"/><path class="cls-8" d="m464.09,217.85c3.88-13.76,6.66-44.94,4.56-61.12-5.96-13.16-22.66-51.47-61.84-84.81,19.26,28.07,38.71,82.13,43.65,116.07,7.28,12.88,13.15,27.99,13.63,29.86Z"/><path class="cls-8" d="m136.33,158.51c3.22-22.88,9.72-43.39,16.32-57.23,26.92-27.71,56.67-46.4,85.06-56.63-27.59,19.41-65.46,66.08-78.51,90.39-9.94,8.77-14.39,13.5-22.87,23.47Z"/><path class="cls-8" d="m430.6,158.51c-3.22-22.88-9.72-43.39-16.32-57.23-26.92-27.71-56.67-46.4-85.06-56.63,27.59,19.41,65.46,66.08,78.51,90.39,9.94,8.77,14.39,13.5,22.87,23.47Z"/><path class="cls-8" d="m187.69,114.24c11.05-6.49,17.62-9.47,29.37-14.2,8.66-7.65,37.09-37.86,66.4-52.54-16.51,3.71-45.67,12.79-61.74,20.4-13.46,13.48-24.7,28.78-34.03,46.33Z"/><path class="cls-8" d="m379.24,114.24c-11.05-6.49-17.62-9.47-29.37-14.2-8.66-7.65-37.09-37.86-66.4-52.54,16.51,3.71,45.67,12.79,61.74,20.4,13.46,13.48,24.7,28.78,34.03,46.33Z"/><path class="cls-8" d="m283.46,87.34c-.07.02-.13.05-.2.07-12.15.32-20.29.85-32.51,3.09,10.08-8.84,22.45-17.2,32.71-23.12,10.26,5.92,22.64,14.27,32.71,23.12-12.22-2.23-20.36-2.77-32.51-3.09-.07-.02-.13-.05-.2-.07Z"/><polygon class="cls-1" points="279.05 531.94 227.08 400.32 79.67 445.47 156.49 311.8 29.28 224.69 181.68 201.41 171.39 60.28 170.46 47.63 283.7 152.28 396.92 47.64 385.71 201.41 538.12 224.69 410.91 311.8 487.72 445.47 340.31 400.32 283.73 543.64 279.05 531.94"/><path class="cls-2" d="m391.02,59.91l-.03.47-10.56,144.8-.03.47,141.6,21.63,2.85.44-120.12,82.25-.45.31,72.81,126.7-.18-.06-139.39-42.69-.15-.05-53.63,135.84-.03.08-53.66-135.92-.07.02-139.65,42.77.97-1.69,71.84-125.01-.5-.34-120.07-82.22.77-.12,143.19-21.88.5-.08-10.6-145.43-.02-.32,107.32,99.18.03-.03,107.29-99.15m-106.81,221.84l-.39.31-.08.02-.28.06-.39.09-.62-.14.28.22.39.31.49.39.13.11.31.25-.31-.64.15-.31.2-.42.12-.25m118.63-246.38l-18.6,17.19-100.53,92.91-100.53-92.91-18.6-17.19,1.84,25.26.02.32,9.93,136.21-134.55,20.56-.77.12-25.04,3.82,20.9,14.31,112.95,77.34-67.24,117-.97,1.69-12.62,21.96,24.22-7.42,130.89-40.09,50.27,127.32,9.3,23.57,9.3-23.57.03-.08,50.23-127.24,130.7,40.03.18.05,24.23,7.43-12.63-21.97-68.21-118.69,112.95-77.34,20.9-14.31-25.04-3.83-2.85-.44-132.47-20.24,9.92-136.06.03-.47,1.84-25.26h0Z"/><polygon class="cls-3" points="283.2 281.54 283.5 281.47 283.5 152.55 283.46 152.58 171 48.65 171.03 48.98 283.2 281.54"/><polygon class="cls-6" points="282.74 283.73 395.89 49.15 395.92 48.65 282.24 153.71 282.24 284.08 282.32 284.06 282.74 283.73"/><polygon class="cls-6" points="384.79 201.37 384.82 200.88 284 281.12 283.87 281.38 533.18 224.04 384.79 201.37"/><polygon class="cls-3" points="395.89 49.14 284 281.12 384.82 200.88 395.89 49.14"/><polygon class="cls-3" points="536.16 224.5 533.18 224.04 283.87 281.38 283.66 281.83 410.29 310.69 536.16 224.5"/><polygon class="cls-6" points="486.11 443.78 409.81 311.01 410.29 310.69 283.66 281.83 283.5 282.15 283.82 282.82 485.92 443.72 486.11 443.78"/><polygon class="cls-3" points="485.92 443.72 283.82 282.82 339.86 398.99 485.92 443.72"/><polygon class="cls-3" points="283.36 282.45 227.16 398.96 227.23 398.94 283.46 541.37 283.5 541.29 283.5 282.56 283.36 282.45"/><polygon class="cls-6" points="283.5 282.56 283.5 541.29 339.69 398.94 339.86 398.99 283.82 282.82 283.5 282.56"/><polygon class="cls-6" points="282.14 281.48 31.57 224.38 30.77 224.5 156.6 310.66 282.43 281.71 282.14 281.48"/><polygon class="cls-6" points="282.84 282.04 81.83 442.01 80.82 443.78 227.16 398.96 283.36 282.45 282.84 282.04"/><polygon class="cls-3" points="282.84 282.04 282.43 281.71 156.6 310.66 157.12 311.01 81.83 442.01 282.84 282.04"/><polygon class="cls-3" points="282.14 281.48 181.62 201.45 31.57 224.38 282.14 281.48"/><polygon class="cls-6" points="281.52 284.25 281.94 284.15 168.5 48.98 179.74 203.09 179.21 203.17 280.86 284.1 281.52 284.25"/><path class="cls-8" d="m283.46,163.83s-.1,0-.14,0v237.28s.1,0,.14,0c66.59,0,120.57-53.12,120.57-118.64s-53.98-118.64-120.57-118.64Z"/><path class="cls-5" d="m162.9,282.47c0,65.48,53.9,118.56,120.42,118.64v-237.28c-66.52.08-120.42,53.16-120.42,118.64Z"/><path class="cls-4" d="m227.29,201.29c1.14,1.35,1.86,2.81,2.17,4.38.31,1.57.25,3.02-.17,4.35-.34,1.12-.9,2.13-1.67,3.01-.77.89-1.65,1.75-2.65,2.6l-4.54,3.83-12.23-14.5,4.5-3.79c1.02-.86,2.03-1.6,3.03-2.22,1-.62,2.1-1.01,3.3-1.17,1.47-.19,2.92,0,4.34.56,1.43.57,2.73,1.56,3.91,2.96Zm-3.76,3.13c-.8-.96-1.66-1.63-2.56-2.03-.9-.4-1.85-.51-2.86-.32-.72.14-1.37.43-1.93.86-.56.43-1.22.96-1.98,1.6l-.07.06,7.65,9.08.07-.06c.82-.69,1.5-1.29,2.03-1.79.54-.5.92-1.13,1.16-1.87.28-.88.3-1.78.05-2.71-.25-.92-.77-1.86-1.58-2.82Z"/><path class="cls-4" d="m235.2,207.61l-9.32-16.52,11.17-6.3,1.78,3.15-7.05,3.97,1.63,2.9,6.49-3.66,1.78,3.15-6.49,3.66,2.35,4.17,7.04-3.97,1.78,3.15-11.17,6.3Z"/><path class="cls-4" d="m260.58,196l-11.89,4.35-6.52-17.81,4.47-1.64,5.27,14.42,7.42-2.71,1.24,3.4Z"/><path class="cls-4" d="m265.65,195l-2.88-15.08-5.51,1.05-.68-3.55,15.69-3,.68,3.55-5.51,1.05,2.88,15.08-4.68.89Z"/><path class="cls-4" d="m274.99,193.05l6.21-19.03,5.2-.05,6.6,18.9-4.91.05-1.22-3.86-5.96.06-1.15,3.88-4.78.05Zm10.8-7.42l-2-6.23-1.87,6.27,3.87-.04Z"/><path class="cls-4" d="m308.52,196.53c-2.46-.68-4.18-1.79-5.18-3.34-1-1.55-1.18-3.47-.55-5.75l3.22-11.68,4.59,1.27-3.15,11.41c-.35,1.27-.37,2.28-.06,3.03.31.75,1,1.28,2.08,1.58,1.06.29,1.91.21,2.57-.25.66-.46,1.17-1.35,1.54-2.67l3.15-11.41,4.59,1.27-3.22,11.67c-.62,2.25-1.74,3.8-3.36,4.65-1.62.85-3.7.93-6.23.23Z"/><path class="cls-4" d="m333.26,206.81l-4.06-2.13-.33-15.11-6.15,11.71-3.86-2.02,8.81-16.8,5.18,2.72.31,12.43,5.05-9.62,3.86,2.02-8.81,16.8Z"/><path class="cls-4" d="m343.1,214.56l-8.06-6.28,2.03-2.61,2.15,1.67,7.58-9.74-2.15-1.67,2.03-2.61,8.06,6.27-2.03,2.61-2.15-1.67-7.58,9.74,2.15,1.67-2.03,2.61Z"/><path class="cls-4" d="m347.48,218.83l11.17-10.53-3.85-4.08,2.63-2.48,10.96,11.62-2.63,2.48-3.84-4.08-11.17,10.53-3.27-3.47Z"/><path class="cls-4" d="m185.94,326.79l15.24-2.36,1.85,3.55-10.69,11.12-1.74-3.35,2.23-2.18-2.12-4.08-3.07.56-1.7-3.26Zm8.86,4.84l3.59-3.54-4.96.9,1.38,2.65Z"/><path class="cls-4" d="m197,346.35c-1.14-1.59-1.64-3.1-1.48-4.51.16-1.41.98-2.65,2.46-3.71l7.59-5.43,2.14,2.98-7.41,5.31c-.82.59-1.33,1.19-1.51,1.79-.18.6-.02,1.25.48,1.95.49.69,1.05,1.05,1.67,1.09.62.04,1.36-.24,2.21-.85l7.41-5.31,2.14,2.98-7.58,5.43c-1.46,1.05-2.89,1.43-4.27,1.16-1.38-.28-2.67-1.24-3.84-2.88Z"/><path class="cls-4" d="m217.8,358.57c-.97.95-2.05,1.59-3.24,1.91s-2.3.36-3.35.11c-.88-.2-1.68-.57-2.41-1.11-.72-.54-1.44-1.17-2.14-1.89l-3.19-3.27,10.46-10.2,3.17,3.25c.72.73,1.34,1.47,1.87,2.2.53.73.89,1.56,1.08,2.47.23,1.12.17,2.24-.19,3.37-.36,1.13-1.04,2.18-2.06,3.17Zm-2.61-2.72c.69-.67,1.16-1.36,1.42-2.08.26-.71.29-1.45.08-2.21-.15-.55-.41-1.03-.77-1.44-.36-.41-.81-.89-1.34-1.43l-.05-.05-6.55,6.39.05.05c.58.59,1.07,1.08,1.49,1.46.42.39.92.65,1.5.79.69.17,1.39.13,2.08-.11s1.39-.7,2.08-1.37Z"/><path class="cls-4" d="m215.2,365.78l8.95-11.55,7.81,6.05-1.71,2.2-4.93-3.82-1.57,2.03,4.54,3.52-1.71,2.2-4.54-3.52-2.26,2.92,4.93,3.82-1.71,2.2-7.81-6.05Z"/><path class="cls-4" d="m237.74,380.66l-3.88-2.24-.85-6.68-1.14-.66-2.68,4.64-3.16-1.82,7.3-12.66,5.09,2.94c.7.4,1.29.8,1.76,1.19.47.39.85.85,1.13,1.38.29.55.43,1.13.44,1.72,0,.6-.18,1.24-.58,1.93-.56.97-1.23,1.63-2.02,1.98-.78.35-1.65.5-2.58.43l1.16,7.84Zm-.05-11.73c.18-.32.28-.63.29-.93s-.09-.59-.3-.88c-.15-.2-.34-.38-.57-.54-.23-.16-.53-.35-.89-.56l-1.06-.61-1.97,3.41.91.52c.44.26.83.45,1.17.57.34.13.67.16.98.11.3-.04.56-.14.78-.31.23-.16.44-.43.65-.78Z"/><path class="cls-4" d="m239.87,381.47l5.51-13.53,9.15,3.73-1.05,2.58-5.77-2.35-.97,2.37,5.32,2.17-1.05,2.58-5.32-2.17-1.39,3.42,5.77,2.35-1.05,2.58-9.15-3.73Z"/><path class="cls-4" d="m258.6,388.05l2.91-14.32,9.68,1.97-.56,2.73-6.11-1.24-.51,2.51,5.63,1.14-.56,2.73-5.63-1.14-.74,3.62,6.11,1.24-.56,2.73-9.68-1.97Z"/><path class="cls-4" d="m276.34,391.07c-1.12-.08-2.09-.26-2.92-.53-.83-.28-1.6-.6-2.3-.97l.25-3.47.33.02c.69.67,1.46,1.21,2.32,1.6.86.4,1.7.62,2.53.68.21.01.49.01.83-.01.35-.02.63-.07.84-.16.26-.09.49-.23.68-.42.19-.19.3-.44.32-.77.03-.37-.1-.67-.37-.92-.27-.25-.6-.44-.99-.57-.49-.17-1.01-.33-1.56-.49-.56-.16-1.07-.34-1.55-.54-1.1-.48-1.87-1.07-2.31-1.78s-.63-1.57-.55-2.58c.1-1.36.75-2.43,1.97-3.19,1.22-.76,2.69-1.08,4.42-.96.87.06,1.72.21,2.57.45.85.24,1.6.53,2.25.88l-.24,3.33-.32-.02c-.51-.5-1.14-.94-1.9-1.32-.76-.37-1.55-.59-2.37-.65-.32-.02-.61-.02-.87,0-.26.03-.53.1-.82.21-.24.09-.44.23-.63.42-.18.19-.28.42-.3.67-.03.37.08.68.33.91.25.24.75.47,1.49.7.48.15.95.29,1.39.42.45.14.92.32,1.42.53.99.44,1.7.98,2.15,1.63.45.65.64,1.48.57,2.5-.1,1.45-.76,2.57-1.96,3.37-1.2.8-2.77,1.13-4.71.99Z"/><path class="cls-4" d="m288.48,391.02l-.71-11.8-4.31.26-.17-2.78,12.28-.73.17,2.78-4.31.26.71,11.8-3.66.22Z"/><path class="cls-4" d="m313.54,371.77l-1.13,15.41-3.7.98-8.58-12.85,3.68-.97,5.6,8.77.55-10.38,3.59-.95Z"/><path class="cls-4" d="m326.24,382.25l-7.31,2.91-.94-2.37,1.95-.77-3.51-8.84-1.95.78-.94-2.37,7.31-2.91.94,2.37-1.95.78,3.51,8.84,1.95-.77.94,2.37Z"/><path class="cls-4" d="m340.46,374.76l-3.09,1.72-9.88-6.15,4.96,8.9-2.93,1.63-7.12-12.76,3.93-2.19,8.15,5.04-4.08-7.31,2.93-1.63,7.12,12.76Z"/><path class="cls-4" d="m349.14,368.69c-1.73,1.34-3.51,1.89-5.34,1.63-1.83-.26-3.48-1.33-4.95-3.23-1.42-1.83-2.04-3.68-1.87-5.56.18-1.88,1.13-3.49,2.86-4.84.46-.36.89-.65,1.3-.89.41-.23.82-.43,1.22-.6.32-.13.69-.24,1.11-.35.41-.11.75-.19,1.02-.23l2.14,2.75-.29.23c-.24-.02-.53-.03-.87-.03-.35,0-.72,0-1.12.05-.4.04-.8.13-1.22.27-.41.13-.8.34-1.15.61-.42.33-.75.69-1,1.09-.25.4-.4.89-.46,1.46-.06.52.01,1.1.22,1.74.2.64.57,1.31,1.1,1.99.56.72,1.12,1.25,1.69,1.59.57.34,1.13.54,1.67.6.53.06,1.02,0,1.49-.15s.89-.38,1.26-.66c.38-.3.7-.64.95-1.04.25-.4.43-.76.55-1.1.13-.36.23-.7.3-1.02.07-.32.12-.6.17-.84l.26-.2,2.11,2.71c-.14.26-.29.56-.47.91-.18.34-.38.67-.61.99-.28.39-.55.74-.82,1.04-.27.3-.68.67-1.24,1.1Z"/><path class="cls-4" d="m355.3,363.14l-10.44-10.23,6.92-7.06,1.99,1.95-4.36,4.45,1.83,1.79,4.02-4.1,1.99,1.95-4.02,4.1,2.63,2.58,4.36-4.45,1.99,1.95-6.92,7.06Z"/><path class="cls-4" d="m372.66,342.42l-2.65,3.6-6.73.1-.78,1.06,4.31,3.18-2.17,2.94-11.76-8.67,3.49-4.73c.48-.65.94-1.19,1.38-1.62s.94-.75,1.5-.97c.58-.22,1.17-.31,1.76-.25.6.06,1.21.32,1.85.79.9.66,1.48,1.4,1.74,2.22.26.82.31,1.69.14,2.61l7.92-.27Zm-11.66-1.26c-.3-.22-.59-.35-.89-.39-.3-.04-.6.02-.91.2-.22.13-.42.3-.6.51s-.41.49-.65.82l-.73.99,3.17,2.34.62-.85c.3-.41.54-.78.7-1.1.16-.32.23-.65.22-.97,0-.3-.08-.57-.22-.81-.14-.24-.37-.49-.7-.73Z"/><path class="cls-4" d="m373.71,340.36l-12.85-6.96,4.71-8.69,2.45,1.33-2.97,5.48,2.25,1.22,2.74-5.05,2.45,1.33-2.74,5.05,3.24,1.76,2.97-5.48,2.45,1.33-4.71,8.69Z"/><polygon class="cls-7" points="284.04 280.11 283.59 280.46 283.9 280.39 284.04 280.11"/><polygon class="cls-7" points="283.5 280.53 283.5 280.48 283.18 280.55 283.26 280.72 283.5 280.53"/><polygon class="cls-7" points="283.5 280.48 283.5 280.53 283.59 280.46 283.5 280.48"/><polygon class="cls-7" points="283.5 280.83 283.5 280.53 283.26 280.72 283.29 280.78 283.5 280.83"/><polygon class="cls-7" points="283.9 280.39 283.59 280.46 283.5 280.53 283.5 280.83 283.67 280.87 283.9 280.39"/><polygon class="cls-7" points="283.5 280.83 283.29 280.78 283.5 281.21 283.5 280.83"/><polygon class="cls-7" points="283.67 280.87 283.5 280.83 283.5 281.21 283.5 281.21 283.67 280.87"/><polygon class="cls-7" points="283.5 281.22 283.35 281.53 283.5 281.65 283.5 281.22"/><polygon class="cls-7" points="283.5 281.21 283.5 281.22 283.5 281.65 283.85 281.93 283.5 281.21"/><polygon class="cls-7" points="282.74 280.65 282.04 280.49 282.36 280.74 282.74 280.65"/><polygon class="cls-7" points="283.5 281.21 283.5 281.22 283.5 281.21 283.5 281.21"/><polygon class="cls-7" points="283.5 281.22 283.5 281.21 283.29 280.78 283.21 280.76 282.8 281.09 283.35 281.53 283.5 281.22"/><polygon class="cls-7" points="283.21 280.76 282.74 280.65 282.36 280.74 282.8 281.09 283.21 280.76"/><polygon class="cls-7" points="283.26 280.72 283.18 280.55 282.74 280.65 283.21 280.76 283.26 280.72"/><polygon class="cls-7" points="283.26 280.72 283.21 280.76 283.29 280.78 283.26 280.72"/><path class="cls-6" d="m230.86,331.85c-.49,0-.94-.24-1.22-.63s-.35-.91-.19-1.36l38.81-110.49c.21-.6.78-1,1.42-1h30.28c.64,0,1.2.4,1.42,1l38.81,110.49c.16.46.09.97-.19,1.36s-.74.63-1.22.63h-107.9Zm71.08-23.55l-17.51-52.26-17.58,52.26h35.08Z"/><path class="cls-4" d="m299.94,219.85l38.81,110.49h-107.9l38.81-110.49h30.28m-35.17,89.94h39.26l-19.59-58.47-19.67,58.47m35.17-92.94h-30.28c-1.27,0-2.41.8-2.83,2.01l-38.81,110.49c-.32.92-.18,1.94.38,2.73.56.79,1.47,1.27,2.45,1.27h107.9c.97,0,1.89-.47,2.45-1.27.56-.79.71-1.81.38-2.73l-38.81-110.49c-.42-1.2-1.56-2.01-2.83-2.01h0Zm-31,89.94l15.49-46.05,15.43,46.05h-30.91Z"/></svg>