<svg xmlns="http://www.w3.org/2000/svg" viewBox="0 0 566.93 566.93"><defs><style>.cls-1{fill:#fff;}.cls-2{fill:#cc1333;}.cls-3{fill:#feffff;}</style></defs><title>Domaru Butai</title><g id="Capa_2" data-name="Capa 2"><ellipse class="cls-1" cx="283.46" cy="283.46" rx="279.21" ry="277.77"/><ellipse class="cls-1" cx="283.46" cy="283.46" rx="279.21" ry="277.77"/><ellipse class="cls-1" cx="283.46" cy="283.46" rx="279.21" ry="277.77"/></g><g id="Capa_1" data-name="Capa 1"><path class="cls-2" d="M284,85.08c100.14.24,182.84,73.86,196.81,169.56h69C535.27,121.21,421.38,17,283.46,17S31.66,121.21,17.16,254.64H86.1C100,158.86,183.64,84.84,284,85.08Z"/><path class="cls-2" d="M283.46,550c138,0,252-104.37,266.34-237.94h-69c-13.93,96.33-97,170.07-197.53,169.84-100.68-.23-183-73.53-197-169.84H17.13C31.5,445.58,145.45,550,283.46,550Z"/><path class="cls-2" d="M553.84,312a267.82,267.82,0,0,1-78.13,162.71,272.87,272.87,0,0,1-384.49,0A267.77,267.77,0,0,1,13.09,312H4.25c14.37,140.8,133.9,250.67,279.21,250.67S548.3,452.81,562.68,312Z"/><path class="cls-2" d="M283.46,13A270.78,270.78,0,0,1,475.71,92.21a267.84,267.84,0,0,1,78.1,162.43h8.84C548.14,114,428.69,4.25,283.46,4.25S18.79,114,4.28,254.64h8.84A267.84,267.84,0,0,1,91.22,92.21,270.78,270.78,0,0,1,283.46,13Z"/><path class="cls-3" d="M283.46,553.94a270.78,270.78,0,0,0,192.25-79.22A267.82,267.82,0,0,0,553.84,312h-4C535.43,445.58,421.48,550,283.46,550S31.5,445.58,17.13,312h-4A267.77,267.77,0,0,0,91.22,474.72,270.78,270.78,0,0,0,283.46,553.94Z"/><path class="cls-3" d="M283.46,17c137.92,0,251.81,104.23,266.31,237.66h4a267.84,267.84,0,0,0-78.1-162.43,272.87,272.87,0,0,0-384.49,0,267.84,267.84,0,0,0-78.1,162.43h4C31.66,121.21,145.55,17,283.46,17Z"/><path class="cls-1" d="M187.88,87.63c.47-.19.69-.39.68-.61a10.55,10.55,0,0,0-.69-2l-2.69-6.56-3,1.22a49.25,49.25,0,0,1,2.9,15.78L178.86,93a48.59,48.59,0,0,0-1.54-9.24,111.25,111.25,0,0,0-4.52-12.63l-7-17L179,48.8l13.95,34a37.33,37.33,0,0,1,1.89,5.33,3.22,3.22,0,0,1-.13,2.35A4.66,4.66,0,0,1,192.52,92c-.73.29-2.37.87-5,1.73l-2.66-5.15Q187,88,187.88,87.63ZM175.74,63.41l2.78-1.13L176,56.09l-2.78,1.13Zm2,4.83,1.58,3.84c.13.31.31.77.53,1.37s.4,1,.52,1.32l2.83-1.15-2.68-6.51Zm42.36,12c-.88.36-2.94,1.1-6.18,2.24l-2.41-5.09c2.57-.87,4.06-1.38,4.45-1.54s.6-.33.61-.52a5.26,5.26,0,0,0-.5-1.55L204.11,44.67,188.57,51l14.84,36.18-5.56,2.26L180.87,48l26.81-10.88L222.1,72.31c1,2.38,1.31,4.12,1,5.22S221.81,79.54,220.08,80.24ZM193,58.5l-2-4.79,13.29-5.39,2,4.78Zm13.18,17.12,1.56,3.8-4.62,1.87-8-19.55,12-4.85,6.46,15.75Zm-1.78-4.36,3-1.21-2.86-7-3,1.2Z"/><path class="cls-1" d="M264.07,65.75a2.51,2.51,0,0,0,2.45-2.28q.18-1.92-.88-12.27l6.15-.19q.33,3.08.54,5.07c.14,1.33.25,2.69.33,4.07s.14,2.49.16,3.28a11.65,11.65,0,0,1-.2,2.47,16.82,16.82,0,0,1-.45,1.91,3.76,3.76,0,0,1-.82,1.34,4.53,4.53,0,0,1-1.18,1,16.17,16.17,0,0,1-1.67.67,15,15,0,0,1-2.08.55c-.65.12-1.53.27-2.64.44q-5.32.83-6.88,0t-2.21-5.06l-3.94-25-8.44,1.32a63,63,0,0,1,.5,13.35q4.62,2.51,10.5,6.1l-3.25,5.58q-5.24-3.18-8.52-5-2.49,8-10.73,14.9l-5-4.5A30.85,30.85,0,0,0,232,67.09a21.84,21.84,0,0,0,3.23-7.39Q230,57.12,226,55.55l2.71-5.7c3.15,1.25,5.57,2.27,7.28,3.06a61.29,61.29,0,0,0-.61-8.77l-10.91,1.7L223.54,40l10.91-1.7-1.3-8.2L240.09,29l1.29,8.21,15.24-2.38,4.61,29.26c.16,1,.37,1.57.63,1.72A4.72,4.72,0,0,0,264.07,65.75Z"/><path class="cls-1" d="M299.89,70.2l-.27,1.86-6.6-1,2.87-19.69,22.52,3.24-2.87,19.7-6.3-.91.27-1.86ZM294.28,48l.81-5.51,5.13.74q-.37-4.1-1-8.63l-2.52-.36.78-5.36,9.17,1.32.64-4.36,6.7,1-.64,4.36,9.52,1.37-.78,5.36-2.32-.33a81.09,81.09,0,0,1-3.38,8l5,.72-.81,5.51Zm16,18.42,1.07-7.31-9.62-1.39L300.64,65Zm.24-21.71a67.47,67.47,0,0,0,3.38-8l-8.52-1.23c.42,3.23.71,6.11.86,8.62Zm26,6a16.51,16.51,0,0,1,3.31,6.19,15.9,15.9,0,0,1,.5,6.79c-.46,3.18-1.41,5.34-2.85,6.5s-3.5,1.54-6.18,1.15L328,70.89l-.38-5.84,1.11.16c1.88.27,3.15.22,3.83-.16s1.11-1.27,1.31-2.68q.78-5.31-4.36-12.39A66,66,0,0,0,337,37.6l-6.09-.88-5.69,39-6.4-.92,6.45-44.24,19,2.74-.76,5.22A79.2,79.2,0,0,1,336.47,50.72Z"/><path class="cls-1" d="M368.42,88.86q-2.94-1.14-8.44-3.56l1.63-4.53a49.56,49.56,0,0,1-7.81,1.35l-.38-6q11.28-.72,19.12-4.94a18,18,0,0,0,0-2.87,46.6,46.6,0,0,1-13.21,3.55q-2.73,3-7.7,1.07l-.85-.33.82-5.39.66.25a2.78,2.78,0,0,0,2.4.15,5.43,5.43,0,0,0,1.63-2.6,10.3,10.3,0,0,0,.8-4.17A20.07,20.07,0,0,0,356,55.61l-9.85,25-5.78-2.25,16.42-41.62,15.92,6.22-1.88,4.76a.18.18,0,0,0-.1.12.21.21,0,0,1-.11.13l4,1.57c-.06-1.8-.17-3.6-.33-5.41l6.33.46q.31,3.22.3,7.41l4.93,1.92a48.12,48.12,0,0,0,5.78-5.24l5.08,3.61a40.25,40.25,0,0,1-4.42,4.15l6.2,2.42-2,5.05L388,60.55a77.82,77.82,0,0,0-1.72,7.81c1.94-.84,3.74-1.73,5.43-2.67l1.72,5.46a53.72,53.72,0,0,1-7.77,3.77,35.92,35.92,0,0,0,1.78,13.64l-5.16,4.62a42.2,42.2,0,0,1-2.62-15.8,70.37,70.37,0,0,1,2.84-19l-1.61-.63a25.85,25.85,0,0,1-3.34,1.41,33.9,33.9,0,0,1-.86,22.68c-1.39,3.51-2.66,5.74-3.81,6.67S370.22,89.57,368.42,88.86Zm-3.14-43.32-4.64-1.81-4.18,10.6A58.65,58.65,0,0,0,365.28,45.54Zm6.66,17.78c-.25-1-.44-1.86-.57-2.45a54.26,54.26,0,0,1-7.78.87l-.5-5.52A45.68,45.68,0,0,0,373.7,55l-7-2.74a54.22,54.22,0,0,1-5,4.74,18.86,18.86,0,0,1,.47,8.78A38.3,38.3,0,0,0,371.94,63.32Zm-.53,13.93a42,42,0,0,1-8.91,3.32q3.19,1.47,5.05,2.19a1.29,1.29,0,0,0,1.44-.2,10.33,10.33,0,0,0,1.63-3.17C371,78.48,371.25,77.77,371.41,77.25Z"/><path class="cls-1" d="M100,390.23a9.22,9.22,0,0,1,.45,7.28,17.32,17.32,0,0,1-3.92,6.37,24.25,24.25,0,0,1-6,4.55,24.93,24.93,0,0,1-7.1,2.55,16.88,16.88,0,0,1-7.51-.2,9.47,9.47,0,0,1-5.9-4.37L59.86,387.79A3.73,3.73,0,0,1,59.6,385a3.8,3.8,0,0,1,1.78-2.24l15.45-8.33,3.72,6.83L70,386.92a1.39,1.39,0,0,0-.6,2.16L75.88,401a5.14,5.14,0,0,0,3.21,2.39,9.66,9.66,0,0,0,4.14.16,12.72,12.72,0,0,0,3.9-1.35,13.07,13.07,0,0,0,3.27-2.51,9.81,9.81,0,0,0,2.12-3.54,5.12,5.12,0,0,0-.27-4l-11-20.13,6.81-3.67Z"/><path class="cls-1" d="M128.25,428.09a8.59,8.59,0,0,1,2,5.19,14.38,14.38,0,0,1-.85,5.58,20.57,20.57,0,0,1-2.64,5,23.62,23.62,0,0,1-3.88,4.18,24.38,24.38,0,0,1-6.47,3.92,16.83,16.83,0,0,1-7.47,1.25,9.76,9.76,0,0,1-6.7-3.13L89.18,434.76a9.5,9.5,0,0,1-2.09-7.07,16,16,0,0,1,2.49-7.12,25.73,25.73,0,0,1,5-5.7,24.65,24.65,0,0,1,6.46-3.94,16.82,16.82,0,0,1,7.47-1.3,9.53,9.53,0,0,1,6.68,3.16l.71.83,11.64,13.64Zm-21.37,15.49a5.28,5.28,0,0,0,3.63,1.73,8.91,8.91,0,0,0,4.08-.69,13.88,13.88,0,0,0,3.54-2.16,13,13,0,0,0,2.68-3.13,9.75,9.75,0,0,0,1.34-3.89,5.1,5.1,0,0,0-1.08-3.85l-10.63-12.45a5.16,5.16,0,0,0-3.64-1.68,9.57,9.57,0,0,0-4.07.68,12.6,12.6,0,0,0-3.54,2.13,13.34,13.34,0,0,0-2.72,3.12,8.88,8.88,0,0,0-1.35,3.89,5.27,5.27,0,0,0,1.13,3.85Z"/><path class="cls-1" d="M150.08,446.2a11.77,11.77,0,0,1,2.74,2.93,14.35,14.35,0,0,1,1.76,3.84c0,.27.09.55.16.84.27,0,.56-.06.86-.08a14.29,14.29,0,0,1,4.19.63,11.35,11.35,0,0,1,6.28,4.71,13.13,13.13,0,0,1,1.72,3.84,12.69,12.69,0,0,1,.32,4.75,10.15,10.15,0,0,1-2.15,5.08L151.44,491.9l-6.23-4.67,14.24-18.79a4.82,4.82,0,0,0,1-2.18,5.1,5.1,0,0,0,0-1.88,4.43,4.43,0,0,0-.57-1.44,3.81,3.81,0,0,0-.95-1,3.73,3.73,0,0,0-1.25-.61,4.61,4.61,0,0,0-1.52-.14,5.4,5.4,0,0,0-1.83.51,5.16,5.16,0,0,0-1.87,1.51L138.19,482,132,477.29l14.24-18.79a4.84,4.84,0,0,0,1-2.18,5.33,5.33,0,0,0,0-1.88,4.23,4.23,0,0,0-.58-1.44,3.8,3.8,0,0,0-1-1,3.68,3.68,0,0,0-1.24-.61,4.69,4.69,0,0,0-1.53-.14,5.35,5.35,0,0,0-1.82.51,5.27,5.27,0,0,0-1.88,1.51L124.93,472l-6.18-4.64,14.51-19.16a11.17,11.17,0,0,1,4.4-3.4,12.34,12.34,0,0,1,4.67-1,14.05,14.05,0,0,1,4.21.61A11.55,11.55,0,0,1,150.08,446.2Z"/><path class="cls-1" d="M180.43,492.26l10.95,5.09.45-4.49c.11-1.68.2-3.28.25-4.8a23.41,23.41,0,0,0-.23-4.33,3.23,3.23,0,0,0-1.37-2.67,3.42,3.42,0,0,0-3,.62,25.8,25.8,0,0,0-3.44,2.63q-1.71,1.51-3.55,3.27l-13,12.88-7.76-3.61,16.4-15.62a60.89,60.89,0,0,1,9.26-7.19,9.29,9.29,0,0,1,13.81,6.39,56.68,56.68,0,0,1,.35,11.69l-1.47,22.56-8-3.7.53-5.47-13.47-6.26Z"/><path class="cls-1" d="M214.57,519.34,207,517.53l7.08-29.43a3.71,3.71,0,0,1,1.8-2.32,4,4,0,0,1,2.95-.39l2.76.65,6.92,1.65L242.38,491a4.2,4.2,0,0,1,.66.21l.34.09a12.37,12.37,0,0,1,6,3.33,11,11,0,0,1,2.73,4.7,9.58,9.58,0,0,1,.08,4.6,9.78,9.78,0,0,1-2.15,4.13,10.58,10.58,0,0,1-4.58,3,12.68,12.68,0,0,1-6.93.24l-9.9-2.36a7.34,7.34,0,0,0,.86,4.59,4.79,4.79,0,0,0,3.11,2.16l15.3,3.64-1.8,7.5-16.31-3.89a10.56,10.56,0,0,1-6.76-5,14.13,14.13,0,0,1-2.22-8.81q.19-5.28.35-5.89a3.83,3.83,0,0,1,4.67-2.85l14.84,3.53a3.82,3.82,0,0,0,1.89-.05,3.14,3.14,0,0,0,1.27-.7,2.09,2.09,0,0,0,.6-1,2.18,2.18,0,0,0-.07-1.18,3.19,3.19,0,0,0-.82-1.19,3.83,3.83,0,0,0-1.65-.9l-15.25-3.63-4.5-1.07a1.36,1.36,0,0,0-1.81,1.1Z"/><path class="cls-1" d="M275.79,530a25.56,25.56,0,0,1-11.41-3.09,16,16,0,0,1-4.57-3.75,8.4,8.4,0,0,1-2-5.42l.07-2.41.69-21.34,7.75.25-.71,22a4.32,4.32,0,0,0,1.26,3,9.67,9.67,0,0,0,2.72,2,15.71,15.71,0,0,0,3.14,1.14,16.21,16.21,0,0,0,6.65.21,15.38,15.38,0,0,0,3.21-.94,9.83,9.83,0,0,0,2.84-1.78,4.33,4.33,0,0,0,1.45-2.91l.71-22,7.8.25-.69,21.33-.07,2.42a8.46,8.46,0,0,1-2.4,5.27,16.51,16.51,0,0,1-4.83,3.45A25.43,25.43,0,0,1,275.79,530Z"/><path class="cls-1" d="M360.09,501.49a10.73,10.73,0,0,1,2.23,4.24,9.85,9.85,0,0,1,0,4.71,10.76,10.76,0,0,1-2.63,4.84,11.61,11.61,0,0,1-6,3.35l-.34.09a4.67,4.67,0,0,1-.66.23l-22.51,5.78a3.81,3.81,0,0,1-2.83-.43,3.77,3.77,0,0,1-1.75-2.26L319,496.53a3.71,3.71,0,0,1,.43-2.81,3.79,3.79,0,0,1,2.27-1.75L341,487a5.22,5.22,0,0,1,.69-.11l.33-.09a12.6,12.6,0,0,1,6.91.13,10.92,10.92,0,0,1,4.63,2.88,9.71,9.71,0,0,1,2.24,4,10,10,0,0,1,.06,4.62.77.77,0,0,1-.07.2A10.78,10.78,0,0,1,360.09,501.49Zm-12.86-3.29A3.08,3.08,0,0,0,348,497a2,2,0,0,0-.57-2.17,2.94,2.94,0,0,0-1.28-.68,4,4,0,0,0-1.89,0L329.14,498a1.4,1.4,0,0,0-1.17,1.91l.91,3.51,16.68-4.29A3.94,3.94,0,0,0,347.23,498.2Zm4.91,12.94a3,3,0,0,0,1.66-.85,3.08,3.08,0,0,0,.77-1.29,2.46,2.46,0,0,0,0-1.29,2.79,2.79,0,0,0-.61-1,3,3,0,0,0-1.34-.87,3.61,3.61,0,0,0-1.89,0l-3.58.92-16.35,4.2,1,3.84a1.41,1.41,0,0,0,2,1.11l.45-.12Z"/><path class="cls-1" d="M392.88,504.8a26.18,26.18,0,0,1-5.63,2,25,25,0,0,1-5.91.62,16.13,16.13,0,0,1-5.8-1.17,8.55,8.55,0,0,1-4.35-3.83l-1.07-2.17-9.48-19.15,6.95-3.41,9.76,19.72a4.35,4.35,0,0,0,2.54,2.06,10.17,10.17,0,0,0,3.32.46,15.75,15.75,0,0,0,6.45-1.63,16.34,16.34,0,0,0,2.83-1.77,15.43,15.43,0,0,0,2.39-2.32,9.94,9.94,0,0,0,1.66-2.9,4.34,4.34,0,0,0-.1-3.26l-9.76-19.71,7-3.44L403.17,484l1.07,2.17a8.43,8.43,0,0,1,.38,5.78,16.55,16.55,0,0,1-2.63,5.3,25.43,25.43,0,0,1-9.11,7.51Z"/><path class="cls-1" d="M398.12,462.82l31.34-24.95,4.84,6-12.6,10,16.51,20.54-6.1,4.85L415.6,458.77,403,468.84Z"/><path class="cls-1" d="M458.12,438.06l7.87-9.12-4.22-1.64q-2.4-.84-4.59-1.53a23.89,23.89,0,0,0-4.26-.94,3.25,3.25,0,0,0-2.95.59,3.38,3.38,0,0,0-.21,3.07,25.81,25.81,0,0,0,1.62,4c.68,1.37,1.41,2.79,2.21,4.28l9,15.93L457,459.16l-10.71-19.92a59.63,59.63,0,0,1-4.47-10.8,8.6,8.6,0,0,1,1.95-8.34,8.75,8.75,0,0,1,7.95-3.18,58.67,58.67,0,0,1,11.42,2.81l21.44,7.48-5.72,6.63-5.16-2L464,443.09Z"/><path class="cls-1" d="M482.4,416.2l7.06-12.43-16.21-9.11-7.06,12.42-6.75-3.8,17.93-31.55,6.75,3.79-7,12.37L493.3,397l7-12.37,6.75,3.8L489.15,420Z"/><path class="cls-2" d="M374.29,144.4c-14.42-5.64-27.43-11.78-41.06-15.88-69.34-20.85-138,21-151.22,91.82a87.88,87.88,0,0,0,4.08,48c2.25,6,5,7.31,11.17,5.6A52.44,52.44,0,0,1,240,368.45a52.82,52.82,0,0,1-62.2-3.39c-24.2-19.51-35.88-45.94-41.32-75.43-6.53-35.46-2.72-69.62,16.42-101,14.05-23,35.07-38.37,59-49.91,43.25-20.88,87.73-26.23,133.61-9a194.05,194.05,0,0,1,18.34,8.53C367.11,139.86,370.17,141.94,374.29,144.4Z"/><path class="cls-2" d="M321,370.78c-13.44-11.11-21.09-23.64-22.28-39.83-2-27.8,20.58-54,48.3-55.5,30.5-1.69,56.56,21.11,57.18,50.16.45,21.37-7.81,39.94-20.26,56.57-26.47,35.33-61.31,57.37-105.78,62.8-30.91,3.77-58.6-5.79-84.25-22-40.74-25.78-69.06-60.86-78.27-108.89-2.82-14.69-2.49-30-3.6-45l1.72-.12c1.14,13.19,1.34,26.54,3.6,39.53,7.52,43.36,29,77.35,71.24,94.22,40.77,16.29,80.29,13,115.93-14.52C310.62,383.48,315.25,377,321,370.78Z"/><path class="cls-2" d="M359.46,437c14-11.94,29.33-22.63,41.7-36,55.46-60.15,31-141.79-22.63-176.58a85.1,85.1,0,0,0-35.15-13.26c-4.91-.67-6.7.66-7.81,5.64C330.77,238.27,312,255,291.11,257c-24.09,2.36-45.8-9.48-55.24-30.13a52.06,52.06,0,0,1,27.79-69.86c28.16-11.6,56.5-9.18,84.36.25,41.23,13.94,73.69,38.62,90,80.15,12.25,31.2,10.7,63.44,2.63,95.34-11.37,44.91-36.69,79.54-78.17,101.7-1.28.69-2.6,1.32-3.9,2Z"/></g></svg>