<?xml version="1.0" encoding="UTF-8"?><svg id="Capa_1" xmlns="http://www.w3.org/2000/svg" viewBox="0 0 566.93 566.93"><defs><style>.cls-1{fill:#45607c;}.cls-1,.cls-2,.cls-3,.cls-4,.cls-5{stroke-width:0px;}.cls-6{font-family:Tahoma-Bold, Tahoma;font-size:38.71px;font-weight:700;}.cls-6,.cls-2{fill:#fff;}.cls-3{fill:#35495e;}.cls-4{fill:#005470;}.cls-5{fill:#d7282f;}</style></defs><circle class="cls-2" cx="283.46" cy="283.46" r="274.74"/><path class="cls-4" d="m283.46,562.68c-74.58,0-144.7-29.04-197.43-81.78C33.3,428.16,4.25,358.04,4.25,283.46s29.04-144.7,81.78-197.43C138.77,33.3,208.88,4.25,283.46,4.25s144.7,29.04,197.43,81.78c52.74,52.74,81.78,122.85,81.78,197.43s-29.04,144.7-81.78,197.43c-52.74,52.74-122.85,81.78-197.43,81.78Zm0-549.48C134.44,13.2,13.2,134.44,13.2,283.46s121.24,270.27,270.27,270.27,270.27-121.24,270.27-270.27S432.49,13.2,283.46,13.2Z"/><path class="cls-5" d="m283.46,496.48l-24.79,11.12c-8,3.59-16.67,4.95-25.36,4.03-36.1-3.82-52.35-4.39-88.71-17.49,35.9,3.03,75.94-1.37,126.18-21.9,1.4-.58,2.75-1.14,4.03-1.68,1.26-.6,2.46-1.17,3.56-1.7,2.57-1.25,4.13-2,5.1-2.48.97.47,2.53,1.23,5.1,2.48,1.1.53,2.3,1.1,3.56,1.7,1.28.53,2.63,1.1,4.03,1.68,50.23,20.53,90.28,24.93,126.18,21.9-37.24,13.42-53.4,13.69-91.38,17.77-6.88.74-13.85-.35-20.18-3.19l-27.3-12.24Z"/><path class="cls-5" d="m250.32,468.97c-21.82,11.43-41.16,16.77-65.78,20.29-12.69-2.42-32.04-8.4-53.27-18.46l-2.47-1.18c-.83-.38-1.61-.84-2.41-1.26-15.64-8.39-27.92-15.8-45.02-29.99,18.93,8.72,48.46,20.62,107.88,23.15,9.69.37,20.8.36,30.36-.93,5.2,1.79,15.32,5.58,30.7,8.37Z"/><path class="cls-5" d="m316.61,468.97c21.82,11.43,41.16,16.77,65.78,20.29,12.69-2.42,32.04-8.4,53.27-18.46l2.47-1.18c.83-.38,1.61-.84,2.41-1.26,15.64-8.39,27.92-15.8,45.02-29.99-18.93,8.72-48.46,20.62-107.88,23.15-9.69.37-20.8.36-30.36-.93-5.2,1.79-15.32,5.58-30.7,8.37Z"/><path class="cls-5" d="m187.64,445.5s-.99.12-2.73.32c-.43.05-.92.11-1.45.16-.52.04-1.08.08-1.68.12-1.22.08-2.59.17-4.08.27-1.52.08-3.18.17-4.92.26-.89.06-1.77.05-2.69.06-.92,0-1.86,0-2.82,0-16.88-.03-32.87-2.09-46.49-5.52-31.81-21.09-56.85-45.75-78.24-82.28,32.41,32.19,78.83,56.44,118.95,67.94,1.08.96-.55-.4,7.92,6.41,1.53,1.11,3.16,2.29,4.78,3.46.81.59,1.63,1.18,2.43,1.77.8.59,1.64,1.08,2.42,1.61,1.58,1.03,3.05,1.99,4.31,2.82.63.41,1.2.8,1.72,1.12.53.31.99.58,1.37.8.76.44,1.19.7,1.19.7Z"/><path class="cls-5" d="m379.29,445.5s.99.12,2.73.32c.43.05.92.11,1.45.16.52.04,1.08.08,1.68.12,1.22.08,2.59.17,4.08.27,1.52.08,3.18.17,4.92.26.89.06,1.77.05,2.69.06.92,0,1.86,0,2.82,0,16.88-.03,32.87-2.09,46.49-5.52,31.81-21.09,56.85-45.75,78.24-82.28-32.41,32.19-78.83,56.44-118.95,67.94-1.08.96.55-.4-7.92,6.41-1.53,1.11-3.16,2.29-4.78,3.46-.81.59-1.63,1.18-2.43,1.77-.8.59-1.64,1.08-2.42,1.61-1.58,1.03-3.05,1.99-4.31,2.82-.63.41-1.2.8-1.72,1.12-.53.31-.99.58-1.37.8-.76.44-1.19.7-1.19.7Z"/><path class="cls-5" d="m136.44,401.55c-18.38-4.45-40.89-14.38-59.57-27.1-21.75-29.46-37.64-62.89-44.69-102.65,20.98,44.95,64.68,87.47,85.89,103,4.33,7.7,12.4,19.75,18.37,26.75Z"/><path class="cls-5" d="m430.49,401.55c18.38-4.45,40.89-14.38,59.57-27.1,21.75-29.46,37.64-62.89,44.69-102.65-20.98,44.95-64.68,87.47-85.89,103-4.33,7.7-12.4,19.75-18.37,26.75Z"/><path class="cls-5" d="m102.96,342.42c-16.44-12.11-31.7-26.24-45.21-45.45-11.47-39.87-12.89-78.18-7.22-109.86,3.43,39.62,27.46,98.08,44.14,123.7,2.74,15.71,6.42,25.97,8.28,31.61Z"/><path class="cls-5" d="m463.97,342.42c16.44-12.11,31.7-26.24,45.21-45.45,11.47-39.87,12.89-78.18,7.22-109.86-3.43,39.62-27.46,98.08-44.14,123.7-2.74,15.71-6.42,25.97-8.28,31.61Z"/><path class="cls-5" d="m91.34,275.11c-12.38-19.33-18.74-32.8-26.13-57.16.89-29.01,11.08-70.14,29.94-103.49-9.85,37.22-7.56,97.62-1.05,127.88-2.13,12.04-2.49,22.46-2.76,32.76Z"/><path class="cls-5" d="m475.59,275.11c12.38-19.33,18.74-32.8,26.13-57.16-.89-29.01-11.08-70.14-29.94-103.49,9.85,37.22,7.56,97.62,1.05,127.88,2.13,12.04,2.49,22.46,2.76,32.76Z"/><path class="cls-5" d="m102.84,207.71c-3.88-13.76-6.66-44.94-4.56-61.12,5.96-13.16,22.66-51.47,61.84-84.81-19.26,28.07-38.71,82.13-43.65,116.07-7.28,12.88-13.15,27.99-13.63,29.86Z"/><path class="cls-5" d="m464.09,207.71c3.88-13.76,6.66-44.94,4.56-61.12-5.96-13.16-22.66-51.47-61.84-84.81,19.26,28.07,38.71,82.13,43.65,116.07,7.28,12.88,13.15,27.99,13.63,29.86Z"/><path class="cls-5" d="m136.33,148.37c3.22-22.88,9.72-43.39,16.32-57.23,26.92-27.71,56.67-46.4,85.06-56.63-27.59,19.41-65.46,66.08-78.51,90.39-9.94,8.77-14.39,13.5-22.87,23.47Z"/><path class="cls-5" d="m430.6,148.37c-3.22-22.88-9.72-43.39-16.32-57.23-26.92-27.71-56.67-46.4-85.06-56.63,27.59,19.41,65.46,66.08,78.5,90.39,9.94,8.77,14.39,13.5,22.87,23.47Z"/><path class="cls-5" d="m187.69,104.1c11.05-6.49,17.62-9.47,29.37-14.2,8.66-7.65,37.09-37.86,66.4-52.54-16.51,3.71-45.67,12.79-61.74,20.4-13.46,13.48-24.7,28.78-34.03,46.33Z"/><path class="cls-5" d="m379.24,104.1c-11.05-6.49-17.62-9.47-29.37-14.2-8.66-7.65-37.09-37.86-66.4-52.54,16.51,3.71,45.67,12.79,61.74,20.4,13.46,13.48,24.7,28.78,34.03,46.33Z"/><path class="cls-5" d="m283.46,77.21c-.07.02-.13.05-.2.07-12.15.32-20.29.85-32.51,3.09,10.08-8.84,22.45-17.2,32.71-23.12,10.26,5.92,22.63,14.27,32.71,23.12-12.22-2.23-20.36-2.77-32.51-3.09-.07-.02-.13-.05-.2-.07Z"/><polygon class="cls-3" points="281.88 280.89 203.53 389.63 204.06 389.71 282.11 549.91 282.58 548.95 282.25 281.41 281.88 280.89"/><polygon class="cls-1" points="282.25 281.41 282.58 548.95 359.89 390.27 282.25 281.41"/><polygon class="cls-4" points="282.15 280.51 282.25 280.54 282.25 280.38 282.15 280.51"/><polygon class="cls-3" points="408.52 238.64 438.06 64.13 282.25 280.38 282.25 280.54 282.32 280.57 408.52 238.64"/><polygon class="cls-4" points="282.05 280.66 281.88 280.89 282.25 281.41 282.25 280.59 282.05 280.66"/><polygon class="cls-3" points="534.24 363.57 282.32 280.57 282.25 280.59 282.25 281.41 359.89 390.27 360.16 389.71 534.69 364.02 534.24 363.57"/><polygon class="cls-4" points="282.32 280.57 282.25 280.54 282.25 280.59 282.32 280.57"/><polygon class="cls-4" points="282.05 280.66 282.25 280.59 282.25 280.54 282.15 280.51 282.05 280.66"/><polygon class="cls-3" points="282.29 281 156.16 239.45 156.24 239.91 29.52 365.02 30.64 365.19 282.62 281.47 282.29 281"/><polygon class="cls-1" points="30.64 364.18 203.53 389.63 281.88 280.89 281.78 280.75 30.64 364.18"/><polygon class="cls-3" points="127.4 63.81 282.29 281 283 281.24 283.09 281.1 282.93 146.64 127.4 63.81"/><polygon class="cls-1" points="408.4 239.32 408.52 238.64 282.32 280.57 534.24 363.57 408.4 239.32"/><polygon class="cls-1" points="281.45 280.28 127.07 63.81 126 63.24 155.74 238.86 281.45 280.28"/><polygon class="cls-1" points="439.58 63.24 282.95 146.65 282.93 146.64 283.09 281.1 439.43 64.14 439.58 63.24"/><polygon class="cls-4" points="281.78 280.75 282.05 280.66 282.15 280.51 281.45 280.28 281.78 280.75"/><polygon class="cls-4" points="282.05 280.66 281.78 280.75 281.88 280.89 282.05 280.66"/><ellipse class="cls-2" cx="281.48" cy="273.52" rx="178.9" ry="176.04"/><path class="cls-5" d="m281.48,103.36c-93.98,0-170.16,76.18-170.16,170.16s76.18,170.16,170.16,170.16,170.16-76.18,170.16-170.16-76.18-170.16-170.16-170.16Zm0,294.26c-69.65,0-126.12-55.56-126.12-124.1s56.46-124.1,126.12-124.1,126.12,55.56,126.12,124.1-56.46,124.1-126.12,124.1Z"/><path class="cls-3" d="m281.48,455.03c-48.48,0-94.06-18.88-128.34-53.16-34.28-34.28-53.16-79.86-53.16-128.34s18.88-94.06,53.16-128.34c34.28-34.28,79.86-53.16,128.34-53.16s94.06,18.88,128.34,53.16c34.28,34.28,53.16,79.86,53.16,128.34s-18.88,94.06-53.16,128.34c-34.28,34.28-79.86,53.16-128.34,53.16Zm0-358.89c-97.81,0-177.38,79.57-177.38,177.38s79.57,177.38,177.38,177.38,177.38-79.57,177.38-177.38-79.57-177.38-177.38-177.38Z"/><text class="cls-6" transform="translate(168.8 204.17) rotate(-53.47)"><tspan x="0" y="0">E</tspan></text><text class="cls-6" transform="translate(182.21 185.78) rotate(-43.54)"><tspan x="0" y="0">P</tspan></text><text class="cls-6" transform="translate(199.81 168.98) rotate(-33.39)"><tspan x="0" y="0">S</tspan></text><text class="cls-6" transform="translate(219.54 156.14) rotate(-24.6)"><tspan x="0" y="0">I</tspan></text><text class="cls-6" transform="translate(235.64 148.56) rotate(-16.29)"><tspan x="0" y="0">L</tspan></text><text class="cls-6" transform="translate(255.7 142.21) rotate(-5.66)"><tspan x="0" y="0">O</tspan></text><text class="cls-6" transform="translate(284.06 139.25) rotate(6.73)"><tspan x="0" y="0">N</tspan></text><text class="cls-6" transform="translate(312.63 143.25) rotate(15.4)"><tspan x="0" y="0"> </tspan></text><text class="cls-6" transform="translate(322.88 145.35) rotate(23.81)"><tspan x="0" y="0">U</tspan></text><text class="cls-6" transform="translate(347.95 156.2) rotate(35.96)"><tspan x="0" y="0">N</tspan></text><text class="cls-6" transform="translate(370.95 173.37) rotate(46.17)"><tspan x="0" y="0">I</tspan></text><text class="cls-6" transform="translate(383.42 185.96) rotate(55.1)"><tspan x="0" y="0">T</tspan></text><path class="cls-3" d="m351.42,345.09c-3.51,1.23-7.94,2.75-13.3,4.55-5.36,1.8-10.41,3.18-15.15,4.13-6.07,1.23-11.64,2.16-16.71,2.77-5.07.61-12.02.92-20.84.92-9.67,0-18.99-.81-27.95-2.42-8.96-1.61-16.9-4.27-23.82-7.97-6.92-3.79-12.42-8.68-16.5-14.65-4.08-5.97-6.11-13.46-6.11-22.47,0-10.43,2.94-18.87,8.82-25.32,5.88-6.45,13.46-11.23,22.76-14.36v-1c-8.15-2.47-14.6-6.83-19.34-13.09-4.74-6.26-7.11-13.7-7.11-22.33s2.08-15.22,6.26-20.91c4.17-5.69,9.76-10.38,16.78-14.08,6.07-3.22,13.61-5.71,22.61-7.47,9.01-1.75,18.25-2.63,27.73-2.63,12.23,0,23.13,1.09,32.71,3.27,9.57,2.18,17.35,4.17,23.33,5.97v37.83h-5.26c-4.36-2.27-10.48-4.74-18.35-7.4-7.87-2.65-16.03-3.98-24.46-3.98-3.98,0-7.49.19-10.52.57-3.04.38-6.26,1.19-9.67,2.42-2.94,1.14-5.36,2.73-7.25,4.77-1.9,2.04-2.84,4.58-2.84,7.61,0,3.98,1.14,7.04,3.41,9.17,2.28,2.13,5.17,3.58,8.68,4.34,3.79.85,7.75,1.31,11.88,1.35,4.12.05,8.51.07,13.16.07h13.23v32.14h-19.34c-5.69,0-10.41.1-14.15.28-3.75.19-7.56.9-11.45,2.13-3.22,1.05-5.78,2.8-7.68,5.26-1.9,2.47-2.84,5.64-2.84,9.53,0,3.51,1.09,6.42,3.27,8.75,2.18,2.32,5.02,4.1,8.53,5.33,3.32,1.33,7.11,2.25,11.38,2.77,4.27.52,8.39.78,12.37.78,8.53,0,17.35-1.49,26.45-4.48,9.1-2.99,16.45-6.42,22.04-10.31h5.26v38.12Z"/><polygon class="cls-3" points="421.31 349.35 495.93 387.47 453.73 398.41 469.63 439.01 357.78 381.94 421.31 349.35"/><path class="cls-2" d="m472.46,442.14l-117.98-60.21,66.83-34.27.68.35,78.14,39.91-44.39,11.51,16.72,42.7Zm-111.39-60.21l105.71,53.95-15.08-38.49,40.02-10.38-70.42-35.97-60.24,30.9Z"/><polygon class="cls-3" points="143.88 349.35 69.27 387.47 111.48 398.41 95.58 439.01 207.42 381.94 143.88 349.35"/><path class="cls-2" d="m92.74,442.14l16.73-42.7-44.39-11.51,78.81-40.26.68.35,66.15,33.92-117.98,60.21Zm-19.27-55.14l40.02,10.38-15.08,38.49,105.71-53.95-60.25-30.9-70.41,35.97Z"/><polygon class="cls-3" points="320.06 472.5 245.12 472.5 346.44 349.35 421.31 349.35 320.06 472.5"/><path class="cls-2" d="m320.77,474h-78.83l103.79-126.14h78.76l-103.72,126.14Zm-72.47-3h71.05l98.79-120.14h-70.99l-98.85,120.14Z"/><polygon class="cls-1" points="218.74 349.35 143.88 349.35 245.12 472.5 320.06 472.5 218.74 349.35"/><path class="cls-2" d="m323.24,474h-78.83l-103.71-126.14h78.75l103.79,126.14Zm-77.41-3h71.06l-98.85-120.14h-70.98l98.77,120.14Z"/><path class="cls-2" d="m188.82,373.65c-1.04-1.36-1.83-2.64-2.37-3.86-.54-1.22-.96-2.41-1.27-3.58l4.01-3.08.31.4c-.04,1.44.17,2.84.6,4.21.44,1.37,1.04,2.55,1.82,3.56.19.25.48.57.85.94.37.38.71.65,1.02.81.37.21.75.34,1.14.37.39.04.78-.09,1.16-.38.42-.32.63-.76.63-1.31,0-.55-.13-1.12-.38-1.69-.31-.72-.66-1.47-1.05-2.26-.39-.79-.72-1.56-.98-2.3-.59-1.73-.73-3.19-.41-4.38s1.07-2.24,2.24-3.14c1.58-1.21,3.39-1.49,5.45-.84s3.89,2.03,5.5,4.14c.81,1.06,1.51,2.18,2.11,3.38.6,1.2,1.04,2.35,1.32,3.44l-3.85,2.96-.3-.39c.03-1.07-.13-2.22-.49-3.45-.36-1.23-.92-2.35-1.69-3.35-.3-.39-.59-.72-.88-.99-.29-.27-.64-.52-1.05-.74-.33-.19-.7-.29-1.09-.31s-.74.08-1.03.31c-.43.33-.65.75-.65,1.27,0,.52.24,1.31.74,2.39.33.69.64,1.36.95,2.01.3.64.59,1.36.86,2.15.52,1.55.66,2.9.4,4.05-.25,1.15-.97,2.17-2.14,3.07-1.68,1.29-3.56,1.63-5.64,1.03-2.08-.6-4.03-2.08-5.84-4.44Z"/><path class="cls-2" d="m196.77,383.38l16.86-12.94,9.2,11.99-3.22,2.47-5.8-7.56-2.96,2.27,5.34,6.96-3.22,2.47-5.34-6.96-4.26,3.27,5.8,7.56-3.22,2.47-9.2-11.99Z"/><path class="cls-2" d="m222.18,416.48l-3.4-4.43,11.18-8.58-9.69,2.31-2.33-3.04,4.74-8.76-11.18,8.58-3.22-4.19,16.86-12.94,3.94,5.13-5.31,10.32,11.33-2.47,3.94,5.13-16.86,12.94Z"/><path class="cls-2" d="m247,424.93c-.79.6-1.63,1.05-2.54,1.33-.91.28-1.79.36-2.65.23-.53-.08-1.05-.2-1.58-.37-.53-.17-1.04-.41-1.55-.71-.51-.3-1.01-.67-1.5-1.11-.49-.44-.98-.97-1.47-1.61l-1.79-2.33-5.52,4.23-3.42-4.45,16.86-12.94,5.28,6.88c.79,1.02,1.37,1.97,1.77,2.85.39.88.63,1.77.7,2.67.09.99-.08,1.94-.51,2.85-.43.91-1.13,1.73-2.1,2.48Zm-3.61-4.49c.48-.37.79-.8.95-1.3.16-.5.18-.97.05-1.4-.15-.55-.36-1.03-.63-1.44-.27-.41-.66-.94-1.16-1.6l-.48-.63-5.05,3.88.24.31c.32.42.63.81.92,1.18.29.37.57.67.83.92.22.21.49.4.8.59.31.18.59.29.84.33.51.09.96.07,1.34-.06.38-.12.83-.38,1.35-.78Z"/><path class="cls-2" d="m237.29,436.16l16.86-12.94,9.2,11.99-3.22,2.47-5.8-7.56-2.96,2.27,5.34,6.96-3.22,2.47-5.34-6.96-4.26,3.27,5.8,7.56-3.22,2.47-9.2-11.99Z"/><path class="cls-2" d="m261.38,467.55l-4.17-5.43,2.39-9.69-1.22-1.59-6.18,4.75-3.4-4.43,16.86-12.94,5.47,7.13c.76.98,1.35,1.89,1.8,2.71.44.82.72,1.68.82,2.58.1.93,0,1.81-.31,2.64-.31.83-.92,1.59-1.83,2.29-1.29.99-2.57,1.49-3.85,1.5-1.27,0-2.54-.32-3.8-.98l-2.59,11.47Zm6.2-16.14c.42-.32.72-.69.9-1.09.17-.41.19-.87.05-1.39-.1-.36-.27-.73-.5-1.09-.23-.36-.54-.8-.93-1.31l-1.14-1.49-4.54,3.49.98,1.27c.48.62.91,1.12,1.32,1.49.4.38.84.63,1.3.75.43.12.85.14,1.25.05s.84-.31,1.32-.68Z"/><path class="cls-2" d="m311.4,452.88l-9.95-17.49,3.57-4.13,18.75,7.3-3.37,3.9-3.74-1.59-4.09,4.74,2.12,3.47-3.28,3.8Zm1.94-13.43l-6.06-2.55,3.4,5.63,2.66-3.08Z"/><path class="cls-2" d="m325.06,437.05l-14.35-12.4,8.81-10.2,2.74,2.36-5.56,6.43,2.52,2.17,5.12-5.93,2.74,2.36-5.12,5.93,3.62,3.13,5.56-6.43,2.74,2.36-8.81,10.2Z"/><path class="cls-2" d="m351.73,413.85c-.25.49-.53.96-.84,1.4-.31.45-.84,1.11-1.59,1.98-.69.8-1.37,1.39-2.04,1.79s-1.34.63-2.01.7c-.66.08-1.31,0-1.94-.21-.63-.22-1.23-.55-1.79-.99-1.93,2.06-4.09,3.13-6.46,3.22s-4.68-.83-6.91-2.76-3.57-4.22-3.79-6.67c-.22-2.45.65-4.82,2.62-7.09,1.96-2.27,4.17-3.48,6.63-3.63,2.46-.15,4.85.77,7.17,2.78,1.69,1.46,2.82,3.08,3.39,4.87.57,1.79.53,3.57-.13,5.36.71.59,1.34.85,1.87.76.54-.08,1.15-.52,1.83-1.31.26-.3.5-.66.71-1.08.21-.42.34-.73.39-.95l.32-.37,2.56,2.21Zm-11.57-1.43c-.14-.68-.41-1.36-.81-2.01-.4-.66-1.06-1.37-1.96-2.15s-1.66-1.27-2.42-1.61c-.76-.33-1.47-.51-2.12-.53-.67-.01-1.27.11-1.79.37-.52.26-.97.61-1.35,1.05-.4.47-.69.96-.86,1.47-.17.51-.2,1.12-.1,1.82.1.63.38,1.31.83,2.04.45.73,1.1,1.46,1.96,2.2s1.69,1.3,2.43,1.62,1.44.49,2.11.51c.68.02,1.28-.1,1.81-.37.53-.26.98-.62,1.36-1.06s.67-.96.85-1.53c.18-.58.21-1.18.08-1.82Z"/><path class="cls-2" d="m355.45,402.47c-1.75,2.03-3.56,3.18-5.44,3.47-1.87.29-3.71-.35-5.5-1.89l-9.17-7.92,3.27-3.79,8.95,7.73c1,.86,1.91,1.3,2.74,1.33.83.03,1.63-.41,2.4-1.3s1.07-1.71.95-2.53c-.12-.81-.69-1.67-1.73-2.56l-8.95-7.73,3.27-3.79,9.16,7.91c1.77,1.53,2.67,3.23,2.69,5.11.03,1.88-.86,3.87-2.66,5.95Z"/><path class="cls-2" d="m368.69,387.14c-1.75,2.03-3.56,3.18-5.44,3.47-1.87.29-3.71-.35-5.5-1.89l-9.17-7.92,3.27-3.79,8.95,7.73c1,.86,1.91,1.3,2.74,1.33.83.03,1.63-.41,2.4-1.3s1.07-1.71.95-2.53c-.12-.81-.69-1.67-1.73-2.56l-8.95-7.73,3.27-3.79,9.16,7.91c1.77,1.53,2.67,3.23,2.69,5.11.03,1.88-.86,3.87-2.66,5.95Z"/><path class="cls-2" d="m380.64,373.22c-1,1.15-1.98,2.08-2.95,2.77-.97.69-1.93,1.28-2.89,1.75l-3.41-2.95.3-.34c1.26-.23,2.45-.66,3.57-1.29,1.12-.63,2.04-1.37,2.78-2.23.19-.22.41-.52.67-.91.26-.39.44-.74.53-1.04.12-.36.16-.71.12-1.06-.04-.35-.22-.67-.54-.94-.36-.31-.78-.41-1.26-.31-.48.1-.95.32-1.41.64-.57.4-1.17.85-1.79,1.33-.62.48-1.23.91-1.84,1.27-1.4.83-2.65,1.21-3.75,1.15s-2.15-.53-3.14-1.39c-1.34-1.16-1.91-2.7-1.71-4.61s1.07-3.77,2.62-5.56c.78-.9,1.63-1.72,2.57-2.45.94-.74,1.86-1.33,2.76-1.78l3.28,2.83-.29.33c-.94.17-1.92.52-2.93,1.05-1.01.54-1.89,1.23-2.62,2.08-.29.33-.52.65-.7.95-.18.3-.34.65-.46,1.06-.1.33-.12.66-.07,1.01s.21.63.46.85c.37.32.77.43,1.23.34.45-.09,1.1-.45,1.95-1.08.55-.41,1.07-.81,1.58-1.19.51-.38,1.08-.76,1.72-1.14,1.26-.74,2.42-1.1,3.47-1.08,1.05.01,2.07.45,3.07,1.31,1.43,1.23,2.06,2.81,1.91,4.74-.15,1.93-1.09,3.89-2.82,5.9Z"/></svg>