<?xml version="1.0" encoding="utf-8"?>
<!-- Generator: Adobe Illustrator 24.1.1, SVG Export Plug-In . SVG Version: 6.00 Build 0)  -->
<svg version="1.1" id="Capa_1" xmlns="http://www.w3.org/2000/svg" xmlns:xlink="http://www.w3.org/1999/xlink" x="0px" y="0px"
	 viewBox="0 0 566.9 566.9" style="enable-background:new 0 0 566.9 566.9;" xml:space="preserve">
<style type="text/css">
	.st0{fill:#1D1D1B;}
	.st1{fill:#F5CB24;}
	.st2{fill:#BD2529;}
	.st3{enable-background:new    ;}
	.st4{fill:#FFFFFF;}
	.st5{fill:none;stroke:#000000;stroke-width:1.48;stroke-miterlimit:10;}
	.st6{fill:none;stroke:#000000;stroke-width:1.5;stroke-miterlimit:10;}
</style>
<g>
	<circle class="st0" cx="283.5" cy="283.5" r="279.2"/>
	<circle class="st1" cx="283.5" cy="283.5" r="273"/>
	<circle class="st2" cx="283.5" cy="283.5" r="263.6"/>
	<path class="st1" d="M487.9,283.5C487.9,170.6,396.4,79,283.5,79S79,170.6,79,283.5c-0.1,51.9,19.7,102,55.3,139.8h298.3
		C468.2,385.4,488,335.4,487.9,283.5z"/>
	<path class="st0" d="M478.5,283.5c0-107.7-87.3-195.1-195.1-195.1s-195,87.3-195,195.1c-0.1,48.6,18.1,95.5,50.9,131.4h288.4
		C460.5,378.9,478.6,332.1,478.5,283.5z"/>
	<g class="st3">
		<path class="st4" d="M73.3,144.5l12.2-16.3c2-2.7,4.1-4.2,6.3-4.5c2.2-0.3,4.6,0.6,7.3,2.6l3.9,2.9c2.7,2,4.2,4.1,4.5,6.3
			c0.3,2.2-0.6,4.6-2.6,7.3l-7,9.3l7.8,5.8l-5.2,7L73.3,144.5z M93.9,133.2c-1.6-1.2-2.9-1-4.1,0.6l-5.8,7.8l8.5,6.4l5.8-7.8
			c1.2-1.6,1-2.9-0.6-4.1L93.9,133.2z"/>
	</g>
	<g class="st3">
		<path class="st5" d="M73.3,144.5l12.2-16.3c2-2.7,4.1-4.2,6.3-4.5c2.2-0.3,4.6,0.6,7.3,2.6l3.9,2.9c2.7,2,4.2,4.1,4.5,6.3
			s-0.6,4.6-2.6,7.3l-7,9.3l7.8,5.8l-5.2,7L73.3,144.5z M93.9,133.2c-1.6-1.2-2.9-1-4.1,0.6l-5.8,7.8l8.5,6.4l5.8-7.8
			c1.2-1.6,1-2.9-0.6-4.1L93.9,133.2z"/>
	</g>
	<g class="st3">
		<path class="st4" d="M134,112c2.4,2.4,3.6,4.7,3.6,6.9s-1.2,4.5-3.6,6.9l-8.6,8.6c-2.4,2.4-4.7,3.6-6.9,3.6
			c-2.2,0-4.5-1.2-6.9-3.6l-11-11c-2.4-2.4-3.6-4.7-3.6-6.9c0-2.2,1.2-4.5,3.6-6.9l8.6-8.6c2.4-2.4,4.7-3.6,6.9-3.6
			c2.2,0,4.5,1.2,6.9,3.6L134,112z M116.9,107.2c-1.4-1.4-2.7-1.4-4.1,0l-5.8,5.8c-1.4,1.4-1.4,2.7,0,4.1l11,11
			c1.4,1.4,2.7,1.4,4.1,0l5.8-5.8c1.4-1.4,1.4-2.7,0-4.1L116.9,107.2z"/>
	</g>
	<g class="st3">
		<path class="st5" d="M134,112c2.4,2.4,3.6,4.7,3.6,6.9c0,2.2-1.2,4.5-3.6,6.9l-8.6,8.6c-2.4,2.4-4.7,3.6-6.9,3.6
			c-2.2,0-4.5-1.2-6.9-3.6l-11-11c-2.4-2.4-3.6-4.7-3.6-6.9s1.2-4.5,3.6-6.9l8.6-8.6c2.4-2.4,4.7-3.6,6.9-3.6c2.2,0,4.5,1.2,6.9,3.6
			L134,112z M116.9,107.2c-1.4-1.4-2.7-1.4-4.1,0L107,113c-1.4,1.4-1.4,2.7,0,4.1l11,11c1.4,1.4,2.7,1.4,4.1,0l5.8-5.8
			c1.4-1.4,1.4-2.7,0-4.1L116.9,107.2z"/>
	</g>
	<g class="st3">
		<path class="st4" d="M127.9,95.1c-0.4-0.2-0.8-0.3-1.3-0.3c-0.5,0-0.9,0.1-1.3,0.4l-1.6,1.1l-3.7-5.4c0.3-0.3,0.6-0.6,1-1
			c0.3-0.3,0.7-0.6,1.1-0.9c0.4-0.3,0.8-0.7,1.3-1c1.4-1,2.8-1.4,4.1-1.3c1.3,0.1,2.7,0.5,4.1,1.2l9.2,4.8l2.8-1.9l-7.6-10.9l7.2-5
			l7.6,10.9l2.8-1.9l-1.3-10.3c-0.2-1.5-0.1-2.9,0.3-4.2c0.4-1.3,1.3-2.4,2.7-3.4c0.5-0.3,0.9-0.6,1.4-0.9c0.5-0.3,0.9-0.5,1.3-0.7
			c0.5-0.2,0.9-0.4,1.3-0.6l3.7,5.4l-1.6,1.1c-0.4,0.3-0.7,0.7-0.8,1.1s-0.2,0.9-0.1,1.3l1.2,9.8l17.6,8.7l-7.6,5.3l-14-7l-2.8,1.9
			l7.9,11.3l-7.2,5l-7.9-11.3l-2.8,1.9l1.7,15.6l-7.6,5.3l-2.1-19.5L127.9,95.1z"/>
	</g>
	<g class="st3">
		<path class="st5" d="M155,65.8c0.7-0.5,1.9-1.2,3.9-2.1l3.7,5.4l-1.6,1.1c-0.4,0.3-0.7,0.7-0.8,1.1c-0.1,0.5-0.2,0.9-0.1,1.3
			l1.2,9.8l17.6,8.7l-7.6,5.3l-14-7l-2.8,1.9l7.9,11.3l-7.2,5l-7.9-11.3l-2.8,1.9l1.7,15.6l-7.6,5.3l-2.1-19.5l-8.8-4.5
			c-0.4-0.2-0.8-0.3-1.3-0.3s-0.9,0.1-1.3,0.4l-1.6,1.1l-3.7-5.4c1.5-1.5,2.6-2.4,3.3-2.9c1.4-1,2.8-1.4,4.1-1.3
			c1.3,0.1,2.7,0.5,4.1,1.2l9.2,4.8l2.8-1.9l-7.6-10.9l7.2-5l7.6,10.9l2.8-1.9L152,73.6c-0.2-1.5-0.1-2.9,0.3-4.2
			C152.7,68,153.6,66.8,155,65.8z"/>
	</g>
	<g class="st3">
		<path class="st4" d="M168.7,59.2l23.2-10.6l11.3,24.7l3.3-1.5l5.4,11.9l-7.5,3.4l-3.1-5.5l-17.2,7.9l2.2,5.9l-7.5,3.4L173.4,87
			l2.9-1.3c0.2-0.7,0.4-1.5,0.4-2.4c0.1-0.7,0-1.6-0.1-2.5c-0.1-0.9-0.3-1.9-0.7-2.9L168.7,59.2z M195.2,77l-8.5-18.5l-8.2,3.7
			l4.4,11.3c0.5,1.1,0.8,2.2,0.9,3.3c0.2,1,0.2,2,0.2,2.8c0,0.9,0,1.8-0.2,2.6L195.2,77z"/>
	</g>
	<g class="st3">
		<path class="st5" d="M168.7,59.2l23.2-10.6l11.3,24.7l3.3-1.5l5.4,11.9l-7.5,3.4l-3.1-5.5l-17.2,7.9l2.2,5.9l-7.5,3.4L173.4,87
			l2.9-1.3c0.4-1.4,0.5-2.7,0.4-4.2s-0.4-2.6-0.8-3.7L168.7,59.2z M195.2,77l-8.5-18.5l-8.2,3.7l4.4,11.3c0.7,1.8,1.1,3.8,1.2,6
			c0,0.9,0,1.8-0.2,2.6L195.2,77z"/>
	</g>
	<g class="st3">
		<path class="st4" d="M235.6,70.7l-25.8,7.6l-9.6-32.6l25.8-7.6l1.9,6.5l-17.4,5.1l1.9,6.3l13.7-4l1.9,6.5l-13.7,4l2,6.7l17.4-5.1
			L235.6,70.7z"/>
	</g>
	<g class="st3">
		<path class="st5" d="M235.6,70.7l-25.8,7.6l-9.6-32.6l25.8-7.6l1.9,6.5l-17.4,5.1l1.9,6.3l13.7-4l1.9,6.5l-13.7,4l2,6.7l17.4-5.1
			L235.6,70.7z"/>
	</g>
	<g class="st3">
		<path class="st4" d="M265.2,66.1l-8.6,1.3l-2.1-13.7l-12,1.8l2.1,13.7l-8.6,1.3L230.8,37l8.6-1.3l2,13.2l12-1.8l-2-13.2l8.6-1.3
			L265.2,66.1z"/>
	</g>
	<g class="st3">
		<path class="st5" d="M265.2,66.1l-8.6,1.3l-2.1-13.7l-12,1.8l2.1,13.7l-8.6,1.3L230.8,37l8.6-1.3l2,13.2l12-1.8l-2-13.2l8.6-1.3
			L265.2,66.1z"/>
	</g>
	<g class="st3">
		<path class="st4" d="M297,65.7l-8.7,0.1l-0.1-13.8L276.1,52l0.1,13.8l-8.7,0.1l-0.2-34l8.7-0.1l0.1,13.3l12.1-0.1L288,31.8
			l8.7-0.1L297,65.7z"/>
	</g>
	<g class="st3">
		<path class="st5" d="M297,65.7l-8.7,0.1L288.2,52l-12.1,0l0.1,13.8l-8.7,0.1L267.3,32l8.7-0.1l0.1,13.3l12.1-0.1L288,31.8l8.7-0.1
			L297,65.7z"/>
	</g>
	<g class="st3">
		<path class="st4" d="M311.5,44.7l11,1.9c3.4,0.6,5.7,1.8,6.9,3.5c1.3,1.8,1.6,4.4,1,7.7l-0.5,2.9c-0.6,3.4-1.8,5.7-3.5,6.9
			c-1.8,1.3-4.4,1.6-7.7,1l-19.7-3.4l5.8-33.6l8.6,1.5L311.5,44.7z M321.9,56.4c0.3-1.9-0.5-3-2.4-3.4l-9.1-1.6l-1.5,8.6l9.1,1.6
			c1.9,0.3,3-0.5,3.4-2.4L321.9,56.4z M340.9,72.5l-8.6-1.5l5.8-33.6l8.6,1.5L340.9,72.5z"/>
	</g>
	<g class="st3">
		<path class="st5" d="M311.5,44.7l11,1.9c3.4,0.6,5.7,1.8,6.9,3.5c1.3,1.8,1.6,4.4,1,7.7l-0.5,2.9c-0.6,3.4-1.8,5.7-3.5,6.9
			c-1.8,1.3-4.4,1.6-7.7,1L299,65.2l5.8-33.6l8.6,1.5L311.5,44.7z M321.9,56.4c0.3-1.9-0.5-3-2.4-3.4l-9.1-1.6l-1.5,8.6l9.1,1.6
			c1.9,0.3,3-0.5,3.4-2.4L321.9,56.4z M340.9,72.5l-8.6-1.5l5.8-33.6l8.6,1.5L340.9,72.5z"/>
	</g>
	<g class="st3">
		<path class="st4" d="M362.2,80.4l7-19.6l-18,15.7l-8.7-3.1l11.4-32l8.2,2.9l-7,19.6l18-15.7l8.7,3.1l-11.4,32L362.2,80.4z
			 M366.2,43.2c-4-1.4-5.2-4.1-3.8-8.1l0.5-1.4l5.9,2.1l-0.4,1.1c-0.2,0.5-0.1,0.9,0,1.3c0.2,0.4,0.5,0.7,1,0.9l1.4,0.5
			c0.5,0.2,0.9,0.1,1.3,0c0.4-0.2,0.7-0.5,0.9-1l0.4-1.1l5.9,2.1l-0.5,1.4c-1.4,4-4.1,5.2-8.1,3.8L366.2,43.2z"/>
	</g>
	<g class="st3">
		<path class="st5" d="M362.2,80.4l7-19.6l-18,15.7l-8.7-3.1l11.4-32l8.2,2.9l-7,19.6l18-15.7l8.7,3.1l-11.4,32L362.2,80.4z
			 M366.2,43.2c-4-1.4-5.2-4.1-3.8-8.1l0.5-1.4l5.9,2.1l-0.4,1.1c-0.2,0.5-0.1,0.9,0,1.3c0.2,0.4,0.5,0.7,1,0.9l1.4,0.5
			c0.5,0.2,0.9,0.1,1.3-0.1c0.4-0.2,0.7-0.5,0.9-1l0.4-1.1l5.9,2.1l-0.5,1.4c-1.4,4-4.1,5.2-8.1,3.8L366.2,43.2z"/>
	</g>
	<g class="st3">
		<path class="st4" d="M400.5,60.2l16.6,10c2.7,1.6,4.3,3.4,4.9,5.4s0,4.3-1.5,6.8c-1,1.7-2.2,2.8-3.5,3.4c-1.3,0.6-2.7,0.8-4,0.6
			c0.5,0.5,1,1.2,1.4,1.9c0.4,0.7,0.6,1.5,0.7,2.4c0.1,0.9,0,1.9-0.2,2.9c-0.2,1-0.7,2.1-1.4,3.3c-1.6,2.7-3.5,4.3-5.5,4.8
			c-2,0.5-4.4,0-7.1-1.7L383,89.4L400.5,60.2z M406.8,91.2c1-1.7,0.7-3-1-4l-8.3-5L394,88l8.3,5c1.7,1,3,0.7,4-1L406.8,91.2z
			 M412.5,78.8c1-1.7,0.7-3-1-4l-7.1-4.2l-3.5,5.8l7.1,4.2c1.7,1,3,0.7,4-1L412.5,78.8z"/>
	</g>
	<g class="st3">
		<path class="st5" d="M400.5,60.2l16.6,10c2.7,1.6,4.3,3.4,4.9,5.4c0.5,2,0,4.3-1.5,6.8c-1,1.7-2.2,2.8-3.5,3.4s-2.7,0.8-4,0.6
			c1.9,2,2.5,4.4,1.9,7.2c-0.2,1-0.7,2.1-1.4,3.2c-1.6,2.7-3.5,4.3-5.5,4.8s-4.4,0-7.1-1.7L383,89.4L400.5,60.2z M406.8,91.2
			c1-1.7,0.7-3-1-4l-8.3-5L394,88l8.3,5c1.7,1,3,0.7,4-1L406.8,91.2z M412.5,78.8c1-1.7,0.7-3-1-4l-7.1-4.2l-3.5,5.8l7.1,4.2
			c1.7,1,3,0.7,4-1L412.5,78.8z"/>
	</g>
	<g class="st3">
		<path class="st4" d="M423.3,116.4l-7-6.3l32.3-16.5l7.2,6.5l-13.2,33.7l-7-6.3l2.4-5.9l-9-8.1L423.3,116.4z M434.8,110.2l5.7,5.2
			l4.8-11L434.8,110.2z"/>
	</g>
	<g class="st3">
		<path class="st5" d="M423.3,116.4l-7-6.3l32.3-16.5l7.2,6.5l-13.2,33.7l-7-6.3l2.4-5.9l-9-8.1L423.3,116.4z M434.8,110.2l5.7,5.2
			l4.8-11L434.8,110.2z"/>
	</g>
	<g class="st3">
		<path class="st4" d="M470.9,115.4l16,19.6L466,152.1l2.3,2.8l-10.1,8.2l-5.2-6.3l4.5-4.3l-11.9-14.6l-5.2,3.6l-5.2-6.3l10.1-8.2
			l2,2.4c0.8,0,1.6,0,2.4-0.2c0.7-0.1,1.5-0.4,2.4-0.7c0.9-0.3,1.8-0.8,2.6-1.5L470.9,115.4z M460.5,145.4l15.7-12.8l-5.7-6.9
			l-9.8,7.1c-1,0.7-2,1.3-2.9,1.7c-1,0.4-1.8,0.7-2.6,0.9c-0.9,0.3-1.7,0.4-2.5,0.5L460.5,145.4z"/>
	</g>
	<g class="st3">
		<path class="st5" d="M470.9,115.4l16,19.6L466,152.1l2.3,2.8l-10.1,8.3l-5.2-6.3l4.5-4.3L445.6,138l-5.2,3.6l-5.2-6.3l10.1-8.3
			l2,2.4c1.4,0,2.8-0.2,4.1-0.7c1.3-0.5,2.4-1,3.3-1.7L470.9,115.4z M460.5,145.4l15.7-12.8l-5.7-6.9l-9.8,7.1
			c-1.6,1.2-3.4,2-5.5,2.6c-0.9,0.3-1.7,0.4-2.5,0.5L460.5,145.4z"/>
	</g>
	<g class="st3">
		<path class="st4" d="M489.8,138l5,8.3l-10.3,16.5l18.6-2.7l5,8.3l-29.4,3.2c-1.3,0.2-2.6,0.2-3.8,0.1c-1.2-0.1-2.3-0.3-3.3-0.7
			c-1-0.4-1.9-0.9-2.8-1.7c-0.9-0.7-1.7-1.7-2.4-2.9c-0.4-0.6-0.7-1.2-1-1.7c-0.3-0.6-0.5-1.1-0.7-1.6c-0.2-0.5-0.5-1-0.6-1.5
			l5.6-3.4l2.3,3.8c0.3,0.4,0.6,0.7,0.9,0.9c0.3,0.2,0.7,0.2,1.1,0.2c0.4,0,0.7-0.1,1-0.3c0.3-0.2,0.6-0.4,0.7-0.7L489.8,138z"/>
	</g>
	<g class="st3">
		<path class="st5" d="M466.4,166.2c-0.8-1.4-1.6-2.9-2.2-4.5l5.6-3.4l2.3,3.8c0.5,0.8,1.1,1.2,2,1.1c0.4,0,0.7-0.1,1-0.3
			s0.6-0.4,0.7-0.7l13.9-24.1l5,8.3l-10.3,16.5l18.6-2.7l5,8.3l-29.4,3.2c-2.8,0.4-5.1,0.2-7-0.5
			C469.7,170.3,467.9,168.7,466.4,166.2z"/>
	</g>
	<g class="st3">
		<path class="st4" d="M165,458.7c0,2.9-0.6,5-1.9,6.2c-1.3,1.3-3.4,1.9-6.2,1.9h-4.9v2.9h-7.4v-2.9h-4.9c-2.9,0-5-0.6-6.2-1.9
			c-1.3-1.3-1.9-3.4-1.9-6.2v-8.2c0-2.9,0.6-5,1.9-6.2c1.3-1.3,3.4-1.9,6.2-1.9h4.9v-2.9h7.4v2.9h4.9c2.9,0,5,0.6,6.2,1.9
			c1.3,1.3,1.9,3.4,1.9,6.2V458.7z M138.7,458.7c0,1.6,0.8,2.5,2.5,2.5h3.7V448h-3.7c-1.6,0-2.5,0.8-2.5,2.5V458.7z M157.6,450.5
			c0-1.6-0.8-2.5-2.5-2.5h-3.7v13.1h3.7c1.6,0,2.5-0.8,2.5-2.5V450.5z"/>
		<path class="st4" d="M168.7,440.2h17.2c2.9,0,5,0.6,6.2,1.9c1.3,1.3,1.9,3.4,1.9,6.2v4.1c0,2.9-0.6,5-1.9,6.2
			c-1.3,1.3-3.4,1.9-6.2,1.9H176v8.2h-7.4V440.2z M186.7,448.4c0-1.6-0.8-2.5-2.5-2.5H176v9h8.2c1.6,0,2.5-0.8,2.5-2.5V448.4z"/>
		<path class="st4" d="M223.6,461.1c0,2.9-0.6,5-1.9,6.2c-1.3,1.3-3.4,1.9-6.2,1.9h-10.2c-2.9,0-5-0.6-6.2-1.9
			c-1.3-1.3-1.9-3.4-1.9-6.2V448c0-2.9,0.6-5,1.9-6.2c1.3-1.3,3.4-1.9,6.2-1.9h10.2c2.9,0,5,0.6,6.2,1.9c1.3,1.3,1.9,3.4,1.9,6.2
			V461.1z M216.2,448c0-1.6-0.8-2.5-2.5-2.5h-7c-1.6,0-2.5,0.8-2.5,2.5v13.1c0,1.6,0.8,2.5,2.5,2.5h7c1.6,0,2.5-0.8,2.5-2.5V448z"/>
		<path class="st4" d="M252.6,468.9h-7.4v-11.7H235v11.7h-7.4v-28.7h7.4v11.3h10.2v-11.3h7.4V468.9z"/>
		<path class="st4" d="M271.5,468.9h-7.4V446h-8.6v-5.7h24.6v5.7h-8.6V468.9z"/>
		<path class="st4" d="M308.8,461.1c0,2.9-0.6,5-1.9,6.2c-1.3,1.3-3.4,1.9-6.2,1.9h-10.2c-2.9,0-5-0.6-6.2-1.9
			c-1.3-1.3-1.9-3.4-1.9-6.2V448c0-2.9,0.6-5,1.9-6.2c1.3-1.3,3.4-1.9,6.2-1.9h10.2c2.9,0,5,0.6,6.2,1.9c1.3,1.3,1.9,3.4,1.9,6.2
			V461.1z M301.4,448c0-1.6-0.8-2.5-2.5-2.5h-7c-1.6,0-2.5,0.8-2.5,2.5v13.1c0,1.6,0.8,2.5,2.5,2.5h7c1.6,0,2.5-0.8,2.5-2.5V448z"/>
		<path class="st4" d="M312.9,440.2h16.4c2.7,0,4.6,0.6,5.9,1.8c1.3,1.2,1.9,3.1,1.9,5.6c0,1.6-0.4,3-1.1,4c-0.7,1-1.6,1.7-2.6,2.2
			c0.6,0.2,1.2,0.4,1.8,0.8c0.6,0.4,1.1,0.8,1.6,1.4c0.5,0.6,0.8,1.3,1.1,2.2c0.3,0.9,0.4,1.9,0.4,3c0,2.7-0.6,4.6-1.9,5.9
			c-1.3,1.3-3.2,1.9-5.9,1.9h-17.6V440.2z M329.7,448.4c0-1.6-0.8-2.5-2.5-2.5h-7v5.7h7c1.6,0,2.5-0.8,2.5-2.5V448.4z M330.9,459.9
			c0-1.6-0.8-2.5-2.5-2.5h-8.2v5.7h8.2c1.6,0,2.5-0.8,2.5-2.5V459.9z"/>
		<path class="st4" d="M366.9,468.9h-7.4v-17.6l-9.8,17.6H342v-28.7h7.4v17.6l9.8-17.6h7.8V468.9z"/>
		<path class="st4" d="M389.1,454.4l8,14.5h-7.8l-6.3-11.7h-3.7v11.7h-7.4v-28.7h7.4v11.3h3.7l4.1-7.8c0.6-1.1,1.3-2.1,2.2-2.8
			s2.1-1.1,3.5-1.1c0.5,0,0.9,0,1.4,0.1c0.4,0,0.8,0.1,1.2,0.1c0.4,0.1,0.8,0.2,1.1,0.2v5.5h-1.6c-0.4,0-0.8,0.1-1.1,0.4
			c-0.3,0.3-0.6,0.5-0.7,0.8L389.1,454.4z"/>
		<path class="st4" d="M424.5,468.9h-7.4v-17.6l-9.8,17.6h-7.8v-28.7h7.4v17.6l9.8-17.6h7.8V468.9z"/>
	</g>
	<g class="st3">
		<path class="st6" d="M165,458.7c0,2.9-0.6,5-1.9,6.2c-1.3,1.3-3.4,1.9-6.2,1.9H152v2.9h-7.4v-2.9h-4.9c-2.9,0-5-0.6-6.2-1.9
			c-1.3-1.3-1.9-3.4-1.9-6.2v-8.2c0-2.9,0.6-5,1.9-6.2c1.3-1.3,3.4-1.9,6.2-1.9h4.9v-2.9h7.4v2.9h4.9c2.9,0,5,0.6,6.2,1.9
			c1.3,1.3,1.9,3.4,1.9,6.2V458.7z M138.7,458.7c0,1.6,0.8,2.5,2.5,2.5h3.7V448h-3.7c-1.6,0-2.5,0.8-2.5,2.5V458.7z M157.6,450.5
			c0-1.6-0.8-2.5-2.5-2.5h-3.7v13.1h3.7c1.6,0,2.5-0.8,2.5-2.5V450.5z"/>
		<path class="st6" d="M168.7,440.2h17.2c2.9,0,5,0.6,6.2,1.9c1.3,1.3,1.9,3.4,1.9,6.2v4.1c0,2.9-0.6,5-1.9,6.2
			c-1.3,1.3-3.4,1.9-6.2,1.9H176v8.2h-7.4L168.7,440.2L168.7,440.2z M186.7,448.4c0-1.6-0.8-2.5-2.5-2.5H176v9h8.2
			c1.6,0,2.5-0.8,2.5-2.5V448.4z"/>
		<path class="st6" d="M223.6,461.1c0,2.9-0.6,5-1.9,6.2c-1.3,1.3-3.4,1.9-6.2,1.9h-10.2c-2.9,0-5-0.6-6.2-1.9
			c-1.3-1.3-1.9-3.4-1.9-6.2V448c0-2.9,0.6-5,1.9-6.2c1.3-1.3,3.4-1.9,6.2-1.9h10.2c2.9,0,5,0.6,6.2,1.9c1.3,1.3,1.9,3.4,1.9,6.2
			V461.1z M216.2,448c0-1.6-0.8-2.5-2.5-2.5h-7c-1.6,0-2.5,0.8-2.5,2.5v13.1c0,1.6,0.8,2.5,2.5,2.5h7c1.6,0,2.5-0.8,2.5-2.5V448z"/>
		<path class="st6" d="M252.6,468.9h-7.4v-11.7H235v11.7h-7.4v-28.7h7.4v11.3h10.2v-11.3h7.4L252.6,468.9L252.6,468.9z"/>
		<path class="st6" d="M271.5,468.9h-7.4V446h-8.6v-5.7h24.6v5.7h-8.6V468.9z"/>
		<path class="st6" d="M308.8,461.1c0,2.9-0.6,5-1.9,6.2c-1.3,1.3-3.4,1.9-6.2,1.9h-10.2c-2.9,0-5-0.6-6.2-1.9
			c-1.3-1.3-1.9-3.4-1.9-6.2V448c0-2.9,0.6-5,1.9-6.2c1.3-1.3,3.4-1.9,6.2-1.9h10.2c2.9,0,5,0.6,6.2,1.9c1.3,1.3,1.9,3.4,1.9,6.2
			V461.1z M301.4,448c0-1.6-0.8-2.5-2.5-2.5h-7c-1.6,0-2.5,0.8-2.5,2.5v13.1c0,1.6,0.8,2.5,2.5,2.5h7c1.6,0,2.5-0.8,2.5-2.5V448z"/>
		<path class="st6" d="M312.9,440.2h16.4c2.7,0,4.6,0.6,5.9,1.8c1.3,1.2,1.9,3.1,1.9,5.6c0,1.6-0.4,3-1.1,4s-1.6,1.7-2.6,2.2
			c2.2,0.6,3.7,2.1,4.5,4.4c0.3,0.8,0.4,1.8,0.4,3c0,2.7-0.6,4.6-1.9,5.9s-3.2,1.9-5.9,1.9h-17.6L312.9,440.2L312.9,440.2z
			 M329.7,448.4c0-1.6-0.8-2.5-2.5-2.5h-7v5.7h7c1.6,0,2.5-0.8,2.5-2.5V448.4z M330.9,459.9c0-1.6-0.8-2.5-2.5-2.5h-8.2v5.7h8.2
			c1.6,0,2.5-0.8,2.5-2.5V459.9z"/>
		<path class="st6" d="M366.9,468.9h-7.4v-17.6l-9.8,17.6H342v-28.7h7.4v17.6l9.8-17.6h7.8L366.9,468.9L366.9,468.9z"/>
		<path class="st6" d="M392.8,439.8c0.7,0,1.9,0.1,3.7,0.4v5.5h-1.6c-0.4,0-0.8,0.1-1.1,0.4c-0.3,0.3-0.6,0.5-0.7,0.8l-3.9,7.4
			l8,14.5h-7.8l-6.3-11.7h-3.7v11.7H372v-28.7h7.4v11.3h3.7l4.1-7.8c0.6-1.1,1.3-2.1,2.2-2.8S391.3,439.8,392.8,439.8z"/>
		<path class="st6" d="M424.5,468.9h-7.4v-17.6l-9.8,17.6h-7.8v-28.7h7.4v17.6l9.8-17.6h7.8V468.9z"/>
	</g>
	<path class="st1" d="M411.4,390.4c-0.9-5.9-6.7-10.7-13.3-11c-1.4-0.1-2.7,0.2-3.8-1.1c-10.3-11.1-20.7-22.1-31.1-33.1
		c-1.5-1.6-0.8-2.6,0.3-3.9c5.8-6.9,11.5-13.9,17.3-20.9c4.4-5.3,4.3-5.1-0.3-9.9c-1.8-1.9-2.8-1.7-4.7-0.1
		c-6,5.3-12.4,10.2-18.4,15.5c-1.9,1.7-2.8,1.2-4.3-0.3c-14.8-14.5-29.7-28.8-44.6-43.2c-17.9-17.4-35.9-34.8-53.8-52.3
		c-16.4-15.9-33.1-31.6-49.3-47.8c-13.1-13.1-27.6-23.6-45.1-29.9c-1.4-0.5-3.1-1.8-4.3-0.8c-1.3,1.1,0.1,2.9,0.6,4.2
		c4.7,12.9,11.1,24.9,20.4,35.1c10.1,10.9,20.4,21.6,30.7,32.2c16.5,17,33.1,34,49.7,50.9c0.5,0.3,0.9,0.8,1.3,1.3l0.8,0.9
		c0.8,0.6,1.3,1.5,1.6,2.5c0,0.1,0,0.2,0,0.3c1.1,1.2,2.2,2.2,3.5,3.3c2,1.8,3.9,3.8,5.7,5.8l0,0l4.8,4.4l0,0l-0.3,0.3
		c2.9,3,5.7,6,8.5,9c0.5-0.1,1.1,0.2,1.9,1c14.9,15.5,29.9,30.9,44.9,46.4c1.5,1.6,1.3,2.5,0,4c-5.6,6.5-11.1,13.1-16.7,19.8
		c-0.6,0.7-2.1,1.3-1.4,2.2c1.6,2.2,3.6,4.2,5.9,5.8c1.7,1.1,3.2-1.2,4.4-2.3c7.9-6.4,15.6-13,23.3-19.6c1.6-1.4,2.6-1.5,4.2,0.1
		c9.3,8.9,18.8,17.8,28.2,26.6c3.2,3,6.7,5.8,6,11c0,1.1,0.4,2.2,1,3.1c3.4,6,10.6,8.9,17.3,6.7
		C408.6,404.6,412.4,397.9,411.4,390.4z M343.2,337.7c-1.8,1.1-2.4,4.8-5.9,1.2c-25.5-26.2-51.2-52.1-76.9-78.2
		c-10-10.2-20.2-20.2-29.1-31.4c-1.3-1.6-2.6-3.3-3.9-4.9c2.5-1.2,3.5,0.8,4.7,1.9c14.3,12.1,27.5,25.5,40.8,38.6
		c23.2,22.9,46.5,45.7,69.8,68.5C344.3,334.9,345.9,336,343.2,337.7L343.2,337.7z"/>
	<path class="st1" d="M164.8,406.8c6.6,2.1,13.8-0.7,17.3-6.8c0.6-0.9,1-2,1-3.1c-0.8-5.2,2.8-8,6-11c9.4-8.8,18.9-17.7,28.2-26.6
		c1.6-1.5,2.6-1.4,4.2-0.1c7.7,6.6,15.4,13.2,23.3,19.6c1.3,1,2.7,3.3,4.4,2.3c2.3-1.6,4.2-3.6,5.9-5.8c0.8-1-0.8-1.6-1.4-2.2
		c-5.5-6.6-11-13.3-16.7-19.8c-1.4-1.6-1.6-2.5,0-4c15-15.4,30-30.9,44.9-46.4c0.8-0.8,1.3-1.1,1.9-1c2.8-3,5.6-6,8.5-9l-0.3-0.3
		l0,0l4.8-4.4l0,0c1.8-2,3.7-4,5.7-5.8c1.2-1,2.4-2.1,3.5-3.3c0-0.1,0-0.2,0-0.3c0.3-1,0.8-1.8,1.6-2.5l0.8-0.9
		c0.3-0.5,0.7-1,1.3-1.3c16.7-16.9,33.2-33.8,49.7-50.9c10.3-10.6,20.6-21.3,30.7-32.2c9.4-10.1,15.7-22.1,20.4-35.1
		c0.5-1.3,1.9-3.1,0.6-4.2c-1.2-1-2.9,0.3-4.3,0.8c-17.5,6.2-32,16.8-45.1,29.9c-16.2,16.2-32.9,31.9-49.3,47.8
		c-17.9,17.4-35.9,34.8-53.8,52.3c-14.9,14.4-29.8,28.8-44.6,43.2c-1.5,1.5-2.4,2-4.3,0.3c-6-5.3-12.3-10.2-18.4-15.5
		c-1.9-1.6-2.8-1.8-4.7,0.1c-4.6,4.8-4.7,4.7-0.3,9.9c5.8,6.9,11.5,13.9,17.3,20.9c1.1,1.3,1.8,2.3,0.3,3.9
		c-10.4,11-20.8,22-31.1,33.1c-1.1,1.2-2.5,1-3.8,1.1c-6.7,0.3-12.5,5.2-13.3,11C154.5,397.9,158.3,404.6,164.8,406.8z M224.1,333.4
		c23.3-22.8,46.6-45.7,69.8-68.5c13.4-13.1,26.5-26.5,40.8-38.6c1.3-1.1,2.3-3.1,4.7-1.9c-1.3,1.7-2.6,3.3-3.9,4.9
		c-9,11.2-19.1,21.2-29.1,31.4c-25.6,26.1-51.4,52-76.9,78.2c-3.5,3.6-4.1-0.1-5.9-1.2C221.1,336,222.6,334.9,224.1,333.4z"/>
</g>
<g>
	<path class="st0" d="M334.5,156.4l-2.5,2.5c-0.1,0.1-11.1,11.5-11.4,36.8v0.4c-0.2,0.8-4.4,19-14.6,30.8c0.7,0.3,1.4,0.6,2.1,0.9
		c1.3,0.6,1.9,2.2,1.3,3.6c-0.6,1.3-2.1,1.9-3.5,1.3c-0.8-0.4-1.6-0.7-2.4-1l-1.3,9.2c26,10.2,38.8,39.5,28.6,65.5
		c-10.2,26-39.5,38.8-65.5,28.6c-26-10.2-38.8-39.5-28.6-65.5c4.8-12.2,14.1-22.1,26.1-27.5l-0.9-10.3c-2,0.6-3.2,1.1-3.3,1.1
		c-1.4,0.6-2.9-0.1-3.5-1.5s0.1-2.9,1.5-3.5l0.7-0.3c-9.4-11.3-12.2-32.8-12.2-35.2V192c5.1-26.3-5.6-36.9-5.7-37l-6.9-6.6l8.8,3.8
		c10.1,4.2,21.6,16.2,26.2,21.4c9.8-32.9-0.3-42.6-0.5-42.7l-6.7-6l8.5,3c22.4,8,31.6,20.6,35.3,29.9c1.5,3.7,2.4,7.6,2.8,11.5
		c10.5-15.1,23.4-13.4,24-13.3L334.5,156.4z M327,279.3c2.5,12,0,24.5-6.8,34.6c-9.1,13.4-24.2,19.3-38.5,19.3
		c-7.4,0.1-14.8-1.6-21.5-4.9c-1.2-0.6-2.3-1.3-3.4-2c21.3,14.9,50.6,9.7,65.5-11.5c14.9-21.3,9.7-50.6-11.5-65.5
		c-21.3-14.9-50.6-9.7-65.5,11.5c-11,15.7-11.4,36.5-0.9,52.6c0.1-0.3,0.3-0.6,0.5-0.8c0.6-0.4,1.4-0.3,1.9,0.3
		c3.8,5.5,8.8,9.9,14.7,13c16.9,8.6,43.3,5.8,56.6-13.5c6.4-9.5,8.8-21.3,6.4-32.6c-2.3-12.1-9.4-22.7-19.7-29.5
		c-0.6-0.4-0.8-1.2-0.4-1.9l0,0c0.4-0.6,1.2-0.8,1.9-0.4C317,255.3,324.5,266.5,327,279.3z M317,195.5c0.3-19.3,6.4-30.9,9.9-36
		c-4.8,0.6-13.5,3.7-20.2,17.1l-5.3,10.5l2-11.6c0.2-1.2,4.1-27.6-30.8-42.5c2.8,6.4,5.3,19.8-2.7,44.5l-1,3.1l-2.1-2.5
		c-0.1-0.1-10.5-12.4-20.8-19.4c2.9,6.1,5.7,16.9,2.5,33.7c0.1,2.9,3.1,24.2,12.3,33.8c7.7-2.3,24.5-5.9,41.4-0.6
		C312.1,215.1,316.6,197.4,317,195.5z M298.7,239.6l1.2-9.1c-13.4-4-26.9-1.9-34.7,0.1l0.9,9.9C276.6,236.6,288.1,236.3,298.7,239.6
		L298.7,239.6z"/>
	<path class="st1" d="M320.2,313.9c6.8-10.1,9.3-22.6,6.8-34.6c-2.5-12.8-10-24-20.9-31.2l0.6-1.1c22.8,12.4,31.3,40.9,18.9,63.7
		S284.8,342,262,329.6c-1.8-1-3.6-2.1-5.2-3.3c1.1,0.7,2.3,1.4,3.4,2c6.7,3.3,14,4.9,21.5,4.9C296,333.2,311.1,327.3,320.2,313.9z"
		/>
	<path class="st1" d="M324.4,279.8c2.3,11.3,0,23-6.4,32.6c-13.3,19.4-39.7,22.1-56.6,13.5c-5.9-3.1-10.9-7.5-14.7-13
		c-0.4-0.6-1.3-0.7-1.9-0.3c-0.3,0.2-0.5,0.5-0.5,0.8c-14.1-21.8-7.8-50.9,14-65c14.6-9.4,33.2-10,48.4-1.5l-0.6,1.1
		c-0.6-0.4-1.4-0.2-1.9,0.4c-0.4,0.6-0.2,1.4,0.4,1.9l0,0C315,257.1,322.1,267.7,324.4,279.8z M306.3,319.5
		c16.9-13.1,20.2-38.7,7.4-57.1c-0.4-0.6-1.2-0.9-1.8-0.5s-0.9,1.2-0.5,1.8c0,0.1,0.1,0.1,0.1,0.2c12,17.3,8.9,41.3-6.9,53.5
		c-13.3,10.3-33.3,9.9-47.4-0.9c-0.6-0.4-1.4-0.3-1.9,0.3s-0.3,1.4,0.3,1.9l0,0c7.6,5.8,16.8,9,26.4,9.1
		C290.8,327.8,299.3,324.9,306.3,319.5z"/>
	<path class="st1" d="M327,159.5c-3.6,5.1-9.7,16.7-9.9,36c-0.5,1.9-4.9,19.7-14.7,30.1c-16.9-5.3-33.6-1.7-41.4,0.6
		c-9.2-9.6-12.2-30.9-12.3-33.8c3.2-16.8,0.4-27.6-2.5-33.7c10.3,7,20.7,19.3,20.8,19.4l2.1,2.5l1-3.1c8-24.7,5.5-38.1,2.7-44.5
		c34.9,14.8,30.9,41.3,30.8,42.5l-2,11.6l5.3-10.5C313.5,163.2,322.2,160.1,327,159.5z"/>
	<path class="st0" d="M313.7,262.4c12.8,18.4,9.5,44-7.4,57.1c-7,5.3-15.5,8.2-24.3,8.2c-9.6,0-18.8-3.2-26.4-9.1
		c-0.6-0.4-0.7-1.3-0.3-1.9s1.3-0.7,1.9-0.3l0,0c14.2,10.8,34.1,11.2,47.4,0.9c15.8-12.2,18.9-36.2,6.9-53.5
		c-0.5-0.6-0.4-1.4,0.2-1.9s1.4-0.4,1.9,0.2C313.6,262.3,313.7,262.3,313.7,262.4L313.7,262.4z"/>
	<path class="st1" d="M300,230.5l-1.2,9.1c-10.6-3.3-22.1-3-32.6,0.9l-0.9-9.9C273.1,228.6,286.6,226.5,300,230.5z"/>
</g>
</svg>
