<?xml version="1.0" encoding="UTF-8"?>
<svg id="Capa_2" xmlns="http://www.w3.org/2000/svg" version="1.1" viewBox="0 0 566.9 566.9">
  <!-- Generator: Adobe Illustrator 30.1.0, SVG Export Plug-In . SVG Version: 2.1.1 Build 136)  -->
  <defs>
    <style>
      .st0 {
        fill: #fff;
      }

      .st1 {
        fill: #1c6c9e;
      }

      .st2 {
        fill: #c2d500;
      }
    </style>
  </defs>
  <circle class="st2" cx="283.5" cy="283.5" r="279.2"/>
  <circle class="st1" cx="283.5" cy="283.5" r="271.9"/>
  <circle class="st2" cx="283.5" cy="283.5" r="216.2"/>
  <circle class="st0" cx="283.5" cy="283.5" r="207.8"/>
  <path class="st1" d="M214.6,110.4s38.3-18.8,82.7-12.8c44.4,6,72.9,31.2,43.9,91.9-29,60.7-54.3,113.3-54.3,113.3,0,0-26.3,47.9,9.4,98,16.7,22.6,45.1,49.4,55.3,53.3-10.8,4-60.7,26.8-106.2,6.3-34.2-16.8-46.5-40.5-4.5-114.8,26.2-53.5,51.8-105,49.1-133.9-3.7-38.4-17.5-62.7-75.4-101.3Z"/>
  <path class="st2" d="M124.6,184.6s40.4-67.1,87.8-37c23.9,16.1,30,29-3.8,79.8-24.7,33.3-89.8,134.9-47.2,194.9-18.7-15.2-70.5-70.5-64.6-152.1,3.4-44.7,27.8-85.6,27.8-85.6Z"/>
  <path class="st2" d="M441.5,381.2s-40.4,67.1-87.8,37c-23.9-16.1-30-29,3.8-79.8,24.7-33.3,89.8-134.9,47.2-194.9,18.7,15.2,70.5,70.5,64.6,152.1-3.4,44.7-27.8,85.6-27.8,85.6Z"/>
  <g>
    <path class="st0" d="M112.9,444.7l15.7,15.2-3.4,3.5-11.1-10.8-2.7,2.8,10.6,10.3-3.3,3.4-10.6-10.3-5,5.1-4.5-4.4,14.4-14.8Z"/>
    <path class="st0" d="M128.9,460.3l5,3.9-5.8,7.5c-1.3,1.7-2.1,2.9-2.4,3.4-.4.7-.3,1.5.3,2.2.5.7,1.9,1.9,4,3.6,1.7,1.3,2.9,2.2,3.7,2.6.7.4,1.4.6,1.9.5.3,0,.7-.2,1-.4.3-.2.8-.7,1.4-1.4.6-.7,1.1-1.3,1.5-1.8l5.8-7.5,5,3.9-5.8,7.5c-2.1,2.6-3.5,4.2-4.2,4.9-1.3,1.2-2.7,1.7-4.3,1.5-.9-.1-2-.6-3.2-1.3-1.2-.8-3.2-2.2-5.8-4.2-2-1.5-3.5-2.8-4.5-3.7-1-.9-1.8-1.8-2.5-2.6-1.4-1.8-1.6-3.6-.6-5.5.4-.7.8-1.4,1.2-1.9.4-.5,1.3-1.8,2.8-3.7l5.8-7.5Z"/>
    <path class="st0" d="M143.9,489.3l5.2,3.2c-.5.9-.7,1.5-.5,2,.2.3.4.6.8.9s1.7,1.1,3.8,2.4c2.3,1.4,3.7,2.2,4.1,2.4.5.3.9.4,1.2.5.5,0,1-.2,1.4-1,.3-.5.4-1,.2-1.3-.2-.3-.7-.8-1.5-1.3-.7-.4-2-1.3-4.1-2.7-2.1-1.4-3.5-2.4-4.2-2.8-1.3-.8-2.2-1.6-2.8-2.2-.6-.6-.9-1.3-1-2-.2-1.2.2-2.6,1.3-4.4,1.2-2,2.4-3.2,3.7-3.5,1-.3,2.1-.2,3.4.4,1.3.6,3.8,1.9,7.5,4.2,2.6,1.6,4.4,2.8,5.3,3.5,1.5,1.2,2.3,2.3,2.5,3.4.2,1-.2,2.4-1.2,4,0,.1-.3.4-.5.8l-5.2-3.2c.3-.5.4-.9.5-1.1,0-.2,0-.4-.1-.7-.2-.3-.5-.6-1.1-1-.6-.4-1.8-1.2-3.7-2.3-2.3-1.4-3.7-2.2-4.3-2.3-.6-.2-1.1,0-1.5.7-.4.6-.4,1.2,0,1.6.3.4,2.2,1.6,5.5,3.8,2.8,1.8,4.7,3.1,5.5,3.8.9.7,1.5,1.4,1.9,2.1.4.8.5,1.6.4,2.4-.1.8-.6,1.9-1.4,3.2-1,1.7-2,2.8-2.9,3.3-.7.4-1.4.6-2.2.5-.8,0-1.7-.4-2.9-.9-1.2-.6-3.4-1.9-6.6-3.8-2.7-1.6-4.6-2.9-5.8-3.8-1.2-.9-2-1.7-2.4-2.5-.4-.8-.6-1.6-.5-2.3.1-.8.6-1.8,1.3-3.1l.5-.8Z"/>
    <path class="st0" d="M174.3,491.1l5.9,3-9.4,18.4-5.9-3,9.4-18.4Z"/>
    <path class="st0" d="M182.3,495.3l6.1,2.6-6,14.2,13.5,5.8-2.1,4.8-19.6-8.4,8.1-19Z"/>
    <path class="st0" d="M202.9,503.7l6.2,2.2-6.8,19.5-6.2-2.2,6.8-19.5Z"/>
    <path class="st0" d="M211.3,506.9l22.1,6-1.3,4.7-16.1-4.4-.8,2.9,15.3,4.1-1.2,4.4-15.3-4.1-.9,3.2,16.2,4.4-1.3,4.8-22.2-6,5.4-19.9Z"/>
    <path class="st0" d="M231.4,533.6l3.2-20.4,15,2.4c3.5.6,5.6.9,6.3,1.1.7.2,1.3.5,1.9,1,.7.6,1.1,1.3,1.3,2.2.2.9.1,2.2-.2,3.9-.2,1.5-.5,2.6-.8,3.2-.3.7-.7,1.2-1.3,1.5-.6.4-1.5.5-2.6.5,1.3.3,2.2.8,2.6,1.6.3.4.4.9.4,1.5,0,.6-.1,1.7-.4,3.5l-.3,1.9-6.1-1,.2-1.1c.2-1.1.3-2,.3-2.4,0-.5-.1-.9-.3-1.2-.2-.3-.5-.5-.9-.6-.4-.1-1.2-.3-2.5-.5l-8.8-1.4-.8,5.2-6.2-1ZM239.3,524.3l8.7,1.4c1.5.2,2.4.3,2.7.3.3,0,.6,0,.8-.1.3-.1.5-.3.7-.7.2-.3.3-.8.4-1.5.1-.7.1-1.2,0-1.5s-.3-.6-.5-.8c-.2-.1-.5-.2-.8-.3-.3,0-1.2-.2-2.6-.5l-8.7-1.4-.8,5Z"/>
    <path class="st0" d="M268.7,538.5l.2-20.7h14.8c3.2.2,5,.2,5.6.3,1.4,0,2.3.3,3,.8.6.4,1,.9,1.3,1.7.3.7.4,1.7.4,2.9,0,1.5-.2,2.6-.6,3.3-.4.7-1.1,1.2-2.2,1.5.9.2,1.6.4,2,.7,1,.7,1.5,2.1,1.5,4.3,0,1.7-.3,2.9-.8,3.7-.4.5-.8.9-1.4,1.2s-1.5.4-2.6.5c-.7,0-2.8,0-6.3,0h-14.9ZM274.7,533.6h8.9c1.8,0,2.9,0,3.3,0,.3,0,.6,0,.9-.2.5-.2.8-.7.8-1.6,0-.9-.3-1.4-.9-1.5-.2,0-1.6-.1-4-.1h-8.9c0,0,0,3.3,0,3.3ZM274.8,526h8.9c1.9,0,3.1,0,3.5-.1.5-.2.7-.7.8-1.5,0-.8-.3-1.3-.9-1.5-.2,0-1.3-.1-3.3-.1h-8.9c0,0,0,3.2,0,3.2Z"/>
    <path class="st0" d="M296.4,517.6l6.6-.5,1.4,20.6-6.6.5-1.4-20.6Z"/>
    <path class="st0" d="M308.3,537.7l-3-20.4,14-2c2.8-.4,4.6-.6,5.4-.6,2.1,0,3.5.4,4.4,1.4.9.9,1.5,2.7,1.9,5.4.4,2.5.3,4.3-.1,5.4-.3.7-.8,1.4-1.5,1.8-.7.5-1.6.9-2.8,1.2-.9.2-2.5.5-5,.9l-7.8,1.1.7,5-6.2.9ZM313.1,526.7l7.8-1.1c1.4-.2,2.3-.4,2.6-.4.3,0,.6-.2.8-.4.3-.2.5-.5.5-.9,0-.4,0-.9,0-1.6-.1-.7-.3-1.3-.5-1.6s-.5-.5-.9-.6c-.3,0-1.4,0-3.3.3l-7.8,1.1.8,5.2Z"/>
    <path class="st0" d="M356.7,528.1l-2.6-2.9-13.2,3.5-.8,3.8-7,1.8,5.4-22.8,9.5-2.5,15.7,17.2-6.9,1.8ZM350.9,521.3l-5.8-6.6-1.2.3-1.9,8.6,8.9-2.3Z"/>
    <path class="st0" d="M358.4,506.2l10.2-4.1,15.8,10.2.6-.2-5.9-14.2,5.9-2.4,7.8,19.1-10.1,4.1-15.9-10.2-.6.3,5.9,14.2-5.9,2.4-7.8-19.1Z"/>
    <path class="st0" d="M396.9,512.5l-10.1-18,13-7.3c2.3-1.3,3.8-2.1,4.6-2.5.7-.4,1.5-.7,2.4-1,2-.6,3.8-.3,5.2,1.1.6.5,1.1,1.1,1.6,1.8.5.7,1.1,1.8,2,3.2.9,1.6,1.6,2.9,1.9,3.7.4.9.7,1.7.8,2.5.4,1.9-.2,3.5-1.7,4.8-.7.6-1.5,1.2-2.3,1.8-.9.6-2.3,1.4-4.3,2.5l-13,7.3ZM399.8,504.8l7.6-4.3c1.4-.8,2.4-1.4,3-1.9.6-.5,1-.9,1.1-1.3.2-.4.1-.9,0-1.6-.2-.6-.6-1.5-1.2-2.6-.6-1.1-1.2-1.9-1.6-2.4-.4-.5-.8-.8-1.3-1-.5-.2-1-.1-1.7.1-.6.2-1.8.8-3.4,1.8l-7.6,4.3,5,8.9Z"/>
    <path class="st0" d="M424.1,496.8l-12.2-16.7,12.3-9c2.9-2.1,4.6-3.3,5.2-3.7.6-.4,1.3-.6,2.1-.6.9,0,1.7.1,2.5.6.7.5,1.6,1.5,2.7,2.9.9,1.2,1.5,2.2,1.7,2.8s.3,1.3.2,2c-.2.7-.7,1.4-1.5,2.2,1.1-.7,2.1-1,3-.8.5.1,1,.4,1.4.8s1.1,1.3,2.2,2.8l1.1,1.5-5,3.7-.7-.9c-.7-.9-1.2-1.6-1.6-1.9-.4-.3-.7-.6-1.1-.6-.3,0-.7,0-1,.2-.4.2-1.1.7-2.1,1.4l-7.2,5.2,3.1,4.2-5.1,3.7ZM423,484.7l7.1-5.2c1.2-.9,2-1.5,2.2-1.7.2-.2.4-.4.5-.6.1-.3.1-.6,0-1-.1-.3-.4-.8-.8-1.3-.4-.5-.8-.9-1-1.1-.3-.2-.6-.3-1-.2-.2,0-.5.2-.7.3-.3.2-1,.7-2.2,1.5l-7.1,5.2,3,4.1Z"/>
    <path class="st0" d="M464.1,463.9l-3.7-1.3-10,9.4,1.1,3.8-5.2,4.9-6.2-22.6,7.1-6.7,22,7.7-5.2,4.9ZM455.7,460.8l-8.3-3-.9.9,2.5,8.4,6.7-6.3Z"/>
  </g>
  <g>
    <path class="st0" d="M58.9,239.9l-20.7-4.9,3.4-14.2c.7-2.8,1.2-4.6,1.5-5.4.8-2,1.8-3.2,3-3.7,1.2-.5,3.2-.4,5.9.3,2.6.6,4.3,1.3,5.2,2.2.6.6,1,1.3,1.2,2.1.2.8.2,1.9,0,3.2-.1.9-.5,2.6-1,5.1l-1.9,7.9,5.1,1.2-1.5,6.3ZM50.2,231.2l1.9-7.9c.3-1.4.5-2.3.6-2.6,0-.3,0-.6,0-.9,0-.4-.3-.6-.6-.9-.3-.2-.8-.4-1.6-.6-.7-.2-1.3-.2-1.7-.2-.4,0-.7.3-.9.6-.2.3-.5,1.3-1,3.2l-1.9,7.9,5.3,1.3Z"/>
    <path class="st0" d="M72.8,193.4l-4,.5-4.9,13.2,2.7,3-2.6,6.9-16-17.9,3.5-9.4,23.8-3.1-2.5,6.9ZM63.7,194.4l-9,1.1-.4,1.2,6.1,6.6,3.3-8.9Z"/>
    <path class="st0" d="M56.8,176.3l5.4-10,19.2-2.3.3-.6-14-7.3,3.1-5.8,18.7,10-5.3,9.9-19.2,2.4-.3.6,14,7.3-3.1,5.8-18.7-10Z"/>
    <path class="st0" d="M81.6,134.2c2.7-3.7,4.6-6.2,5.8-7.5,1.7-1.8,3.6-2.3,5.5-1.6,1.4.5,3.4,1.7,6,3.7,2.7,2,4.5,3.5,5.4,4.6,1.3,1.6,1.4,3.6.2,5.8-.8,1.5-2.6,4.1-5.3,7.8-2.7,3.7-4.7,6.2-5.9,7.5-1.7,1.8-3.6,2.3-5.5,1.6-1.4-.5-3.4-1.8-6.2-3.8-2.6-1.9-4.4-3.4-5.3-4.5-1.3-1.6-1.4-3.6-.2-5.8.8-1.5,2.6-4.1,5.3-7.9ZM86.1,137.4c-2,2.8-3.2,4.5-3.4,5.2-.3.8-.2,1.5.2,2.1.4.6,1.5,1.6,3.3,2.8,1,.8,1.8,1.3,2.4,1.5,1,.4,2,.2,2.9-.8.7-.7,1.8-2.2,3.5-4.4,1.5-2.1,2.5-3.5,2.9-4.3.4-.8.6-1.4.6-1.9,0-.5-.2-.9-.6-1.4-.4-.4-1.1-1-2.1-1.8-1.2-.9-2.2-1.5-2.8-1.9-.6-.3-1.2-.5-1.6-.5-.6,0-1.1.3-1.7.9-.6.6-1.7,2.1-3.5,4.5Z"/>
    <path class="st0" d="M116.9,113.4l4.5-4.7c.8.7,1.3,1.1,1.5,1.3,1.2,1.1,2,2.2,2.3,3.2.4,1.1.2,2.4-.6,3.8-.8,1.4-2.5,3.5-5.2,6.3-2.8,2.9-4.8,5-6.1,6.1-1.3,1.1-2.4,1.9-3.3,2.2-.8.3-1.6.3-2.4.1s-1.6-.7-2.6-1.4c-.8-.6-2.1-1.8-3.9-3.5-1.8-1.7-3-2.9-3.8-3.8-.7-.8-1.2-1.5-1.5-2.1-.6-1.4-.4-2.8.6-4.4,1-1.6,3.3-4.4,7.1-8.3,1.9-2,3.3-3.4,4.2-4.2.9-.8,1.8-1.4,2.6-1.7,1-.4,2-.4,2.9,0s2,1.1,3.3,2.3c0,0,.3.3.8.7l-4.5,4.7c-.5-.5-.9-.8-1.1-.9-.2-.1-.4-.2-.7-.2-.3,0-.9.4-1.6,1-.8.7-1.8,1.7-3.3,3.2-1.4,1.5-2.3,2.5-2.8,3.1-.5.6-.7,1.1-.8,1.6,0,.5.2,1,.6,1.7.4.6,1.2,1.5,2.4,2.6,1.2,1.1,2,1.8,2.6,2.2.6.4,1.1.5,1.6.4.5,0,1-.4,1.6-.9s1.6-1.5,3-3c1.7-1.8,2.8-3,3.3-3.7.5-.7.8-1.2.8-1.6,0-.5-.5-1.3-1.4-2.2Z"/>
    <path class="st0" d="M115,96.9l18.1-15.1,3.2,3.8-13.2,11,2,2.4,12.5-10.4,3,3.6-12.5,10.4,2.2,2.6,13.3-11.1,3.3,3.9-18.2,15.1-13.6-16.3Z"/>
    <path class="st0" d="M167.2,84.6l-3.5-2-11.7,7.8.5,4-6.2,4.1-2.4-23.9,8.4-5.6,21,11.5-6.1,4.1ZM159.2,80l-7.9-4.4-1.1.7,1.1,9,7.9-5.3Z"/>
    <path class="st0" d="M164.7,61.4l10.3-4.8,16.8,9.6.6-.3-6.8-14.3,6-2.8,9,19.3-10.2,4.8-16.8-9.6-.6.3,6.8,14.3-6,2.8-9-19.3Z"/>
    <path class="st0" d="M195.8,47.7l6.4-2.3,7.2,20-6.4,2.3-7.2-20Z"/>
    <path class="st0" d="M234,58.3l-2.7-3-13.6,3.6-.8,3.9-7.2,1.9,5.5-23.4,9.7-2.6,16.1,17.7-7.1,1.9ZM228,51.4l-6-6.7-1.2.3-1.9,8.8,9.2-2.4Z"/>
    <path class="st0" d="M246.6,34.5l6.7-.9,2.8,21.1-6.7.9-2.8-21.1Z"/>
    <path class="st0" d="M257.7,32.7l11.3-.5,11.8,15.4h.7s-.8-15.9-.8-15.9l6.6-.3.9,21.2-11.2.5-11.8-15.4h-.7s.8,15.9.8,15.9l-6.6.3-.9-21.2Z"/>
    <path class="st0" d="M290.4,52.8l2-21.2,15.3,1.4c2.7.3,4.5.4,5.3.6.8.1,1.7.3,2.6.6,2.1.6,3.3,2,3.8,4,.2.8.3,1.6.3,2.4s0,2.2-.2,3.9c-.2,1.9-.4,3.3-.5,4.3-.2,1-.5,1.8-.8,2.6-.8,1.8-2.2,2.8-4.2,3.1-.9.1-1.9.2-3,.1-1,0-2.8-.2-5.1-.4l-15.3-1.4ZM297.3,48l9,.8c1.7.2,2.9.2,3.7.2.8,0,1.4-.2,1.7-.4.4-.3.7-.7.9-1.4.2-.6.4-1.6.5-2.9.1-1.3.2-2.3,0-3,0-.7-.2-1.2-.5-1.6-.3-.4-.8-.7-1.5-.9-.7-.2-2-.3-3.9-.5l-8.9-.8-1,10.5Z"/>
    <path class="st0" d="M324.2,35.3l6.7,1.2-3.8,20.9-6.7-1.2,3.8-20.9Z"/>
    <path class="st0" d="M345.2,49.3l14.3,3.9c0,.3-.1.5-.1.6-.8,2.9-1.5,5.1-2,6.5-.9,2.3-2.6,3.4-5.2,3.2-1.1,0-2.4-.3-3.7-.6-1.4-.3-3.5-.8-6.2-1.6-3.5-1-6-1.7-7.4-2.3-1.4-.6-2.5-1.3-3.2-2.1-.5-.5-.8-1.2-.9-1.9-.1-.7-.1-1.6,0-2.6.1-1,.6-2.8,1.3-5.6.5-1.9.9-3.3,1.3-4.2.4-.9.8-1.7,1.3-2.4,1-1.4,2.5-2,4.6-1.9,2.2.2,5.5.9,9.8,2.1,2.6.7,4.6,1.3,6.1,1.9,1.5.5,2.6,1.1,3.5,1.7,1.4.9,2.1,2.2,2,4,0,.9-.3,2-.7,3.4l-6.3-1.7c.1-.6.2-1,.2-1.2,0-.2,0-.4-.2-.6-.3-.3-1-.7-2.1-1.1-1-.3-2.5-.8-4.5-1.3-2.2-.6-3.7-1-4.7-1.1-1-.2-1.6-.1-2.1,0-.4.2-.8.6-1.1,1.2-.3.6-.6,1.7-1.1,3.2-.5,1.7-.7,3-.8,3.7,0,.7,0,1.3.3,1.6.3.4.7.6,1.2.8s2.2.7,5.1,1.5c2.9.8,4.6,1.2,5.2,1.3.6.1,1.1.2,1.5.1.3,0,.6-.2.8-.5.2-.3.4-.7.5-1.3,0,0,0-.3.1-.6l-8.2-2.2,1.1-4.1Z"/>
    <path class="st0" d="M379.6,50.9c4.2,1.8,7.1,3.1,8.6,4,2.2,1.3,3.1,2.9,2.8,5-.2,1.4-.9,3.7-2.2,6.7-1.3,3.1-2.4,5.2-3.3,6.3-1.3,1.7-3.2,2.2-5.6,1.5-1.7-.5-4.6-1.6-8.8-3.3-4.3-1.8-7.2-3.1-8.7-4-2.2-1.3-3.1-2.9-2.8-5,.2-1.4.9-3.7,2.2-6.9,1.2-3,2.3-5,3.2-6.2,1.3-1.7,3.2-2.2,5.6-1.5,1.7.5,4.6,1.6,8.9,3.3ZM377.5,56.1c-3.2-1.3-5.1-2-5.8-2.1-.8-.1-1.5.1-2,.7-.5.6-1.2,1.8-2,3.8-.5,1.2-.8,2.1-.9,2.7-.2,1.1.3,2,1.5,2.6.8.5,2.5,1.3,5.1,2.3,2.4,1,4,1.6,4.9,1.9.8.2,1.5.3,2,.2.5-.1.9-.4,1.2-.9.3-.5.8-1.3,1.3-2.5.6-1.4,1-2.5,1.2-3.2s.2-1.3.1-1.7c-.1-.6-.6-1-1.2-1.4-.7-.4-2.4-1.2-5.2-2.3Z"/>
    <path class="st0" d="M396.4,74.7l5.3,3.3c-.6.9-.7,1.6-.5,2.1.2.3.4.6.8.9.4.3,1.7,1.1,3.9,2.5,2.3,1.4,3.7,2.3,4.2,2.6.5.3.9.4,1.2.5.5,0,1-.2,1.5-1,.3-.5.4-1,.2-1.3-.2-.4-.7-.8-1.6-1.4-.7-.4-2.1-1.4-4.2-2.8-2.2-1.5-3.6-2.5-4.3-2.9-1.3-.9-2.2-1.6-2.8-2.3-.6-.6-.9-1.3-1-2-.2-1.2.3-2.7,1.4-4.5,1.3-2,2.5-3.2,3.8-3.6,1-.3,2.2-.1,3.5.4,1.3.6,3.9,2,7.6,4.4,2.7,1.7,4.5,2.9,5.5,3.7,1.5,1.3,2.4,2.4,2.5,3.5.2,1.1-.2,2.4-1.2,4.1,0,.2-.3.4-.5.8l-5.3-3.3c.3-.5.5-.9.5-1.1,0-.2,0-.5-.1-.7-.1-.3-.5-.6-1.1-1.1-.6-.4-1.8-1.2-3.8-2.4-2.3-1.5-3.8-2.3-4.4-2.4-.6-.2-1.1,0-1.5.7-.4.6-.4,1.2,0,1.6.4.4,2.2,1.7,5.6,4,2.9,1.9,4.7,3.2,5.7,4,.9.7,1.5,1.4,1.9,2.1.4.8.5,1.6.4,2.5-.2.9-.6,1.9-1.4,3.2-1.1,1.7-2.1,2.8-3,3.4-.7.4-1.5.6-2.3.5-.8,0-1.8-.4-3-1-1.3-.6-3.5-2-6.7-4-2.7-1.7-4.7-3-5.9-4-1.2-.9-2-1.8-2.5-2.6-.4-.8-.6-1.6-.5-2.4.1-.8.6-1.8,1.4-3.1l.5-.8Z"/>
    <path class="st0" d="M416,95.4l13.3-16.6,11.4,9.1c2.3,1.8,3.7,3,4.2,3.6,1.5,1.5,2.2,3,2.1,4.3s-1,3-2.7,5.2c-1.6,2-3,3.3-4.2,3.7-.8.3-1.6.4-2.4.2-.8-.2-1.8-.6-2.9-1.3-.8-.5-2.2-1.5-4.1-3.1l-6.4-5.1-3.3,4.1-5.1-4.1ZM427.7,91.3l6.3,5.1c1.2.9,1.9,1.5,2.1,1.6.3.2.6.3.8.4.4,0,.7,0,1-.2.3-.2.7-.6,1.2-1.2.5-.6.8-1.1.9-1.4,0-.4,0-.7-.2-1.1-.2-.3-1-1-2.5-2.3l-6.3-5.1-3.4,4.2Z"/>
    <path class="st0" d="M452.1,97.5l16.5,16.7-3.6,3.5-12.1-12.2-2.2,2.2,11.4,11.6-3.3,3.3-11.4-11.6-2.4,2.4,12.1,12.3-3.6,3.6-16.6-16.8,15.1-14.9Z"/>
    <path class="st0" d="M473.5,141.2l4,5.1c-.8.7-1.3,1.1-1.5,1.3-1.3,1-2.5,1.6-3.5,1.8-1.2.2-2.4-.2-3.6-1.2-1.3-1-3.1-3-5.4-6.1-2.5-3.2-4.2-5.5-5.1-7-.9-1.5-1.5-2.7-1.7-3.6-.2-.9,0-1.7.2-2.4.3-.7.9-1.5,1.8-2.3.7-.7,2-1.8,4-3.3,1.9-1.5,3.4-2.6,4.3-3.2.9-.6,1.7-1,2.3-1.1,1.4-.4,2.9,0,4.3,1.2,1.4,1.2,3.8,3.9,7.2,8.2,1.7,2.2,2.9,3.8,3.5,4.8.7,1.1,1.1,2,1.3,2.8.2,1,.1,2-.3,2.9-.5.9-1.4,1.8-2.8,2.9,0,0-.4.3-.8.6l-4-5.1c.5-.5.9-.8,1-1s.2-.4.3-.6c0-.3-.2-.9-.8-1.8-.5-.9-1.4-2.1-2.7-3.7-1.2-1.6-2.1-2.7-2.7-3.2-.5-.6-1-.9-1.4-1-.5-.1-1.1,0-1.7.3-.7.3-1.6,1-2.9,2-1.3,1-2.1,1.7-2.6,2.3-.4.5-.7,1-.6,1.5,0,.5.2,1,.6,1.7s1.2,1.8,2.5,3.4c1.5,2,2.6,3.2,3.1,3.8.6.6,1.1.9,1.5,1,.5,0,1.3-.3,2.4-1.1Z"/>
    <path class="st0" d="M479,146.4l7.4,11.1-3.6,2.4-7.5-11.2,3.6-2.4Z"/>
    <path class="st0" d="M504.7,166.5c2.1,4.1,3.5,6.9,4,8.6.8,2.4.5,4.2-1,5.7-1.1,1-3.1,2.2-6,3.8-2.9,1.5-5.1,2.4-6.5,2.7-2.1.4-3.8-.4-5.2-2.4-1-1.4-2.5-4.2-4.6-8.2-2.1-4.1-3.5-7-4.1-8.6-.8-2.4-.5-4.2,1-5.7,1.1-1,3.1-2.3,6.1-3.8,2.9-1.5,5-2.4,6.4-2.7,2.1-.4,3.8.4,5.2,2.4,1,1.4,2.5,4.2,4.7,8.3ZM499.8,169.1c-1.6-3.1-2.6-4.8-3.1-5.4-.6-.6-1.2-.9-2-.8-.8.1-2.1.7-4,1.6-1.2.6-2,1.1-2.4,1.5-.8.7-1,1.7-.6,2.9.3.9,1.1,2.6,2.4,5.1,1.2,2.3,2,3.8,2.5,4.6.5.7,1,1.2,1.4,1.4.4.2.9.2,1.5,0s1.4-.5,2.6-1.1c1.4-.7,2.3-1.3,2.9-1.7.6-.4,1-.8,1.2-1.2.2-.5.2-1.1,0-1.9-.3-.8-1.1-2.5-2.5-5.1Z"/>
    <path class="st0" d="M492.9,191.2l20-7.3,5,13.7c1,2.7,1.6,4.5,1.8,5.3.5,2.1.3,3.6-.4,4.7-.8,1.1-2.4,2.1-5,3-2.5.9-4.3,1.2-5.5,1-.8-.1-1.5-.5-2.1-1.1-.6-.6-1.2-1.4-1.8-2.6-.4-.8-1.1-2.4-1.9-4.8l-2.8-7.6-4.9,1.8-2.2-6.1ZM505,193.7l2.8,7.6c.5,1.4.8,2.2,1,2.5.1.3.3.5.5.7.3.3.6.4,1,.4.4,0,.9-.1,1.6-.4.7-.3,1.2-.5,1.5-.8.3-.3.4-.6.4-1,0-.3-.3-1.4-1-3.3l-2.8-7.6-5.1,1.9Z"/>
    <path class="st0" d="M508.7,214.3l1.4,6.1c-1,.2-1.6.6-1.8,1.1-.1.3-.1.8,0,1.3,0,.5.4,2,1,4.6.6,2.7,1,4.3,1.2,4.8s.3.9.5,1.2c.3.4.9.5,1.7.3.6-.1,1-.4,1.1-.8.1-.4,0-1.1-.1-2.1-.2-.8-.5-2.4-1-5-.5-2.6-.8-4.3-1-5.1-.3-1.5-.4-2.7-.4-3.6,0-.9.3-1.6.7-2.2.7-1,2.1-1.7,4.2-2.2,2.3-.5,4.1-.5,5.3.2.9.5,1.6,1.4,2.2,2.8.5,1.4,1.3,4.2,2.3,8.5.7,3,1.1,5.2,1.3,6.5.2,2,0,3.4-.7,4.3-.6.9-1.9,1.6-3.8,2-.2,0-.5.1-1,.2l-1.4-6.1c.6-.2,1-.3,1.1-.4.2-.1.3-.3.4-.6,0-.3,0-.8,0-1.5-.1-.7-.4-2.2-1-4.4-.6-2.7-1.1-4.3-1.4-4.8-.3-.5-.8-.7-1.6-.6-.7.2-1.1.6-1.1,1.2,0,.5.4,2.8,1.2,6.8.7,3.4,1.1,5.6,1.2,6.8.1,1.2,0,2.1-.1,2.9-.3.9-.8,1.5-1.5,2-.7.5-1.8.9-3.3,1.3-1.9.5-3.5.5-4.5.2-.8-.2-1.4-.7-1.9-1.3-.5-.6-1-1.6-1.4-2.8-.4-1.3-1.1-3.9-2-7.6-.7-3.1-1.2-5.4-1.4-7-.2-1.5-.2-2.7,0-3.6.3-.9.7-1.6,1.4-2,.7-.5,1.7-.9,3.2-1.2l1-.2Z"/>
  </g>
</svg>