<?xml version="1.0" encoding="UTF-8"?><svg id="Capa_1" xmlns="http://www.w3.org/2000/svg" viewBox="0 0 566.93 566.93"><defs><style>.cls-1{fill:#3d546c;}.cls-1,.cls-2,.cls-3,.cls-4{stroke-width:0px;}.cls-2{fill:#fff;}.cls-3{fill:#35495e;}.cls-4{fill:#d7282f;}</style></defs><circle class="cls-2" cx="283.46" cy="283.46" r="274.74"/><path class="cls-3" d="m283.46,562.68c-74.58,0-144.7-29.04-197.43-81.78C33.3,428.16,4.25,358.04,4.25,283.46s29.04-144.7,81.78-197.43C138.77,33.3,208.88,4.25,283.46,4.25s144.7,29.04,197.43,81.78c52.74,52.74,81.78,122.85,81.78,197.43s-29.04,144.7-81.78,197.43c-52.74,52.74-122.85,81.78-197.43,81.78Zm0-549.48C134.44,13.2,13.2,134.44,13.2,283.46s121.24,270.27,270.27,270.27,270.27-121.24,270.27-270.27S432.49,13.2,283.46,13.2Z"/><path class="cls-4" d="m283.46,496.48l-24.79,11.12c-8,3.59-16.67,4.95-25.36,4.03-36.1-3.82-52.35-4.39-88.71-17.49,35.9,3.03,75.94-1.37,126.18-21.9,1.4-.58,2.75-1.14,4.03-1.68,1.26-.6,2.46-1.17,3.56-1.7,2.57-1.25,4.13-2,5.1-2.48.97.47,2.53,1.23,5.1,2.48,1.1.53,2.3,1.1,3.56,1.7,1.28.53,2.63,1.1,4.03,1.68,50.23,20.53,90.28,24.93,126.18,21.9-37.24,13.42-53.4,13.69-91.38,17.77-6.88.74-13.85-.35-20.18-3.19l-27.3-12.24Z"/><path class="cls-4" d="m250.32,468.97c-21.82,11.43-41.16,16.77-65.78,20.29-12.69-2.42-32.04-8.4-53.27-18.46l-2.47-1.18c-.83-.38-1.61-.84-2.41-1.26-15.64-8.39-27.92-15.8-45.02-29.99,18.93,8.72,48.46,20.62,107.88,23.15,9.69.37,20.8.36,30.36-.93,5.2,1.79,15.32,5.58,30.7,8.37Z"/><path class="cls-4" d="m316.61,468.97c21.82,11.43,41.16,16.77,65.78,20.29,12.69-2.42,32.04-8.4,53.27-18.46l2.47-1.18c.83-.38,1.61-.84,2.41-1.26,15.64-8.39,27.92-15.8,45.02-29.99-18.93,8.72-48.46,20.62-107.88,23.15-9.69.37-20.8.36-30.36-.93-5.2,1.79-15.32,5.58-30.7,8.37Z"/><path class="cls-4" d="m187.64,445.5s-.99.12-2.73.32c-.43.05-.92.11-1.45.16-.52.04-1.08.08-1.68.12-1.22.08-2.59.17-4.08.27-1.52.08-3.18.17-4.92.26-.89.06-1.77.05-2.69.06-.92,0-1.86,0-2.82,0-16.88-.03-32.87-2.09-46.49-5.52-31.81-21.09-56.85-45.75-78.24-82.28,32.41,32.19,78.83,56.44,118.95,67.94,1.08.96-.55-.4,7.92,6.41,1.53,1.11,3.16,2.29,4.78,3.46.81.59,1.63,1.18,2.43,1.77.8.59,1.64,1.08,2.42,1.61,1.58,1.03,3.05,1.99,4.31,2.82.63.41,1.2.8,1.72,1.12.53.31.99.58,1.37.8.76.44,1.19.7,1.19.7Z"/><path class="cls-4" d="m379.29,445.5s.99.12,2.73.32c.43.05.92.11,1.45.16.52.04,1.08.08,1.68.12,1.22.08,2.59.17,4.08.27,1.52.08,3.18.17,4.92.26.89.06,1.77.05,2.69.06.92,0,1.86,0,2.82,0,16.88-.03,32.87-2.09,46.49-5.52,31.81-21.09,56.85-45.75,78.24-82.28-32.41,32.19-78.83,56.44-118.95,67.94-1.08.96.55-.4-7.92,6.41-1.53,1.11-3.16,2.29-4.78,3.46-.81.59-1.63,1.18-2.43,1.77-.8.59-1.64,1.08-2.42,1.61-1.58,1.03-3.05,1.99-4.31,2.82-.63.41-1.2.8-1.72,1.12-.53.31-.99.58-1.37.8-.76.44-1.19.7-1.19.7Z"/><path class="cls-4" d="m136.44,401.55c-18.38-4.45-40.89-14.38-59.57-27.1-21.75-29.46-37.64-62.89-44.69-102.65,20.98,44.95,64.68,87.47,85.89,103,4.33,7.7,12.4,19.75,18.37,26.75Z"/><path class="cls-4" d="m430.49,401.55c18.38-4.45,40.89-14.38,59.57-27.1,21.75-29.46,37.64-62.89,44.69-102.65-20.98,44.95-64.68,87.47-85.89,103-4.33,7.7-12.4,19.75-18.37,26.75Z"/><path class="cls-4" d="m102.96,342.42c-16.44-12.11-31.7-26.24-45.21-45.45-11.47-39.87-12.89-78.18-7.22-109.86,3.43,39.62,27.46,98.08,44.14,123.7,2.74,15.71,6.42,25.97,8.28,31.61Z"/><path class="cls-4" d="m463.97,342.42c16.44-12.11,31.7-26.24,45.21-45.45,11.47-39.87,12.89-78.18,7.22-109.86-3.43,39.62-27.46,98.08-44.14,123.7-2.74,15.71-6.42,25.97-8.28,31.61Z"/><path class="cls-4" d="m91.34,275.11c-12.38-19.33-18.74-32.8-26.13-57.16.89-29.01,11.08-70.14,29.94-103.49-9.85,37.22-7.56,97.62-1.05,127.88-2.13,12.04-2.49,22.46-2.76,32.76Z"/><path class="cls-4" d="m475.59,275.11c12.38-19.33,18.74-32.8,26.13-57.16-.89-29.01-11.08-70.14-29.94-103.49,9.85,37.22,7.56,97.62,1.05,127.88,2.13,12.04,2.49,22.46,2.76,32.76Z"/><path class="cls-4" d="m102.84,207.71c-3.88-13.76-6.66-44.94-4.56-61.12,5.96-13.16,22.66-51.47,61.84-84.81-19.26,28.07-38.71,82.13-43.65,116.07-7.28,12.88-13.15,27.99-13.63,29.86Z"/><path class="cls-4" d="m464.09,207.71c3.88-13.76,6.66-44.94,4.56-61.12-5.96-13.16-22.66-51.47-61.84-84.81,19.26,28.07,38.71,82.13,43.65,116.07,7.28,12.88,13.15,27.99,13.63,29.86Z"/><path class="cls-4" d="m136.33,148.37c3.22-22.88,9.72-43.39,16.32-57.23,26.92-27.71,56.67-46.4,85.06-56.63-27.59,19.41-65.46,66.08-78.51,90.39-9.94,8.77-14.39,13.5-22.87,23.47Z"/><path class="cls-4" d="m430.6,148.37c-3.22-22.88-9.72-43.39-16.32-57.23-26.92-27.71-56.67-46.4-85.06-56.63,27.59,19.41,65.46,66.08,78.5,90.39,9.94,8.77,14.39,13.5,22.87,23.47Z"/><path class="cls-4" d="m187.69,104.1c11.05-6.49,17.62-9.47,29.37-14.2,8.66-7.65,37.09-37.86,66.4-52.54-16.51,3.71-45.67,12.79-61.74,20.4-13.46,13.48-24.7,28.78-34.03,46.33Z"/><path class="cls-4" d="m379.24,104.1c-11.05-6.49-17.62-9.47-29.37-14.2-8.66-7.65-37.09-37.86-66.4-52.54,16.51,3.71,45.67,12.79,61.74,20.4,13.46,13.48,24.7,28.78,34.03,46.33Z"/><path class="cls-4" d="m283.46,77.21c-.07.02-.13.05-.2.07-12.15.32-20.29.85-32.51,3.09,10.08-8.84,22.45-17.2,32.71-23.12,10.26,5.92,22.63,14.27,32.71,23.12-12.22-2.23-20.36-2.77-32.51-3.09-.07-.02-.13-.05-.2-.07Z"/><polygon class="cls-2" points="29.66 182.92 71.24 284.8 33.81 389.8 278.13 282.72 29.66 182.92"/><path class="cls-3" d="m29.64,394.28l39-109.42-43.4-106.33,259.15,104.09L29.64,394.28Zm4.42-206.98l39.77,97.44-35.85,100.58,233.88-102.51L34.07,187.3Z"/><path class="cls-4" d="m57.07,370.91l30.53-85.66-34.01-83.32,202.99,81.53-199.51,87.45Zm7.87-157.7l29.34,71.89-26.48,74.3,172.68-75.68-175.54-70.51Z"/><polygon class="cls-2" points="537.27 381.07 495.69 279.19 533.11 174.19 288.8 281.27 537.27 381.07"/><path class="cls-3" d="m537.29,169.71l-39,109.42,43.4,106.33-259.15-104.09,254.75-111.66Zm-4.42,206.98l-39.77-97.44,35.85-100.58-233.88,102.51,237.8,95.52Z"/><path class="cls-4" d="m509.86,193.08l-30.53,85.66,34.01,83.32-202.99-81.53,199.51-87.45Zm-7.87,157.7l-29.34-71.89,26.48-74.3-172.68,75.68,175.54,70.51Z"/><polygon class="cls-2" points="382.54 29.66 280.66 71.24 175.66 33.81 282.74 278.13 382.54 29.66"/><path class="cls-3" d="m171.18,29.64l109.42,39,106.33-43.4-104.09,259.15L171.18,29.64Zm206.98,4.42l-97.44,39.77-100.58-35.85,102.51,233.88,95.52-237.8Z"/><path class="cls-4" d="m194.55,57.07l85.66,30.53,83.32-34.01-81.53,202.99L194.55,57.07Zm157.7,7.87l-71.89,29.34-74.3-26.48,75.68,172.68,70.51-175.54Z"/><polygon class="cls-2" points="184.39 537.27 286.27 495.69 391.27 533.11 284.19 288.8 184.39 537.27"/><path class="cls-3" d="m395.75,537.29l-109.42-39-106.33,43.4,104.09-259.15,111.66,254.75Zm-206.98-4.42l97.44-39.77,100.58,35.85-102.51-233.88-95.52,237.8Z"/><path class="cls-4" d="m372.38,509.86l-85.66-30.53-83.32,34.01,81.53-202.99,87.45,199.51Zm-157.7-7.87l71.89-29.34,74.3,26.48-75.68-172.68-70.51,175.54Z"/><path class="cls-3" d="m281.48,455.03c-48.48,0-94.06-18.88-128.34-53.16-34.28-34.28-53.16-79.86-53.16-128.34s18.88-94.06,53.16-128.34c34.28-34.28,79.86-53.16,128.34-53.16s94.06,18.88,128.34,53.16c34.28,34.28,53.16,79.86,53.16,128.34s-18.88,94.06-53.16,128.34c-34.28,34.28-79.86,53.16-128.34,53.16Zm0-358.89c-97.81,0-177.38,79.57-177.38,177.38s79.57,177.38,177.38,177.38,177.38-79.57,177.38-177.38-79.57-177.38-177.38-177.38Z"/><ellipse class="cls-2" cx="281.48" cy="273.52" rx="178.9" ry="176.04"/><path class="cls-4" d="m281.48,103.36c-93.98,0-170.16,76.18-170.16,170.16s76.18,170.16,170.16,170.16,170.16-76.18,170.16-170.16-76.18-170.16-170.16-170.16Zm0,294.26c-69.65,0-126.12-55.56-126.12-124.1s56.46-124.1,126.12-124.1,126.12,55.56,126.12,124.1-56.46,124.1-126.12,124.1Z"/><path class="cls-1" d="m140.43,319.13c-34.58-24.4-91.43-11.61-118.82,16.92,13.86,1.28,27.5,3.52,40.62,8.32-7.32,10.55-13.17,21.11-18.02,32.98,20.66-23.4,62.35-26.72,82.96-11.52-.17-.04,13.03-46.46,13.26-46.7Z"/><path class="cls-1" d="m426.5,319.13c34.58-24.4,91.43-11.61,118.82,16.92-13.86,1.28-27.5,3.52-40.62,8.32,7.32,10.55,13.17,21.11,18.02,32.98-20.66-23.4-62.35-26.72-82.96-11.52.17-.04-13.03-46.46-13.26-46.7Z"/><polygon class="cls-3" points="492.14 384.88 447.9 340.65 426.5 319.13 439.77 365.83 492.14 384.88"/><polygon class="cls-3" points="140.43 319.13 127.16 365.83 74.79 384.88 119.02 340.65 140.43 319.13"/><path class="cls-3" d="m119.02,340.65c94.03,89.02,234.86,89.01,328.88,0,14.74,14.74,29.49,29.49,44.23,44.23-118.21,113.16-299.13,113.16-417.34,0,14.74-14.74,29.49-29.49,44.23-44.23Z"/><path class="cls-2" d="m143.45,391.89c-4.45-2.57-6.66-3.92-11.01-6.71-1.13,1.76-1.69,2.64-2.82,4.4,4.08,2.62,6.15,3.88,10.31,6.31-1.06,1.83-1.6,2.74-2.66,4.57-4.24-2.47-6.34-3.76-10.5-6.42-2.57,4.01-3.85,6.02-6.42,10.03-2.8-1.79-4.19-2.71-6.95-4.59,6.23-9.17,9.34-13.75,15.57-22.91,6.73,4.57,10.16,6.73,17.13,10.76-1.06,1.83-1.59,2.74-2.64,4.57Z"/><path class="cls-2" d="m168.22,414.03c-1.8,4.1-4.45,6.79-8.06,7.98-3.6,1.18-7.68.7-12.1-1.51-4.43-2.22-7.28-5.23-8.48-8.86-1.2-3.63-.66-7.36,1.52-11.2,2.2-3.87,5.1-6.26,8.63-7.27,3.53-1.01,7.24-.48,11.25,1.53,4,2.01,6.62,4.64,7.92,8.06,1.3,3.42,1.11,7.17-.69,11.28Zm-7.35-3.36c.7-1.49,1.13-2.84,1.28-4.06.15-1.21.11-2.29-.14-3.23-.26-.96-.69-1.78-1.28-2.43s-1.28-1.18-2.07-1.58c-.84-.42-1.66-.67-2.48-.75-.82-.08-1.73.06-2.71.43-.89.33-1.79.95-2.7,1.82-.91.87-1.75,2.03-2.52,3.48-.8,1.5-1.29,2.84-1.48,4.01-.18,1.17-.15,2.25.1,3.23.25,1,.7,1.85,1.34,2.55.63.69,1.37,1.25,2.21,1.67.85.43,1.76.68,2.72.76.96.08,1.9-.08,2.79-.48.97-.42,1.85-1.05,2.64-1.86.79-.81,1.56-2.01,2.3-3.58Z"/><path class="cls-2" d="m195.29,438.83c-3.78-1.16-5.66-1.78-9.41-3.06-2.09-5.02-3.08-7.53-4.91-12.57-1.06-.4-1.58-.6-2.64-1.01-1.47,3.79-2.2,5.68-3.67,9.47-3.03-1.17-4.53-1.78-7.53-3.04,4.28-10.22,6.42-15.33,10.7-25.55,4.39,1.84,6.61,2.71,11.06,4.36,1.54.57,2.84,1.14,3.93,1.72,1.08.58,2.02,1.33,2.8,2.24.8.93,1.35,1.97,1.64,3.09.29,1.12.21,2.4-.25,3.82-.66,2.02-1.68,3.49-3.11,4.42-1.42.92-3.11,1.46-5.07,1.61,2.41,5.82,3.71,8.73,6.48,14.51Zm-5.98-22.22c.23-.65.3-1.27.19-1.84-.11-.57-.43-1.1-.97-1.58-.38-.34-.83-.63-1.36-.87-.53-.25-1.19-.52-2-.82-.94-.36-1.42-.54-2.36-.9-1.08,2.78-1.62,4.17-2.7,6.96.83.32,1.24.48,2.07.79,1.01.38,1.89.65,2.63.79.75.15,1.44.12,2.05-.05.58-.16,1.07-.43,1.46-.8.39-.38.71-.93.97-1.67Z"/><path class="cls-2" d="m203.53,441.23c2.4-8.64,3.59-12.96,5.99-21.61-3.4-.94-5.1-1.44-8.48-2.49.63-2.02.94-3.03,1.57-5.05,9.45,2.94,14.23,4.19,23.85,6.27-.45,2.07-.67,3.1-1.12,5.16-3.44-.74-5.16-1.14-8.58-1.99-2.17,8.7-3.25,13.05-5.42,21.76-3.14-.78-4.7-1.19-7.82-2.06Z"/><path class="cls-2" d="m239.6,448.92c-6.83-1.03-10.23-1.64-17.01-3.06.4-1.89.59-2.84.99-4.73,1.78.37,2.67.55,4.45.9,1.37-7.08,2.06-10.62,3.43-17.7-1.68-.32-2.51-.49-4.19-.84.4-1.89.59-2.84.99-4.73,6.16,1.29,9.26,1.84,15.46,2.78-.29,1.91-.43,2.87-.72,4.78-1.69-.25-2.53-.39-4.21-.67-1.18,7.11-1.78,10.67-2.96,17.78,1.79.3,2.69.44,4.48.71-.29,1.91-.43,2.87-.72,4.78Z"/><path class="cls-2" d="m250.99,450.41c1-8.91,1.51-13.37,2.51-22.28-3.48-.39-5.22-.61-8.7-1.11.3-2.09.45-3.14.75-5.23,9.72,1.4,14.6,1.88,24.39,2.42-.12,2.11-.17,3.17-.29,5.28-3.5-.19-5.25-.32-8.74-.62-.77,8.93-1.15,13.4-1.92,22.34-3.2-.28-4.8-.43-8-.79Z"/><path class="cls-2" d="m271.72,452.04c.49-11.07.73-16.61,1.22-27.68,7.86.35,11.8.38,19.66.17.06,2.11.08,3.17.14,5.28-5.05.13-7.58.14-12.63.05-.04,1.94-.05,2.91-.09,4.86,4.74.09,7.1.08,11.84-.03.05,2.11.07,3.17.12,5.28-4.82.11-7.23.12-12.06.03-.05,2.8-.08,4.2-.13,6.99,5.36.1,8.04.08,13.4-.06.06,2.11.08,3.17.14,5.28-8.65.23-12.98.19-21.62-.19Z"/><path class="cls-2" d="m328.22,449.3c-3.89.55-5.83.8-9.73,1.22-3.99-3.65-5.93-5.51-9.69-9.29-1.11.09-1.66.13-2.78.21.29,4.05.43,6.08.72,10.13-3.19.22-4.78.32-7.98.46-.49-11.07-.74-16.61-1.23-27.68,4.67-.21,7.01-.36,11.68-.76,1.61-.14,3.02-.18,4.23-.11,1.21.07,2.37.35,3.44.84,1.11.5,2.04,1.21,2.77,2.1.74.89,1.2,2.08,1.39,3.57.27,2.1-.03,3.88-.91,5.32-.88,1.44-2.17,2.65-3.85,3.61,4.62,4.25,7.01,6.33,11.94,10.39Zm-14.75-17.58c-.07-.69-.27-1.27-.6-1.74-.33-.47-.85-.82-1.53-1.02-.48-.14-1.01-.21-1.58-.21-.57,0-1.28.04-2.13.1-.99.08-1.49.12-2.48.19.21,2.98.32,4.47.53,7.44.87-.06,1.31-.09,2.18-.16,1.06-.08,1.95-.22,2.68-.4.73-.18,1.33-.5,1.81-.92.44-.39.77-.84.96-1.34.19-.5.24-1.15.17-1.92Z"/><path class="cls-2" d="m358.94,443.32c-6.73,1.67-10.11,2.41-16.91,3.69-.36-1.9-.54-2.85-.9-4.75,1.78-.34,2.68-.51,4.46-.88-1.45-7.07-2.17-10.6-3.62-17.66-1.67.34-2.51.51-4.19.82-.36-1.9-.54-2.85-.9-4.75,6.18-1.17,9.26-1.84,15.38-3.36.47,1.88.7,2.82,1.17,4.69-1.66.41-2.49.61-4.16,1,1.63,7.02,2.45,10.54,4.08,17.56,1.77-.41,2.66-.62,4.42-1.06.47,1.88.7,2.82,1.17,4.69Z"/><path class="cls-2" d="m390.53,433.63c-2.94,1.08-4.42,1.6-7.39,2.6-7.2-5.72-10.67-8.68-17.31-14.78,2.17,7.41,3.26,11.12,5.44,18.53-2.84.83-4.27,1.23-7.13,2-2.86-10.71-4.29-16.06-7.15-26.77,3.49-.93,5.23-1.43,8.69-2.47,5.42,4.99,8.23,7.43,14.03,12.16-2.04-6.01-3.06-9.02-5.1-15.03,2.56-.87,3.84-1.32,6.38-2.25,3.82,10.4,5.73,15.61,9.54,26.01Z"/><path class="cls-2" d="m435.88,412.63c-3.52,1.99-5.29,2.96-8.86,4.83-5.13-1.9-7.65-2.9-12.6-5.01-1.02.5-1.54.75-2.57,1.23,1.74,3.67,2.61,5.51,4.35,9.18-2.95,1.4-4.44,2.08-7.42,3.4-4.48-10.14-6.72-15.2-11.2-25.34,4.37-1.93,6.53-2.94,10.83-5.07,1.48-.73,2.81-1.3,4-1.69,1.18-.39,2.38-.57,3.59-.52,1.24.05,2.38.36,3.41.91,1.03.55,1.9,1.48,2.62,2.8,1.02,1.86,1.37,3.63,1.05,5.3-.32,1.67-1.11,3.29-2.37,4.82,5.94,2.22,8.98,3.25,15.17,5.16Zm-20.45-10.81c-.32-.62-.72-1.08-1.21-1.4-.49-.31-1.1-.44-1.83-.38-.51.05-1.04.18-1.58.39-.55.22-1.21.51-1.99.89-.92.44-1.37.67-2.29,1.1,1.28,2.7,1.92,4.04,3.2,6.74.81-.38,1.21-.58,2.02-.97.98-.47,1.78-.93,2.41-1.38.63-.44,1.09-.97,1.39-1.54.28-.53.43-1.07.43-1.62,0-.54-.18-1.16-.54-1.86Z"/><path class="cls-2" d="m438,411.41c-5.54-9.6-8.31-14.4-13.85-24,7.04-4.07,10.51-6.24,17.3-10.86,1.19,1.75,1.78,2.62,2.97,4.37-4.37,2.97-6.58,4.4-11.05,7.14,1.02,1.66,1.52,2.48,2.54,4.14,4.19-2.57,6.26-3.91,10.36-6.67,1.18,1.75,1.77,2.63,2.95,4.38-4.18,2.82-6.29,4.18-10.55,6.79,1.46,2.38,2.2,3.58,3.66,5.96,4.74-2.91,7.08-4.42,11.72-7.57,1.19,1.75,1.78,2.62,2.97,4.37-7.48,5.08-11.29,7.47-19.03,11.94Z"/><path class="cls-2" d="m187.39,178.06c-.41,1.27-1.06,2.81-1.96,4.63-.9,1.82-1.97,3.46-3.2,4.93-2.84,3.39-6.09,5.27-9.73,5.64-3.64.37-7.26-.95-10.85-3.97-3.38-2.84-5.24-6.11-5.59-9.84-.35-3.72.95-7.33,3.88-10.82,1.52-1.8,2.92-3.13,4.21-3.97,1.29-.84,2.74-1.62,4.34-2.33l5.05,4.24-.41.49c-.42.09-1.02.22-1.8.4-.78.17-1.5.38-2.15.63-.76.28-1.55.68-2.37,1.21-.82.52-1.56,1.18-2.22,1.97-.78.93-1.34,1.89-1.69,2.9-.35,1.01-.48,2.06-.38,3.16.1,1.06.45,2.12,1.06,3.2.61,1.08,1.5,2.11,2.68,3.1,2.52,2.11,4.91,3.04,7.16,2.78,2.26-.26,4.31-1.48,6.15-3.67.16-.19.35-.42.56-.69.21-.27.39-.51.53-.72l-4.23-3.55-3.51,4.18-4.04-3.39,7.91-9.42,10.61,8.91Z"/><path class="cls-2" d="m189.3,178.23l-10.23-27.89,6.01-4.83,25.04,15.98-5.67,4.56-4.97-3.38-6.89,5.54,2.23,5.58-5.52,4.44Zm5.78-18.57l-8.06-5.43,3.58,9.03,4.48-3.6Z"/><path class="cls-2" d="m237.04,147.83l-6.3,3.13-8.3-16.71.77,13.06-4.32,2.14-9.94-8.51,8.29,16.71-5.96,2.96-12.51-25.21,7.3-3.62,11.76,9.67-.61-15.21,7.3-3.62,12.51,25.21Z"/><path class="cls-2" d="m269.17,140.26l-6.87,1.5-3.99-18.22-2.43,12.86-4.71,1.03-7.58-10.66,3.99,18.22-6.5,1.42-6.02-27.49,7.96-1.74,9.07,12.24,3.1-14.9,7.96-1.74,6.02,27.49Z"/><path class="cls-2" d="m270.6,140.2l9.59-28.12,7.71.02,9.43,28.17-7.28-.02-1.74-5.75-8.85-.03-1.77,5.74-7.09-.02Zm16.17-10.8l-2.85-9.29-2.9,9.27,5.74.02Z"/><path class="cls-2" d="m320.26,146.1c-3.63-1.07-6.16-2.77-7.59-5.09-1.44-2.33-1.66-5.18-.66-8.55l5.08-17.24,6.78,2-4.96,16.84c-.55,1.87-.61,3.37-.17,4.5.44,1.13,1.45,1.92,3.05,2.39,1.56.46,2.83.36,3.83-.31.99-.67,1.77-1.97,2.35-3.92l4.96-16.84,6.78,2-5.07,17.23c-.98,3.32-2.68,5.6-5.11,6.82-2.43,1.22-5.51,1.28-9.25.18Z"/><path class="cls-2" d="m356.64,161.98l-5.97-3.27-.1-22.42-9.42,17.21-5.67-3.1,13.51-24.69,7.61,4.17.13,18.45,7.74-14.14,5.67,3.1-13.51,24.69Z"/><path class="cls-2" d="m371.09,173.71l-11.82-9.49,3.08-3.83,3.16,2.53,11.47-14.28-3.15-2.53,3.08-3.83,11.82,9.49-3.08,3.83-3.16-2.53-11.46,14.28,3.15,2.53-3.08,3.83Z"/><path class="cls-2" d="m377.5,180.15l16.84-15.34-5.6-6.15,3.97-3.62,15.96,17.52-3.97,3.62-5.6-6.15-16.84,15.34-4.76-5.23Z"/><path class="cls-3" d="m360.9,221.9h-81.66v156.2h-48.48v-193.01h130.14v36.81Z"/></svg>