<?xml version="1.0" encoding="UTF-8"?><svg id="Capa_1" xmlns="http://www.w3.org/2000/svg" viewBox="0 0 566.93 566.93"><defs><style>.cls-1{fill:#fff;}.cls-1,.cls-2,.cls-3,.cls-4{stroke-width:0px;}.cls-2{fill:#2e3e50;}.cls-3{fill:#35495e;}.cls-4{fill:#f1c410;}</style></defs><path class="cls-4" d="m283.46,560.2c-73.92,0-143.41-28.79-195.68-81.05C35.52,426.88,6.73,357.38,6.73,283.46s28.79-143.41,81.05-195.68C140.05,35.52,209.55,6.73,283.46,6.73s143.41,28.79,195.68,81.05c52.27,52.27,81.05,121.76,81.05,195.68s-28.79,143.41-81.05,195.68c-52.27,52.27-121.76,81.05-195.68,81.05Zm0-542.61C136.86,17.58,17.58,136.86,17.58,283.46s119.27,265.88,265.88,265.88,265.88-119.27,265.88-265.88S430.07,17.58,283.46,17.58Z"/><path class="cls-3" d="m283.46,9.21c73.26,0,142.13,28.53,193.92,80.33,51.8,51.8,80.33,120.67,80.33,193.92s-28.53,142.13-80.33,193.92c-51.8,51.8-120.67,80.33-193.92,80.33s-142.13-28.53-193.92-80.33c-51.8-51.8-80.33-120.67-80.33-193.92s28.53-142.13,80.33-193.92S210.21,9.21,283.46,9.21m0,542.61c147.98,0,268.36-120.39,268.36-268.36S431.44,15.1,283.46,15.1,15.1,135.49,15.1,283.46s120.39,268.36,268.36,268.36m0-547.57c-74.58,0-144.7,29.04-197.43,81.78C33.3,138.77,4.25,208.88,4.25,283.46s29.04,144.7,81.78,197.43c52.74,52.74,122.85,81.78,197.43,81.78s144.7-29.04,197.43-81.78c52.74-52.74,81.78-122.85,81.78-197.43s-29.04-144.7-81.78-197.43C428.16,33.3,358.04,4.25,283.46,4.25h0Zm0,542.61c-145.24,0-263.4-118.16-263.4-263.4S138.23,20.06,283.46,20.06s263.4,118.16,263.4,263.4-118.16,263.4-263.4,263.4h0Z"/><path class="cls-3" d="m283.46,16.32C135.92,16.32,16.32,135.92,16.32,283.46s119.61,267.15,267.15,267.15,267.15-119.6,267.15-267.15S431,16.32,283.46,16.32Z"/><path class="cls-1" d="m63.02,401.91c-1.17-2.21-1.99-4.26-2.45-6.16-.46-1.9-.75-3.73-.88-5.5l6.87-3.64.35.66c-.46,2.1-.56,4.19-.3,6.29.27,2.09.83,3.96,1.7,5.6.22.41.55.93,1,1.56.45.63.88,1.1,1.29,1.41.49.39,1.02.65,1.6.79.58.14,1.19.04,1.84-.3.72-.38,1.16-.98,1.31-1.79.15-.81.12-1.66-.09-2.56-.26-1.12-.57-2.3-.93-3.54s-.63-2.43-.8-3.58c-.4-2.65-.18-4.82.63-6.49.82-1.67,2.23-3.04,4.23-4.11,2.7-1.43,5.5-1.45,8.38-.05,2.89,1.4,5.24,3.81,7.05,7.23.91,1.72,1.64,3.52,2.19,5.4.55,1.88.89,3.65,1,5.31l-6.59,3.5-.34-.64c.35-1.56.43-3.28.25-5.16-.18-1.88-.71-3.63-1.57-5.26-.34-.63-.68-1.18-1.04-1.63-.36-.46-.81-.89-1.37-1.31-.45-.34-.96-.57-1.54-.68-.58-.11-1.13-.04-1.63.23-.74.39-1.18.96-1.34,1.71-.16.75-.01,1.97.43,3.65.29,1.09.57,2.13.84,3.14.27,1.01.49,2.12.67,3.33.34,2.39.15,4.39-.55,6.01-.7,1.62-2.06,2.97-4.06,4.03-2.87,1.52-5.78,1.62-8.72.29-2.94-1.33-5.43-3.91-7.46-7.75Z"/><path class="cls-1" d="m106.49,427.54c-1.25.87-2.57,1.51-3.98,1.9-1.4.39-2.74.48-4.02.27-.79-.13-1.57-.33-2.34-.59-.78-.27-1.53-.64-2.27-1.1-.74-.47-1.45-1.03-2.15-1.69-.7-.67-1.38-1.47-2.05-2.43l-2.46-3.52-8.76,6.13-4.7-6.72,26.78-18.73,7.26,10.39c1.08,1.54,1.87,2.97,2.37,4.29.5,1.32.76,2.65.79,3.98.03,1.48-.32,2.88-1.06,4.22s-1.88,2.54-3.42,3.63Zm-4.99-6.79c.76-.53,1.28-1.16,1.57-1.9.29-.74.37-1.43.22-2.08-.17-.83-.43-1.55-.8-2.16-.37-.61-.89-1.41-1.59-2.41l-.67-.95-8.02,5.61.33.47c.44.64.87,1.23,1.27,1.78.41.55.79,1.02,1.16,1.39.31.32.69.62,1.15.89.45.28.87.45,1.23.52.76.15,1.44.13,2.03-.04.59-.17,1.3-.55,2.11-1.12Z"/><path class="cls-1" d="m92.57,445.59l24.3-21.86,14.77,16.41-4.63,4.17-9.31-10.35-4.26,3.83,8.58,9.53-4.63,4.17-8.58-9.53-6.14,5.52,9.31,10.35-4.63,4.17-14.77-16.41Z"/><path class="cls-1" d="m123.29,477.34c-3.7-3.21-5.67-6.88-5.9-11-.23-4.13,1.41-8.22,4.93-12.27,3.39-3.91,7.19-6.09,11.39-6.52,4.2-.44,8.15.95,11.85,4.16.98.85,1.82,1.67,2.51,2.46.69.79,1.3,1.6,1.85,2.42.42.65.84,1.41,1.25,2.27.41.86.73,1.58.96,2.14l-5.1,5.89-.63-.55c-.07-.52-.17-1.17-.3-1.93-.13-.76-.33-1.57-.6-2.42-.27-.85-.64-1.7-1.11-2.55s-1.09-1.6-1.84-2.25c-.89-.78-1.84-1.35-2.83-1.71-.99-.36-2.12-.49-3.4-.38-1.16.1-2.41.51-3.73,1.24-1.32.73-2.62,1.83-3.88,3.29-1.33,1.54-2.25,3-2.75,4.4-.5,1.4-.69,2.71-.59,3.92.1,1.18.43,2.24.98,3.2s1.22,1.78,2,2.46c.82.71,1.71,1.25,2.69,1.62.97.37,1.86.61,2.66.72.85.14,1.64.21,2.36.22s1.36.01,1.91,0l.56.49-5.03,5.8c-.64-.18-1.37-.4-2.2-.64-.83-.24-1.64-.55-2.44-.91-.98-.44-1.85-.89-2.63-1.35-.78-.46-1.76-1.21-2.94-2.23Z"/><path class="cls-1" d="m151.25,497.39l-14.48-9.98,3.24-4.7,3.86,2.66,12.07-17.51-3.86-2.66,3.24-4.7,14.48,9.98-3.24,4.7-3.86-2.66-12.07,17.51,3.86,2.66-3.24,4.7Z"/><path class="cls-1" d="m154.64,499.9l25.13-23.63,7.89,4.22-5.68,34.02-7.44-3.98,1.35-6.85-9.05-4.84-4.94,4.92-7.25-3.88Zm22.45-2.29l2.14-11.08-8.02,7.94,5.88,3.14Z"/><path class="cls-1" d="m207.61,524.41l-20.33-7.87,11.8-30.48,7.65,2.96-9.55,24.67,12.68,4.91-2.25,5.81Z"/><path class="cls-1" d="m241.16,533.37c-4.81-.93-8.34-3.13-10.61-6.58-2.26-3.46-2.88-7.82-1.86-13.09.99-5.09,3.19-8.87,6.61-11.34,3.42-2.47,7.53-3.25,12.34-2.31,1.28.25,2.41.54,3.4.88.99.34,1.93.73,2.81,1.17.69.36,1.43.81,2.22,1.35s1.42,1,1.9,1.37l-1.48,7.65-.82-.16c-.32-.42-.73-.93-1.22-1.52s-1.07-1.19-1.73-1.8c-.66-.6-1.4-1.16-2.24-1.65-.83-.5-1.74-.84-2.71-1.03-1.16-.22-2.26-.25-3.3-.07-1.04.18-2.08.64-3.14,1.37-.96.66-1.83,1.64-2.61,2.94-.78,1.3-1.35,2.89-1.72,4.79-.39,2-.45,3.73-.18,5.19.27,1.46.75,2.69,1.45,3.69.68.96,1.49,1.73,2.45,2.28.96.56,1.94.94,2.96,1.13,1.06.21,2.11.23,3.14.06,1.03-.17,1.92-.4,2.66-.7.8-.31,1.52-.64,2.16-.99.64-.35,1.19-.67,1.66-.95l.73.14-1.46,7.54c-.64.16-1.38.34-2.23.54-.84.2-1.7.35-2.56.43-1.06.11-2.05.16-2.95.14-.91-.01-2.13-.17-3.66-.46Z"/><path class="cls-1" d="m289.85,537.37l-9.98-.54-8.44-12.46-2.93-.16-.64,11.97-8.15-.44,1.76-32.64,13.11.71c1.81.1,3.38.3,4.71.59,1.33.3,2.55.84,3.65,1.61,1.13.81,2,1.8,2.63,2.99.62,1.19.89,2.66.79,4.43-.13,2.5-.81,4.49-2.01,5.99-1.21,1.5-2.78,2.65-4.71,3.47l10.22,14.46Zm-11.96-23.35c.04-.82-.08-1.53-.36-2.14-.28-.61-.78-1.09-1.49-1.45-.5-.25-1.06-.42-1.68-.51-.62-.09-1.4-.16-2.34-.21l-2.74-.15-.47,8.79,2.34.13c1.14.06,2.11.04,2.91-.05.8-.1,1.49-.36,2.07-.78.55-.38.96-.85,1.25-1.4.29-.56.45-1.29.5-2.21Z"/><path class="cls-1" d="m310.92,535.66l-17.55,1.18-.38-5.69,4.68-.31-1.42-21.22-4.68.31-.38-5.69,17.55-1.18.38,5.69-4.68.31,1.42,21.22,4.68-.31.38,5.69Z"/><path class="cls-1" d="m351.79,528.29l-7.99,1.66-4.41-21.21-2.97,14.9-5.47,1.14-8.67-12.48,4.41,21.21-7.56,1.57-6.66-32,9.25-1.92,10.37,14.32,3.78-17.27,9.25-1.92,6.66,32Z"/><path class="cls-1" d="m361.06,525.13l-11.37-30.64,20.7-7.69,2.17,5.85-13.05,4.84,1.99,5.37,12.03-4.46,2.17,5.84-12.03,4.46,2.87,7.74,13.05-4.84,2.17,5.84-20.7,7.68Z"/><path class="cls-1" d="m410.85,503.11c-2.15,1.28-4.16,2.19-6.03,2.74-1.87.55-3.69.93-5.45,1.15l-3.97-6.68.64-.38c2.12.36,4.21.35,6.29-.01,2.08-.37,3.91-1.02,5.51-1.97.4-.24.91-.6,1.51-1.08.61-.48,1.06-.93,1.35-1.36.36-.51.6-1.05.71-1.64.11-.58-.02-1.19-.39-1.82-.42-.7-1.04-1.11-1.85-1.22-.81-.11-1.66-.04-2.55.21-1.1.32-2.27.68-3.49,1.1-1.22.42-2.4.75-3.54.98-2.63.52-4.8.42-6.51-.32-1.71-.74-3.15-2.08-4.31-4.03-1.56-2.63-1.72-5.42-.46-8.37,1.26-2.95,3.55-5.42,6.88-7.4,1.67-.99,3.43-1.81,5.29-2.45,1.85-.64,3.61-1.06,5.26-1.26l3.81,6.42-.62.37c-1.57-.27-3.3-.27-5.16,0-1.87.28-3.59.88-5.18,1.83-.62.37-1.14.74-1.58,1.12-.44.38-.85.86-1.24,1.43-.32.46-.52.99-.61,1.57-.08.59.02,1.12.31,1.62.43.72,1.02,1.13,1.78,1.25.76.12,1.97-.09,3.63-.61,1.07-.35,2.1-.68,3.09-1,.99-.32,2.09-.6,3.29-.84,2.37-.45,4.38-.37,6.03.26,1.66.62,3.06,1.91,4.22,3.86,1.66,2.79,1.9,5.69.71,8.69-1.18,3-3.64,5.61-7.37,7.83Z"/><path class="cls-1" d="m457.07,479.54c-.55.72-1.13,1.4-1.76,2.03-.62.63-1.67,1.54-3.14,2.72-1.35,1.08-2.62,1.83-3.83,2.25s-2.38.57-3.5.46c-1.11-.1-2.16-.44-3.14-1.02-.98-.58-1.88-1.33-2.7-2.25-3.73,2.73-7.57,3.76-11.51,3.09s-7.51-2.99-10.69-6.95c-3.29-4.09-4.8-8.21-4.52-12.35.28-4.14,2.34-7.75,6.18-10.83,3.83-3.08,7.79-4.32,11.9-3.72,4.1.6,7.81,2.96,11.12,7.08,2.41,3,3.86,6.08,4.34,9.23.48,3.15-.06,6.09-1.61,8.83,1.02,1.23,1.99,1.86,2.9,1.91.91.05,2.03-.46,3.37-1.53.51-.41.99-.93,1.45-1.54.45-.62.75-1.09.89-1.43l.63-.51,3.66,4.55Zm-18.74-6.37c-.05-1.18-.32-2.38-.82-3.61s-1.39-2.63-2.67-4.23c-1.22-1.52-2.41-2.68-3.58-3.5-1.17-.81-2.29-1.35-3.37-1.62-1.11-.25-2.13-.26-3.06,0-.93.25-1.77.68-2.51,1.27-.79.63-1.39,1.34-1.8,2.14-.41.79-.63,1.78-.64,2.98,0,1.08.29,2.3.84,3.66.55,1.36,1.44,2.79,2.66,4.31,1.26,1.56,2.45,2.74,3.59,3.52,1.14.79,2.25,1.31,3.35,1.58,1.12.27,2.14.27,3.08.02.94-.26,1.78-.68,2.52-1.28.75-.6,1.35-1.35,1.8-2.25.45-.89.65-1.89.61-2.98Z"/><path class="cls-1" d="m466.77,457.94c-2.96,3.23-6.03,5-9.19,5.3-3.16.31-6.24-.92-9.25-3.68l-15.38-14.12,5.55-6.04,15.02,13.79c1.67,1.53,3.21,2.36,4.6,2.48s2.75-.53,4.05-1.95c1.27-1.39,1.82-2.77,1.63-4.14-.19-1.37-1.15-2.86-2.89-4.45l-15.02-13.79,5.54-6.04,15.36,14.1c2.96,2.72,4.46,5.66,4.5,8.82.03,3.16-1.48,6.4-4.53,9.73Z"/><path class="cls-1" d="m479.12,443.07l-20.71-27.59,5.06-7.38,33.19,9.4-4.78,6.96-6.66-2.09-5.81,8.46,4.35,5.46-4.65,6.78Zm.21-22.57l-10.77-3.35,7,8.85,3.77-5.5Z"/><path class="cls-1" d="m497.97,378.81c2.73,1.35,4.87,3.16,6.44,5.42,1.57,2.26,2.47,4.59,2.73,6.98.23,2.01.04,3.97-.56,5.9-.6,1.93-1.41,3.9-2.41,5.92l-4.54,9.15-29.28-14.52,4.5-9.08c1.02-2.06,2.11-3.92,3.26-5.58,1.15-1.66,2.62-3.03,4.41-4.1,2.19-1.32,4.6-2.01,7.25-2.09,2.64-.08,5.38.59,8.21,1.99Zm-3.8,7.51c-1.93-.96-3.74-1.44-5.44-1.46-1.7-.02-3.27.47-4.73,1.46-1.04.72-1.86,1.62-2.46,2.69s-1.27,2.36-2.02,3.88l-.07.14,18.33,9.09.07-.14c.82-1.65,1.48-3.06,1.98-4.22.5-1.16.69-2.41.55-3.75-.16-1.58-.76-3.02-1.78-4.31-1.02-1.29-2.5-2.42-4.43-3.37Z"/><path class="cls-1" d="m305.71,116.09c9.51,3.25,9.42,10.56,9.33,19.29,3.15,1.08,5.3,3.09,6.5,6.72,3.23-2.05,6.3-4.25,12.1-3.72,4.11-7.61,9.22-11.48,15.86-9.63,7.03-14.57,25.49-32.35,38.84-24.55,13.35,7.8,8.89,31.36-1.56,46.33,4.81,3.92,3.34,9.93-1.31,17.01,2.11,4.1,2.29,7.51,1.25,11.61,4.64-.87,8.92.67,11.93,2.42,11.06-6.62,15.73-4.08,18.29-.73,15.58-10.54,37.52-16.89,46.04-3.24,8.52,13.65-11.39,32.34-24.9,38.93.55,5.5-2.42,10.99-9.44,16.49,0,4.75-1.32,8.83-3.84,12.31,4.03,2.29,6.36,4.58,7.87,6.87,13.54.09,16.84,3.95,18.35,8.47,18.65-1.24,41.92,8.14,42.47,23.96.55,15.82-20.59,24.49-40.82,23.61-4.06,5.32-8.11,10.64-20.48,9.57-.84,3.33-2.64,5.71-5.38,7.16,2.22,3.65,2.46,7.3,2.15,10.95,9.26,4.49,11.4,10.23,9.92,16.62,14.69,8.4,30.45,22.01,24.91,35.84-5.55,13.83-29.1,13.47-47.56,1.04-4.04,2.95-10.2,2.01-18.02-1.98-2.74,1.77-5.9,2.29-9.27,2.16.85,3.72-.15,7.07-2.46,10.16,3.71,7.47,4.37,13.68.51,18,8.55,10.18,16.46,36.85,3.42,44.04-13.05,7.18-30.04-4.91-38.43-24.76-5.39,1.68-10.4,1.81-17.69-7.24-3.52.8-6.33-.34-9.85-2.69-1.53,2.62-4.33,4.98-7.39,5.82-.07,12.84-3.53,18.18-8.94,19.2.43,20.67-6.84,40.89-22.3,40.55-15.46-.34-24.91-17.58-23.64-39.02-6.29-1.11-9.93-5.86-8.21-18.02-4.11-1.02-7.37-2.98-9.2-7.05-2.98,2.96-6.35,4.75-10.47,4.28-6.31,10.99-11.42,8.68-16.16,8.26-7.28,14.92-24.85,33.09-38.01,25.88-13.17-7.21-9.73-32.99,2.13-46.92-3.8-3.59-4.12-9.44.85-18.75-1.93-2.74-2.99-6.73-2.25-10.99-4.1,1.58-7.63,1.8-11.73-.81-7.47,4.02-13.5,4.04-17.15.44-14.39,8.59-37.76,18.05-45.88,4.9-8.11-13.15,4.77-30.45,24.1-40.1-1.13-5.36-1.39-10.77,9.76-16.89-1.08-4.02-.67-8.04,1.68-12.05-2.76-.83-4.84-2.84-6.08-6.34-11.82.08-18.93-2.7-20.07-9.1-27.51,1.05-42.54-10.97-42.01-23.02.53-12.05,13.09-24.47,40.49-22.48.44-6.24,6.02-9.59,19.42-8.58,1.25-3.62,3.33-6.54,6.87-8.26-3.15-3.61-4.91-7.37-4.63-11.36-7.91-4.32-9.96-11.33-8.98-17.53-19.27-7.71-32.42-29.5-23.66-41.7,8.77-12.2,31.33-4.74,46.09,4.26,4.93-3.32,11.08-2.47,18.68,3.36,2.91-2.37,6.14-3.26,9.81-2.19-1.72-5.59-1.14-9.71,2.48-11.88-4.63-9.21-4.56-15.35-.42-18.84-12.86-13.37-15.44-40.85-5.38-46.76,10.06-5.92,33.18,6.92,40.73,25.58,8.42-1.23,14.29,3.57,17.08,9.22,3.89-.63,8.21.95,10.58,3.05.63-3.05,4.06-5.2,7.07-6-.1-8.73-.75-18.04,8.75-21.29-1.57-18.77,6.55-41.72,22.05-41.69,15.5.03,27.25,16.52,25.2,41.83h0Z"/><path class="cls-3" d="m188.18,406.16l7.86-9.8c-1.56,1.04-3.02,1.45-4.25,1.36-.87-.06-1.62-.37-2.22-.87-.59-.5-1.02-1.19-1.23-2.02-.5-1.95.19-4.68,2.71-7.48l1.73-1.92c-1.66.93-3.33,1.1-4.75.73-.85-.22-1.61-.64-2.21-1.19-.61-.56-1.07-1.27-1.33-2.06-.38-1.17-.31-2.55.37-3.96-3.91,3.32-7.34,4.69-9.71,4.68-1.18,0-2.12-.34-2.76-.95-.65-.62-.98-1.5-.92-2.57.05-.93.39-2.01,1.07-3.2l-5.87,4.86c-3.51,2.9-6.82,3.55-9.07,2.9-.87-.25-1.59-.7-2.11-1.3-.52-.6-.83-1.35-.89-2.18-.06-.93.21-1.98.88-3.06l-5.91,4.28c-2.45,1.78-4.84,3.32-7.15,4.65-2.07,1.2-4.08,2.22-6,3.07v.04s-.33.1-.33.1c-4.89,2.15-9.24,3.24-12.84,3.53-5.17.41-8.85-.85-10.44-3.05-.1-.13-.19-.27-.27-.42-.06-.1-.11-.2-.16-.29-1.3-2.57-1.19-6.78,1.35-11.55,2.51-4.7,7.42-9.97,15.71-14.75,1.06-.61,2.17-1.21,3.33-1.8l12.83-6.49c-2.58.58-4.66.43-6.11-.22-1.05-.47-1.79-1.19-2.18-2.09-.39-.89-.42-1.94-.07-3.06.84-2.68,3.92-5.82,9.77-8.2l5.69-2.31c-1.83.16-3.28-.12-4.33-.67-.9-.48-1.52-1.17-1.83-1.98h0c-.31-.81-.31-1.73.01-2.68.74-2.16,3.2-4.49,7.59-5.9l.5-.16c-1.19-.21-2.16-.84-2.88-1.69-.54-.64-.93-1.42-1.15-2.25-.22-.83-.26-1.71-.11-2.56.2-1.16.75-2.27,1.71-3.13-4.82,1.21-7.93.85-9.61-.27-.86-.57-1.36-1.34-1.53-2.2-.17-.84-.02-1.77.42-2.67.71-1.49,2.21-2.94,4.32-3.91l-8.54,1.37c-7.28,1.16-11.76.43-13.88-1.12-.97-.7-1.47-1.58-1.54-2.53-.07-.93.28-1.92,1.01-2.87,1.15-1.49,3.27-2.92,6.2-3.9l-24.73,2.18c-.64.06-1.3.08-1.97.08-4.74-.04-9.93-1.61-14.01-4.13-4.13-2.54-7.14-6.04-7.49-9.91-.02-.26-.03-.52-.03-.8,0-.15,0-.29.01-.42.25-4.03,3.62-7.66,8.48-10.26,4.8-2.57,11.07-4.14,17.19-4.09.62,0,1.23.03,1.83.06l18.89,1.19c-2.34-.93-4.15-2.28-5.19-3.71-.71-.98-1.07-2-1.02-2.98.06-.99.54-1.92,1.52-2.67,2.13-1.63,6.69-2.44,14.49-1.27l7.65,1.15c-1.83-.89-3.17-2.02-3.91-3.16-.56-.85-.79-1.73-.66-2.54.13-.83.62-1.57,1.5-2.16,1.66-1.11,4.81-1.66,9.7-1.04-1.49-.88-2.41-2.01-2.82-3.14-.26-.72-.31-1.44-.16-2.1.15-.67.49-1.28,1.02-1.78.69-.65,1.69-1.09,2.98-1.2-4.03-1.68-6.74-4.14-7.86-6.34-.52-1.01-.7-1.99-.54-2.83.17-.88.7-1.6,1.62-2.08.88-.45,2.14-.67,3.79-.56-8.16-3.11-12.92-7.14-14.54-10.43-.68-1.38-.82-2.66-.44-3.7.38-1.06,1.29-1.88,2.69-2.32,2.03-.65,5.18-.51,9.36.8l-23.54-11.66c-2.73-1.35-5.25-3.28-7.41-5.49-2.93-3-5.2-6.52-6.47-9.86-1.28-3.38-1.54-6.59-.39-8.9.28-.57.66-1.09,1.12-1.54,2.63-2.57,7.75-3.11,13.53-2.12,5.98,1.02,12.71,3.67,18.11,7.4l10.74,7.42c-.4-.66-.64-1.33-.73-1.97-.13-.93.04-1.8.49-2.51.46-.71,1.19-1.26,2.19-1.53,2.2-.59,5.73.2,10.33,3.64h0s8.71,6.83,8.71,6.83c-1.62-2.13-2.43-4.16-2.53-5.81-.07-1.17.21-2.16.81-2.88.6-.73,1.52-1.17,2.71-1.24,2.09-.12,5.1.94,8.79,3.74-1.13-1.74-1.49-3.28-1.31-4.52.13-.9.54-1.64,1.14-2.2.6-.55,1.39-.93,2.29-1.09,1.4-.25,3.08,0,4.74.88l-1.05-1.15c-3.71-4.03-5.13-7.38-5-9.54.06-1,.45-1.77,1.09-2.27.64-.49,1.51-.7,2.56-.59,1.64.17,3.75,1.14,6.08,3.06l-5.44-6.77c-2.55-3.18-3.78-7.58-3.43-10.48.13-1.11.5-2.02,1.11-2.58.64-.59,1.52-.81,2.64-.51,1.13.31,2.55,1.18,4.26,2.78l-13.09-18.52h-.03s-.03-.08-.03-.08l-.14-.2c-.41-.58-.8-1.16-1.17-1.75h0c-3.26-5.21-4.59-10.23-4.43-14.43.16-4.25,1.85-7.67,4.6-9.61h0c.15-.1.29-.2.42-.28h0c.23-.14.45-.27.68-.39,2.69-1.37,6.29-1.5,10.13.19,3.8,1.67,7.84,5.13,11.48,10.94.73,1.16,1.44,2.41,2.12,3.75l9.7,19.01c-.65-2.62-.62-4.65-.12-6.06.39-1.1,1.06-1.84,1.91-2.22.85-.37,1.87-.37,2.98.02,2.67.93,5.91,4.17,8.33,9.86l3.88,9.13c-.47-2.62-.37-4.62.11-5.97.39-1.11,1.05-1.81,1.87-2.12.82-.3,1.78-.18,2.8.35,2.01,1.05,4.31,3.78,6.19,8.26-.05-1.96.36-3.44,1.06-4.44.56-.8,1.29-1.31,2.1-1.51.81-.2,1.7-.11,2.57.27,1.07.47,2.12,1.38,2.98,2.72-1.12-4.69-.4-8.01,1.06-9.77.61-.74,1.36-1.21,2.16-1.41.8-.2,1.65-.11,2.48.27,1.2.55,2.34,1.72,3.17,3.55l-1.59-9.47c-1.12-6.67-.15-10.8,1.61-12.8.75-.84,1.63-1.32,2.57-1.45.93-.13,1.91.08,2.84.6,1.55.86,2.97,2.6,3.83,5.07l-2.02-20.43h0s-.02-.26-.02-.26h0c-.42-4.93.97-11.43,3.51-16.79,2.57-5.41,6.33-9.69,10.64-10.11h.1s0-.01,0-.01c.36-.03.72-.03,1.08-.01,3.67.23,7.15,3.18,9.82,7.46,2.64,4.23,4.5,9.78,4.96,15.28.13,1.5.15,2.99.06,4.46l-1.15,18.22c.85-2.6,2.19-4.43,3.64-5.41.92-.62,1.9-.91,2.83-.83.94.07,1.84.51,2.59,1.33,1.69,1.84,2.66,5.67,1.8,11.72l-1.84,12.85c1-2.47,2.33-4.12,3.7-4.96h0c.9-.55,1.82-.76,2.67-.62.87.14,1.66.62,2.29,1.44,1.42,1.86,2.05,5.54.85,11l-.32,1.48c1.13-2.08,2.66-3.45,4.18-4.06h0c.91-.36,1.82-.46,2.65-.28.84.18,1.59.65,2.16,1.41.63.84,1.03,2.04,1.08,3.61l.38-1.23h0c1.54-5.07,3.84-7.89,5.95-8.8.96-.41,1.88-.45,2.69-.13.8.31,1.48.97,1.96,1.94.53,1.08.8,2.56.7,4.4l3.93-10.07c1.49-3.83,4.1-5.69,6.56-6,1.01-.13,1.99,0,2.87.36.88.37,1.65.96,2.23,1.76.77,1.08,1.19,2.52,1.05,4.26l8.76-18.07c1.2-2.48,5.94-8.96,11.45-12.63,3.47-2.31,7.26-3.52,10.72-2,.44.2.86.43,1.25.69,3.32,2.23,4.54,6.63,4.57,11.28.03,4.59-1.09,9.42-2.48,12.57-.35.79-.72,1.48-1.09,2.04l-13.05,19.46c1.75-1.45,3.46-2.24,4.9-2.43,1.03-.13,1.94.04,2.63.5.71.47,1.18,1.22,1.35,2.24h0c.37,2.24-.79,5.83-4.45,10.53l-6.93,8.91c2.13-1.61,4.19-2.34,5.85-2.36,1.09-.01,2.03.28,2.71.84.7.56,1.13,1.39,1.2,2.42.13,1.75-.78,4.13-3.18,6.9,1.3-.71,2.54-.86,3.61-.59.76.19,1.42.58,1.96,1.12.53.54.92,1.23,1.15,2.01.31,1.1.28,2.38-.22,3.7,3.46-3.13,6.78-3.97,9.16-3.44.97.21,1.8.65,2.41,1.26.62.61,1.04,1.39,1.19,2.26.16.92.02,1.95-.46,3.02l5.34-4.5c3.7-3.12,7.18-3.65,9.58-2.83.91.31,1.67.81,2.23,1.44.57.64.94,1.4,1.07,2.23.13.85,0,1.77-.43,2.67l14.85-10.83c.77-.56,1.58-1.07,2.4-1.53v-.04s.18-.05.18-.05c3.72-2.02,7.86-3.01,11.68-3.15,5.38-.21,10.15,1.26,12.22,3.85.27.34.51.7.71,1.09,1.32,2.48,1.28,5.8.09,9.15-1.18,3.31-3.49,6.66-6.72,9.24-.99.79-2.08,1.51-3.25,2.14l-22.57,12.06c1.65-.13,3.02.27,4.07.99.83.57,1.46,1.34,1.88,2.22.41.88.62,1.86.59,2.86-.06,2.39-1.44,4.87-4.35,6.14l-11.87,5.17c2.39-.32,4.26-.09,5.55.51.97.45,1.62,1.1,1.93,1.88.31.79.28,1.7-.12,2.65-.89,2.09-3.64,4.45-8.53,6.22,1.18.23,2.16.84,2.9,1.66.58.65,1.01,1.44,1.26,2.28.25.84.31,1.73.17,2.6-.19,1.19-.76,2.32-1.77,3.19l1.61-.4c3.78-.94,6.79.27,8.47,2.16.64.72,1.08,1.54,1.31,2.38.23.85.23,1.73-.02,2.56-.29.95-.93,1.82-1.94,2.49l11.85-1.92c4.17-.68,6.68.36,7.95,2.07.57.77.89,1.68.98,2.62.09.93-.03,1.9-.33,2.82-.45,1.37-1.3,2.63-2.42,3.45l15.91-1.29c.4-.03.82-.06,1.25-.08,1.92-.1,3.8-.06,5.61.1l.05-.16c.3.08.59.17.87.26,4.37.49,8.3,1.71,11.48,3.46,4.74,2.61,7.8,6.4,8.16,10.74,0,.09.01.19.02.31.02.46.02.92,0,1.4-.19,2.96-1.48,6.29-4.59,8.98-3.08,2.66-7.95,4.68-15.3,5.06-1.96.1-4.09.09-6.41-.06l-16.97-1.1c2.08.61,3.43,1.69,4.08,2.96.44.84.57,1.75.41,2.66-.15.89-.59,1.77-1.29,2.56-1.8,2.02-5.39,3.4-10.48,2.63l-12.76-1.92c1.85.95,3.05,2.27,3.63,3.65.37.86.48,1.75.36,2.57-.12.84-.49,1.61-1.09,2.25-1.32,1.4-3.77,2.13-7.28,1.34l-2.87-.64c1.08.96,1.8,2.26,2.1,3.6.2.88.21,1.77.03,2.59-.19.84-.59,1.6-1.21,2.19-.65.61-1.53,1.05-2.68,1.2,5.24,2.05,7.87,4.49,8.75,6.66.41,1.01.44,1.96.19,2.81-.25.85-.79,1.58-1.53,2.14-.78.59-1.8.98-2.96,1.11l5.39,2.09c5.48,2.12,7.95,4.75,8.51,7.11.25,1.07.12,2.08-.3,2.98-.42.89-1.11,1.65-1.99,2.23-.97.64-2.17,1.05-3.46,1.15,1.81.64,3.55,1.33,5.22,2.08,8.91,3.97,15.67,9.29,19.91,14.53,4.28,5.3,6,10.55,4.77,14.29h0c-.07.22-.16.44-.26.66-.15.33-.33.66-.54.96-1.47,2.16-4.42,3.6-8.75,3.72-4.25.11-9.86-1.06-16.71-4.11-4.46-1.99-9.45-4.77-14.95-8.51h0s-1.96-1.38-1.96-1.38c.76,1.25,1.2,2.68,1.2,3.93,0,.81-.17,1.55-.55,2.13-.39.61-.99,1.04-1.82,1.19-1.73.33-4.52-.6-8.6-3.79l-7.09-5.53c.5,1.07.61,2.16.39,3.15-.17.82-.56,1.56-1.11,2.19-.55.62-1.25,1.12-2.06,1.43-1.99.77-4.63.44-7.14-1.84l-2.5-2.27c.86,1.65,1.12,3.24.91,4.57-.15.98-.56,1.82-1.18,2.46-.62.64-1.44,1.07-2.42,1.22-1.22.19-2.69-.07-4.31-.92,3.56,3.95,4.76,7.32,4.5,9.59-.11.99-.5,1.78-1.1,2.33-.6.55-1.39.86-2.32.88-.92.02-1.97-.25-3.09-.85l2.64,3.27c3.81,4.72,4.86,8.77,4.32,11.36-.21,1-.66,1.8-1.28,2.34-.63.55-1.44.84-2.35.83-1.07-.02-2.29-.46-3.56-1.39l13.16,18.68c2.38,3.37,3.68,8.17,3.7,12.57.02,4.21-1.15,8.08-3.69,10.05-.34.26-.72.5-1.12.71-2.52,1.29-6.08,1.33-9.71.12-3.61-1.2-7.31-3.64-10.16-7.32-.85-1.09-1.62-2.3-2.3-3.62l-10.32-20.18c.65,2.34.38,4.17-.44,5.41-.47.73-1.13,1.26-1.89,1.58-.76.32-1.62.42-2.51.31-2.3-.28-4.84-2.03-6.32-5.44l-3.93-9.02c.04,1.53-.43,2.75-1.21,3.65-.6.7-1.37,1.2-2.23,1.5-.85.3-1.77.4-2.67.29-2.07-.24-4.05-1.54-4.77-3.98h0l-1.58-5.12c-.05,1.75-.6,3.13-1.43,4.06-.52.59-1.15,1-1.83,1.22-.68.22-1.42.25-2.15.07-1.08-.27-2.15-.99-3.02-2.22,1.31,4.5.76,7.69-.62,9.47-.63.8-1.42,1.32-2.3,1.54-.87.22-1.83.16-2.77-.21-1.33-.52-2.66-1.64-3.71-3.38l2.3,10.84c.94,4.41.12,7.23-1.47,8.7-.81.75-1.81,1.15-2.89,1.23-1.06.08-2.19-.14-3.27-.63-1.54-.7-2.99-1.95-4-3.66l1.87,20.71c.08.89.12,1.76.12,2.61l.07.02-.07.27c-.09,7.76-3.52,13.53-7.98,16.54-2.21,1.49-4.69,2.31-7.14,2.35-2.46.04-4.9-.69-7.03-2.29-3.9-2.93-6.79-8.77-6.9-18.09l-.08-.42.08-.02c0-1.46.06-3,.19-4.64l1.24-14.85c-.88,1.6-2.07,2.76-3.35,3.43-.99.52-2.05.74-3.06.66-1.02-.09-1.99-.49-2.82-1.23-1.85-1.66-2.97-5.01-2.17-10.29l1.54-10.13c-.78,1.5-1.86,2.51-3.03,3.05-.94.44-1.94.57-2.89.4-.95-.17-1.84-.63-2.56-1.39-1.54-1.62-2.31-4.58-1.16-8.77l.35-1.26c-.92,1.37-2.03,2.29-3.13,2.74-.83.34-1.66.42-2.4.21-.75-.21-1.4-.71-1.87-1.5-.41-.69-.67-1.61-.73-2.78-1.71,5.1-3.98,8.12-6.01,9.32-.99.58-1.93.74-2.76.52-.83-.23-1.52-.85-1.98-1.83-.65-1.39-.84-3.55-.31-6.39l-1.88,4.82c-2.46,6.29-5.63,9.49-8.35,10.36-1.15.37-2.23.33-3.16-.07-.93-.4-1.69-1.14-2.21-2.18-.68-1.37-.94-3.27-.57-5.57l-6.99,14.49c-.38.78-.77,1.55-1.17,2.31-3.81,7.13-8.39,12.27-12.8,15.27-4.47,3.04-8.78,3.88-11.95,2.35-.08-.04-.17-.08-.26-.13-.24-.13-.47-.27-.69-.42h0c-2.73-1.88-4.39-5.71-4.54-10.61-.15-4.83,1.17-10.71,4.4-16.75.77-1.44,1.66-2.9,2.66-4.36l8.07-11.74c-1.53,1.03-3.18,1.48-4.61,1.4-.9-.05-1.73-.31-2.4-.75-.68-.45-1.19-1.1-1.46-1.93-.57-1.75,0-4.31,2.54-7.47h0Z"/><path class="cls-2" d="m284.22,482.99c-2.53,0-4.95-.81-7-2.35-4.42-3.31-6.9-9.81-7.01-18.3l-.13-.63.13-.03c0-1.42.07-2.92.19-4.43l1.14-13.73c-.79,1.12-1.76,2-2.86,2.57-1.04.54-2.14.78-3.21.69-1.1-.09-2.13-.54-2.98-1.3-2.19-1.95-2.99-5.7-2.26-10.53l1.34-8.84c-.68.91-1.51,1.61-2.45,2.04-.98.46-2.04.6-3.05.43-1.03-.18-1.97-.69-2.71-1.47-1.82-1.91-2.27-5.18-1.23-8.98-.73.81-1.55,1.4-2.4,1.76-.89.37-1.78.44-2.58.22-.84-.24-1.55-.8-2.03-1.62-.29-.49-.5-1.07-.63-1.73-1.53,4.08-3.59,7.1-5.74,8.37-1.03.61-2.06.79-2.97.54-.92-.25-1.67-.94-2.15-1.98-.52-1.12-.73-2.6-.62-4.36l-1.09,2.77c-2.21,5.66-5.32,9.5-8.52,10.52-1.19.38-2.34.35-3.34-.08-.99-.42-1.8-1.22-2.34-2.31-.57-1.15-.83-2.57-.76-4.18l-6.32,13.1c-.38.78-.77,1.56-1.18,2.32-3.58,6.69-8.15,12.15-12.88,15.36-4.52,3.07-8.97,3.94-12.22,2.37-.09-.04-.18-.09-.27-.14-.24-.13-.48-.27-.71-.43l-.12-.08c-2.74-1.96-4.39-5.86-4.54-10.74-.16-5.24,1.41-11.24,4.43-16.89.79-1.48,1.69-2.95,2.67-4.38l7.38-10.74c-1.22.6-2.5.89-3.72.82-.96-.05-1.83-.33-2.53-.8-.75-.5-1.29-1.22-1.57-2.07-.67-2.07.25-4.81,2.59-7.73l6.97-8.68c-1.09.52-2.17.75-3.16.68-.91-.07-1.73-.39-2.37-.94-.64-.54-1.09-1.28-1.32-2.16-.59-2.3.42-5.12,2.77-7.73l.86-.96c-1.26.44-2.55.52-3.75.21-.88-.23-1.68-.66-2.33-1.26-.65-.6-1.14-1.35-1.41-2.18-.33-1.01-.33-2.09,0-3.17-3.32,2.64-6.51,4.08-9.06,4.08h-.02c-1.23,0-2.25-.36-2.95-1.02-.72-.68-1.07-1.64-1.01-2.78.04-.68.21-1.4.53-2.17l-4.89,4.04c-3.17,2.62-6.66,3.73-9.32,2.95-.91-.26-1.68-.74-2.23-1.38-.57-.65-.9-1.46-.95-2.34-.04-.71.09-1.45.39-2.19l-4.99,3.61c-2.39,1.73-4.8,3.3-7.17,4.66-1.95,1.12-3.9,2.13-5.81,2.99v.03s-.24.12-.24.12l-.34.1c-4.56,2-9.02,3.23-12.89,3.54-5.04.41-8.94-.75-10.68-3.16-.1-.14-.2-.29-.29-.45-.06-.11-.12-.21-.17-.31-1.51-2.98-1-7.39,1.36-11.8,2.03-3.79,6.41-9.44,15.81-14.86,1.08-.62,2.2-1.23,3.34-1.81l11.24-5.69c-1.76.19-3.29,0-4.51-.54-1.09-.49-1.89-1.26-2.31-2.22-.42-.96-.45-2.09-.08-3.25.99-3.16,4.61-6.21,9.93-8.37l4.32-1.75c-1.15-.05-2.17-.3-2.99-.74-.88-.46-1.53-1.13-1.89-1.95h0l-.07-.17c-.34-.88-.33-1.86,0-2.86.85-2.48,3.54-4.64,7.41-5.95-.82-.31-1.55-.83-2.14-1.54-.56-.66-.97-1.48-1.2-2.36-.23-.87-.27-1.8-.12-2.67.17-.98.57-1.87,1.16-2.61-5.03,1.12-7.63.35-8.94-.52-.89-.59-1.46-1.41-1.65-2.37-.18-.89-.03-1.87.44-2.84.59-1.24,1.67-2.38,3.06-3.27l-6.98,1.12c-6.6,1.05-11.6.64-14.09-1.17-1-.73-1.57-1.67-1.65-2.72-.08-.99.29-2.05,1.07-3.06.98-1.27,2.56-2.41,4.55-3.3l-22.83,2.02c-.64.06-1.31.09-2,.08-4.68-.04-9.97-1.6-14.15-4.17-4.58-2.82-7.29-6.41-7.61-10.12-.02-.26-.03-.54-.03-.83,0-.16,0-.3.01-.44.25-3.92,3.31-7.64,8.62-10.48,4.99-2.67,11.3-4.15,17.32-4.12.63,0,1.25.03,1.85.06l17.41,1.09c-1.68-.86-3.06-1.96-3.94-3.19-.76-1.04-1.12-2.13-1.07-3.15.06-1.11.63-2.1,1.63-2.87,1.76-1.35,5.73-2.67,14.7-1.32l6.17.93c-1.18-.75-2.11-1.61-2.7-2.52-.59-.91-.84-1.86-.71-2.73.14-.93.7-1.74,1.62-2.35,1.25-.83,3.78-1.69,8.8-1.21-.97-.76-1.66-1.66-2.02-2.66-.27-.75-.33-1.53-.17-2.25.16-.73.54-1.4,1.1-1.92.58-.54,1.33-.92,2.22-1.13-3.34-1.56-5.98-3.8-7.15-6.1-.54-1.07-.74-2.11-.57-3.01.19-.98.79-1.77,1.76-2.27.66-.34,1.49-.54,2.46-.6-6.64-2.74-11.57-6.44-13.34-10.03-.7-1.43-.86-2.79-.46-3.91.42-1.17,1.41-2.03,2.86-2.49,1.74-.55,4.09-.52,6.89.09l-21.11-10.46c-2.62-1.3-5.21-3.21-7.48-5.54-2.9-2.97-5.22-6.5-6.53-9.95-1.37-3.61-1.51-6.85-.38-9.11.3-.61.69-1.15,1.17-1.62,2.55-2.49,7.44-3.27,13.77-2.19,6.18,1.05,12.99,3.84,18.22,7.44l9.89,6.83c-.14-.37-.24-.75-.3-1.12-.14-1,.04-1.93.53-2.7.51-.8,1.32-1.37,2.35-1.64,1.55-.41,4.98-.49,10.57,3.68l7.34,5.75c-.95-1.58-1.51-3.13-1.59-4.5-.07-1.23.23-2.29.87-3.07.67-.8,1.67-1.27,2.9-1.34,1.54-.09,4.13.39,7.95,3.05-.63-1.28-.88-2.51-.72-3.6.13-.93.56-1.74,1.23-2.36.63-.59,1.47-.99,2.42-1.16,1.16-.21,2.45-.08,3.71.38l-.18-.19c-3.38-3.68-5.23-7.23-5.07-9.75.07-1.06.48-1.92,1.2-2.47.7-.54,1.65-.76,2.76-.65,1.34.14,2.9.78,4.52,1.85l-4.11-5.13c-2.73-3.4-3.82-7.94-3.49-10.68.15-1.21.56-2.16,1.2-2.75.74-.69,1.74-.88,2.9-.57.82.22,1.74.71,2.74,1.46l-11.75-16.63-.07.02-.12-.29-.12-.16c-.4-.57-.8-1.17-1.17-1.76l-.04-.07c-3.07-4.93-4.61-9.95-4.43-14.52.16-4.31,1.84-7.79,4.71-9.82.15-.11.3-.2.44-.29l.07-.04c.21-.13.42-.25.63-.36,2.97-1.52,6.65-1.45,10.37.19,4.23,1.86,8.25,5.68,11.6,11.04.74,1.19,1.46,2.45,2.13,3.77l8.83,17.3c-.23-1.7-.15-3.17.26-4.32.4-1.14,1.11-1.96,2.06-2.37.92-.4,2.01-.4,3.17,0,3.11,1.08,6.29,4.83,8.49,10.01l3.11,7.31c-.13-1.65,0-3.06.38-4.14.41-1.16,1.11-1.94,2.03-2.28.9-.33,1.94-.2,3.02.37,2.06,1.08,4.15,3.71,5.82,7.29.11-1.36.47-2.51,1.07-3.38.58-.83,1.36-1.39,2.26-1.62.87-.22,1.82-.12,2.75.28.85.37,1.65.99,2.36,1.81-.67-3.74-.19-6.91,1.37-8.79.64-.77,1.43-1.29,2.3-1.5.87-.21,1.79-.11,2.66.28.96.44,1.82,1.22,2.53,2.28l-1.33-7.91c-1.01-6.03-.42-10.65,1.67-13.02.76-.86,1.71-1.4,2.74-1.54.98-.14,2.02.08,3.01.63,1.3.73,2.42,1.97,3.26,3.58l-1.87-18.94c-.42-4.96.94-11.44,3.54-16.92,2.91-6.13,6.87-9.87,10.86-10.27h.1c.37-.04.75-.05,1.12-.02,3.56.22,7.12,2.92,10.03,7.59,2.72,4.36,4.55,9.98,5,15.4.13,1.53.15,3.05.06,4.5l-1.04,16.5c.8-1.73,1.88-3.1,3.11-3.93.97-.65,2.01-.96,3.01-.88,1.03.08,1.99.57,2.77,1.42,1.99,2.17,2.66,6.42,1.87,11.94l-1.58,11.07c.85-1.56,1.9-2.75,3.03-3.45l.07-.04c.92-.55,1.89-.76,2.79-.62.95.15,1.8.69,2.46,1.55,1.66,2.17,1.99,6.25.91,11.19.98-1.35,2.19-2.34,3.49-2.86.96-.38,1.93-.49,2.81-.29.92.2,1.73.72,2.31,1.51.49.66.83,1.47,1,2.44,1.41-4.62,3.63-7.87,6.1-8.94,1.01-.43,2.01-.48,2.9-.13.88.34,1.61,1.06,2.1,2.07.41.84.66,1.89.73,3.07l3.41-8.73c1.39-3.55,3.85-5.8,6.77-6.17,1.04-.13,2.08,0,3.01.38.94.39,1.75,1.03,2.35,1.86.65.9,1.02,2,1.11,3.21l8.23-16.99c1.23-2.52,6.02-9.06,11.54-12.74,4.11-2.74,7.81-3.42,10.98-2.02.45.2.88.44,1.29.71,3.83,2.57,4.66,7.67,4.69,11.5.03,4.19-.95,9.17-2.5,12.68-.36.81-.73,1.51-1.12,2.08l-12.17,18.15c1.29-.86,2.57-1.38,3.76-1.53,1.1-.14,2.07.05,2.82.55.79.52,1.3,1.36,1.47,2.42.44,2.64-1.16,6.45-4.5,10.74l-5.9,7.57c1.59-.93,3.18-1.44,4.6-1.46,1.12,0,2.15.3,2.88.9.77.63,1.22,1.53,1.3,2.61.13,1.77-.76,3.94-2.52,6.21.93-.31,1.87-.37,2.74-.15.79.19,1.51.61,2.08,1.2.56.57.98,1.31,1.21,2.12.27.94.28,1.94.05,2.95,2.95-2.42,6.08-3.47,8.69-2.89,1,.22,1.88.68,2.54,1.33.67.66,1.11,1.49,1.27,2.41.12.7.07,1.45-.13,2.2l4.56-3.85c3.34-2.82,6.93-3.87,9.84-2.88.93.32,1.74.84,2.35,1.52.61.68,1,1.5,1.14,2.37.1.64.06,1.31-.13,1.96l14.12-10.29c.71-.52,1.46-1,2.25-1.45l-.02-.06.44-.17c3.48-1.9,7.56-3,11.74-3.16,5.55-.21,10.33,1.3,12.44,3.95.27.35.52.73.74,1.13,1.33,2.49,1.37,5.82.11,9.36-1.26,3.54-3.67,6.87-6.8,9.36-1.03.82-2.14,1.55-3.29,2.17l-21.6,11.54c1.17.08,2.23.43,3.13,1.05.84.58,1.52,1.38,1.97,2.33.43.91.64,1.94.62,2.98-.07,2.8-1.76,5.18-4.51,6.38l-10.36,4.51c1.6-.05,2.98.17,4.05.67,1.01.47,1.73,1.17,2.07,2.03.34.86.3,1.85-.13,2.85-.97,2.28-3.84,4.47-7.91,6.07.85.31,1.61.82,2.23,1.52.6.67,1.05,1.49,1.32,2.38.26.89.32,1.83.18,2.72-.16,1-.56,1.9-1.18,2.66l.69-.17c3.47-.86,6.73-.02,8.73,2.25.66.74,1.13,1.6,1.37,2.49.25.92.24,1.85-.03,2.71-.23.74-.65,1.41-1.23,1.98l10.83-1.76c4.86-.79,7.15.75,8.21,2.18.58.78.93,1.71,1.03,2.76.09.95-.03,1.96-.34,2.93-.39,1.18-1.03,2.22-1.86,3.02l15.07-1.23c.4-.03.82-.06,1.26-.08,1.82-.09,3.64-.07,5.42.08l.06-.21.26.07c.3.08.59.17.88.26,4.26.48,8.27,1.68,11.53,3.48,5,2.75,7.95,6.64,8.3,10.96,0,.09.01.19.02.32.02.47.02.95-.01,1.43-.23,3.5-1.89,6.75-4.68,9.16-3.54,3.05-8.74,4.78-15.46,5.13-2.01.1-4.18.08-6.44-.07l-15.23-.99c1.19.61,2.08,1.44,2.6,2.45.45.88.61,1.86.44,2.83-.16.95-.63,1.88-1.35,2.69-2.14,2.39-6.15,3.41-10.72,2.72l-11.42-1.72c1.19.84,2.09,1.9,2.58,3.07.38.9.51,1.84.38,2.72-.13.91-.53,1.74-1.16,2.4-.9.96-3.09,2.42-7.54,1.42l-1.97-.44c.74.87,1.28,1.94,1.54,3.07.21.93.22,1.87.03,2.71-.21.92-.65,1.73-1.29,2.33-.53.5-1.18.87-1.93,1.09,5.41,2.28,7.38,4.76,8.07,6.47.41,1.01.48,2.05.2,2.99-.26.89-.82,1.67-1.63,2.28-.6.45-1.33.79-2.12.99l4.49,1.74c6.32,2.45,8.21,5.32,8.68,7.3.26,1.08.15,2.17-.32,3.16-.43.92-1.15,1.73-2.09,2.34-.74.49-1.6.84-2.5,1.04,1.44.53,2.85,1.11,4.23,1.72,8.26,3.68,15.37,8.87,20.01,14.61,4.32,5.34,6.08,10.63,4.83,14.51v.04c-.09.23-.18.46-.28.69-.16.35-.34.69-.56,1.01-1.61,2.36-4.8,3.72-8.97,3.83-4.68.12-10.48-1.31-16.83-4.14-4.71-2.1-9.75-4.97-14.99-8.54l-1.05-.74c.45,1.01.71,2.08.71,3.06,0,.89-.2,1.68-.59,2.28-.45.7-1.14,1.15-1.99,1.31-2.05.39-5.1-.94-8.82-3.84l-6.34-4.95c.22.8.24,1.61.08,2.4-.18.85-.58,1.64-1.17,2.31-.58.66-1.33,1.18-2.17,1.5-2.38.92-5.09.23-7.42-1.89l-1.55-1.41c.45,1.23.59,2.44.41,3.55-.16,1.02-.59,1.92-1.25,2.6-.67.7-1.56,1.15-2.57,1.3-1.03.16-2.17,0-3.34-.44,2.68,3.24,4.04,6.43,3.76,8.87-.12,1.02-.53,1.89-1.18,2.49-.65.6-1.51.93-2.5.95-.67.02-1.42-.12-2.17-.4l1.92,2.39c3.43,4.26,5.03,8.48,4.38,11.58-.22,1.03-.69,1.89-1.37,2.49-.67.59-1.52.9-2.47.9-.02,0-.04,0-.06,0-.81-.01-1.68-.25-2.55-.71l12.38,17.57c2.33,3.3,3.73,8.06,3.75,12.73.02,4.64-1.37,8.38-3.8,10.27-.35.27-.74.52-1.16.73-2.59,1.33-6.21,1.37-9.92.13-3.95-1.32-7.61-3.95-10.29-7.41-.88-1.13-1.66-2.37-2.32-3.66l-9.48-18.52c.15,1.8-.32,3.02-.82,3.78-.49.75-1.19,1.33-2.02,1.68-.8.33-1.71.45-2.64.33-2.71-.34-5.16-2.43-6.54-5.6l-3.48-7.98c-.16,1.02-.56,1.94-1.2,2.68-.61.71-1.42,1.25-2.34,1.57-.88.31-1.85.41-2.8.3-2.44-.28-4.31-1.84-5-4.17l-1.19-3.85c-.22,1.15-.68,2.13-1.35,2.9-.54.61-1.21,1.06-1.94,1.3-.74.24-1.53.26-2.3.07-.87-.22-1.68-.69-2.39-1.4,1.13,4.86-.09,7.42-.97,8.55-.65.83-1.5,1.4-2.45,1.64-.94.24-1.95.16-2.94-.22-1.13-.44-2.17-1.25-3.06-2.37l2.02,9.52c.86,4.06.31,7.24-1.55,8.96-.82.76-1.88,1.21-3.05,1.3-1.09.09-2.27-.14-3.41-.65-1.36-.62-2.58-1.62-3.53-2.88l1.77,19.65c.07.81.11,1.62.12,2.42l.13.04-.14.5c-.1,7.12-3.12,13.37-8.1,16.72-2.26,1.52-4.78,2.35-7.29,2.4-.07,0-.14,0-.2,0Zm-13.5-20.86l.03.15c.11,8.37,2.52,14.72,6.8,17.92,2.01,1.51,4.4,2.27,6.87,2.24,2.4-.04,4.82-.84,6.99-2.3,4.84-3.26,7.77-9.36,7.86-16.31v-.29c0-.85-.04-1.72-.11-2.58l-1.98-21.91.61,1.03c.93,1.58,2.31,2.84,3.88,3.56,1.05.47,2.14.68,3.14.6,1.05-.08,2-.48,2.73-1.16,1.72-1.59,2.21-4.59,1.39-8.45l-2.64-12.41.83,1.37c.97,1.61,2.21,2.73,3.57,3.26.88.34,1.78.41,2.61.2.84-.21,1.58-.71,2.16-1.45,1.51-1.93,1.71-5.29.57-9.22l-.44-1.53.92,1.29c.8,1.12,1.79,1.85,2.87,2.11.67.17,1.36.15,2-.06.64-.21,1.23-.6,1.71-1.14.84-.95,1.31-2.29,1.36-3.89l.05-1.63,2.06,6.68c.62,2.12,2.32,3.53,4.54,3.79.87.1,1.75,0,2.55-.28.84-.29,1.56-.78,2.11-1.42.78-.91,1.18-2.11,1.14-3.47l-.04-1.4,4.48,10.3c1.3,3,3.59,4.97,6.11,5.28.84.1,1.66,0,2.37-.3.73-.31,1.34-.81,1.77-1.47.85-1.3.99-3.09.4-5.19l-.71-2.58,11.54,22.56c.65,1.27,1.41,2.47,2.27,3.58,2.62,3.38,6.18,5.95,10.03,7.23,3.58,1.19,7.05,1.16,9.5-.1.39-.2.75-.43,1.07-.68,2.29-1.78,3.6-5.36,3.59-9.84-.02-4.56-1.38-9.2-3.65-12.42l-14.13-20.05,1.35,1c1.16.86,2.34,1.32,3.4,1.34h.05c.81,0,1.54-.26,2.11-.76.59-.51,1-1.27,1.19-2.19.29-1.39.46-5.26-4.27-11.13l-3.47-4.31,1.18.63c1.03.55,2.04.84,2.96.81.85-.02,1.59-.3,2.14-.81.56-.52.91-1.27,1.01-2.16.29-2.51-1.32-5.93-4.43-9.38l-1.02-1.13,1.35.71c1.47.77,2.9,1.08,4.14.89.89-.14,1.67-.53,2.26-1.14.58-.6.96-1.4,1.1-2.31.21-1.35-.09-2.87-.88-4.4l-.7-1.35,3.62,3.3c2.17,1.98,4.67,2.63,6.86,1.79.76-.29,1.43-.76,1.96-1.36.52-.6.89-1.31,1.05-2.06.21-.98.08-2.01-.37-2.97l-.48-1.03,7.99,6.23c4.53,3.54,7.07,3.98,8.38,3.73.71-.13,1.26-.49,1.64-1.07.33-.51.51-1.2.51-1.99,0-1.21-.43-2.59-1.16-3.79l-.68-1.11,3.03,2.12c5.21,3.55,10.23,6.41,14.91,8.49,6.03,2.69,11.57,4.1,16.05,4.1.18,0,.36,0,.54,0,4-.1,7.03-1.38,8.54-3.6.2-.29.37-.6.51-.92.09-.2.17-.4.23-.6v-.04c1.23-3.7-.49-8.82-4.71-14.04-4.59-5.67-11.62-10.81-19.81-14.45-1.68-.75-3.43-1.44-5.2-2.07l-1.2-.42,1.27-.1c1.22-.1,2.38-.48,3.33-1.11.85-.56,1.51-1.29,1.9-2.12.41-.88.51-1.84.28-2.8-.62-2.62-3.58-5.07-8.35-6.92l-6.41-2.49,1.09-.12c1.09-.12,2.06-.49,2.82-1.06.71-.53,1.21-1.22,1.43-2,.24-.83.18-1.72-.18-2.63-.97-2.41-4.02-4.72-8.6-6.51l-.98-.38,1.05-.14c1.03-.14,1.88-.51,2.53-1.13.57-.54.95-1.23,1.13-2.06.17-.77.16-1.62-.03-2.47-.3-1.34-1.02-2.57-2.02-3.46l-.78-.7,3.89.87c3.06.68,5.62.23,7.03-1.26.55-.58.9-1.31,1.02-2.11.11-.78,0-1.62-.35-2.43-.59-1.4-1.84-2.65-3.51-3.51l-1.47-.75,14.39,2.17c4.4.66,8.22-.29,10.24-2.55.65-.73,1.07-1.57,1.22-2.42.15-.86.01-1.72-.39-2.49-.67-1.3-2.03-2.27-3.92-2.82l-2.37-.69,19.44,1.26c2.24.15,4.38.17,6.37.07,6.6-.34,11.69-2.02,15.14-4.99,2.68-2.32,4.28-5.44,4.5-8.79.03-.46.03-.92.01-1.37,0-.12-.01-.22-.02-.3-.34-4.13-3.18-7.87-8.02-10.53-3.2-1.76-7.14-2.95-11.38-3.42-.23-.07-.45-.13-.66-.19l-.03.12-.23-.02c-1.82-.16-3.7-.19-5.57-.1-.43.02-.84.05-1.24.08l-16.87,1.37.78-.57c1.05-.77,1.88-1.94,2.32-3.31.29-.9.4-1.83.32-2.71-.09-.95-.41-1.79-.93-2.49-.97-1.31-3.09-2.71-7.69-1.96l-13.1,2.12,1.06-.7c.91-.6,1.54-1.41,1.83-2.34.23-.75.24-1.59.02-2.41-.22-.81-.65-1.6-1.25-2.27-1.87-2.11-4.93-2.89-8.2-2.08l-2.7.67.85-.74c.91-.79,1.48-1.84,1.68-3.03.13-.81.07-1.67-.16-2.48-.24-.81-.65-1.56-1.2-2.17-.74-.82-1.69-1.36-2.75-1.57l-.95-.19.91-.33c4.35-1.57,7.4-3.79,8.37-6.07.37-.87.41-1.71.12-2.44-.29-.73-.91-1.33-1.8-1.74-1.32-.61-3.19-.78-5.4-.48l-1.93.26,13.65-5.94c2.56-1.11,4.12-3.32,4.19-5.9.02-.96-.17-1.9-.57-2.73-.41-.86-1.03-1.59-1.79-2.12-1.07-.74-2.42-1.06-3.9-.94l-1.3.1,23.72-12.67c1.13-.6,2.21-1.31,3.21-2.11,3.05-2.43,5.4-5.67,6.63-9.12,1.19-3.35,1.16-6.6-.08-8.93-.2-.38-.43-.73-.69-1.05-1.98-2.48-6.67-3.95-12-3.75-2.86.11-7.19.74-11.56,3.12l-.1.03-.08.07c-.83.46-1.63.97-2.38,1.51l-15.72,11.46.46-.97c.39-.82.53-1.69.41-2.51-.12-.77-.46-1.49-1-2.09-.54-.61-1.28-1.08-2.12-1.37-2.73-.93-6.13.08-9.32,2.78l-6.26,5.28.5-1.1c.44-.97.59-1.96.44-2.86-.14-.81-.52-1.54-1.11-2.12-.59-.58-1.38-.99-2.28-1.18-2.66-.58-5.91.65-8.92,3.38l-.83.75.4-1.05c.45-1.2.53-2.42.21-3.53-.21-.73-.58-1.38-1.08-1.89-.51-.52-1.14-.88-1.83-1.05-1.08-.27-2.26-.07-3.41.57l-1.33.73,1-1.15c2.15-2.47,3.25-4.85,3.12-6.7-.07-.93-.45-1.7-1.1-2.23-.64-.52-1.51-.77-2.54-.78-1.73.02-3.75.84-5.69,2.3l-1.64,1.24,8.2-10.53c4.38-5.63,4.63-8.88,4.4-10.32-.15-.91-.58-1.62-1.24-2.06-.64-.42-1.48-.58-2.45-.46-1.46.19-3.15,1.03-4.76,2.37l-1.44,1.2,14.1-21.02c.37-.55.73-1.22,1.07-2,1.52-3.45,2.48-8.34,2.45-12.45-.03-3.7-.82-8.62-4.45-11.05-.38-.26-.79-.48-1.21-.67-2.99-1.32-6.51-.66-10.46,1.97-5.44,3.62-10.15,10.04-11.36,12.52l-9.39,19.39.12-1.45c.13-1.57-.21-2.98-1-4.08-.53-.74-1.26-1.32-2.11-1.67-.84-.35-1.78-.47-2.73-.35-2.72.35-5.03,2.47-6.34,5.83l-4.55,11.66.1-1.7c.1-1.7-.14-3.17-.67-4.26-.43-.89-1.06-1.51-1.81-1.81-.75-.3-1.61-.25-2.48.13-2.32,1.01-4.44,4.15-5.8,8.63l-.86,2.75-.05-1.59c-.05-1.43-.41-2.62-1.03-3.46-.51-.68-1.2-1.13-2-1.31-.77-.17-1.63-.08-2.49.27-1.58.63-3.01,2.03-4.05,3.94l-.91,1.69.74-3.36c1.05-4.81.76-8.73-.8-10.78-.57-.75-1.3-1.21-2.11-1.34-.8-.12-1.66.08-2.49.59l-.07.04c-1.38.87-2.62,2.57-3.52,4.79l-.84,2.07,2.15-15.05c.75-5.29.12-9.48-1.73-11.5-.68-.74-1.52-1.17-2.41-1.24-.87-.07-1.79.2-2.66.79-1.49,1.01-2.75,2.88-3.53,5.26l-.66,2.01,1.28-20.34c.09-1.43.07-2.91-.06-4.42-.45-5.34-2.25-10.86-4.92-15.16-2.82-4.52-6.23-7.12-9.6-7.33-.33-.02-.67-.02-1,0h-.14c-3.8.39-7.6,4.02-10.43,9.97-2.56,5.38-3.89,11.74-3.49,16.59l.03.3,2.24,22.69-.75-2.14c-.8-2.28-2.11-4.03-3.71-4.92-.88-.49-1.8-.69-2.67-.56-.91.13-1.72.59-2.41,1.36-1.15,1.3-2.88,4.66-1.55,12.58l1.93,11.51-.86-1.88c-.76-1.68-1.82-2.86-3.04-3.42-.76-.35-1.55-.43-2.3-.25-.75.18-1.45.64-2.01,1.32-1.62,1.95-1.99,5.43-1.01,9.54l.37,1.55-.86-1.34c-.8-1.24-1.79-2.15-2.86-2.62-.81-.36-1.65-.44-2.4-.25-.77.2-1.45.68-1.95,1.4-.71,1.02-1.06,2.5-1.01,4.27l.04,1.44-.56-1.33c-1.69-4.03-3.9-7-6.06-8.13-.94-.49-1.84-.61-2.58-.34-.76.28-1.35.95-1.71,1.95-.5,1.4-.53,3.42-.1,5.83l.42,2.36-4.82-11.33c-2.15-5.05-5.2-8.68-8.17-9.71-1.03-.36-1.99-.37-2.78-.02-.81.35-1.42,1.06-1.77,2.06-.51,1.45-.47,3.49.13,5.9l.56,2.28-10.77-21.1c-.66-1.3-1.37-2.56-2.11-3.73-3.3-5.27-7.23-9.01-11.36-10.83-3.56-1.57-7.08-1.64-9.9-.2-.22.11-.44.24-.65.37l-.07.04c-.11.07-.23.15-.35.23-2.73,1.93-4.32,5.27-4.48,9.4-.17,4.48,1.35,9.42,4.39,14.27l.04.07c.36.57.73,1.13,1.12,1.67l.2.28,14.63,20.7-1.95-1.83c-1.59-1.49-2.98-2.4-4.15-2.72-.98-.27-1.78-.12-2.39.44-.54.5-.9,1.34-1.03,2.42-.32,2.62.74,6.99,3.37,10.27l7.1,8.85-2.05-1.69c-2.12-1.75-4.23-2.82-5.93-3-.96-.1-1.78.09-2.37.54-.59.45-.93,1.17-.99,2.07-.15,2.37,1.65,5.78,4.93,9.34l2.12,2.3-1.39-.73c-1.53-.81-3.16-1.11-4.57-.86-.85.15-1.6.51-2.15,1.02-.58.53-.94,1.24-1.06,2.04-.18,1.27.25,2.77,1.27,4.34l.84,1.29-1.23-.93c-3.31-2.51-6.37-3.81-8.61-3.68-1.08.06-1.95.46-2.52,1.15-.56.67-.81,1.6-.75,2.69.1,1.68.98,3.69,2.47,5.66l1.27,1.67-10.36-8.12c-3.94-2.95-7.63-4.26-10.1-3.59-.89.24-1.59.73-2.03,1.41-.42.66-.58,1.46-.45,2.33.09.62.32,1.25.69,1.87l.65,1.08-11.77-8.13c-5.16-3.57-11.89-6.32-18-7.36-6.06-1.03-10.91-.29-13.3,2.05-.43.42-.79.92-1.06,1.47-1.06,2.13-.91,5.21.4,8.68,1.28,3.38,3.56,6.85,6.41,9.76,2.23,2.28,4.77,4.16,7.34,5.44l26.62,13.19-3.28-1.02c-4.88-1.52-7.69-1.27-9.2-.8-1.28.41-2.15,1.15-2.52,2.15-.35.99-.2,2.19.43,3.49,1.83,3.71,7.21,7.56,14.4,10.3l1.7.65-1.82-.12c-1.53-.1-2.76.07-3.65.53-.82.42-1.32,1.06-1.48,1.89-.15.78.03,1.7.52,2.66,1.21,2.38,4.09,4.7,7.72,6.22l1.02.43-1.1.09c-1.16.1-2.14.49-2.82,1.13-.48.45-.8,1.02-.94,1.64-.14.62-.08,1.3.15,1.95.41,1.14,1.37,2.21,2.7,3l1.12.67-1.3-.16c-4.35-.54-7.73-.19-9.52,1-.8.53-1.26,1.2-1.38,1.98-.11.74.1,1.55.62,2.35.74,1.14,2.09,2.23,3.81,3.06l1.59.77-9.4-1.41c-6.85-1.03-11.92-.59-14.29,1.21-.89.68-1.36,1.51-1.42,2.47-.05.89.28,1.86.96,2.8,1.06,1.46,2.86,2.74,5.07,3.62l1.59.63-20.6-1.29c-.59-.04-1.2-.06-1.82-.06-5.96-.05-12.15,1.43-17.06,4.06-5.07,2.71-8.11,6.37-8.34,10.04,0,.13-.01.26-.01.41,0,.27,0,.53.03.77.31,3.53,2.93,6.98,7.36,9.7,4.1,2.52,9.29,4.05,13.87,4.09.68,0,1.33-.02,1.95-.07l27-2.39-2.17.73c-2.73.92-4.89,2.27-6.07,3.81-.69.9-1.02,1.83-.96,2.69.07.9.55,1.69,1.43,2.33,1.37,1,4.98,2.46,13.68,1.07l10.5-1.68-1.81.83c-1.93.88-3.46,2.26-4.19,3.78-.41.86-.55,1.73-.39,2.5.17.83.64,1.51,1.42,2.03,1.83,1.21,5.16,1.3,9.39.23l1.06-.27-.81.73c-.86.78-1.42,1.8-1.62,2.97-.14.8-.1,1.64.11,2.44.21.8.59,1.54,1.09,2.15.72.86,1.66,1.41,2.72,1.6l1.08.19-1.54.49c-3.84,1.23-6.62,3.37-7.42,5.73-.29.85-.3,1.68-.04,2.42l.03.07c.29.76.88,1.4,1.71,1.83,1.06.57,2.51.78,4.18.64l1.79-.16-7.35,2.99c-5.17,2.1-8.68,5.03-9.62,8.03-.33,1.04-.3,2.03.06,2.87.37.84,1.07,1.51,2.04,1.95,1.51.67,3.56.74,5.94.2l2.14-.48-14.79,7.48c-1.13.57-2.25,1.17-3.32,1.79-9.29,5.35-13.61,10.92-15.6,14.65-2.27,4.25-2.78,8.48-1.35,11.3.04.09.1.18.15.28.08.14.17.28.26.4,1.63,2.25,5.34,3.31,10.2,2.94,3.81-.3,8.21-1.51,12.75-3.5l.21-.06.12-.08c1.96-.88,3.97-1.9,5.97-3.06,2.35-1.36,4.75-2.92,7.12-4.63l7.03-5.09-.73,1.17c-.61.98-.9,1.98-.84,2.9.05.76.33,1.45.82,2.02.49.56,1.17.98,1.98,1.21,2.49.73,5.79-.34,8.82-2.85l7.02-5.8-.74,1.29c-.64,1.12-.99,2.16-1.04,3.08-.05.98.24,1.79.84,2.36.6.57,1.49.87,2.58.87h.02c2.59,0,6.06-1.68,9.52-4.62l.98-.83-.56,1.16c-.62,1.27-.74,2.57-.36,3.75.24.74.67,1.41,1.26,1.95.58.53,1.31.92,2.1,1.13,1.45.38,3.06.13,4.55-.71l1.43-.81-2.83,3.15c-2.23,2.48-3.2,5.11-2.65,7.24.2.76.59,1.41,1.14,1.88.56.47,1.27.75,2.06.81,1.25.09,2.66-.36,4.08-1.31l1.47-.99-8.97,11.18c-2.22,2.77-3.11,5.33-2.49,7.22.24.74.71,1.35,1.35,1.79.62.41,1.4.66,2.26.71,1.47.09,3.04-.4,4.45-1.35l1.19-.8-8.88,12.92c-.97,1.42-1.86,2.87-2.64,4.33-2.98,5.57-4.53,11.47-4.37,16.61.15,4.77,1.76,8.56,4.42,10.39l.12.08c.18.12.36.23.55.33.09.05.17.09.25.13,3.07,1.48,7.33.63,11.68-2.33,4.66-3.17,9.17-8.56,12.71-15.17.4-.75.79-1.52,1.17-2.3l7.79-16.16-.29,1.83c-.34,2.13-.15,4,.55,5.4.48.97,1.2,1.69,2.07,2.06.88.38,1.91.4,2.97.06,3.05-.97,6.03-4.69,8.18-10.2l2.93-7.48-.52,2.81c-.48,2.58-.38,4.8.29,6.23.42.89,1.04,1.47,1.81,1.68.76.21,1.64.04,2.55-.49,2.23-1.31,4.38-4.65,5.89-9.17l.46-1.36.07,1.43c.05,1.07.29,1.97.69,2.66.41.7,1.01,1.18,1.71,1.37.68.19,1.45.12,2.23-.2,1.09-.45,2.16-1.39,3-2.64l.92-1.37-.78,2.85c-1,3.63-.6,6.74,1.09,8.51.66.7,1.5,1.15,2.41,1.31.9.16,1.85.03,2.73-.38,1.19-.55,2.19-1.56,2.9-2.93l.75-1.45-1.78,11.74c-.95,6.28.9,8.99,2.08,10.05.76.68,1.68,1.08,2.67,1.17.96.08,1.96-.13,2.91-.63,1.3-.68,2.42-1.83,3.24-3.32l.61-1.12-1.34,16.13c-.13,1.58-.2,3.13-.19,4.61v.22s-.03,0-.03,0Z"/><path class="cls-1" d="m285.82,256.48l1.61-25.02,7.66-121.64c.09-1.43.07-2.89-.06-4.36-.08-.93-.2-1.85-.35-2.78-.66-3.1-1.84-5.6-3.35-7.61-2.1-2.8-4.83-4.65-7.65-5.79l-.08,167.19h2.21Z"/><path class="cls-2" d="m286.07,256.75h-2.74v-.27l.08-167.59.37.15c3.2,1.3,5.82,3.28,7.76,5.88,1.62,2.17,2.76,4.76,3.39,7.71.16.94.28,1.88.36,2.81.13,1.51.15,2.98.06,4.4l-7.66,121.64-1.63,25.27Zm-2.2-.54h1.69l1.59-24.76,7.66-121.64c.09-1.38.07-2.84-.06-4.32-.08-.91-.2-1.84-.35-2.75-.61-2.86-1.72-5.39-3.3-7.49-1.81-2.42-4.22-4.28-7.16-5.55l-.08,166.51Z"/><path class="cls-1" d="m135.89,185.68c-4.1-1.51-7.92-2.2-11.25-2.06-3.26.14-6.05,1.07-8.17,2.79l114.88,70.07h7.81l-98.2-67.8c-1.59-1.1-3.3-2.1-5.08-3h0Z"/><path class="cls-2" d="m240.04,256.75h-8.76l-.06-.04-115.21-70.27.3-.24c2.16-1.75,4.97-2.71,8.33-2.85,3.41-.14,7.23.55,11.35,2.07h.03c1.82.93,3.54,1.94,5.11,3.03l98.91,68.3Zm-8.61-.54h6.87l-97.48-67.31c-1.55-1.07-3.24-2.07-5.03-2.97-4.05-1.49-7.79-2.18-11.13-2.03-3.09.13-5.68.97-7.71,2.49l114.48,69.82Z"/><path class="cls-1" d="m205.57,248.73l15.77,7.75h8.81l-116.27-65.43c-.41,2.86.18,5.56,1.59,8.21,1.43,2.69,3.69,5.33,6.58,8.05.38.22.77.43,1.17.62l82.34,40.8h0Z"/><path class="cls-2" d="m231.18,256.75l-9.96-.03-15.78-7.75-82.34-40.8c-.4-.2-.79-.41-1.18-.63-3.17-2.97-5.34-5.62-6.69-8.16-1.5-2.82-2.03-5.56-1.62-8.38l.06-.39.34.19,117.17,65.94Zm-9.78-.54h7.71l-115.02-64.72c-.29,2.57.24,5.07,1.61,7.65,1.32,2.48,3.45,5.09,6.53,7.98.33.18.71.38,1.1.58l82.34,40.8,15.72,7.72Z"/><path class="cls-1" d="m156.58,198.29l84.9,58.84h3.47l-80.98-63.43h0c-4.4-3.28-7.69-4.05-9.71-3.51-.81.22-1.4.65-1.76,1.21-.36.56-.49,1.27-.38,2.02.24,1.67,1.66,3.57,4.41,4.84h.03s.03.03.03.03h0Z"/><path class="cls-2" d="m245.74,257.4h-4.34l-.07-.05-84.93-58.86c-2.55-1.17-4.26-3.06-4.55-5.04-.12-.82.03-1.59.42-2.2.41-.64,1.08-1.1,1.92-1.33,1.42-.38,4.61-.42,9.94,3.56l81.6,63.91Zm-4.17-.54h2.6l-80.36-62.94c-3.76-2.81-7.21-4.07-9.47-3.47-.71.19-1.27.57-1.6,1.1-.33.51-.44,1.14-.34,1.84.26,1.79,1.85,3.53,4.25,4.63l.07.04-.13.24.15-.22,84.83,58.79Z"/><path class="cls-1" d="m188.58,169.09l70.15,87.39h2.87l-24.24-34.36-40.74-57.67c-3.79-4.99-6.58-7.25-8.47-7.77-.86-.23-1.5-.09-1.96.33-.48.44-.77,1.2-.89,2.14-.33,2.73.84,6.91,3.27,9.93h0Z"/><path class="cls-2" d="m262.13,256.75h-3.53l-.08-.1-70.15-87.39c-2.6-3.24-3.64-7.55-3.33-10.14.13-1.03.46-1.83.97-2.3.38-.35,1.07-.71,2.21-.4,2.18.59,5.16,3.31,8.62,7.87l40.75,57.68,24.54,34.79Zm-3.27-.54h2.22l-23.94-33.93-40.74-57.67c-4.27-5.62-6.88-7.27-8.32-7.66-.72-.2-1.3-.11-1.7.27-.41.38-.69,1.06-.8,1.97-.3,2.47.71,6.61,3.21,9.73l70.07,87.29Z"/><path class="cls-1" d="m197.23,164.05c.52.69,1.06,1.42,1.62,2.21l39.13,55.47,24.55,34.75h2.47l-84.34-134.73c-1.81,2.24-2.55,4.79-2.57,7.71-.02,2.93.69,6.24,1.78,10.01l.05.07,17.31,24.51h0Z"/><path class="cls-2" d="m265.49,256.75h-3.1l-24.63-34.87-39.13-55.47c-.55-.77-1.09-1.52-1.61-2.21h0s-17.4-24.66-17.4-24.66c-1.26-4.33-1.81-7.44-1.79-10.09.02-3.13.88-5.71,2.63-7.88l.24-.3.2.32,84.6,135.14Zm-2.82-.54h1.84l-83.88-133.99c-1.51,2.01-2.26,4.38-2.28,7.24-.02,2.58.53,5.63,1.76,9.89l.02.03,17.31,24.5c.53.69,1.07,1.44,1.62,2.22l39.13,55.47,24.47,34.64Z"/><path class="cls-1" d="m218.24,159.53l-2.67-5.22c-.11-.22-.22-.44-.33-.66l-12.73-24.93-.14-.27c-2.77-3.42-5.72-5.97-8.67-7.56-2.86-1.54-5.73-2.17-8.44-1.78l80.43,137.38h2.04l-49.49-96.96h0Z"/><path class="cls-2" d="m268.18,256.75h-2.63l-.08-.13-80.64-137.73.4-.06c2.75-.39,5.64.21,8.6,1.81,3.02,1.62,5.96,4.19,8.75,7.63l.17.32,12.73,24.94c.11.22.22.44.33.66l2.67,5.22,49.69,97.35Zm-2.32-.54h1.44l-51.96-101.78c-.12-.22-.23-.45-.34-.67l-12.87-25.2c-2.71-3.34-5.6-5.86-8.56-7.45-2.71-1.46-5.36-2.06-7.87-1.8l80.15,136.89Z"/><path class="cls-1" d="m270.88,256.48l-38.5-90.34c-.4-.95-.76-1.85-1.07-2.72l-6.02-14.14c-2.34-5.49-5.4-8.59-7.9-9.46-.93-.32-1.77-.33-2.45-.04-.67.29-1.2.89-1.52,1.79-.78,2.2-.29,6.1,2.38,11.6l4.35,8.53,48.5,94.79h2.22Z"/><path class="cls-2" d="m271.29,256.75h-2.8l-.07-.15-52.85-103.31c-2.45-5.04-3.3-9.23-2.4-11.81.33-.95.91-1.62,1.67-1.95.74-.33,1.66-.31,2.64.03,2.92,1.02,5.94,4.61,8.06,9.61l6.02,14.14c.32.88.67,1.79,1.07,2.72l38.66,90.72Zm-2.46-.54h1.64l-38.34-89.96c-.4-.94-.76-1.86-1.08-2.74l-6.01-14.13c-2.07-4.86-4.96-8.34-7.74-9.31-.85-.3-1.63-.31-2.25-.04-.61.27-1.09.83-1.37,1.63-.85,2.4.02,6.56,2.37,11.39l4.35,8.52,48.42,94.64Z"/><path class="cls-1" d="m155.89,237.46l55.84,20.32,8.21-1.12-15.08-7.47-51.82-25.47c-7.55-3.71-12.85-4.49-15.74-3.57-1.17.37-1.92,1.03-2.22,1.87-.31.86-.18,1.94.41,3.14,1.6,3.26,6.48,7.29,14.94,10.36l3.8,1.38c.53.16,1.08.35,1.66.56h0Z"/><path class="cls-2" d="m211.7,258.06l-.06-.02-55.84-20.32c-.57-.21-1.12-.39-1.65-.56l-3.81-1.38c-7.57-2.75-13.21-6.67-15.09-10.5-.62-1.25-.76-2.41-.42-3.35.34-.94,1.17-1.65,2.39-2.04,3.34-1.06,9.14.25,15.94,3.59l51.82,25.47,15.87,7.86-9.15,1.25Zm-71.81-37.98c-.95,0-1.78.11-2.5.34-1.06.34-1.77.93-2.05,1.7-.29.8-.15,1.81.4,2.93,1.82,3.7,7.35,7.53,14.79,10.23l3.8,1.38c.52.16,1.08.35,1.66.56l55.78,20.3,7.26-.99-14.29-7.08-51.82-25.47c-5.18-2.55-9.75-3.9-13.04-3.9Z"/><path class="cls-1" d="m257.53,256.48l-60.44-75.36c-3.78-4.72-7.37-6.89-9.79-7.14-.86-.09-1.56.07-2.04.44-.48.37-.76.96-.81,1.74-.12,1.99,1.25,5.14,4.81,9.01l65.54,71.31h2.74Z"/><path class="cls-2" d="m258.1,256.75h-3.42l-.08-.09-65.54-71.31c-3.24-3.53-5.02-6.89-4.88-9.21.05-.84.37-1.51.92-1.93.55-.42,1.32-.59,2.24-.5,2.85.3,6.58,3,9.98,7.24l60.79,75.8Zm-3.18-.54h2.05l-60.09-74.91c-3.31-4.13-6.9-6.76-9.61-7.04-.78-.08-1.42.05-1.85.39-.42.32-.66.85-.71,1.54-.13,2.18,1.59,5.39,4.74,8.81l65.46,71.22Z"/><path class="cls-1" d="m274.84,256.48l-24.31-96.19v-.02c-.7-3.63-2.46-5.85-4.26-6.64-.72-.32-1.45-.39-2.1-.23-.65.16-1.23.57-1.68,1.22-.95,1.37-1.3,3.78-.46,7.28l31.17,94.57h1.65Z"/><path class="cls-2" d="m275.18,256.75h-2.19l-.06-.19-31.17-94.57c-.79-3.26-.61-5.93.5-7.52.47-.68,1.11-1.14,1.84-1.33.71-.18,1.5-.1,2.28.24,2.12.93,3.77,3.48,4.41,6.84l24.4,96.53Zm-1.8-.54h1.1l-24.22-95.85c-.62-3.22-2.15-5.62-4.1-6.48-.67-.29-1.33-.37-1.93-.21-.6.15-1.13.54-1.53,1.11-1.02,1.46-1.16,3.97-.42,7.06l31.1,94.37Z"/><path class="cls-1" d="m272.29,256.48l-30.41-92.42c-.22-.68-.41-1.32-.56-1.94l-.17-.5c-1.95-5.92-4.61-9.41-6.85-10.59-.83-.44-1.6-.54-2.22-.31-.61.22-1.11.79-1.43,1.68-.72,2.02-.5,5.62,1.33,10.74l39.71,93.35h.59Z"/><path class="cls-2" d="m272.67,256.75h-1.15l-.07-.17-39.71-93.35c-1.7-4.73-2.17-8.61-1.34-10.94.34-.95.89-1.58,1.59-1.84.69-.26,1.54-.14,2.43.33,2.61,1.36,5.22,5.38,6.99,10.74l.17.5c.16.64.34,1.29.56,1.94l30.53,92.78Zm-.79-.54h.04l-30.3-92.07c-.22-.67-.41-1.32-.56-1.96l-.16-.48c-1.72-5.23-4.24-9.13-6.72-10.43-.76-.4-1.44-.5-2-.3-.55.2-.99.72-1.27,1.51-.46,1.28-.89,4.36,1.33,10.56l39.64,93.17Z"/><path class="cls-1" d="m275.64,203.53l5.47,52.95h1.9l-4.64-167.32c-2.74.97-4.88,2.65-6.73,5.05-1.87,2.44-3.45,5.61-5.04,9.54-.29,2.04-.38,4-.23,5.76h0l.02.25h0l9.25,93.77h0Z"/><path class="cls-2" d="m283.29,256.75h-2.42l-5.5-53.19-9.28-94.01c-.15-1.76-.07-3.72.23-5.82,1.79-4.45,3.36-7.42,5.09-9.67,1.96-2.55,4.14-4.18,6.86-5.14l.35-.12,4.66,167.97Zm-1.93-.54h1.37l-4.63-166.66c-2.45.94-4.45,2.49-6.26,4.83-1.7,2.21-3.25,5.14-5,9.48-.28,2-.36,3.92-.21,5.63l.02.25,9.26,93.76,5.45,52.7Z"/><path class="cls-1" d="m268.95,210.97l-10.21-59.02c-.63-3.63-2.16-5.76-3.8-6.51-.67-.31-1.36-.38-2.01-.22-.65.16-1.26.55-1.77,1.17-1.36,1.65-2,4.84-.84,9.45l25.42,100.65h.86l-7.65-45.52h0Z"/><path class="cls-2" d="m276.92,256.75h-1.39l-.05-.21-25.42-100.65c-1.06-4.19-.73-7.72.89-9.69.54-.65,1.2-1.08,1.91-1.26.71-.17,1.46-.09,2.18.24,1.93.88,3.37,3.33,3.95,6.71l10.21,59.02,7.71,45.83Zm-.96-.54h.32l-7.6-45.2h0s-10.21-59.02-10.21-59.02c-.55-3.2-1.88-5.5-3.64-6.31-.61-.28-1.24-.35-1.83-.2-.6.15-1.16.52-1.62,1.08-1.52,1.83-1.8,5.18-.79,9.21l25.36,100.45Z"/><path class="cls-1" d="m269.65,210.72l7.92,45.77h2.58l-5.22-52.84-7.22-69.87c-.42-4.04-2.2-6.82-4.21-7.94-.79-.44-1.61-.62-2.39-.51-.77.11-1.5.5-2.13,1.21-1.63,1.85-2.52,5.77-1.44,12.2l12.1,71.98h0Z"/><path class="cls-2" d="m280.44,256.75h-3.1l-.04-.23-7.92-45.77-12.1-71.98c-.98-5.81-.44-10.22,1.5-12.42.65-.73,1.44-1.18,2.29-1.3.82-.12,1.71.07,2.55.54,2.33,1.3,3.95,4.35,4.35,8.15l7.22,69.87,5.24,53.13Zm-2.65-.54h2.05l-5.19-52.54-7.22-69.87c-.37-3.57-1.93-6.53-4.07-7.73-.74-.41-1.51-.58-2.22-.48-.74.1-1.4.48-1.96,1.12-1.06,1.2-2.65,4.36-1.37,11.97l12.1,71.98,7.88,45.54Z"/><path class="cls-1" d="m249.39,256.39l-32.02-29.87-31.67-29.45h0c-5.06-4.75-9.04-6.49-11.55-6.35-.98.06-1.71.41-2.19.98-.48.58-.7,1.39-.65,2.37.15,2.58,2.22,6.19,6.65,9.64l66.88,52.31,4.54.35h0Z"/><path class="cls-2" d="m250.15,256.72l-5.39-.42-66.95-52.36c-4.05-3.15-6.57-6.83-6.75-9.84-.06-1.04.18-1.93.71-2.56.53-.64,1.36-1.02,2.38-1.08,2.99-.16,7.15,2.1,11.75,6.42l.04.03,31.63,29.41,32.58,30.4Zm-5.19-.95l3.68.29-31.45-29.34-31.7-29.48c-4.41-4.13-8.52-6.4-11.32-6.24-.87.05-1.56.36-2,.88-.44.52-.64,1.28-.58,2.18.17,2.85,2.62,6.38,6.54,9.44l66.82,52.26Z"/><path class="cls-1" d="m217.89,226.01l32.63,30.34,3.14.11-61.52-66.87c-2.26-2.46-4.96-3.3-6.98-2.93-.76.14-1.42.45-1.92.91-.49.45-.81,1.05-.92,1.77-.25,1.75.76,4.2,3.85,7.09l31.72,29.59h0Z"/><path class="cls-2" d="m254.3,256.75l-3.89-.13-.07-.07-32.63-30.34-31.72-29.59c-2.84-2.65-4.23-5.25-3.93-7.32.11-.76.46-1.43,1-1.93.53-.49,1.24-.83,2.05-.97,1.84-.33,4.72.28,7.23,3.02l61.96,67.35Zm-3.67-.67l2.39.08-61.08-66.4c-2.37-2.57-5.03-3.16-6.73-2.85-.71.13-1.33.42-1.78.84-.46.43-.74.97-.84,1.61-.16,1.1.12,3.45,3.76,6.85l31.72,29.59,32.56,30.27Z"/><path class="cls-1" d="m155.38,248c.12.03.24.06.36.09l55.57,15.12v-4.81l-57.33-20.82c-3.97-1.23-6.6-1.21-8.05-.47-.71.36-1.11.91-1.24,1.56-.13.69.04,1.5.48,2.37,1.29,2.53,4.84,5.42,10.2,6.95h0Z"/><path class="cls-2" d="m211.58,263.57l-.34-.09-55.57-15.12c-.12-.03-.24-.06-.35-.09h-.01c-5.84-1.66-9.18-4.75-10.37-7.09-.47-.92-.64-1.8-.5-2.54.14-.76.62-1.36,1.38-1.75,1.67-.86,4.52-.71,8.25.45l57.52,20.89v5.35Zm-56.13-15.83c.12.03.24.06.36.09l55.23,15.03v-4.26l-57.15-20.76c-3.53-1.09-6.31-1.27-7.83-.48-.61.32-.98.78-1.09,1.37-.12.62.04,1.38.45,2.2,1.13,2.24,4.37,5.2,10.03,6.81Z"/><path class="cls-1" d="m341.03,256.48l76.16-40.65c.6-.32,1.17-.58,1.72-.79l22.96-12.27-.05-.06c3.58-3.19,5.99-5.73,7.34-8.18,1.27-2.3,1.59-4.54,1.04-7.18l-117.72,69.12h8.54Z"/><path class="cls-2" d="m341.09,256.75h-9.6l118.9-69.81.08.37c.56,2.73.23,5-1.07,7.36-1.23,2.24-3.39,4.66-7.2,8.07l.1.11-23.27,12.43c-.58.22-1.15.48-1.72.79l-76.22,40.68Zm-7.61-.54h7.47l76.1-40.62c.59-.32,1.18-.59,1.76-.8l22.63-12.09h0s.2-.18.2-.18c3.88-3.46,6.06-5.89,7.28-8.11,1.18-2.14,1.52-4.19,1.09-6.62l-116.53,68.42Z"/><path class="cls-1" d="m408.13,232.66l15.43-6.72c2.62-1.14,3.86-3.36,3.91-5.49.02-.88-.16-1.75-.52-2.53-.36-.77-.91-1.44-1.63-1.94-1.41-.97-3.48-1.26-6.11-.28l-76.33,40.77h10.55l51.95-22.81h0c.96-.4,1.88-.73,2.75-1.01h0Z"/><path class="cls-2" d="m353.48,256.75h-11.69l77.29-41.28c2.51-.94,4.76-.83,6.39.29.73.5,1.33,1.21,1.72,2.04.38.81.57,1.73.55,2.65-.06,2.51-1.59,4.65-4.08,5.73l-15.46,6.73c-.89.28-1.81.61-2.73,1l-52,22.83Zm-9.52-.54h9.41l51.9-22.79c.94-.39,1.87-.73,2.77-1.01l15.42-6.71c2.29-1,3.69-2.96,3.75-5.25.02-.84-.15-1.67-.5-2.41-.35-.75-.89-1.38-1.54-1.83-1.05-.72-2.91-1.35-5.86-.25l-75.35,40.25Z"/><path class="cls-1" d="m409.75,195.14l-84.22,61.35h5.8l116.29-73.59c-1.87-2.02-3.95-3.25-6.69-3.66-2.71-.41-6.09-.03-10.57,1.17-1.04.53-2.05,1.15-3.01,1.85l-16.9,12.32c-.21.19-.44.38-.69.56h0Z"/><path class="cls-2" d="m331.4,256.75h-6.71l84.89-61.84c.24-.18.47-.36.67-.54l16.92-12.34c.95-.69,1.97-1.32,3.04-1.87,4.59-1.24,7.99-1.62,10.73-1.2,2.68.4,4.86,1.59,6.85,3.75l.22.24-.28.17-116.35,73.63Zm-5.04-.54h4.89l115.94-73.37c-1.84-1.91-3.86-2.97-6.31-3.34-2.67-.4-5.99-.03-10.46,1.17-1,.52-2,1.13-2.92,1.8l-16.9,12.32c-.2.18-.44.37-.69.56l-83.55,60.86Z"/><path class="cls-1" d="m328.07,192.84l-30.76,63.65h2.24l78.45-139.43c-2.86-.43-5.21-.26-7.65.72-2.49.99-5.08,2.82-8.42,5.66-.56.83-.98,1.55-1.24,2.08l-32.62,67.33h0Z"/><path class="cls-2" d="m299.71,256.75h-2.83l.19-.39,30.76-63.65,32.62-67.33c.27-.56.71-1.29,1.26-2.11l.05-.05c3.57-3.05,6.11-4.76,8.49-5.71,2.4-.96,4.8-1.19,7.79-.74l.39.06-.19.34-78.53,139.57Zm-1.96-.54h1.65l78.18-138.95c-2.71-.36-4.92-.12-7.12.76-2.31.92-4.8,2.6-8.31,5.59-.52.78-.94,1.48-1.2,2.01l-32.62,67.33-30.57,63.26Z"/><path class="cls-1" d="m353.87,261.66l53.58-18.33c.39-.13.77-.23,1.14-.3l1.42-.49c5.04-1.72,7.82-4.01,8.67-6.01.33-.77.36-1.49.12-2.09-.24-.61-.77-1.13-1.56-1.49-1.77-.82-4.78-.87-8.83.39l-54.54,23.74v4.58h0Z"/><path class="cls-2" d="m353.59,262.04v-5.13s.16-.07.16-.07l54.54-23.74c3.81-1.2,7.02-1.33,9.06-.39.84.39,1.43.95,1.7,1.64.27.68.23,1.48-.12,2.3-1,2.34-4.22,4.59-8.83,6.16l-1.42.49c-.4.08-.77.17-1.14.3l-53.94,18.46Zm.54-4.78v4.02s53.22-18.21,53.22-18.21c.39-.13.79-.24,1.18-.31l1.38-.47c4.47-1.52,7.57-3.66,8.51-5.86.29-.69.33-1.34.12-1.89-.22-.55-.71-1.02-1.43-1.35-1.11-.51-3.7-1.14-8.64.41l-54.35,23.66Z"/><path class="cls-1" d="m392.7,195.77c-.31.33-.66.66-1.05.99l-31.64,26.6-39.25,33.13h3.53l.25-.18,85.44-62.29c1.47-1.32,1.99-2.79,1.79-4.08-.11-.69-.41-1.32-.89-1.85-.48-.54-1.13-.97-1.92-1.24-2.19-.75-5.41-.24-8.88,2.69l-7.38,6.23h0Z"/><path class="cls-2" d="m324.38,256.75h-4.36l39.82-33.61,31.64-26.6c.37-.31.72-.64,1.02-.97l.02-.02,7.38-6.23c3.14-2.65,6.47-3.65,9.14-2.74.81.28,1.52.73,2.04,1.31.51.57.84,1.26.96,1.99.23,1.5-.44,3.03-1.88,4.33l-85.78,62.54Zm-2.87-.54h2.7l.18-.13,85.44-62.29c1.28-1.15,1.89-2.51,1.69-3.82-.1-.63-.38-1.22-.82-1.71-.46-.51-1.09-.91-1.81-1.16-2.48-.85-5.62.12-8.61,2.64l-7.37,6.22c-.32.34-.68.67-1.06,1l-31.64,26.6-38.68,32.65Z"/><path class="cls-1" d="m305.83,256.15l9.8-12.55,59.64-76.59c3.52-4.52,4.65-7.9,4.3-9.96h0c-.13-.81-.5-1.4-1.04-1.75-.55-.36-1.28-.5-2.14-.39-2.09.27-4.83,1.96-7.38,5.26l-33.02,49.23-31.45,46.97,1.29-.21h0Z"/><path class="cls-2" d="m303.97,256.72l64.82-96.72c2.4-3.12,5.15-5.07,7.57-5.38.92-.12,1.72.03,2.32.43.61.41,1.01,1.08,1.16,1.93.41,2.44-1.14,6.05-4.36,10.18l-59.64,76.59-9.86,12.64-2.01.32Zm72.98-101.59c-.17,0-.34.01-.52.04-2.24.29-4.93,2.22-7.2,5.16l-33.01,49.22-31.1,46.45.57-.09,9.73-12.47,59.64-76.59c3.07-3.95,4.62-7.5,4.25-9.75-.12-.72-.43-1.25-.92-1.57-.38-.25-.87-.38-1.43-.38Z"/><path class="cls-1" d="m365.77,180.53l-49.59,63.54-9.67,12.42h2.52l64.16-70.99.02-.02c3.56-3.39,4.87-6.23,4.73-8.17-.06-.82-.39-1.47-.93-1.91-.55-.45-1.32-.68-2.24-.67-2.44.03-5.84,1.75-8.99,5.8h0Z"/><path class="cls-2" d="m309.15,256.75h-3.19l10.01-12.85,49.59-63.54c2.86-3.66,6.3-5.87,9.21-5.9,1,.01,1.81.24,2.42.73.61.5.97,1.22,1.03,2.1.17,2.29-1.54,5.27-4.82,8.38l-64.25,71.08Zm-2.08-.54h1.84l64.08-70.9c3.14-2.99,4.83-5.89,4.68-7.98-.05-.73-.34-1.32-.83-1.72-.51-.41-1.21-.6-2.07-.61-2.74.03-6.02,2.16-8.78,5.69l-49.59,63.54-9.33,11.98Z"/><path class="cls-1" d="m334.09,156.36c-.31,1.23-.75,2.55-1.35,3.97h0s-37.67,96.15-37.67,96.15h1.35l30.97-63.91,22.07-45.67c1.57-3.26,1.33-5.84.17-7.46-.49-.69-1.16-1.2-1.91-1.52-.76-.32-1.62-.43-2.5-.32-2.22.28-4.59,2-5.97,5.55l-5.16,13.21h0Z"/><path class="cls-2" d="m296.59,256.75h-1.92l.14-.37,37.67-96.15c.58-1.36,1.03-2.68,1.34-3.93v-.03s5.17-13.21,5.17-13.21c1.29-3.29,3.54-5.38,6.19-5.72.91-.12,1.83,0,2.64.34.81.34,1.51.89,2.03,1.61,1.36,1.9,1.31,4.72-.15,7.74l-22.07,45.67-31.04,64.07Zm-1.12-.54h.78l30.89-63.76,22.07-45.67c1.37-2.83,1.44-5.45.19-7.18-.45-.63-1.08-1.13-1.8-1.42-.73-.3-1.54-.4-2.36-.3-2.44.31-4.54,2.27-5.75,5.38l-5.15,13.2c-.32,1.27-.78,2.62-1.36,3.99l-37.52,95.78Z"/><path class="cls-1" d="m322.5,160.7c-.12.48-.25.97-.41,1.49l-27.98,89.14-1.62,5.16h1.72l39.2-100.38c.81-3.23.63-5.69-.12-7.22-.39-.8-.93-1.33-1.57-1.58-.63-.25-1.36-.22-2.14.12-1.93.84-4.07,3.5-5.54,8.35h0s-1.54,4.93-1.54,4.93h0Z"/><path class="cls-2" d="m294.4,256.75h-2.27l1.73-5.51,27.98-89.14c.16-.49.29-.99.41-1.47v-.02s1.55-4.93,1.55-4.93c1.35-4.43,3.42-7.53,5.7-8.52.82-.36,1.63-.4,2.34-.12.71.28,1.3.87,1.71,1.71.85,1.74.9,4.37.14,7.41l-39.28,100.58Zm-1.54-.54h1.17l39.14-100.21c.72-2.88.68-5.38-.11-7.01-.35-.72-.85-1.22-1.43-1.45-.57-.22-1.24-.18-1.93.12-2.12.92-4.08,3.88-5.38,8.14v.04s-1.55,4.92-1.55,4.92c-.12.49-.26,1-.42,1.5l-29.48,93.94Z"/><path class="cls-1" d="m290,256.48l7.59-34.05,14.91-67.97c1.15-5.23.59-8.7-.72-10.41-.51-.67-1.14-1.06-1.82-1.17-.68-.11-1.43.07-2.18.53h0c-2,1.23-3.95,4.43-4.7,9.62l-11.61,80.32-3.3,23.13h1.84Z"/><path class="cls-2" d="m290.22,256.75h-2.37l.04-.31,3.3-23.13,11.61-80.32c.68-4.71,2.48-8.37,4.82-9.81.79-.49,1.62-.68,2.37-.56.76.12,1.45.56,1.99,1.27,1.53,2,1.81,5.88.77,10.63l-14.91,67.97-7.64,34.26Zm-1.74-.54h1.3l7.54-33.84,14.91-67.97c1.01-4.6.76-8.31-.67-10.18-.46-.6-1.03-.97-1.64-1.07-.63-.1-1.32.07-2,.49-2.21,1.36-3.91,4.88-4.57,9.43l-11.61,80.32-3.26,22.82Z"/><path class="cls-1" d="m312.27,159.88l-13.82,62.01-7.59,34.6h.86l1.64-5.22,28.44-90.77c.81-3.34.45-5.61-.5-6.88-.46-.61-1.06-.99-1.73-1.13-.69-.15-1.45-.07-2.23.24h0c-2.08.83-4.2,3.26-5.07,7.16h0Z"/><path class="cls-2" d="m291.92,256.75h-1.39l7.66-34.93,13.82-62.01c.81-3.62,2.76-6.37,5.23-7.36.82-.33,1.65-.42,2.38-.26.75.16,1.41.59,1.89,1.23.78,1.04,1.51,3.12.55,7.11l-30.14,96.2Zm-.72-.54h.32l1.58-5.03,28.44-90.77c.71-2.93.54-5.3-.46-6.64-.4-.54-.95-.89-1.57-1.03-.63-.14-1.35-.06-2.07.23-1.78.71-4,2.92-4.9,6.97l-13.82,62.01-7.52,34.27Z"/><path class="cls-1" d="m380.43,192.9c-.17.19-.35.38-.54.57l-13.53,13.19-50.95,49.82h4.08l39.33-33.06,33.4-28.19c1.52-1.64,2.04-3.29,1.81-4.64-.12-.72-.46-1.36-.98-1.86-.52-.51-1.22-.88-2.06-1.06-2.31-.51-5.63.42-9.1,3.81l-1.46,1.43h0Z"/><path class="cls-2" d="m319.58,256.75h-4.84l51.42-50.28,13.54-13.19c.19-.18.36-.37.53-.55h.01s1.46-1.45,1.46-1.45c3.15-3.08,6.55-4.49,9.34-3.88.87.19,1.63.58,2.19,1.14.56.55.92,1.24,1.06,2.01.26,1.55-.4,3.28-1.88,4.87l-33.43,28.22-39.41,33.13Zm-3.51-.54h3.31l39.25-33,33.4-28.19c1.33-1.44,1.95-3,1.72-4.39-.11-.66-.42-1.25-.9-1.72-.49-.48-1.16-.83-1.93-.99-2.6-.57-5.83.79-8.85,3.74l-1.46,1.42c-.17.19-.35.39-.55.58l-13.54,13.19-50.47,49.35Z"/><path class="cls-1" d="m287.39,256.48l3.35-23.15,14.08-98.53c.83-5.8-.06-9.43-1.61-11.12-.62-.68-1.35-1.04-2.11-1.1-.77-.06-1.58.18-2.37.71-2.07,1.4-3.91,4.74-4.23,9.75l-6.33,98.42-1.58,25.02h.81Z"/><path class="cls-2" d="m287.62,256.75h-1.33l.02-.29,1.58-25.02,6.33-98.42c.3-4.6,1.92-8.32,4.35-9.96.83-.56,1.71-.82,2.54-.76.85.07,1.64.48,2.29,1.18,1.84,2.01,2.44,6.04,1.68,11.35l-14.08,98.53-3.38,23.38Zm-.75-.54h.28l3.31-22.92,14.08-98.53c.72-5.07.16-9.04-1.55-10.9-.56-.61-1.22-.95-1.93-1.01-.71-.06-1.47.17-2.2.67-2.29,1.54-3.82,5.11-4.11,9.55l-6.33,98.42-1.56,24.73Z"/><path class="cls-1" d="m310.07,256.48h4.13l51.63-50.34,14.06-13.75c1.67-1.9,2.05-3.93,1.6-5.51-.19-.66-.52-1.24-.96-1.69-.44-.45-.99-.77-1.61-.93-1.46-.36-3.35.21-5.23,2.27l-63.62,69.94h0Z"/><path class="cls-2" d="m314.31,256.75h-4.85l.41-.45,63.62-69.94c2.4-2.63,4.47-2.61,5.49-2.35.66.16,1.26.51,1.74,1,.48.49.83,1.11,1.03,1.81.53,1.86-.07,3.96-1.66,5.76l-14.07,13.76-51.71,50.41Zm-3.63-.54h3.41l51.55-50.26,14.06-13.75c1.44-1.65,2-3.56,1.53-5.24-.17-.61-.48-1.15-.9-1.58-.41-.42-.92-.71-1.48-.85-1.54-.38-3.35.42-4.96,2.19l-63.21,69.48Z"/><path class="cls-1" d="m383.37,137.46c1.58-4.17,2.15-7.52,1.9-10.36-.26-2.81-1.33-5.14-3.05-7.29l-81.98,136.67h3.29l31.86-47.49,32.09-47.93c.31-.46.62-.9.94-1.32l14.95-22.29h0Z"/><path class="cls-2" d="m303.67,256.75h-3.91l82.43-137.42.24.3c1.87,2.34,2.85,4.7,3.1,7.43.27,2.96-.36,6.38-1.91,10.48l-.03.05-14.95,22.29c-.33.43-.64.86-.94,1.31l-32.09,47.93-31.94,47.61Zm-2.95-.54h2.66l31.78-47.37,32.09-47.93c.31-.46.63-.91.95-1.33l14.92-22.25c1.52-4.01,2.13-7.35,1.87-10.21-.23-2.5-1.1-4.68-2.75-6.83l-81.53,135.92Z"/><path class="cls-1" d="m211.31,309.99v-5.08l-55.98,12.88c-2.5.57-3.78,2.22-4.08,4-.13.75-.09,1.52.1,2.25.19.72.53,1.4,1,1.97,1.05,1.25,2.76,1.92,4.93,1.23l54.03-17.25h0Z"/><path class="cls-2" d="m155.59,327.79c-1.36,0-2.57-.55-3.45-1.6-.49-.58-.85-1.3-1.06-2.07-.2-.77-.24-1.59-.11-2.37.37-2.14,1.93-3.68,4.29-4.22l56.31-12.96v5.62l-.19.06-54.03,17.25c-.61.19-1.2.29-1.77.29Zm55.44-22.53l-55.65,12.8c-2.13.49-3.55,1.87-3.88,3.78-.12.7-.09,1.44.1,2.14.18.7.51,1.34.95,1.86,1.1,1.32,2.8,1.74,4.65,1.15l53.84-17.18v-4.54Z"/><path class="cls-1" d="m215.55,349.65l-17.98,17.2-10.46,10.28c-1.98,1.95-2.42,3.97-1.91,5.55.22.68.61,1.27,1.13,1.75.52.48,1.17.83,1.91,1.02,1.88.49,4.31-.11,6.48-2.53l21.23-23.51-.37-9.79-.02.02h0Z"/><path class="cls-2" d="m189.5,385.89c-.45,0-.9-.06-1.34-.17-.76-.2-1.46-.57-2.02-1.09-.56-.51-.98-1.16-1.2-1.87-.6-1.87.12-3.99,1.98-5.82l10.46-10.28,18.44-17.63.39,10.49-.07.08-21.23,23.51c-1.63,1.81-3.55,2.78-5.42,2.78Zm25.83-35.65l-17.57,16.81-10.46,10.28c-1.71,1.68-2.38,3.6-1.84,5.27.2.62.56,1.18,1.05,1.63.5.45,1.11.79,1.79.96,2.06.54,4.33-.35,6.22-2.45l21.15-23.43-.34-9.08Z"/><path class="cls-1" d="m158.67,337.13l52.64-21.37v-4.98l-56.92,18.25c-4.15,1.33-6.45,3.47-7.12,5.44-.27.78-.27,1.53-.02,2.18h0c.25.65.75,1.2,1.49,1.59,1.89,1,5.26.97,9.93-1.11h.01Z"/><path class="cls-2" d="m151.71,339.15c-1.21,0-2.27-.22-3.11-.67-.78-.41-1.34-1.01-1.62-1.73l-.14-.37h.03c-.15-.62-.11-1.3.13-2,.8-2.33,3.46-4.38,7.3-5.61l57.28-18.36v5.53l-.17.07-52.63,21.37c-2.64,1.17-5.07,1.77-7.06,1.77Zm-4.19-2.51c.24.56.7,1.03,1.33,1.37,2.09,1.1,5.62.7,9.69-1.12h.02s52.47-21.31,52.47-21.31v-4.42l-56.57,18.13c-3.62,1.16-6.22,3.13-6.95,5.27-.24.71-.25,1.4-.02,2l.03.08Z"/><path class="cls-1" d="m211.34,344.83l-36.65,30.3c-1.64,1.94-2.42,3.67-2.48,5.01-.04.85.2,1.54.7,2.01.5.48,1.28.74,2.26.75,2.74,0,7.02-1.99,11.9-7h.01s9.87-9.45,9.87-9.45l18-17.7.1-6.93-3.71,3.01h0Z"/><path class="cls-2" d="m175.18,383.17h-.02c-1.04,0-1.88-.29-2.45-.82-.56-.53-.83-1.3-.78-2.22.08-1.51.96-3.3,2.55-5.17l36.69-30.34,4.16-3.38-.11,7.62-.08.08-18,17.7-9.87,9.45c-4.38,4.5-8.78,7.08-12.08,7.08Zm36.33-38.13l-36.65,30.3c-1.88,2.22-2.34,3.85-2.39,4.82-.04.76.17,1.38.61,1.8.46.44,1.18.67,2.08.67h.01c3.11,0,7.47-2.58,11.69-6.92l9.89-9.46,17.92-17.62.09-6.24-3.26,2.65h0Z"/><path class="cls-1" d="m211.31,316.56l-63.99,25.99c-5.62,2.28-8.57,5.25-9.35,7.74-.3.95-.27,1.83.04,2.56.32.73.93,1.32,1.8,1.71,2.2.98,6.01.7,11.02-1.84l60.47-30.75v-5.4h0Z"/><path class="cls-2" d="m142.61,355.35c-1.1,0-2.08-.18-2.91-.55-.92-.41-1.59-1.05-1.94-1.85-.35-.8-.37-1.75-.05-2.75.92-2.95,4.39-5.83,9.51-7.91l64.37-26.14v5.97l-.15.08-60.47,30.75c-3.11,1.58-6.01,2.4-8.35,2.4Zm68.43-38.39l-63.62,25.84c-4.97,2.02-8.32,4.78-9.19,7.57-.27.87-.26,1.69.03,2.37.29.67.87,1.22,1.67,1.57,2.43,1.08,6.36.41,10.79-1.84l60.33-30.67v-4.83Z"/><path class="cls-1" d="m211.31,337.71l-39.96,28.94-12.53,9.11c-2.56,1.86-3.57,3.82-3.47,5.38.04.67.29,1.27.71,1.75.42.49,1.02.86,1.76,1.08,2.04.59,5.1-.03,8.4-2.76l7.99-6.61c.88-1.03,1.99-2.11,3.34-3.21l33.19-26.99.57-.47v-6.21h0Z"/><path class="cls-2" d="m159.32,384.43c-.56,0-1.09-.07-1.59-.22-.77-.23-1.43-.63-1.89-1.16-.46-.53-.73-1.19-.77-1.91-.12-1.83,1.19-3.87,3.58-5.61l12.53-9.11,40.4-29.25v6.87l-.67.55-33.19,26.99c-1.3,1.05-2.41,2.12-3.31,3.18l-8.03,6.64c-2.37,1.96-4.9,3.03-7.06,3.03Zm51.72-46.2l-39.54,28.63-12.53,9.11c-2.24,1.63-3.46,3.5-3.36,5.14.04.6.26,1.15.64,1.59.39.45.96.8,1.63.99,2.26.66,5.31-.36,8.15-2.71l7.99-6.61c.89-1.05,2.02-2.14,3.35-3.21l33.66-27.38v-5.55Z"/><path class="cls-1" d="m211.31,330.24l-93.75,59.28c1.69,1.73,3.91,2.46,6.83,2.44,2.78-.02,6.19-.72,10.38-1.91,2.31-.96,4.75-2.16,7.31-3.63,2.27-1.31,4.64-2.84,7.08-4.61l21.75-15.75,40.39-29.36v-6.45h0Z"/><path class="cls-2" d="m124.27,392.23c-3.02,0-5.22-.8-6.91-2.53l-.24-.24.28-.18,94.17-59.54v7.08l-.11.08-40.39,29.36-21.76,15.75c-2.37,1.72-4.76,3.27-7.11,4.62-2.48,1.43-4.95,2.65-7.34,3.65-4.64,1.32-7.86,1.91-10.48,1.93-.04,0-.08,0-.12,0Zm-6.28-2.67c1.57,1.47,3.6,2.15,6.4,2.13,2.56-.02,5.74-.6,10.3-1.9,2.34-.97,4.79-2.19,7.25-3.61,2.33-1.34,4.7-2.89,7.06-4.59l21.75-15.75,40.28-29.28v-5.82l-93.04,58.83Z"/><path class="cls-1" d="m211.31,299.01l-15.59,2.5-46.62,7.75c-3.52.59-5.99,2.5-6.93,4.46-.37.76-.5,1.53-.36,2.22.14.67.53,1.28,1.22,1.73,1.69,1.12,5.05,1.39,10.49-.23h.02s57.78-13.57,57.78-13.57v-4.86h0Z"/><path class="cls-2" d="m146.89,318.84c-1.7,0-3.06-.32-4.01-.95-.72-.48-1.18-1.14-1.34-1.91-.15-.74-.02-1.56.38-2.39.86-1.8,3.19-3.95,7.13-4.6l46.62-7.75,15.91-2.55v5.39l-.21.05-57.78,13.56c-2.57.76-4.84,1.15-6.7,1.15Zm64.15-19.51l-15.28,2.45-46.62,7.75c-3.74.62-5.93,2.63-6.73,4.31-.35.72-.46,1.43-.34,2.05.13.63.5,1.16,1.11,1.56,1.08.72,3.85,1.64,10.26-.26l57.6-13.52v-4.33Z"/><path class="cls-1" d="m353.87,302.46l57.1,12.81c.2.04.39.1.57.16l5.11,1.14c3.23.72,5.44.1,6.59-1.13.5-.53.8-1.17.9-1.86.1-.7,0-1.45-.31-2.19-.84-1.98-3.15-3.85-7.05-4.44l-62.91-9.54v5.04h0Z"/><path class="cls-2" d="m419.22,317.15c-.76,0-1.63-.09-2.64-.32l-5.11-1.14c-.2-.07-.39-.12-.57-.16l-57.31-12.86v-5.57l.31.05,62.91,9.54c3.55.54,6.26,2.26,7.25,4.6.33.77.44,1.58.33,2.33-.11.75-.44,1.45-.97,2-.6.64-1.86,1.53-4.21,1.53Zm-65.08-14.91l56.89,12.76c.2.05.4.1.6.17l5.08,1.14c2.8.63,5.11.24,6.34-1.05.45-.48.74-1.07.83-1.71.1-.66,0-1.36-.29-2.04-.92-2.17-3.47-3.77-6.84-4.28l-62.6-9.49v4.51Z"/><path class="cls-1" d="m385.35,317.82l23.76,7.44c.21.07.42.13.63.2,2.03.29,3.43-.14,4.3-.97.52-.49.85-1.13,1-1.83.16-.71.15-1.5-.03-2.27-.41-1.84-1.72-3.6-3.68-4.27l-57.47-12.86v4.48l31.48,10.08h0Z"/><path class="cls-2" d="m410.94,325.83c-.38,0-.79-.03-1.24-.09-.25-.08-.46-.14-.67-.21l-23.76-7.44-31.67-10.14v-5.02l57.8,12.94c1.93.65,3.41,2.37,3.88,4.47.19.83.2,1.65.03,2.39-.18.78-.55,1.46-1.08,1.96-.58.55-1.59,1.13-3.28,1.13Zm-25.51-8.26l23.76,7.44c.21.07.42.14.63.2,1.73.25,3.14-.06,4.03-.9.46-.44.77-1.01.92-1.69.15-.66.14-1.41-.03-2.15-.44-1.93-1.78-3.48-3.5-4.07l-57.11-12.78v3.94l31.3,10.02h0Z"/><path class="cls-1" d="m409.56,326.17c-.64-.1-1.34-.26-2.09-.5l-22.28-7.13-31.32-9.8v6.01l1.06.41,59.42,23.03c1.8.27,3.41-.12,4.5-.93.62-.46,1.06-1.07,1.27-1.76.2-.69.17-1.49-.17-2.33-.92-2.27-3.98-4.87-10.37-6.98h0Z"/><path class="cls-2" d="m415.47,338.54c-.38,0-.77-.03-1.17-.09l-60.71-23.52v-6.56l31.68,9.91,22.28,7.13c.72.23,1.41.4,2.05.49h.04c5.7,1.89,9.44,4.42,10.54,7.15.35.86.41,1.73.18,2.51-.22.74-.69,1.4-1.37,1.9-.93.7-2.18,1.07-3.53,1.07Zm-61.33-23.98l.88.35,59.42,23.02c1.59.24,3.16-.08,4.23-.89.58-.44.99-1,1.17-1.62.2-.67.14-1.4-.16-2.15-.6-1.49-2.72-4.35-10.18-6.82-.67-.1-1.38-.27-2.11-.51l-22.28-7.13-30.97-9.69v5.45Z"/><path class="cls-1" d="m394.89,340.34l27.36,13.29c1.96.42,3.88.02,5.27-.89.77-.51,1.38-1.17,1.73-1.93.35-.75.46-1.6.25-2.5-.51-2.15-2.84-4.58-8.06-6.6l-7.29-2.83c-.62-.1-1.26-.27-1.91-.53l-29.44-11.52-28.51-11.15-.42-.16v4.49l41.03,20.32h0Z"/><path class="cls-2" d="m423.83,354.07c-.54,0-1.09-.06-1.63-.17l-27.42-13.31-41.18-20.4v-5.06l.79.31,57.95,22.67c.61.24,1.24.41,1.86.51l7.35,2.84c6.02,2.33,7.8,4.98,8.23,6.79.22.92.13,1.84-.27,2.68-.37.79-1,1.5-1.83,2.04-1.11.73-2.45,1.11-3.84,1.11Zm-28.82-13.97l27.36,13.29c1.74.37,3.59.06,5.01-.88.74-.49,1.31-1.11,1.64-1.81.34-.73.42-1.52.23-2.32-.56-2.38-3.37-4.65-7.9-6.41l-7.29-2.83c-.6-.09-1.26-.27-1.91-.53l-58.01-22.69v3.93l40.88,20.25h0Z"/><path class="cls-1" d="m353.87,327.17l95.12,54.25c.75-2.34.89-4.65.02-7.2-.88-2.57-2.78-5.4-6.09-8.74-3.68-3.02-8.21-5.87-13.52-8.23-2.07-.92-4.27-1.77-6.58-2.53h-.02s-.02-.02-.02-.02l-.75-.37c-.71-.16-1.42-.42-2.11-.78l-25.31-12.54-40.72-19.78v5.95h0Z"/><path class="cls-2" d="m449.14,381.82l-.29-.17-95.25-54.33v-6.54l.39.19,40.72,19.78,25.32,12.54c.66.35,1.35.6,2.05.76l.81.39c2.27.75,4.49,1.6,6.62,2.55,5.09,2.27,9.66,5.05,13.58,8.27,3.24,3.27,5.25,6.16,6.17,8.86.83,2.43.82,4.77-.02,7.37l-.1.32Zm-95-54.81l94.69,54c.7-2.36.68-4.5-.08-6.71-.89-2.62-2.86-5.44-6.02-8.64-3.86-3.17-8.39-5.93-13.44-8.18-2.11-.94-4.31-1.79-6.55-2.52l-.07-.03-.76-.37c-.69-.15-1.43-.42-2.12-.79l-25.31-12.54-40.33-19.59v5.35Z"/><path class="cls-1" d="m428.24,385.89c4.3,1.39,7.9,2.01,10.92,1.9,2.96-.11,5.37-.93,7.34-2.42l-92.63-57.51v7.82l59.7,41.83h0c5.39,3.67,10.3,6.41,14.67,8.38h0Z"/><path class="cls-2" d="m438.44,388.07c-2.92,0-6.29-.63-10.28-1.92h-.03c-4.62-2.08-9.58-4.91-14.72-8.41l-59.82-41.91v-8.45l93.38,57.97-.32.24c-2.05,1.55-4.51,2.36-7.49,2.47-.24,0-.48.01-.73.01Zm-10.1-2.43c4.26,1.38,7.81,1.98,10.81,1.88,2.72-.1,4.97-.8,6.87-2.13l-91.88-57.04v7.2l59.58,41.74c5.11,3.48,10.03,6.29,14.62,8.35Z"/><path class="cls-1" d="m353.87,342.17l48,37.46c3.89,3.04,6.47,3.93,8.02,3.64.61-.12,1.05-.43,1.34-.87.3-.46.44-1.07.43-1.74,0-1.9-1.11-4.26-2.89-5.51l-54.91-38.45v5.46h0Z"/><path class="cls-2" d="m409.31,383.6c-1.84,0-4.45-1.28-7.61-3.75l-48.11-37.54v-6.12l55.33,38.75c1.73,1.21,3,3.62,3,5.73,0,.75-.16,1.4-.48,1.89-.34.52-.86.87-1.51.99-.2.04-.41.06-.63.06Zm-55.17-41.56l47.9,37.38c4.32,3.37,6.63,3.81,7.8,3.59.51-.1.9-.35,1.16-.75.26-.4.39-.95.39-1.59,0-1.94-1.17-4.16-2.77-5.28l-54.48-38.15v4.81Z"/><path class="cls-1" d="m369.99,365.47l8.95,8.11c.27.25.53.49.77.74l5.2,4.73c2.27,2.07,4.63,2.38,6.39,1.7.7-.27,1.31-.7,1.78-1.23.47-.53.79-1.17.94-1.86.33-1.58-.27-3.45-2.34-5.06l-38.13-29.62-3.83,4.01,20.28,18.47h0Z"/><path class="cls-2" d="m389.52,381.36c-1.6,0-3.28-.72-4.79-2.1l-5.2-4.73c-.25-.25-.5-.5-.77-.74l-8.95-8.11-20.48-18.66,4.19-4.39,38.32,29.77c1.95,1.52,2.84,3.46,2.44,5.33-.16.72-.5,1.41-1,1.98-.5.57-1.15,1.02-1.88,1.3-.6.23-1.23.35-1.87.35Zm-19.35-16.09l8.95,8.11c.27.25.53.5.78.75l5.19,4.72c1.96,1.79,4.19,2.39,6.11,1.65.65-.25,1.23-.65,1.67-1.16.44-.5.74-1.1.88-1.74.35-1.66-.47-3.41-2.24-4.79l-37.94-29.47-3.47,3.63,20.07,18.28Z"/><path class="cls-1" d="m368.99,378.35l3.14,3.33c2.71,2.59,5.18,3.45,7,3.17.81-.12,1.49-.48,2-1.01.51-.53.85-1.24.98-2.07.3-1.91-.5-4.44-2.88-6.9l-10.31-9.39-20.49-18.57-2.55,6.63,23.11,24.81h0Z"/><path class="cls-2" d="m378.44,385.17c-1.97,0-4.25-1.15-6.5-3.3l-3.16-3.34-23.22-24.93,2.76-7.16,20.78,18.83,10.31,9.39c2.24,2.33,3.32,4.93,2.97,7.15-.14.87-.5,1.64-1.06,2.21-.56.58-1.3.96-2.15,1.09-.24.04-.48.05-.73.05Zm-9.26-7l3.14,3.33c2.39,2.29,4.8,3.39,6.76,3.09.73-.11,1.37-.43,1.85-.93s.79-1.16.91-1.92c.33-2.05-.7-4.48-2.81-6.67l-10.29-9.38-20.2-18.3-2.35,6.1,22.99,24.68Z"/><path class="cls-1" d="m349.51,367.56l21.76,27c1.73,1.52,3.4,2.19,4.72,2.16.74-.02,1.37-.26,1.83-.69.47-.43.77-1.07.87-1.88.25-2.19-1.03-5.56-4.82-9.57l-2.24-2.37c-.3-.29-.6-.59-.91-.92l-2.52-2.71-21.64-22.88-3.82,3.35,6.45,8.12h0s.3.36.3.36h0Z"/><path class="cls-2" d="m375.92,396.99c-1.47,0-3.18-.79-4.82-2.23l-21.86-27.12h0s-.23-.29-.23-.29l-6.61-8.32,4.21-3.7.18.19,24.16,25.59c.3.32.6.62.9.91l2.25,2.38c3.41,3.6,5.19,7.17,4.89,9.78-.1.85-.43,1.56-.95,2.04-.51.48-1.21.74-2.01.76-.03,0-.06,0-.09,0Zm-26.19-29.6l21.76,27c1.54,1.34,3.15,2.05,4.5,2.06.67-.01,1.24-.23,1.66-.61.43-.4.7-.99.78-1.71.28-2.45-1.44-5.86-4.74-9.35l-2.24-2.37c-.29-.28-.6-.59-.91-.92l-2.52-2.71-21.46-22.69-3.43,3.01,6.59,8.28Z"/><path class="cls-1" d="m370.74,395.05c-.68-.6-1.36-1.32-2.03-2.16l-19.47-24.5-4.08,5.47,25.08,35.49c2.11,2.99,4.32,4.31,6.03,4.33.73.01,1.37-.22,1.86-.65.5-.44.87-1.1,1.05-1.94.5-2.4-.52-6.22-4.18-10.75l-4.25-5.28h0Z"/><path class="cls-2" d="m376.31,413.94s-.03,0-.05,0c-2-.03-4.27-1.65-6.25-4.44l-25.19-35.65,4.41-5.91,19.69,24.78c.64.81,1.32,1.53,2,2.13l.03.03,4.25,5.28c3.29,4.09,4.84,8.09,4.23,10.98-.18.88-.57,1.6-1.13,2.09-.54.47-1.23.72-1.99.72Zm-30.82-40.08l24.96,35.33c1.88,2.65,3.99,4.19,5.81,4.22.64-.01,1.23-.19,1.68-.58.47-.41.8-1.03.96-1.79.27-1.29.41-4.9-4.12-10.53l-4.24-5.26c-.7-.62-1.39-1.36-2.05-2.18l-19.25-24.23-3.75,5.03Z"/><path class="cls-1" d="m332.43,385.25l-5.86,5.43,15.19,34.9c1.37,3.15,3.67,4.75,5.74,5.01.77.09,1.5,0,2.14-.26.63-.26,1.17-.7,1.56-1.3.95-1.45,1.03-3.86-.53-7.11l-8.24-17.11-10-19.56h0Z"/><path class="cls-2" d="m348.08,430.89c-.2,0-.41-.01-.61-.04-2.45-.3-4.68-2.24-5.96-5.17l-15.27-35.07,6.26-5.81.16.32,10,19.56,8.24,17.11c1.46,3.03,1.64,5.65.52,7.38-.41.63-.99,1.11-1.69,1.4-.51.21-1.08.32-1.67.32Zm-21.19-40.14l15.12,34.72c1.2,2.76,3.27,4.57,5.53,4.85.72.09,1.41,0,2-.24s1.09-.66,1.44-1.2c1.02-1.56.82-3.99-.55-6.85l-8.24-17.11-9.84-19.23-5.45,5.06Z"/><path class="cls-1" d="m319.44,392.99l2.54,8.85,5.01,16.26h0c.62,2.12,2.34,3.26,4.15,3.47.8.09,1.61,0,2.35-.25.73-.26,1.4-.69,1.91-1.28,1.13-1.31,1.51-3.46.23-6.4l-10.97-25.32-5.23,4.68h0Z"/><path class="cls-2" d="m331.76,421.87c-.22,0-.44-.01-.65-.04-2.15-.25-3.78-1.61-4.38-3.66l-5.01-16.26-2.59-9.02,5.63-5.04,11.12,25.66c1.6,3.68.51,5.77-.28,6.68-.52.61-1.22,1.08-2.03,1.36-.58.2-1.2.31-1.82.31Zm-12.02-28.79l2.49,8.69,5.01,16.25c.54,1.83,2,3.06,3.92,3.28.76.09,1.53,0,2.23-.24.71-.25,1.33-.67,1.8-1.2,1.22-1.42,1.29-3.59.19-6.12l-10.82-24.97-4.82,4.31Z"/><path class="cls-1" d="m321.26,401.97l-2.73-8.86-.07-.22.15-.14-.05-.17-8.07,5.01,5.17,15.75h0c.85,2.69,2.34,4.12,3.83,4.49.6.15,1.2.13,1.75-.05.56-.18,1.07-.52,1.5-1.01,1.16-1.32,1.7-3.69.78-6.88l-2.27-7.92h0Z"/><path class="cls-2" d="m320.28,418.2c-.28,0-.57-.03-.85-.1-1.76-.44-3.23-2.14-4.02-4.67l-5.24-15.95,8.56-5.31.2.68-.15.13,2.75,8.92,2.27,7.92c.85,2.97.54,5.57-.84,7.13-.45.51-1.01.89-1.62,1.09-.34.11-.69.16-1.05.16Zm-9.46-20.49l5.1,15.55c.74,2.35,2.07,3.92,3.64,4.31.54.13,1.09.12,1.6-.05.52-.17.99-.49,1.38-.93,1.26-1.43,1.53-3.84.73-6.62l-2.27-7.92-2.76-8.95-7.42,4.61Z"/><path class="cls-1" d="m305.84,418.83l.17.82c.94,3.8,2.88,6.04,4.84,6.79.8.31,1.6.37,2.33.18.73-.19,1.39-.62,1.91-1.28,1.3-1.66,1.76-4.77.36-9.25l-4.41-14.19-7.71,3.44,2.51,13.48h0Z"/><path class="cls-2" d="m312.34,427c-.52,0-1.05-.1-1.58-.31-2.3-.89-4.12-3.44-5.01-6.98l-.18-.84-2.55-13.69,8.19-3.65,4.5,14.48c1.27,4.08,1.12,7.54-.41,9.49-.55.7-1.26,1.18-2.05,1.38-.3.08-.61.11-.92.11Zm-6.23-8.23l.17.82c.82,3.31,2.57,5.78,4.67,6.6.74.29,1.49.34,2.17.17.68-.17,1.29-.58,1.76-1.19,1.42-1.81,1.53-5.09.32-9l-4.32-13.9-7.24,3.23,2.47,13.27Z"/><path class="cls-1" d="m332.63,384.06l.06-.05.36-.34.21.44,9.84,20.42,19.56,38.23.07-.07c3.24,3.56,6.15,6.07,8.89,7.57,2.57,1.41,5,1.93,7.43,1.6l-38.49-69.1.5-.3h0s42.07,67.16,42.07,67.16c1.8-1.68,3.05-3.63,3.53-6.28.49-2.7.2-6.14-1.09-10.75-.11-.17-.22-.34-.34-.5l-47.83-67.88-8.12,13.32,3.33,6.51h0Z"/><path class="cls-2" d="m377.65,452.24c-2.01,0-4.04-.57-6.15-1.73-2.66-1.45-5.53-3.88-8.77-7.43l-.14.13-.16-.32-19.56-38.23-9.9-20.54-.41.38-3.56-6.96.08-.13,8.34-13.68,48.07,68.22c.12.17.23.34.34.51l.03.07c1.26,4.48,1.62,8.03,1.1,10.87-.46,2.52-1.61,4.56-3.62,6.43l-.24.22-.17-.28-41.94-66.93-.05.03,38.55,69.22-.39.05c-.48.07-.97.1-1.45.1Zm-14.89-9.92l.18.2c3.28,3.61,6.17,6.07,8.82,7.52,2.37,1.3,4.63,1.83,6.87,1.61l-38.42-68.98.95-.56.14.22,41.9,66.88c1.77-1.72,2.79-3.6,3.21-5.9.5-2.75.15-6.21-1.08-10.59-.1-.16-.2-.31-.31-.46l-47.59-67.54-7.83,12.84,3.1,6.06.43-.4,10.21,21.2,19.39,37.91h.01Z"/><path class="cls-1" d="m296.2,425.28l1.15,12.73c.82,2.53,2.58,4.34,4.5,5.21.97.44,1.98.64,2.92.56.92-.07,1.77-.41,2.45-1.04,1.42-1.31,2.13-3.89,1.25-8.02l-3.18-14.96c-.03-.14-.07-.28-.1-.42h0s-.06-.35-.06-.35l-4.11-19.35-6.45,1.51,1.63,24.12h0Z"/><path class="cls-2" d="m304.38,444.08c-.86,0-1.76-.21-2.64-.6-2.17-.98-3.86-2.94-4.65-5.38l-1.16-12.8-1.64-24.35,6.94-1.62,4.23,19.96c.03.14.07.28.1.42l3.18,14.97c.81,3.8.33,6.73-1.33,8.27-.7.65-1.61,1.03-2.62,1.11-.14.01-.27.02-.41.02Zm-7.91-18.82l1.15,12.73c.73,2.23,2.31,4.07,4.35,4.99.93.42,1.89.61,2.78.54.89-.07,1.68-.41,2.29-.97,1.52-1.4,1.94-4.16,1.17-7.76l-3.18-14.96c-.03-.13-.07-.27-.1-.42l-.07-.35-4.05-19.07-5.95,1.39,1.61,23.89Z"/><path class="cls-1" d="m258.3,399.48l-.35,1.21-4.84,17.64c-1.07,3.91-.4,6.62.98,8.08.61.64,1.36,1.04,2.16,1.18.8.14,1.65.03,2.46-.35,1.83-.85,3.44-3.05,3.76-6.68v-.02s3.14-19.98,3.14-19.98l-7.28-1.18-.03.1h0Z"/><path class="cls-2" d="m256.93,427.91c-.24,0-.48-.02-.72-.06-.88-.16-1.67-.59-2.31-1.26-1.64-1.73-2.03-4.77-1.05-8.34l5.28-19.19,7.79,1.26-3.18,20.24c-.3,3.38-1.73,5.89-3.92,6.91-.61.29-1.26.43-1.9.43Zm1.6-28.23l-.31,1.08-4.84,17.64c-.93,3.38-.59,6.23.92,7.82.55.58,1.25.96,2.01,1.1.76.13,1.55.02,2.3-.33,2.01-.93,3.32-3.29,3.6-6.46l3.1-19.75-6.78-1.09Z"/><path class="cls-1" d="m246.68,408.82l-.89,2.89c-.72,2.98-.51,5.04.2,6.25.37.62.87,1.01,1.44,1.17.58.16,1.25.1,1.93-.18,1.77-.73,3.59-2.87,4.42-6.27h0s3.53-12.4,3.53-12.4l.19-.71-6.33-3.03-4.5,12.28h0Z"/><path class="cls-2" d="m248.09,419.48c-.26,0-.5-.03-.74-.1-.66-.18-1.21-.63-1.6-1.29-.58-.98-1.09-2.9-.23-6.45l.9-2.92,4.6-12.56,6.81,3.25-.25.93-3.53,12.39c-.76,3.14-2.52,5.61-4.58,6.46-.47.19-.93.29-1.37.29Zm-1.16-10.57l-.89,2.88c-.63,2.62-.57,4.77.17,6.03.32.54.76.9,1.28,1.04.52.15,1.13.09,1.75-.17,1.49-.61,3.39-2.53,4.26-6.08l3.67-12.9-5.86-2.8-4.39,12Z"/><path class="cls-1" d="m244.7,412.77l.39-1.27c.21-.87.5-1.81.87-2.83l.04-.1,4.46-14.41-6.45-3.35-8.29,21.59c-1.99,5.18-2.09,8.89-1.17,10.85.36.78.89,1.27,1.51,1.44.63.17,1.39.03,2.2-.44,2.21-1.3,4.74-4.99,6.44-11.46h0Z"/><path class="cls-2" d="m236.6,425.02c-.21,0-.42-.03-.62-.08-.71-.2-1.29-.74-1.69-1.58-1.08-2.3-.65-6.33,1.16-11.06l8.4-21.88,6.93,3.6-4.57,14.75c-.36.98-.65,1.92-.86,2.8l-.4,1.31c-1.53,5.82-3.92,10.06-6.56,11.6-.62.37-1.23.55-1.79.55Zm7.55-33.84l-8.18,21.31c-1.76,4.59-2.19,8.47-1.18,10.64.32.69.79,1.14,1.34,1.29.57.16,1.26.01,1.99-.41,2.48-1.46,4.84-5.68,6.32-11.29l.4-1.3c.21-.88.51-1.84.87-2.84l.04-.1,4.39-14.18-5.98-3.11Z"/><path class="cls-1" d="m274.19,423.81l-.85,13.38c-.07,1.08-.25,2.08-.51,2.98l-1.43,17.16c-.17,2.03-.22,3.93-.17,5.69.89,3.92,2.22,7.09,3.86,9.55,1.87,2.81,4.14,4.7,6.56,5.74l2.04-68.58h.58l2.04,68.79c2.63-.56,5.3-2.06,7.61-4.73,1.96-2.27,3.67-5.39,4.88-9.5.03-1.06,0-2.15-.1-3.29l-2.06-22.83c-.24-.77-.4-1.6-.46-2.48l-.7-10.42-2.12-23.54-17.31-.07-1.84,22.15h0Z"/><path class="cls-2" d="m286.04,478.85v-.32s-2.04-68.53-2.04-68.53h-.06l-2.04,68.72-.37-.16c-2.59-1.12-4.84-3.08-6.67-5.84-1.73-2.6-3.05-5.84-3.9-9.64-.06-1.86,0-3.78.17-5.77l1.43-17.16c.28-.97.44-1.95.51-2.98l.85-13.38,1.87-22.4,17.81.07,2.15,23.78.7,10.42c.06.84.21,1.65.45,2.42l2.07,22.89c.1,1.12.14,2.24.1,3.32v.07c-1.17,3.92-2.83,7.15-4.95,9.6-2.2,2.54-4.88,4.21-7.76,4.82l-.32.07Zm-2.63-69.4h1.11v.26s2.04,68.46,2.04,68.46c2.64-.64,5.11-2.22,7.15-4.57,2.07-2.39,3.69-5.54,4.82-9.36.03-1.05,0-2.13-.1-3.22l-2.06-22.83c-.24-.75-.4-1.61-.46-2.49l-.7-10.42-2.1-23.29-16.81-.07-1.82,21.89-.85,13.38c-.07,1.07-.24,2.09-.52,3.04l-1.42,17.11c-.16,1.97-.22,3.87-.17,5.66.84,3.68,2.12,6.86,3.82,9.4,1.69,2.54,3.73,4.38,6.07,5.48l2.03-68.44Z"/><path class="cls-1" d="m266.26,401.9l-5.03,33.19c-.76,5.01.25,8.14,1.93,9.64.71.63,1.53.97,2.4,1.05.87.07,1.79-.12,2.66-.58,1.65-.86,3.13-2.62,3.89-5.16l1.36-16.34,1.28-20.09-8.49-1.71h0Z"/><path class="cls-2" d="m265.92,446.06c-.13,0-.26,0-.38-.02-.95-.08-1.83-.47-2.56-1.11-2-1.79-2.72-5.3-2.02-9.89l5.08-33.47,9,1.81-1.3,20.33-1.36,16.35c-.74,2.48-2.2,4.42-4.03,5.38-.79.41-1.62.62-2.43.62Zm.57-43.84l-4.99,32.91c-.9,5.94.77,8.44,1.84,9.4.64.57,1.41.91,2.24.98.82.07,1.69-.12,2.51-.55,1.7-.88,3.07-2.71,3.75-4.99l1.35-16.28,1.26-19.85-7.98-1.61Z"/><path class="cls-1" d="m220.43,418.22l-.97,2.01c-1.83,4.15-1.86,7.5-.84,9.53.44.88,1.07,1.51,1.84,1.84.77.33,1.67.36,2.65.05,2.54-.81,5.52-3.87,7.89-9.93l12.07-30.86-6.57-4.97-16.07,32.34h0Z"/><path class="cls-2" d="m221.78,432.13c-.51,0-.99-.1-1.43-.28-.83-.35-1.51-1.03-1.97-1.97-1.17-2.35-.86-5.91.84-9.76l.98-2.02,16.21-32.63,7,5.29-12.15,31.05c-2.14,5.46-5.07,9.14-8.06,10.09-.48.15-.95.23-1.41.23Zm-1.11-13.79l-.97,2.01c-1.63,3.7-1.94,7.09-.84,9.29.4.81.99,1.4,1.7,1.71.72.31,1.57.32,2.46.04,2.83-.9,5.65-4.46,7.72-9.77l12-30.67-6.15-4.65-15.92,32.04Z"/><path class="cls-1" d="m224.62,371.8l.02.04.07.18-.11.16-22.25,32.02-15.71,22.86c-.98,1.43-1.85,2.86-2.61,4.29-.26.5-.52.99-.76,1.48l.06.02c-1.6,4.26-2.22,8.04-2.08,11.29.14,3.41,1.11,6.24,2.63,8.4l44.82-71.88.5.3h0s0,.01,0,.01h0s-41.31,74.44-41.31,74.44c2.29.79,4.61.5,7.22-.79,2.77-1.37,5.86-3.86,9.56-7.35h0c1.37-1.88,2.69-3.99,3.93-6.31.39-.73.78-1.49,1.16-2.28l9.06-18.78c.15-.34.31-.69.49-1.03l.48-.97,16-33.17-10.39-14.05-.77,1.12h0Z"/><path class="cls-2" d="m190.45,456.14c-.91,0-1.79-.15-2.66-.45l-.31-.1.16-.28,41.19-74.22-.05-.03-44.9,72-.24-.34c-1.61-2.3-2.54-5.26-2.67-8.55-.14-3.4.54-7.15,2.01-11.15h-.03s.07-.3.07-.3c.24-.5.49-.99.76-1.49.78-1.46,1.67-2.91,2.63-4.31l15.71-22.86,22.28-32.06-.07-.18.06-.16.98-1.43,10.71,14.49-.07.15-16.49,34.15c-.17.35-.33.69-.48,1.02l-9.06,18.78c-.38.79-.77,1.56-1.16,2.29-1.21,2.27-2.54,4.4-3.95,6.34-4.1,3.87-7.07,6.15-9.66,7.44-1.7.84-3.26,1.26-4.76,1.26Zm-2.18-.87c2.09.63,4.23.34,6.7-.88,2.55-1.26,5.47-3.51,9.49-7.31,1.36-1.88,2.68-3.99,3.88-6.24.39-.73.78-1.49,1.15-2.27l9.06-18.78c.15-.34.31-.68.49-1.04l.48-.97,15.93-33.02-10.06-13.61-.47.69.09.23-.2.28-22.25,32.02-15.71,22.86c-.95,1.39-1.83,2.82-2.6,4.26-.23.43-.45.86-.66,1.28l-.03.19c-1.51,4.02-2.21,7.78-2.07,11.19.12,3.02.93,5.75,2.35,7.92l44.75-71.75.95.56-.12.23-41.16,74.17Z"/><path class="cls-1" d="m217.15,370.08l3.66-4.55-1.53-8.42-27.66,30.73c-2.34,2.6-2.99,5.08-2.55,6.82.17.68.52,1.24.99,1.64.47.4,1.09.65,1.8.7,1.86.14,4.37-1.04,6.94-4.21l18.36-22.7h0Z"/><path class="cls-2" d="m192.14,397.28c-.1,0-.21,0-.31-.01-.75-.06-1.43-.32-1.95-.76-.52-.44-.9-1.06-1.08-1.78-.53-2.06.42-4.63,2.61-7.06l28.03-31.15,1.65,9.09-3.73,4.65-18.36,22.7c-2.24,2.76-4.72,4.32-6.85,4.32Zm26.96-39.58l-27.29,30.32c-2.03,2.26-2.96,4.71-2.49,6.57.16.61.47,1.13.91,1.5.44.37,1.01.59,1.64.64,2.03.15,4.47-1.35,6.7-4.11l21.94-27.16-1.41-7.76Z"/><path class="cls-1" d="m217.71,370.54l-28.96,36.08c-2.36,2.94-2.91,5.25-2.42,6.79.21.66.63,1.18,1.17,1.55.56.37,1.26.59,2.03.63,2.11.12,4.74-1.03,6.6-3.71l5.98-8.61,21.68-31.56-2.35-5.8-3.74,4.62h0Z"/><path class="cls-2" d="m189.82,415.87c-.1,0-.2,0-.3,0-.83-.05-1.57-.28-2.17-.68-.61-.41-1.06-.99-1.28-1.69-.59-1.83.28-4.33,2.46-7.05l28.96-36.08,4.03-4.98,2.58,6.36-.08.12-21.68,31.56-5.98,8.61c-1.97,2.84-4.61,3.83-6.54,3.83Zm28.1-45.16l-28.96,36.08c-2.06,2.57-2.9,4.89-2.37,6.54.19.59.55,1.06,1.06,1.4.51.34,1.17.55,1.9.59,1.8.1,4.41-.79,6.36-3.59l5.98-8.61,21.6-31.43-2.12-5.24-3.45,4.26h0Z"/><path class="cls-1" d="m124,368.19c-3.26,3.07-5.6,6.05-7.05,8.89-1.45,2.84-2,5.53-1.66,8.02l96.01-55.56v-6.51l-78.19,39.56c-1.16.59-2.26,1.18-3.3,1.78-2.17,1.25-4.1,2.54-5.82,3.83h0Z"/><path class="cls-2" d="m115.08,385.53l-.06-.4c-.35-2.55.21-5.3,1.68-8.18,1.48-2.89,3.87-5.91,7.11-8.96l.02-.02c1.77-1.34,3.74-2.64,5.85-3.85,1.06-.61,2.18-1.21,3.31-1.78l78.58-39.75v7.11l-.14.08-96.36,55.76Zm9.1-17.13c-3.19,3.01-5.54,5.97-6.99,8.81-1.34,2.62-1.9,5.13-1.67,7.45l95.52-55.27v-5.92l-77.8,39.36c-1.12.57-2.23,1.16-3.28,1.77-2.08,1.2-4.03,2.48-5.78,3.81Z"/><path class="cls-1" d="m101.48,301.95c.3.02.6.02.9.03.63,0,1.27-.02,1.9-.08l107.02-9.46v-5.62l-124.4,2.91c.57,2.61,2,5.17,4.59,7.37,2.32,1.97,5.57,3.66,9.98,4.85h0Z"/><path class="cls-2" d="m102.53,302.25c-.05,0-.1,0-.15,0-.3,0-.61-.01-.92-.03h-.06c-4.19-1.15-7.58-2.8-10.08-4.91-2.48-2.1-4.05-4.63-4.68-7.52l-.07-.32h.33s124.67-2.92,124.67-2.92v6.15l-.25.02-107.02,9.46c-.58.05-1.18.08-1.78.08Zm-1.01-.57c.29.01.58.02.86.03.63,0,1.27-.02,1.88-.07l106.78-9.44v-5.1l-123.79,2.89c.65,2.64,2.14,4.96,4.43,6.9,2.43,2.06,5.74,3.67,9.84,4.79Z"/><path class="cls-1" d="m176.08,278.12l-43.31-2.6c-.75-.04-1.47-.13-2.16-.26l-22.29-1.4c-.6-.04-1.2-.06-1.79-.06-1.07,0-2.14.03-3.21.12-4.34.89-7.76,2.34-10.36,4.14-2.8,1.93-4.65,4.25-5.69,6.7l124.03,1.45v-5.89l-35.23-2.21h0Z"/><path class="cls-2" d="m211.58,286.5h-.27s-124.43-1.46-124.43-1.46l.16-.37c1.12-2.65,3.07-4.95,5.78-6.82,2.78-1.92,6.3-3.32,10.46-4.18,1.12-.09,2.21-.13,3.27-.13.6,0,1.21.03,1.81.06l22.28,1.4c.73.13,1.44.21,2.16.25l43.31,2.6,35.48,2.23v6.42Zm-123.89-1.99l123.35,1.44v-5.36l-34.97-2.19-43.31-2.6c-.74-.04-1.48-.13-2.19-.26l-22.25-1.39c-.59-.04-1.19-.06-1.78-.06-1.04-.01-2.12.03-3.19.12-4.05.84-7.5,2.21-10.23,4.09-2.5,1.72-4.32,3.81-5.43,6.21Z"/><path class="cls-1" d="m211.31,270.36l-56.79-13.15h0c-6.61-1.32-10.59-.85-12.46.39-.7.47-1.09,1.04-1.18,1.67-.1.63.1,1.33.55,2.04,1.08,1.67,3.59,3.3,7.16,4.13l62.73,9.41v-4.48h0Z"/><path class="cls-2" d="m211.58,275.16l-63.04-9.46c-3.39-.79-6.13-2.38-7.34-4.25-.5-.76-.7-1.53-.59-2.23.11-.72.56-1.36,1.3-1.85,2.21-1.47,6.7-1.62,12.67-.43l57.01,13.2v5.01Zm-64.02-18.48c-3.03,0-4.59.63-5.36,1.14-.62.41-.98.91-1.06,1.48-.09.56.09,1.2.51,1.85,1.14,1.76,3.76,3.26,6.99,4.02l62.39,9.36v-3.95l-56.58-13.11c-2.88-.58-5.14-.79-6.9-.79Z"/><path class="cls-1" d="m211.31,275.62l-61.18-9.16c-.58-.09-1.14-.19-1.68-.32l-11.48-1.72c-7.58-1.14-11.96-.39-13.94,1.12-.8.61-1.19,1.35-1.24,2.13-.05.8.27,1.67.88,2.51,1.39,1.92,4.29,3.68,8.02,4.35l45.49,2.85,35.13,2.11v-3.88h0Z"/><path class="cls-2" d="m211.58,279.79l-.29-.02-35.13-2.11-45.49-2.85c-3.6-.64-6.66-2.31-8.22-4.46-.66-.91-.98-1.83-.93-2.69.05-.89.52-1.7,1.35-2.33,1.65-1.26,5.44-2.48,14.15-1.18l11.48,1.72c.56.13,1.11.23,1.68.32l61.41,9.19v4.41Zm-81.16-15.65c-4.3,0-6.31.93-7.22,1.62-.71.54-1.09,1.19-1.13,1.93-.04.73.24,1.53.83,2.34,1.46,2.01,4.46,3.64,7.85,4.25l45.46,2.85,34.85,2.09v-3.36l-60.95-9.12c-.58-.09-1.15-.2-1.7-.32l-11.46-1.72c-2.61-.39-4.76-.55-6.52-.55Z"/><path class="cls-1" d="m210.13,293.28l-75.06,6.69c-5.84.52-9.91,2.6-11.63,4.82-.62.81-.92,1.62-.86,2.37.06.73.46,1.42,1.24,1.99,1.99,1.44,6.28,2.12,13.34.99l58.35-9.34,15.78-2.62v-5l-1.18.1h0Z"/><path class="cls-2" d="m130.79,310.97c-3.21,0-5.65-.54-7.12-1.61-.82-.6-1.29-1.35-1.35-2.19-.06-.81.25-1.7.92-2.56,1.55-2.01,5.47-4.36,11.82-4.93l76.53-6.82v5.52l-16.01,2.66-58.35,9.34c-2.38.38-4.53.57-6.43.57Zm79.37-17.43l-75.06,6.69c-6.17.55-9.96,2.8-11.44,4.72-.58.75-.86,1.51-.81,2.18.05.68.43,1.28,1.13,1.79,1.28.93,4.69,2.29,13.14.94l58.35-9.34,15.55-2.59v-4.47l-.88.08h0Z"/><path class="cls-1" d="m211.31,264.13l-55.92-15.37-.11-.03c-2.56-.64-4.38-.2-5.38.73-.42.39-.69.88-.8,1.4-.12.53-.07,1.12.13,1.7.57,1.6,2.37,3.2,5.56,3.93l56.52,12.95v-5.31h0Z"/><path class="cls-2" d="m211.58,269.78l-56.85-13.03c-2.97-.68-5.07-2.18-5.76-4.1-.22-.62-.27-1.26-.14-1.85.13-.59.43-1.12.88-1.54,1.19-1.12,3.19-1.4,5.63-.8l.12.03,56.12,15.43v5.86Zm-58.56-21.09c-1.24,0-2.26.32-2.94.96-.37.35-.62.78-.72,1.26-.11.49-.06,1.03.12,1.55.62,1.72,2.62,3.13,5.37,3.76l56.19,12.88v-4.77l-55.83-15.35c-.78-.19-1.51-.29-2.18-.29Z"/><path class="cls-1" d="m353.87,292.22l104.03,6.73c1.18.08,2.31.12,3.39.13,4.68-1.12,8.28-2.67,10.93-4.63,2.52-1.87,4.19-4.11,5.13-6.71l-123.48-2.64v7.12h0Z"/><path class="cls-2" d="m461.35,299.34c-1.16,0-2.31-.04-3.47-.12l-104.29-6.75v-7.66h.28s123.86,2.65,123.86,2.65l-.13.36c-.98,2.69-2.73,4.99-5.23,6.83-2.74,2.03-6.35,3.56-11.03,4.68Zm-107.21-7.38l103.78,6.71c1.15.07,2.29.12,3.37.13,4.47-1.08,8.12-2.62,10.76-4.58,2.33-1.73,3.94-3.77,4.91-6.23l-122.82-2.63v6.59Z"/><path class="cls-1" d="m438.82,271.89c-.17.03-.35.06-.53.07l-84.42,6.88v5.66l123.61-1.93c-.54-2.73-1.6-5.12-3.66-7.17-1.9-1.89-4.67-3.49-8.67-4.79-2.26-.3-4.66-.4-7.13-.27-.39.02-.8.05-1.23.08l-17.97,1.46h0Z"/><path class="cls-2" d="m353.6,284.78v-6.18l.25-.02,84.42-6.88c.17-.01.34-.04.5-.07h.03s17.97-1.47,17.97-1.47c.43-.03.84-.06,1.24-.08,2.44-.12,4.86-.03,7.18.28,3.93,1.27,6.8,2.86,8.82,4.86,1.95,1.93,3.14,4.25,3.74,7.31l.06.32h-.32s-123.88,1.94-123.88,1.94Zm.54-5.69v5.13l123-1.92c-.6-2.78-1.72-4.92-3.52-6.71-1.96-1.94-4.76-3.49-8.56-4.72-2.24-.29-4.63-.39-7.03-.26-.39.02-.8.05-1.22.08l-17.95,1.46c-.18.03-.36.06-.54.08l-84.17,6.86Z"/><path class="cls-1" d="m434.75,260.75l-80.89,13.12v4.19l84.85-6.9c1.81-.38,3.22-1.99,3.83-3.84.27-.82.38-1.69.3-2.52-.08-.82-.35-1.6-.84-2.26-1.12-1.5-3.4-2.41-7.25-1.79h0Z"/><path class="cls-2" d="m353.6,278.36v-4.72l81.11-13.15c4.5-.73,6.57.63,7.51,1.89.5.68.8,1.49.89,2.4.08.84-.02,1.75-.31,2.63-.69,2.11-2.24,3.65-4.03,4.02l-85.18,6.93Zm.54-4.26v3.67l84.56-6.87c1.55-.33,2.97-1.76,3.59-3.66.26-.81.36-1.64.29-2.41-.08-.81-.34-1.53-.79-2.13-.85-1.15-2.75-2.37-6.99-1.68l-80.66,13.08Z"/><path class="cls-1" d="m353.87,262.46v4.99l56.55-14.01c2.47-.61,3.72-2.24,4-3.98.12-.76.06-1.54-.15-2.28-.22-.74-.59-1.42-1.1-1.99-.99-1.11-2.52-1.76-4.42-1.44l-54.89,18.72h0Z"/><path class="cls-2" d="m353.6,267.8v-5.53l.18-.06,54.89-18.72c1.89-.33,3.54.22,4.71,1.51.53.59.93,1.31,1.16,2.1.23.78.28,1.61.16,2.4-.34,2.09-1.87,3.63-4.21,4.21l-56.89,14.1Zm.54-5.14v4.45l56.22-13.93c2.12-.52,3.5-1.9,3.8-3.76.11-.7.06-1.45-.14-2.16-.21-.71-.57-1.36-1.04-1.89-1.03-1.15-2.51-1.63-4.17-1.35l-54.66,18.65Z"/><path class="cls-1" d="m353.87,268.24v4.86l65.7-10.73c2.61-.43,4.02-1.66,4.47-3.11.21-.69.21-1.43.02-2.15-.2-.74-.59-1.46-1.15-2.09-1.52-1.71-4.26-2.8-7.75-1.94l-61.29,15.16h0Z"/><path class="cls-2" d="m353.6,273.41v-5.39l.21-.05,61.29-15.16c3.2-.79,6.19-.04,8.01,2.02.58.66,1,1.42,1.21,2.2.21.79.2,1.58-.02,2.3-.53,1.72-2.19,2.89-4.68,3.3l-66.02,10.78Zm.54-4.96v4.33l65.39-10.68c2.28-.37,3.79-1.41,4.25-2.92.19-.62.2-1.31.01-2-.19-.7-.56-1.38-1.09-1.98-1.68-1.9-4.48-2.6-7.48-1.85l-61.08,15.11Z"/><path class="cls-1" d="m353.87,296.63l79.86,12.04c4.81.72,8.17-.54,9.83-2.4.6-.68.98-1.43,1.11-2.19.13-.75.02-1.51-.34-2.2-.8-1.55-2.85-2.8-6.28-3.04l-84.17-5.7v3.49h0Z"/><path class="cls-2" d="m436.33,309.14c-.85,0-1.74-.07-2.65-.2l-80.09-12.07v-4.02l84.46,5.72c3.24.22,5.55,1.35,6.5,3.18.38.74.51,1.56.37,2.37-.14.82-.55,1.62-1.17,2.33-1.56,1.74-4.23,2.69-7.42,2.69Zm-82.2-12.74l79.63,12c4.16.62,7.73-.24,9.58-2.31.56-.63.92-1.34,1.04-2.06.12-.7.01-1.4-.32-2.03-.85-1.63-3.06-2.69-6.06-2.89l-83.88-5.68v2.97Z"/><ellipse class="cls-3" cx="283.46" cy="301.76" rx="103.23" ry="101.58"/><path class="cls-1" d="m197.62,271.9h172.29c-.06.04-.08.1-.07.17-1.31.61-2.62,1.22-3.94,1.83-2.9,1.37-5.8,2.73-8.71,4.1-2.77,1.19-5.5,2.47-8.19,3.83-2.86,1.23-5.69,2.54-8.46,3.96-1.45.56-2.84,1.22-4.2,1.96-.8.27-1.55.63-2.28,1.06-.65.3-1.3.6-1.95.89-2.98,1.34-5.96,2.67-8.86,4.16-1.27.59-2.54,1.17-3.81,1.76-1.13.54-2.26,1.08-3.39,1.61-.32.05-.61.17-.85.4-1.45.56-2.84,1.24-4.22,1.96-1.19.56-2.39,1.12-3.58,1.67-.22.1-.43.2-.65.3-.26.03-.44.19-.6.38-.98,1.25-1.96,2.5-2.95,3.75-.28.24-.53.5-.67.85-.98,1.06-1.89,2.19-2.72,3.37-3.47,4.11-6.79,8.34-10.14,12.55-1.15,1.44-2.29,2.88-3.44,4.32-.27.17-.45.42-.58.7-.74.87-1.47,1.74-2.23,2.64-.69-.79-1.34-1.55-1.99-2.31-.2-.4-.47-.76-.83-1.03-1.05-1.47-2.19-2.87-3.39-4.23-2.26-2.94-4.57-5.84-6.98-8.66-.43-.67-.92-1.3-1.49-1.85-.49-.78-1.08-1.47-1.71-2.14-.77-1.1-1.6-2.14-2.51-3.12-.21-.43-.53-.78-.88-1.1-.96-1.33-1.98-2.61-3.09-3.83-.15-.29-.41-.37-.71-.4-1.27-.72-2.6-1.33-3.96-1.86-1.3-.72-2.66-1.33-4.03-1.9-.33-.21-.65-.42-1.05-.47-1.02-.57-2.07-1.08-3.17-1.48-1.36-.75-2.78-1.4-4.22-1.98-2.77-1.4-5.59-2.72-8.45-3.94-2.75-1.3-5.5-2.59-8.25-3.89-2.88-1.35-5.77-2.7-8.65-4.05-2.79-1.34-5.57-2.72-8.43-3.9-2.77-1.44-5.6-2.73-8.46-3.97-1.07-.52-2.15-1.02-3.2-1.58-.16-.08-.78-.02-.38-.55Z"/><path class="cls-4" d="m369.52,276.14c.2-.09.4-.18.6-.27,2.25-1.09,4.5-2.19,6.77-3.26.32-.15.63-.54,1.08-.28-1.07,1.18-2.14,2.37-3.21,3.55-.22.08-.34.24-.41.45-1.33,1.27-2.57,2.62-3.76,4.02-.2.11-.37.25-.45.48-1.22,1.19-2.4,2.41-3.47,3.73-.31.22-.59.49-.77.83-1.14,1.05-2.18,2.2-3.17,3.39-.42.3-.76.67-1.04,1.11-1.03.99-2.02,2.02-2.92,3.13-1.92,1.91-3.76,3.89-5.53,5.94-.86.76-1.62,1.61-2.33,2.5-.2.19-.42.36-.61.56-6.95,7.45-13.91,14.91-20.85,22.37-3.35,3.6-6.68,7.22-10.02,10.82-1.39,1.35-2.7,2.78-3.97,4.25-.07.08-.14.15-.22.23-1.25,1.34-2.5,2.67-3.74,4.01l-.05.05s-.1.1-.15.15h-.06s0,.07,0,.07c-.08,0-.12.04-.12.13-.04.06-.08.11-.12.17-1.2,1.14-2.33,2.34-3.38,3.63-.34.22-.62.51-.82.87-1.12,1.06-2.16,2.19-3.15,3.37-.28.3-.57.6-.85.9l-.13.15c-.08.02-.12.07-.12.15-1.02.95-1.96,1.97-2.86,3.04l-.06.06c-.08,0-.12.04-.12.13-.39.42-.78.85-1.17,1.27-.93.84-1.77,1.76-2.55,2.74-.62.52-1.16,1.11-1.65,1.76-.77.83-1.54,1.66-2.31,2.49-.72.63-1.36,1.33-1.94,2.09-.73.63-1.38,1.33-1.95,2.1-.82.73-1.56,1.53-2.25,2.39-.57.62-1.14,1.24-1.72,1.85-.34.41-.69.39-1.03,0-.42-.58-.91-1.1-1.45-1.56-.69-.89-1.48-1.69-2.29-2.46v-.07s-.08-.02-.08-.02v-.06s-.07-.01-.07-.01c-.61-.64-1.21-1.29-1.82-1.93-.71-.77-1.43-1.54-2.14-2.31-.7-.75-1.39-1.5-2.09-2.24-.57-.72-1.17-1.4-1.88-2-.71-.9-1.49-1.74-2.34-2.52-.46-.5-.92-1-1.38-1.5v-.08s-.09-.01-.09-.01c-.05-.05-.1-.09-.15-.14-.78-1-1.65-1.91-2.58-2.77-.37-.53-.81-1.01-1.31-1.42-.98-1.05-1.96-2.1-2.94-3.15-.27-.43-.61-.79-1.03-1.09-.99-1.2-2.04-2.34-3.18-3.4-.12-.13-.24-.27-.36-.4v-.08s-.09-.03-.09-.03v-.06s-.06-.01-.06-.01c-.05-.05-.1-.1-.15-.15l-.05-.05c-1.18-1.26-2.36-2.52-3.54-3.78-.14-.15-.28-.3-.43-.45-1.21-1.4-2.44-2.76-3.78-4.04-.06-.07-.13-.14-.19-.2-.27-.32-.53-.65-.81-.96-6.93-7.43-13.85-14.86-20.79-22.29-3.36-3.59-6.73-7.17-10.09-10.75-.59-.73-1.2-1.43-1.92-2.05-1.84-2.12-3.75-4.17-5.74-6.16-.9-.97-1.81-1.94-2.71-2.91-.41-.59-.91-1.09-1.46-1.56-.87-1.03-1.75-2.04-2.75-2.94-.26-.43-.6-.78-1-1.07-.9-1.14-1.91-2.17-2.95-3.18-.24-.41-.57-.73-.95-1.01-1.13-1.32-2.28-2.61-3.55-3.8-.06-.22-.21-.35-.41-.44-1.13-1.26-2.25-2.53-3.38-3.79.57-.08,1,.27,1.47.49,2.18,1.03,4.35,2.09,6.53,3.13.09.17.25.18.41.19,1.22.74,2.51,1.34,3.83,1.89,1.37.78,2.78,1.47,4.23,2.08.24.22.52.36.85.42,1.01.57,2.03,1.11,3.12,1.53,1.49.74,2.99,1.48,4.48,2.22.21.09.42.19.63.28,1.22.72,2.5,1.32,3.8,1.88,1.3.71,2.62,1.4,4,1.95,2.76,1.51,5.61,2.84,8.46,4.17.3.23.61.42,1,.47,1.02.64,2.12,1.14,3.23,1.61,1.4.69,2.81,1.38,4.21,2.08.5.24.99.48,1.49.72.87.52,1.77.99,2.73,1.33,1.37.78,2.77,1.49,4.23,2.07.37.3.79.52,1.26.63.94.58,1.94,1.06,2.97,1.47,1.27.74,2.59,1.37,3.94,1.95.41.21.81.41,1.22.61,0,0,.01-.02.01-.02l-.05.03c.1.07.2.13.3.2.84,1.19,1.79,2.3,2.78,3.37.16.34.4.61.69.83,1.13,1.5,2.33,2.95,3.6,4.34,0,0,.05.06.05.06,2.23,2.81,4.51,5.58,6.87,8.28.49.76,1.08,1.42,1.71,2.07.54.78,1.14,1.51,1.82,2.18.73,1.02,1.53,1.99,2.4,2.9.28.49.64.91,1.06,1.29.98,1.32,2.03,2.58,3.15,3.79.07.2.18.36.38.45,1.58,2.3,1.64,2.3,3.23,0,.27-.17.45-.41.59-.69.98-1.18,1.96-2.37,2.95-3.55.42-.51.85-1.02,1.27-1.52.75-.9,1.5-1.8,2.24-2.7.72-.78,1.43-1.58,2.02-2.47.57-.51,1.04-1.1,1.45-1.74,2.34-2.66,4.59-5.4,6.79-8.17.2-.1.33-.26.4-.48,1.18-1.28,2.29-2.62,3.33-4.02.3-.22.52-.49.68-.83,1.08-1.11,2.03-2.33,2.98-3.55.46-.13.88-.34,1.26-.63,1.45-.58,2.83-1.3,4.2-2.04.95-.41,1.89-.82,2.76-1.38.54-.13,1.01-.4,1.46-.7,1.53-.68,3.05-1.4,4.51-2.23.79-.28,1.53-.66,2.25-1.1.75-.27,1.45-.61,2.12-1.04,1.31-.54,2.58-1.16,3.81-1.88,1.04-.4,2.05-.88,2.99-1.48.46-.1.87-.3,1.24-.6,2.94-1.32,5.83-2.73,8.68-4.25,1.37-.56,2.68-1.22,3.97-1.94,1.01-.43,2.02-.86,2.94-1.46.46-.14.91-.3,1.29-.62,1.45-.61,2.87-1.3,4.23-2.09,1.16-.45,2.27-.99,3.33-1.64.34-.04.62-.21.89-.41,1.4-.69,2.81-1.37,4.21-2.06,1.23-.56,2.47-1.11,3.63-1.81Z"/><path class="cls-1" d="m148.13,107.18c-.74,1.45-1.83,3.18-3.28,5.19-1.44,2.01-3.05,3.77-4.82,5.3-4.09,3.51-8.37,5.13-12.83,4.85-4.46-.28-8.55-2.59-12.28-6.93-3.51-4.09-5.1-8.4-4.78-12.95.32-4.55,2.59-8.64,6.81-12.26,2.18-1.87,4.13-3.19,5.85-3.94,1.72-.76,3.61-1.4,5.68-1.94l5.25,6.11-.59.51c-.53.02-1.28.07-2.25.12-.97.06-1.88.17-2.71.33-.97.19-2,.51-3.09.98-1.09.47-2.11,1.11-3.07,1.93-1.12.96-1.99,2.01-2.61,3.15-.62,1.14-.98,2.38-1.08,3.73-.09,1.29.13,2.65.65,4.07.52,1.42,1.39,2.84,2.61,4.27,2.61,3.05,5.31,4.64,8.08,4.77,2.77.14,5.48-.93,8.13-3.2.23-.2.5-.44.81-.72.3-.28.56-.53.78-.76l-4.39-5.11-5.06,4.34-4.19-4.89,11.39-9.77,11.02,12.83Z"/><path class="cls-1" d="m150.67,107.58l-8.51-35.25,7.96-5.01,28.13,22.89-7.51,4.73-5.55-4.79-9.13,5.75,1.93,7.08-7.31,4.61Zm9.6-21.7l-9-7.72,3.08,11.45,5.93-3.74Z"/><path class="cls-1" d="m207.22,77.52l-7.61,3.32-21.7-16.66,9.58,21.95-7.23,3.15-13.74-31.49,9.7-4.23,17.91,13.66-7.87-18.04,7.23-3.15,13.74,31.49Z"/><path class="cls-1" d="m239.89,66.61c-1.3.97-3.05,2.05-5.23,3.22s-4.4,2.05-6.66,2.63c-5.22,1.35-9.77.93-13.66-1.28-3.88-2.21-6.54-6.09-7.98-11.62-1.35-5.21-.89-9.79,1.4-13.74,2.29-3.95,6.12-6.62,11.51-8.02,2.78-.72,5.11-1.04,6.99-.97s3.86.33,5.96.75l2.02,7.8-.76.2c-.48-.21-1.17-.5-2.07-.88-.9-.38-1.76-.68-2.58-.89-.96-.26-2.03-.42-3.21-.48-1.18-.06-2.38.07-3.6.39-1.43.37-2.67.93-3.73,1.68-1.06.75-1.93,1.71-2.61,2.87-.65,1.12-1.05,2.43-1.21,3.94-.16,1.5,0,3.16.47,4.98,1.01,3.89,2.73,6.5,5.16,7.84s5.33,1.57,8.71.7c.3-.08.64-.18,1.04-.29.4-.12.74-.23,1.03-.34l-1.69-6.52-6.45,1.67-1.62-6.23,14.52-3.77,4.25,16.37Z"/><path class="cls-1" d="m271.86,54.36c.18,1.7.02,3.22-.49,4.58-.51,1.35-1.26,2.51-2.25,3.46-1.18,1.15-2.51,2.01-4,2.6-1.49.59-3.42,1.01-5.79,1.26l-13.66,1.44-3.61-34.17,12.06-1.27c2.51-.26,4.41-.37,5.73-.32,1.31.06,2.56.33,3.76.82,1.29.53,2.3,1.31,3.02,2.35.72,1.04,1.16,2.28,1.31,3.71.18,1.67-.08,3.2-.78,4.58-.7,1.39-1.74,2.47-3.15,3.23l.02.18c2.16.22,3.94.95,5.35,2.18,1.41,1.24,2.24,3.02,2.49,5.34Zm-12.46-12.88c-.06-.55-.26-1.1-.6-1.65-.34-.55-.83-.93-1.45-1.12-.59-.18-1.27-.25-2.05-.19-.77.06-1.93.17-3.45.33l-.6.06.76,7.23,1.08-.11c1.47-.16,2.49-.28,3.08-.37.58-.09,1.17-.32,1.77-.67.65-.39,1.08-.89,1.28-1.48.2-.59.26-1.26.18-2.01Zm3.62,13.66c-.11-1.06-.41-1.86-.9-2.41-.49-.55-1.18-.93-2.07-1.15-.54-.14-1.27-.18-2.18-.11-.91.07-2.13.19-3.66.35l-1.58.17.9,8.56.46-.05c2.23-.24,3.77-.41,4.62-.54.85-.12,1.7-.42,2.55-.9.74-.42,1.26-.97,1.55-1.66.29-.69.39-1.45.3-2.27Z"/><path class="cls-1" d="m290.57,66.08c-4.61-.2-8.1-1.47-10.48-3.8-2.38-2.34-3.48-5.65-3.3-9.94l.95-21.92,8.61.37-.92,21.42c-.1,2.38.27,4.18,1.12,5.38.85,1.21,2.28,1.85,4.31,1.94,1.98.09,3.46-.41,4.44-1.49.98-1.08,1.52-2.86,1.63-5.33l.93-21.42,8.61.37-.95,21.9c-.18,4.23-1.53,7.42-4.05,9.58-2.52,2.16-6.15,3.14-10.89,2.94Z"/><path class="cls-1" d="m320.69,69.41c-2.58-.49-4.8-1.17-6.66-2.04-1.86-.87-3.56-1.83-5.09-2.89l1.52-8.03.77.15c1.42,1.76,3.07,3.21,4.97,4.37,1.89,1.16,3.8,1.92,5.71,2.28.48.09,1.13.16,1.94.2.81.04,1.48,0,2.01-.14.64-.14,1.2-.41,1.7-.79s.81-.95.96-1.71c.16-.85-.04-1.6-.61-2.25-.56-.65-1.28-1.19-2.16-1.61-1.09-.52-2.26-1.04-3.52-1.56s-2.41-1.08-3.47-1.69c-2.44-1.42-4.07-3.01-4.91-4.78-.84-1.77-1.03-3.83-.59-6.17.6-3.16,2.42-5.46,5.46-6.91s6.56-1.8,10.57-1.04c2.01.38,3.97.96,5.87,1.75,1.91.78,3.58,1.67,5.02,2.67l-1.46,7.71-.75-.14c-1.05-1.31-2.41-2.51-4.07-3.59s-3.45-1.8-5.35-2.16c-.74-.14-1.41-.21-2.02-.22s-1.27.08-1.97.26c-.57.14-1.1.41-1.57.82s-.77.9-.88,1.49c-.16.86.01,1.6.53,2.23.52.62,1.61,1.3,3.28,2.04,1.08.47,2.13.93,3.13,1.37,1,.44,2.06.99,3.17,1.63,2.18,1.29,3.7,2.76,4.57,4.4.87,1.64,1.08,3.64.64,5.98-.64,3.36-2.46,5.8-5.48,7.35-3.02,1.54-6.77,1.89-11.26,1.04Z"/><path class="cls-1" d="m344.86,74.68l8.73-26.4-9.63-3.18,2.06-6.22,27.44,9.07-2.06,6.22-9.63-3.18-8.73,26.4-8.19-2.71Z"/><path class="cls-1" d="m364.9,81.71l14.97-30.93,20.89,10.11-2.85,5.9-13.17-6.38-2.62,5.42,12.14,5.87-2.85,5.9-12.14-5.87-3.78,7.81,13.17,6.38-2.85,5.9-20.89-10.11Z"/><path class="cls-1" d="m416.2,111.88l-8.7-5.89-.86-15.79-2.56-1.73-7.06,10.43-7.1-4.81,19.26-28.45,11.43,7.74c1.58,1.07,2.89,2.1,3.92,3.09s1.84,2.13,2.41,3.43c.58,1.34.83,2.71.75,4.12-.08,1.4-.64,2.88-1.68,4.42-1.47,2.18-3.16,3.61-5.06,4.31-1.9.69-3.94.89-6.12.58l1.37,18.57Zm1.87-27.52c.48-.71.76-1.42.84-2.12s-.11-1.41-.56-2.12c-.32-.49-.73-.95-1.24-1.37-.51-.42-1.18-.91-1.99-1.46l-2.39-1.62-5.19,7.66,2.04,1.38c.99.67,1.88,1.18,2.65,1.53.78.35,1.54.49,2.29.42.7-.05,1.33-.24,1.89-.59.56-.35,1.11-.92,1.65-1.72Z"/><path class="cls-1" d="m424.38,120.74c-1.94-1.77-3.47-3.52-4.6-5.23s-2.07-3.43-2.82-5.14l5.51-6.03.58.53c.28,2.24.93,4.35,1.93,6.33s2.22,3.63,3.66,4.94c.36.33.88.73,1.55,1.19.67.46,1.26.78,1.78.94.62.21,1.24.28,1.86.22.62-.07,1.19-.38,1.71-.95.58-.64.8-1.38.67-2.23-.14-.85-.47-1.69-.99-2.5-.66-1.02-1.38-2.07-2.17-3.17-.79-1.1-1.48-2.19-2.06-3.26-1.33-2.49-1.88-4.7-1.67-6.65s1.13-3.8,2.74-5.56c2.17-2.37,4.93-3.38,8.28-3.01,3.35.36,6.53,1.92,9.54,4.67,1.51,1.38,2.87,2.9,4.08,4.57,1.21,1.67,2.17,3.3,2.87,4.91l-5.29,5.79-.56-.51c-.2-1.67-.73-3.4-1.58-5.19s-1.99-3.35-3.41-4.65c-.56-.51-1.09-.92-1.61-1.25-.51-.32-1.12-.59-1.81-.81-.56-.18-1.15-.23-1.77-.13-.62.09-1.13.36-1.53.81-.59.65-.83,1.37-.72,2.17.11.8.68,1.95,1.72,3.46.67.97,1.32,1.91,1.95,2.81.62.9,1.24,1.92,1.84,3.06,1.18,2.24,1.7,4.29,1.58,6.15-.12,1.86-.99,3.66-2.6,5.42-2.3,2.52-5.15,3.64-8.53,3.37-3.38-.28-6.76-1.95-10.12-5.03Z"/><polygon class="cls-4" points="283.25 266.63 198.16 266.63 240.71 246.04 283.25 225.45 325.8 246.04 368.34 266.63 283.25 266.63"/></svg>