<?xml version="1.0" encoding="UTF-8"?>
<svg id="uuid-b772995c-0ec8-4dfa-96d8-44fafe5a2f9f" data-name="Capa 1" xmlns="http://www.w3.org/2000/svg" viewBox="0 0 565.43 565.43">
  <defs>
    <style>
      .uuid-fd72cb04-9229-4dde-8844-283f003ff14b {
        fill: #f39982;
      }

      .uuid-09dd8aef-4ca5-4049-8611-e732e123ff92 {
        fill: #fffcfc;
      }

      .uuid-b763003c-8898-440e-9fc1-a7c12c9b1290 {
        fill: #fff;
      }

      .uuid-c3efef6d-65a4-42d2-b872-487f90d121b2 {
        fill: #f39881;
      }

      .uuid-18891b70-0b83-42fd-9db2-b2d288006b2f {
        fill: none;
      }

      .uuid-e2152363-b83e-49df-9879-03c5fa6004d4 {
        fill: #fef3ef;
      }

      .uuid-ab585908-dfeb-44ab-92c2-d95505a3e4e6 {
        fill: #fef4f0;
      }

      .uuid-6046ad6c-0c98-4420-b375-4cec543ba1fe {
        fill: #fffdfc;
      }

      .uuid-0f598c2a-04ad-4bd9-981a-34dcb3615330 {
        fill: #ea5243;
      }

      .uuid-63da5b7c-da1e-4376-9fb5-0763cdafb9d0 {
        fill: #fefcfc;
      }

      .uuid-17ee41cf-53c0-4ad5-825f-b6fa36f029df {
        fill: #ed6b56;
      }

      .uuid-3d88bd30-1df3-4aaa-86db-fbce05a737d0 {
        fill: #fffbfa;
      }

      .uuid-d9221a19-4fe2-4437-9aba-beaaab5691af {
        fill: #fef2ee;
      }

      .uuid-d35cbd4c-71e0-411c-8c50-64fb88f985d9 {
        fill: #fef5f1;
      }

      .uuid-9b0e636f-acbb-4eee-b70b-4fb5394981d8 {
        fill: #ec6450;
      }

      .uuid-aa38e8e4-d4bf-4e6c-bed7-9b8e37bf8700 {
        fill: #fefcfb;
      }

      .uuid-51fed0dc-94d5-47e7-adf1-15e9b156f7fe {
        fill: #cd1333;
      }
    </style>
  </defs>
  <g>
    <path class="uuid-51fed0dc-94d5-47e7-adf1-15e9b156f7fe" d="M562.68,283.46c0,154.21-125.01,279.21-279.21,279.21S4.25,437.67,4.25,283.46,129.26,4.25,283.47,4.25s279.21,125.01,279.21,279.21"/>
    <path class="uuid-51fed0dc-94d5-47e7-adf1-15e9b156f7fe" d="M562.68,283.46c0,154.21-125.01,279.21-279.21,279.21S4.25,437.67,4.25,283.46,129.26,4.25,283.47,4.25s279.21,125.01,279.21,279.21"/>
    <path class="uuid-51fed0dc-94d5-47e7-adf1-15e9b156f7fe" d="M562.68,283.46c0,154.21-125.01,279.21-279.21,279.21S4.25,437.67,4.25,283.46,129.26,4.25,283.47,4.25s279.21,125.01,279.21,279.21"/>
    <path class="uuid-51fed0dc-94d5-47e7-adf1-15e9b156f7fe" d="M4.25,283.41c0-154.17,124.96-279.14,279.12-279.16,154.5-.01,279.4,125.01,279.3,279.59-.09,154.08-125.2,278.92-279.41,278.84-154.19-.09-279.01-125.03-279.01-279.27"/>
    <path class="uuid-b763003c-8898-440e-9fc1-a7c12c9b1290" d="M10.38,283.73C10.3,132.9,132.49,10.47,283.2,10.38c150.81-.09,273.3,122.16,273.35,272.83.05,151.1-122.32,273.43-273.44,273.35-150.39-.08-272.66-122.39-272.74-272.83"/>
    <path class="uuid-51fed0dc-94d5-47e7-adf1-15e9b156f7fe" d="M173.46,454.6c73.33,43.48,146.67,43.45,220.01,0,1.17-.22,1.82.43,2.3,1.37.49,7.31-2.71,13.88-4.21,20.79-.94,4.33-2.9,8.47-2.49,13.54,5.1,2.91,11.03,3.6,16.56,5.42,6.23,2.05,13.17,2.3,18.37,7.06-25.35,16.92-53.16,28.24-82.74,34.89-69.95,15.72-135.35,3.56-196.44-33.4-.68-.41-1.26-1-1.89-1.5.84-2.97,3.59-2.96,5.83-3.62,7.77-2.27,15.64-4.19,23.41-6.47,1.92-.56,4-.81,5.64-2.81.74-4.51-1.52-8.76-2.47-13.24-1.46-6.87-4.69-13.39-4.19-20.66.48-.95,1.14-1.6,2.31-1.39"/>
    <path class="uuid-51fed0dc-94d5-47e7-adf1-15e9b156f7fe" d="M494.19,437.79c-16.96,22.8-36.98,42.49-60.13,58.98-.56.34-1.05.81-1.76.84l-.27-.22-.3.19c-9.27-1.09-18.35-3.07-27.25-5.86-1.46-.45-2.9-.94-4.21-1.75-.49-.38-.75-.88-.76-1.5,1.05-2.44,3.4-3.37,5.44-4.64,19.75-12.27,38.01-26.33,53.02-44.26,1.04-1.24,2.15-2.44,3.68-3.13.98-.59,2.25-.31,3.2-1.01l-.09.05c9.27-1.59,18.6-.27,27.9-.59,1.93-.07,2.36,1.23,1.53,2.91"/>
    <path class="uuid-51fed0dc-94d5-47e7-adf1-15e9b156f7fe" d="M135.21,497.57c-21.16-13.34-38.89-30.43-54.52-49.82-2.67-3.31-5.3-6.64-7.94-9.97-1.23-2.62.48-2.49,2.28-2.61,9.07-.57,18.12-.86,27.17.29l-.1-.05c.94.7,2.2.42,3.18,1.01,4.28,2.35,6.27,6.86,9.56,10.16,14.31,14.32,30.19,26.63,47.22,37.51,1.86,1.19,4.04,2.02,5.26,4.07.14.62-.01,1.16-.46,1.61-1.26.92-2.72,1.39-4.18,1.87-6.84,1.56-13.5,3.82-20.33,5.42-2.37.55-4.7,1-7.12.51"/>
    <path class="uuid-51fed0dc-94d5-47e7-adf1-15e9b156f7fe" d="M405.02,446.43c20-16.02,37.91-33.96,51.22-56.09,2.18-.6,1.67,1.13,1.68,2.11.06,13.03.02,26.05.05,39.08,0,2.4-.84,4.31-2.45,6.03-15.75,16.88-32.69,32.34-52.89,43.85-2.39,1.36-4.76,3.4-7.89,1.82-.47-.94-.62-1.99-.34-2.96,3.33-11.34,4.33-23.42,10.61-33.84"/>
    <path class="uuid-51fed0dc-94d5-47e7-adf1-15e9b156f7fe" d="M110.69,390.33c13.3,22.14,31.22,40.08,51.22,56.11,5.04,11.78,9.48,23.74,10.35,36.7-3.11,1.76-5.49-.32-7.87-1.68-20.22-11.51-37.18-26.97-52.95-43.87-1.6-1.72-2.49-3.62-2.48-6.03.04-13.04,0-26.07.05-39.11,0-.98-.5-2.71,1.68-2.12"/>
    <path class="uuid-51fed0dc-94d5-47e7-adf1-15e9b156f7fe" d="M66.84,428.75c-12.44-18.61-21.97-38.67-29.76-59.6-.8-2.68.85-3.63,2.88-3.05,9.1,2.62,18.87,3.11,27.11,8.46,7.43,15.07,15.09,30.02,24.94,43.73,2.31,3.21,5.52,6.03,5.45,11.02-4.97.97-9.97.29-14.92.48-5.22-.7-10.61,1.39-15.7-1.04"/>
    <path class="uuid-51fed0dc-94d5-47e7-adf1-15e9b156f7fe" d="M529.85,369.13c-7.78,20.94-17.32,41.01-29.77,59.62-5.09,2.17-10.42.66-15.62,1.03-4.83-.17-9.68.38-15.89-.43,4.08-10.25,11.53-17.85,16.62-26.77,5.23-9.16,9.59-18.74,14.62-27.99,8.24-5.36,18.02-5.88,27.13-8.48,1.99-.57,3.72.3,2.91,3.02"/>
    <path class="uuid-51fed0dc-94d5-47e7-adf1-15e9b156f7fe" d="M86.23,331.42c2.69,16.01,9.34,30.61,16.19,45.13,2.17,5.72.67,11.64.76,17.44.15,9.59.67,19.24-.56,28.94-2.71.58-4.13-.95-5.29-2.53-9.91-13.44-18.53-27.65-24.94-43.12-.7-1.69-1.04-3.5-.85-5.37,3.17-12.4,6.69-24.71,9.84-37.12.51-1.99.43-6.34,4.85-3.37"/>
    <path class="uuid-51fed0dc-94d5-47e7-adf1-15e9b156f7fe" d="M464.7,375.31c7.42-13.87,13.17-28.35,15.99-43.89.82-1.69,1.89-2.07,3.19-.52,1.06,1.27,1.53,2.85,1.9,4.43,2.88,12.22,6.5,24.25,9.58,36.42.11,6.91-3.89,12.33-6.74,18.12-4.96,10.07-11.05,19.5-17.54,28.65-1.47,2.07-2.84,4.56-6.8,4.59-.57-15.35-1.44-30.6-.17-45.9-.05-.71.14-1.34.59-1.9"/>
    <path class="uuid-51fed0dc-94d5-47e7-adf1-15e9b156f7fe" d="M540.1,242.35c-3.39,2.8-6.78,5.6-10.25,8.47-6-53.26-28.34-100.05-64.29-142.05,23.11,3.67,68.8,87.25,74.54,133.58"/>
    <path class="uuid-51fed0dc-94d5-47e7-adf1-15e9b156f7fe" d="M37.08,253.68c-3.33-3.22-6.45-6.24-9.9-9.59.68-36.93,49.15-126.76,72.71-132.29-16.35,20.69-31.22,42.27-42.02,66.41-10.78,24.11-18.01,49.2-20.79,75.46"/>
    <path class="uuid-51fed0dc-94d5-47e7-adf1-15e9b156f7fe" d="M112.09,131.74c-26.61,32.19-44.55,68.51-52.06,109.75-.88,4.81-1.46,9.67-2.12,14.51q-.95,6.89-7.06,12.07c-2.23-.72-3.5-2.55-5.48-5.06,6.49-51.43,26.52-96.84,64.39-133.8.26-.49.64-.84,1.13-1.09l.12-.12c.21-.48.56-.8,1.06-.95.65-.1,1.3-.19,2.39-.35-.13,1.09-.21,1.75-.29,2.4-.21.48-.52.88-.95,1.19l-.03.03c-.38.45-.79.88-1.09,1.39"/>
    <path class="uuid-51fed0dc-94d5-47e7-adf1-15e9b156f7fe" d="M457.17,126.78c31.36,30.18,50.42,67.16,60.19,109.21,1.61,6.93,2.52,14.03,3.67,21.06.23,1.38.03,2.82.03,4.71-1.31,1.22-2.78,2.59-4.49,4.18-4.24-2.74-6.84-6.01-7.41-11.16-5.27-47.36-24.08-88.9-54.32-125.47-.29-.52-.71-.95-1.09-1.41l-.02-.03c-.42-.31-.74-.71-.95-1.19-.08-.65-.16-1.31-.3-2.4,1.09.16,1.75.26,2.4.36.49.16.85.46,1.06.94l.11.11c.49.24.87.6,1.12,1.09"/>
    <path class="uuid-51fed0dc-94d5-47e7-adf1-15e9b156f7fe" d="M543.09,309.16c-1.75,16.63-5.14,32.94-9.81,48.99-2.16,3.44-5.94,3.87-9.34,4.86-4.42,1.29-8.94,2.24-13.39,3.46-1.56.4-3.1.91-4.74.81-.68-.16-1.17-.55-1.48-1.17-.74-1.81-.41-3.58.23-5.32,4.21-11.44,6.76-23.31,9.33-35.19,1.23-2.74,3.55-4.38,6-5.88,5.39-3.29,10.87-6.41,16.44-9.38,2.03-1.08,4.14-2.92,6.76-1.18"/>
    <path class="uuid-51fed0dc-94d5-47e7-adf1-15e9b156f7fe" d="M33.65,358.15c-4.67-16.05-8.05-32.35-9.81-48.98.32-.28.72-.61,1.04-.5,10.61,3.53,20.31,8.59,28.1,16.85,2.63,12.05,5.25,24.1,9.52,35.71.57,1.54.75,3.15.16,4.75-.28.63-.75,1.05-1.41,1.27-1.66.19-3.2-.34-4.77-.72-5.77-1.74-11.78-2.61-17.43-4.76-2.02-.77-4.1-1.67-5.41-3.61"/>
    <path class="uuid-51fed0dc-94d5-47e7-adf1-15e9b156f7fe" d="M22.71,299.15c-.06-15.72-.76-31.47,2.22-48.34,8.2,8.6,16.45,15.65,23.29,24.13,1.73,5.86.83,11.97,1.7,17.94.78,5.38.08,10.93.94,16.38.32,2.01.15,4.1-1.97,5.33-6.54-.15-10.91-5.01-16.27-7.68-3.74-1.86-7.88-3.57-9.91-7.76"/>
    <path class="uuid-51fed0dc-94d5-47e7-adf1-15e9b156f7fe" d="M518.7,274.93c6.74-8.4,14.94-15.36,23.42-24.19.75,6.42,1.71,11.64,1.89,16.88.32,9.33.11,18.68.26,28.02.04,2.46-.76,4.31-2.57,5.83-7.02,5.85-14.49,10.89-23.51,13.17-1.26-.53-2.08-1.6-2-2.83.74-12.3.56-24.66,2.52-36.88"/>
    <path class="uuid-51fed0dc-94d5-47e7-adf1-15e9b156f7fe" d="M434.42,138.93c-.36-.19-.53-.49-.52-.9-.23-.56-.2-1.1.08-1.64h-.02c.49-.21.99-.23,1.49-.03l-.03-.03c.23.65.66,1.07,1.36,1.18l-.05-.04c.15.79.67,1.17,1.43,1.26,30.72,28.59,50.61,63.03,56.82,104.92-6.56-5.38-13.38-9.97-15.56-19.23-7.33-31.18-23.41-57.98-42.94-82.94-.35-.46-.76-.88-1.09-1.36l-.04-.06c-.44-.28-.77-.66-.95-1.15"/>
    <path class="uuid-51fed0dc-94d5-47e7-adf1-15e9b156f7fe" d="M124.26,145.5c.65-.62,1.31-1.24,1.96-1.87.8-.07,1.33-.48,1.55-1.27l-.09.08c.71-.18,1.17-.59,1.25-1.35l-.07.07c.75-.09,1.2-.51,1.37-1.24h-.02c2.03.01,2.39.9,1.32,2.53l-.07.1c-.32.46-.67.9-1.06,1.31h0c-.45.38-.92.76-1.17,1.33l.05-.06c-.57.32-1.04.71-1.18,1.39l.08-.09c-1.04.34-.72,1.66-1.57,2.14l-.07.11c-.31.47-.66.91-1.05,1.32-12.94,18.07-24.68,36.82-32.23,57.88-1.99,5.55-4.52,11.09-5.28,16.84-1.35,10.23-8.7,15.51-15.44,22.05-1.85-22.84,21.18-72.98,50.91-100.49.07-.45.34-.72.79-.79"/>
    <path class="uuid-51fed0dc-94d5-47e7-adf1-15e9b156f7fe" d="M80.18,284.67c.47,7.36.95,14.73,1.42,22.09.36,3.66,1.19,7.35-.44,10.93l.07-.13c-2.41,15.25-6.01,30.19-11.99,44.49-2.26.26-3.4-1.26-3.99-2.99-4.09-11.98-8.49-23.91-8.53-36.83,5.03-11.93,12.54-22.49,18.74-33.79,1-1.83,1.74-4.3,4.73-3.77"/>
    <path class="uuid-51fed0dc-94d5-47e7-adf1-15e9b156f7fe" d="M485.33,306.76l1.42-22.09c1.43-.54,2.53.23,3.12,1.26,6.84,12.03,14.8,23.43,20.32,36.21,0,12.98-4.4,24.95-8.54,36.97-.59,1.72-1.74,3.26-4.04,2.89-1.46-1.28-1.92-3.07-2.42-4.82-3.18-11.13-6.1-22.34-9-33.54-1.43-5.54-1.73-11.19-.85-16.87"/>
    <path class="uuid-51fed0dc-94d5-47e7-adf1-15e9b156f7fe" d="M54.55,272.47c9.15-9.66,18.3-19.32,27.45-28.98.62.49,1.25.97,1.87,1.46-2.93,9.78-.82,20.51-6.21,29.82-4.49,12.3-12.36,22.75-18.65,34.07-.76,1.36-2.1,2.71-3.94,1.01-3.85-12.41-3.59-24.88-.53-37.38"/>
    <path class="uuid-51fed0dc-94d5-47e7-adf1-15e9b156f7fe" d="M486.92,270.74c-1.22-8.62-2.43-17.25-3.83-27.14,10.29,10.14,19.79,19.51,29.29,28.87,3.07,12.46,3.24,24.89-.44,37.27-2.11,2.02-3.43.27-4.28-1.24-7.02-12.53-15.45-24.28-20.74-37.76"/>
    <path class="uuid-09dd8aef-4ca5-4049-8611-e732e123ff92" d="M485.33,306.76c-.33,13.28,5.5,25.25,8.15,37.89,1.2,5.74,2.88,11.38,4.35,17.06,2.47,1.59,4.66,3.61,7.43,4.72.26-.18.47-.14.63.13,1.27-.74,3,.15,4.11-1.15,7.5-3.26,15.9-3.66,23.29-7.25-1.14,3.66-2.29,7.32-3.43,10.98-.14-1.35-.44-2.31-2.23-1.76-9.04,2.79-18.52,4.09-27.23,8.01-4.26,2.39-5.08-.93-6.22-3.73-4.23-12.03-6.79-24.54-10.39-36.74-.29-.98,1.35-5.53-3.08-3.49,3.35-7.88,2.94-16.46,4.63-24.66"/>
    <path class="uuid-6046ad6c-0c98-4420-b375-4cec543ba1fe" d="M69.11,361.72c3.75-14.8,7.18-29.68,12.12-44.15,2.4,4.35,3.8,9.07,4.99,13.86-4.24-2.54-2.68,2.17-2.89,2.89-3.28,11.27-6.22,22.64-9.27,33.97-.31,1.16-.87,2.25-1.32,3.37-.92,1.12-.19,2.8-1.29,3.86-1.68,1.26-3.31.99-4.93-.13-8.71-3.93-18.2-5.22-27.24-8.01-1.79-.55-2.08.44-2.22,1.78-.73-3.79-1.37-7.61-3.43-10.99,7.4,3.59,15.79,4,23.29,7.26,1.11,1.3,2.84.41,4.1,1.15.17-.26.38-.3.63-.12,2.94-.85,5.01-3.07,7.44-4.73"/>
    <path class="uuid-09dd8aef-4ca5-4049-8611-e732e123ff92" d="M486.92,270.74c8.36,12.84,15.67,26.28,23.11,39.65,3.49.67,5.53,5.14,9.8,3.74,6.97-4.78,14.33-8.88,21.87-12.66.46,2.57.93,5.13,1.39,7.7-10.06,4-19.27,9.47-27.83,16.08-4.13,2.12-5.37-.52-6.23-3.78-6.04-10.38-12.02-20.8-18.17-31.11-1.18-1.98-1.5-4.7-4.12-5.68.06-4.64.12-9.29.17-13.93"/>
    <path class="uuid-d35cbd4c-71e0-411c-8c50-64fb88f985d9" d="M110.69,390.33c-1.15.48-1.21,1.5-1.21,2.52,0,13.39,0,26.79,0,40.17,17.07,19.64,36.48,36.09,58.92,48.89,1.01.57,2.26.73,3.4,1.08,2.6-.06,1.88,1.7,1.24,2.78-1.34,2.23-2.88,4.5-6.14,3.09-21.6-13.28-41.66-28.45-58.55-47.53-1.34-1.51-2.56-3.14-3.83-4.71.61-.95,1.95-.42,2.61-1.29.43-.38.8-.83,1.22-1.23v-45.3c1.86-.47,2.05.6,2.35,1.54"/>
    <path class="uuid-d35cbd4c-71e0-411c-8c50-64fb88f985d9" d="M395.14,482.99c9.92-3.49,17.92-10.13,26.23-16.2,13.33-9.74,25.1-21.18,36.09-33.73,0-13.41,0-26.81,0-40.21,0-1.02-.07-2.04-1.21-2.52l1.08-1.98c.42.04.84.08,1.27.13v45.61c.42.39.79.84,1.22,1.23.66.86,2,.34,2.61,1.29-16.13,19.78-35.73,35.48-57.29,48.91-1.72,1.07-3.4,2.22-5.1,3.33-3.26,1.41-4.81-.86-6.14-3.09-.65-1.08-1.36-2.84,1.24-2.77"/>
    <path class="uuid-63da5b7c-da1e-4376-9fb5-0763cdafb9d0" d="M56.9,310.38c6.62-12.05,13.25-24.09,20.77-35.62-.42,3.62,2.57,6.38,2.51,9.91-6.98,8.49-11.11,18.71-17.02,27.86-1.87,2.9-3.52,5.95-5.27,8.94-.86,3.26-2.11,5.89-6.23,3.77-8.56-6.59-17.76-12.08-27.83-16.07.03-.78.07-1.55.11-2.53.95.28,1.74.51,2.62.77.39-3.63-4.35-4.73-3.86-8.27,8.13,4.99,16.26,9.98,24.39,14.98,4.17,1.12,6.6-2.31,9.8-3.74"/>
    <path class="uuid-09dd8aef-4ca5-4049-8611-e732e123ff92" d="M166.89,488.85q4.93-2.53,4.9-5.87l-9.89-36.55c2.67,2.29,5.42,4.54,4.11,8.5,2.86,1.27,1.77-4.47,4.89-2.17,1.04.98.4,2.39.9,3.51,2.91,11.53,5.82,23.06,8.96,35.52-12.84,3.73-25.34,7.36-37.84,10.99-1.33-3.58-6.07-2.11-7.73-5.21,9.31-2.42,18.62-4.85,27.93-7.28,1.09-.96,3.06.36,3.83-1.46l-.07.02Z"/>
    <path class="uuid-aa38e8e4-d4bf-4e6c-bed7-9b8e37bf8700" d="M395.14,482.99c-1.37,4.46,2.82,4.28,4.9,5.86l-.07-.02c.77,1.82,2.74.51,3.84,1.47,9.31,2.42,18.61,4.85,27.92,7.27-1.69,2.51-3.51.86-5.19.07-2.13-1-4.06-1.68-5.31.56-.57,2.86,4.69,1.21,2.78,4.6-12.38-3.58-24.75-7.17-37.82-10.96,3.06-12.19,6-23.88,8.94-35.57.5-1.12-.13-2.53.91-3.51,3.53-1.36,5.99-4.23,8.99-6.33-3.29,12.19-6.59,24.38-9.88,36.56"/>
    <path class="uuid-b763003c-8898-440e-9fc1-a7c12c9b1290" d="M494.18,371.65c1.63,1.97,3.06,4.29,6.22,3.73-7.44,19.05-18.25,36.17-30.96,53.23,5.05.27,9.35.49,13.65.72.39.24.52.48.39.72-.13.24-.26.36-.39.36-2.04,0-4.09,0-6.13,0-.41.4-.82.42-1.23-.01-.81.01-1.63.02-2.44.03-.42.4-.83.38-1.23-.02-1.35-.05-2.81.21-3.7-1.22-.95-1.18-2.65-.16-3.64-1.24h0c-.7-.67-.48-1.8-1.23-2.44h0c-.93-1.6-.76-3.23-.13-4.87,0-1.66,0-3.31,0-4.97-.72-3.65-.73-7.29,0-10.94,0-.84,0-1.69,0-2.53-.75-7.73-.79-15.47.03-23.2.04-.82.07-1.65.11-2.48.34-.36.69-.36,1.04,0v45.6c2.27.6,2.61-1.21,3.34-2.19,9.54-12.71,17.51-26.36,24.2-40.77,1.11-2.39,2.31-4.76,2.11-7.52"/>
    <path class="uuid-ab585908-dfeb-44ab-92c2-d95505a3e4e6" d="M66.53,375.38c1.34-.09,2.67-.17,3.96-.25.83-1.27,1.54-2.37,2.26-3.48.22,6.17,3.84,11.05,6.43,16.24,6.14,12.31,13.45,23.92,23.23,34.51v-45.85c.38.82.76,1.64,1.14,2.46.79,3.65.73,7.3.03,10.95,0,.84,0,1.69,0,2.53.74,3.24.74,6.48,0,9.72,0,.84,0,1.68,0,2.52.81,3.65.81,7.3,0,10.95v3.73c.77,2.05.95,4.09-.13,6.1h0c-.75.64-.53,1.78-1.23,2.44h0c-.98,1.09-2.69.06-3.64,1.24-3.46,2.44-7.38.68-11.05,1.22-.41.41-.82.41-1.23,0-.82,0-1.64,0-2.46,0-.39-.24-.52-.49-.39-.73.13-.24.26-.36.39-.36h14.02c-12.82-17.67-23.93-34.77-31.33-53.95"/>
    <path class="uuid-d9221a19-4fe2-4437-9aba-beaaab5691af" d="M56.9,310.38c-2.22,3.98-4.96,6.62-9.8,3.74,4.32-.04,2.07-3.05,1.97-4.75-.68-11.47-2.5-22.9-.85-34.43h3.4c1.12-.94,2.02-1.71,2.92-2.47-.41,11.46-.8,22.92.86,34.32.19,1.29-.3,2.93,1.49,3.59"/>
    <path class="uuid-e2152363-b83e-49df-9879-03c5fa6004d4" d="M519.83,314.13c-4.88,2.98-7.32-.42-9.8-3.74,2.48-3.21,2.19-7.15,2.31-10.77.31-9.04.07-18.09.05-27.14.9.76,1.8,1.52,2.91,2.46h3.4c1.66,11.53-.16,22.96-.85,34.43-.1,1.71-2.34,4.72,1.97,4.76"/>
    <path class="uuid-3d88bd30-1df3-4aaa-86db-fbce05a737d0" d="M102.19,435.47c-8.24.08-16.48.04-24.7.37-1.54.06-4.35-1.46-4.75,1.95-1.09-.75-1.45-1.81-1.51-3.82,10.46,1.05,20.78-1.58,30.96,1.5"/>
    <path class="uuid-3d88bd30-1df3-4aaa-86db-fbce05a737d0" d="M494.19,437.79c-.37-3.45-3.19-1.9-4.73-1.95-8.23-.32-16.46-.28-24.7-.36.37-.97.88-2.01,2.05-1.87,9.42,1.17,18.9,0,28.36.63,1.05,1.57.09,2.58-.98,3.55"/>
    <path class="uuid-3d88bd30-1df3-4aaa-86db-fbce05a737d0" d="M463.38,379.01c0,7.73-.02,15.47-.03,23.2-1.79-7.74-1.84-15.47.03-23.2"/>
    <path class="uuid-3d88bd30-1df3-4aaa-86db-fbce05a737d0" d="M483.09,430.42c0-.36,0-.72,0-1.09,5.67-.19,11.34-.39,17-.58-3.68,4.42-8.62.47-12.8,1.88-1.23.42-2.79-.12-4.19-.22"/>
    <path class="uuid-3d88bd30-1df3-4aaa-86db-fbce05a737d0" d="M83.84,429.33c0,.36,0,.73,0,1.09-4.4.15-8.81.26-13.21.47-1.78.08-3.17-.3-3.79-2.14,5.67.19,11.34.39,17.01.58"/>
    <path class="uuid-3d88bd30-1df3-4aaa-86db-fbce05a737d0" d="M103.58,415.69c0-3.65,0-7.3,0-10.95,2.11,3.65,2.1,7.3,0,10.95"/>
    <path class="uuid-3d88bd30-1df3-4aaa-86db-fbce05a737d0" d="M463.35,404.74c0,3.65,0,7.3,0,10.94-1.71-3.65-1.71-7.29,0-10.94"/>
    <path class="uuid-6046ad6c-0c98-4420-b375-4cec543ba1fe" d="M81.16,317.69c.15-3.64.29-7.29.44-10.93,1.44,3.71,2.13,7.39-.44,10.93"/>
    <path class="uuid-3d88bd30-1df3-4aaa-86db-fbce05a737d0" d="M103.58,389.97c-.01-3.65-.02-7.3-.03-10.95,1.77,3.65,1.73,7.3.03,10.95"/>
    <path class="uuid-3d88bd30-1df3-4aaa-86db-fbce05a737d0" d="M103.58,402.21c0-3.24,0-6.48,0-9.72,1.73,3.24,1.73,6.48,0,9.72"/>
    <path class="uuid-3d88bd30-1df3-4aaa-86db-fbce05a737d0" d="M103.45,425.52c.04-2.03.09-4.07.13-6.1,2.23,2.08,2.29,4.12-.13,6.1"/>
    <path class="uuid-3d88bd30-1df3-4aaa-86db-fbce05a737d0" d="M463.35,420.65l.13,4.87c-1.72-1.58-1.67-3.21-.13-4.87"/>
    <path class="uuid-3d88bd30-1df3-4aaa-86db-fbce05a737d0" d="M107.12,435.32c-.56,1.06-1.57,1.2-2.61,1.29-.81-.4-1.62-.79-2.43-1.19,1.68-.03,3.36-.07,5.03-.1"/>
    <path class="uuid-3d88bd30-1df3-4aaa-86db-fbce05a737d0" d="M462.42,436.61c-1.04-.09-2.06-.23-2.61-1.29,1.68.03,3.36.07,5.04.1-.81.4-1.62.79-2.42,1.19"/>
    <path class="uuid-fd72cb04-9229-4dde-8844-283f003ff14b" d="M171.81,456.27c-1.26-.92-1.06-2.22-.9-3.51.85.61,1.7,1.23,2.55,1.84-.55.56-1.1,1.11-1.65,1.67"/>
    <path class="uuid-c3efef6d-65a4-42d2-b872-487f90d121b2" d="M396.02,452.76c.15,1.29.36,2.59-.91,3.51-.55-.55-1.1-1.11-1.65-1.66.85-.62,1.7-1.24,2.55-1.86"/>
    <path class="uuid-3d88bd30-1df3-4aaa-86db-fbce05a737d0" d="M98.58,429.21c.85-1.48,2.3-1.19,3.64-1.24-.86,1.44-2.31,1.18-3.64,1.24"/>
    <path class="uuid-3d88bd30-1df3-4aaa-86db-fbce05a737d0" d="M464.71,427.97c1.34.05,2.79-.24,3.64,1.24-1.33-.06-2.78.2-3.64-1.24"/>
    <path class="uuid-3d88bd30-1df3-4aaa-86db-fbce05a737d0" d="M463.48,425.52c.99.52,1.2,1.44,1.23,2.45-.99-.52-1.2-1.44-1.23-2.45"/>
    <path class="uuid-3d88bd30-1df3-4aaa-86db-fbce05a737d0" d="M102.22,427.97c.02-1.01.24-1.92,1.23-2.44-.03,1.01-.24,1.92-1.23,2.44"/>
    <path class="uuid-0f598c2a-04ad-4bd9-981a-34dcb3615330" d="M126.63,146.14c.05-1.06.42-1.88,1.56-2.14-.52.71-1.04,1.43-1.56,2.14"/>
    <path class="uuid-3d88bd30-1df3-4aaa-86db-fbce05a737d0" d="M108.34,434.09c-.41.41-.81.82-1.22,1.23.4-.41.81-.82,1.22-1.23"/>
    <path class="uuid-3d88bd30-1df3-4aaa-86db-fbce05a737d0" d="M459.81,435.32l-1.22-1.23,1.22,1.23Z"/>
    <path class="uuid-0f598c2a-04ad-4bd9-981a-34dcb3615330" d="M129.24,142.76c.39-.45.78-.89,1.17-1.34-.39.45-.78.89-1.17,1.34"/>
    <path class="uuid-9b0e636f-acbb-4eee-b70b-4fb5394981d8" d="M435.42,140.14c.36.45.72.9,1.09,1.36-.36-.45-.72-.9-1.09-1.36"/>
    <path class="uuid-9b0e636f-acbb-4eee-b70b-4fb5394981d8" d="M434.42,138.93c.32.38.63.77.95,1.15-.32-.38-.63-.76-.95-1.15"/>
    <path class="uuid-17ee41cf-53c0-4ad5-825f-b6fa36f029df" d="M455.94,125.58c-.35-.31-.71-.63-1.06-.94.35.32.71.63,1.06.94"/>
    <path class="uuid-17ee41cf-53c0-4ad5-825f-b6fa36f029df" d="M110.88,125.69c-.38.36-.75.72-1.13,1.09.38-.36.75-.72,1.13-1.09"/>
    <path class="uuid-aa38e8e4-d4bf-4e6c-bed7-9b8e37bf8700" d="M432.3,497.61c.59-.28,1.17-.56,1.76-.84-.59.28-1.18.56-1.76.84"/>
    <path class="uuid-9b0e636f-acbb-4eee-b70b-4fb5394981d8" d="M438.17,138.73c-.81-.04-1.28-.46-1.43-1.26.48.42.95.84,1.43,1.26"/>
    <path class="uuid-9b0e636f-acbb-4eee-b70b-4fb5394981d8" d="M436.79,137.51l-1.36-1.18c.45.39.91.79,1.36,1.18"/>
    <path class="uuid-17ee41cf-53c0-4ad5-825f-b6fa36f029df" d="M457.17,126.78c-.37-.36-.74-.73-1.12-1.09.37.36.74.73,1.12,1.09"/>
    <path class="uuid-0f598c2a-04ad-4bd9-981a-34dcb3615330" d="M125.5,147.57c.35-.44.7-.88,1.05-1.32-.35.44-.7.88-1.05,1.32"/>
    <path class="uuid-9b0e636f-acbb-4eee-b70b-4fb5394981d8" d="M433.99,136.39c-.03.55-.06,1.09-.08,1.64-.88-.59-1.26-1.16.08-1.64"/>
    <path class="uuid-17ee41cf-53c0-4ad5-825f-b6fa36f029df" d="M113.21,127.88c.32-.4.63-.8.95-1.19-.32.4-.63.8-.95,1.19"/>
    <path class="uuid-9b0e636f-acbb-4eee-b70b-4fb5394981d8" d="M435.46,136.37c-.5.01-.99.03-1.49.04.23-.29.46-.57.65-.8.28.25.56.5.84.76"/>
    <path class="uuid-3d88bd30-1df3-4aaa-86db-fbce05a737d0" d="M464.53,376.53c-.35,0-.7,0-1.05.01l1.22-1.23c-.06.4-.12.81-.18,1.21"/>
    <path class="uuid-3d88bd30-1df3-4aaa-86db-fbce05a737d0" d="M86.3,430.43c.41,0,.82,0,1.23,0-.2.22-.4.43-.61.66-.21-.23-.41-.44-.61-.66"/>
    <path class="uuid-3d88bd30-1df3-4aaa-86db-fbce05a737d0" d="M472.05,430.43c.41,0,.82.02,1.23.02-.42.69-.83.68-1.23-.02"/>
    <path class="uuid-17ee41cf-53c0-4ad5-825f-b6fa36f029df" d="M453.75,127.91l1.09,1.41-1.09-1.41Z"/>
    <path class="uuid-3d88bd30-1df3-4aaa-86db-fbce05a737d0" d="M475.73,430.42c.41,0,.82,0,1.23.01-.2.21-.41.43-.62.66-.21-.23-.41-.45-.61-.67"/>
    <path class="uuid-17ee41cf-53c0-4ad5-825f-b6fa36f029df" d="M452.77,126.68c.32.4.63.8.95,1.19-.32-.4-.63-.8-.95-1.19"/>
    <path class="uuid-0f598c2a-04ad-4bd9-981a-34dcb3615330" d="M128.11,144.09c.39-.46.79-.93,1.18-1.39-.39.46-.79.93-1.18,1.39"/>
    <path class="uuid-17ee41cf-53c0-4ad5-825f-b6fa36f029df" d="M112.09,129.3c.36-.46.73-.93,1.09-1.39-.36.46-.73.93-1.09,1.39"/>
    <path class="uuid-51fed0dc-94d5-47e7-adf1-15e9b156f7fe" d="M265.21,516.17c2.23,4.39,5.59,8.21,6.86,13.34-1.16.92-2.23,1.76-3.29,2.6-1.08.81-2.29.52-3.47.4-4.06-4.61-6.94-9.87-9.05-15.89-1.58,4.13-2.27,8.4-2.05,12.73,2.02,1.81,4.49,1.04,6.56,1.79,2.61.93,5.37,1.33,7.99,2.19,1.75.51,3.51,1.02,5.25,1.52,1.41,2.35.97,4.28-1.7,6.6-16.24-2.21-33.04-4.5-49.35-6.73-1.05-2.92-1.13-4.64.59-6.44,6.7-.82,13.38,1.87,20.62,1.68,2.04-5.21,1.6-10.72,3.03-16.54-5.94-.9-11.27-1.7-16.57-2.5-1.92-2.04-1.59-4.06-.18-6.51,5.58-.58,11.07,1.32,16.93,1.57,1.42-3.57,1.84-7.32,1.82-11.63-6.23-.96-12.38-1.9-18.1-2.78-1.87-2.89-1.1-4.77,1.11-6.92,14.79,1.99,29.88,4.02,44.78,6.03,2.27,2.51,1.88,4.59-.74,7.03-6-.74-12.4-1.52-19.26-2.37-.6,3.92-1.17,7.65-1.76,11.44,6.24,1.86,12.51,1.23,18.04,3.36.98,2.15.84,3.85-.34,5.48-2.52,1.48-5.26-.1-7.8.61l.07-.06Z"/>
    <path class="uuid-51fed0dc-94d5-47e7-adf1-15e9b156f7fe" d="M310.55,523.46c-2.02,8.53-9.23,12.32-15.2,17.2-2.3-1.27-4.22-2.38-4.75-5.59,4.37-3.33,8.75-7.13,12.53-11.54.27-.29.45-.63.46-1.03,0-.11-.24-.17-.54-.17h-6.8c-2.39-4.95-1.76-10.48-2.87-15.66-.35-1.61.72-2.59,2.24-3.03.89-.65,1.89-1,2.98-1.1,1.03-.14,2.06-.32,3.06-.64.5-.17,1.01-.28,1.52-.37.78-.14,1.56-.22,2.34-.32,1.06-.18,2.08-.51,3.11-.79,1.36-.34,2.75-.41,4.14-.49,1.99.01,3.86-.72,5.81-.99.84-.12,1.68-.15,2.52-.15.83-.03,1.65-.03,2.48-.07,1.34,0,2.72-.57,3.99.29,1.55.2,3.29-.52,5.27,1.72.66,4.67,1.44,10.2,2.11,14.94-1.75,3.15-4.27,2.65-6.79,3.32,5.42,3.55,11.28,5.5,15.36,9.77.05,2.76-1.52,3.93-3.71,5.14-5.82-3.21-11.8-6.51-17.45-9.63-1.41-1.72-.14-2.99-.03-4.33-.02-1.38-.6-.19-.92-.2-3.7.23-1.89,2.69-1.8,4.45.23,4.73,2.53,9.57-.65,14.31-3.17,1.47-6.46,2.24-9.71,2.09-2.22-1.34-3.13-2.96-2.79-5,1.33-2.82,4.07-1.8,6.42-2.9.25-3.02.23-6.16-1.23-9.18-.35-.44-.71-.45-1.09-.03"/>
    <path class="uuid-51fed0dc-94d5-47e7-adf1-15e9b156f7fe" d="M295.71,502.75h-7.82c-1.52-1.35-2.12-2.92-1.22-5.65,5.75-2.68,12.62-1.87,19.44-3.56-1.71-3.49-.48-5.84,3.55-6.8,2.57.82,3.64,3.49,5.93,5.55,6.48-.79,13.26-1.62,19.71-2.4,2.04,1.37,2.88,2.83,2.3,5.12-2.56,3.18-6.49,2.32-9.96,2.9-1.45.98-3.19.96-4.79,1.45-.55.15-1.1.23-1.67.23-.85,0-1.7,0-2.55,0-2.06-.13-3.85,1-5.84,1.21-1.41.03-2.83,0-4.24.03-1.35.31-2.7.63-4.04.97-.53.15-1.06.23-1.61.24-.83-.02-1.59.28-2.37.48-1.6.21-3.21.08-4.81.23"/>
    <path class="uuid-51fed0dc-94d5-47e7-adf1-15e9b156f7fe" d="M295.71,502.75c1.41-1.44,3.17-1.34,4.96-1.11.27.24.39.5.34.77-.05.29-.11.43-.19.43-.53.5-1.19.74-1.88.89l-3.33-.12c-.06-.3-.03-.59.1-.87"/>
    <path class="uuid-51fed0dc-94d5-47e7-adf1-15e9b156f7fe" d="M268.76,533.33c-2.97-.01-5.98.35-8.74-1.18,1.84-1.8,3.77-1.17,5.72-.22,1.01.06,2.03.12,3.04.18,0,.41-.01.81-.01,1.22"/>
    <path class="uuid-51fed0dc-94d5-47e7-adf1-15e9b156f7fe" d="M322.45,498.82c1.58-1.16,3.35-1.26,5.19-.92-.1.36-.13.72-.09,1.08-1.14.82-2.37,1.28-3.79.99-.48-.33-1.21-.39-1.31-1.16"/>
    <path class="uuid-51fed0dc-94d5-47e7-adf1-15e9b156f7fe" d="M310.55,523.46c-.58-.49-1.16-.99-1.81-1.54q2.42-.62,2.9,1.58c-.36,0-.73-.02-1.09-.03"/>
    <path class="uuid-51fed0dc-94d5-47e7-adf1-15e9b156f7fe" d="M303.05,522.32c.38-.65.78-1.27,1.69-.66,0,1.09-.71,1.56-1.61,1.87.03-.4,0-.81-.08-1.2"/>
    <path class="uuid-51fed0dc-94d5-47e7-adf1-15e9b156f7fe" d="M321.4,519.71c.43-.34.86-.67,1.28-1,.95.94.13.99-.36,1.2l-.5.08-.42-.28Z"/>
    <path class="uuid-d35cbd4c-71e0-411c-8c50-64fb88f985d9" d="M403.8,490.3c-1.5.09-3.14.54-3.84-1.47,1.28.49,2.56.98,3.84,1.47"/>
    <path class="uuid-d35cbd4c-71e0-411c-8c50-64fb88f985d9" d="M166.96,488.83c-.7,2.01-2.33,1.55-3.83,1.46,1.28-.49,2.55-.98,3.83-1.46"/>
    <path class="uuid-e2152363-b83e-49df-9879-03c5fa6004d4" d="M509.04,321.46c1.44,2.31,3.17,4.14,6.23,3.78-1.47,11.73-4.85,22.99-8.53,34.17-.75,2.27-2.2,4.43-1.48,7.02-4.16,1.08-5.91-1.64-7.43-4.72,4.77-4.68,4.93-11.26,6.69-17.09,2.27-7.53,4.64-15.14,4.53-23.17"/>
    <path class="uuid-e2152363-b83e-49df-9879-03c5fa6004d4" d="M509.99,365.41c-1.01,1.67-2.58,1.31-4.11,1.15,1.17-1.09,2.61-1.23,4.11-1.15"/>
    <path class="uuid-e2152363-b83e-49df-9879-03c5fa6004d4" d="M51.67,325.24c3.05.35,4.79-1.47,6.23-3.77.87,13.7,5.07,26.58,9.77,39.33.16.43.95.62,1.45.92-1.33,3.38-2.99,6.24-7.44,4.73-.36-7-3.95-13.11-5.47-19.8-1.62-7.11-3.8-14.1-4.54-21.4"/>
    <path class="uuid-e2152363-b83e-49df-9879-03c5fa6004d4" d="M61.04,366.56c-1.52.16-3.1.51-4.1-1.15,1.5-.08,2.93.06,4.1,1.15"/>
    <path class="uuid-51fed0dc-94d5-47e7-adf1-15e9b156f7fe" d="M265.74,531.93c-1.91.07-3.81.15-5.72.22-2.6-.03-5.23.18-7.99-1.11.72-5.36,1.44-10.72,2.14-15.94,1.74-1.41,3.23.22,4.85-.41-1.78,7.6,5.39,11.24,6.72,17.24"/>
    <path class="uuid-51fed0dc-94d5-47e7-adf1-15e9b156f7fe" d="M265.21,516.17c-.29-.16-.59-.31-.91-.49.85-.62.76.08.83.54l.08-.06Z"/>
    <path class="uuid-51fed0dc-94d5-47e7-adf1-15e9b156f7fe" d="M325.53,506.87c1.2,1.47,1.41,2.75.78,4.71-7.78,1.08-15.74,2.2-23.57,3.29-1.58-1.17-1.06-2.71-1.47-4.63,8.19-1.14,16.31-2.27,24.26-3.37"/>
    <path class="uuid-51fed0dc-94d5-47e7-adf1-15e9b156f7fe" d="M312.85,500.28c1.96-.92,3.99-1.49,6.19-1.1.36.22.48.43.35.63-.12.2-.25.31-.37.31-2.03.57-3.99,1.51-6.19,1.16-.38-.23-.51-.45-.38-.67.13-.22.26-.33.39-.33"/>
    <path class="uuid-51fed0dc-94d5-47e7-adf1-15e9b156f7fe" d="M304.09,501.23c1.18-1.01,2.54-1.13,3.99-.78.32.3.41.58.27.84-.14.25-.26.37-.38.37-.59,1.14-1.61.93-2.59.82-.46-.38-1.22-.45-1.28-1.24"/>
    <path class="uuid-51fed0dc-94d5-47e7-adf1-15e9b156f7fe" d="M307.97,501.66c.07-.4.11-.8.12-1.21,1.59-.06,3.17-.11,4.76-.17,0,.33,0,.67-.02,1-1.62.13-3.24.25-4.86.38"/>
    <path class="uuid-51fed0dc-94d5-47e7-adf1-15e9b156f7fe" d="M322.45,498.82c.44.39.88.77,1.31,1.16l-2.4.07c-.36-.22-.47-.44-.35-.66.12-.21.25-.31.37-.31.31-.25.67-.34,1.06-.26"/>
    <path class="uuid-51fed0dc-94d5-47e7-adf1-15e9b156f7fe" d="M321.39,499.09c.04.33.04.65-.02.97-.78.02-1.57.04-2.35.06-.04-.32-.03-.63.02-.94.79-.03,1.57-.06,2.35-.09"/>
    <path class="uuid-51fed0dc-94d5-47e7-adf1-15e9b156f7fe" d="M300.64,502.57c.02-.31.03-.62.03-.93.78-.03,1.57-.06,2.35-.09.42.22.56.43.42.63-.14.2-.28.31-.43.31-.41.14-.81.28-1.22.42-.52.32-.9.2-1.15-.35"/>
    <path class="uuid-51fed0dc-94d5-47e7-adf1-15e9b156f7fe" d="M303.02,502.5c.02-.31.03-.62.01-.94.31-.26.66-.37,1.06-.33.43.41.86.83,1.29,1.24-.79,0-1.57.02-2.36.03"/>
    <path class="uuid-51fed0dc-94d5-47e7-adf1-15e9b156f7fe" d="M300.64,502.57c.39.1.78.21,1.15.35-.75.97-1.78.95-2.85.82.56-.39,1.13-.78,1.7-1.17"/>
  </g>
  <g>
    <path class="uuid-51fed0dc-94d5-47e7-adf1-15e9b156f7fe" d="M365.68,425.8l-165.61.2c-1.33-33.65-26.44-58.86-60.86-60.24v-166.5c34.13-1.38,59.62-27.05,60.01-59.69l166.87-.15c.29,33.03,26.07,58.52,60.13,59.81l-.06,166.67c-33.97,1.25-59.23,25.34-60.48,59.89ZM281.2,415.02c6.74-5.63,3.29-10.66,3.8-15.87,12.03-62.39,60.41-106.47,124.92-116.84-64.54-8.62-113.4-54.2-125.32-117.57.89-4.89,2.04-10.13-3.92-13.1-.13,12.21-1.82,22.4-5.61,33.75-10.82,31.71-31.94,58.72-60.7,75.99-19.9,11.93-40.78,16.02-63.93,21.49,33.63,4.04,62.26,14.74,85.52,37.37,27.84,24.75,43.44,58.38,45.24,94.78Z"/>
    <path class="uuid-51fed0dc-94d5-47e7-adf1-15e9b156f7fe" d="M294.17,242.47c21.19,6.77,32.86,26.98,29.27,47.13-3.92,20.45-21.49,35.43-42.53,34.27-20.38-.22-37.53-16.76-39.51-37.05-1.99-20.76,10.74-39.8,31.94-44.82,6.77-.39,13.44-.73,20.82.47Z"/>
  </g>
  <g>
    <circle class="uuid-18891b70-0b83-42fd-9db2-b2d288006b2f" cx="287.71" cy="278.71" r="254.48"/>
    <path class="uuid-b763003c-8898-440e-9fc1-a7c12c9b1290" d="M239.52,490.17l19.31,2.46-2.84,22.21-12.98-1.66-2.56,20.02-6.32-.81,5.39-42.23ZM244.14,504.29l-.53,4.14,7.66.98.53-4.14-7.66-.98ZM244.68,500.06l7.66.98.53-4.14-7.66-.98-.53,4.14ZM280.99,495.46l-4.38,34.29c-.25,1.93-.48,3.35-.71,4.26-.23.91-.67,1.62-1.34,2.15-.67.53-1.43.79-2.3.79-.87,0-2.23-.12-4.06-.35-.73-.09-3.32-.5-7.77-1.23l.36-5.46c4.1.69,6.37,1.05,6.82,1.11,1.14.15,1.83.13,2.08-.05.25-.18.44-.81.58-1.88l1.56-12.22-13.46-1.72,2.83-22.21,19.79,2.53ZM272.96,507.97l-8.13-1.04-.53,4.14,8.13,1.04.53-4.14ZM273.5,503.74l.53-4.14-8.13-1.04-.53,4.14,8.13,1.04Z"/>
    <path class="uuid-b763003c-8898-440e-9fc1-a7c12c9b1290" d="M285.09,510.23l-.39-4.63,10.22-.86c-.48-.73-1.21-1.78-2.19-3.14l-6.26.53-.39-4.68,16.39-1.38-.31-3.68,6.59-.55.31,3.68,16.39-1.38.39,4.68-6.26.53c-.53,1.39-1.01,2.54-1.44,3.44l10.03-.84.39,4.63-43.48,3.66ZM311.24,523.09l.13,1.53,16.1-1.36.36,4.3-16.1,1.35.13,1.53,18.44-1.55.42,4.97-43.19,3.63-.42-4.97,18.44-1.55-.13-1.53-16.1,1.36-.36-4.3,16.1-1.35-.13-1.53-8.22.69-6.4.54-1.14-13.57,35.54-2.99,1.14,13.57-14.62,1.23ZM296.01,515.9l8.22-.69-.14-1.62-8.22.69.14,1.62ZM304.64,520.13l-.14-1.72-8.22.69.15,1.72,8.22-.69ZM311.31,503.36c.61-1.11,1.17-2.26,1.68-3.46l-13.38,1.13c.33.49,1.01,1.54,2.05,3.15l9.65-.81ZM310.53,514.68l8.22-.69-.14-1.62-8.22.69.14,1.62ZM310.95,519.6l8.22-.69-.14-1.72-8.22.69.14,1.72Z"/>
  </g>
  <g>
    <circle class="uuid-18891b70-0b83-42fd-9db2-b2d288006b2f" cx="282.71" cy="282.71" r="206.9"/>
    <path class="uuid-51fed0dc-94d5-47e7-adf1-15e9b156f7fe" d="M156.21,77.11l5.35-2.84,20.12,18.73-4.25-27.16,5.35-2.84,15.67,29.49-3.97,2.11-12-22.59,4.07,26.81-2.76,1.47-19.94-18.38,12,22.6-3.97,2.11-15.67-29.49Z"/>
    <path class="uuid-51fed0dc-94d5-47e7-adf1-15e9b156f7fe" d="M192.73,58.99l20.28-7.1,1.23,3.5-16.04,5.61,3.42,9.77,14.93-5.23,1.23,3.5-14.93,5.23,3.94,11.24,16.96-5.94,1.22,3.5-21.2,7.42-11.03-31.52ZM202.59,53.47l-3.13,1.1,3.09-8.32,5.53-1.94-5.48,9.16Z"/>
    <path class="uuid-51fed0dc-94d5-47e7-adf1-15e9b156f7fe" d="M223.17,48.97l4.79-.96,20.52,22.77-5.2-25.85,4.4-.89,6.59,32.74-4.79.96-20.52-22.77,5.2,25.85-4.4.89-6.59-32.74Z"/>
    <path class="uuid-51fed0dc-94d5-47e7-adf1-15e9b156f7fe" d="M273.17,41.6l26.76.42-.06,3.71-11.13-.17-.46,29.68-4.49-.07.46-29.68-11.13-.17.06-3.71Z"/>
    <path class="uuid-51fed0dc-94d5-47e7-adf1-15e9b156f7fe" d="M312.03,46.74c2.84-2.04,6-2.78,9.47-2.21,3.47.57,6.22,2.28,8.27,5.11,2.58,3.59,3.41,8.21,2.48,13.87-.93,5.66-3.18,9.77-6.77,12.35-2.84,2.04-6,2.78-9.47,2.21s-6.23-2.27-8.27-5.11c-2.58-3.59-3.4-8.21-2.48-13.86.93-5.65,3.18-9.77,6.77-12.35ZM314.89,49.78c-2.54,1.83-4.21,5.18-5.01,10.06-.8,4.88-.29,8.6,1.54,11.14,1.4,1.94,3.12,3.08,5.18,3.42,2.05.34,4.06-.19,6-1.59,2.54-1.83,4.21-5.18,5.01-10.06.8-4.88.29-8.59-1.54-11.14-1.4-1.94-3.12-3.08-5.18-3.42-2.06-.34-4.06.19-6,1.59ZM320.2,42.73l-3.28-.54,6.7-5.83,5.78.95-9.2,5.42Z"/>
    <path class="uuid-51fed0dc-94d5-47e7-adf1-15e9b156f7fe" d="M345.15,49.7l4.64,1.51,6.7,29.91,8.16-25.07,4.27,1.39-10.33,31.76-4.64-1.51-6.7-29.91-8.15,25.07-4.27-1.39,10.33-31.76Z"/>
    <path class="uuid-51fed0dc-94d5-47e7-adf1-15e9b156f7fe" d="M381.08,66.7c3.67-1.21,7.25-.94,10.74.82,3.49,1.76,5.78,4.3,6.88,7.62.92,2.8.77,5.56-.46,8.3l-4.19-2.11c.88-2.03,1-4.01.37-5.94-.64-1.92-2.06-3.44-4.26-4.56-2.21-1.11-4.45-1.29-6.72-.55-3.15,1.04-5.84,3.77-8.06,8.18-2.11,4.19-2.62,7.94-1.52,11.26.75,2.27,2.46,4.08,5.13,5.43,1.98.99,3.92,1.18,5.85.54,1.92-.63,3.35-1.59,4.29-2.87l1.41-2.79-5.06-2.55,1.67-3.31,9.07,4.57-7.74,15.35-2.96-1.49.45-3.49c-2.98.98-5.97.71-8.99-.82-3.72-1.88-6.16-4.56-7.31-8.06-1.44-4.37-.93-9,1.53-13.88,2.58-5.11,5.88-8.33,9.9-9.66Z"/>
  </g>
</svg>