<svg enable-background="new 0 0 566.9 566.9" viewBox="0 0 566.9 566.9" xmlns="http://www.w3.org/2000/svg"><path d="m283.3 562.7c-154.5-.2-279.4-125.6-279-279.8.3-154.2 125.6-278.9 279.6-278.7 154.4.3 279.1 125.6 278.8 280.2-.4 153.6-125.7 278.5-279.4 278.3zm.5-532.2c-138.4-1.5-253.1 114.3-253.6 252-.5 138.9 114.8 254.1 253 254.3 138.4.2 253.1-114.6 253.6-252.3.5-139-114.9-255.2-253-254z" fill="#010101"/><path d="m283.8 30.4c138.1-1.1 253.5 115 253 254-.5 137.8-115.3 252.5-253.6 252.3-138.2-.1-253.5-115.3-253-254.2.5-137.7 115.2-253.5 253.6-252.1z" fill="#ec8608"/><path d="m254.6 333.5c-.3-.3-.7-.7-.7-.7.5-.7.9-.4 1.3.1z" fill="#ec870a"/><g fill="#fff"><path d="m106.3 180.6c1.7.8 2.9 1.7 3.6 2.8s1.2 2.4 1.3 3.7-.1 2.7-.5 4.2-.9 2.9-1.6 4.4l-10 21.9c-.5 1.2-1.4 1.5-2.6 1l-24.5-11.2c-1.2-.5-1.5-1.4-1-2.6l9.9-21.6c.8-1.7 1.6-3.2 2.5-4.5s1.8-2.3 2.9-3 2.2-1.1 3.5-1.2 2.8.2 4.4 1c1.4.6 2.4 1.4 3.2 2.4s1.2 2.3 1.2 4c1-1 2.1-1.6 3.3-1.9 1.1-.4 2.6-.2 4.4.6zm-21.9 26.2 8.4-18.5c.5-1.2.9-2.2 1.2-3s.3-1.5.3-2.1c-.1-.6-.3-1.1-.7-1.5s-1-.8-1.9-1.2c-.7-.3-1.3-.5-1.9-.6s-1.1 0-1.6.3-1 .8-1.5 1.5-1 1.7-1.6 2.9l-8.5 18.7zm19.6-20.8c-.8-.3-1.4-.6-2-.6-.6-.1-1.2 0-1.7.3s-1.1.9-1.6 1.6c-.5.8-1.1 1.8-1.7 3.2l-8.4 18.3 7.8 3.6 8.6-18.9c.6-1.3 1-2.3 1.2-3.2.2-.8.3-1.5.2-2.1-.1-.5-.4-1-.8-1.3s-1-.6-1.6-.9z"/><path d="m117.7 177.1c.7.4 1 .9 1 1.5 0 .5-.3 1.2-.8 2s-1 1.3-1.4 1.6c-.5.3-1.1.2-1.8-.2l-23.2-14.4c-.7-.4-1-.9-1-1.5 0-.5.3-1.2.8-2s1-1.3 1.5-1.6 1.1-.2 1.8.2z"/><path d="m128.1 165.3c-5.2 6.6-9.9 8.2-14.1 4.9l-16.6-13.2c-.6-.5-.9-1-.8-1.6.1-.5.4-1.2 1-1.9s1.1-1.2 1.6-1.4 1.1-.1 1.7.4l16.6 13.2c.7.6 1.7.6 2.9.1s2.6-1.7 4.2-3.6l13-16.4c.4-.5.8-.8 1.3-.7.4.1.9.4 1.5.8.6.5 1 .9 1.2 1.3s.1.9-.4 1.4z"/><path d="m152.1 139.1c-6.4 5.5-11.3 6.3-14.7 2.3l-13.9-16c-.5-.6-.7-1.2-.5-1.7s.6-1.1 1.3-1.7 1.3-1 1.9-1.1c.5-.1 1.1.1 1.6.7l13.9 16c.6.7 1.5.9 2.8.7s2.9-1.2 4.8-2.8l15.8-13.7c.5-.4 1-.6 1.4-.4s.8.5 1.3 1.1.8 1.1.9 1.5-.1.9-.6 1.3z"/><path d="m174.8 119.2c.5.7.6 1.3.3 1.7-.3.5-.8 1-1.5 1.5-.8.5-1.4.8-1.9.9s-1-.2-1.5-.9l-15.4-22.5c-.5-.7-.6-1.3-.3-1.7.3-.5.8-1 1.5-1.5.8-.5 1.4-.8 2-.9.5-.1 1 .3 1.5.9z"/><path d="m176.7 104.5 2.3 4.4c.4.8 1.3 1.2 2.6 1.3s3.1-.5 5.3-1.7l18.1-9.4c.6-.3 1.1-.4 1.5-.1.4.2.7.7 1.1 1.4.3.7.5 1.2.5 1.7s-.3.8-.9 1.2l-18.2 9.5c-7.5 3.9-12.4 3.5-14.9-1.2l-7-13.4c-2.4-4.7.1-9 7.5-12.9l5.6-2.9c.6-.3 1.1-.3 1.4-.1.4.2.7.7 1.1 1.4s.5 1.2.5 1.7c0 .4-.3.8-.9 1.1l-5.5 2.9c-2.2 1.2-3.7 2.3-4.4 3.4s-.9 2.1-.4 2.9l2.5 4.8 24.6-12.8c.6-.3 1.1-.4 1.5-.1.4.2.7.7 1.1 1.4s.5 1.2.5 1.7c0 .4-.3.8-.9 1.1z"/><path d="m462.8 384.9c-1.7-.7-2.9-1.7-3.6-2.8-.8-1.1-1.2-2.4-1.3-3.7s0-2.7.5-4.2c.4-1.5.9-2.9 1.6-4.4l9.9-21.9c.5-1.2 1.4-1.5 2.6-1l24.5 11.1c1.2.5 1.5 1.4 1 2.6l-9.7 21.6c-.8 1.7-1.6 3.2-2.4 4.5s-1.8 2.3-2.9 3-2.2 1.1-3.5 1.2-2.7-.2-4.4-1c-1.4-.6-2.5-1.4-3.2-2.4s-1.2-2.3-1.3-4c-1 1-2.1 1.6-3.3 2-1.3.4-2.8.2-4.5-.6zm2.2-5.3c.8.3 1.4.5 2 .6s1.2 0 1.7-.4c.5-.3 1.1-.9 1.6-1.6.5-.8 1.1-1.8 1.7-3.2l8.3-18.3-7.8-3.5-8.5 18.8c-.6 1.3-1 2.3-1.2 3.2-.2.8-.3 1.5-.1 2.1.1.5.4 1 .8 1.3.3.4.9.7 1.5 1zm19.5-20.9-8.3 18.5c-.5 1.2-.9 2.2-1.2 3s-.3 1.5-.3 2.1c.1.6.3 1.1.7 1.5s1 .8 1.9 1.2c.7.3 1.3.5 1.9.6s1.1 0 1.6-.3 1-.8 1.5-1.5 1-1.7 1.6-2.9l8.4-18.7z"/><path d="m451.6 388.6c-.7-.4-1-.9-1-1.5 0-.5.3-1.2.8-2s.9-1.3 1.4-1.6 1.1-.2 1.8.2l23.3 14.1c.7.4 1 .9 1 1.5 0 .5-.3 1.2-.8 2s-1 1.3-1.4 1.6c-.5.3-1.1.2-1.8-.2z"/><path d="m441.3 400.6c5.1-6.7 9.8-8.4 14-5.1l16.7 12.9c.7.5.9 1 .8 1.6-.1.5-.4 1.2-1 1.9s-1.1 1.2-1.6 1.5c-.5.2-1.1.1-1.7-.4l-16.6-13c-.7-.6-1.7-.6-2.9-.1s-2.6 1.7-4.1 3.7l-12.8 16.5c-.4.5-.8.8-1.3.7-.4-.1-.9-.3-1.5-.8s-1-.9-1.2-1.3-.1-.9.3-1.4z"/><path d="m417.6 427.2c6.3-5.6 11.2-6.5 14.8-2.5l14.2 15.9c.6.6.7 1.2.5 1.7s-.6 1.1-1.3 1.7-1.3 1-1.9 1.1c-.5.1-1.1-.1-1.6-.7l-14.2-15.9c-.6-.7-1.6-.9-2.8-.6s-2.9 1.2-4.7 2.9l-15.7 14c-.5.5-1 .6-1.4.5-.4-.2-.9-.5-1.4-1.1s-.8-1.1-.9-1.5.1-.9.6-1.3z"/><path d="m395.3 447.3c-.5-.7-.6-1.3-.3-1.7.3-.5.8-1 1.5-1.5s1.4-.8 1.9-.9 1 .2 1.5.9l15.5 22.4c.5.7.6 1.3.3 1.7-.3.5-.7 1-1.5 1.5s-1.4.8-2 .9c-.5.1-1-.2-1.5-.9z"/><path d="m393.5 462-2.4-4.4c-.4-.8-1.3-1.2-2.6-1.3-1.3 0-3.1.5-5.3 1.7l-17.9 9.7c-.6.3-1.1.4-1.5.1-.4-.2-.7-.7-1.1-1.4s-.5-1.2-.5-1.7.3-.8.9-1.2l18.1-9.8c7.4-4 12.4-3.7 14.9 1l7.2 13.3c2.5 4.7.1 9-7.3 13l-5.6 3c-.6.3-1 .3-1.4.1s-.7-.7-1.1-1.4-.5-1.2-.5-1.7c0-.4.3-.8.9-1.1l5.4-2.9c2.2-1.2 3.7-2.3 4.3-3.4.7-1.1.8-2.1.4-2.9l-2.6-4.8-24.4 13.2c-.6.3-1.1.4-1.5.1-.4-.2-.7-.7-1.1-1.4s-.5-1.2-.5-1.7.3-.8.9-1.1z"/><circle cx="285.5" cy="283" r="70.6"/><path d="m406.2 288.3c-2.9 0-5.3-2.4-5.3-5.3-.1-63.7-51.7-115.3-115.4-115.4-2.9 0-5.3-2.4-5.3-5.3s2.4-5.3 5.3-5.3c69.6.1 125.9 56.4 126 126 0 2.9-2.4 5.3-5.3 5.3z"/><path d="m435.1 288.3c-2.9 0-5.3-2.4-5.3-5.3 0-79.5-64.7-144.2-144.3-144.2-2.9 0-5.3-2.4-5.3-5.3s2.4-5.3 5.3-5.3c85.4 0 154.9 69.5 154.9 154.8 0 2.9-2.4 5.3-5.3 5.3z"/><path d="m469.8 288.3c-2.9 0-5.3-2.4-5.3-5.3 0-98.7-80.3-179-179-179-2.9 0-5.3-2.4-5.3-5.3s2.4-5.3 5.3-5.3c104.5 0 189.6 85.1 189.6 189.6 0 2.9-2.4 5.3-5.3 5.3z"/><path d="m281.4 410c-69.6-.1-125.9-56.4-126-126-.1-2.9 2.1-5.4 5.1-5.5s5.4 2.1 5.5 5.1v.5c.1 63.7 51.7 115.3 115.4 115.4 2.9 0 5.3 2.4 5.3 5.3 0 2.8-2.4 5.2-5.3 5.2z"/><path d="m281.4 438.8c-85.4 0-154.9-69.5-154.9-154.8-.1-2.9 2.1-5.4 5.1-5.5s5.4 2.1 5.5 5.1v.5c0 79.5 64.7 144.3 144.3 144.3 2.9 0 5.3 2.4 5.3 5.3 0 2.8-2.4 5.2-5.3 5.1z"/><path d="m281.4 473.5c-104.6 0-189.6-85.1-189.6-189.5 0-2.9 2.4-5.3 5.3-5.3s5.3 2.4 5.3 5.3c0 98.7 80.3 179 179 179 2.9 0 5.3 2.4 5.3 5.3s-2.4 5.3-5.3 5.2z"/></g></svg>