<?xml version="1.0" encoding="UTF-8"?><svg id="Capa_1" xmlns="http://www.w3.org/2000/svg" viewBox="0 0 566.93 566.93"><defs><style>.cls-1{font-family:Tahoma-Bold, Tahoma;font-size:38.71px;font-weight:700;}.cls-1,.cls-2{fill:#fff;}.cls-3{fill:#262e40;}.cls-3,.cls-2,.cls-4,.cls-5{stroke-width:0px;}.cls-4{fill:#35495e;}.cls-5{fill:#f1c410;}</style></defs><path class="cls-4" d="m283.46,562.68c-74.58,0-144.7-29.04-197.43-81.78C33.3,428.16,4.25,358.04,4.25,283.46s29.04-144.7,81.78-197.43C138.77,33.3,208.88,4.25,283.46,4.25s144.7,29.04,197.43,81.78c52.74,52.74,81.78,122.85,81.78,197.43s-29.04,144.7-81.78,197.43c-52.74,52.74-122.85,81.78-197.43,81.78Zm0-549.48C134.44,13.2,13.2,134.44,13.2,283.46s121.24,270.27,270.27,270.27,270.27-121.24,270.27-270.27S432.49,13.2,283.46,13.2Z"/><path class="cls-5" d="m283.46,496.48l-24.79,11.12c-8,3.59-16.67,4.95-25.36,4.03-36.1-3.82-52.35-4.39-88.71-17.49,35.9,3.03,75.94-1.37,126.18-21.9,1.4-.58,2.75-1.14,4.03-1.68,1.26-.6,2.46-1.17,3.56-1.7,2.57-1.25,4.13-2,5.1-2.48.97.47,2.53,1.23,5.1,2.48,1.1.53,2.3,1.1,3.56,1.7,1.28.53,2.63,1.1,4.03,1.68,50.23,20.53,90.28,24.93,126.18,21.9-37.24,13.42-53.4,13.69-91.38,17.77-6.88.74-13.85-.35-20.18-3.19l-27.3-12.24Z"/><path class="cls-5" d="m250.32,468.97c-21.82,11.43-41.16,16.77-65.78,20.29-12.69-2.42-32.04-8.4-53.27-18.46l-2.47-1.18c-.83-.38-1.61-.84-2.41-1.26-15.64-8.39-27.92-15.8-45.02-29.99,18.93,8.72,48.46,20.62,107.88,23.15,9.69.37,20.8.36,30.36-.93,5.2,1.79,15.32,5.58,30.7,8.37Z"/><path class="cls-5" d="m316.61,468.97c21.82,11.43,41.16,16.77,65.78,20.29,12.69-2.42,32.04-8.4,53.27-18.46l2.47-1.18c.83-.38,1.61-.84,2.41-1.26,15.64-8.39,27.92-15.8,45.02-29.99-18.93,8.72-48.46,20.62-107.88,23.15-9.69.37-20.8.36-30.36-.93-5.2,1.79-15.32,5.58-30.7,8.37Z"/><path class="cls-5" d="m187.64,445.5s-.99.12-2.73.32c-.43.05-.92.11-1.45.16-.52.04-1.08.08-1.68.12-1.22.08-2.59.17-4.08.27-1.52.08-3.18.17-4.92.26-.89.06-1.77.05-2.69.06-.92,0-1.86,0-2.82,0-16.88-.03-32.87-2.09-46.49-5.52-31.81-21.09-56.85-45.75-78.24-82.28,32.41,32.19,78.83,56.44,118.95,67.94,1.08.96-.55-.4,7.92,6.41,1.53,1.11,3.16,2.29,4.78,3.46.81.59,1.63,1.18,2.43,1.77.8.59,1.64,1.08,2.42,1.61,1.58,1.03,3.05,1.99,4.31,2.82.63.41,1.2.8,1.72,1.12.53.31.99.58,1.37.8.76.44,1.19.7,1.19.7Z"/><path class="cls-5" d="m379.29,445.5s.99.12,2.73.32c.43.05.92.11,1.45.16.52.04,1.08.08,1.68.12,1.22.08,2.59.17,4.08.27,1.52.08,3.18.17,4.92.26.89.06,1.77.05,2.69.06.92,0,1.86,0,2.82,0,16.88-.03,32.87-2.09,46.49-5.52,31.81-21.09,56.85-45.75,78.24-82.28-32.41,32.19-78.83,56.44-118.95,67.94-1.08.96.55-.4-7.92,6.41-1.53,1.11-3.16,2.29-4.78,3.46-.81.59-1.63,1.18-2.43,1.77-.8.59-1.64,1.08-2.42,1.61-1.58,1.03-3.05,1.99-4.31,2.82-.63.41-1.2.8-1.72,1.12-.53.31-.99.58-1.37.8-.76.44-1.19.7-1.19.7Z"/><path class="cls-5" d="m136.44,401.55c-18.38-4.45-40.89-14.38-59.57-27.1-21.75-29.46-37.64-62.89-44.69-102.65,20.98,44.95,64.68,87.47,85.89,103,4.33,7.7,12.4,19.75,18.37,26.75Z"/><path class="cls-5" d="m430.49,401.55c18.38-4.45,40.89-14.38,59.57-27.1,21.75-29.46,37.64-62.89,44.69-102.65-20.98,44.95-64.68,87.47-85.89,103-4.33,7.7-12.4,19.75-18.37,26.75Z"/><path class="cls-5" d="m102.96,342.42c-16.44-12.11-31.7-26.24-45.21-45.45-11.47-39.87-12.89-78.18-7.22-109.86,3.43,39.62,27.46,98.08,44.14,123.7,2.74,15.71,6.42,25.97,8.28,31.61Z"/><path class="cls-5" d="m463.97,342.42c16.44-12.11,31.7-26.24,45.21-45.45,11.47-39.87,12.89-78.18,7.22-109.86-3.43,39.62-27.46,98.08-44.14,123.7-2.74,15.71-6.42,25.97-8.28,31.61Z"/><path class="cls-5" d="m91.34,275.11c-12.38-19.33-18.74-32.8-26.13-57.16.89-29.01,11.08-70.14,29.94-103.49-9.85,37.22-7.56,97.62-1.05,127.88-2.13,12.04-2.49,22.46-2.76,32.76Z"/><path class="cls-5" d="m475.59,275.11c12.38-19.33,18.74-32.8,26.13-57.16-.89-29.01-11.08-70.14-29.94-103.49,9.85,37.22,7.56,97.62,1.05,127.88,2.13,12.04,2.49,22.46,2.76,32.76Z"/><path class="cls-5" d="m102.84,207.71c-3.88-13.76-6.66-44.94-4.56-61.12,5.96-13.16,22.66-51.47,61.84-84.81-19.26,28.07-38.71,82.13-43.65,116.07-7.28,12.88-13.15,27.99-13.63,29.86Z"/><path class="cls-5" d="m464.09,207.71c3.88-13.76,6.66-44.94,4.56-61.12-5.96-13.16-22.66-51.47-61.84-84.81,19.26,28.07,38.71,82.13,43.65,116.07,7.28,12.88,13.15,27.99,13.63,29.86Z"/><path class="cls-5" d="m136.33,148.37c3.22-22.88,9.72-43.39,16.32-57.23,26.92-27.71,56.67-46.4,85.06-56.63-27.59,19.41-65.46,66.08-78.51,90.39-9.94,8.77-14.39,13.5-22.87,23.47Z"/><path class="cls-5" d="m430.6,148.37c-3.22-22.88-9.72-43.39-16.32-57.23-26.92-27.71-56.67-46.4-85.06-56.63,27.59,19.41,65.46,66.08,78.5,90.39,9.94,8.77,14.39,13.5,22.87,23.47Z"/><path class="cls-5" d="m187.69,104.1c11.05-6.49,17.62-9.47,29.37-14.2,8.66-7.65,37.09-37.86,66.4-52.54-16.51,3.71-45.67,12.79-61.74,20.4-13.46,13.48-24.7,28.78-34.03,46.33Z"/><path class="cls-5" d="m379.24,104.1c-11.05-6.49-17.62-9.47-29.37-14.2-8.66-7.65-37.09-37.86-66.4-52.54,16.51,3.71,45.67,12.79,61.74,20.4,13.46,13.48,24.7,28.78,34.03,46.33Z"/><path class="cls-5" d="m283.46,77.21c-.07.02-.13.05-.2.07-12.15.32-20.29.85-32.51,3.09,10.08-8.84,22.45-17.2,32.71-23.12,10.26,5.92,22.63,14.27,32.71,23.12-12.22-2.23-20.36-2.77-32.51-3.09-.07-.02-.13-.05-.2-.07Z"/><polygon class="cls-4" points="281.83 282.21 282.34 282.09 281.41 281.86 281.83 282.21"/><polygon class="cls-4" points="281.83 282.21 282.4 282.67 282.94 282.23 282.34 282.09 281.83 282.21"/><polygon class="cls-3" points="283.35 281.85 283.53 281.46 283.53 12.66 283.46 12.49 226.06 160.75 224.94 160.4 283.01 281.93 283.35 281.85"/><polygon class="cls-4" points="224.94 160.4 76.59 114.07 77.23 115.21 281.41 281.86 282.34 282.09 283.01 281.93 224.94 160.4"/><polygon class="cls-4" points="283.31 281.93 283.35 281.85 283.01 281.93 283.09 282.11 283.31 281.93"/><polygon class="cls-4" points="283.01 281.93 282.34 282.09 282.94 282.23 283.09 282.11 283.01 281.93"/><polygon class="cls-4" points="283.53 281.75 283.53 281.46 283.35 281.85 283.43 281.83 283.53 281.75"/><polygon class="cls-4" points="283.35 281.85 283.31 281.93 283.43 281.83 283.35 281.85"/><polygon class="cls-3" points="153.95 251.32 281.41 281.86 77.23 115.21 153.95 251.32"/><polygon class="cls-3" points="25.61 342.24 25.5 342.32 179.21 366.26 282.4 282.67 281.83 282.21 25.61 342.24"/><polygon class="cls-4" points="153.95 251.32 154.48 252.27 25.61 342.24 281.83 282.21 281.41 281.86 153.95 251.32"/><polygon class="cls-4" points="283.31 281.93 283.09 282.11 283.16 282.25 283.31 281.93"/><polygon class="cls-4" points="283.09 282.11 282.94 282.23 283.15 282.28 283.16 282.25 283.09 282.11"/><polygon class="cls-4" points="283.53 281.75 283.43 281.83 283.53 281.81 283.53 281.75"/><polygon class="cls-4" points="283.53 282.37 283.53 281.81 283.43 281.83 283.31 281.93 283.16 282.25 283.18 282.29 283.53 282.37"/><polygon class="cls-4" points="283.18 282.29 283.16 282.25 283.15 282.28 283.18 282.29"/><polygon class="cls-4" points="282.4 282.67 282.81 283.01 283.15 282.28 282.94 282.23 282.4 282.67"/><polygon class="cls-4" points="283.18 282.29 283.15 282.28 282.81 283.01 283.53 283.6 283.53 283.03 283.18 282.29"/><polygon class="cls-4" points="283.53 282.37 283.18 282.29 283.53 283.03 283.53 282.37"/><polygon class="cls-4" points="179.21 366.26 180.03 366.39 168.66 525.36 169.58 524.49 282.81 283.01 282.4 282.67 179.21 366.26"/><polygon class="cls-3" points="169.58 524.49 283.46 417.18 283.53 417.25 283.53 283.6 282.81 283.01 169.58 524.49"/><polygon class="cls-3" points="387.02 368.07 283.98 283.96 398.09 522.78 387.02 368.07"/><polygon class="cls-4" points="283.98 283.96 283.53 283.6 283.53 417.25 398.27 525.36 398.09 522.78 283.98 283.96"/><polygon class="cls-4" points="283.53 12.66 283.53 281.46 340.53 159.89 283.53 12.66"/><polygon class="cls-3" points="490.34 114.07 340.87 160.75 340.53 159.89 283.53 281.46 283.53 281.51 490.3 114.13 490.34 114.07"/><polygon class="cls-4" points="283.53 281.51 283.53 281.75 490.09 114.42 283.53 281.75 283.53 281.81 412.88 251.5 490.3 114.13 283.53 281.51"/><polygon class="cls-3" points="412.45 252.27 412.88 251.5 283.53 281.81 283.53 282.37 536.76 343.05 541.43 342.32 412.45 252.27"/><polygon class="cls-4" points="283.53 283.6 283.98 283.96 283.53 283.03 283.53 283.6"/><polygon class="cls-4" points="386.9 366.39 536.76 343.05 283.53 282.37 283.53 283.03 283.98 283.96 387.02 368.07 386.9 366.39"/><ellipse class="cls-2" cx="281.48" cy="273.52" rx="178.9" ry="176.04"/><path class="cls-4" d="m281.48,103.36c-93.98,0-170.16,76.18-170.16,170.16s76.18,170.16,170.16,170.16,170.16-76.18,170.16-170.16-76.18-170.16-170.16-170.16Zm0,294.26c-69.65,0-126.12-55.56-126.12-124.1s56.46-124.1,126.12-124.1,126.12,55.56,126.12,124.1-56.46,124.1-126.12,124.1Z"/><path class="cls-4" d="m281.48,455.03c-48.48,0-94.06-18.88-128.34-53.16-34.28-34.28-53.16-79.86-53.16-128.34s18.88-94.06,53.16-128.34c34.28-34.28,79.86-53.16,128.34-53.16s94.06,18.88,128.34,53.16c34.28,34.28,53.16,79.86,53.16,128.34s-18.88,94.06-53.16,128.34c-34.28,34.28-79.86,53.16-128.34,53.16Zm0-358.89c-97.81,0-177.38,79.57-177.38,177.38s79.57,177.38,177.38,177.38,177.38-79.57,177.38-177.38-79.57-177.38-177.38-177.38Z"/><path class="cls-4" d="m349.11,331.28h-32.79l-55.15-74.19-10.84,12.09v62.1h-26.12v-155.18h26.12v68.49l43.21-51.4c5-6.02,10.4-10.42,16.19-13.2,5.79-2.78,11.55-4.17,17.3-4.17,2.41,0,5,.05,7.78.14,2.78.09,4.45.14,5,.14v22.78h-1.53c-1.39-.18-2.83-.28-4.31-.28h-3.33c-.46,0-1.34.05-2.64.14-1.3.09-3.01.42-5.14.97-2.04.65-4.19,1.76-6.46,3.33-2.27,1.58-4.24,3.29-5.9,5.14l-29.45,34.18,68.08,88.91Z"/><path class="cls-4" d="m355.15,334.26h-40.33l-53.87-72.46-7.64,8.52v63.94h-32.08v-161.15h32.08v63.29l37.94-45.14c5.25-6.31,11.03-11.02,17.18-13.97,6.17-2.96,12.42-4.46,18.59-4.46,2.39,0,5.04.05,7.88.14,3.56.12,4.6.14,4.9.14h2.98v28.75l-4.9-.03c-1.26-.17-2.57-.25-3.91-.25h-3.33c-.26,0-.89.02-2.43.13-1.1.08-2.62.37-4.52.86-1.73.56-3.61,1.54-5.59,2.92-2.07,1.44-3.88,3.01-5.39,4.69l-27.83,32.29,70.27,91.79Zm-37.33-5.96h25.25l-65.88-86.04,31.04-36.01c1.86-2.06,4.02-3.95,6.46-5.64,2.5-1.74,4.94-2.99,7.26-3.73l.15-.04c2.32-.61,4.18-.95,5.68-1.06,1.44-.1,2.32-.15,2.86-.15h3.33c.96,0,1.92.04,2.85.11v-16.72c-.62-.02-1.33-.04-2.12-.07-2.77-.09-5.36-.14-7.68-.14-5.27,0-10.65,1.3-16.01,3.87-5.37,2.58-10.48,6.76-15.18,12.42l-48.48,57.68v-73.69h-20.15v149.22h20.15v-60.26l14.03-15.65,56.44,75.91Z"/><path class="cls-5" d="m116,357.14s144.45-23.16,330.95,0l-14.63,86.55s-116.41-23.77-302.3,0c.61.61-14.02-86.55-14.02-86.55Z"/><path class="cls-4" d="m278.26,346.85c49.03,0,106.52,2.57,168.69,10.29l-14.63,86.55s-51.75-10.56-141.31-10.56c-44.79,0-99.02,2.64-160.98,10.56.37-.72-14.03-86.55-14.03-86.55,0,0,64.21-10.29,162.26-10.29m-148.24,96.84s0,0,0,0c0,0,0,0,0,0m148.23-101.81c-97.32,0-162.4,10.25-163.04,10.36-1.31.21-2.48.93-3.25,2.01-.77,1.08-1.08,2.42-.86,3.72,5.37,31.99,13.4,80.49,13.95,85.62-.03,1.33.48,2.65,1.45,3.62.93.93,2.2,1.46,3.52,1.46.28,0,.55-.02.82-.07,54.54-6.97,108.43-10.5,160.17-10.5,87.92,0,139.8,10.36,140.32,10.46.33.07.66.1.99.1,1,0,1.98-.3,2.81-.87,1.11-.76,1.87-1.94,2.09-3.27l14.63-86.55c.23-1.34-.1-2.71-.91-3.8-.81-1.09-2.03-1.8-3.37-1.96-55.2-6.86-112.17-10.33-169.3-10.33h0Z"/><path class="cls-4" d="m205.83,420.12c-6.56.63-9.83.99-16.38,1.77-6.87-7.58-10.39-11.34-17.59-18.75-.89,1.55-1.33,2.32-2.21,3.87.99,6.87,1.49,10.3,2.48,17.17-5.4.78-8.1,1.2-13.5,2.09-2.77-16.89-5.53-33.79-8.28-50.68,5.78-.95,8.67-1.4,14.47-2.24,1.29,9.03,1.94,13.54,3.24,22.57,4.89-8.44,9.97-16.79,15.21-25.01,6.72-.81,10.08-1.17,16.81-1.83-6.09,8.5-12,17.17-17.69,25.95,7.95,8.26,15.74,16.6,23.43,25.09Z"/><path class="cls-4" d="m204.42,420.26c4.52-17.7,9.37-35.27,14.57-52.79,6.35-.46,9.53-.66,15.88-.99,7.28,16.74,14.23,33.58,20.89,50.58-5.6.15-8.39.25-13.99.5-1.54-4.13-2.32-6.19-3.9-10.31-6.9.35-10.35.56-17.24,1.08-1.06,4.28-1.58,6.43-2.6,10.72-5.44.43-8.16.67-13.6,1.21Zm29.92-22.14c-2.64-6.64-3.98-9.95-6.71-16.57-1.91,6.91-2.83,10.36-4.63,17.28,4.54-.32,6.81-.46,11.35-.71Z"/><path class="cls-4" d="m304.19,382.28c-.1,2.39-.61,4.65-1.52,6.78-.91,2.13-2.17,3.89-3.77,5.28-.98.86-2.05,1.66-3.2,2.38-1.16.73-2.42,1.34-3.8,1.83-1.38.5-2.87.88-4.48,1.15s-3.4.39-5.38.37c-2.92-.03-4.37-.04-7.29-.04,0,6.72,0,10.08-.01,16.8-5.44,0-8.15.02-13.59.12-.31-17.12-.62-34.23-.91-51.35,9.01-.17,13.51-.18,22.52-.08,3.35.04,6.23.36,8.65.96,2.41.59,4.58,1.51,6.51,2.74,2.12,1.36,3.74,3.13,4.84,5.33,1.1,2.19,1.58,4.77,1.46,7.74Zm-14.64-.13c.03-1.45-.32-2.7-1.07-3.76-.74-1.06-1.67-1.79-2.72-2.2-1.34-.53-2.65-.87-3.89-.96-1.24-.09-2.93-.15-5.06-.15-.82,0-1.22,0-2.04,0-.01,6.15-.02,9.23-.02,15.38.39,0,.59,0,.98,0,1.33,0,2.59,0,3.77-.02,1.18-.01,2.21-.09,3.09-.21.75-.11,1.56-.32,2.4-.64.85-.32,1.5-.68,1.96-1.09.97-.83,1.64-1.71,2-2.62.36-.91.56-2.15.59-3.71Z"/><path class="cls-4" d="m355.35,386.08c-.26,2.38-.93,4.6-1.99,6.65-1.06,2.06-2.43,3.73-4.12,5.01-1.04.8-2.16,1.51-3.36,2.16-1.2.64-2.51,1.17-3.92,1.57-1.41.4-2.92.68-4.54.84-1.62.16-3.42.16-5.39,0-2.91-.23-4.36-.34-7.27-.54-.47,6.7-.7,10.05-1.16,16.76-5.42-.38-8.13-.54-13.56-.81.86-17.1,1.73-34.19,2.61-51.29,8.99.45,13.49.74,22.46,1.46,3.34.27,6.19.79,8.56,1.55,2.36.76,4.47,1.82,6.31,3.18,2.03,1.5,3.52,3.38,4.46,5.64.94,2.26,1.25,4.87.92,7.82Zm-14.6-1.14c.13-1.44-.14-2.72-.81-3.83-.67-1.11-1.55-1.9-2.57-2.38-1.3-.62-2.58-1.05-3.81-1.23-1.23-.18-2.91-.35-5.03-.5-.81-.06-1.22-.09-2.03-.14-.43,6.14-.65,9.21-1.08,15.35.39.03.59.04.98.07,1.33.09,2.58.17,3.76.24,1.18.07,2.21.06,3.1,0,.76-.06,1.58-.21,2.44-.47.87-.26,1.54-.58,2.03-.95,1.03-.77,1.75-1.59,2.17-2.48.42-.89.7-2.11.84-3.67Z"/><path class="cls-4" d="m352.97,421.18c8.08-16.38,16.45-32.57,25.16-48.63,6.3.86,9.45,1.33,15.74,2.33,3.65,17.89,6.97,35.8,9.97,53.81-5.51-1.02-8.27-1.5-13.8-2.41-.65-4.36-.99-6.54-1.69-10.9-6.82-1.09-10.24-1.59-17.09-2.52-1.92,3.97-2.88,5.96-4.76,9.94-5.41-.71-8.11-1.03-13.53-1.63Zm33.82-15.47c-1.2-7.04-1.83-10.56-3.13-17.6-3.3,6.36-4.92,9.55-8.11,15.95,4.5.63,6.75.96,11.24,1.66Z"/><text class="cls-1" transform="translate(165.73 209.28) rotate(-55.45)"><tspan x="0" y="0">B</tspan></text><text class="cls-1" transform="translate(179.96 188.23) rotate(-44.31)"><tspan x="0" y="0">U</tspan></text><text class="cls-1" transform="translate(199.47 169.05) rotate(-32.79)"><tspan x="0" y="0">R</tspan></text><text class="cls-1" transform="translate(222.19 154.53) rotate(-22.23)"><tspan x="0" y="0">E</tspan></text><text class="cls-1" transform="translate(243.13 145.73) rotate(-11.96)"><tspan x="0" y="0">A</tspan></text><text class="cls-1" transform="translate(267.81 140.26) rotate(-.6)"><tspan x="0" y="0">U</tspan></text><text class="cls-1" transform="translate(295.44 140.53) rotate(7.76)"><tspan x="0" y="0"> </tspan></text><text class="cls-1" transform="translate(305.93 141.36) rotate(15.75)"><tspan x="0" y="0">A</tspan></text><text class="cls-1" transform="translate(330.31 148.26) rotate(26.31)"><tspan x="0" y="0">E</tspan></text><text class="cls-1" transform="translate(350.79 157.99) rotate(37.26)"><tspan x="0" y="0">G</tspan></text><text class="cls-1" transform="translate(372.64 175.04) rotate(47.28)"><tspan x="0" y="0">I</tspan></text><text class="cls-1" transform="translate(384.91 187.87) rotate(56.37)"><tspan x="0" y="0">S</tspan></text></svg>