<svg xmlns="http://www.w3.org/2000/svg" viewBox="0 0 566.93 566.93"><defs><style>.cls-1{fill:#fff;}.cls-2{fill:#cc1333;}.cls-3{fill:#feffff;}</style></defs><title>Karakuri Purojekuto</title><g id="Capa_2" data-name="Capa 2"><ellipse class="cls-1" cx="283.46" cy="283.46" rx="279.21" ry="277.77"/><ellipse class="cls-1" cx="283.46" cy="283.46" rx="279.21" ry="277.77"/><ellipse class="cls-1" cx="283.46" cy="283.46" rx="279.21" ry="277.77"/></g><g id="Capa_1" data-name="Capa 1"><path class="cls-2" d="M284,85.08c100.14.24,182.84,73.86,196.81,169.56h69C535.27,121.21,421.38,17,283.46,17S31.66,121.21,17.16,254.64H86.1C100,158.86,183.64,84.84,284,85.08Z"/><path class="cls-2" d="M283.46,550c138,0,252-104.37,266.34-237.94h-69c-13.93,96.33-97,170.07-197.53,169.84-100.68-.23-183-73.53-197-169.84H17.13C31.5,445.58,145.45,550,283.46,550Z"/><path class="cls-2" d="M553.84,312a267.82,267.82,0,0,1-78.13,162.71,272.87,272.87,0,0,1-384.49,0A267.77,267.77,0,0,1,13.09,312H4.25c14.37,140.8,133.9,250.67,279.21,250.67S548.3,452.81,562.68,312Z"/><path class="cls-2" d="M283.46,13A270.78,270.78,0,0,1,475.71,92.21a267.84,267.84,0,0,1,78.1,162.43h8.84C548.14,114,428.69,4.25,283.46,4.25S18.78,114,4.28,254.64h8.84A267.84,267.84,0,0,1,91.22,92.21,270.78,270.78,0,0,1,283.46,13Z"/><path class="cls-3" d="M283.46,553.94a270.78,270.78,0,0,0,192.25-79.22A267.82,267.82,0,0,0,553.84,312h-4C535.43,445.58,421.48,550,283.46,550S31.5,445.58,17.13,312h-4A267.77,267.77,0,0,0,91.22,474.72,270.78,270.78,0,0,0,283.46,553.94Z"/><path class="cls-3" d="M283.46,17c137.92,0,251.81,104.23,266.31,237.66h4a267.84,267.84,0,0,0-78.1-162.43,272.87,272.87,0,0,0-384.49,0,267.84,267.84,0,0,0-78.1,162.43h4C31.66,121.21,145.55,17,283.46,17Z"/><path class="cls-1" d="M76.41,152.86a7.75,7.75,0,0,1,5.15-3.64,14.61,14.61,0,0,1,6.35.1,19.52,19.52,0,0,1,10.46,6.57,13.78,13.78,0,0,1,2.81,5.66,8.44,8.44,0,0,1-1,6.32l-2.72,4.28-5.76-3.63,1.79-2.82a4.75,4.75,0,0,0,.62-3.48,7.46,7.46,0,0,0-1.42-3A9.6,9.6,0,0,0,90.33,157a8.89,8.89,0,0,0-3-1.19,7.73,7.73,0,0,0-3.41.1,4,4,0,0,0-2.64,2l-2,3.12,5.67,3.58a24.55,24.55,0,0,1,5.22,4.48A13.39,13.39,0,0,1,93,175q.72,3.27-2.82,8.65L84.45,180c1.26-2.12,1.7-3.71,1.3-4.78a7.16,7.16,0,0,0-1.93-2.8,21.65,21.65,0,0,0-3.08-2.3l-5.16-3.26L72,172.4l-5.76-3.63,3.54-5.56-2.41-1.51,3.68-5.78,2.41,1.52ZM84,139.11l11.83,1.46-4,6.33-11.83-1.46Z"/><path class="cls-1" d="M108.81,143.2l15.9-16.95a3.25,3.25,0,0,0,.76-1.47,2.85,2.85,0,0,0,0-1.31,2.09,2.09,0,0,0-.57-1,2,2,0,0,0-1-.5,3,3,0,0,0-1.31.06,3.25,3.25,0,0,0-1.43.86l-9.59,10.21a10.94,10.94,0,0,1-5.22,3.15,9,9,0,0,1-4.84,0,9.33,9.33,0,0,1-3.65-2.07l-6.48-6,4.72-5,6.48,6,0,0a2.47,2.47,0,0,0,.94.46,2.56,2.56,0,0,0,1.4,0,3.22,3.22,0,0,0,1.43-.85l9.58-10.22a10.71,10.71,0,0,1,5.19-3.19,9.38,9.38,0,0,1,4.86,0,9.13,9.13,0,0,1,3.67,2,8.74,8.74,0,0,1,2.23,3.46,9.54,9.54,0,0,1,.34,4.82,10.67,10.67,0,0,1-2.78,5.38l-.21.22a3.48,3.48,0,0,1-.38.48l-15.07,16.06Zm3.38-37.29,5,4.63-12.85,13.69-5-4.63Z"/><path class="cls-1" d="M137.84,111.31a6.94,6.94,0,0,1-6.61-2.8,6.73,6.73,0,0,1-.74-7,56.72,56.72,0,0,1,5.4-9.26l12-16.4,4.38,5.84-10,13.13c-.94,1.29-1.82,2.52-2.64,3.67a23.32,23.32,0,0,0-2.08,3.5c-.68,1.06-.91,1.86-.67,2.4.47.41,1.34.47,2.59.19a35.15,35.15,0,0,0,3.9-1.1c1.35-.45,2.78-1,4.29-1.48l15.6-5.71,4.38,5.84-19.29,6.63A65.44,65.44,0,0,1,137.84,111.31Z"/><path class="cls-1" d="M178.55,82.16q-5.61,3.21-8.88,2.77a6.68,6.68,0,0,1-5.08-3.55l-5.4-10.67,5.91-3,4.53,9A3.13,3.13,0,0,0,171,78.18c.58.3,2.14-.25,4.67-1.63ZM186.4,56.8l7,13.79a24.44,24.44,0,0,1,2.15,6.52,12.44,12.44,0,0,1-.54,6.31,8.86,8.86,0,0,1-4.16,4.77l-7.45,3.74-3.07-6.06,5.91-3a4.52,4.52,0,0,0,2.2-2.75,6.22,6.22,0,0,0,0-3.5A19.06,19.06,0,0,0,187,73.12l-6.71-13.25Z"/><path class="cls-1" d="M247.49,65.16l-3.65,4.67A107,107,0,0,0,235,63.65l3.35-4.36-4.2.81-.37-1.94-1.74.93c-.78.41-1.37.7-1.75.88l3.45,17.69-6.35,1.23-3.14-16.16Q221.5,64,217,65.67l-1.68-5.45c3-1.09,5.56-2.12,7.79-3.1l-2-10.39-2,.38c.19,3.43.24,6.52.15,9.25l-5.2-.34a135.73,135.73,0,0,0-1.2-19.16L218,36.2c.46,3.41.7,5.17.72,5.27l1.34-.26-1.46-7.5,6.35-1.23L226.36,40l4.35-.84,1.07,5.52-4.35.84,1.72,8.79c.95-.45,2.39-1.2,4.33-2.22l.69,2.44L251,51.28l-.76-3.92L232.3,50.81l-1.05-5.42,10.84-2.09-.89-4.57-9.34,1.8-1-5.22,9.34-1.8-1-4.87,6.75-1.3,1,4.87,9.49-1.83,1,5.21-9.49,1.84.89,4.57L260,39.84l1.06,5.42-4.3.83.77,3.92,4.3-.83,1,5.37-4.3.83,1.62,8.3q.41,2.08.57,3.3a9.17,9.17,0,0,1,0,2.34,4,4,0,0,1-.48,1.66A3.48,3.48,0,0,1,259,72.06a8.42,8.42,0,0,1-2.1.82q-1.14.27-3.18.66c-1,.19-3.05.5-6.25.95l-1.35-5.36q4.25-.55,5.34-.77a5.18,5.18,0,0,0,2.29-.75c.19-.25.17-1-.08-2.26L252,56.65l-12.94,2.5A92.26,92.26,0,0,1,247.49,65.16Z"/><path class="cls-1" d="M284.4,65.6a1.18,1.18,0,0,0,1.15-.64,10.8,10.8,0,0,0,.69-3.21q.3-2.55.51-7.71l-6.36-.25q-2.08,11.42-8.86,17.89l-3.86-5.27q6.57-6.48,7.6-22.2L270.74,44l.69-17.4,22.73.89-.69,17.4-12-.47c-.08,1.31-.18,2.56-.3,3.74l12.11.47q-.45,11.09-1.11,15.82t-1.8,6c-.74.85-2,1.24-3.76,1.17q-3.3-.14-7.82-.56l-.07-5.93Q281.91,65.5,284.4,65.6Zm3.22-25.87.28-7.08-10.32-.4-.28,7.08Zm8.93,21.48L297.82,29l6.2.24-1.27,32.17Zm12.64-33.75,6.56.25L314.3,64.44a41.25,41.25,0,0,1-.36,4.52,4.28,4.28,0,0,1-1.12,2.39,3.51,3.51,0,0,1-2.13,1.06,28.44,28.44,0,0,1-3.89,0q-1.07,0-7-.53l-.07-6q5.17.45,5.89.48,1.42.06,1.74-.24t.39-2Z"/><path class="cls-1" d="M327.35,41l24.88,6.19a5.61,5.61,0,0,1-.08-3.2,5.38,5.38,0,0,1,2.57-3.46,5.59,5.59,0,0,1,4.33-.62,5.66,5.66,0,0,1,1.55,10.31,7.29,7.29,0,0,1-1.2.58,2.93,2.93,0,0,1,0,1.66l-4.48,11.15a26.11,26.11,0,0,1-3.48,6.13A15.38,15.38,0,0,1,346.1,74a10.29,10.29,0,0,1-6.58.84l-11.85-2.95,1.65-6.58L340.38,68a5.18,5.18,0,0,0,3.64-.6,7.3,7.3,0,0,0,2.71-2.54,20.47,20.47,0,0,0,1.72-3.51L351,55.18c.3-.77.12-1.24-.53-1.44l-24.74-6.15Zm27.46,3.65A2.92,2.92,0,0,0,357,48.21a2.77,2.77,0,0,0,2.18-.34,2.85,2.85,0,0,0,1.35-1.81,2.94,2.94,0,0,0-2.11-3.49,2.85,2.85,0,0,0-2.24.33A2.75,2.75,0,0,0,354.81,44.65Z"/><path class="cls-1" d="M394.84,63.81a7.6,7.6,0,0,1,3.52,3.41,12.44,12.44,0,0,1,1.4,4.77,18,18,0,0,1-.26,5A19.68,19.68,0,0,1,398,81.7a21.07,21.07,0,0,1-3.71,5.52,14.91,14.91,0,0,1-5.5,3.74,8.54,8.54,0,0,1-6.51,0l-14.73-6.78a8.4,8.4,0,0,1-4.3-4.87,14.05,14.05,0,0,1-.66-6.61,22.83,22.83,0,0,1,1.88-6.39,21.67,21.67,0,0,1,3.69-5.52A14.84,14.84,0,0,1,373.61,57a8.33,8.33,0,0,1,6.5.06l.88.41,13,6ZM383.53,84a4.67,4.67,0,0,0,3.54,0,7.7,7.7,0,0,0,3-2,11.57,11.57,0,0,0,2-3,11,11,0,0,0,1-3.48,8.32,8.32,0,0,0-.37-3.6,4.5,4.5,0,0,0-2.29-2.67l-11.73-5.4a4.55,4.55,0,0,0-3.53,0,8.58,8.58,0,0,0-3,2,11.22,11.22,0,0,0-2,3,12,12,0,0,0-1,3.49,7.78,7.78,0,0,0,.38,3.61,4.58,4.58,0,0,0,2.32,2.65Z"/><path class="cls-1" d="M441.87,93.9l-10.66,11.15a26.49,26.49,0,0,1-5.5,4.42,15.47,15.47,0,0,1-6.48,2,10.25,10.25,0,0,1-6.44-1.63l-9.93-7.08,4-5.51,9.27,6.6a5.17,5.17,0,0,0,3.61.77,7.41,7.41,0,0,0,3.46-1.37,21.1,21.1,0,0,0,2.9-2.63l10.22-10.72ZM407.65,82.39l15.47,11-4,5.52-15.47-11Zm6.16-8.56,16.63,11.86-4,5.51L409.84,79.35Zm18.92,6.51a3.52,3.52,0,0,1,2.38-1.48,3.65,3.65,0,1,1-1.54,6.57,3.63,3.63,0,0,1-.84-5.09Zm7.11,5.07a3.67,3.67,0,0,1,5.12-.84,3.63,3.63,0,0,1,.84,5.09,3.66,3.66,0,0,1-5.11.84,3.62,3.62,0,0,1-.85-5.09Z"/><path class="cls-1" d="M431.51,117.62l7.14,7.08,9.27-9.25-7.14-7.08,3.85-3.84,18.16,18L459,126.38l-7.14-7.07-9.27,9.25,7.13,7.07-3.84,3.84-18.16-18Z"/><path class="cls-1" d="M481.12,135.71l12.68,17.43a3.41,3.41,0,0,1,.65,2.54,3.1,3.1,0,0,1-1.41,2.2l-10.64,5.66a26.87,26.87,0,0,1-6.63,2.46,15.39,15.39,0,0,1-6.79-.14,10.22,10.22,0,0,1-5.59-3.57l-4.29-5.91,5.52-4,3.82,5.25a5.2,5.2,0,0,0,3.18,1.86,7.34,7.34,0,0,0,3.71-.2,20.25,20.25,0,0,0,3.59-1.59l5.94-3.15c.72-.39.89-.87.52-1.44L477,141.58a24.18,24.18,0,0,1-4.19,1.32,15.39,15.39,0,0,1-6.79-.14,10.25,10.25,0,0,1-5.58-3.57l-2.21-3,5.53-4,1.73,2.38a5.15,5.15,0,0,0,3.18,1.86,7.35,7.35,0,0,0,3.71-.2,20.58,20.58,0,0,0,3.59-1.59l.21-.15a4,4,0,0,1,2.74-.28A3.88,3.88,0,0,1,481.12,135.71Z"/><path class="cls-1" d="M504.44,172.48,494,177.34l9.84,21-6.18,2.87-9.84-21-10.74,5-2.91-6.2,27.4-12.71Z"/><path class="cls-1" d="M65.08,355.91l-23.69,8.76-2-5.35,23.68-8.77Zm-4.95,6.57a41.85,41.85,0,0,1,6.31,5.84l7.43,8.09L68,378.59l-5.1-5.88c-.83-.93-1.64-1.8-2.41-2.61a16.65,16.65,0,0,0-2.4-2.11,2.4,2.4,0,0,0-2.11-.67,2.51,2.51,0,0,0-1.16,1.88,17.33,17.33,0,0,0-.43,3.16c0,1.11-.09,2.29-.11,3.54l.08,8.1-6,2.22.35-11.32a42.52,42.52,0,0,1,1-8.55,6.39,6.39,0,0,1,4.23-4.66A6.47,6.47,0,0,1,60.13,362.48Z"/><path class="cls-1" d="M65.25,396.15l4.21,7.8,2.25-2.46c.81-.94,1.57-1.85,2.27-2.72a16.91,16.91,0,0,0,1.78-2.66,2.39,2.39,0,0,0,.38-2.17,2.53,2.53,0,0,0-2.07-1,19.07,19.07,0,0,0-3.19,0c-1.12.1-2.3.22-3.54.37L54,395.31l-3-5.52,16.58-2a45.17,45.17,0,0,1,8.63-.19,6.79,6.79,0,0,1,5.33,9.81,42.51,42.51,0,0,1-5,7.05L65.74,417.08l-3.06-5.67,2.73-3-5.18-9.58Z"/><path class="cls-1" d="M72.26,426.38l-3.39-4.62,18.06-13.14a2.72,2.72,0,0,1,2.12-.45,2.91,2.91,0,0,1,1.84,1.18L92.12,411l3.09,4.2,6.21,8.44a2.43,2.43,0,0,1,.26.44l.15.2a9.08,9.08,0,0,1,1.8,4.73,8.09,8.09,0,0,1-.72,3.93,7.1,7.1,0,0,1-2.16,2.62,7.36,7.36,0,0,1-3.19,1.3,7.84,7.84,0,0,1-4-.51,9.3,9.3,0,0,1-4-3.15l-4.42-6a5.44,5.44,0,0,0-1.72,3,3.51,3.51,0,0,0,.71,2.68L91,442.16l-4.6,3.35-7.29-9.9a7.76,7.76,0,0,1-1.38-6,10.42,10.42,0,0,1,3-6q2.64-2.86,3-3.14a2.86,2.86,0,0,1,4,.61l6.63,9a2.81,2.81,0,0,0,1.08.86,2.34,2.34,0,0,0,1,.21,1.47,1.47,0,0,0,1.34-1,2.24,2.24,0,0,0,.12-1.06,3,3,0,0,0-.5-1.29l-6.81-9.26-2-2.73a1,1,0,0,0-1.55-.24Z"/><path class="cls-1" d="M104.78,451.41l6.18,6.36,1.49-3q.78-1.69,1.44-3.24a16.25,16.25,0,0,0,1-3,2.37,2.37,0,0,0-.23-2.19,2.51,2.51,0,0,0-2.25-.36,19.3,19.3,0,0,0-3,.9c-1,.41-2.15.85-3.31,1.33L93.7,453.65l-4.38-4.5,15.39-6.45a44.3,44.3,0,0,1,8.26-2.53,6.81,6.81,0,0,1,7.81,8,42.12,42.12,0,0,1-2.85,8.13l-7,15.11-4.49-4.62,1.8-3.62-7.6-7.82Z"/><path class="cls-1" d="M135.37,458.77l-15.61,19.77L115.24,475l15.61-19.77Zm-.77,8.17a43.58,43.58,0,0,1,8.45,1.7l10.58,3.05-3.89,4.93-7.44-2.37c-1.2-.36-2.34-.69-3.42-1a16.78,16.78,0,0,0-3.16-.55,2.4,2.4,0,0,0-2.15.52,2.46,2.46,0,0,0,0,2.2,16.9,16.9,0,0,0,1.29,2.93c.54,1,1.13,2,1.76,3.07l4.32,6.87-4,5-5.64-9.84a42.41,42.41,0,0,1-3.67-7.79,6.38,6.38,0,0,1,1.16-6.17A6.51,6.51,0,0,1,134.6,466.94Z"/><path class="cls-1" d="M154.43,503.74a19.15,19.15,0,0,1-3.51-2.63,17.87,17.87,0,0,1-2.79-3.35,11.76,11.76,0,0,1-1.64-4,6.2,6.2,0,0,1,.6-4.21L148,488l7.95-13.56,4.92,2.85-8.18,14a3.2,3.2,0,0,0-.24,2.38,7,7,0,0,0,1.07,2.21,11.86,11.86,0,0,0,1.63,1.84,12.13,12.13,0,0,0,4.23,2.45,11.13,11.13,0,0,0,2.41.51,7.31,7.31,0,0,0,2.46-.17,3.2,3.2,0,0,0,2-1.38l8.18-14,5,2.88-7.95,13.57-.9,1.53a6.15,6.15,0,0,1-3.4,2.58,12.12,12.12,0,0,1-4.34.55,18,18,0,0,1-4.3-.76A18.45,18.45,0,0,1,154.43,503.74Z"/><path class="cls-1" d="M179,515.39l-5.32-2.15,8.43-20.62a2.73,2.73,0,0,1,1.58-1.49,2.89,2.89,0,0,1,2.18,0l1.94.79,4.84,2,9.74,3.94a3.19,3.19,0,0,1,.45.23l.24.09a9.16,9.16,0,0,1,4,3.09,8,8,0,0,1,1.46,3.73,7,7,0,0,1-.46,3.35,7.21,7.21,0,0,1-2,2.77,7.84,7.84,0,0,1-3.66,1.65,9.34,9.34,0,0,1-5.07-.59l-6.93-2.81a5.35,5.35,0,0,0,.11,3.43,3.52,3.52,0,0,0,2,1.91l10.72,4.34-2.15,5.26-11.43-4.63a7.79,7.79,0,0,1-4.35-4.41,10.48,10.48,0,0,1-.63-6.66c.49-2.54.79-3.95.91-4.24a2.85,2.85,0,0,1,3.72-1.56l10.4,4.21a2.88,2.88,0,0,0,1.38.17,2.25,2.25,0,0,0,1-.37,1.45,1.45,0,0,0,.62-1.53,2.31,2.31,0,0,0-.45-1,2.9,2.9,0,0,0-1.11-.84l-10.68-4.32-3.15-1.28a1,1,0,0,0-1.44.61Z"/><path class="cls-1" d="M208.89,520.74l10.22,2.59,3.38-13.21-10.23-2.59,1.41-5.49,26,6.56-1.4,5.5-10.18-2.57-3.38,13.2,10.18,2.58-1.4,5.5-26-6.57Z"/><path class="cls-1" d="M260.57,536.61l-5.73-.31L256.08,514a2.72,2.72,0,0,1,1-1.92,2.93,2.93,0,0,1,2.08-.67l17.85,1a9.67,9.67,0,0,1,5.56,1.94,9.17,9.17,0,0,1,2.57,3.56,9.28,9.28,0,0,1,.63,3.89,9.71,9.71,0,0,1-1,3.88,8.82,8.82,0,0,1-3,3.25,7.55,7.55,0,0,1-5,1.19l-13.09-.72.32-5.66,13.34.73a1.8,1.8,0,0,0,1.36-.45,3.36,3.36,0,0,0,.86-1.19,3.82,3.82,0,0,0,.33-1.4,3.7,3.7,0,0,0-.18-1.38,3.26,3.26,0,0,0-.71-1.27,2,2,0,0,0-1.31-.65l-14.95-.82a1,1,0,0,0-1.17,1Z"/><path class="cls-1" d="M305.66,537.4a19,19,0,0,1-4.39-.14,18.57,18.57,0,0,1-4.22-1.15,11.78,11.78,0,0,1-3.66-2.34,6.2,6.2,0,0,1-1.95-3.78l-.15-1.77-1.35-15.65,5.68-.48,1.39,16.1a3.15,3.15,0,0,0,1.18,2.09,7.35,7.35,0,0,0,2.15,1.2,11.63,11.63,0,0,0,2.4.56,11.9,11.9,0,0,0,2.46,0,11.66,11.66,0,0,0,2.41-.46,11.38,11.38,0,0,0,2.27-1,7.28,7.28,0,0,0,1.92-1.54,3.26,3.26,0,0,0,.81-2.26l-1.39-16.11,5.72-.49,1.35,15.65.15,1.77a6.12,6.12,0,0,1-1.29,4.06,12.16,12.16,0,0,1-3.23,2.93,18.33,18.33,0,0,1-4,1.85A19.1,19.1,0,0,1,305.66,537.4Z"/><path class="cls-1" d="M332.51,532.86l-5.6,1.28-5-21.69a2.69,2.69,0,0,1,.43-2.12,2.89,2.89,0,0,1,1.81-1.22l2-.46,5.1-1.17,10.24-2.35a3,3,0,0,1,.51-.07l.25-.06a9.15,9.15,0,0,1,5.07.23,8,8,0,0,1,3.35,2.21,7,7,0,0,1,1.57,3,7.34,7.34,0,0,1-.06,3.42,7.74,7.74,0,0,1-2,3.44,9.32,9.32,0,0,1-4.48,2.42l-7.3,1.67a5.44,5.44,0,0,0,2.07,2.74,3.55,3.55,0,0,0,2.76.41L354.48,522l1.28,5.53-12,2.76a7.87,7.87,0,0,1-6.11-1.12,10.56,10.56,0,0,1-4.36-5.08c-1.07-2.37-1.64-3.7-1.71-4a2.69,2.69,0,0,1,.36-2.14,2.76,2.76,0,0,1,1.78-1.26l10.95-2.51a2.79,2.79,0,0,0,1.22-.65,2.14,2.14,0,0,0,.6-.87,1.44,1.44,0,0,0-.37-1.61,2.3,2.3,0,0,0-.93-.53,3,3,0,0,0-1.38-.05L332.54,513l-3.32.76a1,1,0,0,0-.83,1.32Z"/><path class="cls-1" d="M374.76,493.78a6.4,6.4,0,0,1,4.1-.15,10.56,10.56,0,0,1,3.71,1.91,15.11,15.11,0,0,1,2.86,3,17,17,0,0,1,2,3.67,17.63,17.63,0,0,1,1.21,5.42,12.39,12.39,0,0,1-.89,5.47A7.13,7.13,0,0,1,384,517l-13.81,5.42a7.07,7.07,0,0,1-5.44-.23,11.92,11.92,0,0,1-4.4-3.41,19,19,0,0,1-2.8-4.82,17.82,17.82,0,0,1-1.23-5.41,12.32,12.32,0,0,1,.87-5.48A6.94,6.94,0,0,1,361,499.2l.75-.29L374,494.08Zm5.78,18.48a3.87,3.87,0,0,0,2.06-2.11,6.51,6.51,0,0,0,.49-3,9.9,9.9,0,0,0-.68-3,9.29,9.29,0,0,0-1.55-2.6,7.17,7.17,0,0,0-2.41-1.85,3.79,3.79,0,0,0-2.94-.17L364.27,504a3.73,3.73,0,0,0-2,2.12,7.13,7.13,0,0,0-.49,3,9.29,9.29,0,0,0,.65,2.95,9.76,9.76,0,0,0,1.54,2.62,6.55,6.55,0,0,0,2.41,1.86,3.88,3.88,0,0,0,3,.13Z"/><path class="cls-1" d="M410.41,504.86a18.64,18.64,0,0,1-4,1.71,18.09,18.09,0,0,1-4.31.73,12,12,0,0,1-4.31-.59,6.24,6.24,0,0,1-3.37-2.62l-.89-1.54-1.42-2.46,4.95-2.82,1.65,2.87a3.18,3.18,0,0,0,2,1.39,7.51,7.51,0,0,0,2.45.19,11.83,11.83,0,0,0,2.42-.5,11.48,11.48,0,0,0,2.24-1,11.74,11.74,0,0,0,2-1.43,11,11,0,0,0,1.65-1.82,7.28,7.28,0,0,0,1.08-2.2,3.17,3.17,0,0,0-.22-2.39l-8.08-14,5-2.84L417,489.15l.89,1.54a6.17,6.17,0,0,1,.55,4.23,12.18,12.18,0,0,1-1.69,4,18.24,18.24,0,0,1-2.81,3.33A18.8,18.8,0,0,1,410.41,504.86Z"/><path class="cls-1" d="M419,468.49l1.56-1.18L434,457.13l3.47,4.5-13.79,10.49a3.7,3.7,0,0,0-1.38,2.6,7.09,7.09,0,0,0,.35,3,9.41,9.41,0,0,0,3.65,4.74,7,7,0,0,0,2.82,1.13A3.81,3.81,0,0,0,432,483l13.79-10.49,3.46,4.51-14.3,10.87-.64.49A7,7,0,0,1,429,489.5a12.63,12.63,0,0,1-5.1-2.11,18.63,18.63,0,0,1-4-3.84,18.06,18.06,0,0,1-2.66-4.85,12.78,12.78,0,0,1-.71-5.46A6.85,6.85,0,0,1,419,468.49Zm24.06.78-13.86,10.54-3.46-4.51,13.86-10.54Z"/><path class="cls-1" d="M440.93,450.38l17.89,17.76-4.06,4-17.88-17.76Zm8.07,1.73a42.64,42.64,0,0,1,2.7-8.15L456,433.87l4.45,4.43-3.24,7.06q-.75,1.71-1.38,3.27a17.08,17.08,0,0,0-.93,3.05,2.33,2.33,0,0,0,.28,2.18,2.48,2.48,0,0,0,2.19.27,17.27,17.27,0,0,0,3.07-.93c1-.42,2.13-.88,3.28-1.38l7.36-3.45,4.55,4.52-10.49,4.41a42.79,42.79,0,0,1-8.21,2.7,6.81,6.81,0,0,1-7.92-7.89Z"/><path class="cls-1" d="M488.07,436.89a18.83,18.83,0,0,1-3,3.15,18.28,18.28,0,0,1-3.68,2.36,12.14,12.14,0,0,1-4.2,1.14,6.32,6.32,0,0,1-4.13-1.09l-1.43-1.07L459,431.92l3.43-4.53,13,9.74a3.21,3.21,0,0,0,2.35.52,7.36,7.36,0,0,0,2.34-.79,11.2,11.2,0,0,0,2-1.4,11.87,11.87,0,0,0,1.68-1.79,11.47,11.47,0,0,0,2.07-4.41,7.19,7.19,0,0,0,.12-2.45,3.21,3.21,0,0,0-1.14-2.11l-13-9.74,3.46-4.56,12.59,9.46,1.43,1.07a6.16,6.16,0,0,1,2.17,3.68,11.73,11.73,0,0,1,0,4.34,17.47,17.47,0,0,1-1.27,4.17A18.57,18.57,0,0,1,488.07,436.89Z"/><path class="cls-1" d="M477.69,407.16,492,381.46l5,2.74-5.74,10.33,17,9.37-2.78,5-17-9.37-5.77,10.37Z"/><path class="cls-1" d="M501.62,356.64a6.36,6.36,0,0,1,2.62-3.14,10.61,10.61,0,0,1,3.91-1.46,15.34,15.34,0,0,1,4.17-.11,17.53,17.53,0,0,1,4.09,1,17.94,17.94,0,0,1,4.86,2.73,12.26,12.26,0,0,1,3.49,4.32,7.06,7.06,0,0,1,.38,5.4L520,379.19a7,7,0,0,1-3.81,3.88,11.92,11.92,0,0,1-5.49,1,19.13,19.13,0,0,1-5.47-1.15,18.05,18.05,0,0,1-4.87-2.71,12.38,12.38,0,0,1-3.52-4.3,6.93,6.93,0,0,1-.36-5.4l.28-.75,4.62-12.34Zm17.68,8.08a3.89,3.89,0,0,0-.2-2.94,6.54,6.54,0,0,0-1.91-2.36,10,10,0,0,0-2.67-1.48,9.39,9.39,0,0,0-3-.58,7.14,7.14,0,0,0-3,.53,3.78,3.78,0,0,0-2.09,2.08l-4.22,11.26a3.77,3.77,0,0,0,.22,2.93,7,7,0,0,0,1.91,2.35A9.37,9.37,0,0,0,507,378a9.83,9.83,0,0,0,3,.61,6.39,6.39,0,0,0,3-.54,3.87,3.87,0,0,0,2.08-2.09Z"/><path class="cls-2" d="M172,339.41,275.57,319.1c1.73-10.66,3.5-21.49,5.34-32.84l-77,8.81c-7.91-12.73-12.73-26.4-16.17-40.56A224.52,224.52,0,0,1,182,185.76c.39-5.75,3.88-9.68,6.26-14.25,4.44-8.53,9.32-16.83,14.09-25.17a18.29,18.29,0,0,1,2.5-2.88h156l33.33,58.82c-32.68-18.43-66.66-33.22-103.69-41.43l-34.13,99.4,25.92,21c10.37-23.8,20.53-47.13,30.82-70.77a122.62,122.62,0,0,1,30.6,3.16C369,219.15,392.23,229.6,414.32,243c6.47,3.91,8.56,10.46,12.12,16.1,4.59,7.26,8.41,15,12.64,22.68q-39,68.77-78.13,137.81H298.57c33.45-18.38,62.74-40.1,88.12-67.45L317.19,273l-31.26,11.8,46.17,62c-7.88,14.45-18.53,26.31-30.36,37.15A229.62,229.62,0,0,1,254.32,417a21.73,21.73,0,0,1-11,2.73c-13.09-.17-26.19-.06-39.22-.06L125.79,281.61l31.59-55.74C156.27,265.35,160.43,302.75,172,339.41Z"/></g></svg>