<svg xmlns="http://www.w3.org/2000/svg" viewBox="0 0 566.93 566.93"><defs><style>.cls-1{fill:#fff;}.cls-2{fill:none;}.cls-3{fill:#cc1333;}.cls-4{fill:#feffff;}</style></defs><title>Keisotsu Butai</title><g id="Capa_2" data-name="Capa 2"><ellipse class="cls-1" cx="283.46" cy="283.46" rx="279.21" ry="277.77"/><ellipse class="cls-1" cx="283.46" cy="283.46" rx="279.21" ry="277.77"/><ellipse class="cls-1" cx="283.46" cy="283.46" rx="279.21" ry="277.77"/></g><g id="Capa_1" data-name="Capa 1"><path class="cls-2" d="M296.85,269.7c11.44-3,20.87-8.05,28.2-15.06H241.36C256.18,268.7,277,274.92,296.85,269.7Z"/><path class="cls-2" d="M240.74,263.74c-23.15-8-44.34-3.23-62.17,13.71-9.83,9.35-14.74,21.35-16.1,34.56H280.28c0-.05,0-.1,0-.16C276.73,288.12,263.45,271.56,240.74,263.74Z"/><path class="cls-3" d="M313.23,150.34c-6.73-1.65-13.79-2-20.7-2.9-.06.39-.13.78-.19,1.16.79.31,1.57.66,2.38.92,33.27,11,54.82,33.75,66.23,66.19A66.86,66.86,0,0,1,363,254.64h55.75C405.29,198.84,369.68,164.14,313.23,150.34Z"/><path class="cls-3" d="M219.88,230.08c3.57-1,5-.35,6.55,3.18a65.27,65.27,0,0,0,14.93,21.38h83.69c8.53-8.15,14.21-19,16.86-32.34,4.81-24.22-4.33-43.63-24.07-57.89-15.36-11.1-32.55-18-51.94-16.47a116.44,116.44,0,0,0-55.77,19.4q-51.31,34-61.8,87.3h34.29A75,75,0,0,1,219.88,230.08Z"/><path class="cls-3" d="M283.78,89.16c98.13.31,179.08,72,193.07,165.48h72.92C535.27,121.21,421.38,17,283.46,17S31.66,121.21,17.16,254.64H90.29C104.39,160.67,185.67,88.86,283.78,89.16Z"/><path class="cls-3" d="M283.46,550c138,0,252-104.37,266.34-237.94H476.88C462.94,406,381.2,478.23,283,478c-97.9-.22-179-72.42-192.78-166H17.13C31.5,445.58,145.45,550,283.46,550Z"/><path class="cls-3" d="M333.32,378.17c27.88,6.39,67-14.6,78.66-42.56a139.68,139.68,0,0,0,7.54-23.6H287.58a58.73,58.73,0,0,0-.52,7.77A60,60,0,0,0,333.32,378.17Z"/><path class="cls-3" d="M158.9,332.39a102.94,102.94,0,0,1-.14-20.38H148.31a106.65,106.65,0,0,0,13.14,33.35C160.58,341,159.36,336.76,158.9,332.39Z"/><path class="cls-3" d="M162.32,313.48c-1.83,22.2,1.61,43.2,17.29,60.39,33.25,36.43,74.59,52.19,123.66,45.52,38.76-5.26,69.36-24.77,92.17-56.36.92-1.28,1.7-2.67,2.55-4-.93-.23-1.22-.14-1.45,0-.57.47-1.11,1-1.67,1.46q-45.19,38-101.5,20a60.76,60.76,0,0,1-28.07-18.95c.95-1.28,1.75-2.34,2.53-3.4C277.88,344.33,282.77,329,280.28,312H162.47C162.42,312.5,162.36,313,162.32,313.48Z"/><path class="cls-3" d="M553.84,312a267.82,267.82,0,0,1-78.13,162.71,272.87,272.87,0,0,1-384.49,0A267.77,267.77,0,0,1,13.09,312H4.25c14.37,140.8,133.9,250.67,279.21,250.67S548.3,452.81,562.68,312Z"/><path class="cls-3" d="M283.46,13A270.78,270.78,0,0,1,475.71,92.21a267.84,267.84,0,0,1,78.1,162.43h8.84C548.14,114,428.69,4.25,283.46,4.25S18.78,114,4.28,254.64h8.84A267.84,267.84,0,0,1,91.22,92.21,270.78,270.78,0,0,1,283.46,13Z"/><path class="cls-4" d="M283.46,553.94a270.78,270.78,0,0,0,192.25-79.22A267.82,267.82,0,0,0,553.84,312h-4C535.43,445.58,421.48,550,283.46,550S31.5,445.58,17.13,312h-4A267.77,267.77,0,0,0,91.22,474.72,270.78,270.78,0,0,0,283.46,553.94Z"/><path class="cls-4" d="M283.46,17c137.92,0,251.81,104.23,266.31,237.66h4a267.84,267.84,0,0,0-78.1-162.43,272.87,272.87,0,0,0-384.49,0,267.84,267.84,0,0,0-78.1,162.43h4C31.66,121.21,145.55,17,283.46,17Z"/><path class="cls-1" d="M216.52,75l8.28-3.27,2,5.09L202.6,86.33l-1.42-3.57L195.46,85l2,4.94-6.1,2.41-2-4.94-8.14,3.2-2-4.94,8.13-3.21-1.18-3-2.41.95-4.73,1.86L171.52,63.4l7.15-2.81-1.13-2.83L169.41,61l-1.95-4.89,8.13-3.21-1.46-3.67,6.11-2.41,1.46,3.67L189,47.59l2,4.9-7.28,2.87,1.12,2.82,6.82-2.68,3,7.62a36.82,36.82,0,0,0,6.08-6.31,38,38,0,0,1-8.47-4.51l2.91-3.81L191.36,50l-2.05-5.13,20.3-8,2,5.13a28.82,28.82,0,0,1-2.24,11.12,38.88,38.88,0,0,0,9,.69l-.12,5.76a43.75,43.75,0,0,1-11.95-1,54,54,0,0,1-8.2,9l-3.1-3.25,4.05,10.17-6.81,2.68,1.18,3,7.61-3,1.37,3.43,7.86-3.09L208,71.57l-7.09,2.8L199,69.47l7.09-2.79-1.55-3.91,6.2-2.44,1.55,3.9,7.52-3,1.95,4.89-7.52,3Zm-37.3-6,2.65-1L180.7,65l-2.65,1ZM182,76l2.65-1-1.24-3.1-2.65,1Zm5.49-10.28,2.46-1-1.17-2.92-2.45,1Zm1.55,3.91,1.24,3.11,2.46-1-1.24-3.11Zm14.7-17.94a22.64,22.64,0,0,0,1.94-7.35L196.33,48A33.11,33.11,0,0,0,203.75,51.68Z"/><path class="cls-1" d="M268.89,29l.8,5.41-9.11,1.33a27.13,27.13,0,0,1-1.17,5.38,83.12,83.12,0,0,1,12.69,6.91l-3.23,5.33a70.73,70.73,0,0,0-11.68-6.69A33.09,33.09,0,0,1,252.82,53l.5,3.41,19.94-2.9.82,5.56L254.14,62l1.75,11.87-6.95,1L247.19,63l-19.94,2.9-.82-5.56,19.95-2.9L245.87,54a74.45,74.45,0,0,0-8.32-4.83,36.36,36.36,0,0,1-7.5,9.84L226,54.55a25.85,25.85,0,0,0,8-14.93L224.37,41l-.79-5.41,19.18-2.79-.63-4.26,7-1,.63,4.26Zm-14.66,7.66-13.59,2a32.72,32.72,0,0,1-1,5.05,89.83,89.83,0,0,1,9.13,5.07A25,25,0,0,0,254.23,36.68Zm-2.13,16-3.37-3-2.37,3.82Z"/><path class="cls-1" d="M301.76,70.18,301.47,72l-6.59-1L298,51.35l22.47,3.48-3.07,19.66-6.29-1,.29-1.85Zm-5.38-22.25.86-5.5,5.13.79q-.33-4.09-.86-8.63L299,34.2l.84-5.36L309,30.26l.68-4.35,6.69,1-.68,4.36,9.5,1.47-.83,5.35L322,37.76a78.57,78.57,0,0,1-3.46,8l5,.77-.86,5.5Zm15.79,18.59,1.14-7.31-9.6-1.48L302.57,65Zm.46-21.71a66,66,0,0,0,3.46-8l-8.5-1.31c.39,3.23.64,6.11.76,8.62Zm25.9,6.27a16.39,16.39,0,0,1,3.25,6.21,16,16,0,0,1,.43,6.81c-.49,3.17-1.47,5.32-2.91,6.46s-3.52,1.51-6.2,1.09l-3.22-.5-.32-5.84,1.11.18c1.87.29,3.15.25,3.83-.13s1.12-1.26,1.34-2.66q.82-5.3-4.23-12.44A66.57,66.57,0,0,0,339.19,38L333.11,37,327,76l-6.38-1,6.91-44.17,19,2.94-.81,5.2A77.74,77.74,0,0,1,338.53,51.08Z"/><path class="cls-1" d="M370.09,89.54q-2.93-1.17-8.4-3.65l1.67-4.51a49.64,49.64,0,0,1-7.82,1.27l-.31-6q11.26-.59,19.16-4.74a17.7,17.7,0,0,0,.07-2.86,46.63,46.63,0,0,1-13.25,3.4q-2.74,3-7.7,1l-.85-.34.87-5.39.66.27a2.77,2.77,0,0,0,2.4.17,5.48,5.48,0,0,0,1.66-2.58,10.55,10.55,0,0,0,.84-4.17A20.56,20.56,0,0,0,358,56.16L347.86,81l-5.76-2.32L359,37.28l15.85,6.38-1.92,4.74a.22.22,0,0,0-.11.12.2.2,0,0,1-.1.12l4,1.61c0-1.79-.13-3.6-.28-5.4l6.32.52a73.1,73.1,0,0,1,.23,7.41l4.91,2a49.43,49.43,0,0,0,5.84-5.18l5,3.67a42,42,0,0,1-4.47,4.1l6.18,2.48-2,5-8.49-3.41c-.79,2.85-1.39,5.44-1.8,7.79,1.95-.82,3.76-1.69,5.46-2.61l1.67,5.48a54,54,0,0,1-7.82,3.68,36,36,0,0,0,1.64,13.66L383.87,94a42.09,42.09,0,0,1-2.46-15.82,70.32,70.32,0,0,1,3-19l-1.61-.64A26.64,26.64,0,0,1,379.48,60a33.78,33.78,0,0,1-1.09,22.66q-2.13,5.25-3.87,6.63T370.09,89.54ZM367.4,46.19l-4.62-1.86-4.29,10.56A58.42,58.42,0,0,0,367.4,46.19ZM373.87,64l-.54-2.45a55,55,0,0,1-7.79.8l-.44-5.53a45.39,45.39,0,0,0,10.62-1.14l-7-2.81a53.1,53.1,0,0,1-5,4.69,18.82,18.82,0,0,1,.38,8.79A38.07,38.07,0,0,0,373.87,64ZM373.2,78a43,43,0,0,1-8.94,3.22q3.18,1.5,5,2.24a1.3,1.3,0,0,0,1.45-.18,10.54,10.54,0,0,0,1.66-3.15Q372.95,78.74,373.2,78Z"/><path class="cls-1" d="M73.49,336.54,40,346.76l-2.33-7.58L71.16,329Zm-7.38,8.7a58.53,58.53,0,0,1,8.26,8.59L84,365.63l-8.35,2.55-6.59-8.56q-1.61-2-3.11-3.8a23.79,23.79,0,0,0-3.16-3.12,3.29,3.29,0,0,0-2.86-1.09,3.41,3.41,0,0,0-1.76,2.5,23,23,0,0,0-.85,4.34c-.17,1.54-.31,3.17-.44,4.89l-.55,11.22-8.52,2.6,1.41-15.66a58.34,58.34,0,0,1,2-11.76,8.89,8.89,0,0,1,6.23-6.1A9,9,0,0,1,66.11,345.24Z"/><path class="cls-1" d="M89.54,379.68l1.29,2.38,11.11,20.44-7,3.74L83.53,385.18a5.21,5.21,0,0,0-3.27-2.44,9.82,9.82,0,0,0-4.21-.17,13,13,0,0,0-4,1.37,13.33,13.33,0,0,0-3.33,2.56,9.9,9.9,0,0,0-2.17,3.6,5.21,5.21,0,0,0,.26,4.07l11.45,21.06-7,3.74L59.45,397.13l-.54-1a9.54,9.54,0,0,1-.46-7.45,17,17,0,0,1,4-6.5,25.66,25.66,0,0,1,6.14-4.61A25.25,25.25,0,0,1,75.87,375a17.85,17.85,0,0,1,7.66.22A9.56,9.56,0,0,1,89.54,379.68Zm-6.29,32.61L71.74,391.12l7-3.74,11.5,21.17Z"/><path class="cls-1" d="M83.66,423.11l9.27,11.26,14.7-12-9.27-11.26,6.12-5L128,434.77l-6.11,5-9.23-11.22L98,440.5l9.23,11.22-6.12,5L77.54,428.09Z"/><path class="cls-1" d="M155.81,468.37l-21.14-17.3a4.13,4.13,0,0,0-1.76-.79,3.24,3.24,0,0,0-1.48.09,2,2,0,0,0-1,.66,2.14,2.14,0,0,0-.46,1.1,3.12,3.12,0,0,0,.21,1.46,3.9,3.9,0,0,0,1.11,1.56l13,10.59a12.64,12.64,0,0,1,4,5.78,10.66,10.66,0,0,1,.34,5.59,10.54,10.54,0,0,1-2.12,4.38,10.35,10.35,0,0,1-3.89,2.86,11.17,11.17,0,0,1-5.59.75,11.78,11.78,0,0,1-6.38-2.9l-.28-.23a3.74,3.74,0,0,1-.58-.4L109.64,465.1l5-6.08,21.23,17.37a3.14,3.14,0,0,0,1.7.86,3.21,3.21,0,0,0,1.54-.15,2.63,2.63,0,0,0,1.08-.75,3,3,0,0,0,.45-1.11,2.9,2.9,0,0,0-.07-1.62,3.77,3.77,0,0,0-1.1-1.58l-12.94-10.59a12.83,12.83,0,0,1-4.07-5.75,10.7,10.7,0,0,1-.39-5.53,10.08,10.08,0,0,1,2-4.29,9.76,9.76,0,0,1,3.82-2.77,11.22,11.22,0,0,1,5.52-.68,12.66,12.66,0,0,1,6.44,2.84l.28.22a4.6,4.6,0,0,1,.58.4l20.05,16.4Z"/><path class="cls-1" d="M193.82,480.11a8.87,8.87,0,0,1,3.92,4.11,14.53,14.53,0,0,1,1.39,5.59,20.8,20.8,0,0,1-.53,5.73,23.52,23.52,0,0,1-2,5.45A24.62,24.62,0,0,1,192,507.2a17.14,17.14,0,0,1-6.54,4.08,10,10,0,0,1-7.55-.35l-18.32-9.34a9.75,9.75,0,0,1-4.74-5.85,16.19,16.19,0,0,1-.45-7.69,26,26,0,0,1,2.47-7.31,25.4,25.4,0,0,1,4.54-6.23,17.14,17.14,0,0,1,6.53-4.12,9.68,9.68,0,0,1,7.53.38l1,.51,16.33,8.33ZM179.76,503a5.41,5.41,0,0,0,4.1.21,9.1,9.1,0,0,0,3.58-2.23,13.88,13.88,0,0,0,2.49-3.42,13.14,13.14,0,0,0,1.29-4,9.75,9.75,0,0,0-.26-4.19,5.26,5.26,0,0,0-2.53-3.2l-14.91-7.6a5.25,5.25,0,0,0-4.09-.17,9.75,9.75,0,0,0-3.57,2.23,13,13,0,0,0-2.5,3.37,13.62,13.62,0,0,0-1.33,4,8.89,8.89,0,0,0,.26,4.19,5.36,5.36,0,0,0,2.56,3.19Z"/><path class="cls-1" d="M208.62,486.89l39.59,10.39-2,7.61-15.92-4.18-6.87,25.94-7.7-2,6.87-25.94-16-4.19Z"/><path class="cls-1" d="M290.73,507.77l-27.34-1.45a3.93,3.93,0,0,0-1.88.4,3.15,3.15,0,0,0-1.15.94,2.14,2.14,0,0,0-.41,1.12,2.07,2.07,0,0,0,.29,1.16,3.16,3.16,0,0,0,1,1.06,4,4,0,0,0,1.83.59l16.73.89a12.73,12.73,0,0,1,6.7,2.27,10.34,10.34,0,0,1,4.51,9.08,10.24,10.24,0,0,1-1.43,4.6,11.19,11.19,0,0,1-4.05,3.9,11.92,11.92,0,0,1-6.87,1.43l-.36,0a4.18,4.18,0,0,1-.71,0l-26-1.38.42-7.86L279.47,526a3.07,3.07,0,0,0,1.88-.31,3.19,3.19,0,0,0,1.14-1,2.57,2.57,0,0,0,.43-1.24,3,3,0,0,0-.3-1.16,3,3,0,0,0-1-1.26,3.83,3.83,0,0,0-1.83-.63L263,519.47a12.93,12.93,0,0,1-6.71-2.24,10.72,10.72,0,0,1-3.61-4.22,9.9,9.9,0,0,1-.9-4.66,9.65,9.65,0,0,1,1.42-4.48,11.13,11.13,0,0,1,4-3.81,12.71,12.71,0,0,1,6.88-1.52l.35,0a4.24,4.24,0,0,1,.71,0l25.93,1.37Z"/><path class="cls-1" d="M321,532.47a26.33,26.33,0,0,1-6.08.19,25.92,25.92,0,0,1-5.94-1.23,16.5,16.5,0,0,1-5.27-2.94,8.64,8.64,0,0,1-3-5.07l-.36-2.44-3.21-21.54,7.82-1.15,3.3,22.18a4.41,4.41,0,0,0,1.82,2.79,10,10,0,0,0,3.08,1.47,14.76,14.76,0,0,0,3.37.57,16.91,16.91,0,0,0,3.41-.14,17.37,17.37,0,0,0,3.3-.84,16.38,16.38,0,0,0,3.05-1.52,9.85,9.85,0,0,0,2.52-2.3,4.4,4.4,0,0,0,.93-3.19l-3.3-22.18,7.88-1.16,3.21,21.54.36,2.44a8.55,8.55,0,0,1-1.45,5.73,16.84,16.84,0,0,1-4.21,4.33A25.81,25.81,0,0,1,321,532.47Z"/><path class="cls-1" d="M400.46,488.54a11.1,11.1,0,0,1,3,3.85,10.21,10.21,0,0,1,.9,4.73,11.09,11.09,0,0,1-1.74,5.33,11.87,11.87,0,0,1-5.4,4.46l-.32.15a4.19,4.19,0,0,1-.62.34l-21.53,9.92a4,4,0,0,1-5.09-1.86l-11.35-24.39A3.89,3.89,0,0,1,360.2,486l18.41-8.48a4.12,4.12,0,0,1,.67-.24l.32-.15a12.79,12.79,0,0,1,6.95-1.14,11.19,11.19,0,0,1,5.18,2.05,9.78,9.78,0,0,1,3,3.63,10.16,10.16,0,0,1,.92,4.63.58.58,0,0,1,0,.21A11,11,0,0,1,400.46,488.54Zm-13.52-1a3,3,0,0,0,.56-1.32,2.22,2.22,0,0,0-.16-1.19,2.15,2.15,0,0,0-.81-.89,3.17,3.17,0,0,0-1.41-.45,4.11,4.11,0,0,0-1.9.32l-14.45,6.66a1.42,1.42,0,0,0-.83,2.13l1.56,3.36,15.95-7.35A3.94,3.94,0,0,0,386.94,487.59Zm7.32,12.09a3.08,3.08,0,0,0,1.51-1.15,3.24,3.24,0,0,0,.54-1.45,2.42,2.42,0,0,0-.22-1.29,2.86,2.86,0,0,0-.8-.89,2.9,2.9,0,0,0-1.5-.63,3.82,3.82,0,0,0-1.91.29l-3.43,1.58-15.63,7.2,1.71,3.68a1.44,1.44,0,0,0,2.17.75l.43-.2Z"/><path class="cls-1" d="M434.08,485.84a26.23,26.23,0,0,1-5.29,3,25.45,25.45,0,0,1-5.84,1.67,16.33,16.33,0,0,1-6-.16,8.7,8.7,0,0,1-5.05-3.08l-1.46-2-12.93-17.57,6.38-4.65,13.31,18.09a4.4,4.4,0,0,0,2.91,1.63,10.05,10.05,0,0,0,3.42-.13,15.61,15.61,0,0,0,3.25-1.05,16.58,16.58,0,0,0,2.94-1.71,16.1,16.1,0,0,0,2.53-2.28,15.35,15.35,0,0,0,2-2.76,10,10,0,0,0,1.16-3.2,4.4,4.4,0,0,0-.68-3.25l-13.31-18.1,6.43-4.68,12.92,17.57,1.47,2a8.55,8.55,0,0,1,1.41,5.74,16.72,16.72,0,0,1-1.71,5.79,25.46,25.46,0,0,1-3.35,5A26.47,26.47,0,0,1,434.08,485.84Z"/><path class="cls-1" d="M431.36,442.69l27.38-30.28,5.88,5.26-11,12.18,20.05,17.94-5.33,5.89-20.05-17.94-11,12.21Z"/><path class="cls-1" d="M487.27,407.19l6.22-10.59-4.54-.87c-1.71-.27-3.34-.5-4.88-.7a24.09,24.09,0,0,0-4.45-.17,3.34,3.34,0,0,0-2.85,1.13,3.45,3.45,0,0,0,.35,3.13,27.65,27.65,0,0,0,2.36,3.72q1.41,1.86,3,3.89l11.94,14.34-4.41,7.5-14.41-18a61.4,61.4,0,0,1-6.49-10,8.81,8.81,0,0,1,.42-8.73,8.93,8.93,0,0,1,7.4-4.64,59.44,59.44,0,0,1,12,.74l22.9,3.59-4.52,7.7-5.54-1-7.65,13Z"/><path class="cls-1" d="M507.61,380.8l4.81-13.75-17.95-6.2-4.8,13.75L482.2,372l12.21-34.92,7.47,2.58-4.79,13.69L515,359.57l4.79-13.69,7.47,2.58-12.21,34.93Z"/><path class="cls-3" d="M283.78,89.16c98.13.31,179.08,72,193.07,165.48h3.91c-14-95.7-96.67-169.32-196.81-169.56C183.64,84.84,100,158.86,86.1,254.64h4.19C104.39,160.67,185.67,88.86,283.78,89.16Z"/><path class="cls-3" d="M476.88,312C462.94,406,381.2,478.23,283,478c-97.9-.22-179-72.42-192.78-166h-4c14.05,96.31,96.36,169.61,197,169.84,100.5.23,183.6-73.51,197.53-169.84Z"/><path class="cls-3" d="M265.3,361.55a60.76,60.76,0,0,0,28.07,18.95q56.17,18.08,101.5-20c.56-.48,1.1-1,1.67-1.46.23-.18.52-.27,1.45,0-.85,1.33-1.63,2.72-2.55,4-22.81,31.59-53.41,51.1-92.17,56.36-49.07,6.67-90.41-9.09-123.66-45.52-15.68-17.19-19.12-38.19-17.29-60.39,1.14-13.79,6.05-26.34,16.25-36,17.83-16.94,39-21.69,62.17-13.71,22.71,7.82,36,24.38,39.52,48.11,2.54,17.09-2.35,32.44-12.43,46.3C267.05,359.21,266.25,360.27,265.3,361.55Z"/><path class="cls-3" d="M313.23,150.34c-6.73-1.65-13.79-2-20.7-2.9-.06.39-.13.78-.19,1.16.79.31,1.57.66,2.38.92,33.27,11,54.82,33.75,66.23,66.19A66.86,66.86,0,0,1,363,254.64h55.75C405.29,198.84,369.68,164.14,313.23,150.34Z"/><path class="cls-3" d="M419.45,257.4c-.21-.93-.44-1.84-.66-2.76H363c-.41,1.6-.87,3.19-1.41,4.76-10.07.81-19.23.59-27.95,2.45A58.9,58.9,0,0,0,287.58,312H419.52A123.65,123.65,0,0,0,419.45,257.4Z"/><path class="cls-3" d="M287.58,312a58.73,58.73,0,0,0-.52,7.77,60,60,0,0,0,46.26,58.39c27.88,6.39,67-14.6,78.66-42.56a139.68,139.68,0,0,0,7.54-23.6Z"/><path class="cls-3" d="M173.4,267.79a97,97,0,0,1,9.22-13.15H148.33A157.39,157.39,0,0,0,146.72,302c.37,3.39.91,6.74,1.59,10.05h10.45A106.23,106.23,0,0,1,173.4,267.79Z"/><path class="cls-3" d="M158.9,332.39a102.94,102.94,0,0,1-.14-20.38H148.31a106.65,106.65,0,0,0,13.14,33.35C160.58,341,159.36,336.76,158.9,332.39Z"/><path class="cls-3" d="M241.36,254.64c14.82,14.06,35.59,20.28,55.49,15.06,11.44-3,20.87-8.05,28.2-15.06Z"/><path class="cls-3" d="M341.91,222.3c4.81-24.22-4.33-43.63-24.07-57.89-15.36-11.1-32.55-18-51.94-16.47a116.44,116.44,0,0,0-55.77,19.4q-51.31,34-61.8,87.3h34.29a75,75,0,0,1,37.26-24.56c3.57-1,5-.35,6.55,3.18a65.27,65.27,0,0,0,14.93,21.38h83.69C333.58,246.49,339.26,235.67,341.91,222.3Z"/></g></svg>