<svg xmlns="http://www.w3.org/2000/svg" viewBox="0 0 566.93 566.93"><defs><style>.cls-1{fill:#fff;}.cls-2{fill:#cc1333;}.cls-3{fill:#feffff;}.cls-4{fill:none;stroke:#cc1333;stroke-linecap:round;stroke-linejoin:round;stroke-width:0;}.cls-5{fill:#e4231c;}</style></defs><title>Militari Police Corps</title><g id="Capa_2" data-name="Capa 2"><ellipse class="cls-1" cx="283.46" cy="283.46" rx="279.21" ry="277.74"/><ellipse class="cls-1" cx="283.46" cy="283.46" rx="279.21" ry="277.74"/><ellipse class="cls-1" cx="283.46" cy="283.46" rx="279.21" ry="277.74"/></g><g id="Capa_1" data-name="Capa 1"><path class="cls-2" d="M283.46,85.1c100.29,0,183.28,73.65,197.31,169.54h69C535.3,121.21,421.4,17,283.46,17S31.63,121.21,17.13,254.64h69C100.19,158.75,183.18,85.1,283.46,85.1Z"/><path class="cls-2" d="M283.46,550c137.79,0,251.6-104,266.28-237.25h-69c-14.22,95.69-97.11,169.13-197.26,169.13s-183-73.44-197.25-169.13h-69C31.87,445.94,145.68,550,283.46,550Z"/><path class="cls-2" d="M475.74,474.72a272.95,272.95,0,0,1-384.55,0,267.87,267.87,0,0,1-78.06-162H4.3c14.69,140.47,134.07,250,279.16,250s264.47-109.51,279.17-250h-8.84A267.86,267.86,0,0,1,475.74,474.72Z"/><path class="cls-2" d="M283.46,13A270.87,270.87,0,0,1,475.74,92.21a267.84,267.84,0,0,1,78.1,162.43h8.84C548.17,114,428.7,4.25,283.46,4.25S18.75,114,4.25,254.64h8.84A267.84,267.84,0,0,1,91.19,92.21,270.85,270.85,0,0,1,283.46,13Z"/><path class="cls-3" d="M17.1,312H13.05c0,.23.06.46.08.69h4C17.16,312.47,17.13,312.24,17.1,312Z"/><path class="cls-3" d="M283.46,553.94a270.87,270.87,0,0,0,192.28-79.22,267.86,267.86,0,0,0,78-162h-4C535.06,445.94,421.25,550,283.46,550S31.87,445.94,17.18,312.7h-4a267.87,267.87,0,0,0,78.06,162A270.85,270.85,0,0,0,283.46,553.94Z"/><path class="cls-3" d="M283.46,17C421.4,17,535.3,121.21,549.8,254.64h4a267.84,267.84,0,0,0-78.1-162.43,272.95,272.95,0,0,0-384.55,0,267.84,267.84,0,0,0-78.1,162.43h4C31.63,121.21,145.53,17,283.46,17Z"/><path class="cls-1" d="M223.21,43.81l-3.86.66-1.53-8.78,18.41-3.17-.58-3.34L242.57,28l.58,3.34,18.4-3.16,1.53,8.77-3.86.67.16,1-14.54,2.5.25,1.45,13.59-2.34.58,3.34-13.59,2.34.25,1.4L264.82,44l.67,3.84-44.73,7.7-.67-3.84L239,48.44l-.24-1.4-13.59,2.34L224.58,46l13.59-2.34-.25-1.45-14.55,2.5Zm3.93,21.72,5.78,1.73a27.69,27.69,0,0,1-5.23,10.61L222.3,75.1A29.8,29.8,0,0,0,227.14,65.53Zm23.44,2.29a65,65,0,0,0-9-3.53l1.24-2.12-11,1.89-6.11,1.06-1.53-8.78,38.41-6.62,1.53,8.78-1.85.32a70.54,70.54,0,0,1,8.56,8.55l-4.64,3.93a55.48,55.48,0,0,0-5.09-5.49c.27,2.93-.29,4.86-1.7,5.79s-5,1.88-10.78,2.88q-9.33,1.6-11.25,1.24c-1.29-.24-2.12-1.49-2.52-3.75l-1.22-7,6.72-1.15.92,5.29c.12.66.42,1,.93,1a37.22,37.22,0,0,0,5.17-.71l2.53-.43c.52-.09,1.14-.22,1.85-.4s1.17-.29,1.38-.36a3.2,3.2,0,0,0,.84-.51c.35-.26.54-.46.57-.58s.08-.41.14-.85a3.61,3.61,0,0,0,0-1.08c0-.29-.12-.78-.21-1.48l4.29,0a19.5,19.5,0,0,0-1.76-1.5l3.69-3.15-12,2.07c1.35.49,2.91,1.14,4.68,2ZM225.16,41.06,237.35,39l-.26-1.45-12.18,2.1Zm11.33,18.8-.39-2.24-5.27.9.39,2.25ZM247.07,58l-.39-2.24-5.52,1,.39,2.24Zm9.13-23.82L244,36.32l.26,1.45,12.18-2.1Zm-4.07,23,5.27-.91L257,54l-5.27.91Z"/><path class="cls-1" d="M288.93,59.77l-15.6-.92.34-5.61,7.06.41,1.14-19.15.34-5.66a170.72,170.72,0,0,0,18.63.11,89.51,89.51,0,0,0,14.45-1.65l1.38,5.86q-9.66,2.16-27.78,1.65l-.16,2.68,30.48,1.8-.32,5.51-7.17-.42-.66,11.07,9.55.56-.33,5.61-14.89-.88a83.64,83.64,0,0,1,13.47,8.36l-3.87,5a99.15,99.15,0,0,0-15.49-9.59l2.69-4-10.41-.61L294,63.77a67.24,67.24,0,0,1-17.39,7.85l-2.72-5.74A78.3,78.3,0,0,0,288.93,59.77ZM304.25,55,304.91,44,288.4,43l-.66,11.07Z"/><path class="cls-1" d="M351.31,82.34q-3-.89-8.71-2.84l1.23-4.65a50,50,0,0,1-7.66,2L335.28,71q11.18-1.67,18.62-6.54a17.29,17.29,0,0,0-.2-2.86,46.29,46.29,0,0,1-12.86,4.65q-2.46,3.24-7.58,1.72l-.87-.26.35-5.44.68.2a2.8,2.8,0,0,0,2.41-.05,5.47,5.47,0,0,0,1.39-2.73,10.07,10.07,0,0,0,.44-4.23A20.22,20.22,0,0,0,336,50.26L328.36,76l-5.95-1.76,12.8-42.85,16.39,4.84-1.46,4.91a.19.19,0,0,0-.09.13.19.19,0,0,1-.1.13l4.15,1.22c-.21-1.78-.47-3.57-.79-5.35l6.34-.08a72.28,72.28,0,0,1,.94,7.35l5.07,1.5A48,48,0,0,0,371,40.31l5.37,3.17A40.66,40.66,0,0,1,372.3,48l6.39,1.89-1.55,5.2-8.78-2.6a79.56,79.56,0,0,0-1.05,7.93,58.65,58.65,0,0,0,5.18-3.12l2.19,5.3A55.17,55.17,0,0,1,367.26,67a35.67,35.67,0,0,0,2.94,13.44l-4.75,5a42.13,42.13,0,0,1-4-15.52A70.25,70.25,0,0,1,362.7,50.8L361,50.31A26.92,26.92,0,0,1,357.83,52a33.82,33.82,0,0,1,1.08,22.66c-1.08,3.62-2.15,6-3.22,7S353.16,82.89,351.31,82.34Zm-6.83-42.9L339.7,38,336.44,49A58.82,58.82,0,0,0,344.48,39.44Zm8.15,17.15c-.33-1-.59-1.81-.77-2.4a53.62,53.62,0,0,1-7.68,1.54l-1-5.47a44.84,44.84,0,0,0,10.46-2.13L346.45,46a52.8,52.8,0,0,1-4.56,5.15,18.8,18.8,0,0,1,1.22,8.71A38.61,38.61,0,0,0,352.63,56.59Zm.67,13.93a42.73,42.73,0,0,1-8.59,4.06c2.2.79,3.94,1.38,5.21,1.75a1.28,1.28,0,0,0,1.42-.32,10.25,10.25,0,0,0,1.36-3.29C353,71.78,353.18,71.05,353.3,70.52Z"/><path class="cls-1" d="M69.19,339.16a8.29,8.29,0,0,1,.3,2.81,10,10,0,0,1-.64,2.9l-.27.54c.17.09.34.2.52.31a10.53,10.53,0,0,1,2.1,2.12,8,8,0,0,1,1.53,5.29,9.51,9.51,0,0,1-.66,2.89,9.06,9.06,0,0,1-1.84,2.81,7.25,7.25,0,0,1-3.37,2l-16.31,4.68L49,360.22l16-4.6a3.53,3.53,0,0,0,1.49-.8,4,4,0,0,0,.79-1.07,3,3,0,0,0,.28-1.06,2.66,2.66,0,0,0-.09-1,2.6,2.6,0,0,0-.44-.86,3.11,3.11,0,0,0-.8-.72,3.75,3.75,0,0,0-1.25-.49,3.64,3.64,0,0,0-1.69.07l-16,4.6-1.53-5.26,16-4.59a3.34,3.34,0,0,0,1.48-.81,3.68,3.68,0,0,0,.79-1.07,3.07,3.07,0,0,0,.29-1.05,2.5,2.5,0,0,0-.1-1,2.42,2.42,0,0,0-.44-.86A3.13,3.13,0,0,0,63,339a3.77,3.77,0,0,0-2.94-.42l-16,4.6-1.51-5.21,16.31-4.69a7.93,7.93,0,0,1,3.92-.08,9,9,0,0,1,3.06,1.4A9.81,9.81,0,0,1,68,336.67,8.07,8.07,0,0,1,69.19,339.16Z"/><path class="cls-1" d="M58.27,370l4.13,9.17,12-5.34-4.13-9.17,5-2.22,10.5,23.28-5,2.22-4.12-9.12-12,5.34,4.12,9.12-5,2.22L53.29,372.2Z"/><path class="cls-1" d="M90.53,393.6l-10.17,6.21a14.06,14.06,0,0,0-2.5,1.79A4.88,4.88,0,0,0,76.4,404a3.61,3.61,0,0,0,.33,2.79l7.93,12.84L80,422.46l-8.65-14a7.08,7.08,0,0,1-.81-5,10,10,0,0,1,2.3-4.52,19.54,19.54,0,0,1,4.22-3.53l10.58-6.46Z"/><path class="cls-1" d="M87.63,423.86,94,431.67l10.19-8.2-6.35-7.81,4.25-3.41,16.13,19.84L114,435.5l-6.32-7.78-10.19,8.2,6.32,7.78-4.24,3.42L83.39,427.28Z"/><path class="cls-1" d="M120.34,434.59,140.82,454l-3.75,3.93-8.24-7.78L116,463.52l-4-3.77,12.81-13.41-8.26-7.82Z"/><path class="cls-1" d="M142.92,474l6.92,4.92.89-3.05c.29-1.15.56-2.25.79-3.29a15.77,15.77,0,0,0,.4-3,2.25,2.25,0,0,0-.6-2,2.42,2.42,0,0,0-2.18,0,18.83,18.83,0,0,0-2.72,1.38c-.91.56-1.87,1.16-2.88,1.81L132.87,478l-4.9-3.48,13.38-8.71a42.42,42.42,0,0,1,7.33-3.79,6.54,6.54,0,0,1,8.74,6.19,40.61,40.61,0,0,1-1.27,8.14l-3.94,15.42-5-3.58,1.07-3.72-8.51-6.06Z"/><path class="cls-1" d="M161.72,497l-4.87-2.54,9.94-18.87a2.6,2.6,0,0,1,1.64-1.28,2.81,2.81,0,0,1,2.08.24l1.76.92,4.44,2.31,8.91,4.64.41.26.22.12a8.59,8.59,0,0,1,3.54,3.31,7.56,7.56,0,0,1,1.06,3.67,6.79,6.79,0,0,1-.75,3.16,7,7,0,0,1-2.18,2.45,7.5,7.5,0,0,1-3.64,1.24,9.05,9.05,0,0,1-4.77-1l-6.35-3.31a5.11,5.11,0,0,0-.21,3.27,3.35,3.35,0,0,0,1.75,2l9.81,5.11L182,507.47,171.52,502a7.41,7.41,0,0,1-3.74-4.6,9.92,9.92,0,0,1,0-6.39q1.05-3.57,1.26-4a2.72,2.72,0,0,1,3.68-1.15l9.53,5a2.69,2.69,0,0,0,1.29.29,2.18,2.18,0,0,0,1-.27,1.5,1.5,0,0,0,.59-.58,1.55,1.55,0,0,0,.15-.81,2.17,2.17,0,0,0-.35-1,2.7,2.7,0,0,0-1-.9l-9.77-5.09-2.89-1.5a.94.94,0,0,0-1.42.44Z"/><path class="cls-1" d="M201.53,489.3l-1,2.71a14.61,14.61,0,0,0-.82,2.95,4.88,4.88,0,0,0,.37,2.78,3.6,3.6,0,0,0,2,2l10.78,3.81,3.21-9,5.17,1.83-3.87,10.84a20,20,0,0,1-2.9,5.46,10,10,0,0,1-4,3.18,7.17,7.17,0,0,1-5.08.25l-16-5.64,1.82-5.12L206,510.52a3.6,3.6,0,0,0,2.81-.25,5.23,5.23,0,0,0,2-1.76L199,504.35a7.09,7.09,0,0,1-3.78-3.38,10,10,0,0,1-1.07-5,19.65,19.65,0,0,1,1.06-5.38l1.13-3.17Z"/><path class="cls-1" d="M239.48,525l-5.44-.79,3.11-21.16a2.62,2.62,0,0,1,1.12-1.74,2.81,2.81,0,0,1,2-.46l16.92,2.46a9.17,9.17,0,0,1,5.14,2.32,8.76,8.76,0,0,1,2.14,3.61,9,9,0,0,1,.27,3.76,9.39,9.39,0,0,1-1.33,3.62,8.41,8.41,0,0,1-3.1,2.84,7.26,7.26,0,0,1-4.85.71l-12.41-1.8.79-5.37,12.65,1.83a1.73,1.73,0,0,0,1.34-.31,3.23,3.23,0,0,0,.92-1.06,3.75,3.75,0,0,0,.39-2.64,3.13,3.13,0,0,0-.58-1.27,1.9,1.9,0,0,0-1.19-.73l-14.18-2.06a1,1,0,0,0-1.2.89Z"/><path class="cls-1" d="M291.29,504.82a6.15,6.15,0,0,1,3.7,1.29,10.17,10.17,0,0,1,2.64,3,14.8,14.8,0,0,1,1.49,3.69,16.46,16.46,0,0,1,.5,4,17,17,0,0,1-.83,5.25,11.69,11.69,0,0,1-2.72,4.56,6.83,6.83,0,0,1-4.74,2.16l-14.21,0a6.76,6.76,0,0,1-4.76-2.1,11.2,11.2,0,0,1-2.72-4.57,18.2,18.2,0,0,1-.81-5.26,17.43,17.43,0,0,1,.81-5.25,11.81,11.81,0,0,1,2.7-4.58,6.67,6.67,0,0,1,4.74-2.14h.77l12.66,0Zm-1.35,18.48a3.78,3.78,0,0,0,2.58-1.16,6.18,6.18,0,0,0,1.48-2.5,9.1,9.1,0,0,0,.44-2.87,9,9,0,0,0-.47-2.86,6.76,6.76,0,0,0-1.49-2.49,3.7,3.7,0,0,0-2.57-1.17l-11.56,0a3.63,3.63,0,0,0-2.57,1.18A6.87,6.87,0,0,0,274.3,514a9,9,0,0,0-.46,2.86,9.72,9.72,0,0,0,.45,2.87,6.24,6.24,0,0,0,1.5,2.49,3.73,3.73,0,0,0,2.59,1.15Z"/><path class="cls-1" d="M308.69,503.41l1.68,11.75a13.8,13.8,0,0,0,.65,3,4.89,4.89,0,0,0,1.62,2.29,3.64,3.64,0,0,0,2.7.8l15-2.11.77,5.38-16.37,2.3a7.18,7.18,0,0,1-4.93-1.25,10.09,10.09,0,0,1-3.25-3.9,19.62,19.62,0,0,1-1.57-5.26l-1.74-12.23Z"/><path class="cls-1" d="M335.57,518.05l9.73-2.67-3.49-12.57-9.73,2.67-1.45-5.23,24.72-6.79,1.46,5.23-9.7,2.66,3.49,12.57,9.7-2.66,1.45,5.23L337,523.28Z"/><path class="cls-1" d="M369.53,493.6a3.66,3.66,0,0,0-1.92,2.08,6.31,6.31,0,0,0-.4,2.87,9.37,9.37,0,0,0,.71,2.81,10,10,0,0,0,1.51,2.48,6.1,6.1,0,0,0,2.35,1.72,3.84,3.84,0,0,0,2.85.05l14.33-6,2.12,5-13.92,5.84-1.72.72a6.59,6.59,0,0,1-5.16-.18,12,12,0,0,1-4.2-3.18,17.48,17.48,0,0,1-2.78-4.51,17.76,17.76,0,0,1-1.12-3.79,15,15,0,0,1-.16-4,9.62,9.62,0,0,1,1.19-3.77,6,6,0,0,1,2.88-2.62l.72-.3,14.93-6.27,2.12,5Z"/><path class="cls-1" d="M391.6,477.09l1.61-.94L407.12,468l2.76,4.68-14.33,8.36a3.62,3.62,0,0,0-1.62,2.3,6.75,6.75,0,0,0,0,2.9A8.72,8.72,0,0,0,395,489a8.93,8.93,0,0,0,1.85,2.22,6.71,6.71,0,0,0,2.55,1.4,3.64,3.64,0,0,0,2.81-.27L416.51,484l2.76,4.68-14.86,8.67-.66.39a6.71,6.71,0,0,1-5.16.49,11.86,11.86,0,0,1-4.6-2.6,17.56,17.56,0,0,1-3.34-4.1,17.17,17.17,0,0,1-2-4.92,12.12,12.12,0,0,1,0-5.26A6.52,6.52,0,0,1,391.6,477.09Zm22.75,3.54L400,489l-2.76-4.68,14.4-8.4Z"/><path class="cls-1" d="M430.75,456.68a3.7,3.7,0,0,0-1.18,2.57,6.43,6.43,0,0,0,.52,2.85,9,9,0,0,0,1.54,2.45,9.62,9.62,0,0,0,2.21,1.9,6,6,0,0,0,2.76.91,3.77,3.77,0,0,0,2.73-.82l11.76-10.12,3.58,4.1-11.43,9.83-1.42,1.22a6.55,6.55,0,0,1-5,1.41,11.83,11.83,0,0,1-5-1.74,17.47,17.47,0,0,1-4-3.43,17.84,17.84,0,0,1-2.25-3.26,15,15,0,0,1-1.37-3.72,9.55,9.55,0,0,1-.05-3.95,6,6,0,0,1,1.94-3.38l.58-.5L439,442.45l3.57,4.1Z"/><path class="cls-1" d="M456.05,423.59a6.14,6.14,0,0,1,3.42-1.93,10.11,10.11,0,0,1,4,0,14.29,14.29,0,0,1,3.77,1.31,15.8,15.8,0,0,1,3.33,2.24A16.8,16.8,0,0,1,474,429.3a11.75,11.75,0,0,1,1.66,5,6.77,6.77,0,0,1-1.5,5L464.79,450a6.73,6.73,0,0,1-4.72,2.18,11.31,11.31,0,0,1-5.25-1,17.82,17.82,0,0,1-4.51-2.87,17.2,17.2,0,0,1-3.44-4.06,11.68,11.68,0,0,1-1.68-5,6.6,6.6,0,0,1,1.51-4.95l.51-.58,8.33-9.49Zm13.07,13.18a3.73,3.73,0,0,0,.83-2.7,6.31,6.31,0,0,0-.91-2.75,9.8,9.8,0,0,0-1.88-2.22,9.12,9.12,0,0,0-2.47-1.53,6.85,6.85,0,0,0-2.87-.53,3.65,3.65,0,0,0-2.57,1.15l-7.61,8.67a3.58,3.58,0,0,0-.8,2.69,6.78,6.78,0,0,0,.91,2.75,9.05,9.05,0,0,0,1.85,2.23,9.63,9.63,0,0,0,2.48,1.56,6.22,6.22,0,0,0,2.86.52,3.72,3.72,0,0,0,2.57-1.18Z"/><path class="cls-1" d="M486.79,422.74l-3,4.61-18-11.5a2.59,2.59,0,0,1-1.14-1.73,2.75,2.75,0,0,1,.42-2l1.08-1.67,2.7-4.2,5.43-8.42a3.68,3.68,0,0,1,.3-.39l.13-.2a8.71,8.71,0,0,1,3.62-3.22,7.62,7.62,0,0,1,3.78-.72,6.7,6.7,0,0,1,3.09,1,6.92,6.92,0,0,1,2.27,2.38,7.41,7.41,0,0,1,.92,3.71A8.77,8.77,0,0,1,487,405l-3.87,6a5.19,5.19,0,0,0,3.26.49,3.33,3.33,0,0,0,2.16-1.55l6-9.28,4.59,2.93-6.37,9.89a7.42,7.42,0,0,1-4.93,3.3,10,10,0,0,1-6.4-.57c-2.32-.9-3.61-1.43-3.86-1.59a2.69,2.69,0,0,1-.83-3.75l5.8-9a2.82,2.82,0,0,0,.41-1.26,2.16,2.16,0,0,0-.18-1,1.49,1.49,0,0,0-.54-.64,1.59,1.59,0,0,0-.8-.22,2.36,2.36,0,0,0-1,.26,2.79,2.79,0,0,0-1,.89l-6,9.24-1.76,2.73a.94.94,0,0,0,.32,1.45Z"/><path class="cls-1" d="M504.7,392.64l-2.27,5-19.58-8.83a2.61,2.61,0,0,1-1.38-1.55,2.78,2.78,0,0,1,.12-2.08l7.06-15.49a9.12,9.12,0,0,1,3.67-4.26,8.62,8.62,0,0,1,4.08-1.06,9,9,0,0,1,3.71.79,9.49,9.49,0,0,1,3.12,2.27,8.43,8.43,0,0,1,1.89,3.75,7.13,7.13,0,0,1-.66,4.83l-5.18,11.37-5-2.24,5.28-11.59a1.77,1.77,0,0,0,.07-1.37,3.18,3.18,0,0,0-.77-1.17,4,4,0,0,0-1.14-.78,3.94,3.94,0,0,0-1.31-.32,3.12,3.12,0,0,0-1.38.2,1.87,1.87,0,0,0-1,.93l-5.92,13a1,1,0,0,0,.53,1.39Z"/><path class="cls-1" d="M506,334.86l-5.3,18a2.7,2.7,0,0,0,0,1.32,2.26,2.26,0,0,0,.45.92,1.43,1.43,0,0,0,1.53.44,2.15,2.15,0,0,0,.87-.53,2.68,2.68,0,0,0,.69-1.12l3.25-11.05a8.71,8.71,0,0,1,2.59-4.12,7.6,7.6,0,0,1,3.48-1.73,7.47,7.47,0,0,1,3.37.16,7,7,0,0,1,2.87,1.68,7.76,7.76,0,0,1,2,3.32,8.14,8.14,0,0,1-.12,4.82l-.07.23a3.39,3.39,0,0,1-.1.48l-5.05,17.18-5.24-1.52,5.32-18.11a2,2,0,0,0,.09-1.31,2.2,2.2,0,0,0-.51-.93,1.85,1.85,0,0,0-.77-.48,2.14,2.14,0,0,0-.83,0,2,2,0,0,0-1,.48,2.59,2.59,0,0,0-.72,1.12l-3.24,11a8.82,8.82,0,0,1-2.57,4.13,7.46,7.46,0,0,1-3.42,1.75,7.12,7.12,0,0,1-3.29-.13,6.82,6.82,0,0,1-2.8-1.66A7.62,7.62,0,0,1,495.5,356a8.64,8.64,0,0,1,.07-4.83l.07-.23a3.41,3.41,0,0,1,.09-.48l5-17.11Z"/><path class="cls-1" d="M219.58,163l-.1,0-.07.15.14,0Z"/><path class="cls-1" d="M183,215.48l0-.1-.12,0,0,0Z"/><path class="cls-1" d="M385.29,218.41l.35-.21.06-.09h-.13Z"/><path class="cls-1" d="M214.21,384.07l-.09-.07,0,.14.08,0Z"/><path class="cls-1" d="M215.9,402.83l.1-.06v0Z"/><path class="cls-2" d="M295.8,269.89a2.56,2.56,0,0,0,.05-.27,2,2,0,0,1,.21-.68q4.88-7,9.72-14.09l5.07-7.37L319,235.66c9.75-14.14,20.27-29.29,31.15-44.24a24.41,24.41,0,0,1,5.09-5.2c.4-.29.8-.58,1.21-.84a19.84,19.84,0,0,1,4.53-2.17,17.27,17.27,0,0,1,5.17-.88h.26a17.83,17.83,0,0,1,2.07.13c5.74.71,11,4.3,15.09,10.37a22.92,22.92,0,0,1,4.12,9.9,11.73,11.73,0,0,1,.1,1.31,13.54,13.54,0,0,1-1.45,6.59c-.27.52-.57,1-.9,1.55a19.23,19.23,0,0,1-2.42,3,26.57,26.57,0,0,1-3.27,2.84c-.61.46-1.27.92-2,1.36l-46.09,30-32.06,20.9c-.39.26-.81.47-1.34.75l-.71.37Z"/><path class="cls-1" d="M366.39,182.7a17.11,17.11,0,0,1,2,.12c5.63.7,10.76,4.23,14.83,10.22a22.5,22.5,0,0,1,4.06,9.72c.05.43.09.86.1,1.28a13.18,13.18,0,0,1-1.42,6.41,14.34,14.34,0,0,1-.87,1.51,19.71,19.71,0,0,1-2.37,2.94,28.39,28.39,0,0,1-3.23,2.8c-.61.45-1.26.91-1.94,1.35l-43.16,28.14L324,254l-24.52,16c-.38.24-.79.45-1.31.72l-.49.26-.18-.16-1.24-1.07v-.06a1.9,1.9,0,0,1,.15-.54q4.88-7,9.72-14.08l5.09-7.41,8.11-11.78c9.75-14.15,20.27-29.3,31.15-44.24a23.61,23.61,0,0,1,5-5.11c.45-.34.82-.6,1.18-.84a19.3,19.3,0,0,1,4.45-2.12,17.13,17.13,0,0,1,5.06-.87h.25m0-.75h-.26a17.89,17.89,0,0,0-5.28.9,20.18,20.18,0,0,0-4.62,2.21c-.42.27-.83.56-1.23.86a25,25,0,0,0-5.17,5.28c-10.62,14.58-20.92,29.39-31.16,44.25l-13.2,19.19h0q-4.85,7-9.72,14.08a4.52,4.52,0,0,0-.37,1.31l2.15,1.85c1-.54,1.69-.85,2.31-1.25l24.52-16,53.62-35q1-.68,2-1.38a28,28,0,0,0,3.31-2.88,19.55,19.55,0,0,0,2.47-3,16.89,16.89,0,0,0,.91-1.58,13.83,13.83,0,0,0,1.5-6.77,12.28,12.28,0,0,0-.11-1.35,23.12,23.12,0,0,0-4.18-10.06c-4.46-6.56-9.92-9.86-15.36-10.53a16.6,16.6,0,0,0-2.11-.13Z"/><path class="cls-4" d="M355,185.92c.4-.3.81-.59,1.23-.86"/><path class="cls-4" d="M360.85,182.85a17.89,17.89,0,0,1,5.28-.9"/><path class="cls-2" d="M318.67,235.45l-13.2,19.19h0Z"/><path class="cls-1" d="M318.67,235.45l-13.2,19.19h0l13.2-19.19Z"/><path class="cls-2" d="M383.86,192.61A23.12,23.12,0,0,1,388,202.67a23.12,23.12,0,0,0-4.18-10.06c-4.46-6.56-9.92-9.86-15.36-10.53C373.94,182.75,379.4,186.05,383.86,192.61Z"/><path class="cls-1" d="M368.5,182.08c5.44.67,10.9,4,15.36,10.53A23.12,23.12,0,0,1,388,202.67a23.12,23.12,0,0,0-4.18-10.06c-4.46-6.56-9.92-9.86-15.36-10.53Z"/><path class="cls-2" d="M366.18,182a16.41,16.41,0,0,1,2.32.13A16.41,16.41,0,0,0,366.18,182Z"/><path class="cls-1" d="M366.22,182.7h0m.17-.75h0a16.6,16.6,0,0,1,2.11.13,16.6,16.6,0,0,0-2.11-.13Zm-.15,0h0Zm0,0Zm0,0h0Zm0,0Zm0,0h0Zm0,0Zm0,0h0Z"/><path class="cls-4" d="M388.15,204a12.28,12.28,0,0,0-.11-1.35"/><path class="cls-2" d="M289.12,266.13l12.94-60q2.58-12,5.17-23.93l1.66-7.68a23.11,23.11,0,0,1,3.94-8.68,22.11,22.11,0,0,1,2.44-2.83,19.24,19.24,0,0,1,7.92-4.78,15.16,15.16,0,0,1,2.07-.44l.25,0c.2,0,.4-.07.61-.09h.27c.41,0,.82,0,1.23,0,6.39,0,13.94,3.6,18.42,8.72a17.1,17.1,0,0,1,2.77,4.24,17.65,17.65,0,0,1,1.35,4.83A15.17,15.17,0,0,1,347.54,186c-12.36,18.2-24.91,36.46-36.7,53.6l-19.07,27.73Z"/><path class="cls-1" d="M327.62,157.27l0,.75c6.25,0,13.69,3.55,18.1,8.59a16.55,16.55,0,0,1,2.71,4.15,17.24,17.24,0,0,1,1.31,4.73,14.72,14.72,0,0,1-2.55,10.25c-12.44,18.32-25,36.52-36.7,53.6l-5.76,8.37-4.47,6.51-2,3-6.63,9.63-2.08-.9L292,254.8l.55-2.57q5-23,9.92-46,2.59-12,5.18-23.93l.69-3.2c.32-1.49.65-3,1-4.48a21.73,21.73,0,0,1,1-3.42c.29-.73.62-1.45,1-2.15a23.37,23.37,0,0,1,1.85-3,23,23,0,0,1,2.4-2.79l0,0v0a19.13,19.13,0,0,1,7.71-4.63,16.21,16.21,0,0,1,2-.43l.24,0,.59-.08h.27c.39,0,.79,0,1.2,0v-.75m0,0c-.42,0-.84,0-1.26,0h-.28c-.29,0-.58.08-.88.13a17.39,17.39,0,0,0-2.12.45,19.68,19.68,0,0,0-8,4.82l-.06.05a22.16,22.16,0,0,0-2.47,2.88,23.42,23.42,0,0,0-1.91,3.06c-.37.72-.71,1.46-1,2.22a21.31,21.31,0,0,0-1.08,3.54q-.84,3.84-1.66,7.68-2.6,12-5.18,23.93-5.24,24.25-10.47,48.55c-.85,3.91-1.69,7.8-2.53,11.71l3.21,1.4,9-13.11q5.11-7.45,10.23-14.87,18.47-26.86,36.7-53.61a15.43,15.43,0,0,0,2.68-10.76,17.6,17.6,0,0,0-1.38-4.94,16.93,16.93,0,0,0-2.83-4.34c-4.47-5.12-12.09-8.83-18.66-8.85Z"/><path class="cls-2" d="M309.61,170.94a21.31,21.31,0,0,0-1.08,3.54q-.84,3.84-1.66,7.68.83-3.84,1.66-7.68A21.31,21.31,0,0,1,309.61,170.94Z"/><path class="cls-1" d="M309.61,170.94v0Zm0,0a21.92,21.92,0,0,0-1.07,3.51q-.84,3.84-1.66,7.68.83-3.84,1.66-7.68A21.92,21.92,0,0,1,309.6,171Z"/><path class="cls-2" d="M309.61,170.94c.3-.76.64-1.5,1-2.22C310.25,169.44,309.91,170.18,309.61,170.94Z"/><path class="cls-1" d="M310.62,168.72c-.37.72-.71,1.46-1,2.22.3-.76.64-1.5,1-2.22Z"/><path class="cls-4" d="M310.62,168.72a23.42,23.42,0,0,1,1.91-3.06"/><path class="cls-2" d="M346.32,166.12c-4.47-5.12-12.09-8.83-18.66-8.85C334.23,157.29,341.85,161,346.32,166.12Z"/><path class="cls-1" d="M327.66,157.27c6.57,0,14.19,3.73,18.66,8.85-4.47-5.12-12.09-8.83-18.66-8.85Z"/><path class="cls-4" d="M326.36,157.32c.43,0,.86,0,1.3,0"/><path class="cls-4" d="M315,162.78l.06-.05"/><path class="cls-2" d="M323.08,157.91a17.39,17.39,0,0,1,2.12-.45A17.39,17.39,0,0,0,323.08,157.91Z"/><path class="cls-1" d="M325.2,157.46Zm0,0a17,17,0,0,0-2.12.45,17,17,0,0,1,2.12-.45Z"/><path class="cls-2" d="M347.85,186.16q-18.21,26.82-36.7,53.61,18.47-26.86,36.7-53.61a15.43,15.43,0,0,0,2.68-10.76A15.43,15.43,0,0,1,347.85,186.16Z"/><path class="cls-1" d="M350.53,175.4a15.43,15.43,0,0,1-2.68,10.76q-18.23,26.82-36.7,53.61,18.47-26.86,36.7-53.61a15.43,15.43,0,0,0,2.68-10.76Z"/><path class="cls-2" d="M300.3,275.74l.12-.15a2.92,2.92,0,0,1,.52-.53q11.49-7.4,23-14.82l8.19-5.28c14.54-9.39,31.45-20.3,48.17-30.91a21.13,21.13,0,0,1,11.28-3.43c10,0,18,7.51,19.5,18.25l0,.3c.9,6.76-.18,11.74-3.3,15.22-2.66,3-6.86,5-12.84,6.11l-85,16.05-6.92,1.3a8,8,0,0,1-1.16.1l-.52,0Z"/><path class="cls-1" d="M391.54,221c9.79,0,17.65,7.37,19.13,17.92a.49.49,0,0,1,0,.12c0,.06,0,.12,0,.18.88,6.65-.17,11.53-3.21,14.92-2.61,2.91-6.74,4.87-12.63,6-28.59,5.42-57.67,10.9-85.79,16.2L303,277.48a7,7,0,0,1-1.11.09h-.27l-.44-.9-.42-.89a2.24,2.24,0,0,1,.4-.41l22.55-14.55,8.6-5.56c14.52-9.37,31.41-20.27,48.17-30.9A20.68,20.68,0,0,1,391.54,221m0-.75a21.4,21.4,0,0,0-11.48,3.48q-24.17,15.35-48.18,30.91h0l-31.14,20.11a5.28,5.28,0,0,0-.89.93c.41.84.78,1.61,1.29,2.68a17,17,0,0,0,2-.14q45.94-8.67,91.88-17.35c6-1.14,10.31-3.17,13.05-6.23,3.24-3.61,4.3-8.69,3.39-15.52a2.77,2.77,0,0,0,0-.3c-1.59-11.36-10.19-18.57-19.87-18.57Z"/><path class="cls-2" d="M331.88,254.64h0q24-15.52,48.18-30.91c13.36-8.48,29.14-.71,31.35,15.09a2.77,2.77,0,0,1,0,.3,2.77,2.77,0,0,0,0-.3c-2.21-15.8-18-23.57-31.35-15.09Q355.9,239.08,331.88,254.64Z"/><path class="cls-1" d="M391.54,220.25a21.4,21.4,0,0,0-11.48,3.48q-24.17,15.35-48.18,30.91h0q24-15.52,48.18-30.91a21.37,21.37,0,0,1,11.48-3.48,19.16,19.16,0,0,1,6.28,1.05,19.16,19.16,0,0,0-6.28-1.05Zm6.28,1.05A20.12,20.12,0,0,1,409.44,232a20.08,20.08,0,0,0-11.62-10.73ZM409.44,232a23.82,23.82,0,0,1,2,6.79,2.77,2.77,0,0,1,0,.3,2.77,2.77,0,0,0,0-.3,23.82,23.82,0,0,0-2-6.79Z"/><path class="cls-2" d="M324.35,411.65a18.25,18.25,0,0,1-5.64-.83,15.69,15.69,0,0,1-11-12.42q-2.89-14.94-5.73-29.89-4.31-22.62-8.57-45.31l-3.94-20.91L290,302a3.93,3.93,0,0,0,2-1.93l.21.54a6.41,6.41,0,0,0,.59,1.29L336,368.51l4.2,6.43,2.83,4.33a24.27,24.27,0,0,1,3.58,9.28,21.91,21.91,0,0,1,.3,3.21,20.92,20.92,0,0,1-.39,4.65c-.1.49-.22,1-.35,1.46s-.33,1-.57,1.64c-.13.32-.27.64-.41.94a14.26,14.26,0,0,1-1.56,2.58,17.65,17.65,0,0,1-2.83,2.85,27.24,27.24,0,0,1-16.49,5.77Z"/><path class="cls-1" d="M291.87,301a6.69,6.69,0,0,0,.55,1.19l4.1,6.3,3,4.66,8.09,12.45,5.57,8.56,5.46,8.39,17.05,26.21,4.29,6.57,2.74,4.18a23.92,23.92,0,0,1,3.52,9.14,24.29,24.29,0,0,1,.3,3.16,20.07,20.07,0,0,1-.39,4.56c-.09.49-.21,1-.34,1.44s-.33,1-.56,1.6c-.13.31-.26.62-.4.92a14.44,14.44,0,0,1-1.52,2.51,16.91,16.91,0,0,1-2.77,2.79,26.82,26.82,0,0,1-16.25,5.68,17.89,17.89,0,0,1-5.53-.81,15.37,15.37,0,0,1-10.7-12.13c-2.11-10.87-4.17-21.68-5.73-29.89-2.81-14.76-5.65-29.81-8.39-44.35l-2.17-11.53-.7-3.7-1.2-6.38.2-.1a4.43,4.43,0,0,0,1.74-1.42m.08-1.82c-.83,2.27-1.79,2.26-2.86,3q1,5.29,2,10.59,5.28,28,10.56,55.88,2.85,15,5.73,29.89a16,16,0,0,0,11.21,12.71,19,19,0,0,0,5.76.84,27.68,27.68,0,0,0,16.72-5.85,17.73,17.73,0,0,0,2.9-2.91,14.7,14.7,0,0,0,1.6-2.65c.14-.31.28-.63.41-1a17.5,17.5,0,0,0,.59-1.68c.14-.48.26-1,.36-1.49a21.69,21.69,0,0,0,.4-4.73,24.12,24.12,0,0,0-.31-3.26,24.69,24.69,0,0,0-3.63-9.43q-3.52-5.37-7-10.75-11.26-17.3-22.51-34.6-6.83-10.5-13.66-21l-7.14-11a22.91,22.91,0,0,1-1.1-2.6Z"/><path class="cls-2" d="M343.39,379.06a24.69,24.69,0,0,1,3.63,9.43,24.69,24.69,0,0,0-3.63-9.43q-3.52-5.37-7-10.75-11.26-17.3-22.51-34.6,11.25,17.3,22.51,34.6Q339.86,373.69,343.39,379.06Z"/><path class="cls-1" d="M313.85,333.71l3.12,4.8-3.12-4.8Zm3.12,4.8,19.39,29.8.42.65-.42-.65L317,338.51ZM336.78,369l3.36,5.14L336.78,369Zm3.36,5.14,3.25,5a24.69,24.69,0,0,1,3.63,9.43,24.69,24.69,0,0,0-3.63-9.43l-3.25-5Z"/><path class="cls-4" d="M347,388.49a24.12,24.12,0,0,1,.31,3.26"/><path class="cls-2" d="M341.07,406.17a17.73,17.73,0,0,0,2.9-2.91,14.7,14.7,0,0,0,1.6-2.65,14.7,14.7,0,0,1-1.6,2.65A17.73,17.73,0,0,1,341.07,406.17Z"/><path class="cls-1" d="M345.57,400.61a14.7,14.7,0,0,1-1.6,2.65,17.73,17.73,0,0,1-2.9,2.91,17.73,17.73,0,0,0,2.9-2.91,14.7,14.7,0,0,0,1.6-2.65Z"/><path class="cls-4" d="M346,399.65c-.13.33-.27.65-.41,1"/><path class="cls-2" d="M301.65,368.58q-5.31-27.88-10.56-55.88Q296.37,340.72,301.65,368.58Z"/><path class="cls-1" d="M291.09,312.7q5.28,28,10.56,55.88-5.31-27.88-10.56-55.88Z"/><path class="cls-2" d="M174.4,347.45a17.16,17.16,0,0,1-10.21-3c-4.89-3.58-8.58-11.08-9-18.23a17.12,17.12,0,0,1,1.48-8.44,15.67,15.67,0,0,1,.91-1.78,15.93,15.93,0,0,1,2.32-3,16.33,16.33,0,0,1,8.7-4.58c24.45-4.85,49.33-9.65,73.39-14.3l23-4.46.12,0,.16.05c.22.14.25.34.27.8a1.86,1.86,0,0,0,.69,1.59l-10.79,7.09L235.4,312.39l-4.57,3q-10.52,6.9-21.06,13.77-10.86,7.1-21.71,14.19a25.25,25.25,0,0,1-13.66,4.11Z"/><path class="cls-1" d="M265,290h0l.09,0c0,.05.06.15.08.48a2.56,2.56,0,0,0,.46,1.52l-10,6.54L235.2,312.08l-1.12.73-.49.32-3,1.94L209.7,328.75q-10.92,7.13-21.85,14.28a24.9,24.9,0,0,1-13.45,4,17,17,0,0,1-10-2.91c-4.81-3.51-8.43-10.89-8.81-17.94a17.52,17.52,0,0,1,.72-6.37A19.59,19.59,0,0,1,157,318a18.93,18.93,0,0,1,.89-1.74,15.23,15.23,0,0,1,2.27-3,15.86,15.86,0,0,1,8.51-4.47c24.41-4.84,49.26-9.64,73.3-14.29L265,290m0-.76H265c-32.15,6.23-64.31,12.39-96.43,18.77a16.72,16.72,0,0,0-8.9,4.67,16.45,16.45,0,0,0-2.38,3.13,18.12,18.12,0,0,0-.93,1.81,20.25,20.25,0,0,0-.75,2,18.52,18.52,0,0,0-.75,6.64c.38,7.07,4,14.77,9.12,18.51a17.64,17.64,0,0,0,10.43,3.05,25.7,25.7,0,0,0,13.86-4.17q21.38-14,42.78-27.95l3-1.95,1.6-1.05h0c10.35-6.78,20.72-13.6,31.42-20.62-1.74-.64-.49-2.12-1.54-2.72a2.93,2.93,0,0,0-.45-.1Z"/><path class="cls-2" d="M234,313.75l1.6-1.05h0Z"/><path class="cls-1" d="M235.61,312.7h0l-1.6,1.05,1.6-1.05Z"/><path class="cls-2" d="M155.6,319.62a20.25,20.25,0,0,1,.75-2,20.25,20.25,0,0,0-.75,2,18.52,18.52,0,0,0-.75,6.64A18.52,18.52,0,0,1,155.6,319.62Z"/><path class="cls-1" d="M156.35,317.64v0Zm0,0c-.27.62-.52,1.27-.74,1.95a18.52,18.52,0,0,0-.75,6.64,18.52,18.52,0,0,1,.75-6.64c.22-.68.47-1.33.74-1.95Z"/><path class="cls-4" d="M156.35,317.64a18.12,18.12,0,0,1,.93-1.81"/><path class="cls-2" d="M390.89,350.7a15.86,15.86,0,0,1-9-2.82q-16.54-11.22-33.07-22.47l-25.73-17.55L301,292.8a4.25,4.25,0,0,1-.41-.35l0,0,.9-2.3h.14l.32,0H302l21.24,4.51c23.31,4.95,47.42,10.07,71.11,15.17a20.63,20.63,0,0,1,7.38,3.24,22.31,22.31,0,0,1,4.05,3.59,19.82,19.82,0,0,1,4.24,7.48c.12.39.21.78.3,1.18a15.5,15.5,0,0,1,.28,1.8,17.31,17.31,0,0,1-.57,5.71c-.17.7-.37,1.39-.6,2.05-.28.81-.53,1.48-.81,2.11a30.66,30.66,0,0,1-3.75,6.36,18.7,18.7,0,0,1-7.57,6.18,18.18,18.18,0,0,1-6.44,1.23Z"/><path class="cls-1" d="M301.89,290.45H302L323.26,295c23.29,4.95,47.37,10.06,71,15.16a20.06,20.06,0,0,1,7.25,3.18,22.61,22.61,0,0,1,4,3.52,19.64,19.64,0,0,1,4.16,7.34c.1.35.2.73.29,1.16a17.73,17.73,0,0,1,.28,1.76,17.1,17.1,0,0,1-.56,5.58c-.17.7-.37,1.37-.59,2-.28.8-.53,1.46-.8,2.09a30.18,30.18,0,0,1-3.71,6.28,18.21,18.21,0,0,1-7.41,6.06,17.85,17.85,0,0,1-6.3,1.21,15.41,15.41,0,0,1-8.8-2.77c-11.8-8-23.34-15.84-33.06-22.46l-19.1-13-8.43-5.75-20.31-13.84-.22-.18.73-1.85h.19m0-.75c-.21,0-.44,0-.72.06l-1.09,2.76a8.72,8.72,0,0,0,.69.59l28.74,19.59h0l19.09,13q16.53,11.25,33.07,22.47a16.24,16.24,0,0,0,9.22,2.89,18.57,18.57,0,0,0,6.57-1.26,19,19,0,0,0,7.74-6.3,31.26,31.26,0,0,0,3.8-6.44c.31-.71.57-1.43.82-2.14s.44-1.39.61-2.07A17.63,17.63,0,0,0,411,327a12.94,12.94,0,0,0-.29-1.85c-.08-.4-.18-.81-.3-1.21a20.15,20.15,0,0,0-4.32-7.62A23.1,23.1,0,0,0,402,312.7a21.13,21.13,0,0,0-7.52-3.3q-46.15-9.93-92.35-19.68l-.22,0Z"/><path class="cls-2" d="M406.09,316.35a20.15,20.15,0,0,1,4.32,7.62A20.15,20.15,0,0,0,406.09,316.35Z"/><path class="cls-1" d="M406.09,316.35a20.15,20.15,0,0,1,4.32,7.62,20.15,20.15,0,0,0-4.32-7.62Z"/><path class="cls-2" d="M406.09,316.35A23.1,23.1,0,0,0,402,312.7,23.1,23.1,0,0,1,406.09,316.35Z"/><path class="cls-1" d="M402,312.7a23.1,23.1,0,0,1,4.11,3.65A23.1,23.1,0,0,0,402,312.7Z"/><path class="cls-2" d="M329.51,312.7l19.09,13-19.09-13Z"/><path class="cls-1" d="M329.51,312.7h0q4.64,3.18,9.29,6.34-4.65-3.17-9.29-6.34ZM338.8,319l9.8,6.68L338.8,319Z"/><path class="cls-4" d="M410.41,324c.12.4.22.81.3,1.21"/><path class="cls-4" d="M409.82,334.94c.24-.7.44-1.39.61-2.07"/><path class="cls-2" d="M199.44,385.45a13,13,0,0,1-1.4-.08q-.69-.08-1.35-.21a17.67,17.67,0,0,1-6.82-3.35,30,30,0,0,1-5.85-5.9c-.19-.26-.38-.51-.56-.78-.42-.59-.82-1.21-1.19-1.85a19.53,19.53,0,0,1-2.55-6.54,20,20,0,0,1-.27-3.89,16.53,16.53,0,0,1,.3-2.68A16,16,0,0,1,187,349.8c8.4-5.59,17.49-11.62,27.8-18.43l.14-.09q13.85-9.15,27.72-18.26l1.13-.75q11.83-7.78,23.65-15.57a3.27,3.27,0,0,1,.5-.21l.32-.12a3.35,3.35,0,0,1,2,2.13L247,332.6Q232.51,353.87,218,375.12c-4.23,6.18-11.6,10.33-18.35,10.33Z"/><path class="cls-1" d="M268.26,296.77a2.94,2.94,0,0,1,1.6,1.68l-6.64,9.74-2.79,4.09-6.13,9-2.09,3.07-1.76,2.58-3.73,5.46q-14.52,21.27-29.05,42.53c-4.16,6.08-11.41,10.17-18,10.17h-.18c-.46,0-.92,0-1.37-.08s-.89-.12-1.32-.21a17.33,17.33,0,0,1-6.67-3.28,29.75,29.75,0,0,1-5.77-5.82l-.55-.77c-.41-.59-.81-1.21-1.18-1.83a17.86,17.86,0,0,1-2.77-10.23,17,17,0,0,1,.3-2.62,15.64,15.64,0,0,1,7.1-10.13c8.35-5.56,17.44-11.59,27.79-18.42l.05,0,.1-.07q13.85-9.13,27.72-18.26l.17-.12L267.66,297a1.77,1.77,0,0,1,.42-.18l.18-.07m0-.81a7.86,7.86,0,0,0-1,.43L242.46,312.7Q228.6,321.84,214.74,331l-.14.09q-13.92,9.19-27.79,18.43a16.42,16.42,0,0,0-7.43,10.61,17.27,17.27,0,0,0-.31,2.73A18.57,18.57,0,0,0,182,373.47c.37.64.77,1.26,1.2,1.88l.57.79a30.45,30.45,0,0,0,5.92,6,18.35,18.35,0,0,0,7,3.42c.46.09.92.16,1.4.21s.94.08,1.43.09h.19c6.71,0,14.31-4.14,18.66-10.5q14.53-21.25,29.05-42.52l5.49-8,8.22-12.07,9.65-14.15a3.83,3.83,0,0,0-2.43-2.59Z"/><path class="cls-4" d="M199.44,385.83c-.49,0-1,0-1.43-.09"/><path class="cls-4" d="M179.38,360.1a17.27,17.27,0,0,0-.31,2.73"/><path class="cls-4" d="M252.83,324.77l8.22-12.07"/><path class="cls-4" d="M214.6,331.06l.14-.09"/><path class="cls-4" d="M183.72,376.14l-.57-.79"/><path class="cls-2" d="M179.35,366.8a20.12,20.12,0,0,1-.28-4A20.12,20.12,0,0,0,179.35,366.8Z"/><path class="cls-1" d="M179.07,362.83a20.12,20.12,0,0,0,.28,4,20.12,20.12,0,0,1-.28-4Z"/><path class="cls-4" d="M182,373.47a19.93,19.93,0,0,1-2.6-6.67"/><path class="cls-2" d="M264.88,268.11c-3.57-2.35-7.26-4.79-10.86-7.21l-9.74-6.57c-17.88-12.06-35.4-23.88-53.21-36a19.91,19.91,0,0,1-3-2.56c-5.19-5.31-7.7-13.31-6-19a19.61,19.61,0,0,1,2.46-5.06c.36-.53.76-1.07,1.17-1.6,3.59-4.56,8.87-8.13,13.77-9.32a15.35,15.35,0,0,1,2.9-.41l.21,0H203a18,18,0,0,1,4.67.6l.81.23c.41.13.81.28,1.21.44a15.87,15.87,0,0,1,2.22,1.12,17.2,17.2,0,0,1,5.29,5.16c13.52,20.15,27.23,40.75,40.49,60.67l13.7,20.58-1.84,2Z"/><path class="cls-1" d="M203,180.74a17.61,17.61,0,0,1,4.57.58l.8.23c.39.12.79.27,1.18.43a15,15,0,0,1,2.16,1.09,16.7,16.7,0,0,1,5.18,5.05c13.49,20.11,27.18,40.68,40.42,60.57l4.24,6.37,2.88,4.32q3.24,4.88,6.49,9.75l-.9,1-.54.59-4.46-3c-3.56-2.34-7.24-4.77-10.82-7.18l-6-4L244.49,254c-17.88-12.06-35.4-23.88-53.21-36a19.22,19.22,0,0,1-3-2.52c-5.1-5.21-7.57-13-5.88-18.64a18.73,18.73,0,0,1,2.42-5c.35-.53.74-1.06,1.15-1.58,3.54-4.5,8.74-8,13.56-9.18a14.53,14.53,0,0,1,2.83-.41l.23,0H203m0-.75h-.23l-.44,0a14.88,14.88,0,0,0-3,.43c-5.12,1.23-10.41,4.92-14,9.45-.42.53-.82,1.07-1.19,1.63a19.6,19.6,0,0,0-2.51,5.15c-1.8,5.95.87,14.08,6.06,19.39a20.15,20.15,0,0,0,3.09,2.61q26.58,18,53.21,36l9.74,6.57c5.24,3.53,10.53,7,15.83,10.49l2.25-2.5-9.69-14.56c-14.93-22.43-29.75-44.72-44.66-66.94a17.28,17.28,0,0,0-5.41-5.27,15.54,15.54,0,0,0-2.27-1.14c-.4-.17-.82-.32-1.24-.46l-.83-.24A18.87,18.87,0,0,0,203,180Z"/><path class="cls-2" d="M181.71,196.68a19.6,19.6,0,0,1,2.51-5.15,19.6,19.6,0,0,0-2.51,5.15c-1.8,5.95.87,14.08,6.06,19.39C182.58,210.76,179.91,202.63,181.71,196.68Z"/><path class="cls-1" d="M184.22,191.53l0,0,0,0Zm0,0a19.89,19.89,0,0,0-2.48,5.11c-1.8,5.95.87,14.08,6.06,19.39-5.19-5.31-7.86-13.44-6.06-19.39a19.89,19.89,0,0,1,2.48-5.11Z"/><path class="cls-4" d="M185.41,189.9c-.42.53-.82,1.07-1.19,1.63"/><path class="cls-2" d="M199.38,180.45a14.88,14.88,0,0,1,3-.43A14.88,14.88,0,0,0,199.38,180.45Z"/><path class="cls-1" d="M202.36,180a14.88,14.88,0,0,0-3,.43,14.88,14.88,0,0,1,3-.43Z"/><path class="cls-4" d="M202.8,180a18.75,18.75,0,0,1,5,.6"/><path class="cls-4" d="M208.62,180.83c.42.14.84.29,1.24.46"/><path class="cls-2" d="M265.22,277.79l-27.11-5.57c-21.61-4.43-44-9-65.89-13.66a21.67,21.67,0,0,1-9.17-4.21,18.62,18.62,0,0,1-3-3.1,18.11,18.11,0,0,1-3.84-11.2,20.05,20.05,0,0,1,.46-4.26,23.74,23.74,0,0,1,4.2-9.14,27.06,27.06,0,0,1,5-5.32,15,15,0,0,1,9.45-3.51c3.68,0,7.7,1.44,11.94,4.28l41.49,27.72L263.36,273c.72.48,1.42,1,2.23,1.6l1.09.81Z"/><path class="cls-1" d="M175.29,218.2c3.6,0,7.55,1.42,11.73,4.21l41.88,28,7.3,4.87,26.95,18c.71.47,1.41,1,2.21,1.59l.83.61-.8,1.33-.35.57-26.85-5.52c-21.61-4.43-44-9-65.89-13.65a21.4,21.4,0,0,1-9-4.15,18.07,18.07,0,0,1-6.74-14V240a19.8,19.8,0,0,1,.46-4.09,23.3,23.3,0,0,1,4.13-9,27.23,27.23,0,0,1,5-5.25,14.62,14.62,0,0,1,9.21-3.42m0-.75a15.26,15.26,0,0,0-9.68,3.59,27.51,27.51,0,0,0-5.08,5.38,24.34,24.34,0,0,0-4.27,9.29,20.8,20.8,0,0,0-.47,4.25v.09a18.81,18.81,0,0,0,7,14.59,22.21,22.21,0,0,0,9.33,4.29c31,6.57,62.12,12.86,93.27,19.28l1.77-2.94c-1.48-1.08-2.52-1.89-3.61-2.62q-13.47-9-27-18h0l-49.17-32.85c-4.33-2.89-8.37-4.34-12.15-4.34Z"/><path class="cls-4" d="M156.26,235.71a20.8,20.8,0,0,0-.47,4.25"/><path class="cls-2" d="M159.72,251.49a18.62,18.62,0,0,1-3.93-11.44A18.62,18.62,0,0,0,159.72,251.49Z"/><path class="cls-1" d="M155.79,240.05a18.62,18.62,0,0,0,3.93,11.44,18.62,18.62,0,0,1-3.93-11.44Z"/><path class="cls-2" d="M187.44,221.79l49.17,32.85h0l-49.17-32.85c-8.26-5.52-15.49-5.78-21.83-.75C172,216,179.18,216.27,187.44,221.79Z"/><path class="cls-1" d="M175.29,217.45a15.26,15.26,0,0,0-9.68,3.59,15.26,15.26,0,0,1,9.68-3.59,16.53,16.53,0,0,1,3.58.41,16.53,16.53,0,0,0-3.58-.41Zm3.58.41a22.38,22.38,0,0,1,4.64,1.66,22.38,22.38,0,0,0-4.64-1.66Zm4.64,1.66a33.7,33.7,0,0,1,3.93,2.27l49.17,32.85h0l-49.17-32.85a33.7,33.7,0,0,0-3.93-2.27Z"/><path class="cls-2" d="M363.16,387.55a15.15,15.15,0,0,1-10.66-4.61,27.93,27.93,0,0,1-4-4.95q-21.06-32-42.1-64.06L298,301.23c-.45-.67-.86-1.37-1.27-2l-.44-.73a3.82,3.82,0,0,1,2.08-2l28.12,19.29L337.23,323q19.39,13.27,38.79,26.53c.41.28.8.57,1.18.86a20.1,20.1,0,0,1,7.93,13.3,19.35,19.35,0,0,1-4.07,14.35,24.81,24.81,0,0,1-2,2.27l-.08.07a23.83,23.83,0,0,1-2.88,2.38c-.59.42-1.1.76-1.59,1.06a29.9,29.9,0,0,1-3.71,1.93,22.89,22.89,0,0,1-3.37,1.18l-.12,0-.64.15A16.49,16.49,0,0,1,363.16,387.55Z"/><path class="cls-1" d="M298.35,296.85l8.52,5.84,15.51,10.63.76.53.73.49L326.3,316l10.59,7.25c12.75,8.74,25.94,17.77,38.92,26.62.4.27.79.56,1.16.84a19.79,19.79,0,0,1,7.79,13.06,19,19,0,0,1-4,14.07,22.55,22.55,0,0,1-2,2.24l-.06.06a24.8,24.8,0,0,1-2.83,2.34c-.59.42-1.09.75-1.58,1.05a29.8,29.8,0,0,1-3.66,1.91,21.77,21.77,0,0,1-3.32,1.15l-.14,0-.6.15a16.36,16.36,0,0,1-3.42.38,14.78,14.78,0,0,1-10.4-4.5,28.06,28.06,0,0,1-4-4.89q-21.52-32.73-43-65.49L302,306.61,298.33,301c-.44-.67-.85-1.36-1.25-2l-.34-.56a3.27,3.27,0,0,1,1.61-1.59m.08-.86a4.26,4.26,0,0,0-2.54,2.5c.58.94,1.17,2,1.81,2.95l7.4,11.26,43,65.5a29.1,29.1,0,0,0,4.1,5,15.47,15.47,0,0,0,10.92,4.71,16.57,16.57,0,0,0,3.58-.4c.26,0,.51-.12.77-.19a23,23,0,0,0,3.43-1.19,30.75,30.75,0,0,0,3.75-2c.57-.34,1.1-.7,1.62-1.07a26.06,26.06,0,0,0,2.92-2.42l.08-.07a23.11,23.11,0,0,0,2-2.31c6.79-8.75,5.59-20.83-3.92-28.18-.39-.3-.78-.59-1.2-.87q-24.76-16.9-49.5-33.87l-2.44-1.67-1.49-1L298.43,296Z"/><path class="cls-4" d="M367.51,387.33c-.26.07-.51.14-.77.19"/><path class="cls-2" d="M376.23,349.26c.42.28.81.57,1.2.87-.39-.3-.78-.59-1.2-.87q-24.76-16.9-49.5-33.87l-2.44-1.67,2.44,1.67Q351.47,332.34,376.23,349.26Z"/><path class="cls-1" d="M324.29,313.72l2.44,1.67q24.74,17,49.5,33.87l.43.3-.43-.3q-24.76-16.9-49.5-33.87l-2.44-1.67Zm52.37,35.84.77.57-.77-.57Z"/><path class="cls-4" d="M305.1,312.7l43,65.5a29.1,29.1,0,0,0,4.1,5"/><path class="cls-2" d="M370.94,386.14a30.75,30.75,0,0,0,3.75-2c.57-.34,1.1-.7,1.62-1.07-.52.37-1.05.73-1.62,1.07A30.75,30.75,0,0,1,370.94,386.14Z"/><path class="cls-1" d="M376.31,383.11c-.49.34-1,.68-1.52,1,.53-.33,1-.67,1.52-1Zm-1.52,1-.1.06-.34.21.34-.21.1-.06Zm-.44.27a32.49,32.49,0,0,1-3.41,1.75,32.49,32.49,0,0,0,3.41-1.75Z"/><path class="cls-2" d="M379.23,380.69a26.06,26.06,0,0,1-2.92,2.42A26.06,26.06,0,0,0,379.23,380.69Z"/><path class="cls-1" d="M379.23,380.69a26.06,26.06,0,0,1-2.92,2.42,26.06,26.06,0,0,0,2.92-2.42Z"/><path class="cls-4" d="M381.35,378.31a23.11,23.11,0,0,1-2,2.31"/><path class="cls-2" d="M402.35,305.9a17.53,17.53,0,0,1-3.49-.36c-24-4.91-48.47-10-72.12-15l-24.61-5.14v-2.51l.13-.13a1.21,1.21,0,0,1,.26-.23l11.23-2.06c26.73-4.9,54.36-10,81.55-14.88a21.25,21.25,0,0,1,3.68-.32c7.61,0,15.28,4.06,18.23,9.67,3.9,7.41,2.31,20.2-3.2,25.82a16.13,16.13,0,0,1-11.66,5.11Z"/><path class="cls-1" d="M399,265.67c7.48,0,15,4,17.89,9.47,3.84,7.29,2.29,19.87-3.13,25.39a15.73,15.73,0,0,1-11.39,5,16.76,16.76,0,0,1-3.41-.36c-24-4.91-48.43-10-72.07-14.95l-24.36-5.09v-2.06l0,0,.14-.14,11.63-2.13c26.57-4.87,54-9.9,81.07-14.79a20.37,20.37,0,0,1,3.61-.32m0-.75a21.43,21.43,0,0,0-3.75.33q-46.39,8.4-92.77,16.94c-.25,0-.45.35-.7.56v3c32.58,6.79,64.78,13.57,97,20.17a18.32,18.32,0,0,0,3.56.37,16.43,16.43,0,0,0,11.92-5.22c5.74-5.85,7.22-18.75,3.27-26.27-3.07-5.83-10.84-9.87-18.56-9.87Z"/><path class="cls-2" d="M239.36,410.89a21.57,21.57,0,0,1-6.61-1.14,27.93,27.93,0,0,1-3.6-1.45l-1.35-.69c-.65-.36-1.3-.75-1.92-1.15-.8-.53-1.44-1-2-1.44a22.53,22.53,0,0,1-3.64-3.59,15.71,15.71,0,0,1-1.72-2.65,17.56,17.56,0,0,1-1.76-5.28,16.69,16.69,0,0,1-.18-2.11,15.66,15.66,0,0,1,2.8-9.15c13.92-20.81,28.2-41.89,42-62.27l12.08-17.84a5.65,5.65,0,0,1,.76-.84l.33-.34,2.36,1.31-18.92,91c0,.21-.09.41-.14.61l-.07.26a22.69,22.69,0,0,1-1,3.24c-.22.55-.45,1.1-.71,1.63a23.27,23.27,0,0,1-4.16,6.06,18.18,18.18,0,0,1-10.54,5.67,14.43,14.43,0,0,1-1.5.13Z"/><path class="cls-1" d="M274.61,301.41l1.87,1-2.1,10.1-3.3,15.9-3.92,18.83q-3.74,18-7.48,36l-.89,4.3-1.17,5.64-.15.62-.06.24a23.76,23.76,0,0,1-1,3.19c-.24.61-.47,1.13-.7,1.61a23,23,0,0,1-4.09,6,17.88,17.88,0,0,1-10.32,5.56,11.5,11.5,0,0,1-1.46.12h-.45a21.35,21.35,0,0,1-6.49-1.12,29.59,29.59,0,0,1-3.55-1.43l-1.34-.69c-.64-.35-1.28-.73-1.89-1.14-.8-.52-1.43-1-2-1.42a21.67,21.67,0,0,1-3.57-3.52,15.69,15.69,0,0,1-1.69-2.59,17.45,17.45,0,0,1-1.71-5.17,15.93,15.93,0,0,1-.19-2.06,15.29,15.29,0,0,1,2.74-8.94c14-20.84,28.25-42,42.09-62.38l4.7-6.94,2.34-3.45,5-7.33a5.91,5.91,0,0,1,.71-.79l.14-.14m-.14-.93a14.52,14.52,0,0,0-1.33,1.44q-3.64,5.4-7.3,10.78Q242.38,347.34,219.05,382a16.08,16.08,0,0,0-2.87,9.37,17.67,17.67,0,0,0,.19,2.16,18.47,18.47,0,0,0,1.79,5.39,17.3,17.3,0,0,0,1.77,2.72,22.8,22.8,0,0,0,3.7,3.64c.65.52,1.34,1,2,1.46s1.29.8,2,1.17c.45.25.91.48,1.37.7a28.4,28.4,0,0,0,3.65,1.47,22.09,22.09,0,0,0,6.72,1.16h.47a15.25,15.25,0,0,0,1.54-.12,18.55,18.55,0,0,0,10.76-5.79,24.16,24.16,0,0,0,4.23-6.15c.26-.54.5-1.1.72-1.66a25.77,25.77,0,0,0,1.06-3.29c.07-.29.15-.59.21-.88l2.07-9.94q3.74-18,7.48-36,3.6-17.32,7.21-34.73h0q1.11-5.31,2.21-10.64l-2.85-1.58Z"/><path class="cls-2" d="M258.14,394.25a25.77,25.77,0,0,1-1.06,3.29A25.77,25.77,0,0,0,258.14,394.25Z"/><path class="cls-1" d="M258.14,394.25a25,25,0,0,1-1.05,3.27,25,25,0,0,0,1.05-3.27Zm-1.05,3.27v0Z"/><path class="cls-2" d="M258.14,394.25c.07-.29.15-.58.21-.88l2.07-9.94-2.07,9.94C258.29,393.66,258.21,394,258.14,394.25Z"/><path class="cls-1" d="M260.42,383.43l-2.07,9.94c-.06.29-.14.59-.21.88.07-.29.15-.58.21-.88l2.07-9.94Z"/><path class="cls-2" d="M257.08,397.54c-.22.56-.46,1.12-.72,1.66C256.62,398.66,256.86,398.1,257.08,397.54Z"/><path class="cls-1" d="M257.08,397.54c-.22.56-.46,1.12-.72,1.66.26-.54.5-1.1.72-1.66Z"/><path class="cls-2" d="M267.9,347.43q3.6-17.32,7.21-34.73h0Q271.5,330.12,267.9,347.43Z"/><path class="cls-1" d="M275.11,312.7h0q-2.46,11.87-4.92,23.68,2.46-11.82,4.92-23.68Zm-4.92,23.68q-1.14,5.53-2.29,11.05,1.14-5.52,2.29-11.05Z"/><path class="cls-4" d="M239.83,411.26a21.66,21.66,0,0,1-7.19-1.15"/><path class="cls-4" d="M229,408.64c-.46-.22-.92-.45-1.37-.7"/><path class="cls-2" d="M216.37,393.56a18.47,18.47,0,0,0,1.79,5.39,17.3,17.3,0,0,0,1.77,2.72,17.3,17.3,0,0,1-1.77-2.72A18.47,18.47,0,0,1,216.37,393.56Z"/><path class="cls-1" d="M216.37,393.56a18.47,18.47,0,0,0,1.79,5.39,17.3,17.3,0,0,0,1.77,2.72,17.3,17.3,0,0,1-1.77-2.72,18.47,18.47,0,0,1-1.79-5.39Z"/><path class="cls-4" d="M225.67,406.77c-.7-.46-1.39-.94-2-1.46"/><path class="cls-2" d="M223.56,188.85c-4.9-7.44-5.08-17.87-.41-23.74,3.92-4.93,11.75-8.38,19-8.38a17.66,17.66,0,0,1,6.45,1.11c.39.15.77.31,1.13.48a16.12,16.12,0,0,1,2.57,1.48,15.11,15.11,0,0,1,2.08,1.72,18.84,18.84,0,0,1,5,10l3.44,17.68q6.36,32.75,12.76,65.48l2.09,10.69a5.43,5.43,0,0,0,.18.65l0,.18a2,2,0,0,1-1.06.3,2,2,0,0,0-1.48.61Z"/><path class="cls-1" d="M242.19,157.11a17.38,17.38,0,0,1,6.32,1.08c.37.14.75.3,1.1.47a15.93,15.93,0,0,1,2.52,1.45,15,15,0,0,1,2,1.68,18.52,18.52,0,0,1,4.85,9.83l2.25,11.57,1.19,6.11q6.36,32.74,12.77,65.48l.57,3,1.51,7.75c0,.19.09.37.15.56a2.52,2.52,0,0,1-.64.12,2.78,2.78,0,0,0-1.38.41l-5.64-8.52-2.53-3.82L264,249.35l-2.32-3.52-7.13-10.78L231,199.37l-.8-1.22-3.57-5.39-.88-1.33c-.62-.93-1.23-1.86-1.84-2.79-4.82-7.31-5-17.55-.44-23.3,3.85-4.85,11.57-8.23,18.75-8.23m0-.75c-7.18,0-15.24,3.37-19.34,8.52-4.79,6-4.62,16.54.4,24.18q1.37,2.06,2.72,4.11l4.38,6.61,30.73,46.47,5.56,8.39h0l8.74,13.2c.65-1.49,1.94-.46,3-1.49-.13-.45-.23-.73-.29-1Q277,260,276,254.64q-6.39-32.74-12.76-65.48-1.72-8.85-3.44-17.68a19.14,19.14,0,0,0-5.06-10.22,15.88,15.88,0,0,0-2.13-1.77,17.67,17.67,0,0,0-2.63-1.51c-.37-.18-.76-.34-1.15-.49a18.32,18.32,0,0,0-6.59-1.13Z"/><path class="cls-2" d="M261.08,246.25l5.55,8.39h0Z"/><path class="cls-1" d="M261.08,246.25c.34.5.67,1,1,1.51-.33-.51-.66-1-1-1.51Zm1,1.51,4.55,6.88h0l-4.56-6.88Z"/><path class="cls-2" d="M263.19,189.16q-1.72-8.85-3.44-17.68a19.14,19.14,0,0,0-5.06-10.22,19.14,19.14,0,0,1,5.06,10.22Q261.46,180.32,263.19,189.16Z"/><path class="cls-1" d="M254.69,161.26a16.57,16.57,0,0,1,2.88,3.89,16.57,16.57,0,0,0-2.88-3.89Zm2.88,3.89a22.21,22.21,0,0,1,2.18,6.33q1.71,8.84,3.44,17.68-1.72-8.85-3.44-17.68a22.21,22.21,0,0,0-2.18-6.33Z"/><path class="cls-2" d="M252.56,159.49a15.88,15.88,0,0,1,2.13,1.77A15.88,15.88,0,0,0,252.56,159.49Z"/><path class="cls-1" d="M252.56,159.49c.38.27.75.55,1.11.85-.36-.3-.73-.58-1.11-.85Zm1.11.85c.35.29.69.59,1,.92-.33-.33-.67-.63-1-.92Z"/><path class="cls-2" d="M226,193.17q-1.35-2.05-2.72-4.11c-5-7.64-5.19-18.15-.4-24.18,5.43-6.83,17.84-10.53,25.93-7.39.39.15.78.31,1.15.49-.37-.18-.76-.34-1.15-.49-8.09-3.14-20.5.56-25.93,7.39-4.79,6-4.62,16.54.4,24.18Q224.62,191.12,226,193.17Z"/><path class="cls-1" d="M242.19,156.36c-7.18,0-15.24,3.37-19.34,8.52-4.79,6-4.62,16.54.4,24.18q1.37,2.06,2.72,4.11-1.35-2.05-2.72-4.11c-5-7.64-5.19-18.15-.4-24.18,4.09-5.15,12.16-8.52,19.34-8.52a20.6,20.6,0,0,1,2.09.1,20.6,20.6,0,0,0-2.09-.1Zm2.09.1a17.94,17.94,0,0,1,3.34.63,17.94,17.94,0,0,0-3.34-.63Zm3.34.63c.39.12.78.25,1.16.4s.78.31,1.15.49c-.37-.18-.76-.34-1.15-.49s-.77-.28-1.16-.4Z"/><path class="cls-2" d="M249.93,158a17.67,17.67,0,0,1,2.63,1.51A17.67,17.67,0,0,0,249.93,158Z"/><path class="cls-1" d="M249.93,158a17.26,17.26,0,0,1,2.6,1.49,17.26,17.26,0,0,0-2.6-1.49Zm2.6,1.49,0,0,0,0Z"/><path class="cls-2" d="M283.28,265.67a3.17,3.17,0,0,1-1.45-.41l-12-64.53q-.87-4.65-1.72-9.3-1-5.16-1.91-10.29l-.39-2.09c-.3-1.62-.6-3.25-.91-4.88a24.75,24.75,0,0,1-.37-6.62c.47-5.94,3-11.39,6.78-14.58a14.09,14.09,0,0,1,1.65-1.22,16.61,16.61,0,0,1,2.87-1.39,24.67,24.67,0,0,1,8.54-1.46c.68,0,1.32,0,2,.07a29,29,0,0,1,3.19.4,26,26,0,0,1,4.3,1.18c.52.2,1,.41,1.53.64a17.76,17.76,0,0,1,3.72,2.26,15.6,15.6,0,0,1,5.7,15.93q-1.17,5.69-2.36,11.37l-.41,2c-2.74,13.14-5.74,27.41-9.46,44.93l-7.87,37.09a2.27,2.27,0,0,1-.18.49l-.06.15A2.63,2.63,0,0,1,283.28,265.67Z"/><path class="cls-1" d="M284.37,148.53v.75c.6,0,1.22,0,1.91.06a28.08,28.08,0,0,1,3.14.4,25.28,25.28,0,0,1,4.24,1.16c.51.2,1,.41,1.5.63a17.58,17.58,0,0,1,3.64,2.21,15.24,15.24,0,0,1,5.58,15.56l-2.19,10.52-.59,2.85c-2.75,13.18-5.75,27.46-9.46,44.92l-3,14.26-2.68,12.63-.52,2.45q-.82,3.88-1.64,7.75a2.51,2.51,0,0,1-.16.42v0a2.28,2.28,0,0,1-.83.17,2.6,2.6,0,0,1-1.12-.28l-.86-4.62-1.1-5.89L276,231.72q-2.9-15.51-5.79-31.06c-.58-3.12-1.15-6.24-1.73-9.37-.63-3.41-1.25-6.82-1.89-10.22l-.37-2c-.31-1.66-.61-3.32-.93-5a24.42,24.42,0,0,1-.36-6.52c.45-5.84,2.94-11.2,6.64-14.32a13.41,13.41,0,0,1,1.61-1.19,15.82,15.82,0,0,1,2.8-1.36,24.16,24.16,0,0,1,8.41-1.43l0-.75m0,0h0a24.74,24.74,0,0,0-8.67,1.48,17,17,0,0,0-2.94,1.42,15.68,15.68,0,0,0-1.69,1.25c-3.93,3.32-6.45,8.89-6.91,14.84a25.31,25.31,0,0,0,.37,6.72c.45,2.32.87,4.64,1.3,7,1.22,6.53,2.41,13.07,3.63,19.6q2.9,15.54,5.78,31.06,2.13,11.4,4.25,22.78c.68,3.62,1.36,7.25,2,10.86a3.55,3.55,0,0,0,1.79.54,3.11,3.11,0,0,0,1.41-.36,6.24,6.24,0,0,0,.32-.84l2.16-10.2h0q2.86-13.44,5.71-26.89,4.75-22.45,9.45-44.93,1.4-6.67,2.78-13.37a15.9,15.9,0,0,0-5.83-16.29,18.35,18.35,0,0,0-3.8-2.31c-.51-.23-1-.45-1.56-.65a25.94,25.94,0,0,0-4.36-1.2,29.37,29.37,0,0,0-3.23-.4c-.65,0-1.31-.07-2-.07Z"/><path class="cls-2" d="M305.11,169.45q-1.38,6.69-2.78,13.37,1.4-6.67,2.78-13.37a15.9,15.9,0,0,0-5.83-16.29,18.09,18.09,0,0,0-3.8-2.31,18.35,18.35,0,0,1,3.8,2.31A15.9,15.9,0,0,1,305.11,169.45Z"/><path class="cls-1" d="M295.48,150.85a18.35,18.35,0,0,1,3.8,2.31,15.9,15.9,0,0,1,5.83,16.29q-1.31,6.35-2.63,12.68,1.32-6.33,2.63-12.68a15.9,15.9,0,0,0-5.83-16.29,18.09,18.09,0,0,0-3.8-2.31Zm7,31.28-.15.69.15-.69Z"/><path class="cls-2" d="M265.8,181.2c1.22,6.53,2.41,13.07,3.63,19.6q2.9,15.54,5.78,31.06-2.88-15.51-5.78-31.06C268.21,194.27,267,187.73,265.8,181.2Z"/><path class="cls-1" d="M265.8,181.2q.65,3.44,1.27,6.85-.63-3.42-1.27-6.85Zm1.27,6.85c.79,4.25,1.56,8.5,2.36,12.75q2.9,15.54,5.78,31.06-2.88-15.51-5.78-31.06-1.19-6.37-2.36-12.75Z"/><path class="cls-2" d="M271,152.68c-3.93,3.32-6.45,8.89-6.91,14.84C264.59,161.57,267.11,156,271,152.68Z"/><path class="cls-1" d="M271,152.68c-3.92,3.31-6.43,8.86-6.91,14.8.48-5.94,3-11.49,6.91-14.8Zm-6.91,14.8v0Z"/><path class="cls-4" d="M284.34,148.53c.66,0,1.32,0,2,.07"/><path class="cls-2" d="M287.17,254.64h0q2.86-13.44,5.71-26.89-2.85,13.44-5.71,26.89Z"/><path class="cls-1" d="M292.88,227.75c-.1.48-.21,1-.31,1.45.1-.48.21-1,.31-1.45Zm-.31,1.45-5.4,25.44h0l5.4-25.44Z"/><path class="cls-4" d="M289.56,149a25.94,25.94,0,0,1,4.36,1.2"/><path class="cls-2" d="M167.86,303.07c-7.56,0-14.72-3.43-17.83-8.53-4.4-7.22-3.32-20,2.23-26.28a15.94,15.94,0,0,1,12.19-5.67A18.5,18.5,0,0,1,168,263c24.09,4.75,48.56,9.69,72.22,14.46L263.09,282c.36.07.72.18,1.09.29l.31.09v2.7l-60.94,11.6-9.5,1.8c-7.06,1.34-14.36,2.71-21.53,4.12a24,24,0,0,1-4.66.45Z"/><path class="cls-1" d="M164.45,263a17.8,17.8,0,0,1,3.51.36c24.09,4.74,48.56,9.69,72.23,14.46L263,282.39c.34.07.69.17,1.06.28h0v2.11l-19.29,3.67-41.35,7.87-9.55,1.81c-7,1.33-14.33,2.71-21.48,4.11a24,24,0,0,1-4.59.44c-7.43,0-14.47-3.35-17.51-8.34-4.33-7.1-3.26-19.66,2.19-25.84A15.57,15.57,0,0,1,164.45,263m0-.75A16.25,16.25,0,0,0,152,268c-5.75,6.52-6.72,19.43-2.27,26.73,3.27,5.36,10.62,8.7,18.15,8.7a25.09,25.09,0,0,0,4.73-.45c10.33-2,20.68-3.95,31-5.92l61.25-11.66v-3.29c-.61-.17-1.15-.35-1.71-.47-31.68-6.38-63.35-12.82-95.06-19.07a18.45,18.45,0,0,0-3.65-.37Z"/><path class="cls-2" d="M282.06,419.55c-.62,0-1.23,0-1.85-.09-5.16-.42-9.87-2.18-12.92-4.84a17.36,17.36,0,0,1-3.86-4.76,15.06,15.06,0,0,1-1.08-2.52,16.36,16.36,0,0,1-.4-8.4c3.58-18,7.22-35.93,10-49.56l9.17-45c.08-.37.19-.73.29-1.07l.07-.27a4,4,0,0,1,1.33-.25,3.45,3.45,0,0,1,1.44.33l11.64,60.48,3.41,17.85q1.24,6.51,2.53,13a24.49,24.49,0,0,1-1.44,14.12,17.09,17.09,0,0,1-6.67,8.25,22.09,22.09,0,0,1-11.19,2.72Z"/><path class="cls-1" d="M282.81,303.17a3,3,0,0,1,1.11.22l1.82,9.46,1,5.26q4.38,22.72,8.77,45.56l.48,2.51.33,1.73,2.22,11.61.38,2c.89,4.63,1.69,8.8,2.53,13a24.24,24.24,0,0,1-1.41,13.9,16.72,16.72,0,0,1-6.52,8.07,21.58,21.58,0,0,1-11,2.68h-.47c-.6,0-1.21,0-1.82-.09-5.08-.41-9.71-2.13-12.7-4.74a17,17,0,0,1-3.78-4.66,14.49,14.49,0,0,1-1.06-2.46,16.14,16.14,0,0,1-.39-8.2c3.53-17.68,7-35,10-49.57q2.35-11.58,4.72-23.17l2.74-13.43.71-3.47,1-4.92c.07-.35.18-.71.28-1l0-.08a3.53,3.53,0,0,1,1-.16m0-.75a4.47,4.47,0,0,0-1.63.33c-.13.46-.31,1-.42,1.56l-1.71,8.39-7.47,36.6q-5,24.78-10,49.57a16.75,16.75,0,0,0,.41,8.59A15.8,15.8,0,0,0,263.1,410a17.46,17.46,0,0,0,3.95,4.86c3.28,2.86,8.15,4.53,13.13,4.93.63.05,1.25.08,1.87.09h.48a22.37,22.37,0,0,0,11.38-2.78,17.61,17.61,0,0,0,6.83-8.43,25,25,0,0,0,1.45-14.33q-1.28-6.51-2.52-13-1.31-6.81-2.6-13.61c-.28-1.41-.54-2.83-.82-4.25q-4.89-25.45-9.77-50.82h0c-.63-3.28-1.27-6.57-1.9-9.84a4,4,0,0,0-1.77-.44Z"/><path class="cls-2" d="M296.25,363.52c.28,1.42.54,2.84.82,4.25-.28-1.41-.54-2.83-.82-4.25q-4.89-25.45-9.77-50.82h0Q291.36,338.05,296.25,363.52Z"/><path class="cls-1" d="M286.48,312.7h0q4.88,25.35,9.77,50.82c.28,1.42.54,2.84.82,4.25-.28-1.41-.54-2.83-.82-4.25q-4.89-25.45-9.77-50.82Z"/><path class="cls-2" d="M261.58,398.87q4.94-24.8,10-49.57-5,24.78-10,49.57a16.75,16.75,0,0,0,.41,8.59A16.75,16.75,0,0,1,261.58,398.87Z"/><path class="cls-1" d="M271.58,349.3q-5,24.78-10,49.57a16.75,16.75,0,0,0,.41,8.59,16.75,16.75,0,0,1-.41-8.59q4.94-24.8,10-49.57Z"/><path class="cls-4" d="M262,407.46A15.8,15.8,0,0,0,263.1,410"/><path class="cls-2" d="M299.67,381.38q1.24,6.5,2.52,13a25,25,0,0,1-1.45,14.33,25,25,0,0,0,1.45-14.33Q300.91,387.88,299.67,381.38Z"/><path class="cls-1" d="M299.67,381.38l.1.52-.1-.52Zm.1.52q1.2,6.25,2.42,12.49a25,25,0,0,1-1.45,14.33,25,25,0,0,0,1.45-14.33q-1.23-6.24-2.42-12.49Z"/><path class="cls-2" d="M283.31,299.52a15.66,15.66,0,0,1-11.07-5,14.3,14.3,0,0,1-4.2-10.25c.32-9,6.53-15.22,15.11-15.22h.44c8.81.21,14.71,6.21,15.05,15.29a14,14,0,0,1-4.18,10.17,15.67,15.67,0,0,1-11.12,5Z"/><path class="cls-1" d="M283.15,269.34h.43c8.67.21,14.48,6.12,14.81,15a13.74,13.74,0,0,1-4.11,10,14.68,14.68,0,0,1-21.86,0,14.06,14.06,0,0,1-4.13-10.07c.31-8.82,6.43-15,14.86-15m0-.5c-8.79,0-15,6.41-15.36,15.47-.29,8.08,7.38,15.44,15.52,15.46h0c8.13,0,15.84-7.31,15.55-15.39-.34-9.18-6.26-15.31-15.29-15.53Z"/><path class="cls-2" d="M182.89,215.4v0l0,0,.09-.06h0Z"/><path class="cls-1" d="M183,215.38l-.12,0v0l0,0,.09-.06Z"/><polygon class="cls-2" points="182.89 215.4 182.89 215.4 182.88 215.39 182.88 215.39 182.89 215.4"/><polygon class="cls-1" points="182.88 215.39 182.88 215.39 182.89 215.4 182.89 215.4 182.88 215.39 182.88 215.39"/><path class="cls-2" d="M183,215.38h-.12Z"/><path class="cls-1" d="M183,215.38h-.12l.12,0h0Z"/><path class="cls-2" d="M182.89,215.4v0Z"/><path class="cls-1" d="M182.89,215.4h0v0Z"/><path class="cls-2" d="M219.48,163h0l0,.09,0,.06.14,0Z"/><path class="cls-1" d="M219.48,163l0,.09,0,.06.14,0-.07-.1Z"/><path class="cls-2" d="M219.55,163.08l-.14,0h0a.84.84,0,0,1,.14-.06Z"/><path class="cls-1" d="M219.55,163.08l-.14,0h0a.84.84,0,0,1,.14-.06Z"/><path class="cls-2" d="M219.48,163h0a.36.36,0,0,0,0,.09l0-.09Z"/><path class="cls-1" d="M219.48,163a.36.36,0,0,0,0,.09l0-.09Zm0,0Z"/><path class="cls-2" d="M385.69,218.11h-.12l.07.08h0Z"/><path class="cls-1" d="M385.69,218.11h-.12l.07.08h0l.05-.09Z"/><path class="cls-2" d="M385.7,218.11h0l-.05.09h0Z"/><path class="cls-1" d="M385.7,218.11h0l-.05.09h0l.06-.09Z"/><path class="cls-2" d="M385.57,218.12Z"/><path class="cls-1" d="M385.59,218.12h0Z"/><path class="cls-2" d="M214.12,384l0,.14.08,0-.06-.1Z"/><path class="cls-1" d="M214.12,384l0,.14.08,0-.06-.1Z"/><path class="cls-2" d="M214.12,384h0c0,.05,0,.1,0,.14h0l0-.14Z"/><path class="cls-1" d="M214.12,384c0,.05,0,.1,0,.14h0l0-.14Z"/><path class="cls-1" d="M418,301.89l.84-1.41c.84.82,1,1.5-.18,2Q418.28,302.21,418,301.89Z"/><path class="cls-5" d="M219.55,163.08l.44-.68c.4.74.17.86-.51.58Z"/><path class="cls-5" d="M385.57,218.12l-.28.29.35-.21Z"/><path class="cls-5" d="M182.92,215.45l.6.42c-.44.09-.92.26-.51-.49Z"/><path class="cls-5" d="M162.39,348.61l-.81-.61c.69-.78.94-.11,1.28.18Z"/><path class="cls-5" d="M214.18,384.1l.59-.5c0,.45,0,1-.65.4Z"/><path class="cls-5" d="M215.71,401.4c.27.45,1,.84.19,1.43l.07-.1a.86.86,0,0,1-1-.81A3.64,3.64,0,0,1,215.71,401.4Z"/><path class="cls-5" d="M215.9,402.83c.67-.47.87-.23.75.79l-.68-.89Z"/></g></svg>