<?xml version="1.0" encoding="UTF-8"?>
<svg id="uuid-d8cfda8c-5937-4f24-8cf3-bba57b2bbcb2" data-name="Capa 2" xmlns="http://www.w3.org/2000/svg" viewBox="0 0 566.93 566.93">
  <defs>
    <style>
      .uuid-7c83afc8-3a5f-4507-a051-8d8843391260 {
        fill: #4d6f38;
      }

      .uuid-16356d5b-bd17-4003-bc5a-d7feb4c094e3 {
        fill: #a22428;
      }

      .uuid-69cd68d8-8c77-4374-b99d-cfdd37bfe17d {
        fill: #f4f6e7;
      }
    </style>
  </defs>
  <circle class="uuid-69cd68d8-8c77-4374-b99d-cfdd37bfe17d" cx="283.46" cy="283.46" r="269.29"/>
  <g>
    <path class="uuid-7c83afc8-3a5f-4507-a051-8d8843391260" d="M528.88,283.47c0-127.51-103.3-231.34-230.61-232.23v36.34c107.27.89,194.26,88.41,194.26,195.89s-87,195-194.26,195.88v36.34c127.31-.89,230.61-104.71,230.61-232.23Z"/>
    <path class="uuid-7c83afc8-3a5f-4507-a051-8d8843391260" d="M270.3,479.37c-108.02,0-195.91-87.88-195.91-195.91s87.88-195.91,195.91-195.91c.55,0,1.09.02,1.64.02v-36.34c-.55,0-1.09-.02-1.64-.02-128.06,0-232.25,104.19-232.25,232.25s104.19,232.25,232.25,232.25c.55,0,1.09-.02,1.64-.02v-36.34c-.55,0-1.09.02-1.64.02Z"/>
  </g>
  <g>
    <circle class="uuid-16356d5b-bd17-4003-bc5a-d7feb4c094e3" cx="283.46" cy="283.46" r="53.15"/>
    <g>
      <g>
        <path class="uuid-16356d5b-bd17-4003-bc5a-d7feb4c094e3" d="M110.51,306.03l22.21-22.49-23.77-23.59c-1.92,16.16-1.04,31.66,1.55,46.08Z"/>
        <path class="uuid-16356d5b-bd17-4003-bc5a-d7feb4c094e3" d="M154.58,166.95c-21.72,23.41-34.44,47.08-40.98,69.91l46.89,46.54-44.44,45c13.44,42.76,38.81,71.58,38.54,71.58,144.75-120.63,0-233.03,0-233.03Z"/>
      </g>
      <g>
        <path class="uuid-16356d5b-bd17-4003-bc5a-d7feb4c094e3" d="M456.42,260.9l-22.21,22.49,23.77,23.59c1.92-16.16,1.04-31.66-1.55-46.08Z"/>
        <path class="uuid-16356d5b-bd17-4003-bc5a-d7feb4c094e3" d="M412.35,399.98c21.72-23.41,34.44-47.08,40.98-69.91l-46.89-46.54,44.44-45c-13.44-42.76-38.81-71.58-38.54-71.58-144.75,120.63,0,233.03,0,233.03Z"/>
      </g>
      <g>
        <path class="uuid-16356d5b-bd17-4003-bc5a-d7feb4c094e3" d="M261.38,110.51l22.49,22.21,23.59-23.77c-16.16-1.92-31.66-1.04-46.08,1.55Z"/>
        <path class="uuid-16356d5b-bd17-4003-bc5a-d7feb4c094e3" d="M400.46,154.58c-23.41-21.72-47.08-34.44-69.91-40.98l-46.54,46.89-45-44.44c-42.76,13.44-71.58,38.81-71.58,38.54,120.63,144.75,233.03,0,233.03,0Z"/>
      </g>
      <g>
        <path class="uuid-16356d5b-bd17-4003-bc5a-d7feb4c094e3" d="M306.03,456.42l-22.49-22.21-23.59,23.77c16.16,1.92,31.66,1.04,46.08-1.55Z"/>
        <path class="uuid-16356d5b-bd17-4003-bc5a-d7feb4c094e3" d="M166.95,412.35c23.41,21.72,47.08,34.44,69.91,40.98l46.54-46.89,45,44.44c42.76-13.44,71.58-38.81,71.58-38.54-120.63-144.75-233.03,0-233.03,0Z"/>
      </g>
    </g>
  </g>
</svg>