<svg xmlns="http://www.w3.org/2000/svg" viewBox="0 0 566.93 566.93"><defs><style>.cls-1{fill:#fff;}.cls-2{fill:#cc1333;}.cls-3{fill:#feffff;}.cls-4{fill:#f18b6c;}.cls-5{fill:#e31316;}</style></defs><title>O-Yoroi Kidobutai</title><g id="Capa_2" data-name="Capa 2"><ellipse class="cls-1" cx="283.46" cy="283.46" rx="279.21" ry="277.77"/><ellipse class="cls-1" cx="283.46" cy="283.46" rx="279.21" ry="277.77"/><ellipse class="cls-1" cx="283.46" cy="283.46" rx="279.21" ry="277.77"/></g><g id="Capa_1" data-name="Capa 1"><path class="cls-2" d="M284,85.08c100.14.24,182.84,73.86,196.81,169.56h69C535.27,121.21,421.38,17,283.46,17S31.66,121.21,17.16,254.64H86.1C100,158.86,183.64,84.84,284,85.08Z"/><path class="cls-2" d="M283.46,550c138,0,252-104.37,266.34-237.94h-69c-13.93,96.33-97,170.07-197.53,169.84-100.68-.23-183-73.53-197-169.84H17.13C31.5,445.58,145.45,550,283.46,550Z"/><path class="cls-2" d="M553.84,312a267.82,267.82,0,0,1-78.13,162.71,272.87,272.87,0,0,1-384.49,0A267.77,267.77,0,0,1,13.09,312H4.25c14.37,140.8,133.9,250.67,279.21,250.67S548.3,452.81,562.68,312Z"/><path class="cls-2" d="M283.46,13A270.78,270.78,0,0,1,475.71,92.21a267.84,267.84,0,0,1,78.1,162.43h8.84C548.14,114,428.69,4.25,283.46,4.25S18.78,114,4.28,254.64h8.84A267.84,267.84,0,0,1,91.22,92.21,270.78,270.78,0,0,1,283.46,13Z"/><path class="cls-3" d="M283.46,553.94a270.78,270.78,0,0,0,192.25-79.22A267.82,267.82,0,0,0,553.84,312h-4C535.43,445.58,421.48,550,283.46,550S31.5,445.58,17.13,312h-4A267.77,267.77,0,0,0,91.22,474.72,270.78,270.78,0,0,0,283.46,553.94Z"/><path class="cls-3" d="M283.46,17c137.92,0,251.81,104.23,266.31,237.66h4a267.84,267.84,0,0,0-78.1-162.43,272.87,272.87,0,0,0-384.49,0,267.84,267.84,0,0,0-78.1,162.43h4C31.66,121.21,145.55,17,283.46,17Z"/><path class="cls-1" d="M130.81,91.63l9.37-6.38-1.64-2.38,4.83-3.29L145,82l8.4-5.72L157,81.51l-8.4,5.72,1.69,2.47,5.34-3.64a12.22,12.22,0,0,1,5.89-2.1,10,10,0,0,1,4.86,1,9.63,9.63,0,0,1,3.54,3,10.66,10.66,0,0,1,1.91,4.53,9.34,9.34,0,0,1-.73,4.76,10.3,10.3,0,0,1-4,4.57L163,104.6l-3.65-5.31,4.37-3a3.18,3.18,0,0,0,1.17-1.44,3.42,3.42,0,0,0-.16-2.38,3.51,3.51,0,0,0-1.59-2,4,4,0,0,0-1.55-.6,2.44,2.44,0,0,0-1.66.33l-6.34,4.32,2.24,3.26a9.14,9.14,0,0,1,1.9,6.8c-.33,2.27-1.71,4.2-4.16,5.78a9.11,9.11,0,0,1-5,1.77,8.11,8.11,0,0,1-4.69-1.13,10.82,10.82,0,0,1-3.34-3.15,10.19,10.19,0,0,1-1.64-4.13,8.45,8.45,0,0,1,.56-4.7,11.47,11.47,0,0,1,4-4.64l2-1.38-1.69-2.46-9.37,6.37ZM147,99.05a4.75,4.75,0,0,0-1.66,1.93,3,3,0,0,0-.24,1.85,4.46,4.46,0,0,0,.62,1.44,4.65,4.65,0,0,0,1.17,1.17,3.63,3.63,0,0,0,1.57.62,2.19,2.19,0,0,0,1.61-.4,3,3,0,0,0,1-4.61l-2.24-3.26Zm10-21.38a3.36,3.36,0,0,1-.52-2.69A3.69,3.69,0,0,1,158,72.63,3.75,3.75,0,0,1,160.8,72a3.44,3.44,0,0,1,2.85,4.14,3.94,3.94,0,0,1-4.41,3A3.38,3.38,0,0,1,156.91,77.67Z"/><path class="cls-1" d="M200.75,39.85l6-2.46L211,47.69,185.88,58l-1-2.38-.83,3.57,1,2.48-4.61,1.89,1.59,3.84,5.36-2.2-1.82-4.4,27.28-11.2,2.06,5L187.71,65.74l1.81,4.35-5.41,2.22L189,84.06q2.19-1.5,4.54-3.4l1.64,3.16,5.41-2.22c-1.19-1.63-2.2-3-3-4l-2.35,1-4.7-11.33,23.71-9.73,4.7,11.32-2.31,1a48.48,48.48,0,0,1,.41,5.09l5.64-2.32,2.12,5.11L196.43,89.27,195.09,86a144.45,144.45,0,0,1-14.46,9.88l-2.73-4.74q2.85-1.61,6.09-3.76l-5.34-12.87L172.72,77l-2-4.92,5.92-2.43L175,65.8l-3.29,1.35-.62-1.49c-.75,1.65-1.35,2.87-1.8,3.63l-3.63-5.57a41,41,0,0,0,4-11.67L175,49.86a40.65,40.65,0,0,0,9,3.56l-2.37-5.71,6-2.46,2.31,5.57,3.53-1.45-2.87-6.92,6.11-2.51,2.88,6.92,3.52-1.44Zm-28,21.25L180.41,58a48.06,48.06,0,0,1-6.14-3.12A45.75,45.75,0,0,1,172.74,61.1Zm1,18.39,3.39-2.44a95.17,95.17,0,0,1,5.41,7.86l-3.4,2.43Q176.49,83.28,173.71,79.49ZM188,80.72q-.66-4.22-1.53-7.92l3.89-1q.85,3.81,1.62,8.15Zm11.52-8.84L211,67.17l-1.18-2.86L198.38,69Zm11.12,5.57c-.06-2-.17-3.73-.31-5.13L203.88,75q2,2.64,2.94,4Z"/><path class="cls-1" d="M237.18,37.2l4.91-.43-.72-8.07,5.93-.53.72,8.07,1.83-.16c-.11-.13-.28-.29-.48-.49s-.36-.35-.47-.44l3-3.93c.6.65,1.09,1.15,1.46,1.49.75-1.89,1.46-4,2.15-6.19l4.53,1a93.78,93.78,0,0,1-3.4,8.79c.16.19.37.44.66.73a7,7,0,0,1,.59.69c1.08-2.44,2.15-5.07,3.23-7.91l2.45.54c0-.37-.1-1-.19-1.76s-.15-1.41-.19-1.81l5.48-.49c.18,2.05.34,3.58.46,4.58l1.29-1.64c.26.25.65.68,1.18,1.27.86-2.24,1.49-4.1,1.9-5.56l4.54,1q-1.55,4.56-3.1,8.21L276,35.22c1.33-3.06,2.38-5.6,3.15-7.6l4.54,1c-1.05,2.77-2.25,5.63-3.63,8.56l2.77-1.06q1.59,4.63,3.3,11.09l-3.85,1.51-.48-1.88-2,.33c.23.35.58.9,1,1.66s.73,1.2.81,1.32l4.66-.41L286.8,55l-7.05.63,3.48,1.77a30.81,30.81,0,0,1-3.51,5.25q1.57,1.68,2.34,1.62c.68-.06,1.11-2,1.31-5.91l4.68,2q-.36,10.2-4.77,10.59-3.5.31-7.58-4.15a38.13,38.13,0,0,1-9.24,5.8l-3.12-4.65.78-.4c.26-.14.55-.29.88-.44s.57-.26.73-.34A19.92,19.92,0,0,1,261,64.16a22.73,22.73,0,0,1-4.28,9.33L251.62,70a19.38,19.38,0,0,0,4.16-12.32l-3.8.34-.18-2c-.25-.48-.64-1.19-1.19-2.13s-.94-1.64-1.19-2.13l2,22.19-5.93.53L244,57.79A32.9,32.9,0,0,1,241.46,65l-3.32-6.21a51,51,0,0,0,4.45-16.46l-4.92.44Zm11.65,4.56c.08.13,1.14,1.76,3.2,4.9l1.51-.24c.47-.85,1.18-2.19,2.14-4-.61-.72-1.65-1.89-3.12-3.48l.22,2.47Zm18.95,9.65q-.13-.39-.42-1.29l-2.78,1c-.05-.2-.12-.5-.21-.92s-.16-.72-.21-.92L254.77,51l.95,1.44ZM263,45c-.09-.23-.28-.91-.59-2s-.55-1.95-.73-2.48q-1.47,3-2.61,5.12Zm5.26,20.37a27.56,27.56,0,0,0,4.21-3.12,46.43,46.43,0,0,1-2.86-5.74l-7.91.7a5,5,0,0,1,0,.56,4.93,4.93,0,0,0,0,.56,20.63,20.63,0,0,0,7.6,3.85Zm-3.48-26.73c-.3-1.5-.52-2.71-.63-3.65q-.63,1.53-2,4.6ZM271.45,44l.31,0c.46-.89,1.15-2.2,2.05-3.94-.3-.28-.72-.73-1.25-1.34s-1-1.18-1.5-1.7l-1.28-1.38Q270.37,39.22,271.45,44Zm2,6.93,3.44-.3c-.39-.58-.94-1.43-1.66-2.55l-2.51.48C273,49.62,273.28,50.41,273.46,50.9ZM276.54,58a15.81,15.81,0,0,0,1.54-2.22l-2.53.22C275.71,56.31,276.05,57,276.54,58Zm4-15.4c0-.1-.44-1.35-1.2-3.76q-.69,1.49-2.22,4.32Z"/><path class="cls-1" d="M297.37,27.59a224.8,224.8,0,0,0,23.89,1.16l-.06,5.15q-4.68,0-8.77-.16l-.37,2.61,8.62,1.21-.16,1.11,4.08.57c.35-2,.86-5.33,1.53-10l5.94.84q-.76,5.41-1.57,10l10.83,1.52-.58,4.07q-1.08,7.67-1.84,12.44c-.51,3.19-1.05,6-1.64,8.41s-1.07,4.21-1.47,5.34a6.57,6.57,0,0,1-1.64,2.66,3.59,3.59,0,0,1-2,1.06,11.31,11.31,0,0,1-2.48-.12,61.22,61.22,0,0,1-6.87-1.53l.69-5.94a43.24,43.24,0,0,0,5,1.22,1,1,0,0,0,.8-.25,3.84,3.84,0,0,0,.79-1.39,23.75,23.75,0,0,0,.93-3.27c.33-1.46.7-3.42,1.12-5.9s.89-5.56,1.42-9.24l.41-2.91-4.53-.63a96.71,96.71,0,0,1-5.05,17.8,39.26,39.26,0,0,1-7,11.22l-3.05-2.78q-11.43-.22-23.94-1.47l.38-5.22,10.31.89.3-2.16L292,62.58l.66-4.67,9.38,1.32.27-1.9-3.08-.43-5.54-.78,2.19-15.39,8.61,1.21.27-1.86-9.73-1.37.67-4.66,9.72,1.37.3-2.1c-2.92-.21-5.84-.47-8.78-.78Zm2.78,23.14-.31,2.16,3.23.45.3-2.16Zm.43-3,3.22.46.31-2.21-3.22-.45Zm7.18,18.86q3.67.26,8,.41,4.77-7.11,7.79-22.22l-4.23-.6-2.17,15.24L309,58.26l-.27,1.9,8,1.12L316,65.94l-8-1.12Zm1.56-12.36,3.17.45.31-2.16-3.18-.45Zm.73-5.17,3.17.45.32-2.2-3.18-.45Zm1.08-6.18L318.84,44l.27-1.85L311.4,41Z"/><path class="cls-1" d="M347.64,79.19,347,80.94l-6.22-2.4L348,60l21.21,8.2L362,86.73,356,84.44l.68-1.74Zm-.46-22.87,2-5.2L354,53c.37-2.71.71-5.59,1-8.62l-2.37-.92,2-5,8.64,3.33,1.6-4.1,6.31,2.43-1.6,4.11,9,3.46-2,5-2.18-.84a82.72,82.72,0,0,1-5.1,7l4.7,1.81-2,5.19ZM358.6,77.83l2.69-6.89-9.06-3.5-2.69,6.89Zm5.12-21.1a68,68,0,0,0,5.1-7l-8-3.1c-.32,3.24-.69,6.11-1.11,8.58Zm23.95,11.65a16.48,16.48,0,0,1,1.84,6.76,16,16,0,0,1-1.05,6.74c-1.16,3-2.58,4.89-4.24,5.69s-3.76.72-6.29-.26l-3-1.17.94-5.77,1,.4c1.78.69,3,.92,3.77.7s1.37-1,1.89-2.31q1.95-5-1.46-13.06a66.18,66.18,0,0,0,10.07-10.39l-5.74-2.22L371.05,90.25l-6-2.33L381.3,46.25l17.93,6.93-1.92,4.91A78,78,0,0,1,387.67,68.38Z"/><path class="cls-1" d="M410.14,112.71q-2.59-1.78-7.4-5.37l2.61-4a50.5,50.5,0,0,1-7.91-.44l1-5.89q11.13,1.83,19.74-.51a19,19,0,0,0,.69-2.79,46.56,46.56,0,0,1-13.67.48q-3.35,2.33-7.74-.68l-.76-.52,2-5.07.59.41a2.78,2.78,0,0,0,2.3.68,5.38,5.38,0,0,0,2.18-2.17,10.36,10.36,0,0,0,1.73-3.88,20.39,20.39,0,0,0,.05-5.4L390.29,99.62l-5.12-3.5,25.45-36.84,14.09,9.64-2.91,4.21a.23.23,0,0,0-.13.1.22.22,0,0,1-.12.1l3.56,2.43q.54-2.64.91-5.34l6.06,1.87q-.43,3.21-1.39,7.29l4.36,3a49.26,49.26,0,0,0,6.83-3.81L446,83.42a42,42,0,0,1-5.25,3l5.49,3.76-3.09,4.46-7.55-5.16a80,80,0,0,0-3.44,7.22c2.07-.38,4-.84,5.89-1.37l.44,5.7a54.1,54.1,0,0,1-8.43,1.92,35.73,35.73,0,0,0-1.36,13.69L422.63,120a42.25,42.25,0,0,1,1-16,70.54,70.54,0,0,1,7.09-17.86l-1.43-1a26.87,26.87,0,0,1-3.58.62,33.89,33.89,0,0,1-6,21.89q-3.24,4.68-5.23,5.65T410.14,112.71Zm5.56-10.64a42.24,42.24,0,0,1-9.43,1.23q2.78,2.15,4.41,3.27a1.33,1.33,0,0,0,1.46.13,10.6,10.6,0,0,0,2.31-2.72C415,103.17,415.42,102.54,415.7,102.07Zm1.24-32.26L412.83,67l-6.49,9.39A58.94,58.94,0,0,0,416.94,69.81Zm2.44,18.8c0-1.06,0-1.9,0-2.51a55.43,55.43,0,0,1-7.78-.89l.77-5.5A45.37,45.37,0,0,0,423,80.89l-6.21-4.25a51.53,51.53,0,0,1-5.93,3.5,18.82,18.82,0,0,1-1.54,8.66A38.56,38.56,0,0,0,419.38,88.61Z"/><path class="cls-1" d="M76,346.91a7.37,7.37,0,0,1-.38,4.77,12.34,12.34,0,0,1-2.75,4,17.74,17.74,0,0,1-3.92,2.91,19.88,19.88,0,0,1-4.57,1.81,20.91,20.91,0,0,1-6.51.66,14.64,14.64,0,0,1-6.27-1.78,8.37,8.37,0,0,1-4-4.92l-4.45-16.74a8.21,8.21,0,0,1,1-6.27,13.83,13.83,0,0,1,4.6-4.62,22.1,22.1,0,0,1,6-2.59,21.51,21.51,0,0,1,6.5-.68,14.54,14.54,0,0,1,6.3,1.76,8.07,8.07,0,0,1,4,4.92l.25.91,4,14.92Zm-22.42,4.15a4.6,4.6,0,0,0,2.19,2.69,7.76,7.76,0,0,0,3.43,1,11.8,11.8,0,0,0,3.56-.38A10.88,10.88,0,0,0,66,352.9a8.38,8.38,0,0,0,2.5-2.53,4.38,4.38,0,0,0,.6-3.39l-3.62-13.63a4.44,4.44,0,0,0-2.2-2.65,8.49,8.49,0,0,0-3.43-1,11.14,11.14,0,0,0-3.55.34A11.8,11.8,0,0,0,53,331.5a7.56,7.56,0,0,0-2.5,2.53,4.51,4.51,0,0,0-.57,3.41Z"/><path class="cls-1" d="M65,368.07l4.94-2.13,6.57,15.12-4.94,2.13Z"/><path class="cls-1" d="M93.4,387.44l-3,1.84a18.15,18.15,0,0,0-3.07,2.19,6,6,0,0,0-1.79,2.92,4.42,4.42,0,0,0,.4,3.42l7.31,11.89,10-6.08,3.51,5.71-12.08,7.36a25.21,25.21,0,0,1-7,3,12.51,12.51,0,0,1-6.23,0,8.81,8.81,0,0,1-5-3.66L65.57,398.38l5.7-3.47,9.94,16.17A4.45,4.45,0,0,0,84.08,413a6.52,6.52,0,0,0,3.23-.17l-8-13a8.72,8.72,0,0,1-1-6.12,12.34,12.34,0,0,1,2.83-5.53,24.47,24.47,0,0,1,5.18-4.32l3.53-2.14Z"/><path class="cls-1" d="M127.44,433.47a7.39,7.39,0,0,1,1.82,4.43,12.28,12.28,0,0,1-.61,4.83,18.09,18.09,0,0,1-2.18,4.35,20,20,0,0,1-3.26,3.68,21.23,21.23,0,0,1-5.5,3.52,14.49,14.49,0,0,1-6.41,1.22,8.39,8.39,0,0,1-5.84-2.56L93.89,440a8.16,8.16,0,0,1-2-6.05,13.77,13.77,0,0,1,2-6.19,21.73,21.73,0,0,1,4.19-5,21.38,21.38,0,0,1,5.49-3.53A14.47,14.47,0,0,1,110,418a8.14,8.14,0,0,1,5.82,2.59l.63.7,10.32,11.53Zm-18.12,13.78a4.59,4.59,0,0,0,3.17,1.42A7.66,7.66,0,0,0,116,448a11.81,11.81,0,0,0,3-1.93,11.12,11.12,0,0,0,2.25-2.76,8.34,8.34,0,0,0,1.08-3.38,4.43,4.43,0,0,0-1-3.29l-9.42-10.52a4.42,4.42,0,0,0-3.17-1.38,8.38,8.38,0,0,0-3.5.68,11.08,11.08,0,0,0-3,1.89,11.94,11.94,0,0,0-2.28,2.76,7.6,7.6,0,0,0-1.08,3.38,4.5,4.5,0,0,0,1,3.29Z"/><path class="cls-1" d="M124.66,471l-5.32-4.1,16.08-20.63a3.22,3.22,0,0,1,2.25-1.18,3.42,3.42,0,0,1,2.45.73l1.94,1.49,4.84,3.74,9.74,7.51a5.62,5.62,0,0,1,.44.41l.24.18a10.73,10.73,0,0,1,3.55,4.75,9.3,9.3,0,0,1,.47,4.66,8.29,8.29,0,0,1-1.58,3.65,8.65,8.65,0,0,1-3.17,2.49,9.17,9.17,0,0,1-4.66.7,10.87,10.87,0,0,1-5.53-2.25l-6.93-5.35a6.26,6.26,0,0,0-1,3.9,4.08,4.08,0,0,0,1.67,2.8l10.72,8.27-4.1,5.25-11.43-8.82a9.11,9.11,0,0,1-3.51-6.35,12.23,12.23,0,0,1,1.41-7.71q2-4.06,2.37-4.5a3.33,3.33,0,0,1,4.69-.59l10.41,8a3.39,3.39,0,0,0,1.5.62,2.8,2.8,0,0,0,1.25-.1,1.75,1.75,0,0,0,1.19-1.53,2.85,2.85,0,0,0-.21-1.23,3.36,3.36,0,0,0-1-1.29l-10.68-8.24-3.16-2.44a1.17,1.17,0,0,0-1.81.23Z"/><path class="cls-1" d="M191.94,479.21a7.44,7.44,0,0,1,3.31,3.48,12.3,12.3,0,0,1,1.17,4.73,17.53,17.53,0,0,1-.46,4.84,19.75,19.75,0,0,1-1.7,4.6,20.81,20.81,0,0,1-3.86,5.25,14.67,14.67,0,0,1-5.54,3.44,8.39,8.39,0,0,1-6.37-.3L163,497.33a8.27,8.27,0,0,1-4-4.95,13.78,13.78,0,0,1-.37-6.5,22.17,22.17,0,0,1,2.1-6.17,21,21,0,0,1,3.84-5.26A14.45,14.45,0,0,1,170.1,471a8.19,8.19,0,0,1,6.36.32l.84.44,13.8,7ZM180,498.56a4.55,4.55,0,0,0,3.47.18,7.67,7.67,0,0,0,3-1.88,11.79,11.79,0,0,0,2.11-2.88,11.08,11.08,0,0,0,1.1-3.38,8.32,8.32,0,0,0-.22-3.54,4.45,4.45,0,0,0-2.13-2.71l-12.6-6.44a4.45,4.45,0,0,0-3.45-.15,8.52,8.52,0,0,0-3,1.89,10.87,10.87,0,0,0-2.11,2.85,11.32,11.32,0,0,0-1.13,3.38,7.57,7.57,0,0,0,.21,3.54,4.51,4.51,0,0,0,2.17,2.7Z"/><path class="cls-1" d="M197.88,506.6l11.82,3.63L214.43,495l-11.82-3.63,2-6.35,30,9.21-2,6.35-11.77-3.61-4.73,15.27,11.77,3.61-2,6.35-30-9.21Z"/><path class="cls-1" d="M260.41,498l-1.93,29.41-6.72-.44,1.93-29.4Zm4.69,8.41a51.35,51.35,0,0,1,9.31-3.92l12.26-4-.48,7.33-8.77,2.61c-1.4.44-2.72.87-4,1.31a19.58,19.58,0,0,0-3.43,1.54,2.78,2.78,0,0,0-1.72,1.92,2.88,2.88,0,0,0,1.46,2.14,20.27,20.27,0,0,0,3.19,2c1.18.59,2.43,1.2,3.76,1.81l8.74,3.8-.49,7.48-12-5.8a49.89,49.89,0,0,1-8.74-5.12,8,8,0,0,1,.88-13Z"/><path class="cls-1" d="M292.27,522.16l12.31-1.23L303,505l-12.31,1.22-.67-6.61,31.27-3.12.66,6.62-12.26,1.22,1.61,15.89L323.53,519l.67,6.62-31.26,3.12Z"/><path class="cls-1" d="M346.46,490.08a8.11,8.11,0,0,1,6.24,1.07,15.1,15.1,0,0,1,4.6,4.54,20.84,20.84,0,0,1,2.64,5.92,21.17,21.17,0,0,1,.75,6.43,14.44,14.44,0,0,1-1.66,6.23,8.11,8.11,0,0,1-4.86,4.06l-17.72,4.78a3.28,3.28,0,0,1-2.44-.34,3.19,3.19,0,0,1-1.53-1.93l-4-14.55,6.5-1.76,2.71,10a1.21,1.21,0,0,0,1.7.93l11.36-3.06a4.4,4.4,0,0,0,2.65-2.21,8.28,8.28,0,0,0,1-3.42,10.7,10.7,0,0,0-.37-3.52,10.84,10.84,0,0,0-1.47-3.23,8.39,8.39,0,0,0-2.56-2.47,4.42,4.42,0,0,0-3.41-.57l-19.16,5.17-1.75-6.42Z"/><path class="cls-1" d="M384.5,474.67a7.53,7.53,0,0,1,4.79-.5,12.61,12.61,0,0,1,4.49,1.94,18.15,18.15,0,0,1,3.59,3.3,19.41,19.41,0,0,1,2.64,4.14,20.72,20.72,0,0,1,1.85,6.24,14.33,14.33,0,0,1-.61,6.46,8.34,8.34,0,0,1-4.11,4.86l-15.72,7.44a8.31,8.31,0,0,1-6.38.16,13.84,13.84,0,0,1-5.42-3.65,21.67,21.67,0,0,1-3.66-5.41,21,21,0,0,1-1.87-6.23,14.3,14.3,0,0,1,.57-6.48,8.12,8.12,0,0,1,4.12-4.83l.86-.4,14-6.63Zm8.24,21.16A4.55,4.55,0,0,0,395,493.2a7.69,7.69,0,0,0,.32-3.53,11.86,11.86,0,0,0-1-3.42,11,11,0,0,0-2-2.91,8.29,8.29,0,0,0-3-2,4.47,4.47,0,0,0-3.46,0l-12.79,6.05a4.44,4.44,0,0,0-2.22,2.65,8.3,8.3,0,0,0-.32,3.53,10.57,10.57,0,0,0,1,3.4,11.5,11.5,0,0,0,2,3,7.76,7.76,0,0,0,3,2,4.59,4.59,0,0,0,3.47-.08Z"/><path class="cls-1" d="M433.68,461.73a9.39,9.39,0,0,1,3.13,2.71,8.6,8.6,0,0,1,1.52,3.78,9.33,9.33,0,0,1-.59,4.7,10,10,0,0,1-3.75,4.57l-.25.17a3.31,3.31,0,0,1-.45.39L417,489.74a3.35,3.35,0,0,1-2.41.54,3.24,3.24,0,0,1-2.11-1.27L399.13,470.6a3.3,3.3,0,0,1,.73-4.51l13.91-10a4.27,4.27,0,0,1,.51-.3l.24-.18a10.72,10.72,0,0,1,5.58-2.05,9.44,9.44,0,0,1,4.63.86,8.34,8.34,0,0,1,3.08,2.54,8.53,8.53,0,0,1,1.51,3.68.53.53,0,0,1,0,.18A9.47,9.47,0,0,1,433.68,461.73Zm-11.37,1.38a2.51,2.51,0,0,0,.25-1.18,1.84,1.84,0,0,0-.33-1,1.86,1.86,0,0,0-.81-.61,2.75,2.75,0,0,0-1.25-.15,3.28,3.28,0,0,0-1.52.58l-10.91,7.84a1.21,1.21,0,0,0-.35,1.9l1.85,2.54,12-8.67A3.24,3.24,0,0,0,422.31,463.11Zm8,8.86a2.53,2.53,0,0,0,1.07-1.2,2.74,2.74,0,0,0,.21-1.28,2.11,2.11,0,0,0-.38-1,2.49,2.49,0,0,0-.82-.61,2.52,2.52,0,0,0-1.34-.29,3.23,3.23,0,0,0-1.54.56L425,470l-11.8,8.48,2,2.78a1.22,1.22,0,0,0,1.92.27l.32-.23Z"/><path class="cls-1" d="M460.93,455.25a21.72,21.72,0,0,1-4,3.22,21.31,21.31,0,0,1-4.63,2.19,13.73,13.73,0,0,1-5.06.7,7.39,7.39,0,0,1-4.64-1.87L441.1,458l-13.22-12.88,4.67-4.75,13.62,13.26a3.74,3.74,0,0,0,2.66.95,8.49,8.49,0,0,0,2.83-.57,13.24,13.24,0,0,0,2.56-1.33,13.85,13.85,0,0,0,2.22-1.83,13.51,13.51,0,0,0,1.79-2.25,13.11,13.11,0,0,0,1.28-2.57,8.44,8.44,0,0,0,.51-2.83,3.68,3.68,0,0,0-1-2.62l-13.62-13.26,4.71-4.78,13.22,12.87,1.5,1.46a7.24,7.24,0,0,1,2,4.59,14.11,14.11,0,0,1-.61,5.06,21.13,21.13,0,0,1-2.1,4.65A22,22,0,0,1,460.93,455.25Z"/><path class="cls-1" d="M453.11,419.32l19.56-28.42,5.51,3.76-7.86,11.42,18.81,12.81-3.81,5.53-18.8-12.81-7.89,11.46Z"/><path class="cls-1" d="M496.29,383.88l4.32-9.44-3.9-.35c-1.46-.08-2.85-.13-4.17-.17a20.69,20.69,0,0,0-3.75.24,2.83,2.83,0,0,0-2.3,1.19,2.93,2.93,0,0,0,.56,2.6,23.86,23.86,0,0,0,2.31,2.93c.89,1,1.85,2,2.87,3l11.27,11.05-3.06,6.69-13.68-13.94a52.24,52.24,0,0,1-6.31-7.88,7.43,7.43,0,0,1-.4-7.38,7.54,7.54,0,0,1,5.82-4.53,51.09,51.09,0,0,1,10.13-.4l19.57,1.07-3.14,6.87-4.75-.41-5.31,11.61Z"/><path class="cls-1" d="M511.07,360.51l3.22-11.88-15.51-4.16-3.22,11.88-6.45-1.74,8.18-30.17,6.46,1.73L500.54,338l15.5,4.16,3.21-11.83,6.45,1.73-8.18,30.18Z"/><path class="cls-2" d="M154.1,214.51c-5.75,31.4-6.19,62.59,4,93.28,3.23,9.7,7.47,19,14.24,27.66,2.65-3.91,5.19-7.62,7.67-11.36,12.13-18.32,25-36,43.8-48.28,17.66-11.47,36.6-16.42,57.64-9.74,6.31-5,9.56-11.87,10.95-19.6,3.11-17.28-2.17-32.94-9.74-48.65-5.07,4.2-10.37,7.44-16.57,8.68-15.15,3-27.85-1.38-36.93-13.78s-9.44-25.64-1.89-38.81c8.63-15,22.65-21.08,39.41-21.56,31.52-.91,60.59,7.75,88,22.68,19.82,10.8,37,24.51,49.27,43.78,1.18,1.86,2.12,3.86,3.17,5.79l-.76.78c-18.63-15.38-38.74-28.3-61.58-36.67a125.6,125.6,0,0,0-43.52-8.16c-1.78,0-3.56.12-5.34.26-.39,0-.76.37-1.47.75,4.07,8.37,8.22,16.65,12.14,25,6.23,13.31,11.4,27,13.34,41.65,3.11,23.58-.88,45.07-18.72,62.27,3,21.2,32,33.82,55.16,33.89-.17-3.93-.45-7.87.24-11.79a35.74,35.74,0,0,1,31.42-29.49c15.39-1.77,30.67,7.34,36.9,21.77,6.13,14.19,4.1,27.72-3,40.88-12.31,22.87-29.85,41.09-50.89,56.1-17.53,12.5-36.39,22.28-57.69,26.79a94.3,94.3,0,0,1-26.2,1.92c40.09-15.65,76.08-36.3,96.81-76.15-2.07-1.77-3.95-1.33-5.66-1.43-18-1.06-35.93-2-53.33-7.06-19.95-5.8-37.24-15.47-48.5-33.69a57.5,57.5,0,0,1-6.71-17.16c-9.11-3.26-18-2.27-26.67,1.67C229.3,303,219.38,313.58,210.91,326c1.82.93,3.42,1.71,5,2.54A35.3,35.3,0,0,1,233,370.22a36,36,0,0,1-38.15,24.93c-13-1.34-23.32-7.37-31-17.76-12.49-16.85-19.63-36.05-23.89-56.31-5.62-26.79-6.41-53.62,1.12-80.28a104.73,104.73,0,0,1,11.61-26.24Z"/><path class="cls-4" d="M154.1,214.51l-1.39.05c0-.86.54-1.31,1.16-1.78C154.74,213.25,154.64,213.85,154.1,214.51Z"/><path class="cls-5" d="M407.16,204.6a1.15,1.15,0,0,1,.4,1.8l-1.16-1Z"/></g></svg>