<?xml version="1.0" encoding="UTF-8"?><svg id="Capa_1" xmlns="http://www.w3.org/2000/svg" viewBox="0 0 566.93 566.93"><defs><style>.cls-1{fill:#fff;}.cls-1,.cls-2,.cls-3{stroke-width:0px;}.cls-2{fill:#35495e;}.cls-3{fill:#d7282f;}</style></defs><circle class="cls-2" cx="283.46" cy="283.46" r="274.74"/><path class="cls-2" d="m283.46,562.68c-74.58,0-144.7-29.04-197.43-81.78C33.3,428.16,4.25,358.04,4.25,283.46s29.04-144.7,81.78-197.43C138.77,33.3,208.88,4.25,283.46,4.25s144.7,29.04,197.43,81.78c52.74,52.74,81.78,122.85,81.78,197.43s-29.04,144.7-81.78,197.43c-52.74,52.74-122.85,81.78-197.43,81.78Zm0-549.48C134.44,13.2,13.2,134.44,13.2,283.46s121.24,270.27,270.27,270.27,270.27-121.24,270.27-270.27S432.49,13.2,283.46,13.2Z"/><ellipse class="cls-1" cx="283.46" cy="283.46" rx="255.69" ry="251.6"/><path class="cls-3" d="m283.46,542.88c-69.29,0-134.44-26.98-183.44-75.98-49-49-75.98-114.14-75.98-183.44s26.98-134.44,75.98-183.44c49-49,114.14-75.98,183.44-75.98s134.44,26.98,183.44,75.98c49,49,75.98,114.14,75.98,183.44s-26.98,134.44-75.98,183.44-114.14,75.98-183.44,75.98Zm0-512.94c-139.79,0-253.52,113.73-253.52,253.52s113.73,253.52,253.52,253.52,253.52-113.73,253.52-253.52S423.26,29.94,283.46,29.94Z"/><path class="cls-3" d="m357.06,368.16v-39.65l4.97-3.86c14.61-11.33,27.27-25.41,37.63-41.84,9.85-15.62,14.84-34.29,14.84-55.52,0-34.41-11.17-61.26-34.15-82.09-23.02-20.87-55.67-31.45-97.03-31.45s-72.45,10.53-96.18,31.29c-23.56,20.61-35.01,47.58-35.01,82.45,0,20.38,5.01,39.08,14.89,55.56,10.19,17,22.7,30.9,37.2,41.31l5.35,3.84v39.95h-65.86v31.76h105.82v-76c-5.25-4.11-10.01-8.14-14.19-12.05-5.97-5.57-11.09-11.7-15.21-18.2l-.04-.06-.04-.06c-4.62-7.48-8.22-16.06-10.72-25.52-2.46-9.3-3.71-20.59-3.71-33.54,0-27.54,7.17-49.36,21.3-64.87,14.45-15.85,33.41-23.89,56.37-23.89s43.03,8.38,57.16,24.91c13.62,15.94,20.52,37.42,20.52,63.84,0,14.15-1.19,25.33-3.64,34.2-2.44,8.79-6.06,17.14-10.76,24.83-4,6.56-8.96,12.62-14.72,17.98-4.05,3.77-9.01,7.94-14.78,12.44v76h105.82v-31.76h-65.86Z"/><path class="cls-2" d="m349.96,209.75c-.99,0-1.81.7-2,1.63l-43.74-6.44-.14-.02-19.67-40.37c.62-.35,1.04-1.01,1.04-1.78,0-1.13-.91-2.04-2.04-2.04s-2.04.91-2.04,2.04c0,.74.39,1.38.97,1.74l-19.62,40.26-.07.15-44.06,6.49c-.29-.77-1.04-1.32-1.91-1.32-1.13,0-2.04.91-2.04,2.04s.91,2.04,2.04,2.04c.58,0,1.1-.24,1.47-.63l31.69,31.29-.03.18-7.49,44.25c-.09-.01-.18-.02-.28-.02-1.13,0-2.04.91-2.04,2.04s.91,2.04,2.04,2.04,2.04-.91,2.04-2.04c0-.34-.08-.65-.23-.93l39.28-20.92h0s39.56,21.07,39.56,21.07c-.1.24-.16.5-.16.78,0,1.13.91,2.04,2.04,2.04s2.04-.91,2.04-2.04-.91-2.04-2.04-2.04c-.07,0-.13,0-.19,0l-7.5-44.29-.13-.28,31.79-31.39c.37.34.85.55,1.39.55,1.13,0,2.04-.91,2.04-2.04s-.91-2.04-2.04-2.04Z"/><path class="cls-2" d="m454.82,112.1c-45.77-45.77-106.63-70.98-171.36-70.98s-125.59,25.21-171.36,70.98c-45.77,45.77-70.98,106.63-70.98,171.36s25.21,125.59,70.98,171.36c45.77,45.77,106.63,70.98,171.36,70.98s125.59-25.21,171.36-70.98c45.77-45.77,70.98-106.63,70.98-171.36s-25.21-125.59-70.98-171.36Zm16.06,171.36c0,103.34-84.08,187.42-187.42,187.42s-187.42-84.08-187.42-187.42,84.08-187.42,187.42-187.42,187.42,84.08,187.42,187.42Z"/><path class="cls-1" d="m137.26,126.37c5.26,4.63,8.16,9.69,8.69,15.15.54,5.47-1.35,10.65-5.66,15.54-4.33,4.91-9.25,7.42-14.76,7.53-5.52.11-10.87-2.13-16.05-6.69-5.23-4.61-8.13-9.65-8.7-15.12-.57-5.47,1.3-10.66,5.63-15.57,4.31-4.89,9.22-7.41,14.72-7.56,5.5-.15,10.88,2.1,16.14,6.73Zm-7.45,8.41c-1.94-1.71-3.76-2.96-5.48-3.76-1.72-.8-3.31-1.25-4.77-1.35-1.5-.08-2.84.14-4,.69-1.16.54-2.16,1.28-2.99,2.23-.89,1-1.51,2.07-1.87,3.2-.36,1.13-.42,2.48-.17,4.05.25,1.42.9,2.95,1.93,4.59,1.03,1.65,2.52,3.32,4.45,5.03,2,1.76,3.83,3.02,5.49,3.79s3.24,1.2,4.74,1.3c1.52.1,2.86-.13,4.03-.68,1.17-.55,2.17-1.3,3.01-2.24.85-.96,1.46-2.08,1.84-3.35.38-1.27.42-2.62.13-4.04-.33-1.53-.96-3.04-1.89-4.53-.93-1.49-2.41-3.13-4.45-4.93Z"/><path class="cls-1" d="m192.98,112.77l-8.93,6.14-16.28-23.69,4.01,19.76-6.12,4.21-17.01-10.82,16.29,23.69-8.45,5.81-24.57-35.73,10.34-7.11,20.05,12.19-4.23-23.07,10.34-7.11,24.57,35.73Z"/><path class="cls-1" d="m199.43,110.38l-16.03-40.29,27.25-10.84,3.06,7.69-17.18,6.84,2.81,7.06,15.83-6.3,3.06,7.69-15.83,6.3,4.05,10.17,17.18-6.84,3.06,7.69-27.25,10.84Z"/><path class="cls-1" d="m267.02,88.9c-1.73,1.11-4.03,2.29-6.88,3.56-2.86,1.27-5.74,2.17-8.64,2.7-6.7,1.22-12.4.26-17.09-2.88-4.69-3.14-7.68-8.27-8.97-15.37-1.22-6.68-.2-12.41,3.04-17.16,3.25-4.76,8.33-7.76,15.24-9.03,3.57-.65,6.54-.84,8.9-.57,2.36.27,4.84.77,7.44,1.5l1.82,10-.97.18c-.59-.31-1.43-.74-2.53-1.3-1.1-.56-2.15-1.01-3.16-1.36-1.18-.42-2.51-.72-4-.9s-3.01-.13-4.58.15c-1.83.33-3.45.93-4.86,1.77-1.41.85-2.59,1.97-3.56,3.37-.92,1.35-1.55,2.97-1.89,4.84s-.3,3.98.13,6.31c.91,4.98,2.83,8.44,5.76,10.35,2.93,1.91,6.57,2.47,10.91,1.68.38-.07.83-.16,1.34-.27s.96-.22,1.33-.33l-1.53-8.37-8.28,1.51-1.46-7.99,18.65-3.4,3.83,21Z"/><path class="cls-1" d="m268.96,91l16-42.88,11.88.37,13.28,43.8-11.21-.35-2.43-8.93-13.62-.43-2.99,8.76-10.92-.34Zm25.38-15.93l-3.98-14.43-4.87,14.15,8.85.28Z"/><path class="cls-1" d="m344.94,102.64c-5.51-1.88-9.3-4.66-11.36-8.34-2.06-3.68-2.21-8.08-.47-13.21l8.94-26.21,10.31,3.52-8.73,25.61c-.97,2.85-1.16,5.15-.56,6.92.6,1.76,2.11,3.06,4.54,3.89,2.37.81,4.34.73,5.91-.23,1.57-.96,2.86-2.92,3.87-5.88l8.74-25.61,10.31,3.52-8.93,26.19c-1.72,5.05-4.49,8.44-8.31,10.16-3.82,1.72-8.57,1.62-14.25-.32Z"/><path class="cls-1" d="m399.73,129.7l-8.94-5.48,1.56-34.51-15.81,25.77-8.49-5.21,22.67-36.97,11.39,6.99-1.2,28.41,12.99-21.17,8.49,5.21-22.68,36.96Z"/><path class="cls-1" d="m420.86,148.98l-17.34-15.65,5.08-5.62,4.63,4.18,18.91-20.95-4.63-4.18,5.07-5.62,17.34,15.65-5.07,5.62-4.63-4.18-18.91,20.95,4.63,4.18-5.07,5.62Z"/><path class="cls-1" d="m430.04,159.46l27.41-21.91-8-10.01,6.46-5.16,22.8,28.53-6.46,5.16-8-10.01-27.41,21.91-6.8-8.51Z"/><path class="cls-1" d="m112.12,429.91c-1.75,1.26-3.52,2.03-5.32,2.33s-3.54.19-5.21-.31c-1.99-.57-3.78-1.49-5.36-2.76-1.58-1.26-3.25-3.12-5.01-5.56l-10.14-14.09,35.19-25.34,8.95,12.43c1.86,2.58,3.17,4.61,3.93,6.08.76,1.47,1.25,3.02,1.46,4.64.23,1.75,0,3.34-.69,4.78-.69,1.44-1.77,2.69-3.25,3.76-1.72,1.24-3.56,1.91-5.51,2.01-1.96.1-3.8-.37-5.51-1.43l-.19.13c1.11,2.5,1.43,4.92.96,7.24s-1.9,4.35-4.3,6.07Zm-6.38-9.22c1.09-.78,1.78-1.62,2.08-2.5.3-.88.29-1.88-.03-2.99-.18-.68-.6-1.5-1.25-2.46-.65-.96-1.54-2.22-2.68-3.8l-1.17-1.63-8.82,6.35.34.47c1.66,2.3,2.82,3.88,3.48,4.74.67.86,1.53,1.6,2.58,2.23.93.56,1.86.78,2.79.67.94-.11,1.83-.48,2.68-1.09Zm12.7-12.52c.57-.41,1.05-.97,1.43-1.7.39-.72.5-1.49.32-2.29-.17-.76-.53-1.55-1.08-2.37-.55-.81-1.39-2.01-2.52-3.58l-.44-.62-7.45,5.36.8,1.11c1.09,1.51,1.87,2.56,2.34,3.15.47.58,1.08,1.09,1.85,1.52.84.47,1.65.63,2.43.48.78-.15,1.55-.5,2.32-1.06Z"/><path class="cls-1" d="m121.36,458.86c-4.27-3.96-6.61-8.04-6.99-12.23-.39-4.2,1.26-8.28,4.94-12.26l18.82-20.32,7.99,7.4-18.38,19.85c-2.05,2.21-3.15,4.24-3.32,6.09s.69,3.65,2.57,5.39c1.84,1.7,3.67,2.43,5.49,2.19,1.83-.24,3.8-1.51,5.92-3.8l18.38-19.85,7.99,7.4-18.8,20.3c-3.63,3.92-7.54,5.89-11.73,5.91s-8.49-2-12.89-6.08Z"/><path class="cls-1" d="m180.91,499.42l-11.39-6.82-2.2-19.85-3.35-2-8.17,13.64-9.3-5.56,22.28-37.2,14.97,8.96c2.06,1.24,3.79,2.44,5.16,3.62,1.38,1.17,2.47,2.56,3.28,4.15.82,1.65,1.23,3.36,1.24,5.14,0,1.78-.6,3.67-1.81,5.69-1.71,2.85-3.73,4.77-6.08,5.78-2.35,1.01-4.91,1.39-7.68,1.15l3.05,23.31Zm.42-34.82c.56-.93.86-1.84.91-2.73s-.24-1.77-.85-2.63c-.43-.6-.99-1.15-1.66-1.64-.68-.5-1.55-1.06-2.61-1.7l-3.12-1.87-6,10.02,2.67,1.6c1.3.78,2.45,1.36,3.45,1.74,1,.39,1.97.51,2.92.37.88-.11,1.66-.4,2.34-.87s1.33-1.24,1.96-2.29Z"/><path class="cls-1" d="m188.8,502.21l14.83-40.75,27.56,10.03-2.83,7.77-17.38-6.32-2.6,7.14,16.01,5.82-2.83,7.77-16.01-5.82-3.74,10.29,17.38,6.32-2.83,7.77-27.56-10.03Z"/><path class="cls-1" d="m223.68,514.64l21.66-40.32,11.72,1.98,7.23,45.2-11.06-1.86-1.2-9.18-13.44-2.27-4.14,8.28-10.77-1.82Zm27.31-12.35l-1.99-14.84-6.74,13.36,8.73,1.47Z"/><path class="cls-1" d="m291.41,522.18c-5.82.19-10.35-1.07-13.57-3.78s-4.93-6.78-5.1-12.19l-.9-27.68,10.89-.36.88,27.04c.1,3.01.74,5.23,1.92,6.67,1.18,1.44,3.06,2.12,5.62,2.03,2.5-.08,4.32-.85,5.45-2.3,1.13-1.45,1.64-3.74,1.54-6.87l-.88-27.04,10.89-.35.9,27.65c.17,5.34-1.22,9.48-4.19,12.45-2.96,2.96-7.44,4.54-13.44,4.73Z"/><path class="cls-1" d="m338.01,516l.37-45.77,11.29-3.71,27.46,36.62-10.65,3.5-5.34-7.56-12.95,4.26.19,9.26-10.38,3.41Zm18.41-23.65l-8.67-12.2.26,14.97,8.41-2.76Z"/><path class="cls-1" d="m385.35,498.9l-20.81-38.04,25.73-14.07,3.97,7.26-16.22,8.87,3.65,6.67,14.95-8.18,3.97,7.26-14.95,8.18,5.25,9.61,16.22-8.87,3.97,7.26-25.73,14.07Z"/><path class="cls-1" d="m447.86,453.01c-.97,1.81-2.39,3.97-4.26,6.47-1.87,2.5-3.94,4.7-6.22,6.58-5.25,4.35-10.69,6.29-16.31,5.84-5.63-.45-10.74-3.46-15.34-9.02-4.33-5.24-6.24-10.73-5.73-16.46.51-5.74,3.47-10.84,8.89-15.32,2.8-2.31,5.29-3.93,7.48-4.85s4.6-1.69,7.22-2.33l6.48,7.83-.76.63c-.66.02-1.61.05-2.84.1-1.23.05-2.37.17-3.43.36-1.23.22-2.54.61-3.93,1.17-1.38.56-2.69,1.36-3.92,2.37-1.44,1.19-2.56,2.49-3.37,3.92-.81,1.43-1.3,2.99-1.46,4.68-.14,1.63.1,3.34.72,5.15s1.69,3.62,3.2,5.44c3.23,3.9,6.59,5.97,10.09,6.21,3.49.23,6.94-1.05,10.34-3.86.3-.25.64-.54,1.04-.89.39-.35.72-.66,1-.94l-5.42-6.55-6.49,5.36-5.18-6.26,14.61-12.08,13.61,16.45Z"/><path class="cls-1" d="m472.11,428.96l-15.17,17.76-5.76-4.92,4.05-4.74-21.46-18.33-4.05,4.74-5.76-4.92,15.17-17.76,5.76,4.92-4.05,4.74,21.46,18.33,4.05-4.74,5.76,4.92Z"/><path class="cls-1" d="m486.65,408.83c-1.73,2.83-3.53,5.15-5.39,6.96-1.86,1.81-3.75,3.39-5.69,4.73l-8.8-5.38.52-.84c2.71-.89,5.17-2.2,7.38-3.92,2.21-1.72,3.96-3.63,5.25-5.74.32-.53.69-1.27,1.11-2.21s.66-1.75.74-2.43c.11-.82.05-1.61-.18-2.36-.23-.76-.76-1.39-1.59-1.89-.93-.57-1.9-.66-2.93-.29s-1.98.99-2.86,1.83c-1.1,1.06-2.24,2.21-3.41,3.46-1.17,1.25-2.36,2.36-3.55,3.35-2.76,2.25-5.38,3.47-7.84,3.67-2.46.2-4.98-.49-7.55-2.06-3.46-2.12-5.37-5.3-5.72-9.54-.35-4.24.81-8.56,3.5-12.95,1.35-2.2,2.91-4.26,4.69-6.16,1.78-1.9,3.58-3.49,5.39-4.74l8.45,5.16-.5.82c-2.02.66-4.04,1.73-6.06,3.21-2.02,1.48-3.67,3.27-4.95,5.35-.5.81-.88,1.57-1.16,2.29-.28.72-.47,1.53-.58,2.45-.09.74,0,1.48.26,2.23.26.74.72,1.31,1.36,1.7.94.58,1.9.7,2.86.37.96-.33,2.26-1.32,3.88-2.97,1.04-1.07,2.05-2.1,3.02-3.09.97-.99,2.09-1.99,3.35-3.02,2.5-2,4.91-3.15,7.24-3.44,2.33-.29,4.78.34,7.35,1.91,3.68,2.25,5.75,5.5,6.22,9.76.47,4.26-.8,8.85-3.81,13.77Z"/></svg>