<?xml version="1.0" encoding="UTF-8"?>
<svg id="Capa_1" data-name="Capa 1" xmlns="http://www.w3.org/2000/svg" viewBox="0 0 566.93 566.93">
  <defs>
    <style>
      .cls-1 {
        fill: #be90c0;
      }

      .cls-2, .cls-3 {
        fill: #1d1d1b;
      }

      .cls-4 {
        fill: #fff;
      }

      .cls-5 {
        fill: none;
      }

      .cls-3 {
        stroke: #1d1d1b;
        stroke-miterlimit: 10;
      }
    </style>
  </defs>
  <circle class="cls-2" cx="285.25" cy="283.83" r="275.29"/>
  <path class="cls-4" d="M285.57,450.08c100.3,0,186.52-73.34,204.18-171.9,17.57-98.07-40.7-205.68-149.5-235.62-5.15-1.42-9.2-3.23-9.42-9.41-.26-7.16,3.38-11.27,10.47-10.3,14.63,2,28.6,6.73,42.09,12.49,87.86,37.45,143.12,102.85,161.4,196.47,27.52,140.93-63.62,276.42-202.55,306.91-141.86,31.13-281.4-56.56-314.45-198.32C-5.11,199.35,81.68,57.42,224.99,23.32c10.41-2.48,16.01,2.09,14.48,11.55-.83,5.16-4.58,6.42-8.76,7.55-27.03,7.3-51.7,19.45-73.57,36.93-45.28,36.18-71.99,83.25-77.96,140.77-7.27,70,16.11,129.43,67.93,176.87,38.24,35.01,87.59,53.09,138.46,53.09Z"/>
  <g>
    <circle class="cls-5" cx="285.25" cy="283.83" r="235.94"/>
    <path class="cls-3" d="M99.35,412.72l-9.85,3.16-2.46-3.37,31.49-9.82,2.87,3.93-18.96,27.01-2.54-3.48,5.97-8.48-6.52-8.95ZM107.93,419.14l5.46-7.77c1.24-1.76,2.46-3.23,3.65-4.67l-.05-.07c-1.77.72-3.61,1.42-5.5,2.06l-9.1,2.85,5.54,7.6Z"/>
    <path class="cls-3" d="M130.12,460.27c-1.75-.8-5.04-2.53-8.06-5.48-3.38-3.3-5.32-6.89-5.47-11.11-.11-3.73,1.61-7.88,5.02-11.37,6.54-6.63,15.88-7.03,23.37.29,2.59,2.53,4.06,5.06,4.57,6.47l-3,1.67c-.67-1.7-1.75-3.58-4-5.79-5.44-5.31-12.29-5.4-17.76.21-5.54,5.67-5.4,12.35-.19,17.44,1.89,1.85,3.44,2.85,4.43,3.16l6.51-6.66-4.54-4.44,2.27-2.32,7.36,7.19-10.5,10.74Z"/>
    <path class="cls-3" d="M163.84,469.09l-9.9-7.02-6.51,9.19,11.04,7.83-1.96,2.76-14.33-10.16,18.07-25.48,13.76,9.76-1.96,2.76-10.47-7.43-5.71,8.05,9.9,7.02-1.93,2.72Z"/>
    <path class="cls-3" d="M170,490.07l13.84-28,3.95,1.95,1.97,18.61c.45,4.31.62,8.06.53,11.58h.1c1.52-3.9,3.12-7.35,5.27-11.71l5.79-11.72,3.41,1.68-13.84,28-3.66-1.81-1.87-18.61c-.41-4.08-.7-8.2-.61-11.94l-.15-.02c-1.54,3.63-3.12,7.04-5.42,11.69l-5.91,11.97-3.41-1.69Z"/>
    <path class="cls-3" d="M221.41,481.95l-9.07-2.82,1.02-3.27,22.08,6.87-1.02,3.28-9.11-2.84-8.26,26.55-3.89-1.21,8.26-26.55Z"/>
    <path class="cls-3" d="M285.7,506.39c-.02-4.36-.03-9.61.21-13.49h-.14c-1.25,3.6-2.73,7.42-4.52,11.65l-6.26,14.86-3.05-.15-4.31-15.11c-1.26-4.47-2.31-8.56-3.01-12.31h-.09c-.29,3.88-.78,9.1-1.29,13.76l-1.5,13.33-3.84-.19,3.72-31.09,5.14.26,4.57,15.35c1.11,3.9,2,7.38,2.63,10.66h.14c.94-3.1,2.22-6.47,3.81-10.34l6.3-14.81,5.14.26.4,31.29-3.93-.19-.11-13.74Z"/>
    <path class="cls-3" d="M310.25,508.7l-1.89,10.17-4.13.56,6.29-32.38,4.82-.66,14.78,29.51-4.27.58-4.63-9.29-10.97,1.5ZM319.97,504.19l-4.24-8.49c-.96-1.93-1.67-3.7-2.38-5.43h-.09c-.21,1.91-.46,3.87-.8,5.83l-1.81,9.37,9.32-1.27Z"/>
    <path class="cls-3" d="M360.65,507.57l-5.82-5.45c-2.32-2.06-3.79-3.4-5.25-4.85l-.09.03c-.32,1.98-.68,3.84-1.43,6.92l-1.6,7.65-4.43,1.35,4.55-17.89-13.26-12.1,4.48-1.36,6.07,5.81c1.7,1.62,3,2.87,4.28,4.22l.13-.04c.3-2.03.64-3.63,1.17-5.88l1.95-8.25,4.43-1.35-4.68,17.3,13.97,12.52-4.48,1.36Z"/>
    <path class="cls-3" d="M369.59,470.38l12.62,28.57-3.69,1.63-12.62-28.57,3.69-1.63Z"/>
    <path class="cls-3" d="M412.96,466.06c-2.51-3.57-5.52-7.86-7.55-11.18l-.12.07c1.04,3.67,2.01,7.66,2.96,12.15l3.37,15.77-2.59,1.62-12.18-9.92c-3.59-2.94-6.79-5.7-9.51-8.37l-.08.05c1.99,3.35,4.57,7.91,6.82,12.02l6.4,11.79-3.26,2.04-14.74-27.62,4.36-2.73,12.54,9.97c3.14,2.57,5.87,4.91,8.26,7.24l.12-.07c-1-3.09-1.88-6.58-2.8-10.66l-3.31-15.76,4.36-2.73,18.23,25.44-3.34,2.09-7.95-11.21Z"/>
    <path class="cls-3" d="M419.51,438.61l12.6,13.53c4.77,5.12,9.06,5.17,12.12,2.33,3.39-3.16,3.48-7.42-1.23-12.47l-12.6-13.53,2.98-2.78,12.42,13.33c6.54,7.02,5.53,13.35.58,17.96-4.68,4.36-10.7,4.96-17.3-2.12l-12.54-13.46,2.98-2.78Z"/>
    <path class="cls-3" d="M462.09,432.84c1.99-.74,4.34-2.25,6.06-4.44,2.54-3.25,2.3-6.49-.18-8.43-2.3-1.8-4.64-1.51-8.52.82-4.56,2.9-8.58,3.76-12.05,1.05-3.83-3-4.2-8.4-.47-13.18,1.97-2.52,3.98-3.89,5.45-4.5l1.91,2.9c-1.07.46-3.08,1.53-4.82,3.76-2.62,3.36-1.61,6.21.07,7.52,2.3,1.8,4.6,1.18,8.57-1.19,4.86-2.91,8.52-3.46,12.14-.63,3.8,2.96,4.89,8.34.36,14.15-1.85,2.37-4.57,4.43-6.48,5.06l-2.04-2.89Z"/>
  </g>
  <path class="cls-4" d="M291.32,211.2l66.44-73.82h81.2l-94.49,103.35,101.87,110.73h-88.58l-66.44-73.82-66.44,73.82h-88.58l101.87-110.73-94.49-103.35h81.2l66.44,73.82Z"/>
  <g>
    <path class="cls-2" d="M349.08,185.17l-8.26-8.24-42.81,42.78s-5.15,4.97-10.48,0l-16.96-17.32-7.64,7.64,19.01,19.36s11.28,11.46,23.62-.98l43.52-43.25Z"/>
    <path class="cls-2" d="M234.87,300.16l8.26,8.24,42.81-42.78s5.15-4.97,10.48,0l16.96,17.32,7.64-7.64-19.01-19.36s-11.28-11.46-23.62.98l-43.52,43.25Z"/>
    <path class="cls-1" d="M349.57,299.92l8.24-8.26-42.78-42.81s-4.97-5.15,0-10.48l17.32-16.96-7.64-7.64-19.36,19.01s-11.46,11.28.98,23.62l43.25,43.52Z"/>
    <path class="cls-1" d="M234.58,185.71l-8.24,8.26,42.78,42.81s4.97,5.15,0,10.48l-17.32,16.96,7.64,7.64,19.36-19.01s11.46-11.28-.98-23.62l-43.25-43.52Z"/>
  </g>
</svg>