<?xml version="1.0" encoding="UTF-8"?><svg id="Capa_1" xmlns="http://www.w3.org/2000/svg" viewBox="0 0 566.93 566.93"><defs><style>.cls-1{font-size:47.31px;}.cls-1,.cls-2{font-family:Tahoma-Bold, Tahoma;font-weight:700;}.cls-1,.cls-2,.cls-3{fill:#fff;}.cls-2{font-size:47.26px;}.cls-3,.cls-4,.cls-5{stroke-width:0px;}.cls-4{fill:#35495e;}.cls-5{fill:#f1c410;}</style></defs><path class="cls-4" d="m283.46,562.68c-74.58,0-144.7-29.04-197.43-81.78C33.3,428.16,4.25,358.04,4.25,283.46s29.04-144.7,81.78-197.43C138.77,33.3,208.88,4.25,283.46,4.25s144.7,29.04,197.43,81.78c52.74,52.74,81.78,122.85,81.78,197.43s-29.04,144.7-81.78,197.43c-52.74,52.74-122.85,81.78-197.43,81.78Z"/><path class="cls-3" d="m283.46,489.07c-54.92,0-106.55-21.39-145.38-60.22-38.83-38.83-60.22-90.46-60.22-145.38s21.39-106.55,60.22-145.38,90.46-60.22,145.38-60.22,106.55,21.39,145.38,60.22c38.83,38.83,60.22,90.46,60.22,145.38s-21.39,106.55-60.22,145.38c-38.83,38.83-90.46,60.22-145.38,60.22Z"/><path class="cls-5" d="m283.46,562.68c-74.58,0-144.7-29.04-197.43-81.78C33.3,428.16,4.25,358.04,4.25,283.46s29.04-144.7,81.78-197.43C138.77,33.3,208.88,4.25,283.46,4.25s144.7,29.04,197.43,81.78c52.74,52.74,81.78,122.85,81.78,197.43s-29.04,144.7-81.78,197.43c-52.74,52.74-122.85,81.78-197.43,81.78Zm0-549.48C134.44,13.2,13.2,134.44,13.2,283.46s121.24,270.27,270.27,270.27,270.27-121.24,270.27-270.27S432.49,13.2,283.46,13.2Z"/><path class="cls-5" d="m283.46,501.33c-58.2,0-112.91-22.66-154.06-63.81-41.15-41.15-63.81-95.86-63.81-154.06s22.66-112.91,63.81-154.06c41.15-41.15,95.86-63.81,154.06-63.81s112.91,22.66,154.06,63.81c41.15,41.15,63.81,95.86,63.81,154.06s-22.66,112.91-63.81,154.06c-41.15,41.15-95.86,63.81-154.06,63.81Zm0-430.79c-117.4,0-212.92,95.51-212.92,212.92s95.51,212.92,212.92,212.92,212.92-95.51,212.92-212.92-95.51-212.92-212.92-212.92Z"/><path class="cls-5" d="m144.04,159.38l1.08-1.27c34.71-40.83,85.31-64.25,138.83-64.25s103.18,22.99,137.84,63.08l1.12,1.3-72.34,47.02-.86-.79c-17.98-16.54-41.33-25.64-65.77-25.64s-49.78,9.88-68.06,27.83l-.88.86-70.97-48.14Z"/><path class="cls-4" d="m283.95,95.36c54.62,0,103.58,24.25,136.71,62.56l-69.93,45.45c-17.57-16.17-41.02-26.04-66.78-26.04s-51.31,10.78-69.11,28.26l-68.57-46.51c33.13-38.98,82.52-63.72,137.69-63.72m0-3c-53.96,0-104.98,23.61-139.97,64.77l-2.17,2.55,2.77,1.88,68.57,46.51,2.03,1.38,1.75-1.72c18-17.67,41.8-27.4,67.01-27.4s47.05,8.97,64.75,25.25l1.71,1.58,1.95-1.27,69.93-45.45,2.88-1.87-2.25-2.6c-34.94-40.42-85.6-63.6-138.98-63.6h0Z"/><path class="cls-5" d="m109.97,360.79c-10.63-23.57-16.02-48.73-16.02-74.79,0-28.08,6.23-55.02,18.51-80.08l.75-1.53,120.09,79.21-122.62,78.77-.71-1.59Z"/><path class="cls-4" d="m113.81,206.58l116.74,77-119.22,76.59c-10.2-22.63-15.88-47.74-15.88-74.17,0-28.5,6.61-55.45,18.36-79.42m-1.19-4.38l-1.5,3.06c-12.39,25.26-18.67,52.43-18.67,80.74,0,26.27,5.43,51.64,16.15,75.41l1.43,3.17,2.93-1.88,119.22-76.59,3.88-2.49-3.85-2.54-116.74-77-2.84-1.88h0Z"/><path class="cls-5" d="m282.98,473.58c-52.94,0-103.18-22.99-137.84-63.08l-1.12-1.3,72.34-47.02.86.79c17.98,16.54,41.33,25.64,65.77,25.64s49.78-9.88,68.06-27.83l.88-.86,70.97,48.14-1.08,1.27c-34.71,40.83-85.31,64.25-138.83,64.25Z"/><path class="cls-4" d="m352.09,361.85l68.57,46.51c-33.13,38.98-82.52,63.72-137.69,63.72s-103.58-24.25-136.71-62.56l69.93-45.45c17.57,16.17,41.02,26.04,66.78,26.04s51.31-10.78,69.11-28.26m-.35-3.86l-1.75,1.72c-18,17.67-41.8,27.4-67.01,27.4s-47.05-8.97-64.75-25.25l-1.71-1.58-1.95,1.27-69.93,45.45-2.88,1.87,2.25,2.6c34.94,40.42,85.6,63.6,138.98,63.6s104.98-23.61,139.97-64.77l2.17-2.55-2.77-1.88-68.57-46.51-2.03-1.38h0Z"/><path class="cls-5" d="m333.63,283.15l122.62-78.77.71,1.59c10.63,23.57,16.02,48.73,16.02,74.79,0,28.08-6.23,55.02-18.51,80.08l-.75,1.53-120.09-79.21Z"/><path class="cls-4" d="m455.59,206.58c10.2,22.63,15.88,47.74,15.88,74.17,0,28.5-6.61,55.45-18.36,79.42l-116.74-77,119.22-76.59m1.31-4.4l-2.93,1.88-119.22,76.59-3.88,2.49,3.85,2.54,116.74,77,2.84,1.88,1.5-3.06c12.39-25.26,18.67-52.43,18.67-80.74,0-26.27-5.43-51.64-16.15-75.41l-1.43-3.17h0Z"/><path class="cls-4" d="m230.79,241.18v3.25c.16.02.29.05.42.05,1.43,0,2.85,0,4.28-.02,1.58-.02,2.74.66,3.47,2.06.85,1.61,1.1,3.37,1.11,5.15.04,5.8.02,11.6.06,17.4.03,5.65,1,11.13,3.24,16.35,1.15,2.69,2.67,5.15,4.62,7.35,1.93,2.17,4.41,3.51,7.04,4.6,4.28,1.79,8.76,2.9,13.31,3.75,2.51.47,5.04.81,7.57,1.21.19.03.38.08.62.12,0,.21,0,.4,0,.59,0,4.53,0,9.06,0,13.59,0,2.16-.22,4.29-1.15,6.28-.3.65-.7,1.26-1.1,1.86-1.17,1.73-2.95,2.38-4.91,2.59-2.04.21-4.09.3-6.13.44-.15.01-.31.02-.49.03v2.44h41.46v-2.55c-1,0-2,.07-2.98-.02-1.59-.14-3.18-.34-4.76-.57-1.99-.29-3.33-1.51-4.33-3.17-.98-1.62-1.55-3.4-1.58-5.27-.1-5.37-.08-10.74-.11-16.1,0-.04.02-.07.05-.18,1.13-.16,2.28-.3,3.43-.48,6.42-1.02,12.75-2.35,18.79-4.89,4.8-2.01,7.93-5.61,10.17-10.13,2.01-4.06,3.17-8.38,3.62-12.87.21-2.07.29-4.17.31-6.25.05-5.39.02-10.78.06-16.17.01-1.7.26-3.38,1.02-4.94.75-1.55,1.99-2.28,3.72-2.24,1.41.04,2.81.02,4.22.03.09,0,.19-.02.32-.04v-3.28c-.65-.03-1.31-.08-1.97-.09-2.85-.06-5.71-.23-8.54.19-2.69.4-5.29,1.04-7.44,2.83-1.58,1.31-2.37,3.12-3.02,4.99-.95,2.74-1.44,5.58-1.8,8.44-.64,5.16-.68,10.35-.72,15.55-.03,3.75-.2,7.48-.75,11.2-.92,6.21-4.47,10.16-10.27,12.26-3.53,1.28-7.19,1.93-10.92,2.19-.07,0-.15-.02-.29-.04,0-.22,0-.43,0-.64,0-14.27-.01-28.54,0-42.82,0-1.56.02-3.14.29-4.66.57-3.28,2.33-4.91,5.62-5.45,1.08-.18,2.16-.34,3.25-.41,1.09-.07,2.18-.02,3.33-.02v-3.66h-38.92v3.6c.29,0,.57,0,.86,0,2.35,0,4.68.16,6.96.78,2.54.69,3.92,2.43,4.35,4.9.28,1.58.33,3.22.34,4.83.02,14.31.01,28.62.01,42.93,0,.19,0,.38,0,.66-.91-.08-1.76-.12-2.6-.22-3.24-.41-6.42-1.08-9.46-2.32-3.34-1.37-6.06-3.44-7.78-6.68-1.09-2.05-1.53-4.28-1.82-6.55-.53-4.11-.5-8.25-.61-12.39-.1-4.09-.28-8.19-.6-12.27-.28-3.44-.98-6.81-2.17-10.08-1.33-3.66-4.01-5.63-7.67-6.5-2.04-.48-4.11-.75-6.21-.73-2.17.03-4.34.09-6.51.13-.09,0-.19.03-.3.05Z"/><text class="cls-1" transform="translate(56.81 416.31) rotate(55.82) scale(.98 1)"><tspan x="0" y="0">C</tspan></text><text class="cls-1" transform="translate(75.9 444.36) rotate(47.88) scale(.98 1)"><tspan x="0" y="0">O</tspan></text><text class="cls-1" transform="translate(102.12 472.82) rotate(39.84) scale(.98 1)"><tspan x="0" y="0">V</tspan></text><text class="cls-1" transform="translate(128.34 494.37) rotate(32.69) scale(.98 1)"><tspan x="0" y="0">E</tspan></text><text class="cls-1" transform="translate(154.69 511.27) rotate(25.31) scale(.98 1)"><tspan x="0" y="0">R</tspan></text><text class="cls-1" transform="translate(187.73 526.51) rotate(17.99) scale(.98 1)"><tspan x="0" y="0">T</tspan></text><text class="cls-1" transform="translate(216.58 535.46) rotate(13.05) scale(.98 1)"><tspan x="0" y="0"> </tspan></text><text class="cls-1" transform="translate(231.83 539.46) rotate(7.25) scale(.98 1)"><tspan x="0" y="0">O</tspan></text><text class="cls-1" transform="translate(270.17 543.96) rotate(-.57) scale(.98 1)"><tspan x="0" y="0">P</tspan></text><text class="cls-1" transform="translate(303.25 543.42) rotate(-7.57) scale(.98 1)"><tspan x="0" y="0">E</tspan></text><text class="cls-1" transform="translate(334.26 539.28) rotate(-14.97) scale(.98 1)"><tspan x="0" y="0">R</tspan></text><text class="cls-1" transform="translate(369.5 529.59) rotate(-22.72) scale(.98 1)"><tspan x="0" y="0">A</tspan></text><text class="cls-1" transform="translate(401.46 516.1) rotate(-30.57) scale(.98 1)"><tspan x="0" y="0">T</tspan></text><text class="cls-1" transform="translate(427.5 500.69) rotate(-35.65) scale(.98 1)"><tspan x="0" y="0">I</tspan></text><text class="cls-1" transform="translate(447.72 486.33) rotate(-42) scale(.98 1)"><tspan x="0" y="0">V</tspan></text><text class="cls-1" transform="translate(472.76 463.45) rotate(-49.11) scale(.98 1)"><tspan x="0" y="0">E</tspan></text><text class="cls-1" transform="translate(493.03 439.85) rotate(-56) scale(.98 1)"><tspan x="0" y="0">S</tspan></text><text class="cls-2" transform="translate(182.08 85.16) rotate(-23.26)"><tspan x="0" y="0">P</tspan></text><text class="cls-2" transform="translate(209.66 73.27) rotate(-15.91)"><tspan x="0" y="0">S</tspan></text><text class="cls-2" transform="translate(237.63 65.45) rotate(-9.49)"><tspan x="0" y="0">I</tspan></text><text class="cls-2" transform="translate(259.43 61.83) rotate(-4.21)"><tspan x="0" y="0">-</tspan></text><text class="cls-2" transform="translate(278.86 60.04) rotate(2.12)"><tspan x="0" y="0">C</tspan></text><text class="cls-2" transform="translate(309.28 60.91) rotate(10.41)"><tspan x="0" y="0">O</tspan></text><text class="cls-2" transform="translate(344.02 67.69) rotate(17.52) scale(.7)"><tspan x="0" y="0">P</tspan></text><text class="cls-2" transform="translate(364.04 73.99) rotate(22.76) scale(.7)"><tspan x="0" y="0">S</tspan></text></svg>