<?xml version="1.0" encoding="UTF-8"?>
<svg id="uuid-25c1060a-f476-4179-b4d3-677dda6ebcb0" data-name="Capa 1" xmlns="http://www.w3.org/2000/svg" viewBox="0 0 566.93 566.93">
  <defs>
    <style>
      .uuid-d3247deb-8c37-4abf-b63a-d6d52d2c6d8f {
        fill: #fff8e6;
      }

      .uuid-3f4c85dd-055c-437a-94fa-d80090702703 {
        fill: #5a8bbb;
      }

      .uuid-67c2de81-52d7-4d9c-b45f-c3742e2b5e28 {
        fill: none;
      }

      .uuid-1d014292-5e4b-413f-b686-503d26ce2210 {
        fill: #e84e0f;
      }
    </style>
  </defs>
  <circle class="uuid-3f4c85dd-055c-437a-94fa-d80090702703" cx="283.46" cy="283.46" r="259.42"/>
  <path class="uuid-1d014292-5e4b-413f-b686-503d26ce2210" d="M284,4.25C129.55,4.11,4.35,128.91,4.25,283.08c-.1,154.39,124.78,279.54,278.98,279.59,154.09.06,279.26-124.7,279.44-278.52.18-154.5-124.54-279.76-278.68-279.9ZM283.01,543.5c-143.24.12-259.47-115.96-259.59-259.26-.12-143.24,115.96-259.47,259.26-259.59,143.24-.12,259.47,115.96,259.59,259.26.12,143.24-115.96,259.47-259.26,259.59Z"/>
  <g>
    <circle class="uuid-67c2de81-52d7-4d9c-b45f-c3742e2b5e28" cx="283.46" cy="283.46" r="214.23"/>
    <path class="uuid-d3247deb-8c37-4abf-b63a-d6d52d2c6d8f" d="M38.74,270.64c-.15-1.95-.2-4.5.09-7.7.35-3.94,1.52-6.74,3.34-8.43,1.62-1.56,3.95-2.37,6.7-2.13,2.79.25,4.92,1.27,6.38,2.97,2.06,2.31,2.9,5.85,2.55,9.74-.11,1.19-.25,2.29-.56,3.18l12.37,1.1-.36,3.99-30.51-2.72ZM53.99,267.98c.31-.85.5-1.94.61-3.27.43-4.81-1.65-7.95-5.91-8.33-4.08-.36-6.3,2.35-6.7,6.75-.16,1.74-.14,3.08-.01,3.79l12,1.07Z"/>
    <path class="uuid-d3247deb-8c37-4abf-b63a-d6d52d2c6d8f" d="M60.58,231.28l-2.33,11.83,10.97,2.17,2.6-13.18,3.29.65-3.38,17.11-30.42-6,3.24-16.43,3.3.65-2.47,12.5,9.61,1.9,2.33-11.83,3.25.64Z"/>
    <path class="uuid-d3247deb-8c37-4abf-b63a-d6d52d2c6d8f" d="M71.35,199.47c-4.17-1.17-9.18-2.58-12.83-3.87l-.04.13c3.1,2.17,6.35,4.63,9.9,7.49l12.49,10.02-.98,2.88h-15.6c-4.61-.01-8.8-.12-12.57-.48l-.03.09c3.63,1.33,8.48,3.22,12.79,4.97l12.32,5.06-1.23,3.62-28.67-12.02,1.64-4.83,15.9-.19c4.03,0,7.59.1,10.9.4l.04-.13c-2.71-1.75-5.58-3.89-8.84-6.45l-12.43-10.05,1.64-4.84,29.98,8.14-1.26,3.7-13.15-3.64Z"/>
    <path class="uuid-d3247deb-8c37-4abf-b63a-d6d52d2c6d8f" d="M86.23,164.1c9.46,4.95,11.46,13.32,7.8,20.33-3.8,7.26-12.09,9.41-20.4,5.06-8.72-4.56-11.59-12.97-7.75-20.31,3.92-7.5,12.21-9.34,20.36-5.08ZM75.52,185.66c5.87,3.07,12.79,2.64,15.71-2.94,2.94-5.62-.57-11.51-6.81-14.78-5.46-2.86-12.66-2.99-15.75,2.92-3.07,5.87.82,11.64,6.85,14.8Z"/>
    <path class="uuid-d3247deb-8c37-4abf-b63a-d6d52d2c6d8f" d="M79.71,146.69l10.54,7.56,8.74-12.19-10.54-7.56,2.36-3.29,25.2,18.06-2.36,3.29-11.82-8.47-8.74,12.19,11.82,8.47-2.33,3.25-25.2-18.06,2.33-3.25Z"/>
    <path class="uuid-d3247deb-8c37-4abf-b63a-d6d52d2c6d8f" d="M103.61,121.72l-6.37,6.95-2.51-2.3,15.5-16.93,2.51,2.3-6.4,6.99,20.35,18.64-2.73,2.99-20.35-18.64Z"/>
    <path class="uuid-d3247deb-8c37-4abf-b63a-d6d52d2c6d8f" d="M117.74,102.51l8.46,9.84,11.37-9.78-8.46-9.84,3.07-2.64,20.22,23.51-3.07,2.64-9.48-11.02-11.37,9.78,9.48,11.02-3.04,2.61-20.22-23.51,3.03-2.61Z"/>
    <path class="uuid-d3247deb-8c37-4abf-b63a-d6d52d2c6d8f" d="M143.43,81.99l7.11,10.96c2.68,4.13,4.8,7.58,6.82,11.2h.1c-.44-3.56-.64-7.43-.75-11.75l-.27-18.85,3.36-2.18,16.86,26.01-3.16,2.05-7.18-11.08c-2.73-4.21-4.69-7.32-6.55-10.78l-.14.04c.58,3.68.75,7.84.85,11.89l.24,18.21-3.59,2.33-16.86-26.01,3.17-2.05Z"/>
    <path class="uuid-d3247deb-8c37-4abf-b63a-d6d52d2c6d8f" d="M172.04,64.95l6,12.38,1.12-.54,3.56-17.01,4.35-2.11-4.35,17.91c4.9-1.61,8.04.34,11.31,3.41,2.42,2.35,4.45,4.54,6.9,6.42l-3.89,1.89c-1.92-1.42-3.91-3.52-5.72-5.36-3.07-3.06-6.07-4.72-10.79-2.44l-1.16.56,6.2,12.79-3.56,1.73-13.52-27.9,3.56-1.73Z"/>
    <path class="uuid-d3247deb-8c37-4abf-b63a-d6d52d2c6d8f" d="M209.89,49.35l1.12,3.17-12.62,4.46,2.77,7.85c.87-.45,2.57-1.15,3.52-1.49,2.78-.98,5.72-1.34,8.24-.71,2.72.65,5.05,2.42,6.26,5.84.96,2.73.79,5.14-.19,7.19-1.56,3.19-5.19,5.49-9.18,6.9-2.65.93-4.7,1.46-6.02,1.74l-10.29-29.15,16.4-5.79ZM206.56,80.14c.93-.13,1.94-.44,3.24-.9,2.34-.83,4.47-2.41,5.37-4.43.63-1.39.73-3.04.09-4.86-.8-2.26-2.29-3.44-4.07-3.93-1.89-.5-3.99-.25-6.08.48-.87.31-2.01.81-2.93,1.23l4.38,12.41Z"/>
    <path class="uuid-d3247deb-8c37-4abf-b63a-d6d52d2c6d8f" d="M248.68,55.56c2.26,10.43-2.88,17.33-10.61,19.01-8,1.74-14.97-3.25-16.96-12.42-2.09-9.62,2.53-17.21,10.62-18.97,8.27-1.79,15,3.39,16.95,12.38ZM225.27,61.16c1.4,6.47,6.17,11.51,12.33,10.18,6.2-1.35,8.47-7.81,6.98-14.69-1.3-6.02-5.82-11.64-12.34-10.22-6.47,1.4-8.41,8.08-6.97,14.74Z"/>
    <path class="uuid-d3247deb-8c37-4abf-b63a-d6d52d2c6d8f" d="M259.26,42.79l-9.39.87-.31-3.39,22.85-2.11.31,3.39-9.44.87,2.53,27.48-4.03.37-2.53-27.48Z"/>
    <path class="uuid-d3247deb-8c37-4abf-b63a-d6d52d2c6d8f" d="M289.18,38.5c1.77-.26,4.54-.37,7.34-.2,4,.24,6.52,1.09,8.36,2.77,1.53,1.29,2.39,3.19,2.24,5.62-.18,2.98-2.32,5.48-5.65,6.48v.09c2.89.91,6.18,3.56,5.9,8.15-.16,2.66-1.34,4.62-3,6.04-2.28,1.84-5.82,2.55-10.88,2.24-2.75-.17-4.86-.48-6.18-.75l1.86-30.44ZM291.5,66.25c.77.18,1.92.3,3.34.39,4.13.25,8.04-1.03,8.31-5.53.26-4.22-3.26-6.19-7.62-6.46l-3.31-.2-.72,11.8ZM292.4,51.42l3.63.22c4.22.26,6.84-1.79,7.02-4.78.22-3.63-2.45-5.22-6.49-5.46-1.84-.11-2.9-.04-3.55.06l-.61,9.96Z"/>
    <path class="uuid-d3247deb-8c37-4abf-b63a-d6d52d2c6d8f" d="M322.9,58.65l-.45,2.96-11.24-1.7.45-2.96,11.23,1.7Z"/>
    <path class="uuid-d3247deb-8c37-4abf-b63a-d6d52d2c6d8f" d="M347.12,51.17l-11.1-2.65-2.9,7.21c.69.07,1.34.13,2.41.39,2.24.53,4.36,1.56,5.89,3.06,1.97,1.84,3.25,4.8,2.38,8.47-1.36,5.68-6.89,8.86-13.2,7.35-3.18-.76-5.65-2.29-6.82-3.52l1.7-2.76c1.04,1,3.2,2.46,5.84,3.09,3.71.89,7.47-.77,8.4-4.67.85-3.77-1.01-7.05-6.83-8.44-1.66-.39-3-.53-4.1-.65l5.21-13.51,13.92,3.32-.79,3.31Z"/>
    <path class="uuid-d3247deb-8c37-4abf-b63a-d6d52d2c6d8f" d="M364.62,66.29l13.37,5.47c1.8-5.73.14-11.52-5.78-13.94-2.3-.94-4.56-1.12-6.72-1.06l.27-3.22c2.41-.06,5.19.19,7.92,1.3,9.02,3.69,10.96,12.09,7.54,20.43-3.85,9.41-12.26,12.23-19.88,9.11-2.85-1.17-5.22-2.78-6.88-4.55l2.01-2.61c1.35,1.45,3.5,2.97,5.63,3.85,6.34,2.59,12.01-.45,14.71-6.31l-13.41-5.49,1.22-2.98Z"/>
    <path class="uuid-d3247deb-8c37-4abf-b63a-d6d52d2c6d8f" d="M411.93,74.26l-15.09,27.08-3.54-1.97,13.45-24.15-8.96-4.99-4.57,8.2c-3.27,5.87-7.16,12.28-12.41,12.73-1.36.08-3.29-.15-4.86-1.02l1.12-3.06c1.2.4,2.68.39,3.66.14,3.36-.92,6.49-6.07,8.91-10.41l6.36-11.41,15.91,8.87Z"/>
    <path class="uuid-d3247deb-8c37-4abf-b63a-d6d52d2c6d8f" d="M423.4,102.24l-9.8-7.02-6.51,9.09,10.92,7.82-1.96,2.73-14.17-10.16,18.06-25.2,13.61,9.75-1.96,2.73-10.36-7.42-5.71,7.96,9.8,7.02-1.93,2.69Z"/>
    <path class="uuid-d3247deb-8c37-4abf-b63a-d6d52d2c6d8f" d="M443.08,97.15l-9.17,10.26.93.83,17.09-3.17,3.6,3.22-18.22,2.78c3.35,3.92,2.74,7.57,1.14,11.76-1.26,3.13-2.51,5.84-3.32,8.82l-3.22-2.88c.59-2.31,1.78-4.95,2.78-7.32,1.67-4,2.06-7.41-1.85-10.91l-.96-.86-9.48,10.6-2.95-2.64,20.67-23.12,2.95,2.64Z"/>
    <path class="uuid-d3247deb-8c37-4abf-b63a-d6d52d2c6d8f" d="M462.58,120.94l-6.27-7.04,2.54-2.26,15.26,17.14-2.54,2.26-6.3-7.08-20.61,18.36-2.69-3.02,20.61-18.35Z"/>
    <path class="uuid-d3247deb-8c37-4abf-b63a-d6d52d2c6d8f" d="M477.4,133.71c1.39,1.38,3.08,3.28,4.96,5.9,2.3,3.22,3.24,6.11,2.96,8.57-.21,2.24-1.45,4.38-3.69,5.98-2.28,1.63-4.56,2.24-6.78,1.91-3.07-.41-6.01-2.54-8.28-5.72-.69-.97-1.3-1.9-1.65-2.78l-10.1,7.23-2.33-3.25,24.91-17.83ZM467.57,145.67c.32.84.89,1.79,1.67,2.88,2.81,3.93,6.43,4.96,9.91,2.47,3.33-2.38,3.25-5.89.68-9.48-1.02-1.42-1.91-2.43-2.46-2.88l-9.8,7.01Z"/>
    <path class="uuid-d3247deb-8c37-4abf-b63a-d6d52d2c6d8f" d="M492.42,186.19c-9.38,5.09-17.45,2.09-21.22-4.87-3.91-7.2-1.07-15.28,7.18-19.76,8.65-4.7,17.23-2.39,21.18,4.89,4.04,7.44.95,15.35-7.14,19.74ZM480.5,165.29c-5.82,3.16-9.33,9.14-6.32,14.68,3.03,5.58,9.88,5.95,16.06,2.59,5.42-2.94,9.54-8.84,6.36-14.71-3.16-5.82-10.12-5.82-16.1-2.57Z"/>
    <path class="uuid-d3247deb-8c37-4abf-b63a-d6d52d2c6d8f" d="M510.51,190.45l-12.15,4.56,5.27,14.04,12.15-4.56,1.42,3.79-29.03,10.89-1.42-3.79,13.61-5.11-5.27-14.04-13.61,5.11-1.41-3.75,29.03-10.89,1.41,3.75Z"/>
    <path class="uuid-d3247deb-8c37-4abf-b63a-d6d52d2c6d8f" d="M520.94,221.66l-12.74,2.89c-4.8,1.09-8.77,1.9-12.86,2.54l-.02.1c3.49.81,7.19,1.95,11.28,3.34l17.78,6.24.89,3.9-30.23,6.87-.83-3.68,12.87-2.92c4.89-1.11,8.49-1.88,12.37-2.43v-.14c-3.64-.73-7.61-2-11.44-3.29l-17.17-6.05-.95-4.17,30.23-6.87.83,3.68Z"/>
    <path class="uuid-d3247deb-8c37-4abf-b63a-d6d52d2c6d8f" d="M527.08,254.42l-13.69,1.35.12,1.24,14.73,9.23.47,4.81-15.3-10.28c-.19,5.15-3.11,7.42-7.11,9.44-3.05,1.46-5.8,2.61-8.41,4.25l-.42-4.3c2-1.31,4.66-2.45,7-3.51,3.93-1.82,6.53-4.06,6.02-9.28l-.13-1.28-14.15,1.39-.39-3.94,30.86-3.04.39,3.94Z"/>
  </g>
  <g>
    <circle class="uuid-67c2de81-52d7-4d9c-b45f-c3742e2b5e28" cx="283.46" cy="313.79" r="214.23"/>
    <path class="uuid-d3247deb-8c37-4abf-b63a-d6d52d2c6d8f" d="M191.76,496.7l-7.05,7.47-3.75-1.75,22.68-23.62,4.37,2.05-3.56,32.56-3.88-1.81,1.13-10.24-9.96-4.66ZM202.3,498.17l1.03-9.37c.23-2.12.6-3.99.94-5.81l-.08-.04c-1.2,1.47-2.45,2.96-3.79,4.42l-6.55,6.84,8.46,3.96Z"/>
    <path class="uuid-d3247deb-8c37-4abf-b63a-d6d52d2c6d8f" d="M220.46,486.51c1.94.27,4.44.75,7.51,1.71,3.78,1.17,6.27,2.91,7.54,5.04,1.19,1.91,1.49,4.36.67,7-.83,2.68-2.28,4.54-4.25,5.62-2.69,1.52-6.33,1.6-10.06.44-1.14-.36-2.18-.73-2.99-1.22l-3.69,11.86-3.82-1.19,9.09-29.25ZM219.84,501.97c.77.48,1.79.89,3.07,1.29,4.61,1.43,8.12.07,9.39-4.02,1.22-3.91-.96-6.66-5.18-7.97-1.67-.52-2.98-.78-3.7-.81l-3.58,11.51Z"/>
    <path class="uuid-d3247deb-8c37-4abf-b63a-d6d52d2c6d8f" d="M246.22,493.39l-2.09,12.9c-.79,4.86-1.53,8.84-2.46,12.88l.08.06c2.06-2.93,4.5-5.93,7.32-9.21l12.45-14.15,3.95.64-4.96,30.6-3.72-.6,2.11-13.03c.8-4.95,1.43-8.57,2.38-12.38l-.13-.07c-2.04,3.12-4.71,6.32-7.34,9.39l-12.04,13.66-4.22-.68,4.96-30.6,3.72.6Z"/>
    <path class="uuid-d3247deb-8c37-4abf-b63a-d6d52d2c6d8f" d="M275.6,518.19l-3.33,9.72-4.14-.05,10.88-30.88,4.83.05,10.24,31.12-4.28-.05-3.21-9.79-10.99-.12ZM285.8,515.17l-2.94-8.96c-.67-2.03-1.11-3.88-1.55-5.68h-.09c-.48,1.83-1.01,3.71-1.63,5.59l-3.14,8.94,9.34.1Z"/>
    <path class="uuid-d3247deb-8c37-4abf-b63a-d6d52d2c6d8f" d="M319.5,493.74l3.9,27.46,2.7-.29,1.22,10.56-3.1.44-1.32-7.34-19.36,2.75.78,7.42-3.1.44-1.77-10.48,2.31-.42c.84-2.26,1.66-4.65,2.05-7.17.54-3.7.37-7.86-.38-13.14l-1.11-7.79,17.17-2.44ZM307.31,504.72c.7,4.92.83,9.13.23,12.74-.33,2.23-1,4.42-1.68,6.19l13.57-1.93-3.43-24.14-9.52,1.35.82,5.79Z"/>
    <path class="uuid-d3247deb-8c37-4abf-b63a-d6d52d2c6d8f" d="M329.33,491.36l3.74,12.42,14.36-4.32-3.74-12.42,3.88-1.17,8.94,29.68-3.88,1.17-4.19-13.92-14.36,4.33,4.19,13.92-3.83,1.15-8.94-29.68,3.83-1.15Z"/>
    <path class="uuid-d3247deb-8c37-4abf-b63a-d6d52d2c6d8f" d="M366.12,500.95l1.27,10.19-3.74,1.77-3.77-32.53,4.36-2.07,22.85,23.48-3.87,1.83-7.17-7.39-9.94,4.71ZM373.96,493.77l-6.57-6.76c-1.49-1.53-2.69-3-3.88-4.42l-.08.04c.37,1.86.72,3.78.99,5.74l1.1,9.41,8.44-4Z"/>
  </g>
  <g>
    <path class="uuid-d3247deb-8c37-4abf-b63a-d6d52d2c6d8f" d="M378.14,383.91h-189.01c-11.84-12.12-23.7-24.25-36.02-36.85v-27.99h62.09v13.7c4.04,4.34,7.64,8.2,10.94,11.76h125.58v-45.91h-157.41c-11.73-12.45-23.58-25.02-36.34-38.57v-69.36h246.04v38.73h-183.5v29.67h157.26c12.37,12.37,24.27,24.27,36.27,36.28v45.37c-11.79,14.17-23.81,28.61-35.92,43.17Z"/>
    <path class="uuid-1d014292-5e4b-413f-b686-503d26ce2210" d="M292.28,116.97v-22.65c90.91,1.47,177.21,79.04,180.72,180.33h-22.9c-2.99-42.2-18.74-78.92-48.82-108.96-29.97-29.93-66.53-45.69-108.99-48.72Z"/>
    <path class="uuid-1d014292-5e4b-413f-b686-503d26ce2210" d="M274.81,450.02v22.51c-84.05-.22-175.9-72.26-180.88-180.12h23.08c2.99,42.22,18.75,78.77,48.67,108.75,29.94,30,66.49,45.75,109.13,48.86Z"/>
    <path class="uuid-1d014292-5e4b-413f-b686-503d26ce2210" d="M292.27,472.94v-22.91c42.31-2.97,79-18.74,109.06-48.8,29.96-29.97,45.7-66.52,48.75-108.9h22.62c-1.81,88.71-75.95,175.87-180.43,180.6Z"/>
    <path class="uuid-1d014292-5e4b-413f-b686-503d26ce2210" d="M274.75,93.99v21.95c-92.74,13.03-145.43,65.55-158.8,158.68h-21.51c1.11-84.49,71.83-175,180.32-180.63Z"/>
  </g>
</svg>