<svg viewBox="0 0 558.98 558.98" xmlns="http://www.w3.org/2000/svg"><circle cx="279.49" cy="279.49" fill="#009fe4" r="237.94"/><g transform="translate(-29.27 -88.37)"><path d="m308.77 644.14a276.28 276.28 0 1 1 195.36-80.92 274.47 274.47 0 0 1 -195.36 80.92zm0-511c-129.43 0-234.77 105.29-234.77 234.72s105.3 234.72 234.72 234.72 234.72-105.3 234.72-234.72-105.25-234.72-234.67-234.72z" fill="#f6f6f6"/><path d="m308.77 94.79c150.81 0 273.07 122.26 273.07 273.07s-122.26 273.07-273.07 273.07-273.07-122.26-273.07-273.07 122.3-273.07 273.07-273.07m0 511c131.41 0 237.94-106.53 237.94-237.94s-106.54-237.92-237.94-237.92-237.94 106.52-237.94 237.93 106.53 237.94 237.94 237.94m0-517.43a278.64 278.64 0 1 0 108.79 22 277.75 277.75 0 0 0 -108.79-22zm0 511c-127.66 0-231.51-103.86-231.51-231.51s103.85-231.51 231.51-231.51 231.51 103.86 231.51 231.51-103.86 231.51-231.51 231.51z" fill="#009fe3"/><path d="m188.06 216.44q4.82 6.91-3 13.31l-15.78 12.93q-8.36 6.84-14.44-.58l-9.84-12.1q-6.08-7.42 2.27-14.27l15.73-12.9q8.31-6.81 13.59-.37v.06l-20.38 16.7q-3.71 3-1.43 5.83l6.84 8.35q2.27 2.77 6-.26z" fill="#fff"/><path d="m214.45 195.16q3.45-1.7 2.17-4.28l-.42-.86q-1.27-2.58-4.72-.89l-12.06 5.93 9.33 18.94-7.75 3.82-12.29-25 23.29-11.42q7.75-3.81 11.14 3.08l2.54 5.17q1.27 2.59 0 4.3 2.16 0 3.44 2.59l3 6-7.75 3.81-2.12-4.31q-1.27-2.59-4.72-.89l-8.61 4.24-5.55-4.76z" fill="#fff"/><path d="m257.39 182.79-6-6.35-5.39 21.17-8.37 2.14 7-30.54 9.3-2.38 20.85 23.4-8.37 2.14-3.75-4-8.6 2.2-4.46-5.8z" fill="#fff"/><path d="m279.67 161.22 24-1q8.63-.35 8.94 7.32l.12 2.88a2.55 2.55 0 0 1 -.88 2 6.5 6.5 0 0 1 3.11 5.64l.12 2.88q.28 6.71-7.78 7l-26.5 1.06zm20.57 9.78q3.84-.15 3.76-2.07t-3.92-1.76l-11.51.47.58 14.39 13.43-.55q3.84-.16 3.76-2.07t-3.92-1.76l-9.59.39-3.15-6.6z" fill="#fff"/><path d="m330 153 29.45 5.72q10.6 2.06 8.77 11.48l-.69 3.53a3.18 3.18 0 0 1 -1.64 2.13 8.15 8.15 0 0 1 2.16 7.75l-.69 3.53q-1.6 8.25-11.5 6.32l-32.51-6.31zm22.22 17.76q4.71.92 5.17-1.44t-4.3-3.32l-14.09-2.74-3.43 17.67 16.49 3.2q4.71.91 5.17-1.44t-4.25-3.27l-11.78-2.29-1.93-8.93z" fill="#fff"/><path d="m393.86 176.14 17.47 8q7.86 3.58 4.68 10.57l-5.16 11.29q-3.18 7-11 3.41l-17.47-8q-7.86-3.58-4.68-10.57l5.17-11.36q3.13-6.92 10.99-3.34zm-4 8.74-3.58 7.86q-1.18 2.6 2.3 4.21l10.49 4.77q3.5 1.59 4.69-1l3.58-7.86q1.19-2.62-2.3-4.21l-10.49-4.77q-3.48-1.63-4.67 1z" fill="#fff"/><path d="m436 207.43 5.83 6.66-10.83 14.7-7-5.11zm-4.75-13 25.55 18.73-4 5.42-25.55-18.73z" fill="#fff"/><path d="m473.16 228.29 11 12.08q5.81 6.39.84 10.91l-14.2-15.63q-2.57-2.83-4-1.55-1.06 1 1.5 3.79l7.7 9.9q5.08 7 .11 11.54l-1.07 1q-5.68 5.17-11.49-1.23l-11-12.08q-5.81-6.4-.84-10.91l14.85 16.34q1.94 2.13 3.37.86 1.07-1-.89-3.12l-8.33-10.59q-5.1-7-.13-11.56l1.07-1q5.7-5.15 11.51 1.25z" fill="#fff"/><path d="m116.55 202.7q1.46-1.72.17-2.82l-.43-.37q-1.29-1.1-2.76.63l-5.13 6 9.48 8.06-3.3 3.88-12.5-10.62 9.92-11.61q3.3-3.88 6.74-1l2.58 2.2a2.27 2.27 0 0 1 1 2.34 2.26 2.26 0 0 1 2.47.59l3 2.56-3.29 3.88-2.15-1.83q-1.29-1.1-2.76.63l-3.66 4.31-4.12-1.27z" fill="#009fe4"/><path d="m121.86 185.08 10.14-9.84 2.76 2.84-8.93 8.66 5.91 6.09 8.93-8.66 2.75 2.84-10.15 9.84q-2.43 2.36-4.8-.08l-6.69-6.9q-2.36-2.43.08-4.79zm12.45-3.41 4 1.66-6.5 6.3-4-1.66z" fill="#009fe4"/><path d="m152.69 170.41-.85-9.37a3.8 3.8 0 0 1 1.63-3.42l3.57-2.78 10.08 12.94-4 3.13-6.61-8.48 1.25 12.65-1.76 1.38-12-4.3 6.6 8.48-4 3.13-10.08-12.94 3.57-2.78a3.81 3.81 0 0 1 3.72-.75z" fill="#009fe4"/><path d="m166.64 148.52 9.66-5.89q4.35-2.65 6.7 1.22l3.83 6.28q2.36 3.86-2 6.51l-9.66 5.89q-4.35 2.65-6.7-1.21l-3.82-6.32q-2.36-3.84 1.99-6.48zm2.94 4.83 2.65 4.35q.87 1.44 2.81.27l5.8-3.53q1.93-1.18 1-2.63l-2.65-4.35q-.88-1.45-2.82-.27l-5.79 3.53q-1.88 1.18-1 2.62z" fill="#009fe4"/><path d="m186.06 137 16.82-8.09 1.72 3.57-16.82 8.09zm8.08 1.14 5.08-1.19 4.66 9.68-4.59 2.21z" fill="#009fe4"/><path d="m211.63 125.2 13.25-4.92 1.38 3.71-11.66 4.33 3 8 11.66-4.33 1.38 3.71-13.25 4.92q-3.18 1.18-4.36-2l-3.35-9q-1.23-3.24 1.95-4.42zm12.77 1.89 3 3.12-8.48 3.15-3-3.12z" fill="#009fe4"/><path d="m261.48 120.63-3.29-3.94-3.94 12.31-5 1 5.18-17.72 5.55-1.09 11.47 14.47-5 1-2.07-2.48-5.13 1-2.42-3.56z" fill="#009fe4"/><path d="m277.9 108.25a5.42 5.42 0 0 1 4.1 1.35l9.29 8.84-1-11.27 5.07-.44 1.43 16.34-4.51.39a5.43 5.43 0 0 1 -4.09-1.34l-9.29-8.84 1 11.27-5.07.44-1.43-16.34z" fill="#009fe4"/><path d="m321.15 119.2q-.36 4-5.13 3.87l-9.61-.16q-5.09-.09-5-4.61l.13-7.35q.08-4.52 5.17-4.44l9.61.16q5.06.09 5 4l-12.41-.21q-2.26 0-2.29 1.66l-.09 5.09q0 1.68 2.23 1.73z" fill="#009fe4"/><path d="m327.23 107.22 5.07.44-1.42 16.34-5.07-.44z" fill="#009fe4"/><path d="m343.14 108.83-1.89 12.3 12.3 1.89-.6 3.91-14-2.14q-3.35-.52-2.84-3.87l2-12.86z" fill="#009fe4"/><path d="m366.37 113-3 12.08 12.08 3-.95 3.84-13.72-3.39q-3.29-.81-2.48-4.11l3.12-12.63z" fill="#009fe4"/><path d="m393.18 130.83-.84-5.06-9.61 8.58-4.8-1.69 13.43-12.66 5.34 1.87 2.57 18.28-4.8-1.69-.53-3.18-4.94-1.73-.29-4.3z" fill="#009fe4"/><path d="m417.86 139.23q2 1 2.77-.57l.24-.51q.72-1.54-1.33-2.5l-7.17-3.36-5.29 11.26-4.61-2.16 7-14.84 13.8 6.45q4.61 2.16 2.68 6.26l-1.44 3.07a2.27 2.27 0 0 1 -2 1.56 2.25 2.25 0 0 1  .08 2.54l-1.68 3.57-4.61-2.16 1.2-2.56q.72-1.54-1.33-2.5l-5.12-2.4.15-4.3z" fill="#009fe4"/><path d="m438.6 148.61 7.92-2.77 4.85 2.91-12.29 4-3.41 5.7-4.37-2.62 3.41-5.7-2.27-12.73 4.85 2.91z" fill="#009fe4"/><path d="m480.7 171.11 3.87 3.3-7.7 9q-2.93 3.45-6.81.15l-7.32-6.23q-3.88-3.3-.94-6.74l7.7-9 3.88 3.3-7 8.18q-1.09 1.28.62 2.76l3.88 3.3q1.72 1.47 2.82.17z" fill="#009fe4"/><path d="m492.37 181.83a5.42 5.42 0 0 1 1.5 4l-1.12 12.77 8.19-7.8 3.51 3.69-11.88 11.31-3.12-3.28a5.43 5.43 0 0 1 -1.5-4l1.12-12.77-8.19 7.8-3.51-3.69 11.88-11.31z" fill="#009fe4"/><path d="m508.23 199.12 3.22 3.94-12.69 10.38-3.22-3.94z" fill="#009fe4"/><path d="m515.5 215.66 2 4.8-8.76 6.22-2.95-4.15zm-.24-8.15 10.81 15.21-3.23 2.28-10.84-15.2z" fill="#009fe4"/><path d="m272.19 318.39c-10.43-10-10.48-10-20.87.58-3.78 3.82-7.22 8.08-11.44 11.35-6.7 5.19-5 7.62 1.49 11.72 20.66 13.14 30.18 38.92 24 62.43-6 22.9-26.44 40.79-49.23 42.89-17.65 1.62-32.6-2.92-44.22-13.39.67 4.46 1.54 8.91 2.59 13.3a93.92 93.92 0 0 0 57.29 7.14c30.24-5.85 53.79-21.19 62.91-52.34 9.4-32.13 1.81-60.34-22.52-83.68z" fill="#fff"/><path d="m467 289.85c-34.8-31.49-74.57-51.38-122.2-55.06-72.34-5.58-136.1 13.67-189.58 63.38-19.07 17.72-33.6 38.83-34.69 66-1.35 33.54 18.34 63.32 46.72 79.36a132.27 132.27 0 0 1 -5.86-22.06c-.46-.72-.94-1.42-1.38-2.16-12-20-11.57-41.24 1.24-60.93 13.59-20.89 33.78-29 58.2-25.31 5.43.82 8.57-.14 12.09-3.89 10.57-11.18 19.81-24.65 32.46-32.75 56.17-36.07 115.64-43.86 177.63-15.18 10.49 4.85 20.21 11.35 31.47 17.76-.23-5.65-3.71-7.01-6.1-9.16z" fill="#fff"/><path d="m345.34 453.13c10.43 10 10.48 10 20.87-.58 3.78-3.82 7.22-8.08 11.44-11.35 6.7-5.19 5-7.62-1.49-11.72-20.66-13.14-30.18-38.92-24-62.43 6-22.9 26.44-40.79 49.23-42.89 17.65-1.62 32.6 2.92 44.22 13.39-.67-4.46-1.54-8.91-2.59-13.3a93.92 93.92 0 0 0 -57.29-7.14c-30.24 5.85-53.79 21.19-62.91 52.34-9.4 32.13-1.82 60.34 22.52 83.68z" fill="#fff"/><path d="m150.49 481.67c34.8 31.49 74.57 51.38 122.2 55.06 72.34 5.58 136.1-13.67 189.58-63.38 19.07-17.72 33.6-38.83 34.69-66 1.35-33.54-18.34-63.32-46.72-79.36a132.27 132.27 0 0 1 5.87 22.01c.46.72.94 1.42 1.38 2.16 12 20 11.57 41.24-1.24 60.93-13.59 20.89-33.78 29-58.2 25.31-5.43-.82-8.57.14-12.09 3.89-10.54 11.22-19.77 24.67-32.39 32.77-56.17 36.07-115.64 43.86-177.63 15.18-10.49-4.85-20.21-11.35-31.47-17.76.19 5.69 3.67 7.06 6.02 9.19z" fill="#fff"/><path d="m72.78 425.74q1.51 6.72-4.46 8.06l-4.48 1q-5.23 1.17-6.63-5.1l-2.45-10.9 4.72-3.41 2.18 9.71q.67 3 2.91 2.48l.75-.17q2.24-.5 1.57-3.49l-2.35-10.45-16.42 3.69-1.51-6.72 21.65-4.86z" fill="#009fe4"/><path d="m66.32 455.36 3.68-4.16-13.76-2.2-1.85-5.19 19.81 2.68 2.06 5.76-13.64 14.59-1.85-5.19 2.32-2.65-1.9-5.33 3.42-3.17z" fill="#009fe4"/><path d="m82.83 468.83a5.87 5.87 0 0 1  .24 4.66l-5.31 12.82 11-5.38 2.42 4.95-15.94 7.81-2.15-4.4a5.88 5.88 0 0 1 -.24-4.66l5.31-12.82-11 5.39-2.42-4.95 15.94-7.81z" fill="#009fe4"/><path d="m100.81 493.7 8.43 12.77q3.79 5.75-1.32 9.12l-8.3 5.48q-5.11 3.37-8.9-2.38l-8.43-12.77q-3.79-5.75 1.32-9.12l8.3-5.48q5.09-3.37 8.9 2.38zm-6.39 4.21-5.75 3.79q-1.9 1.26-.23 3.82l5.06 7.66q1.68 2.55 3.6 1.29l5.75-3.79q1.92-1.26.23-3.82l-5.08-7.66q-1.66-2.55-3.57-1.29z" fill="#009fe4"/><path d="m116.45 544.26q-3.47 2.54-6.82-1.39l-6.76-7.87q-3.57-4.19.15-7.37l6.05-5.17q3.73-3.18 7.3 1l6.75 7.92q3.56 4.17.33 6.92l-8.72-10.22q-1.59-1.86-3-.67l-4.2 3.59q-1.38 1.18.19 3.06z" fill="#009fe4"/><path d="m132.79 541.83 11.07 10.57-3 3.1-9.74-9.3-6.34 6.64 9.74 9.3-3 3.1-11.07-10.57q-2.66-2.54-.12-5.19l7.27-7.48q2.53-2.7 5.19-.17zm4.21 13.33-1.63 4.37-7.08-6.76 1.63-4.37z" fill="#009fe4"/><path d="m152 572.49.86-5.49-12.8 5.54-4.36-3.37 18.13-8.42 4.84 3.75-3.6 19.66-4.36-3.37.54-3.45-4.48-3.46 1.17-4.51z" fill="#009fe4"/><path d="m173.17 574.94a5.87 5.87 0 0 1 2.71 3.79l2.46 13.66 6.34-10.47 4.71 2.85-9.19 15.23-4.2-2.59a5.87 5.87 0 0 1 -2.71-3.79l-2.45-13.62-6.34 10.47-4.71-2.85 9.21-15.22z" fill="#009fe4"/><path d="m194 587 4.93 2.46-7.93 15.92-4.93-2.46z" fill="#009fe4"/><path d="m212.24 606.83-.64-5.52-10.84 8.77-5.1-2.08 15.2-13 5.67 2.31 1.81 19.9-5.1-2.08-.4-3.47-5.24-2.14-.08-4.66z" fill="#009fe4"/><path d="m233.32 603.52a5.87 5.87 0 0 1 3.63 2.93l6 12.5 3.32-11.78 5.3 1.49-4.81 17.09-4.71-1.33a5.87 5.87 0 0 1 -3.63-2.93l-6-12.5-3.32 11.78-5.3-1.49 4.81-17.09z" fill="#009fe4"/><path d="m289.78 623-2.85-6.33-9.62 14.53-6.86-.56 13.23-21.19 7.63.62 9.65 23-6.86-.56-1.8-4-7-.57-1.86-5.52z" fill="#009fe4"/><path d="m321 623.47q2.44-.1 2.37-1.94v-.61q-.08-1.84-2.52-1.73l-8.56.36.56 13.46-5.5.23-.74-17.74 16.51-.69q5.5-.23 5.71 4.66l.15 3.67a3 3 0 0 0  .21 4.89l.18 4.28-5.5.23-.13-3.06q-.08-1.83-2.52-1.73l-6.12.26-2-4.2z" fill="#009fe4"/><path d="m349.25 622.39 4-9.36a4.12 4.12 0 0 1 3.32-2.41l4.83-.8 2.91 17.51-5.43.9-1.88-11.47-5.34 12.68-2.42.4-9.15-10.27 1.91 11.43-5.43.9-2.91-17.51 4.83-.8a4.12 4.12 0 0 1 3.92 1.21z" fill="#009fe4"/><path d="m371.6 607.16 11.73-3.49q5.28-1.57 6.68 3.12l2.27 7.63q1.4 4.69-3.88 6.26l-11.74 3.49q-5.28 1.57-6.68-3.12l-2.27-7.63q-1.39-4.69 3.89-6.26zm1.74 5.87 1.57 5.28q.52 1.74 2.87 1.06l7-2.09q2.35-.7 1.82-2.46l-1.57-5.28q-.52-1.76-2.87-1.06l-7 2.09q-2.33.7-1.81 2.43z" fill="#009fe4"/><path d="m409.72 602.92q2.25-1 1.54-2.65l-.24-.56q-.72-1.69-3-.74l-7.89 3.34 5.25 12.4-5.07 2.15-6.92-16.35 15.22-6.45q5.07-2.15 7 2.36l1.43 3.38a3 3 0 0 0 1.91 4.51l1.67 3.95-5.07 2.15-1.19-2.82q-.72-1.69-3-.74l-5.64 2.39-3.33-3.24z" fill="#009fe4"/><path d="m421.52 588 13.41-7.38 2.07 3.75-11.8 6.5 4.43 8 11.79-6.5 2.07 3.75-13.4 7.38q-3.22 1.77-5-1.44l-5-9.11q-1.79-3.17 1.43-4.95zm14 0 3.68 2.87-8.58 4.73-3.68-2.87z" fill="#009fe4"/><path d="m454 589.6-4.52 3.15-10.15-14.56 14.59-10.19q4.52-3.15 7.32.87l4.55 6.53q2.8 4-1.72 7.17l-8 5.6-4-2.46 7.53-5.25q2-1.4 1-2.91l-3.15-4.52q-1.05-1.51-3.06-.11l-8 5.6z" fill="#009fe4"/><path d="m503.37 540.15q3.56 4-.92 8.65l-9 9.34q-4.79 4.95-9.19.69l-7.15-6.92q-4.4-4.26.39-9.21l9.05-9.34q4.77-4.92 8.58-1.23l-11.69 12.07q-2.13 2.2-.48 3.8l4.95 4.79q1.64 1.59 3.78-.6z" fill="#009fe4"/><path d="m514.86 522.54-5.5-.8 5.64 12.74-3.33 4.39-8.6-18 3.7-4.88 19.69 3.4-3.33 4.39-3.46-.51-3.42 4.51-4.52-1.12z" fill="#009fe4"/><path d="m530.68 502.3-7-12 2.82-4.73 10.54 17-3.14 5.26-19.95-1.21 2.82-4.73z" fill="#009fe4"/><path d="m543.5 474.07-5.54.42 8.32 11.2-2.29 5-12.34-15.69 2.54-5.57 20-1-2.29 5-3.48.26-2.42 5.16-4.66-.11z" fill="#009fe4"/><path d="m541.18 452.25 12.76 4.3 4.3-12.76 4.06 1.37-4.88 14.5q-1.17 3.48-4.65 2.31l-13.34-4.49z" fill="#009fe4"/><path d="m558.51 423q .54-2.39-1.25-2.79l-.6-.13q-1.79-.41-2.33 2l-1.9 8.36 13.13 3-1.22 5.37-17.34-3.99 3.67-16.12q1.22-5.37 6-4.29l3.58.81a3 3 0 0 0 4.78 1.09l4.18 1-1.21 5.33-3-.68q-1.79-.41-2.33 2l-1.36 6-4.59.84z" fill="#009fe4"/><path d="m561.09 398.56-6.25-6.56.71-6.08 9.45 10.32 7.14.83-.64 5.47-7.15-.83-11.55 7.9.71-6.08z" fill="#009fe4"/></g></svg>