<svg id="Capa_1" data-name="Capa 1" xmlns="http://www.w3.org/2000/svg" viewBox="0 0 566.93 566.93"><defs><style>.cls-1{fill:#f6e116;}.cls-2{fill:#413273;}.cls-3{fill:#fae400;}.cls-4{fill:#f9e400;}</style></defs><title>Shasvastii Seed Soldiers</title><path class="cls-1" d="M283.5,562.68c-154.14.05-279.2-124.92-279.25-279,0-154.48,125-279.46,279.5-279.4,154.07.07,279,125.17,278.93,279.34S437.71,562.63,283.5,562.68ZM11.7,283c-.15,150,121.28,272,271,272.2,150.11.24,272.27-121.12,272.51-270.71C555.46,134,434.17,11.86,284.21,11.7,133.77,11.54,11.86,132.92,11.7,283Z"/><path class="cls-2" d="M284.21,11.7C133.77,11.54,11.86,132.92,11.7,283s121.28,272,271,272.2c150.11.24,272.27-121.12,272.51-270.71C555.46,134,434.17,11.86,284.21,11.7Z"/><path class="cls-3" d="M515.72,324.08a83.71,83.71,0,0,0,7.7-14.11c-6.37-3.18-12.9-6-18.91-9.58-8-4.84-16.38-6.15-25.64-6.09-48.24.3-96.48.13-144.72.14-15,0-28.22,4.63-38.61,15.94A19.39,19.39,0,0,0,290,324.81c.47,21.73,3.89,43.06,7.46,64.4.79,4.72,1.64,9.44,2.28,14.18C301,413,305,421.18,312.09,427.71c16,14.65,35.86,19.86,56.81,23.84-3.89-12.05-7.78-23.4-11.22-34.88-6.37-21.28-12-42.73-13.93-65-.68-7.71-.74-15.39,1.28-22.93,2.37-8.92,6.58-12.24,15.73-12.63,22.86-1,45.56,1.35,68.29,3.17,26.19,2.09,52.32,5.26,78.66,5.14C510.32,324.44,512.93,324.22,515.72,324.08Z"/><path class="cls-3" d="M51.21,324.08A83.71,83.71,0,0,1,43.51,310c6.37-3.18,12.9-6,18.91-9.58,8-4.84,16.38-6.15,25.64-6.09,48.24.3,96.48.13,144.72.14,15.05,0,28.22,4.63,38.61,15.94a19.39,19.39,0,0,1,5.55,14.43c-.47,21.73-3.89,43.06-7.46,64.4-.79,4.72-1.64,9.44-2.28,14.18-1.29,9.57-5.23,17.79-12.36,24.32-16,14.65-35.86,19.86-56.81,23.84,3.89-12.05,7.78-23.4,11.22-34.88,6.36-21.28,12-42.73,13.93-65,.68-7.71.74-15.39-1.28-22.93-2.38-8.92-6.58-12.24-15.73-12.63-22.86-1-45.56,1.35-68.29,3.17-26.19,2.09-52.32,5.26-78.66,5.14C56.61,324.44,54,324.22,51.21,324.08Z"/><path class="cls-4" d="M240,222.13,281.86,76.2l1.6-.37Q305.2,148.9,327,222.08l-43.5,72.21C268.76,269.9,254.45,246.16,240,222.13Z"/></svg>