<?xml version="1.0" encoding="UTF-8"?><svg id="Capa_1" xmlns="http://www.w3.org/2000/svg" viewBox="0 0 566.93 566.93"><defs><style>.cls-1{fill:#fff;}.cls-1,.cls-2,.cls-3{stroke-width:0px;}.cls-2{fill:#35495e;}.cls-3{fill:#f1c410;}</style></defs><path class="cls-2" d="m283.46,562.68c-74.58,0-144.7-29.04-197.43-81.78S4.25,358.04,4.25,283.46s29.04-144.7,81.78-197.43C138.77,33.3,208.88,4.25,283.46,4.25s144.7,29.04,197.43,81.78,81.78,122.85,81.78,197.43-29.04,144.7-81.78,197.43c-52.74,52.74-122.85,81.78-197.43,81.78Zm0-552.49C132.78,10.19,10.19,132.78,10.19,283.46s122.59,273.28,273.28,273.28,273.28-122.59,273.28-273.28S434.15,10.19,283.46,10.19Z"/><ellipse class="cls-2" cx="283.46" cy="283.46" rx="266.33" ry="262.08"/><path class="cls-2" d="m283.46,15.5C135.47,15.5,15.5,135.47,15.5,283.46s119.97,267.96,267.96,267.96,267.96-119.97,267.96-267.96S431.45,15.5,283.46,15.5Zm0,463.39c-109.69,0-198.6-87.5-198.6-195.43s88.92-195.43,198.6-195.43,198.6,87.5,198.6,195.43-88.92,195.43-198.6,195.43Z"/><path class="cls-1" d="m283.46,71.73c-116.94,0-211.74,94.8-211.74,211.74s94.8,211.74,211.74,211.74,211.74-94.8,211.74-211.74-94.8-211.74-211.74-211.74Zm0,366.16c-86.67,0-156.93-69.14-156.93-154.42s70.26-154.42,156.93-154.42,156.93,69.14,156.93,154.42-70.26,154.42-156.93,154.42Z"/><path class="cls-1" d="m143.57,112.96l-19.05,18.01-26.98-28.53,7.17-6.78,21.84,23.09,11.88-11.23,5.15,5.44Z"/><path class="cls-1" d="m142.76,113.25l-11.78-39.74,8.8-6.2,33.47,24.46-8.3,5.85-6.62-5.14-10.09,7.11,2.61,7.97-8.08,5.7Zm9.69-25.35l-10.74-8.28,4.18,12.9,6.55-4.62Z"/><path class="cls-1" d="m211.61,73.73l-8.91,4.11-10.89-23.64.54,18.25-6.11,2.81-13.52-12.27,10.89,23.64-8.43,3.88-16.43-35.67,10.32-4.76,16.02,13.97-.23-21.24,10.32-4.76,16.43,35.67Z"/><path class="cls-1" d="m245.36,52.64c.48,1.89.55,3.64.2,5.26s-1.01,3.04-1.98,4.29c-1.14,1.49-2.51,2.69-4.1,3.6-1.59.91-3.71,1.71-6.35,2.38l-15.23,3.88-9.69-38.06,13.44-3.42c2.79-.71,4.94-1.14,6.43-1.3,1.49-.15,2.96-.05,4.39.31,1.55.39,2.82,1.11,3.8,2.16.99,1.06,1.68,2.38,2.09,3.99.47,1.86.43,3.63-.13,5.31-.56,1.69-1.57,3.08-3.03,4.17l.05.2c2.48-.1,4.62.43,6.42,1.59,1.8,1.17,3.03,3.04,3.69,5.63Zm-16.22-12.53c-.16-.61-.47-1.2-.95-1.77s-1.09-.91-1.83-1.03c-.7-.11-1.48-.07-2.35.12s-2.15.51-3.86.94l-.66.17,2.05,8.05,1.2-.31c1.64-.42,2.78-.72,3.42-.93s1.28-.55,1.9-1.06c.68-.55,1.08-1.18,1.21-1.88s.09-1.47-.12-2.31Zm6.34,14.85c-.3-1.18-.77-2.04-1.42-2.58-.65-.54-1.49-.86-2.53-.96-.64-.07-1.46,0-2.48.24-1.02.23-2.38.57-4.09,1l-1.76.45,2.43,9.53.51-.13c2.49-.63,4.21-1.09,5.15-1.37.95-.28,1.86-.75,2.74-1.43.77-.6,1.27-1.31,1.49-2.13.22-.83.21-1.7-.03-2.62Z"/><path class="cls-1" d="m285.78,41.25c.3,3.64-.23,6.98-1.59,9.99-1.36,3.01-3.19,5.39-5.5,7.14-1.92,1.48-4.07,2.51-6.43,3.08s-4.89.97-7.59,1.19l-12.25,1.01-3.22-39.14,12.14-1c2.75-.23,5.34-.26,7.77-.11,2.43.15,4.75.82,6.96,1.99,2.71,1.44,4.93,3.49,6.65,6.16,1.72,2.67,2.74,5.9,3.05,9.68Zm-10.1.75c-.21-2.58-.84-4.74-1.87-6.5-1.04-1.76-2.52-3.08-4.44-3.96-1.39-.63-2.82-.91-4.29-.86-1.47.05-3.22.16-5.25.33l-.18.02,2.02,24.5.18-.02c2.21-.18,4.07-.37,5.58-.58,1.51-.2,2.91-.79,4.21-1.76,1.53-1.15,2.64-2.65,3.33-4.51.69-1.86.93-4.07.72-6.65Z"/><path class="cls-1" d="m287.5,60.77l16.58-37.99,10.72.92,9.86,40.26-10.12-.87-1.76-8.2-12.3-1.06-3.13,7.78-9.85-.85Zm23.74-13.16l-2.89-13.24-5.1,12.56,7.99.69Z"/><path class="cls-1" d="m356.67,73.66c-5-1.68-8.45-4.17-10.33-7.49-1.88-3.32-2.05-7.31-.49-11.96l7.97-23.78,9.35,3.13-7.78,23.23c-.87,2.58-1.02,4.67-.47,6.27.55,1.59,1.93,2.76,4.13,3.5,2.15.72,3.93.64,5.35-.24,1.42-.88,2.57-2.66,3.47-5.35l7.78-23.23,9.35,3.13-7.96,23.76c-1.54,4.59-4.03,7.67-7.48,9.25-3.45,1.58-7.75,1.51-12.9-.22Z"/><path class="cls-1" d="m407.47,96.73l-8.31-4.59-.03-31.28-13.22,23.97-7.9-4.36,18.97-34.39,10.6,5.85.1,25.75,10.87-19.7,7.9,4.36-18.97,34.39Z"/><path class="cls-1" d="m428.19,112.75l-16.79-12.87,4.17-5.44,4.48,3.43,15.55-20.28-4.48-3.43,4.17-5.44,16.79,12.87-4.17,5.44-4.48-3.43-15.55,20.28,4.48,3.43-4.17,5.44Z"/><path class="cls-1" d="m437.63,121.5l22.43-22.52-8.22-8.19,5.29-5.31,23.43,23.34-5.28,5.31-8.22-8.19-22.42,22.52-6.99-6.96Z"/><path class="cls-1" d="m131.73,473.87c-1.18,1.29-2.46,2.21-3.84,2.74-1.38.53-2.78.74-4.19.63-1.68-.12-3.26-.56-4.72-1.3-1.47-.74-3.11-1.94-4.91-3.59l-10.42-9.5,23.74-26.03,9.2,8.39c1.91,1.74,3.29,3.14,4.15,4.18.85,1.04,1.5,2.19,1.93,3.44.48,1.35.56,2.66.26,3.92-.31,1.26-.96,2.44-1.96,3.53-1.16,1.27-2.51,2.11-4.04,2.52s-3.08.34-4.62-.21l-.13.14c1.3,1.8,1.96,3.67,1.97,5.59.02,1.92-.78,3.77-2.4,5.55Zm-6.62-6.26c.73-.8,1.14-1.58,1.23-2.33.09-.75-.09-1.54-.53-2.37-.26-.51-.73-1.1-1.4-1.74-.68-.65-1.6-1.51-2.76-2.57l-1.21-1.1-5.95,6.52.35.32c1.7,1.55,2.89,2.61,3.56,3.18.67.57,1.48,1.02,2.42,1.35.83.29,1.61.31,2.33.06.73-.24,1.38-.68,1.95-1.31Zm8-12.07c.38-.42.67-.95.86-1.59.19-.64.15-1.27-.13-1.88-.26-.58-.68-1.15-1.25-1.7-.57-.56-1.44-1.36-2.61-2.43l-.45-.41-5.02,5.51.82.75c1.12,1.02,1.91,1.72,2.38,2.11.47.39,1.04.69,1.72.9.75.23,1.42.23,2.01-.03.59-.25,1.15-.66,1.67-1.23Z"/><path class="cls-1" d="m142.28,495.44c-3.92-2.65-6.29-5.64-7.11-8.96s0-6.81,2.46-10.45l12.62-18.63,7.33,4.96-12.33,18.2c-1.37,2.02-2.01,3.79-1.92,5.3s1,2.85,2.72,4.02c1.68,1.14,3.24,1.5,4.68,1.09,1.44-.42,2.87-1.68,4.29-3.78l12.33-18.2,7.33,4.96-12.61,18.61c-2.43,3.59-5.33,5.65-8.69,6.18-3.36.53-7.06-.57-11.1-3.3Z"/><path class="cls-1" d="m193.04,522.12l-9.73-4.65-3.28-15.89-2.86-1.37-5.57,11.65-7.94-3.8,15.2-31.78,12.79,6.12c1.76.84,3.25,1.69,4.45,2.54,1.2.85,2.19,1.88,2.97,3.11.79,1.27,1.25,2.62,1.39,4.06.13,1.44-.21,3.02-1.03,4.74-1.16,2.43-2.66,4.15-4.48,5.14-1.82.99-3.86,1.5-6.13,1.52l4.23,18.63Zm-2.3-28.19c.38-.8.56-1.56.53-2.28-.03-.72-.33-1.41-.89-2.07-.4-.45-.89-.85-1.47-1.2-.58-.35-1.33-.74-2.24-1.18l-2.67-1.28-4.09,8.56,2.28,1.09c1.11.53,2.08.92,2.92,1.15.84.24,1.64.26,2.39.08.7-.15,1.31-.45,1.83-.88.51-.44.99-1.1,1.41-2Z"/><path class="cls-1" d="m198.38,523.69l10.72-33.56,22.7,7.25-2.04,6.4-14.31-4.57-1.88,5.88,13.19,4.21-2.04,6.4-13.18-4.21-2.71,8.47,14.31,4.57-2.04,6.4-22.7-7.25Z"/><path class="cls-1" d="m225.93,532.43l17.9-32.59,9.5,1.69,5.53,36.77-8.97-1.6-.9-7.47-10.9-1.94-3.43,6.69-8.74-1.56Zm22.28-9.82l-1.5-12.07-5.58,10.81,7.08,1.26Z"/><path class="cls-1" d="m279.74,539.98c-4.73-.15-8.33-1.4-10.81-3.76-2.48-2.36-3.65-5.75-3.51-10.14l.69-22.49,8.85.27-.67,21.97c-.07,2.44.33,4.28,1.22,5.5.89,1.23,2.37,1.87,4.45,1.94,2.03.06,3.55-.47,4.53-1.59.99-1.12,1.52-2.95,1.6-5.49l.67-21.97,8.84.27-.69,22.47c-.13,4.34-1.48,7.63-4.03,9.88-2.55,2.25-6.27,3.3-11.14,3.15Z"/><path class="cls-1" d="m316.18,538.33l5.5-36.78,9.5-1.7,17.93,32.58-8.97,1.61-3.43-6.69-10.9,1.95-.9,7.47-8.73,1.56Zm17.49-16.93l-5.59-10.8-1.49,12.07,7.08-1.27Z"/><path class="cls-1" d="m355.26,530.51l-10.88-33.51,22.66-7.36,2.08,6.39-14.29,4.64,1.91,5.87,13.17-4.27,2.07,6.39-13.16,4.27,2.75,8.46,14.29-4.64,2.07,6.39-22.66,7.36Z"/><path class="cls-1" d="m411.94,505.01c-1.11,1.25-2.63,2.69-4.58,4.32-1.95,1.63-4,2.98-6.15,4.04-4.97,2.45-9.63,2.97-13.99,1.56-4.36-1.41-7.84-4.74-10.44-10.01-2.44-4.95-2.93-9.65-1.45-14.09,1.48-4.44,4.77-7.92,9.89-10.45,2.64-1.31,4.92-2.12,6.82-2.43,1.9-.32,3.95-.48,6.14-.49l3.65,7.4-.72.36c-.53-.11-1.29-.26-2.27-.45s-1.91-.31-2.78-.36c-1.02-.06-2.12,0-3.32.19-1.2.19-2.38.57-3.54,1.14-1.36.67-2.49,1.49-3.4,2.47-.91.98-1.58,2.12-2.03,3.43-.42,1.26-.55,2.66-.39,4.21.15,1.54.66,3.18,1.51,4.9,1.82,3.69,4.09,5.96,6.81,6.8,2.72.84,5.68.47,8.9-1.12.28-.14.61-.31.99-.51.37-.2.7-.39.97-.56l-3.06-6.2-6.13,3.03-2.92-5.92,13.81-6.82,7.68,15.55Z"/><path class="cls-1" d="m435.4,491.92l-15.77,10.55-3.42-5.11,4.21-2.81-12.74-19.06-4.21,2.81-3.42-5.11,15.77-10.55,3.42,5.11-4.21,2.81,12.74,19.06,4.21-2.81,3.42,5.11Z"/><path class="cls-1" d="m450.86,480.37c-2.05,1.75-4.02,3.09-5.91,4.03-1.89.93-3.75,1.67-5.59,2.22l-5.44-6.37.61-.52c2.32,0,4.55-.4,6.69-1.17,2.14-.77,3.97-1.81,5.5-3.11.38-.33.85-.8,1.41-1.43.56-.62.95-1.19,1.18-1.69.29-.6.45-1.22.46-1.87.01-.64-.24-1.26-.75-1.86-.57-.67-1.3-.99-2.19-.96-.89.03-1.78.26-2.67.69-1.12.54-2.29,1.15-3.51,1.82-1.22.67-2.42,1.23-3.58,1.69-2.7,1.04-5.03,1.33-6.98.86-1.96-.47-3.73-1.63-5.31-3.49-2.14-2.51-2.82-5.44-2.02-8.81s2.78-6.41,5.96-9.12c1.59-1.36,3.32-2.56,5.17-3.58,1.85-1.02,3.64-1.79,5.36-2.31l5.23,6.12-.59.51c-1.72,0-3.55.32-5.49.95-1.93.64-3.66,1.6-5.17,2.89-.59.5-1.08.99-1.47,1.48-.4.48-.75,1.06-1.06,1.75-.26.55-.37,1.14-.36,1.78.02.64.23,1.19.63,1.66.58.68,1.29,1.02,2.12,1.01.83-.01,2.08-.45,3.75-1.32,1.07-.56,2.11-1.11,3.11-1.63,1-.52,2.11-1.02,3.35-1.49,2.43-.92,4.58-1.2,6.46-.84,1.87.36,3.61,1.47,5.19,3.33,2.28,2.66,3.06,5.7,2.35,9.1-.71,3.41-2.84,6.63-6.41,9.68Z"/><path class="cls-2" d="m122.78,288.02c.08,2.68-.1,5.05-.55,7.1-.45,2.05-1.02,3.95-1.72,5.72l-8.19.25-.03-.8c1.41-1.8,2.48-3.77,3.2-5.92.72-2.14,1.05-4.21.99-6.2-.02-.5-.09-1.16-.22-1.98-.13-.82-.32-1.48-.57-1.97-.28-.6-.66-1.11-1.15-1.52-.48-.41-1.11-.6-1.88-.58-.86.03-1.55.39-2.07,1.1s-.89,1.54-1.1,2.51c-.27,1.2-.53,2.49-.76,3.85-.24,1.37-.54,2.64-.9,3.83-.86,2.74-2.06,4.73-3.62,5.95-1.55,1.22-3.52,1.87-5.91,1.95-3.22.1-5.87-1.21-7.95-3.93-2.08-2.72-3.18-6.15-3.31-10.31-.06-2.09.08-4.17.44-6.24.35-2.08.86-3.94,1.52-5.59l7.86-.24.02.78c-1.06,1.34-1.93,2.95-2.63,4.85-.7,1.9-1.02,3.84-.96,5.81.02.77.1,1.46.22,2.07.13.61.35,1.25.68,1.91.26.54.64,1.01,1.14,1.39.5.39,1.05.57,1.65.55.88-.03,1.57-.37,2.06-1.02.5-.65.93-1.89,1.29-3.72.23-1.18.45-2.33.66-3.42.21-1.1.52-2.27.91-3.53.79-2.46,1.9-4.3,3.32-5.53,1.42-1.23,3.33-1.88,5.72-1.95,3.42-.1,6.21,1.18,8.38,3.86,2.16,2.68,3.32,6.34,3.46,11Z"/><path class="cls-2" d="m122.19,268.77l-34.1-4.89,3.37-23.47,6.5.93-2.12,14.8,5.98.86,1.96-13.63,6.5.93-1.96,13.63,8.61,1.24,2.12-14.8,6.5.93-3.37,23.47Z"/><path class="cls-2" d="m138.68,206.42l-3.03,8.22-21.43-7.89,11.62,11.08-2.08,5.63-16.03.89,21.43,7.89-2.86,7.78-32.33-11.91,3.51-9.52,18.64-1.41-13.28-13.15,3.51-9.52,32.33,11.91Z"/><path class="cls-2" d="m136.89,165.4c1.35.87,2.49,1.91,3.43,3.13.94,1.22,1.55,2.5,1.85,3.84.18.83.3,1.68.34,2.55.04.88-.02,1.77-.19,2.69-.17.92-.44,1.86-.82,2.82-.38.96-.91,1.97-1.59,3.02l-2.49,3.88,9.48,6.09-4.76,7.41-28.98-18.62,7.35-11.45c1.1-1.7,2.19-3.07,3.29-4.11s2.3-1.85,3.61-2.43c1.44-.64,2.96-.88,4.57-.71,1.6.17,3.24.8,4.92,1.87Zm-4.71,7.72c-.82-.53-1.65-.78-2.49-.76-.84.02-1.56.23-2.13.64-.75.51-1.35,1.07-1.81,1.68s-1.04,1.46-1.74,2.56l-.67,1.05,8.68,5.58.33-.51c.45-.7.87-1.36,1.25-1.99.39-.63.69-1.2.91-1.71.19-.44.33-.94.43-1.5.1-.56.1-1.04.02-1.43-.16-.81-.44-1.47-.84-1.98-.4-.51-1.05-1.05-1.93-1.62Z"/><path class="cls-2" d="m159.58,174.99l-25.12-23.57,16.23-17.29,4.79,4.5-10.23,10.9,4.4,4.13,9.43-10.04,4.79,4.5-9.43,10.04,6.34,5.95,10.23-10.9,4.79,4.5-16.22,17.29Z"/><path class="cls-2" d="m206.14,135.19l-8.73,6.24-15.29-4.59-2.57,1.83,7.35,10.28-7.13,5.09-20.03-28.02,11.47-8.2c1.58-1.13,3.03-2.02,4.35-2.67,1.31-.65,2.69-1.02,4.12-1.11,1.48-.09,2.87.14,4.17.7,1.3.56,2.5,1.59,3.59,3.11,1.53,2.15,2.29,4.24,2.26,6.28-.03,2.04-.58,4.04-1.66,6.01l18.11,5.05Zm-25.43-11.2c-.5-.7-1.07-1.21-1.71-1.52-.64-.31-1.37-.38-2.21-.2-.58.13-1.16.37-1.75.71-.59.34-1.29.81-2.1,1.39l-2.39,1.71,5.39,7.55,2.05-1.47c1-.71,1.8-1.38,2.41-1.99.61-.62,1.02-1.29,1.23-2.03.21-.68.25-1.34.12-1.99-.13-.65-.47-1.37-1.04-2.16Z"/><path class="cls-2" d="m338.5,126.65l14.53-31.24,21.5,10-2.77,5.96-13.56-6.31-2.55,5.47,12.49,5.81-2.77,5.96-12.49-5.81-3.67,7.89,13.56,6.31-2.77,5.96-21.5-10Z"/><path class="cls-2" d="m388.08,156.14l-8.32-5.93.9-12.86-11.98,4.95-7.94-5.66,19.33-7.52,1.03-20.26,8.3,5.92-.89,12.12,11.3-4.7,7.95,5.67-18.68,7.25-1.02,21.01Z"/><path class="cls-2" d="m399.2,169.06c-3.64-3.8-5.4-7.89-5.28-12.29.12-4.39,2.22-8.55,6.31-12.46,3.94-3.78,8.16-5.67,12.65-5.67,4.49,0,8.55,1.89,12.19,5.69.97,1.01,1.78,1.97,2.44,2.88.66.91,1.24,1.83,1.75,2.76.39.74.76,1.59,1.12,2.54s.64,1.75.83,2.37l-5.93,5.68-.62-.65c-.03-.56-.08-1.25-.15-2.08-.07-.82-.21-1.7-.42-2.63-.21-.93-.53-1.87-.95-2.82-.43-.95-1.01-1.81-1.75-2.58-.88-.92-1.83-1.62-2.85-2.12-1.02-.49-2.21-.75-3.57-.77-1.24-.03-2.6.28-4.06.91-1.47.63-2.93,1.65-4.4,3.06-1.55,1.48-2.65,2.94-3.3,4.37-.65,1.43-.98,2.79-.97,4.09,0,1.26.26,2.42.76,3.5.5,1.08,1.13,2.02,1.9,2.82.8.84,1.71,1.51,2.71,2,1,.5,1.92.85,2.75,1.05.89.24,1.72.4,2.49.49.77.09,1.44.16,2.03.21l.55.58-5.85,5.6c-.66-.26-1.41-.57-2.27-.92-.86-.35-1.69-.76-2.5-1.22-.99-.57-1.88-1.14-2.67-1.72s-1.76-1.47-2.92-2.68Z"/><path class="cls-2" d="m410.05,180.34l28.66-19.11,13.15,19.73-5.47,3.64-8.29-12.44-5.02,3.35,7.64,11.46-5.47,3.64-7.64-11.46-7.24,4.83,8.29,12.44-5.47,3.64-13.15-19.73Z"/><path class="cls-2" d="m434.99,225.57l-9.68-21.31,31.37-14.24,3.64,8.02-25.38,11.53,6.04,13.29-5.98,2.72Z"/><path class="cls-2" d="m438.06,238.95c-.7-2.59-1.07-4.93-1.11-7.03s.08-4.08.36-5.96l7.91-2.14.21.77c-.96,2.08-1.54,4.24-1.74,6.49-.21,2.25-.05,4.34.47,6.26.13.49.36,1.11.68,1.88.32.77.65,1.36,1.01,1.79.41.52.9.93,1.47,1.21.56.29,1.22.33,1.96.13.84-.22,1.42-.74,1.76-1.55.34-.81.5-1.71.49-2.69-.01-1.23-.06-2.54-.15-3.92-.09-1.38-.09-2.7,0-3.94.2-2.87.91-5.08,2.14-6.63,1.23-1.55,2.99-2.64,5.3-3.26,3.11-.84,5.99-.18,8.65,1.98,2.65,2.16,4.52,5.25,5.6,9.27.55,2.02.88,4.07,1.02,6.18.14,2.1.07,4.03-.19,5.79l-7.59,2.05-.2-.75c.72-1.54,1.2-3.32,1.44-5.33.24-2.01.1-3.97-.41-5.88-.2-.74-.43-1.39-.7-1.96-.26-.56-.63-1.13-1.11-1.7-.38-.47-.86-.83-1.43-1.09-.57-.26-1.15-.31-1.73-.15-.85.23-1.44.72-1.77,1.47-.33.75-.46,2.06-.39,3.92.05,1.2.1,2.37.15,3.48.05,1.12.02,2.33-.07,3.64-.2,2.57-.85,4.62-1.95,6.15s-2.8,2.6-5.11,3.22c-3.31.89-6.32.29-9.04-1.81-2.73-2.1-4.69-5.4-5.91-9.9Z"/><path class="cls-2" d="m444.92,274.13l-2.43-18.73,5.96-.77.65,5,22.23-2.89-.65-5,5.97-.77,2.43,18.73-5.97.77-.65-5-22.23,2.89.65,5-5.97.77Z"/><path class="cls-2" d="m443.98,292.87c.22-4.7,1.5-8.27,3.85-10.7,2.35-2.43,5.68-3.54,9.98-3.34l21.98,1.02-.41,8.8-21.47-1c-2.39-.11-4.19.27-5.4,1.13-1.21.86-1.87,2.33-1.96,4.4-.09,2.02.4,3.53,1.48,4.54,1.08,1,2.86,1.56,5.34,1.67l21.47,1-.41,8.8-21.95-1.02c-4.24-.2-7.43-1.58-9.59-4.16-2.16-2.57-3.12-6.29-2.9-11.13Z"/><path class="cls-2" d="m439.91,323.18c.62-2.61,1.41-4.85,2.37-6.71.96-1.86,2.01-3.55,3.15-5.08l7.97,1.88-.18.78c-1.83,1.37-3.37,3-4.62,4.88s-2.11,3.79-2.57,5.73c-.12.49-.22,1.15-.3,1.97-.08.83-.07,1.51.04,2.05.11.66.35,1.24.71,1.76.36.52.92.87,1.67,1.05.84.2,1.6.02,2.29-.53.68-.55,1.26-1.26,1.72-2.13.57-1.09,1.15-2.26,1.73-3.52.58-1.26,1.2-2.41,1.86-3.47,1.54-2.43,3.22-4.03,5.03-4.81,1.82-.78,3.89-.9,6.21-.35,3.14.74,5.36,2.69,6.66,5.85,1.31,3.16,1.48,6.77.53,10.82-.48,2.03-1.16,4-2.04,5.92s-1.85,3.58-2.92,5.01l-7.66-1.81.18-.76c1.37-1.02,2.63-2.35,3.8-4,1.17-1.65,1.98-3.44,2.43-5.37.18-.75.28-1.43.32-2.05.04-.62-.02-1.29-.16-2.02-.11-.59-.36-1.14-.74-1.64-.38-.5-.86-.82-1.45-.96-.86-.2-1.61-.05-2.26.45-.65.5-1.39,1.59-2.21,3.27-.53,1.09-1.03,2.13-1.52,3.14-.49,1-1.09,2.06-1.79,3.17-1.4,2.17-2.94,3.66-4.64,4.48-1.69.82-3.7.95-6.03.41-3.33-.79-5.7-2.75-7.1-5.9-1.4-3.14-1.56-6.98-.49-11.52Z"/><path class="cls-3" d="m103.99,388.82v-8.25c12.88-1.78,22.74-5.5,29.6-11.15,6.86-5.65,14.05-16.5,21.57-32.55l118.64-257.28h9.28l126.41,258.62c8.53,17.54,15.89,28.87,22.07,34,6.19,5.13,17.06,7.91,32.61,8.36v8.25h-138.7v-8.25c15.89-1.19,26.12-3.57,30.73-7.13,4.6-3.57,6.9-8.17,6.9-13.82,0-6.99-3.85-18.35-11.54-34.11l-86.53-177.24-80.26,175.01c-7.52,16.2-11.29,28.09-11.29,35.67,0,6.24,2.34,11.18,7.02,14.83,4.68,3.64,14.13,5.91,28.34,6.8v8.25h-104.84Z"/><path class="cls-2" d="m464.16,390.8h-138.7c-1.09,0-1.98-.89-1.98-1.98v-8.25c0-1.04.8-1.9,1.83-1.97,15.41-1.15,25.39-3.42,29.66-6.73,4.13-3.2,6.13-7.21,6.13-12.26,0-6.64-3.81-17.83-11.34-33.24l-84.7-173.49-78.52,171.21c-7.37,15.87-11.11,27.59-11.11,34.84,0,5.65,2.05,9.99,6.26,13.26,4.34,3.38,13.51,5.52,27.25,6.39,1.04.07,1.85.93,1.85,1.97v8.25c0,1.09-.89,1.98-1.98,1.98h-104.84c-1.09,0-1.98-.89-1.98-1.98v-8.25c0-.99.73-1.82,1.71-1.96,12.44-1.72,22.07-5.33,28.61-10.71,6.59-5.43,13.67-16.15,21.04-31.86l118.63-257.27c.32-.7,1.03-1.15,1.8-1.15h9.28c.76,0,1.45.43,1.78,1.11l126.41,258.62c8.37,17.2,15.62,28.42,21.56,33.34,5.81,4.82,16.37,7.48,31.4,7.91,1.07.03,1.92.91,1.92,1.98v8.25c0,1.09-.89,1.98-1.98,1.98Zm-136.72-3.96h134.75v-4.36c-15.11-.63-25.56-3.5-31.89-8.75-6.46-5.36-13.85-16.69-22.59-34.65l-125.87-257.51h-6.78l-118.11,256.13c-7.73,16.48-14.96,27.35-22.11,33.25-6.81,5.6-16.51,9.41-28.88,11.33v4.56h100.88v-4.42c-13.71-1-22.75-3.33-27.58-7.09-5.17-4.02-7.79-9.53-7.79-16.39,0-7.94,3.75-19.88,11.47-36.5l80.26-175c.32-.7,1.01-1.14,1.77-1.15h.02c.76,0,1.45.43,1.78,1.11l86.53,177.24c7.9,16.19,11.74,27.63,11.74,34.98,0,6.26-2.58,11.44-7.66,15.39-4.78,3.7-14.59,6.13-29.96,7.4v4.44Z"/></svg>