<svg id="Capa_1" data-name="Capa 1" xmlns="http://www.w3.org/2000/svg" viewBox="0 0 566.93 566.93"><defs><style>.cls-1{fill:#1d1d1b;}.cls-2,.cls-8{fill:#f5cb24;}.cls-3{fill:#7b6a58;}.cls-4,.cls-5,.cls-7{fill:#fff;}.cls-4,.cls-5{stroke:#000;}.cls-4,.cls-5,.cls-7,.cls-8{stroke-miterlimit:10;}.cls-4{stroke-width:1.48px;}.cls-5{stroke-width:1.5px;}.cls-6{opacity:0.5;}.cls-7{stroke:#fff;stroke-width:3px;}.cls-8{stroke:#1d1d1b;stroke-width:2px;}</style></defs><title>Strelok</title><circle class="cls-1" cx="283.46" cy="283.46" r="279.21"/><circle class="cls-2" cx="283.46" cy="283.46" r="272.99"/><circle class="cls-3" cx="283.46" cy="283.46" r="263.6"/><path class="cls-2" d="M487.92,283.46C487.92,170.55,396.38,79,283.46,79S79,170.55,79,283.46A203.74,203.74,0,0,0,134.3,423.27H432.63A203.74,203.74,0,0,0,487.92,283.46Z"/><path class="cls-1" d="M477,283c0-107.73-87.33-195.07-195.06-195.07S86.86,175.27,86.86,283a194.36,194.36,0,0,0,50.86,131.35h288.4A194.31,194.31,0,0,0,477,283Z"/><path class="cls-4" d="M69.42,381.87a7.65,7.65,0,0,1,.72-5.15,9,9,0,0,1,4-3.74c2.86-1.44,5.49-1.55,7.87-.32s4.57,3.81,6.56,7.77L95,393.14l-29.7,15-5.8-11.5q-3.12-6.19-2.64-9.91c.31-2.47,1.84-4.41,4.58-5.79a7.25,7.25,0,0,1,4.21-.84A6.65,6.65,0,0,1,69.42,381.87Zm1.41,8.55a4.68,4.68,0,0,0-2.18-2.35,3.29,3.29,0,0,0-2.82.25A3.25,3.25,0,0,0,64,390.43a4.57,4.57,0,0,0,.57,3.15l2.14,4.24L73,394.65Zm12.86-6.81a6,6,0,0,0-2.73-3,4.06,4.06,0,0,0-3.53.32,4,4,0,0,0-2.31,2.61,6,6,0,0,0,.79,4l2.27,4.5L86,388.11Z"/><path class="cls-4" d="M44.22,361.08q-2.47-7.62.48-13.37t10.65-8.24q7.66-2.49,13.43.41T77,350.4q2.48,7.61-.48,13.36T65.93,372q-7.68,2.5-13.46-.41T44.22,361.08Zm5.91-1.92A7.15,7.15,0,0,0,54.77,364c2.28.78,5.09.62,8.42-.46S68.86,361,70.25,359a7.86,7.86,0,0,0-3.77-11.59q-3.42-1.16-8.4.46T51,352.46A7.18,7.18,0,0,0,50.13,359.16Z"/><path class="cls-4" d="M70.93,333.46l-6.4,1q-1.48-5.49-5.31-6t-16.16,1.37l-6.21,1-3.64-23.4,32.86-5.12,1.32,8.47-26.46,4.13,1,6.45,2-.32q12.06-1.87,18-.61T70.93,333.46Z"/><path class="cls-4" d="M32.46,297.23l0-8.57,13.72,0L32.53,275.25l0-9.72L46,278.79,65.82,264.9l0,9.45-14.2,10,4.49,4.42,9.67,0,0,8.57Z"/><path class="cls-4" d="M35.2,243.07q1.29-7.92,6.56-11.66T55,229q8,1.31,11.75,6.53t2.5,13.14q-1.29,7.89-6.56,11.65t-13.22,2.45q-8-1.31-11.77-6.54T35.2,243.07Zm6.13,1a7.13,7.13,0,0,0,1.88,6.47q2.51,2.6,7.69,3.45t8.38-.82a7.85,7.85,0,0,0,2-12c-1.68-1.74-4.23-2.89-7.68-3.45s-6.26-.29-8.39.82A7.16,7.16,0,0,0,41.33,244.07Z"/><path class="cls-4" d="M62.12,202.74a7.61,7.61,0,0,1,4.13-3.16,9,9,0,0,1,5.51.19q4.58,1.48,5.82,5.31t-.8,10.14l-4.39,13.54L40.75,218.5l4-12.25q2.14-6.58,5.09-8.9c2-1.54,4.41-1.83,7.34-.88a7.23,7.23,0,0,1,3.58,2.35A6.76,6.76,0,0,1,62.12,202.74Zm-5,7.06a4.61,4.61,0,0,0,.1-3.2,3.83,3.83,0,0,0-5-1.62,4.6,4.6,0,0,0-1.81,2.65L49,212.14l6.7,2.17ZM71,214a5.91,5.91,0,0,0,.17-4,4,4,0,0,0-2.74-2.26A4,4,0,0,0,65,208a6,6,0,0,0-2.23,3.37l-1.55,4.79,8.28,2.69Z"/><path class="cls-4" d="M94.88,174.67l-7,12.37-28.9-16.46,12.44-21.85,5.64,3.2-8.2,14.41,5.38,3.06,2.8-4.92q3.12-5.47,7.16-7.3,3.66-1.67,8.3,1c3.07,1.74,4.76,4,5.05,6.61Q98,169.19,94.88,174.67Zm-5.38-2.35a6.08,6.08,0,0,0,1.06-3.88,3.91,3.91,0,0,0-2.11-2.69,3.8,3.8,0,0,0-3.33-.41,6.08,6.08,0,0,0-2.8,2.89l-2.49,4.38L87,176.7Z"/><path class="cls-4" d="M86.49,127q5-6.28,11.41-7t12.75,4.33q6.31,5,7.08,11.43t-4.23,12.69q-5,6.25-11.4,7t-12.74-4.31q-6.33-5-7.09-11.45T86.49,127Zm4.87,3.86a7.17,7.17,0,0,0-1.52,6.57q.91,3.5,5,6.76c2.73,2.17,5.3,3.3,7.71,3.37a7.86,7.86,0,0,0,7.58-9.54q-.93-3.49-5-6.75t-7.73-3.38A7.16,7.16,0,0,0,91.36,130.82Z"/><path class="cls-4" d="M125,133.46l-3.48-16a22.93,22.93,0,0,1-5.37.39,7.63,7.63,0,0,1-5.73-2.5q-3.37-3.66-2.85-7.61t5.36-8.39L123.06,90l22.54,24.46-6.31,5.81L130.76,111l-2.14,2,3.09,14.27Zm-8-23.64a4.11,4.11,0,0,0,3.09,1.63,5.91,5.91,0,0,0,3.52-1.88l3.15-2.9L121,100.4l-3.14,2.9a6,6,0,0,0-2.18,3.34A4,4,0,0,0,117,109.82Z"/><path class="cls-4" d="M127.36,86.39l25.15-17.52,3.71,5.32-9.05,6.3,15.31,22-7,4.9-15.3-22-9.07,6.32Z"/><path class="cls-4" d="M192.26,74.08q2.42,4.71.6,8.3-2,4-7.62,6.83l-12.67,6.48-15.16-29.6,7.64-3.91,5.77,11.28,5-2.57q5.61-2.88,10-2.19C188.5,69.11,190.63,70.9,192.26,74.08ZM182,84.3a6.06,6.06,0,0,0,3-2.67,3.94,3.94,0,0,0-.29-3.41,3.79,3.79,0,0,0-2.56-2.16,6,6,0,0,0-3.93.88l-4.48,2.29,3.76,7.36Z"/><path class="cls-4" d="M225,71.4A21.66,21.66,0,0,1,221,74.76a22.4,22.4,0,0,1-4.85,2.33q-7.86,2.72-14-.09t-8.7-10.32q-2.61-7.53.46-13.51t10.93-8.69a21.88,21.88,0,0,1,10.51-1L217.61,50a18.44,18.44,0,0,0-5.22-.72,15.63,15.63,0,0,0-4.86.88,9.19,9.19,0,0,0-5.86,5.14c-1,2.42-1,5.26.16,8.52s2.83,5.5,5.13,6.78a9.18,9.18,0,0,0,7.78.42,15.22,15.22,0,0,0,4.37-2.31,18.88,18.88,0,0,0,3.66-3.78Z"/><path class="cls-4" d="M228,72.42,233.47,57a24,24,0,0,1-4.77-2.5,7.61,7.61,0,0,1-3.55-5.13q-.94-4.9,1.58-8t9-4.31l13.52-2.61,6.3,32.65-8.42,1.63-2.39-12.36-2.86.55L237,70.69Zm5.63-24.32a4.11,4.11,0,0,0,1.78,3,5.91,5.91,0,0,0,4,.25l4.2-.81L242,42.18l-4.19.82a6,6,0,0,0-3.61,1.69A4,4,0,0,0,233.64,48.1Z"/><path class="cls-4" d="M272.29,49.73,313,51.36l-.24,5.74-40.68-1.63Z"/><path class="cls-4" d="M353.73,58.52a7.67,7.67,0,0,1,3.36,4,9,9,0,0,1,.08,5.51c-.84,3.1-2.51,5.12-5,6.08s-5.89.86-10.16-.3l-13.75-3.71L336.92,38l12.43,3.36q6.69,1.8,9.14,4.64t1.25,7.28a7.25,7.25,0,0,1-2.17,3.69A6.66,6.66,0,0,1,353.73,58.52ZM342.91,68a6,6,0,0,0,4,0,4.05,4.05,0,0,0,2.12-2.84,4,4,0,0,0-.41-3.47,6,6,0,0,0-3.48-2l-4.86-1.32-2.27,8.41Zm3.51-14.12a4.68,4.68,0,0,0,3.21-.06A3.82,3.82,0,0,0,351,48.75a4.61,4.61,0,0,0-2.73-1.67l-4.58-1.24-1.84,6.8Z"/><path class="cls-4" d="M368.84,82.49l3-5.76q5.31,2.05,8-.7t8.46-13.85l2.88-5.58,21,10.9L396.9,97l-7.61-4L401.6,69.31l-5.79-3-.93,1.79Q389.26,78.94,384.75,83T368.84,82.49Z"/><path class="cls-4" d="M420.42,72.82,439.23,86.3l-3.78,5.27-11.84-8.49-3.6,5,11.13,8-3.78,5.26-11.13-8-4.44,6.2L424,108.35l-3.78,5.27L401,99.85Z"/><path class="cls-4" d="M444,133a21.36,21.36,0,0,1-4.85-2,22.61,22.61,0,0,1-4.32-3.21q-6-5.7-6.4-12.41t5.11-12.5Q439,97.09,445.7,97t12.76,5.65a21.79,21.79,0,0,1,5.78,8.84l-4.72,5a18.92,18.92,0,0,0-1.78-5,15.64,15.64,0,0,0-3-3.9,9.22,9.22,0,0,0-7.27-2.81c-2.61.23-5.11,1.59-7.47,4.1s-3.56,5.06-3.63,7.69a9.2,9.2,0,0,0,3.23,7.09,15.69,15.69,0,0,0,4.07,2.79,18.42,18.42,0,0,0,5.06,1.49Z"/><path class="cls-4" d="M481.13,128.15l4.89,7-10.42,7.22,7.21,10.4,10.42-7.22,4.88,7-27.33,19-4.89-7.05,11.59-8-7.21-10.4-11.58,8-4.89-7Z"/><path class="cls-4" d="M502.86,161.16l10.35,20.7-5.8,2.9-6.51-13-5.54,2.76,6.12,12.26-5.8,2.9-6.12-12.26-6.82,3.41,6.73,13.47-5.8,2.89L473.11,176Z"/><path class="cls-4" d="M511.24,226.73l-13.34,15.6-2.35-8.61,8.91-10.5-13-4.44-2.37-8.66,19.42,6.66,12.78-15,2.36,8.63-8.41,9.85,12.25,4.18,2.37,8.69Z"/><path class="cls-4" d="M533.46,255.32q.9,8-3.15,13t-12.08,5.94q-8,.9-13.09-3.1c-3.38-2.66-5.37-6.66-6-12s.45-9.62,3.15-13,6.72-5.34,12.06-5.94,9.73.43,13.11,3.11S532.87,250,533.46,255.32Zm-6.17.69a7.15,7.15,0,0,0-3.56-5.72q-3.12-1.81-8.34-1.23c-3.47.39-6.09,1.41-7.84,3.06a7.86,7.86,0,0,0,1.36,12.11c2.08,1.21,4.86,1.62,8.32,1.23s6.11-1.41,7.86-3.06A7.18,7.18,0,0,0,527.29,256Z"/><path class="cls-4" d="M508.15,280.48a6.83,6.83,0,0,0,3.63,3.17q2.24.77,16.64,1.56l6.27.34-1.34,24.31-26.73-1.47-.26,4.7-13.61-.75.36-6.47,7.13.39,1.22-22.16-7.14-.39.36-6.47,13.61.75Zm-.55,10.1-.51,9.25,20.26,1.11.4-7.18-2-.11Q511.49,292.87,507.6,290.58Z"/><path class="cls-4" d="M525.17,352.41l-32.46-7.24,1.77-7.94,22.27,5-19.64-16.77,2.09-9.35,32.46,7.24-1.77,7.93-22.26-5,19.63,16.77Z"/><path class="cls-4" d="M523.55,357.93l-10.82,28.68-6.07-2.29,3.9-10.32-25.05-9.45,3-8L513.59,366l3.9-10.34Z"/><path class="cls-4" d="M477,404.79c-3.11-1.69-4.83-3.86-5.18-6.51q-.58-4.39,2.42-9.94L481,375.83l29.23,15.86-4.09,7.54L495,393.18l-2.7,5q-3,5.54-7,7.45Q481.69,407.34,477,404.79Zm2.67-14.21a6.09,6.09,0,0,0-1,3.9,3.9,3.9,0,0,0,2.16,2.64,3.77,3.77,0,0,0,3.34.34,6,6,0,0,0,2.74-2.94l2.4-4.43-7.26-3.94Z"/><path class="cls-5" d="M165.39,478.19a26.22,26.22,0,0,1-5.82,2.18,26.74,26.74,0,0,1-6.32.74q-9.83,0-15.56-5.49T132,460.73q0-9.42,5.74-14.91t15.56-5.49a26.74,26.74,0,0,1,6.32.74,26.22,26.22,0,0,1,5.82,2.18v8.14a22.26,22.26,0,0,0-5.56-2.82,18.36,18.36,0,0,0-5.76-.89,10.84,10.84,0,0,0-8.53,3.47q-3.12,3.48-3.11,9.58t3.11,9.56a10.84,10.84,0,0,0,8.53,3.47,18.36,18.36,0,0,0,5.76-.89,22.26,22.26,0,0,0,5.56-2.82Z"/><path class="cls-5" d="M169.1,441h36.22v7.66h-13v31.65H182.16V448.7H169.1Z"/><path class="cls-5" d="M210.56,441h16.82c5,0,8.84,1.11,11.52,3.33s4,5.39,4,9.49-1.34,7.3-4,9.52-6.51,3.33-11.52,3.33H220.7v13.64H210.56Zm10.14,7.35v11h5.6a6.6,6.6,0,0,0,4.56-1.43,6,6,0,0,0,0-8.12,6.64,6.64,0,0,0-4.56-1.42Z"/><path class="cls-5" d="M250.08,441h27.35v7.66H260.21V456H276.4v7.66H260.21v9H278v7.66H250.08Z"/><path class="cls-5" d="M284.43,480.35v-7.66c4.46-.5,7.14-2.19,8-5.1s1.34-9.28,1.34-19.12V441h28v39.31H311.65V448.7h-7.71v2.4q0,14.43-2.55,21.1T284.43,480.35Z"/><path class="cls-5" d="M349.64,440.33q9.48,0,14.85,5.42t5.37,15q0,9.54-5.37,15t-14.85,5.42q-9.45,0-14.83-5.42t-5.39-15q0-9.56,5.39-15T349.64,440.33Zm0,7.35a8.46,8.46,0,0,0-7.19,3.42q-2.55,3.42-2.55,9.63t2.55,9.61a9.29,9.29,0,0,0,14.4,0q2.56-3.42,2.56-9.61t-2.56-9.63A8.46,8.46,0,0,0,349.64,447.68Z"/><path class="cls-5" d="M377.52,441h10.14v16.22L403.5,441H415L399.37,457l16.48,23.38H404.69L392.87,463.6l-5.21,5.32v11.43H377.52Z"/><g class="cls-6"><circle class="cls-7" cx="283.46" cy="268.13" r="17.91"/><path class="cls-7" d="M289.57,242.16H276.38V134c4.36,0,8.37-.07,13.19-.07Z"/><path class="cls-7" d="M255.71,263.2v13.28H149.35V263.2Z"/><path class="cls-7" d="M276.38,296.83h13.19V402.38H276.38Z"/><path class="cls-7" d="M310.25,275.8V262.52H417.58V275.8Z"/><path class="cls-7" d="M267.81,203.37v-11a77.55,77.55,0,0,0-60.45,61.9h10.93A66.83,66.83,0,0,1,267.81,203.37Z"/><path class="cls-7" d="M267.85,343.9c0-3.67,0-7.34-.05-11a66.85,66.85,0,0,1-48.93-48.42h-11A77.6,77.6,0,0,0,267.85,343.9Z"/><path class="cls-7" d="M298.74,192.3v11a66.85,66.85,0,0,1,50,51.48h10.91A77.56,77.56,0,0,0,298.74,192.3Z"/><path class="cls-7" d="M348.06,284.47A66.83,66.83,0,0,1,298.74,333v11a77.58,77.58,0,0,0,60.33-59.49Z"/><path class="cls-7" d="M160.15,284.47h-10.8A135.37,135.37,0,0,0,267.81,402.33v-10.8A124.64,124.64,0,0,1,160.15,284.47Z"/><path class="cls-7" d="M417.58,284.47h-10.8a124.64,124.64,0,0,1-108,107.12v10.79A135.37,135.37,0,0,0,417.58,284.47Z"/><path class="cls-7" d="M149,255h10.77A124.65,124.65,0,0,1,267.57,144.75V134A135.36,135.36,0,0,0,149,255Z"/><path class="cls-7" d="M298.74,133.88v10.79A124.64,124.64,0,0,1,407.17,255h10.77A135.38,135.38,0,0,0,298.74,133.88Z"/></g><path class="cls-8" d="M138.35,383.36c-.62-1.63,0-3,.93-4.3,4.49-6.29,10-11.66,15.67-16.81a192.33,192.33,0,0,1,27.3-20.64,20.09,20.09,0,0,1,5.94-2.73,21.75,21.75,0,0,0,12-7.69,50.08,50.08,0,0,0,4.83-6.27c1.77-2.92,3.16-6.07,4.67-9.15a1.16,1.16,0,0,0-.1-1c-1.29-1.44-.78-2.12.84-2.75.76-.3,1.23-1.26,1.91-1.83,2.85-2.4,5.77-4.71,8.59-7.14a42.24,42.24,0,0,0,3.52-3.68c.12-.13-.2-.6-.12-.85a2.63,2.63,0,0,1,.72-1.36,1.41,1.41,0,0,1,1.35,0,2.86,2.86,0,0,0,3.8-.12c3.73-2.66,7.52-5.25,11.26-7.9.82-.58,2-.93,1.66-2.43-.06-.26.6-.79,1-1.05,3.34-2.16,6.69-4.29,10-6.43,4.4-2.79,8.81-5.55,13.19-8.38.84-.55,1.49-1.37,2.29-2a4.26,4.26,0,0,1,1.34-.58c.79-.25,1.61-.45,2.41-.67l-.28-.74-1.93.86c-1.48-1.44-1.46-1.4.12-2.3.27-.16.33-.91.26-1.36a14.57,14.57,0,0,0-.63-2.11l2.32,1c3.71-.21,6.52-2.67,9.5-4.85,1.83-1.34,3.38-3.26,5.56-3.22.69-1,1.09-1.93,1.82-2.36.47-.29,1.42.23,1.81.31,2.63-1.82,5.17-3.72,7.85-5.41,5.48-3.47,11.14-6.68,16.55-10.26q31.66-20.94,63.21-42.06c1-.69,1.78-1.81,2.81-2.53.81-.56,1.92-.68,2.75-1.23,4.32-2.82,8.7-5.58,12.83-8.67,1.56-1.16,2.66-2.8,4.94-2.13.17.05.45-.2.66-.35l14.76-10.07c-1.19-1.41-2.25-2.64-3.26-3.9-.7-.89-1.65-1.69,0-2.76,2.33-1.49,2.3-1.61,3.6.29.64.94,1.11,2,1.66,3s1,1.31,2,.56,1.8-1.25,2.71-1.87c1.74-1.17,3.4-.62,3.82,1.44.11.54-.58,1.47-1.14,1.87-5.05,3.6-10.16,7.12-15.25,10.65-.57.41-1.16.8-1.78,1.22l1.14,2.69c3.3-2.25,6.69-4.35,9.82-6.79,1.82-1.41,2.23-1.54,3.39.95a31.36,31.36,0,0,0-3.46,1.78c-4.07,2.74-8.13,5.5-12.11,8.38-2.48,1.8-4.54,4.63-7.28,5.54-3.75,1.26-6.5,3.74-9.58,5.8-8.38,5.62-16.6,11.47-24.92,17.16-1.13.78-1.66,1.5-1,2.8a1.84,1.84,0,0,1,.26,1.11,1.8,1.8,0,0,1-.73,1.2c-.29.12-.94-.22-1.21-.54a10.34,10.34,0,0,1-1-2c-.69.47-1.3.88-1.91,1.31q-25.31,17.57-50.56,35.18c-1.74,1.21-3,3.14-4.56,4.59-2.53,2.29-5.17,4.47-7.77,6.69-8,6.77-15.89,13.59-23.93,20.27-3.52,2.92-7.28,5.56-11,8.31a2.46,2.46,0,0,0-1.28,2.24,6.23,6.23,0,0,1-1.75,3.49c-4.57,5.25-9.26,10.4-13.88,15.61-2,2.2-3.62,4.67-5.75,6.66-2.66,2.46-5.69,4.53-8.51,6.82-1.05.85-1.94,1.89-3,2.79-2.42,2.18-5.19,1.94-7.23-.61-.24-.3-.45-.63-.7-.93-1.24-1.48-2-1.56-3.22-.07q-8.64,10.44-17.18,20.93c-2.64,3.24-5.25,6.5-8,9.87a6.84,6.84,0,0,1,1.71,1.16,6.52,6.52,0,0,1,.69,1.76,4.93,4.93,0,0,1-1.75.21,12.19,12.19,0,0,1-2.24-1.08c-2.06,2.58-4,5.19-6.15,7.67-8.09,9.45-16.16,18.92-24.38,28.26-3.18,3.61-3.83,3.57-6.78-.15-4.55-5.77-10.22-10.32-15.73-15.07Zm85.25-57.49a5.35,5.35,0,0,0-.86,1.65c-.26,2.46,3.5,5.18,5.51,3.8a56.94,56.94,0,0,0,7.51-6.28c.52-.49.47-2.15.06-2.93a4.22,4.22,0,0,0-6.91-1.21c-3.39,3-3.5,4.84-.55,8.33.18.21.38.64.28.81s-.62.68-.83.62a4.38,4.38,0,0,1-2.16-1A25.67,25.67,0,0,1,223.6,325.87ZM281.92,261l-.61-.73L277,264l.41.48Z"/><path class="cls-8" d="M427.71,384.64c-5.51,4.75-11.18,9.3-15.74,15.07-2.94,3.72-3.59,3.76-6.77.15-8.22-9.34-16.29-18.81-24.38-28.26-2.12-2.48-4.09-5.09-6.15-7.67a12.19,12.19,0,0,1-2.24,1.08,4.93,4.93,0,0,1-1.75-.21,6.52,6.52,0,0,1,.69-1.76,6.84,6.84,0,0,1,1.71-1.16c-2.73-3.37-5.34-6.63-8-9.87q-8.57-10.49-17.18-20.93c-1.23-1.49-2-1.41-3.22.07-.25.3-.46.63-.7.93-2,2.55-4.81,2.79-7.23.61-1-.9-1.9-1.94-2.95-2.79-2.82-2.29-5.85-4.36-8.51-6.82-2.14-2-3.81-4.46-5.75-6.66-4.62-5.21-9.31-10.36-13.88-15.61a6.23,6.23,0,0,1-1.75-3.49,2.47,2.47,0,0,0-1.29-2.24c-3.66-2.75-7.42-5.39-10.94-8.31-8-6.68-16-13.5-23.93-20.27-2.6-2.22-5.24-4.4-7.77-6.69-1.6-1.45-2.82-3.38-4.56-4.59Q230.23,237.54,204.88,220c-.61-.43-1.22-.84-1.91-1.31a10.34,10.34,0,0,1-1,2c-.27.32-.92.66-1.21.54A1.8,1.8,0,0,1,200,220a1.84,1.84,0,0,1,.26-1.11c.67-1.3.15-2-1-2.8-8.32-5.69-16.54-11.54-24.92-17.16-3.08-2.06-5.83-4.54-9.59-5.8-2.73-.91-4.79-3.74-7.27-5.54-4-2.88-8-5.64-12.11-8.38a31.36,31.36,0,0,0-3.46-1.78c1.16-2.49,1.57-2.36,3.39-.95,3.13,2.44,6.52,4.54,9.81,6.79l1.15-2.69c-.63-.42-1.21-.81-1.78-1.22-5.09-3.53-10.2-7-15.25-10.65-.56-.4-1.25-1.33-1.14-1.87.42-2.06,2.08-2.61,3.81-1.44.91.62,1.85,1.2,2.72,1.87s1.5.29,2-.56,1-2,1.66-3c1.3-1.9,1.27-1.78,3.6-.29,1.66,1.07.71,1.87,0,2.76-1,1.26-2.07,2.49-3.26,3.9l14.76,10.07c.21.15.49.4.66.35,2.28-.67,3.38,1,4.94,2.13,4.13,3.09,8.51,5.85,12.83,8.67.83.55,1.94.67,2.75,1.23,1,.72,1.78,1.84,2.81,2.53q31.57,21.07,63.21,42.06c5.41,3.58,11.07,6.79,16.55,10.26,2.68,1.69,5.22,3.59,7.85,5.41.39-.08,1.34-.6,1.81-.31.73.43,1.13,1.41,1.82,2.36,2.18,0,3.73,1.88,5.56,3.22,3,2.18,5.79,4.64,9.5,4.85l2.32-1a14.57,14.57,0,0,0-.63,2.11c-.07.45,0,1.2.26,1.36,1.58.9,1.6.86.11,2.3l-1.92-.86-.28.74c.8.22,1.62.42,2.41.67a4.36,4.36,0,0,1,1.34.58c.8.62,1.45,1.44,2.29,2,4.38,2.83,8.79,5.59,13.19,8.38,3.36,2.14,6.71,4.27,10.05,6.43.41.26,1.07.79,1,1.05-.36,1.5.84,1.85,1.66,2.43,3.74,2.65,7.53,5.24,11.25,7.9a2.87,2.87,0,0,0,3.81.12,1.41,1.41,0,0,1,1.35,0,2.63,2.63,0,0,1,.72,1.36c.08.25-.24.72-.12.85A40.8,40.8,0,0,0,346,303c2.82,2.43,5.73,4.74,8.58,7.14.68.57,1.16,1.53,1.92,1.83,1.62.63,2.13,1.31.84,2.75a1.16,1.16,0,0,0-.1,1c1.51,3.08,2.9,6.23,4.67,9.15a50.08,50.08,0,0,0,4.83,6.27,21.75,21.75,0,0,0,12,7.69,19.92,19.92,0,0,1,5.93,2.73A191.85,191.85,0,0,1,412,362.25c5.7,5.15,11.18,10.52,15.67,16.81,1,1.33,1.55,2.67.93,4.3Zm-86.43-55a4.38,4.38,0,0,1-2.16,1c-.21.06-.67-.33-.83-.62s.1-.6.28-.81c2.95-3.49,2.84-5.31-.55-8.33a4.22,4.22,0,0,0-6.91,1.21c-.42.78-.46,2.44.06,2.93a57.51,57.51,0,0,0,7.5,6.28c2,1.38,5.78-1.34,5.52-3.8a5.35,5.35,0,0,0-.86-1.65A25.67,25.67,0,0,1,341.28,329.66Zm-51.8-65.2.41-.48-4.27-3.67L285,261Z"/></svg>