<svg id="Capa_1" data-name="Capa 1" xmlns="http://www.w3.org/2000/svg" viewBox="0 0 566.93 566.93"><defs><style>.cls-1{fill:#060606;}.cls-2{fill:#fff;}</style></defs><path class="cls-1" d="M508.72,448.78c-89.49,122.45-270.32,155.31-399.51,53C-3.94,412.09-32.7,242.44,58.67,118,149.54-5.72,324-32.68,448.25,58.13,572.85,148.48,599.48,324.61,508.72,448.78Z"/><polygon class="cls-2" points="560.82 314.76 398.69 338.18 422.79 233.32 501.71 109.07 341.87 299.17 313.23 246.44 390 26.54 305.93 193.27 261 193.27 174.27 26.54 253.7 246.44 225.06 299.17 64.9 109.86 144.14 233.32 168.24 338.18 6.15 314.3 76.8 347.17 180.53 437.81 192.81 420.24 264.29 439.73 207.25 394.24 222.89 370.89 267.18 388.71 237.81 350.68 250.81 331.66 279.93 350.68 259.96 315.06 277.77 295.25 283.46 291.93 289.16 295.25 306.97 315.06 287 350.68 316.12 331.66 329.11 350.68 299.75 388.71 344.04 370.89 359.68 394.24 302.64 439.73 374.12 420.24 386.4 437.81 490.13 347.17 560.82 314.76"/></svg>