<?xml version="1.0" encoding="UTF-8"?><svg id="Capa_1" xmlns="http://www.w3.org/2000/svg" viewBox="0 0 566.93 566.93"><defs><style>.cls-1{fill:#36495e;}.cls-1,.cls-2,.cls-3,.cls-4,.cls-5{stroke-width:0px;}.cls-2{fill:#f1cc0f;}.cls-3{fill:#fff;}.cls-4{fill:#35495e;}.cls-5{fill:#1d1d1b;}</style></defs><circle class="cls-5" cx="283.46" cy="283.46" r="274.12"/><path class="cls-4" d="m283.46,9.34c151.39,0,274.12,122.73,274.12,274.12s-122.73,274.12-274.12,274.12S9.34,434.86,9.34,283.46,132.07,9.34,283.46,9.34m0-5.09c-37.69,0-74.26,7.38-108.68,21.94-33.25,14.06-63.11,34.19-88.75,59.84-25.64,25.64-45.77,55.5-59.84,88.75-14.56,34.43-21.94,70.99-21.94,108.68s7.38,74.26,21.94,108.68c14.06,33.25,34.19,63.11,59.84,88.75,25.64,25.64,55.5,45.77,88.75,59.84,34.43,14.56,70.99,21.94,108.68,21.94s74.26-7.38,108.68-21.94c33.25-14.06,63.11-34.19,88.75-59.84,25.64-25.64,45.77-55.5,59.84-88.75,14.56-34.43,21.94-70.99,21.94-108.68s-7.38-74.26-21.94-108.68c-14.06-33.25-34.19-63.11-59.84-88.75-25.64-25.64-55.5-45.77-88.75-59.84-34.43-14.56-70.99-21.94-108.68-21.94h0Z"/><circle class="cls-4" cx="283.46" cy="283.46" r="223.63"/><path class="cls-2" d="m292.32,282.47c14.02-9.42,98.47-52.74,204.64,36.51,1.28-7.73,2.16-15.61,2.6-23.62,3.79-68.8-24.98-131.85-72.9-174.19-.19.1-125.17,62.65-134.34,161.3Z"/><path class="cls-2" d="m292.64,285.76c-.15,18.71-12.06,120.77-142.73,168.01,33.71,26.48,75.59,43.25,121.64,45.78,29.98,1.65,58.86-2.88,85.42-12.48.03-.27,14.93-144.35-64.33-201.31Z"/><path class="cls-2" d="m289.5,284.14c-15.32-9.09-93.4-68.57-69.15-207.77-72.79,22.19-129.97,81.89-147.64,157.69.18.13,127.85,90.13,216.79,50.08Z"/><path class="cls-1" d="m426.66,121.16s-.1-.08-.14-.12c.05.04.09.08.14.13,0,0,0,0,0,0Z"/><path class="cls-1" d="m356.97,487.06c.42-.15.83-.31,1.24-.47-.42.15-.83.31-1.24.46,0,0,0,0,0,0Z"/><path class="cls-1" d="m292.32,282.47c-.62.42-1.11.77-1.45,1.04.47-.22.94-.42,1.41-.65.01-.13.02-.26.03-.39Z"/><path class="cls-1" d="m72.71,234.05c-.02.09-.03.17-.05.26.02-.08.04-.17.06-.26,0,0,0,0,0,0Z"/><path class="cls-1" d="m290.87,283.51c-.45.21-.91.42-1.37.63,1.51.9,2.43,1.31,2.55,1.26,0-.02,0-.03,0-.05-.59-.42-1.19-.84-1.79-1.25,0-.07.21-.28.6-.59Z"/><path class="cls-1" d="m292.28,282.86c-.07.83-.16,1.65-.22,2.48.19.14.38.28.58.42.01-1.85-.09-2.89-.2-2.97-.05.03-.11.05-.16.07Z"/><path class="cls-1" d="m290.87,283.51c-.39.31-.59.51-.6.59.6.41,1.2.83,1.79,1.25.06-.83.14-1.66.22-2.48-.47.23-.94.43-1.41.65Z"/><path class="cls-1" d="m289.5,284.14c.46-.21.91-.42,1.37-.63.34-.27.82-.62,1.45-1.04,9.17-98.65,134.15-161.21,134.34-161.3-.05-.04-.09-.08-.14-.13-4.27-3.75-8.58-7.25-12.9-10.52-1.1-.83-2.21-1.65-3.32-2.46-.14-.1-.27-.2-.41-.3-30.81-22.22-67.82-36.57-108.22-39.97-.74-.06-1.49-.12-2.23-.17-.34-.03-.69-.05-1.03-.07-18.37-1.2-34.66.02-47.55,1.9-10.42,1.58-20.61,3.89-30.52,6.91-24.25,139.2,53.83,198.68,69.15,207.77Z"/><path class="cls-1" d="m149.91,453.76c130.67-47.23,142.58-149.3,142.73-168.01-.19-.14-.38-.28-.58-.42,0,.02,0,.03,0,.05-.13.06-1.04-.36-2.55-1.26-88.94,40.05-216.61-49.95-216.79-50.08-.02.08-.04.17-.06.26-4.25,19.65-5.88,38.02-5.54,55.11,1.75,66.2,33.54,125.65,82.79,164.34Z"/><path class="cls-1" d="m292.32,282.47c-.01.13-.02.26-.03.39.05-.03.11-.05.16-.07.11.09.21,1.13.2,2.97,79.26,56.95,64.36,201.04,64.33,201.31.42-.15.83-.31,1.24-.46,1.22-.45,2.44-.9,3.64-1.37,69.68-27.12,122.42-89.45,135.1-166.26-106.17-89.25-190.62-45.92-204.64-36.51Z"/><path class="cls-3" d="m375.38,440.46c-4.08-6.22-8.6-12.15-12.96-18.2-4.77-6.63-9.45-13.33-14.09-20.05-4.03-5.84-7.87-11.8-11.59-17.82-3.71-5.99-7.17-12.14-10.69-18.25-4.93-8.54-9.45-17.3-14.19-25.94-4.25-7.75-8.33-15.61-12.32-23.5-3.63-7.18-7.18-14.4-10.91-21.53-3.02-5.79-5.43-11.88-8.49-17.68-3.95-7.46-7.37-15.21-10.96-22.86-10.29-21.89-20.16-43.97-30.19-65.98-3.72-8.17-7.44-16.33-11.15-24.5-.86-1.9-2.46-3.81.25-5.62.43-.29.33-1.16.21-1.83-.22-1.16-.23-2.35-.43-3.51-.83-4.84-2.13-9.53-5.28-13.44-3.25-4.04-8.12-6.6-10.53-11.45-.25-.51-.79-.32-1.41-.11-4.6,1.55-8.8,4-13.3,5.75-1.7.66-2.37,1.34-1.09,3.05.5.67,1.25,1.37-.21,2.47-8.7,6.5-17.77,12.15-28.04,16.03-8.09,3.06-16.33,4.91-24.81,5.57-8.02.63-16.12.56-24.16-.21-1.88-.18-2.12.47-1.61,1.87,2.5,6.88,4.31,14.02,8,20.9,1.92,6.13,5.85,11.75,9.22,17.58,4.46,7.72,10.13,14.71,16.35,21.16,10.21,10.59,21.88,19.22,35.26,25.34,10.18,4.65,20.86,7.77,32.06,8.91,1.32.13,3.08,1.1,3.83.12.82-1.08-1-2.07-1.56-3.15-2.73-5.32-5.82-10.45-9.19-15.38-1.72-2.51-3.77-4.73-7.2-4.93-2.68-.15-5.28-.85-7.55-2.29-6.2-3.95-11.84-8.41-15.74-14.92-3.45-5.75-5.24-11.92-4.69-18.39.81-9.61,4.62-17.7,13.41-23.04,6.77-4.11,13.93-6.16,21.71-6.53.98-.05,1.79.07,2.31,1.23,5.53,12.23,11.24,24.38,16.62,36.67,1.28,2.93,2.45,5.95,3.7,8.91,3.06,7.22,6.45,14.3,9.68,21.44,6.4,14.14,12.59,28.37,19.25,42.39,5.33,11.21,9.8,22.82,15.88,33.68,2.46,4.4,4.39,9.09,6.62,13.61,3.42,6.94,7.4,13.57,10.67,20.59,1.08,2.32,2.44,4.52,3.72,6.75,3.91,6.8,7.84,13.59,11.77,20.38,2.6,4.49,5.13,9.03,7.83,13.46,2.98,4.9,6.15,9.69,9.18,14.57,4.17,6.71,8.03,13.64,12.5,20.14,3.38,4.91,6.42,10.04,9.81,14.94,4.89,7.06,9.46,14.34,14.12,21.55.62.96,1.24,1.09,2.2.64,2.63-1.23,5.39-2.23,7.89-3.68,2-1.16,3.56-2.94,3.6-5.53.06-3.54-1.54-6.63-3.34-9.38Z"/><path class="cls-3" d="m211.53,127.99c.23,0,.41.08.53.32,2.41,4.84,7.28,7.4,10.53,11.45,3.15,3.91,4.44,8.6,5.28,13.44.2,1.16.22,2.35.43,3.51.13.67.22,1.55-.21,1.83-2.71,1.81-1.11,3.72-.25,5.62,3.71,8.17,7.43,16.34,11.15,24.5,10.03,22.01,19.9,44.09,30.19,65.98,3.59,7.64,7.02,15.39,10.96,22.86,3.07,5.8,5.47,11.88,8.49,17.68,3.73,7.14,7.28,14.35,10.91,21.53,3.98,7.89,8.07,15.75,12.32,23.5,4.74,8.64,9.26,17.4,14.19,25.94,3.53,6.1,6.99,12.26,10.69,18.25,3.73,6.02,7.56,11.99,11.59,17.82,4.65,6.72,9.32,13.42,14.09,20.05,4.35,6.04,8.87,11.98,12.96,18.2,1.8,2.75,3.4,5.84,3.34,9.38-.04,2.59-1.6,4.37-3.6,5.53-2.5,1.45-5.26,2.45-7.89,3.68-.35.16-.65.25-.92.25-.49,0-.88-.27-1.28-.89-4.66-7.22-9.23-14.5-14.12-21.55-3.4-4.9-6.43-10.02-9.81-14.94-4.47-6.5-8.33-13.43-12.5-20.14-3.03-4.88-6.2-9.67-9.18-14.57-2.7-4.43-5.23-8.97-7.83-13.46-3.93-6.79-7.86-13.58-11.77-20.38-1.28-2.23-2.64-4.43-3.72-6.75-3.27-7.01-7.25-13.65-10.67-20.59-2.23-4.52-4.16-9.21-6.62-13.61-6.08-10.86-10.55-22.47-15.88-33.68-6.66-14.01-12.85-28.25-19.25-42.39-3.24-7.14-6.63-14.22-9.68-21.44-1.25-2.95-2.42-5.98-3.7-8.91-5.38-12.29-11.09-24.44-16.62-36.67-.46-1.03-1.16-1.23-2-1.23-.1,0-.21,0-.32,0-7.78.37-14.95,2.42-21.71,6.53-8.79,5.34-12.6,13.43-13.41,23.04-.55,6.47,1.24,12.64,4.69,18.39,3.9,6.5,9.54,10.97,15.74,14.92,2.26,1.44,4.87,2.13,7.55,2.29,3.43.2,5.49,2.42,7.2,4.93,3.38,4.93,6.46,10.06,9.19,15.38.56,1.09,2.38,2.07,1.56,3.15-.25.32-.6.44-1.02.44-.84,0-1.93-.46-2.81-.55-11.19-1.14-21.88-4.26-32.06-8.91-13.38-6.12-25.05-14.75-35.26-25.34-6.23-6.46-11.89-13.44-16.35-21.16-3.37-5.83-7.3-11.44-9.22-17.58-3.69-6.88-5.5-14.02-8-20.9-.45-1.25-.31-1.9,1.05-1.9.17,0,.35,0,.56.03,4.41.43,8.85.64,13.27.64,3.64,0,7.27-.14,10.89-.43,8.48-.66,16.72-2.51,24.81-5.57,10.27-3.88,19.34-9.53,28.04-16.03,1.46-1.09.71-1.8.21-2.47-1.29-1.71-.61-2.39,1.09-3.05,4.5-1.75,8.7-4.2,13.3-5.75.32-.11.63-.21.88-.21m0-6.11c-1.25,0-2.23.33-2.81.53-2.94.99-5.6,2.24-8.17,3.45-1.87.88-3.63,1.71-5.4,2.4-1.08.42-4.35,1.69-5.38,5.3-.23.82-.37,1.87-.18,3.08-8.41,6.02-16.02,10.23-23.72,13.14-7.49,2.83-15.27,4.58-23.13,5.19-3.45.27-6.95.41-10.41.41-4.23,0-8.5-.2-12.69-.61-.4-.04-.78-.06-1.15-.06-3.53,0-5.37,1.87-6.15,2.98-.97,1.38-1.86,3.73-.64,7.1.68,1.87,1.3,3.75,1.96,5.75,1.67,5.03,3.39,10.23,6.13,15.45,1.72,5.2,4.54,9.86,7.27,14.37.77,1.28,1.57,2.59,2.31,3.88,4.33,7.5,9.97,14.81,17.25,22.35,11.09,11.49,23.58,20.46,37.12,26.65,11.12,5.08,22.52,8.25,33.88,9.42.14.03.28.07.42.11.78.21,1.85.49,3.11.49,2.36,0,4.5-1.04,5.88-2.84.86-1.13,3.32-5.19-1.12-9.96-.02-.03-.05-.05-.07-.08-2.72-5.25-5.87-10.51-9.39-15.65-1.34-1.96-4.91-7.18-11.89-7.58-1.83-.11-3.38-.56-4.62-1.34-4.83-3.08-10.25-7.01-13.78-12.91-2.96-4.93-4.25-9.89-3.84-14.73.73-8.6,4.07-14.43,10.5-18.33,5.05-3.07,10.45-4.87,16.44-5.47,1.59,3.49,3.19,6.99,4.75,10.39,3.55,7.75,7.23,15.76,10.69,23.68.71,1.62,1.37,3.25,2.08,4.98.53,1.29,1.05,2.58,1.59,3.86,2.12,5.01,4.42,10,6.65,14.82,1.04,2.25,2.07,4.5,3.1,6.75,2,4.41,4.01,8.91,5.96,13.27,4.29,9.6,8.73,19.53,13.34,29.22,1.82,3.82,3.58,7.8,5.28,11.64,3.28,7.41,6.68,15.07,10.78,22.41,1.46,2.6,2.72,5.34,4.06,8.24.77,1.66,1.57,3.38,2.41,5.09,1.56,3.16,3.23,6.26,4.84,9.26,2.07,3.83,4.02,7.45,5.77,11.21.97,2.09,2.09,4,3.16,5.84.27.46.54.92.8,1.38,3.58,6.23,7.18,12.45,10.78,18.67l1,1.73c.73,1.25,1.45,2.51,2.17,3.77,1.85,3.22,3.75,6.55,5.74,9.81,1.73,2.84,3.53,5.66,5.27,8.39,1.3,2.04,2.65,4.15,3.94,6.23,1.37,2.2,2.74,4.49,4.06,6.7,2.71,4.52,5.51,9.2,8.6,13.68,1.59,2.32,3.16,4.76,4.67,7.13,1.65,2.57,3.35,5.23,5.15,7.83,3.74,5.4,7.38,11.07,10.9,16.55,1.04,1.61,2.07,3.23,3.11,4.84,2.07,3.2,4.91,3.68,6.41,3.68,1.17,0,2.32-.27,3.5-.82.79-.37,1.62-.72,2.49-1.1,1.92-.83,3.9-1.68,5.89-2.83,4.21-2.44,6.57-6.24,6.65-10.72.09-5.37-2.27-9.68-4.34-12.83-3.03-4.62-6.31-9.1-9.48-13.43-1.21-1.66-2.43-3.32-3.63-4.99-5.15-7.15-10.2-14.42-14.03-19.96-3.59-5.19-7.33-10.94-11.42-17.56-2.86-4.62-5.64-9.47-8.33-14.15-.76-1.31-1.51-2.63-2.27-3.94-3.16-5.47-6.22-11.17-9.18-16.69-1.61-2.99-3.27-6.09-4.94-9.13-3.78-6.88-7.77-14.51-12.22-23.31-1.07-2.11-2.13-4.23-3.19-6.35-2.51-5.01-5.11-10.18-7.75-15.26-1.4-2.68-2.66-5.42-3.99-8.32-1.41-3.08-2.87-6.26-4.52-9.38-2.88-5.45-5.56-11.23-8.14-16.82-.89-1.93-1.79-3.86-2.69-5.78-7.39-15.73-14.7-31.85-21.77-47.43-2.79-6.16-5.59-12.32-8.39-18.48-3.72-8.16-7.43-16.31-11.14-24.47.85-1.33,1.41-3.28.89-6.08-.06-.33-.11-.8-.15-1.29-.06-.63-.13-1.35-.26-2.13-.83-4.8-2.31-10.99-6.54-16.23-1.6-1.99-3.44-3.63-5.06-5.06-2.05-1.83-3.83-3.4-4.76-5.27-1.14-2.29-3.44-3.71-6-3.71h0Z"/><path class="cls-3" d="m191.55,440.46c4.08-6.22,8.6-12.15,12.96-18.2,4.77-6.63,9.45-13.33,14.09-20.05,4.03-5.84,7.87-11.8,11.59-17.82,3.71-5.99,7.17-12.14,10.69-18.25,4.93-8.54,9.45-17.3,14.19-25.94,4.25-7.75,8.33-15.61,12.32-23.5,3.63-7.18,7.18-14.4,10.91-21.53,3.02-5.79,5.43-11.88,8.49-17.68,3.95-7.46,7.37-15.21,10.96-22.86,10.29-21.89,20.16-43.97,30.19-65.98,3.72-8.17,7.44-16.33,11.15-24.5.86-1.9,2.46-3.81-.25-5.62-.43-.29-.33-1.16-.21-1.83.22-1.16.23-2.35.43-3.51.83-4.84,2.13-9.53,5.28-13.44,3.25-4.04,8.12-6.6,10.53-11.45.25-.51.79-.32,1.41-.11,4.6,1.55,8.8,4,13.3,5.75,1.7.66,2.37,1.34,1.09,3.05-.5.67-1.25,1.37.21,2.47,8.7,6.5,17.77,12.15,28.04,16.03,8.09,3.06,16.33,4.91,24.81,5.57,8.02.63,16.12.56,24.16-.21,1.88-.18,2.12.47,1.61,1.87-2.5,6.88-4.31,14.02-8,20.9-1.92,6.13-5.85,11.75-9.22,17.58-4.46,7.72-10.13,14.71-16.35,21.16-10.21,10.59-21.88,19.22-35.26,25.34-10.18,4.65-20.86,7.77-32.06,8.91-1.32.13-3.08,1.1-3.83.12-.82-1.08,1-2.07,1.56-3.15,2.73-5.32,5.82-10.45,9.19-15.38,1.72-2.51,3.77-4.73,7.2-4.93,2.68-.15,5.28-.85,7.55-2.29,6.2-3.95,11.84-8.41,15.74-14.92,3.45-5.75,5.24-11.92,4.69-18.39-.81-9.61-4.62-17.7-13.41-23.04-6.77-4.11-13.93-6.16-21.71-6.53-.98-.05-1.79.07-2.31,1.23-5.53,12.23-11.24,24.38-16.62,36.67-1.28,2.93-2.45,5.95-3.7,8.91-3.06,7.22-6.45,14.3-9.68,21.44-6.4,14.14-12.59,28.37-19.25,42.39-5.33,11.21-9.8,22.82-15.88,33.68-2.46,4.4-4.39,9.09-6.62,13.61-3.42,6.94-7.4,13.57-10.67,20.59-1.08,2.32-2.44,4.52-3.72,6.75-3.91,6.8-7.84,13.59-11.77,20.38-2.6,4.49-5.13,9.03-7.83,13.46-2.98,4.9-6.15,9.69-9.18,14.57-4.17,6.71-8.03,13.64-12.5,20.14-3.38,4.91-6.42,10.04-9.81,14.94-4.89,7.06-9.46,14.34-14.12,21.55-.62.96-1.24,1.09-2.2.64-2.63-1.23-5.39-2.23-7.89-3.68-2-1.16-3.56-2.94-3.6-5.53-.06-3.54,1.54-6.63,3.34-9.38Z"/><path class="cls-3" d="m355.4,127.99c.25,0,.55.1.88.21,4.6,1.55,8.8,4,13.3,5.75,1.7.66,2.37,1.34,1.09,3.05-.5.67-1.25,1.37.21,2.47,8.7,6.5,17.77,12.15,28.04,16.03,8.09,3.06,16.33,4.91,24.81,5.57,3.62.28,7.25.43,10.89.43,4.43,0,8.86-.21,13.27-.64.21-.02.39-.03.56-.03,1.36,0,1.5.65,1.05,1.9-2.5,6.88-4.31,14.02-8,20.9-1.92,6.13-5.85,11.75-9.22,17.58-4.46,7.72-10.13,14.71-16.35,21.16-10.21,10.59-21.88,19.22-35.26,25.34-10.18,4.65-20.86,7.77-32.06,8.91-.88.09-1.97.55-2.81.55-.42,0-.77-.11-1.02-.44-.82-1.08,1-2.07,1.56-3.15,2.73-5.32,5.82-10.45,9.19-15.38,1.72-2.51,3.77-4.73,7.2-4.93,2.68-.15,5.28-.85,7.55-2.29,6.2-3.95,11.84-8.41,15.74-14.92,3.45-5.75,5.24-11.92,4.69-18.39-.81-9.61-4.62-17.7-13.41-23.04-6.77-4.11-13.93-6.16-21.71-6.53-.11,0-.21,0-.32,0-.84,0-1.53.21-2,1.23-5.53,12.23-11.24,24.38-16.62,36.67-1.28,2.93-2.45,5.95-3.7,8.91-3.06,7.22-6.45,14.3-9.68,21.44-6.4,14.14-12.59,28.37-19.25,42.39-5.33,11.21-9.8,22.82-15.88,33.68-2.46,4.4-4.39,9.09-6.62,13.61-3.42,6.94-7.4,13.57-10.67,20.59-1.08,2.32-2.44,4.52-3.72,6.75-3.91,6.8-7.84,13.59-11.77,20.38-2.6,4.49-5.13,9.03-7.83,13.46-2.98,4.9-6.15,9.69-9.18,14.57-4.17,6.71-8.03,13.64-12.5,20.14-3.38,4.91-6.42,10.04-9.81,14.94-4.89,7.06-9.46,14.34-14.12,21.55-.4.62-.8.89-1.28.89-.27,0-.58-.09-.92-.25-2.63-1.23-5.39-2.23-7.89-3.68-2-1.16-3.56-2.94-3.6-5.53-.06-3.54,1.54-6.63,3.34-9.38,4.08-6.22,8.6-12.15,12.96-18.2,4.77-6.63,9.45-13.33,14.09-20.05,4.03-5.84,7.87-11.8,11.59-17.82,3.71-5.99,7.17-12.14,10.69-18.25,4.93-8.54,9.45-17.3,14.19-25.94,4.25-7.75,8.33-15.61,12.32-23.5,3.63-7.18,7.18-14.4,10.91-21.53,3.02-5.79,5.43-11.88,8.49-17.68,3.95-7.46,7.37-15.21,10.96-22.86,10.29-21.89,20.16-43.97,30.19-65.98,3.72-8.17,7.44-16.33,11.15-24.5.86-1.9,2.46-3.81-.25-5.62-.43-.29-.33-1.16-.21-1.83.22-1.16.23-2.35.43-3.51.83-4.84,2.13-9.53,5.28-13.44,3.25-4.04,8.12-6.6,10.53-11.45.12-.24.3-.32.53-.32m0-6.11c-2.56,0-4.86,1.42-6,3.71-.93,1.87-2.71,3.45-4.76,5.27-1.62,1.44-3.45,3.07-5.06,5.06-4.22,5.25-5.71,11.43-6.54,16.23-.13.78-.2,1.5-.26,2.13-.05.49-.09.95-.15,1.29-.52,2.79.04,4.74.89,6.08-3.71,8.16-7.42,16.32-11.14,24.47-2.81,6.16-5.6,12.32-8.39,18.48-7.07,15.59-14.37,31.7-21.77,47.43-.9,1.92-1.8,3.85-2.69,5.79-2.59,5.59-5.26,11.36-8.14,16.81-1.65,3.13-3.11,6.31-4.52,9.38-1.33,2.9-2.59,5.64-3.99,8.32-2.65,5.07-5.25,10.25-7.76,15.26-1.06,2.12-2.12,4.23-3.19,6.35-4.44,8.8-8.44,16.42-12.22,23.31-1.67,3.04-3.33,6.14-4.94,9.13-2.96,5.51-6.02,11.21-9.18,16.69-.76,1.31-1.51,2.62-2.27,3.94-2.69,4.68-5.47,9.53-8.34,14.15-4.1,6.63-7.83,12.37-11.42,17.56-3.82,5.53-8.87,12.8-14.03,19.96-1.2,1.67-2.41,3.33-3.63,4.99-3.17,4.33-6.44,8.81-9.48,13.43-2.07,3.15-4.44,7.46-4.34,12.83.08,4.47,2.44,8.28,6.65,10.71,1.98,1.15,3.97,2,5.89,2.83.87.38,1.7.73,2.49,1.1,1.18.55,2.33.82,3.5.82,1.51,0,4.34-.48,6.41-3.68,1.04-1.61,2.08-3.23,3.12-4.84,3.52-5.48,7.16-11.15,10.89-16.55,1.8-2.6,3.5-5.26,5.15-7.83,1.51-2.37,3.08-4.81,4.67-7.13,3.09-4.49,5.89-9.16,8.6-13.68,1.32-2.21,2.69-4.5,4.06-6.7,1.29-2.07,2.63-4.18,3.94-6.22,1.74-2.73,3.54-5.55,5.27-8.39,1.98-3.26,3.89-6.58,5.73-9.8.72-1.26,1.44-2.52,2.17-3.77l1.07-1.86c3.57-6.18,7.14-12.35,10.7-18.54.26-.46.53-.92.8-1.38,1.08-1.84,2.19-3.75,3.16-5.84,1.75-3.76,3.7-7.38,5.77-11.21,1.62-3,3.29-6.1,4.84-9.26.84-1.7,1.64-3.42,2.4-5.09,1.34-2.9,2.61-5.64,4.06-8.24,4.11-7.33,7.5-15,10.78-22.41,1.7-3.84,3.46-7.82,5.28-11.64,4.6-9.69,9.04-19.61,13.34-29.21,1.95-4.36,3.96-8.86,5.96-13.28,1.02-2.26,2.06-4.51,3.1-6.76,2.22-4.82,4.52-9.8,6.65-14.82.54-1.28,1.07-2.57,1.59-3.86.7-1.73,1.37-3.36,2.08-4.98,3.47-7.91,7.14-15.92,10.69-23.67,1.56-3.41,3.17-6.91,4.75-10.4,6,.61,11.39,2.4,16.44,5.47,6.43,3.91,9.77,9.74,10.5,18.33.41,4.85-.88,9.8-3.84,14.73-3.53,5.89-8.95,9.83-13.78,12.91-1.23.79-2.79,1.24-4.62,1.34-6.98.4-10.55,5.62-11.89,7.58-3.51,5.14-6.67,10.4-9.39,15.65-.02.03-.05.05-.07.08-4.44,4.77-1.98,8.83-1.12,9.96,1.38,1.81,3.52,2.84,5.88,2.84,1.26,0,2.33-.28,3.11-.49.14-.04.28-.08.42-.11,11.35-1.17,22.75-4.33,33.88-9.42,13.54-6.19,26.03-15.16,37.12-26.65,7.27-7.54,12.92-14.85,17.25-22.35.74-1.28,1.54-2.6,2.31-3.88,2.73-4.51,5.54-9.17,7.27-14.37,2.74-5.22,4.46-10.42,6.13-15.45.66-1.99,1.28-3.88,1.96-5.75,1.22-3.37.33-5.72-.64-7.11-.78-1.11-2.62-2.98-6.15-2.98-.37,0-.74.02-1.15.06-4.19.4-8.45.61-12.69.61-3.46,0-6.96-.14-10.41-.41-7.85-.61-15.63-2.36-23.13-5.19-7.7-2.91-15.31-7.12-23.72-13.14.19-1.21.05-2.26-.18-3.08-1.03-3.61-4.31-4.89-5.38-5.3-1.77-.69-3.54-1.52-5.4-2.4-2.57-1.21-5.23-2.46-8.15-3.45-.6-.2-1.58-.53-2.83-.53h0Z"/><path class="cls-5" d="m375.38,440.46c-4.08-6.22-8.6-12.15-12.96-18.2-4.77-6.63-9.45-13.33-14.09-20.05-4.03-5.84-7.87-11.8-11.59-17.82-3.71-5.99-7.17-12.14-10.69-18.25-4.93-8.54-9.45-17.3-14.19-25.94-4.25-7.75-8.33-15.61-12.32-23.5-3.63-7.18-7.18-14.4-10.91-21.53-3.02-5.79-5.43-11.88-8.49-17.68-3.95-7.46-7.37-15.21-10.96-22.86-10.29-21.89-20.16-43.97-30.19-65.98-3.72-8.17-7.44-16.33-11.15-24.5-.86-1.9-2.46-3.81.25-5.62.43-.29.33-1.16.21-1.83-.22-1.16-.23-2.35-.43-3.51-.83-4.84-2.13-9.53-5.28-13.44-3.25-4.04-8.12-6.6-10.53-11.45-.25-.51-.79-.32-1.41-.11-4.6,1.55-8.8,4-13.3,5.75-1.7.66-2.37,1.34-1.09,3.05.5.67,1.25,1.37-.21,2.47-8.7,6.5-17.77,12.15-28.04,16.03-8.09,3.06-16.33,4.91-24.81,5.57-8.02.63-16.12.56-24.16-.21-1.88-.18-2.12.47-1.61,1.87,2.5,6.88,4.31,14.02,8,20.9,1.92,6.13,5.85,11.75,9.22,17.58,4.46,7.72,10.13,14.71,16.35,21.16,10.21,10.59,21.88,19.22,35.26,25.34,10.18,4.65,20.86,7.77,32.06,8.91,1.32.13,3.08,1.1,3.83.12.82-1.08-1-2.07-1.56-3.15-2.73-5.32-5.82-10.45-9.19-15.38-1.72-2.51-3.77-4.73-7.2-4.93-2.68-.15-5.28-.85-7.55-2.29-6.2-3.95-11.84-8.41-15.74-14.92-3.45-5.75-5.24-11.92-4.69-18.39.81-9.61,4.62-17.7,13.41-23.04,6.77-4.11,13.93-6.16,21.71-6.53.98-.05,1.79.07,2.31,1.23,5.53,12.23,11.24,24.38,16.62,36.67,1.28,2.93,2.45,5.95,3.7,8.91,3.06,7.22,6.45,14.3,9.68,21.44,6.4,14.14,12.59,28.37,19.25,42.39,5.33,11.21,9.8,22.82,15.88,33.68,2.46,4.4,4.39,9.09,6.62,13.61,3.42,6.94,7.4,13.57,10.67,20.59,1.08,2.32,2.44,4.52,3.72,6.75,3.91,6.8,7.84,13.59,11.77,20.38,2.6,4.49,5.13,9.03,7.83,13.46,2.98,4.9,6.15,9.69,9.18,14.57,4.17,6.71,8.03,13.64,12.5,20.14,3.38,4.91,6.42,10.04,9.81,14.94,4.89,7.06,9.46,14.34,14.12,21.55.62.96,1.24,1.09,2.2.64,2.63-1.23,5.39-2.23,7.89-3.68,2-1.16,3.56-2.94,3.6-5.53.06-3.54-1.54-6.63-3.34-9.38Z"/><path class="cls-5" d="m191.55,440.46c4.08-6.22,8.6-12.15,12.96-18.2,4.77-6.63,9.45-13.33,14.09-20.05,4.03-5.84,7.87-11.8,11.59-17.82,3.71-5.99,7.17-12.14,10.69-18.25,4.93-8.54,9.45-17.3,14.19-25.94,4.25-7.75,8.33-15.61,12.32-23.5,3.63-7.18,7.18-14.4,10.91-21.53,3.02-5.79,5.43-11.88,8.49-17.68,3.95-7.46,7.37-15.21,10.96-22.86,10.29-21.89,20.16-43.97,30.19-65.98,3.72-8.17,7.44-16.33,11.15-24.5.86-1.9,2.46-3.81-.25-5.62-.43-.29-.33-1.16-.21-1.83.22-1.16.23-2.35.43-3.51.83-4.84,2.13-9.53,5.28-13.44,3.25-4.04,8.12-6.6,10.53-11.45.25-.51.79-.32,1.41-.11,4.6,1.55,8.8,4,13.3,5.75,1.7.66,2.37,1.34,1.09,3.05-.5.67-1.25,1.37.21,2.47,8.7,6.5,17.77,12.15,28.04,16.03,8.09,3.06,16.33,4.91,24.81,5.57,8.02.63,16.12.56,24.16-.21,1.88-.18,2.12.47,1.61,1.87-2.5,6.88-4.31,14.02-8,20.9-1.92,6.13-5.85,11.75-9.22,17.58-4.46,7.72-10.13,14.71-16.35,21.16-10.21,10.59-21.88,19.22-35.26,25.34-10.18,4.65-20.86,7.77-32.06,8.91-1.32.13-3.08,1.1-3.83.12-.82-1.08,1-2.07,1.56-3.15,2.73-5.32,5.82-10.45,9.19-15.38,1.72-2.51,3.77-4.73,7.2-4.93,2.68-.15,5.28-.85,7.55-2.29,6.2-3.95,11.84-8.41,15.74-14.92,3.45-5.75,5.24-11.92,4.69-18.39-.81-9.61-4.62-17.7-13.41-23.04-6.77-4.11-13.93-6.16-21.71-6.53-.98-.05-1.79.07-2.31,1.23-5.53,12.23-11.24,24.38-16.62,36.67-1.28,2.93-2.45,5.95-3.7,8.91-3.06,7.22-6.45,14.3-9.68,21.44-6.4,14.14-12.59,28.37-19.25,42.39-5.33,11.21-9.8,22.82-15.88,33.68-2.46,4.4-4.39,9.09-6.62,13.61-3.42,6.94-7.4,13.57-10.67,20.59-1.08,2.32-2.44,4.52-3.72,6.75-3.91,6.8-7.84,13.59-11.77,20.38-2.6,4.49-5.13,9.03-7.83,13.46-2.98,4.9-6.15,9.69-9.18,14.57-4.17,6.71-8.03,13.64-12.5,20.14-3.38,4.91-6.42,10.04-9.81,14.94-4.89,7.06-9.46,14.34-14.12,21.55-.62.96-1.24,1.09-2.2.64-2.63-1.23-5.39-2.23-7.89-3.68-2-1.16-3.56-2.94-3.6-5.53-.06-3.54,1.54-6.63,3.34-9.38Z"/><path class="cls-3" d="m55.64,336.51l1.92,7.06c.83,3.06,1.1,5.66.8,7.79-.3,2.14-1.39,4.08-3.29,5.83-1.89,1.75-4.72,3.13-8.47,4.15-2.67.73-5.13,1.02-7.39.88-2.26-.14-4.13-.61-5.63-1.43-1.5-.81-2.64-1.88-3.44-3.2-.79-1.32-1.48-3.05-2.06-5.19l-2.13-7.84,29.69-8.06Zm-3.31,7.94l-19.51,5.3.3,1.12c.41,1.52,1.02,2.62,1.83,3.29.81.68,2,1.06,3.58,1.17,1.58.11,3.73-.21,6.46-.95,2.53-.69,4.4-1.49,5.61-2.41,1.21-.92,1.95-1.86,2.22-2.81.26-.96.2-2.15-.19-3.58l-.3-1.12Z"/><path class="cls-3" d="m64.85,366.76l2.48,6.37-25.45,19.4-2.52-6.47,5.36-3.74-3.16-8.11-6.47.9-2.27-5.81,32.03-2.53Zm-15.68,12.45l10.61-7.49-12.83,1.79,2.22,5.7Z"/><path class="cls-3" d="m67.88,409.66c-9.39,4.87-15.8,3.99-19.24-2.64-1.71-3.29-1.8-6.4-.28-9.32,1.52-2.92,4.59-5.57,9.19-7.96,9.37-4.86,15.78-3.98,19.22,2.65,1.68,3.24,1.79,6.32.33,9.24-1.46,2.92-4.54,5.59-9.22,8.02Zm-3.3-6.35c3.68-1.91,5.98-3.47,6.9-4.68.92-1.21,1.05-2.44.4-3.7-.65-1.25-1.73-1.84-3.26-1.78-1.53.06-4.12,1.04-7.79,2.95-3.6,1.87-5.89,3.41-6.86,4.64-.97,1.23-1.13,2.47-.48,3.73.65,1.25,1.73,1.85,3.25,1.8,1.51-.05,4.13-1.03,7.83-2.96Z"/><path class="cls-3" d="m83.98,406.63l4.21,6.25-11.42,17.26,15.85-10.67,2.93,4.36-25.52,17.18-3.39-5.03,13.21-20.25-18.47,12.43-2.93-4.36,25.52-17.18Z"/><path class="cls-3" d="m98.98,428.32l4.89,5.73-9.38,18.45,14.54-12.41,3.41,4-23.4,19.97-3.94-4.62,10.82-21.62-16.94,14.45-3.41-3.99,23.4-19.97Z"/><path class="cls-3" d="m121.15,452.65l4.99,4.67-14.58,28.49-5.07-4.75,3.22-5.69-6.35-5.95-5.45,3.6-4.56-4.26,27.8-16.11Zm-8.77,18l6.33-11.34-10.8,7.15,4.47,4.18Z"/><path class="cls-3" d="m134.7,465l6.02,4.54-5.16,20.04,11.5-15.26,4.19,3.16-18.52,24.56-4.84-3.65,5.88-23.45-13.4,17.78-4.19-3.16,18.51-24.56Z"/><path class="cls-3" d="m164.44,485.9l6.45,3.45c2.79,1.5,4.86,3.09,6.21,4.77,1.35,1.68,2.01,3.81,1.98,6.39-.03,2.58-.96,5.58-2.79,9.01-1.3,2.44-2.78,4.43-4.43,5.98-1.65,1.55-3.28,2.58-4.9,3.11-1.62.53-3.18.63-4.68.31s-3.23-1.01-5.19-2.06l-7.17-3.84,14.52-27.12Zm3.5,7.85l-9.54,17.82,1.02.55c1.39.74,2.6,1.05,3.65.93,1.04-.12,2.15-.72,3.31-1.8,1.16-1.08,2.41-2.86,3.74-5.35,1.23-2.31,1.94-4.22,2.1-5.73.17-1.51,0-2.7-.52-3.54-.52-.85-1.43-1.62-2.74-2.32l-1.02-.55Z"/><path class="cls-3" d="m187.94,497.98l17.41,7.07-1.98,4.89-11.12-4.51-2.69,6.62,8.64,3.51-1.98,4.89-8.64-3.51-2.85,7.02,11.12,4.51-2.07,5.09-17.41-7.07,11.57-28.5Z"/><path class="cls-3" d="m209.21,506.14l6.47,2.06-9.31,29.32-6.47-2.06,9.31-29.32Z"/><path class="cls-3" d="m238.79,520.89l-5.95.83c-.21-2.65-1.35-4.22-3.42-4.7-.97-.22-1.8-.13-2.49.29-.69.42-1.12.99-1.29,1.73-.2.85-.02,1.6.54,2.26s1.8,1.64,3.74,2.96c1.78,1.17,3.14,2.23,4.09,3.19.95.96,1.63,2.12,2.03,3.49.4,1.37.42,2.85.06,4.44-.64,2.8-2.14,4.87-4.49,6.22s-5.15,1.65-8.4.9c-5.46-1.26-8.31-4.81-8.56-10.64l6.16-.32c.01,3.18,1.27,5.06,3.79,5.64,1.15.26,2.15.18,3-.25s1.39-1.13,1.61-2.09c.17-.73.07-1.44-.3-2.14-.37-.69-1.37-1.57-3.02-2.63-2.12-1.35-3.67-2.49-4.65-3.42s-1.69-2.09-2.14-3.5c-.45-1.41-.49-2.9-.13-4.48.62-2.69,2-4.7,4.14-6.02,2.14-1.32,4.64-1.65,7.51-.99,5.23,1.21,7.96,4.29,8.18,9.24Z"/><path class="cls-3" d="m245.48,515.2l18.64,2.36-.66,5.23-11.9-1.51-.9,7.09,9.25,1.17-.66,5.23-9.25-1.17-.95,7.51,11.9,1.51-.69,5.46-18.64-2.36,3.87-30.52Z"/><path class="cls-3" d="m268.14,517.64l6.78.33-1.51,30.73-6.78-.33,1.51-30.73Z"/><path class="cls-3" d="m281.52,518.18l6.79-.16.57,24.99,9.96-.23.13,5.77-16.75.39-.71-30.75Z"/><path class="cls-3" d="m309.39,531.72l9.17-.87.47,4.96-9.17.87-.47-4.96Z"/><path class="cls-3" d="m330.83,511.4l10.23-2.59c2.4-.61,4.26-.87,5.58-.81,1.32.07,2.55.64,3.7,1.71,1.15,1.07,1.97,2.56,2.45,4.47.84,3.34-.04,5.84-2.66,7.51,3.7.34,6.01,2.35,6.94,6.03.49,1.94.44,3.69-.14,5.25s-1.5,2.74-2.74,3.53c-1.24.79-3.1,1.49-5.59,2.12l-10.23,2.59-7.54-29.82Zm9.37,10.44l2.13-.54c2.12-.54,3.36-1.25,3.72-2.15.36-.9.41-1.83.16-2.81-.23-.9-.71-1.64-1.43-2.21-.73-.57-1.99-.62-3.79-.17l-2.61.66,1.82,7.21Zm3.2,12.67l3.23-.82c3.03-.76,4.21-2.45,3.56-5.05-.36-1.45-1-2.37-1.9-2.77s-2.12-.41-3.64-.02l-3.23.82,1.98,7.84Z"/><path class="cls-3" d="m377.22,517.65l6.01-1.84c.95,3.2.91,6.12-.14,8.75-1.05,2.63-3.03,4.49-5.96,5.58-3.56,1.33-6.77,1.03-9.62-.9-2.85-1.93-5.14-5.21-6.86-9.83-1.74-4.66-2.18-8.65-1.31-11.97.87-3.32,3.13-5.67,6.77-7.03,6.04-2.26,10.71.23,14.03,7.46l-5.65,2.59c-1.76-4.22-3.9-5.86-6.43-4.91-1.33.5-2.13,1.58-2.4,3.25-.27,1.67.34,4.49,1.82,8.46,1.33,3.55,2.6,5.85,3.81,6.91,1.22,1.06,2.55,1.32,3.99.78,2.32-.87,2.96-3.3,1.93-7.31Z"/><path class="cls-3" d="m380.22,495.22l16.84-8.34,2.34,4.73-10.75,5.33,3.17,6.4,8.36-4.14,2.34,4.73-8.36,4.14,3.36,6.78,10.75-5.33,2.44,4.93-16.84,8.34-13.66-27.56Z"/><path class="cls-3" d="m416.3,475l2.78,4.48-10.19,6.33,13.44,21.65-5.77,3.58-16.23-26.14,15.96-9.91Z"/><path class="cls-3" d="m431.74,494.86l-9.85-24.1,6.96-5.28,20.04,16.36,1.53-1.16,7.16,9.44-4,3.04-4.26-4.6-11.27,8.55,3.3,5.33-4,3.04-7.17-9.44,1.55-1.18Zm4.93-3.74l6.73-5.11-14.23-12.63-.69.52,8.18,17.22Z"/><path class="cls-3" d="m441.07,455.08l4.99-4.67,27.47,16.42-5.07,4.75-5.47-3.59-6.35,5.95,3.24,5.67-4.56,4.27-14.25-28.8Zm17.39,9.93l-10.9-7.06,6.43,11.25,4.47-4.18Z"/><path class="cls-3" d="m472.8,420.15l4.11,3.31-7.53,9.34,19.84,16-4.26,5.29-23.94-19.31,11.8-14.63Z"/><path class="cls-3" d="m499.22,408.02c8.86,5.78,11.25,11.8,7.16,18.05-2.03,3.11-4.69,4.72-7.98,4.82-3.29.11-7.1-1.26-11.45-4.09-8.85-5.77-11.23-11.78-7.15-18.04,2-3.06,4.63-4.67,7.89-4.83,3.26-.16,7.1,1.2,11.52,4.08Zm-3.91,5.99c-3.47-2.27-5.96-3.5-7.47-3.71-1.51-.21-2.65.28-3.42,1.47-.77,1.18-.75,2.41.05,3.71.8,1.3,2.93,3.08,6.39,5.33,3.4,2.22,5.87,3.45,7.41,3.69,1.55.24,2.71-.23,3.48-1.42.77-1.18.76-2.41-.03-3.71-.79-1.3-2.93-3.09-6.42-5.37Z"/><path class="cls-3" d="m487.3,397.85l8.93-17.07,5.11,2.67-2.93,5.6,22.14,11.59-3.15,6.02-22.14-11.59-2.86,5.45-5.11-2.68Z"/><path class="cls-3" d="m519.83,363.93c9.8,3.97,13.3,9.42,10.5,16.34-1.39,3.44-3.69,5.53-6.9,6.27-3.21.74-7.21.13-12.02-1.82-9.79-3.96-13.28-9.41-10.48-16.33,1.37-3.39,3.64-5.47,6.81-6.25,3.17-.78,7.2-.19,12.09,1.79Zm-2.69,6.63c-3.84-1.56-6.52-2.29-8.04-2.21-1.52.09-2.54.78-3.08,2.1-.53,1.3-.27,2.51.77,3.63,1.04,1.12,3.47,2.46,7.3,4.01,3.76,1.52,6.42,2.26,7.99,2.2s2.61-.75,3.14-2.06c.53-1.3.28-2.51-.74-3.63-1.02-1.12-3.47-2.47-7.34-4.03Z"/><path class="cls-3" d="m507.16,353.38l2.84-10.16c.67-2.38,1.36-4.13,2.07-5.24s1.83-1.9,3.33-2.36c1.5-.47,3.2-.43,5.1.1,3.31.93,5.05,2.94,5.19,6.03,2.13-3.04,5.02-4.05,8.69-3.03,1.92.54,3.42,1.45,4.49,2.73,1.07,1.29,1.63,2.66,1.7,4.13.07,1.47-.25,3.44-.94,5.91l-2.84,10.16-29.63-8.27Zm13.71-2.94l.59-2.12c.59-2.11.58-3.54-.02-4.29-.6-.76-1.39-1.27-2.35-1.54-.9-.25-1.77-.2-2.63.15-.85.35-1.53,1.42-2.03,3.21l-.72,2.59,7.16,2Zm12.59,3.51l.9-3.2c.84-3.01-.03-4.87-2.61-5.6-1.44-.4-2.55-.31-3.35.27-.8.58-1.41,1.63-1.83,3.14l-.89,3.21,7.79,2.18Z"/><path class="cls-3" d="m99.5,98.41l4.97-4.93,20.37,13.9-13.63-20.59,4.06-4.03,17.2,27.9-5.42,5.15-27.55-17.4Z"/><path class="cls-3" d="m123.79,75.59l5.2-4.24,26.79,19.13-5.29,4.31-5.32-4.13-6.63,5.4,2.99,6.03-4.75,3.87-13-30.37Zm16.97,11.65l-10.6-8.14,5.94,11.94,4.66-3.8Z"/><path class="cls-3" d="m141.19,62.04l8-5.19c1.56-1.01,2.79-1.7,3.72-2.09.92-.39,2.02-.53,3.29-.42,1.27.11,2.52.58,3.73,1.41,1.22.83,2.29,1.95,3.21,3.37,2.16,3.33,2.49,6.45.98,9.35l12.24,8.62-6.09,3.95-10.24-8.33-2.8,1.81,6.84,10.54-5.6,3.63-17.28-26.64Zm8.39.68l4.85,7.48,2.46-1.6c2.19-1.42,2.45-3.41.79-5.97-.57-.89-1.21-1.51-1.9-1.86-.69-.36-1.32-.5-1.88-.42-.56.08-1.26.39-2.09.93l-2.24,1.45Z"/><path class="cls-3" d="m170.62,44.36l6-3.01,21.98,24.51-6.1,3.06-4.29-5.19-7.64,3.83,1.61,6.53-5.48,2.75-6.08-32.48Zm14.03,15.06l-8.57-10.26,3.2,12.95,5.37-2.69Z"/><path class="cls-3" d="m190.46,34.95l6.96-2.54,14.1,15.86-6.76-18.53,4.85-1.77,10.89,29.83-5.6,2.04-16.57-18.42,7.88,21.59-4.85,1.77-10.89-29.83Z"/><path class="cls-3" d="m232.86,37.16l10.27-2.37,3.81,16.5-2.75.63-1.66-3.34c-.97,3.04-3.05,4.93-6.23,5.66-3.36.78-6.35,0-8.97-2.31-2.61-2.32-4.46-5.82-5.54-10.51-1.17-5.09-1.13-9.35.12-12.77,1.26-3.42,3.79-5.56,7.59-6.44,6.05-1.4,10.26,1.36,12.63,8.26l-5.62,2.35c-1.34-3.96-3.21-5.66-5.61-5.11-1.46.34-2.45,1.35-2.98,3.05-.53,1.7-.31,4.63.65,8.8.85,3.7,1.88,6.21,3.08,7.53,1.2,1.31,2.62,1.78,4.27,1.4,2.64-.61,3.5-2.96,2.57-7.06l-4.42,1.02-1.22-5.31Z"/><path class="cls-3" d="m248.73,19.09l6.61-.88,4.18,31.48-6.61.88-4.18-31.48Z"/><path class="cls-3" d="m270,16.91l6.71-.3,10.08,31.34-6.82.3-1.8-6.49-8.54.38-1.2,6.62-6.12.27,7.69-32.13Zm6.67,19.47l-3.64-12.86-2.36,13.13,6-.27Z"/><path class="cls-3" d="m291.41,16.54l7.39.42,6.68,20.14,1.12-19.7,5.15.29-1.79,31.71-5.95-.34-7.94-23.47-1.3,22.95-5.15-.29,1.79-31.71Z"/><path class="cls-3" d="m339.98,38.08l10.24,2.51-4.03,16.45-2.74-.67.02-3.73c-2.24,2.28-4.94,3.03-8.11,2.25-3.35-.82-5.68-2.86-6.96-6.1-1.29-3.25-1.36-7.2-.22-11.87,1.25-5.08,3.2-8.86,5.86-11.34,2.66-2.49,5.89-3.26,9.67-2.34,6.03,1.48,8.55,5.83,7.56,13.06l-6.08-.43c.59-4.14-.32-6.5-2.71-7.08-1.45-.36-2.8.1-4.04,1.38-1.24,1.28-2.36,4-3.38,8.15-.91,3.69-1.12,6.39-.64,8.11.48,1.72,1.54,2.77,3.18,3.18,2.64.65,4.46-1.07,5.47-5.15l-4.41-1.08,1.3-5.29Z"/><path class="cls-3" d="m363.05,29.14l6.23,2.39-6.5,16.94c-.92,2.39-1.45,4.09-1.61,5.12-.15,1.02,0,1.9.48,2.64.47.74,1.18,1.29,2.14,1.66,1.04.4,1.96.45,2.78.14.81-.3,1.46-.87,1.94-1.7s1.18-2.45,2.1-4.85l6.5-16.94,5.21,2-6.4,16.68c-1.28,3.33-2.41,5.74-3.41,7.24-.99,1.5-2.47,2.54-4.42,3.14-1.95.6-4.24.39-6.87-.62-2.46-.95-4.24-2.12-5.32-3.52-1.08-1.4-1.62-3-1.62-4.78,0-1.78.76-4.65,2.27-8.59l6.5-16.94Z"/><path class="cls-3" d="m395.97,43.16l5.95,3.12-7.09,32.15-6.04-3.17,1.71-6.51-7.57-3.98-4.37,5.12-5.43-2.85,22.84-23.88Zm-4.05,20.18l3.33-12.95-8.65,10.15,5.32,2.79Z"/><path class="cls-3" d="m415.34,53.93l7.89,5.36c1.53,1.04,2.66,1.91,3.37,2.61.72.7,1.27,1.66,1.66,2.87.39,1.21.44,2.54.16,3.99-.29,1.44-.91,2.86-1.86,4.26-2.23,3.28-4.98,4.79-8.24,4.53l-3.19,14.63-6.01-4.08,3.7-12.67-2.76-1.87-7.06,10.39-5.52-3.75,17.84-26.27Zm2.63,8l-5.01,7.37,2.43,1.65c2.16,1.47,4.1.94,5.81-1.59.59-.87.92-1.7.98-2.47.06-.78-.05-1.41-.34-1.89-.29-.49-.84-1.01-1.66-1.57l-2.21-1.5Z"/><path class="cls-3" d="m439.13,70.77l5.43,4.7c2.36,2.04,3.98,4.02,4.89,5.96.9,1.94,1.02,4.18.37,6.73-.66,2.55-2.3,5.34-4.92,8.38-1.87,2.16-3.79,3.84-5.77,5.05-1.98,1.21-3.83,1.91-5.54,2.12-1.71.21-3.25,0-4.63-.62-1.38-.62-2.9-1.65-4.55-3.07l-6.04-5.22,20.77-24.03Zm1.49,8.48l-13.65,15.79.86.74c1.17,1.01,2.28,1.56,3.33,1.64,1.05.08,2.27-.29,3.66-1.13,1.39-.84,3.04-2.36,4.95-4.57,1.77-2.04,2.92-3.8,3.45-5.27.53-1.47.65-2.68.36-3.62-.3-.94-1-1.89-2.1-2.84l-.86-.74Z"/></svg>