<svg viewBox="0 0 552.72 552.72" xmlns="http://www.w3.org/2000/svg"><path d="m276.45 0c153.33 0 276.32 123.42 276.27 277.23 0 152.89-123.87 275.59-278 275.49-152.26-.1-274.84-124.24-274.72-278.18.12-151.45 124.07-274.54 276.45-274.54zm.14 542.63c146.68-.16 266.22-120 266-266.66-.15-146.37-119.74-265.81-266.15-265.88-146.61-.09-266.44 119.73-266.35 266.34s119.91 266.36 266.5 266.2z" fill="#28221f"/><g fill="#fae500"><path d="m110.57 221.14-32.57 30.2-3.53 2.9-1.6 2c-.48.13-1.08.15-.81.93.71.28 1-.09 1-.72a2.18 2.18 0 0 0 2.47-1.26 6.67 6.67 0 0 0 3.69-2.64l42.36-29c13.15-10 26.77-19.34 40.52-28.49 4.4-3.17 8.71-6.47 13.22-9.49a88.23 88.23 0 0 0 20.77-18.77c15.42-19.53 31.4-38.62 47.14-57.91 5.56-6.81 11.07-13.68 17.32-21.41-3.51.14-4.54 1.89-5.81 3-15.51 14-30.93 28.19-46.45 42.23q-31.65 28.61-63.38 57.12c-11.01 10.91-22.56 21.23-34.34 31.31zm252.13-16.25-33.08-30.78a.2.2 0 0 1 0-.05 11.73 11.73 0 0 0 -.44 1.62c-2.82 14.31-4.95 28.76-8.75 42.87.41 3.6-1.22 6.76-2.24 9.87 2.45 6.41 4.86 12.68 7.26 18.95 7.13-3.74 10.24-11.67 16.6-16.28 16.63 12.63 33.08 25.12 49.52 37.62l3.13-18.71c.79-2.68 1.57-5.36 2.38-8.13l-6.72-8a385.63 385.63 0 0 1 -27.66-28.98zm44-13.82c-2.24-1.86-4.56-3.63-6.71-5.58q-51.78-47.06-103.59-94.1c-1.54-1.4-2.62-4.23-6.29-3.32 11 13.53 21.64 26.68 32.38 39.7 20.66 25 38.81 52.55 68.14 69 12.93 8.54 25.73 17.29 38 26.73l42.37 29c1.73 1.79 3.51 3.53 6.15 3.91.09.62.33 1 1.05.69.26-.76-.33-.79-.81-.91a11.49 11.49 0 0 0 -5.13-4.91l-32.59-30.19c-11.35-9.61-22.44-19.53-33.01-30.02zm-175.19 27.59a6.31 6.31 0 0 0 -.76-.1 8 8 0 0 0 -1 0l-9.33-44-33.06 30.44a372.44 372.44 0 0 1 -27.51 28.82c-2.21 2.63-4.42 5.27-6.71 8 .8 2.76 1.59 5.44 2.37 8.11q1.45 10 2.9 20c2.34 0 3.62-1.9 5.23-3.12 15.72-11.89 31.36-23.81 47.27-35.91 4.77 5.18 9.25 10.05 13.74 14.91 2.48-5.55 5-11.1 7.45-16.7-.78-3.54-2.83-6.8-2.33-10.58a8 8 0 0 1 1 0zm10.65 2.45c-2.33 12-5 24-6.88 36.09-1.28 8.33 1.64 16.49 2.77 24.7 2.85 20.8 6.12 41.53 9.23 62.29l19.56 128 .74-.06v-7.52q0-181.4 0-362.79c0-2.09-.13-4.18-.2-6.27v-2.64h-.85v2.67zm300.47 54.89c.19 146.68-119.35 266.5-266 266.66s-266.47-119.56-266.53-266.22 119.73-266.44 266.34-266.34c146.42.06 266 119.51 266.19 265.9zm-167.86 88.64c2-5.42 3.78-10.77 3.47-16.78-3.24.76-6.23 1.27-9.09 3.18zm-60-99.29c1.51-9.81-2.75-18.78-3.65-28.24-.31-3.28-1.22-6.5-1.85-9.75q-12.79-65.88-25.57-131.78v-2.67h-.85v2.67c-.07 1.47-.2 2.93-.2 4.39q0 183 0 365.93v6.19h.77l19.53-127.9c3.92-26.28 7.79-52.57 11.83-78.84zm-139.43 99.5 6.11-15-10.29-3.25 3 18.26z"/><path d="m477.37 256.24c.48.12 1.07.15.81.91-.72.31-1-.07-1.05-.69-2.64-.38-4.42-2.12-6.15-3.91l-42.37-29c-12.3-9.44-25.1-18.19-38-26.73-29.33-16.47-47.48-44-68.14-69-10.74-13-21.35-26.17-32.38-39.7 3.67-.91 4.75 1.92 6.29 3.32q51.87 47 103.59 94.1c2.15 1.95 4.47 3.72 6.71 5.58 10.57 10.49 21.66 20.41 33 30.07l32.59 30.19a11.49 11.49 0 0 1 5.1 4.86z"/><path d="m397.08 241.86c-.81 2.77-1.59 5.45-2.38 8.13l-3.12 18.72c-16.44-12.5-32.89-25-49.52-37.62-6.36 4.61-9.47 12.54-16.6 16.28-2.4-6.27-4.81-12.54-7.26-18.95 1-3.11 2.65-6.27 2.24-9.87 3.8-14.11 5.93-28.56 8.75-42.87a11.73 11.73 0 0 1  .44-1.62.2.2 0 0 0 0 .05l33.08 30.78a385.63 385.63 0 0 0 27.66 28.94z"/><path d="m378.24 347.86c.31 6-1.51 11.36-3.47 16.78l-5.62-13.64c2.85-1.87 5.85-2.38 9.09-3.14z"/><path d="m311.13 237.11c.9 9.46 5.16 18.43 3.65 28.24-4 26.27-7.91 52.56-11.84 78.84l-19.53 127.9h-.77v-6.19q0-183 0-365.93c0-1.46.13-2.92.2-4.39v-2.67h.85v2.67q12.8 65.89 25.58 131.78c.64 3.25 1.55 6.47 1.86 9.75z"/><path d="m267.58 464.64v7.52l-.74.06-19.56-128c-3.11-20.76-6.38-41.49-9.23-62.29-1.13-8.21-4-16.37-2.77-24.7 1.85-12.1 4.55-24.07 6.88-36.09l24.36-125.56v-2.67h.85v2.67c.07 2.09.2 4.18.2 6.27q.01 181.39.01 362.79z"/><path d="m254.76 90.49c1.27-1.15 2.3-2.9 5.81-3-6.25 7.73-11.76 14.6-17.32 21.41-15.74 19.29-31.72 38.38-47.14 57.91a88.23 88.23 0 0 1 -20.77 18.77c-4.51 3-8.82 6.32-13.22 9.49-13.75 9.15-27.37 18.48-40.52 28.49l-42.36 29a6.67 6.67 0 0 1 -3.69 2.64 2.18 2.18 0 0 1 -2.47 1.26c-.07.63-.33 1-1 .72-.27-.78.33-.8.81-.93l1.6-2 3.53-2.9 32.59-30.2c11.78-10.08 23.33-20.4 34.36-31.3q31.69-28.56 63.38-57.12c15.48-14.05 30.9-28.19 46.41-42.24z"/><path d="m231.51 218.66-.76-.1a6.31 6.31 0 0 1  .76.1z"/><path d="m230.75 218.56a8 8 0 0 0 -1 0c-.5 3.78 1.55 7 2.33 10.58-2.49 5.6-5 11.15-7.45 16.7-4.49-4.86-9-9.73-13.74-14.91-15.86 12.06-31.55 24-47.27 35.93-1.61 1.22-2.89 3.09-5.23 3.12q-1.46-10-2.9-20c-.78-2.67-1.57-5.35-2.37-8.11 2.29-2.75 4.5-5.39 6.71-8a372.44 372.44 0 0 0 27.53-28.87l33.08-30.47 9.33 44a8 8 0 0 1  .98.03z"/><path d="m181.46 349.89-6.11 15-1.15.05-3-18.26z"/></g><path d="m125.8 493.51.73-79.96 25.38-119.49-31.32-66.81-13.61-67.37-58.65 178.92z" fill="#28221f"/><path d="m248.33 293.34 28.03 15.31 28.03-15.31 25.64-46.28 94.62-67.54-69.31-163.26-27.02-11.36-33.32 10.96-18.64.1-18.64-.1-33.32-10.96-27.02 11.36-69.31 163.26 94.62 67.54z" fill="#28221f"/><path d="m426.19 413.55.73 79.96 77.47-154.71-58.65-178.92-13.61 67.37-31.32 66.81z" fill="#28221f"/><path d="m276.36 343.89-54.07-3.34-78.88 75.13 6.31 87.58 58.53 36.22 68.11 8.35 68.12-8.35 58.52-36.22 6.31-87.58-78.88-75.13z" fill="#28221f"/><path d="m496.7 357.95a7.5 7.5 0 0 1 4.15-3 2.47 2.47 0 0 1 2.78-1.42c.08-.71.37-1.12 1.17-.81.3.88-.37.91-.91 1l-1.8 2.26-4 3.26-36.67 34q28.09 27.76 56.11 55.56-27.93-27.87-56.09-55.52c-13.25 11.34-26.26 23-38.66 35.22q-35.66 32.13-71.31 64.27c-17.46 15.79-34.82 31.7-52.27 47.51-1.43 1.3-2.59 3.27-6.54 3.43 7-8.71 13.23-16.43 19.49-24.1 17.71-21.7 35.69-43.17 53-65.16a99.61 99.61 0 0 1 23.37-21.12c5.07-3.39 9.92-7.11 14.87-10.68 15.48-10.29 30.8-20.79 45.59-32.06z" fill="#fae500"/><path d="m284.79 110.85.83-.07 22 144.06c3.49 23.35 7.18 46.68 10.38 70.08 1.27 9.24 4.55 18.43 3.12 27.79-2.09 13.61-5.12 27.08-7.74 40.61a10.87 10.87 0 0 1 3.59.23 27.69 27.69 0 0 1 3.42 1 19.49 19.49 0 0 0 6.93 1.63c.57-4.26-1.74-7.92-2.62-11.91l8.39-18.79 15.46 16.78c17.84-13.57 35.49-27 53.18-40.43 1.82-1.38 3.25-3.47 5.88-3.51a11.65 11.65 0 0 1 2.08-2.8 11.65 11.65 0 0 0 -2.08 2.8l3.26 22.48 2.67 9.13-7.54 9.07c10.51 3.83 21.45 6.08 32.27 8.74-10.83-2.66-21.76-4.9-32.27-8.74a420.54 420.54 0 0 0 -31 32.42l-37.22 34.29-10.5-49.48a19.51 19.51 0 0 1 -6.93-1.63 27.69 27.69 0 0 0 -3.42-1 10.87 10.87 0 0 0 -3.59-.23l-27.34 141.18v3h-1v-3c-.08-2.35-.22-4.7-.22-7q0-204.1 0-408.2z" fill="#fae500"/><path d="m267 110.93h.86v7q0 205.86 0 411.73c0 1.64-.15 3.29-.22 4.93v3h-1v-3l-28.77-148.31c-.71-3.66-1.74-7.28-2.08-11-1-10.64-5.81-20.73-4.11-31.77 4.55-29.55 8.9-59.13 13.32-88.7z" fill="#fae500"/><path d="m47.83 352.76c.81-.34 1.08.09 1.18.79 3 .43 5 2.38 6.93 4.4l47.66 32.65q5.3-1.75 10.65-3.32-5.35 1.57-10.65 3.32c13.84 10.63 28.24 20.47 42.8 30.08 10.78-1.91 20.92-6 31.36-9.11a432 432 0 0 0 -31.12-32.57l-7.57-9 2.67-9.15 3.52-21.05 55.74 42.29c7.15-5.19 10.65-14.11 18.68-18.32a43.42 43.42 0 0 0 3.32-11.28 43.43 43.43 0 0 1 -3.32 11.29l8.17 21.32c-1.16 3.5-3 7-2.53 11.11-4.27 15.88-6.67 32.13-9.84 48.24a7.87 7.87 0 0 1 -.49 1.76l-37.22-34.62c-10.45 3.07-20.58 7.2-31.36 9.11 33 18.54 53.42 49.49 76.66 77.66 12.09 14.65 24 29.44 36.43 44.67-4.13 1-5.34-2.17-7.08-3.73q-58.36-52.88-116.56-105.9c-2.42-2.2-5-4.19-7.55-6.28l-52.58 17.23 52.57-17.24c-11.9-11.8-24.38-23-37.13-33.83l-36.67-34a12.82 12.82 0 0 1 -5.77-5.52c-.53-.11-1.19-.14-.9-1z" fill="#fae500"/></svg>