<svg viewBox="0 0 566.93 566.93" xmlns="http://www.w3.org/2000/svg"><path d="m283.46 562.84a279.38 279.38 0 0 1 -197.55-476.93 279.38 279.38 0 1 1 395.09 395.09 277.52 277.52 0 0 1 -197.54 81.84zm0-552.75c-150.74 0-273.37 122.63-273.37 273.37s122.63 273.38 273.37 273.38 273.38-122.63 273.38-273.38-122.63-273.37-273.38-273.37z" fill="#063"/><ellipse cx="283.46" cy="283.46" fill="#fff" rx="266.46" ry="262.2"/><path d="m283.46 15.38c-148.06 0-268.09 120-268.09 268.08s120 268.09 268.09 268.09 268.09-120 268.09-268.09-120.02-268.08-268.09-268.08zm0 463.61c-109.73.01-198.69-87.54-198.69-195.53s89-195.52 198.69-195.52 198.7 87.54 198.7 195.52-88.96 195.54-198.7 195.54z" fill="#fff"/><path d="m247.81 142.87s-82.81 10.95-108.09 108.78c0 .69-122.46 34.9-122.46 34.9l127.25 43.78s13.68 64.31 97.15 94.41c1.36 1.37 44.47 127.94 44.47 127.94l-5.48-538.43z" fill="#063"/><path d="m426.52 248.72c-27.3-97.29-110.29-106.55-110.29-106.55l-35.46-127.92 5.52 538.42s40.51-127.42 41.85-128.81c82.84-31.8 95.2-96.38 95.2-96.38l126.33-46.37s-123.13-31.7-123.15-32.39z" fill="#063"/><ellipse cx="283.46" cy="283.46" fill="#fff" rx="131.29" ry="129.19"/><path d="m338.91 316c19.55-41.89 0-70.75 0-70.75l134.09-154.5s-155.5 131.25-155.5 130.33c-37.24-22.34-74.47 0-74.47 0l-151.75-126.61 384.49 380.77z" fill="#063"/><path d="m219.31 245s-22 37.45.7 74.48c.94 0-128.85 156.7-128.85 156.7l153.26-135.52s29.05 19.27 70.75-.68l160.49 135.34-384.4-380.85z" fill="#063"/><path d="m326.38 331.68h-87.83v-20.68l47.94-56.25h-45.79v-23.5h84.69v20.3l-48 56.16h49z" fill="#fff"/><path d="m283.46 552.43a269 269 0 0 1 -190.18-459.15 269 269 0 1 1 380.37 380.37 267.2 267.2 0 0 1 -190.19 78.78zm0-494.93c-124.59 0-226 101.37-226 226s101.37 226 226 226 226-101.37 226-226-101.4-226-226-226z" fill="#063"/><g fill="#fff"><path d="m141.18 494.23a9.57 9.57 0 0 1 -3.34 2.85 8.88 8.88 0 0 1 -3.84.92 11.53 11.53 0 0 1 -4.48-.82 21.36 21.36 0 0 1 -4.83-2.93l-10.42-8 19.92-26 9.19 7a39.55 39.55 0 0 1 4.17 3.54 10.53 10.53 0 0 1 2.07 3 6.33 6.33 0 0 1 .55 3.61 7.42 7.42 0 0 1 -1.53 3.43 7.81 7.81 0 0 1 -3.55 2.67 7.08 7.08 0 0 1 -4.3.17l-.11.14a9 9 0 0 1 2.28 5 7.53 7.53 0 0 1 -1.78 5.42zm-6.63-5.23a4 4 0 0 0 .95-2.26 3.7 3.7 0 0 0 -.68-2.15 6.46 6.46 0 0 0 -1.43-1.51c-.69-.54-1.61-1.26-2.77-2.15l-1.21-.93-5 6.53.35.26c1.71 1.3 2.89 2.19 3.56 2.67a7.11 7.11 0 0 0 2.35 1.05 3.32 3.32 0 0 0 2.17-.13 4.37 4.37 0 0 0 1.71-1.38zm6.45-11.87a3.72 3.72 0 0 0 .66-1.54 2.42 2.42 0 0 0 -.26-1.73 5.19 5.19 0 0 0 -1.3-1.48q-.85-.7-2.61-2l-.49-.38-4.21 5.5.82.63c1.11.86 1.91 1.45 2.37 1.76a4.68 4.68 0 0 0 1.67.7 2.63 2.63 0 0 0 1.86-.19 4.51 4.51 0 0 0 1.49-1.27z"/><path d="m152.23 513.42q-5.7-3.31-7.18-7.86t1.62-9.85l10.5-18.12 7.12 4.13-10.29 17.69a8.33 8.33 0 0 0 -1.44 5 5 5 0 0 0 2.79 3.55 5.11 5.11 0 0 0 4.41.7c1.31-.48 2.55-1.75 3.74-3.79l10.26-17.7 7.12 4.13-10.5 18.1q-3 5.24-7.66 6.3t-10.49-2.28z"/><path d="m200.49 535.25-9.26-3.84-3.83-14.6-2.72-1.13-4.61 11.11-7.55-3.14 12.56-30.28 12.16 5.05a28.09 28.09 0 0 1 4.26 2.13 10.15 10.15 0 0 1 2.91 2.74 8.66 8.66 0 0 1 1.49 3.71 8.49 8.49 0 0 1 -.73 4.45 10.19 10.19 0 0 1 -3.9 5 12 12 0 0 1 -5.62 1.71zm-3.49-26.08a4.45 4.45 0 0 0 .38-2.14 3.08 3.08 0 0 0 -.92-1.87 5.82 5.82 0 0 0 -1.43-1.05c-.56-.29-1.27-.62-2.14-1l-2.54-1.05-3.38 8.15 2.17.9a17.36 17.36 0 0 0 2.78.93 4.37 4.37 0 0 0 2.22 0 3.93 3.93 0 0 0 1.65-.91 5.53 5.53 0 0 0 1.21-1.96z"/><path d="m205.2 536.44 8.8-31.58 21.33 5.94-1.68 6-13.45-3.75-1.54 5.53 12.39 3.46-1.68 6-12.37-3.4-2.22 8 13.45 3.75-1.68 6z"/><path d="m230.79 543.54 16-30.7 8.87 1.38 5.9 34.09-8.37-1.3-1-6.93-10.19-1.58-3.05 6.3zm20.5-9.61-1.64-11.2-5 10.17z"/><path d="m280.56 549.7q-6.6-.16-10.07-3.45t-3.31-9.42l.53-20.93 8.22.21-.51 20.44a8.27 8.27 0 0 0 1.15 5.12 5 5 0 0 0 4.15 1.78 5.11 5.11 0 0 0 4.21-1.5q1.36-1.58 1.46-5.12l.51-20.45 8.22.21-.52 20.91q-.15 6.06-3.7 9.21t-10.34 2.99z"/><path d="m313.92 548.24 5.78-34.11 8.86-1.41 16.07 30.64-8.36 1.33-3.07-6.29-10.2 1.6-1 6.93zm16.57-15.43-5-10.15-1.61 11.2z"/><path d="m350.08 541.85-9-31.53 21.3-6.06 1.71 6-13.43 3.82 1.57 5.53 12.37-3.52 1.72 6-12.32 3.54 2.27 8 13.43-3.82 1.71 6z"/><path d="m403.49 520.72a41.55 41.55 0 0 1 -4.49 3.78 28.34 28.34 0 0 1 -5.92 3.43q-7.1 3-13.06.74t-9.19-9.84q-3-7.08-.63-13.16t9.71-9.2a23.54 23.54 0 0 1 6.46-1.9 35.78 35.78 0 0 1 5.73-.14l3 7.07-.68.29-2.09-.54a20.42 20.42 0 0 0 -2.55-.47 14.57 14.57 0 0 0 -3.1 0 11.64 11.64 0 0 0 -3.34.88 10.61 10.61 0 0 0 -3.28 2.12 8.83 8.83 0 0 0 -2.06 3.08 9.51 9.51 0 0 0 -.58 3.89 13.39 13.39 0 0 0 1.16 4.63q2.25 5.28 6 6.66a11 11 0 0 0 8.31-.58l.94-.43c.36-.17.67-.32.93-.46l-2.53-5.92-5.84 2.5-2.39-5.65 13.17-5.62z"/><path d="m425.83 510.24-15.32 8.76-2.84-5 4.09-2.34-10.58-18.52-4.09 2.33-2.84-5 15.32-8.75 2.84 5-4.09 2.34 10.58 18.54 4.09-2.33z"/><path d="m440.81 500.81a27 27 0 0 1 -5.79 3.27 33.51 33.51 0 0 1 -5.35 1.63l-4.55-6.33.6-.43a18.43 18.43 0 0 0 6.29-.57 16.24 16.24 0 0 0 5.33-2.46 12.88 12.88 0 0 0 1.42-1.21 6.35 6.35 0 0 0 1.23-1.48 4.17 4.17 0 0 0 .56-1.69 2.58 2.58 0 0 0 -.55-1.79 2.43 2.43 0 0 0 -2-1.06 6.24 6.24 0 0 0 -2.53.44q-1.61.62-3.39 1.41a27.2 27.2 0 0 1 -3.45 1.29 11 11 0 0 1 -6.53.26 9.41 9.41 0 0 1 -4.66-3.65 8.84 8.84 0 0 1 -1.2-8.32 16 16 0 0 1 6.23-8 28 28 0 0 1 5.06-2.92 25.58 25.58 0 0 1 5.15-1.73l4.37 6.08-.59.42a16.49 16.49 0 0 0 -5.16.46 14.1 14.1 0 0 0 -5 2.28 10.78 10.78 0 0 0 -1.48 1.26 7.45 7.45 0 0 0 -1.11 1.53 3.63 3.63 0 0 0 -.47 1.63 2.36 2.36 0 0 0 .45 1.59 2.44 2.44 0 0 0 1.89 1.09 8.73 8.73 0 0 0 3.57-.93l3-1.26a30.75 30.75 0 0 1 3.22-1.13 11.13 11.13 0 0 1 6.05-.27 8.49 8.49 0 0 1 4.55 3.49 9.43 9.43 0 0 1 1.48 8.62q-1.33 4.67-6.64 8.48z"/><path d="m54.14 265.73-.48 25.34-6-.11-19.61-15.07-.26 13.92-6.1-.11.45-23.7 6.1.11 19.5 15 .26-15.49z"/><path d="m54.52 262.4-31.71-4.14 2.8-21.43 6.05.79-1.77 13.51 5.56.73 1.63-12.45 6.05.79-1.63 12.45 8 1 1.77-13.52 6 .8z"/><path d="m59.71 230.51-25.14-6.19-2.26 9.17-5.92-1.49 6.43-26.13 5.92 1.46-2.25 9.17 25.14 6.19z"/><path d="m64.52 183.88a9.27 9.27 0 0 1 3.6 2.32 8.6 8.6 0 0 1 1.95 3.32 11.29 11.29 0 0 1 .49 4.42 20.69 20.69 0 0 1 -1.36 5.34l-4.5 12-29.95-11.28 4-10.57a39.43 39.43 0 0 1 2.12-4.89 10.38 10.38 0 0 1 2.26-2.79 6.11 6.11 0 0 1 3.21-1.53 7.3 7.3 0 0 1 3.64.46 7.58 7.58 0 0 1 3.49 2.56 6.9 6.9 0 0 1 1.37 4l.16.06a8.74 8.74 0 0 1 4-3.57 7.35 7.35 0 0 1 5.52.15zm-15.92 5a3.76 3.76 0 0 0 -1.63-.19 2.44 2.44 0 0 0 -1.54.74 5.09 5.09 0 0 0 -1 1.63c-.28.67-.67 1.67-1.17 3l-.2.52 6.33 2.42.35-.94c.49-1.29.81-2.19 1-2.72a4.92 4.92 0 0 0 .18-1.75 2.64 2.64 0 0 0 -.7-1.69 4.54 4.54 0 0 0 -1.62-1.02zm12.87 2.69a3.89 3.89 0 0 0 -2.38-.26 3.66 3.66 0 0 0 -1.82 1.24 6.13 6.13 0 0 0 -1 1.77c-.32.79-.73 1.86-1.23 3.19l-.53 1.39 7.49 2.82.15-.4c.73-2 1.23-3.31 1.48-4.07a6.77 6.77 0 0 0 .32-2.5 3.21 3.21 0 0 0 -.73-2 4.22 4.22 0 0 0 -1.75-1.18z"/><path d="m74.87 150.83q6.82 3.67 8.8 9.42t-1.45 12.11q-3.42 6.36-9.33 7.87c-4 1-8.16.3-12.66-2.11s-7.46-5.56-8.79-9.39-.87-7.87 1.41-12.12 5.37-6.87 9.3-7.9 8.16-.32 12.72 2.12zm-3.94 7.29a17.51 17.51 0 0 0 -4.56-1.78 10.26 10.26 0 0 0 -3.65-.17 6.08 6.08 0 0 0 -2.72 1.17 6.52 6.52 0 0 0 -1.78 2.1 6.73 6.73 0 0 0 -.8 2.61 6.52 6.52 0 0 0 .56 2.94 9.76 9.76 0 0 0 2.16 3 17.41 17.41 0 0 0 4.05 2.86 17.19 17.19 0 0 0 4.58 1.8 10 10 0 0 0 3.62.14 5.94 5.94 0 0 0 2.78-1.16 6.7 6.7 0 0 0 1.78-2.12 6.57 6.57 0 0 0 .76-2.71 6 6 0 0 0 -.59-2.92 10.94 10.94 0 0 0 -2.12-2.97 17.63 17.63 0 0 0 -4.07-2.79z"/><path d="m94.81 150.31-21.09-15-5.48 7.69-5-3.54 15.6-21.93 5 3.54-5.47 7.69 21.1 15z"/><path d="m112.26 127.22-14.85-30.33 6.22-6.16 30.19 15.13-5.82 5.81-6-3.23-7.13 7.07 3.18 6zm4.34-21.66-9.74-5.2 5.1 9.79z"/><path d="m157.39 88-6.16 4.66-23.23-10.38 13.44 17.79-5.86 4.43-19.32-25.5 7.86-6 19.18 8.48-11.05-14.59 5.86-4.42z"/><path d="m174.4 78.88q-6.26 3.53-12.08 1.81t-9.69-8.58q-3.74-6.63-2.26-12.65t7.73-9.55a27 27 0 0 1 3.1-1.5 25.2 25.2 0 0 1 2.8-.91 21.7 21.7 0 0 1 2.51-.4c.93-.1 1.69-.16 2.29-.18l3.74 6.65-.71.4c-.51-.11-1.13-.23-1.88-.36a17.64 17.64 0 0 0 -2.43-.25 13.3 13.3 0 0 0 -2.71.19 8 8 0 0 0 -2.68 1 9 9 0 0 0 -2.51 2 7.71 7.71 0 0 0 -1.47 3 9.42 9.42 0 0 0 -.09 3.85 14.59 14.59 0 0 0 1.76 4.66 14 14 0 0 0 3.18 3.94 9.1 9.1 0 0 0 3.42 1.83 7.62 7.62 0 0 0 3.28.15 9.19 9.19 0 0 0 2.93-1 9 9 0 0 0 2.37-1.93 12.3 12.3 0 0 0 1.53-2.21 15.6 15.6 0 0 0 1-2.11c.25-.67.46-1.25.64-1.76l.63-.36 3.69 6.55c-.37.53-.81 1.13-1.31 1.82a18.9 18.9 0 0 1 -1.64 1.94 28.73 28.73 0 0 1 -2.11 2 21 21 0 0 1 -3.03 1.96z"/><path d="m201.81 65.29-15.81 6.79-2.2-5.14 4.2-1.81-8.2-19.13-4.22 1.81-2.2-5.13 15.82-6.79 2.2 5.11-4.22 1.81 8.21 19.19 4.22-1.81z"/><path d="m226.45 57.24-20.35 6.42-9.62-30.51 7.65-2.41 7.79 24.69 12.69-4z"/><path d="m250.32 52.45-20.92 4.19-6.28-31.37 7.88-1.57 5.08 25.38 13.05-2.61z"/><path d="m249.81 52.34 8.19-32.75 8.73-.7 13.32 31-8.23.66-2.52-6.35-10 .8-1.46 6.68zm17.28-13.76-4.09-10.25-2.41 10.77z"/><path d="m311.81 51.54-9.81-.54-8.3-12.17-2.87-.14-.59 11.71-8-.4 1.62-31.95 12.84.65a28 28 0 0 1 4.61.57 9.84 9.84 0 0 1 3.58 1.57 8.45 8.45 0 0 1 2.58 2.91 8.27 8.27 0 0 1 .79 4.33 10.07 10.07 0 0 1 -1.9 5.92 11.74 11.74 0 0 1 -4.6 3.41zm-11.81-22.82a4.39 4.39 0 0 0 -.36-2.1 3.05 3.05 0 0 0 -1.46-1.42 5.55 5.55 0 0 0 -1.66-.49 22.5 22.5 0 0 0 -2.28-.2l-2.68-.14-.41 8.63 2.3.11a16 16 0 0 0 2.84-.06 4.1 4.1 0 0 0 2-.77 3.71 3.71 0 0 0 1.22-1.37 5.48 5.48 0 0 0 .49-2.19z"/><path d="m345.08 25.4-14.22 16.32-2.42 13.14-7.89-1.45 2.34-12.74-7.59-20.75 9 1.65 4.08 12.43 8-10.15z"/><path d="m380.65 71.66-9.12-3.53-4.08-14.13-2.69-1-4.22 10.94-7.45-2.94 11.53-29.84 12 4.64a28.39 28.39 0 0 1 4.21 2 9.92 9.92 0 0 1 2.9 2.61 8.34 8.34 0 0 1 1.53 3.59 8.22 8.22 0 0 1 -.61 4.36 9.9 9.9 0 0 1 -3.69 5 11.61 11.61 0 0 1 -5.43 1.81zm-4-25.36a4.34 4.34 0 0 0 .32-2.1 3 3 0 0 0 -.95-1.81 5.44 5.44 0 0 0 -1.41-1c-.55-.28-1.26-.58-2.11-.91l-2.5-1-3.11 8 2.14.83a16.51 16.51 0 0 0 2.73.83 4.23 4.23 0 0 0 2.16-.09 3.73 3.73 0 0 0 1.59-.93 5.28 5.28 0 0 0 1.09-1.82z"/><path d="m381.79 72.65 15.21-28.17 19 10.26-2.89 5.37-12-6.47-2.66 4.94 11.05 6-2.89 5.37-11.05-6-3.84 7.11 12 6.47-2.89 5.37z"/><path d="m431 104.3-6.43-4.73 12.55-17.09-12.79 7.58-4.41-3.24 3.42-14.47-12.54 17.09-6.08-4.44 18.94-25.77 7.46 5.48-3.65 16.91 15-8.54 7.53 5.44z"/><path d="m466.93 117.35q-5.49 5.48-11.56 5.69t-11.17-4.89c-3.41-3.42-5-7.15-4.83-11.22s2.07-7.89 5.68-11.5 7.49-5.53 11.54-5.7 7.79 1.46 11.2 4.87 5 7.13 4.86 11.19-2.06 7.91-5.72 11.56zm-5.84-5.88a17.37 17.37 0 0 0 3-3.85 10 10 0 0 0 1.22-3.45 6.18 6.18 0 0 0 -.31-3 6.82 6.82 0 0 0 -3.77-3.83 6.33 6.33 0 0 0 -3-.31 9.78 9.78 0 0 0 -3.47 1.2 20.42 20.42 0 0 0 -7 6.91 10 10 0 0 0 -1.19 3.42 6 6 0 0 0 .31 3 6.59 6.59 0 0 0 3.88 3.83 6 6 0 0 0 3 .28 10.38 10.38 0 0 0 3.43-1.18 17 17 0 0 0 3.9-3.02z"/><path d="m461.63 136.57 20.48-15.84-5.78-7.47 4.82-3.74 16.48 21.29-4.83 3.73-5.8-7.47-20.47 15.85z"/><path d="m473.6 152.55 27.32-16.63 11.24 18.46-5.16 3.17-7.09-11.64-4.79 2.91 6.53 10.73-5.21 3.17-6.58-10.72-6.9 4.2 7.04 11.64-5.17 3.16z"/><path d="m496.53 198.48q-2.34-6-.68-10.36t7.24-6.53l19.05-7.38 2.9 7.48-18.61 7.22a8.08 8.08 0 0 0 -4.17 3 4.85 4.85 0 0 0 -.05 4.4 5 5 0 0 0 2.94 3.23c1.29.43 3 .22 5.15-.61l18.61-7.22 2.9 7.49-19 7.38q-5.5 2.13-9.69.13t-6.59-8.23z"/><path d="m509.86 242.31-1.78-7.52 18.85-17.13-21.7 5.14-1.69-7.14 31.13-7.38 2.27 9.59-15.48 14.13 17.83-4.22 1.69 7.14z"/><path d="m512.39 263.72-2.06-17.09 5.55-.67.54 4.56 20.67-2.52-.55-4.56 5.55-.66 2.06 17.09-5.55.66-.55-4.56-20.67 2.49.55 4.56z"/><path d="m512.93 274.4 25.88-.53-.19-9.44 6.1-.12.55 26.9-6.1.13-.17-9.44-25.88.52z"/></g><text fill="#063" font-family="Tahoma-Bold, Tahoma" font-size="50.42" font-weight="700" transform="matrix(.89 -.46 .46 .89 -461 99.31)">Z</text><text fill="#063" font-family="Tahoma-Bold, Tahoma" font-size="50.42" font-weight="700" transform="matrix(.94 -.34 .35 .94 -434.16 85.29)">E</text><text fill="#063" font-family="Tahoma-Bold, Tahoma" font-size="50.42" font-weight="700" transform="matrix(.97480014 -.22307998 .22307998 .97480014 -406.09 74.9)">T</text><text fill="#063" font-family="Tahoma-Bold, Tahoma" font-size="50.42" font-weight="700" transform="matrix(.99 -.09 .09 1 -377.18 68.08)">B</text><text fill="#063" font-family="Tahoma-Bold, Tahoma" font-size="50.42" font-weight="700" transform="matrix(1 .06 -.06 1 -344.02 64.83)">O</text><text fill="#063" font-family="Tahoma-Bold, Tahoma" font-size="50.42" font-weight="700" transform="matrix(.97915196 .2031291 -.2031291 .97915196 -306.57 67.31)">T</text><text fill="#063" transform="matrix(.9555875 .29470752 -.29470752 .9555875 -277.24 73.75)"/><text fill="#063" font-family="Tahoma-Bold, Tahoma" font-size="50.42" font-weight="700" transform="matrix(.92043664 .39089178 -.39089178 .92043664 -263.79 77.32)">A</text><text fill="#063" font-family="Tahoma-Bold, Tahoma" font-size="50.42" font-weight="700" transform="matrix(.84943251 .52769727 -.52769727 .84943251 -233.11 90.06)">N</text><text fill="#063" font-family="Tahoma-Bold, Tahoma" font-size="50.42" font-weight="700" transform="matrix(.75847567 .65170136 -.65170136 .75847567 -201.3 109.93)">C</text><text fill="#063" font-family="Tahoma-Bold, Tahoma" font-size="50.42" font-weight="700" transform="matrix(.6722376 .74033547 -.74033547 .6722376 -176.77 131.3)">I</text><text fill="#063" font-family="Tahoma-Bold, Tahoma" font-size="50.42" font-weight="700" transform="matrix(.58 .81 -.81 .58 -160.9 148.5)">L</text><text fill="#063" font-family="Tahoma-Bold, Tahoma" font-size="50.42" font-weight="700" transform="matrix(.48221244 .87605431 -.87605431 .48221244 -144.62 171.02)">L</text><text fill="#063" font-family="Tahoma-Bold, Tahoma" font-size="50.42" font-weight="700" transform="matrix(.36 .93 -.93 .36 -131.03 195.14)">A</text><text fill="#063" font-family="Tahoma-Bold, Tahoma" font-size="50.42" font-weight="700" transform="matrix(.21558755 .97648451 -.97648451 .21558755 -118.87 226.08)">R</text><text fill="#063" font-family="Tahoma-Bold, Tahoma" font-size="50.42" font-weight="700" transform="matrix(.06784116 .99769613 -.99769613 .06784116 -111.27 260.55)">Y</text><text fill="#063" transform="matrix(-.03437621 .99940896 -.99940896 -.03437621 -109.48 293.36)"/><text fill="#063" font-family="Tahoma-Bold, Tahoma" font-size="50.42" font-weight="700" transform="matrix(-.14124681 .98997441 -.98997441 -.14124681 -109.33 307.25)">R</text><text fill="#063" font-family="Tahoma-Bold, Tahoma" font-size="50.42" font-weight="700" transform="matrix(-.28 .96 -.96 -.28 -114.44 342.27)">E</text><text fill="#063" font-family="Tahoma-Bold, Tahoma" font-size="50.42" font-weight="700" transform="matrix(-.4245155 .90542067 -.90542067 -.4245155 -122.09 371.01)">M</text><text fill="#063" font-family="Tahoma-Bold, Tahoma" font-size="50.42" font-weight="700" transform="matrix(-.57 .82 -.82 -.57 -140.71 410.38)">O</text><text fill="#063" font-family="Tahoma-Bold, Tahoma" font-size="50.42" font-weight="700" transform="matrix(-.68 .73 -.73 -.69 -162.42 441.02)">T</text><text fill="#063" font-family="Tahoma-Bold, Tahoma" font-size="50.42" font-weight="700" transform="matrix(-.77184657 .63580883 -.63580883 -.77184657 -182.78 462.76)">E</text><text fill="#063" transform="matrix(-.83 .56 -.56 -.83 -206.26 481.67)"/><text fill="#063" font-family="Tahoma-Bold, Tahoma" font-size="50.42" font-weight="700" transform="matrix(-.88138591 .47239694 -.47239694 -.88138591 -217.41 490)">U</text><text fill="#063" font-family="Tahoma-Bold, Tahoma" font-size="50.42" font-weight="700" transform="matrix(-.94368552 .33084382 -.33084382 -.94368552 -249 507.12)">N</text><text fill="#063" font-family="Tahoma-Bold, Tahoma" font-size="50.42" font-weight="700" transform="matrix(-.98 .21 -.21 -.98 -284.67 519.21)">I</text><text fill="#063" font-family="Tahoma-Bold, Tahoma" font-size="50.42" font-weight="700" transform="matrix(-.99 .09 -.09 -1 -307.52 524.26)">T</text></svg>