<svg enable-background="new 0 0 113.4 113.4" viewBox="0 0 113.4 113.4" xmlns="http://www.w3.org/2000/svg"><circle cx="56.7" cy="56.7" fill="#0a0a0a" r="56.7"/><circle cx="56.7" cy="56.7" fill="#fff" r="54.1"/><circle cx="56.7" cy="56.7" fill="#ef7e00" r="52.4"/><g fill="#fff"><circle cx="56.7" cy="56.7" r="38.7"/><path d="m9.9 40.4c.1-4 2-7.3 4.1-10.5.8-1.2 1.7-2.3 2.8-3.3 1.1-1.1 2.3-1.7 3.9-1.5 1 .7 2.3 1.1 3.1 2 1.3 1.4 1.3 2.9.2 4.4-2.4 3.2-4.5 6.5-5.9 10.3-.8 2.2-2.8 2.9-4.9 1.9-1.4-.8-2.9-1.5-3.3-3.3z"/><path d="m90.7 26.2h.1c3.5-1.7 4.2-1.5 6.8 1.4 2.7 3 4.6 6.4 5.7 10.2.3 1.1.3 2.2.1 3.3-.9 1.5-2.4 2.4-4.1 2.8-1.7.5-3.2-.4-3.8-2-1.3-3.6-3.1-6.9-5.6-9.8-1.8-2.2-1.5-4.1.8-5.9z"/><path d="m56.5 107.2c-2.1.1-4.3-.2-6.5-.9-1.5-.4-2.9-1.1-3.2-2.8-.2-1.8-.5-3.8 1.2-5.2.6-.6 1.3-.8 2.2-.7 4.2.6 8.4.7 12.6.1 2.1-.3 3.6 1.3 3.8 3.4.3 4-1.2 5.1-5.3 5.8-1.6.2-3.1.3-4.8.3z"/></g><ellipse cx="56.7" cy="56.7" fill="none" rx="42.2" ry="42.2" transform="matrix(.8287 -.5597 .5597 .8287 -22.0186 41.4477)"/><path d="m44.1 16c0 .2-.2.4-.5.5-.2 0-.3 0-.4 0s-.2-.1-.3-.2l-3.4-4.2c0-.1-.1-.1-.1-.2s0-.2.1-.3.2-.2.4-.2h.3s.1.1.2.1l2.9 3.8.8-4.6c0-.2.1-.3.2-.4s.2-.1.3-.2h.4c.1 0 .2.1.3.3l2.9 3.6.8-4.7c0-.2.2-.3.4-.3s.3 0 .4 0 .2.1.2.2 0 .1 0 .2l-1 5.4c0 .3-.2.4-.5.5-.1 0-.3 0-.4 0s-.2-.1-.3-.2l-2.9-3.5z" fill="#fff"/><path d="m52.3 12.2v.9c0 .2.1.3.3.4s.6.2 1 .1l3.8-.2c.1 0 .2 0 .3.1 0 .1.1.2.1.3v.3c0 .1-.1.1-.2.1l-3.9.2c-1.6.1-2.4-.4-2.4-1.4l-.1-2.8c0-1 .7-1.5 2.3-1.6l1.2-.1c.1 0 .2 0 .3.1 0 .1.1.2.1.3v.3c0 .1-.1.1-.2.1l-1.2.1c-.5 0-.8.1-1 .2s-.3.3-.3.5l.1 1 5.2-.3c.1 0 .2 0 .3.1 0 .1.1.2.1.3v.3c0 .1-.1.1-.2.1z" fill="#fff"/><path d="m60.7 14.6c-1.6-.2-2.3-.8-2.2-1.8l.5-4c0-.2.1-.3.2-.3s.2 0 .4 0 .3.1.4.1c.1.1.1.2.1.3l-.5 4c0 .2.1.3.3.5.2.1.5.2 1 .3l3.9.4c.1 0 .2.1.2.1v.3c0 .1 0 .3-.1.3 0 .1-.1.1-.3.1z" fill="#fff"/><path d="m67.3 15.8c-1.5-.4-2.2-1.1-1.9-2.1l1.1-3.8c0-.1.1-.2.2-.3h.4s.3.1.4.2.1.2 0 .3l-1.1 3.8c0 .2 0 .3.2.5s.5.3.9.5l3.8 1.1c.1 0 .2.1.2.2s0 .2 0 .3-.1.2-.1.3c-.1.1-.1.1-.3 0z" fill="#fff"/><ellipse cx="56.7" cy="56.7" fill="none" rx="42.2" ry="42.2" transform="matrix(.9966 -.0819642 .0819642 .9966 -4.4564 4.8379)"/><path d="m98.5 63.1c.1-.3.1-.5.2-.6s.3-.2.5-.1c.1 0 .2 0 .2.1s.1.1.1.2l3.5 6.3c0 .1.1.2.1.3v.3.2c0 .1 0 .1-.1.1l-.1.1s-.1 0-.2 0-.1 0-.2-.1c0 0-.1-.1-.2-.2l-3.1-5.7-1 4.7c0 .1-.1.2-.2.2s-.2 0-.3 0-.2-.1-.3-.1c-.1-.1-.1-.1-.1-.3z" fill="#fff"/><path d="m96.4 71.2c.6-1.5 1.3-2 2.3-1.7l2.6 1c .9.4 1.1 1.3.5 2.8l-.9 2.2c-.6 1.5-1.3 2-2.3 1.7l-2.6-1c-.9-.4-1.1-1.3-.5-2.8zm-.1 2.4c-.2.4-.2.8-.2 1s .1.4.3.5l2.6 1c .2.1.3 0 .5-.1.2-.2.4-.5.5-.9l.8-2.1c.2-.4.2-.8.2-1s-.1-.4-.3-.5l-2.6-1c-.2-.1-.3 0-.5.1-.2.2-.4.4-.6.9z" fill="#fff"/><path d="m90.8 81.6c0-.1.1-.1.1-.2l.1-.1s.1 0 .1-.1c.1 0 .1 0 .2-.1l6.2-2-3.5-2.2c-.1-.1-.2-.2-.2-.3s.1-.2.2-.4c.1-.1.2-.2.3-.3s.2 0 .3 0l4.3 2.7c.1.1.2.2.2.3s0 .2-.1.4-.2.3-.3.3c-.1.1-.2.1-.4.2l-6.2 2 3.5 2.2c.1.1.2.2.2.3s-.1.2-.1.4c-.1.2-.2.3-.3.3-.1.1-.2 0-.3 0l-4.3-2.7c-.1-.1-.2-.2-.2-.3.1-.1.1-.2.2-.4z" fill="#fff"/><path d="m86.4 88.9c-.7-.7-.6-1.6.5-2.8l3.1-3.4c.2-.2.3-.2.5 0l3.7 3.4c.2.2.2.3 0 .5l-3.1 3.4c-1.1 1.2-2 1.4-2.7.7zm3.8-5-2.6 2.8c-.3.3-.5.6-.6.9-.1.2 0 .4.1.5l2.1 1.9c.1.1.3.1.5.1.2-.1.5-.3.8-.6l2.6-2.8z" fill="#fff"/><ellipse cx="56.7" cy="56.7" fill="none" rx="42.2" ry="42.2" transform="matrix(.4254 -.905 .905 .4254 -18.7313 83.8891)"/><path d="m30.3 89.8c.2.2.4.4.4.5.1.2 0 .3-.1.5-.1.1-.1.1-.2.1s-.1 0-.2 0l-7.2-.1c-.1 0-.2 0-.3-.1-.1 0-.2-.1-.3-.2l-.1-.1-.1-.1s0-.1 0-.2 0-.1.1-.2.1-.1.2-.1h.3l6.5.1-3.6-3.2c-.1-.1-.1-.2-.1-.3s.1-.2.2-.3.2-.2.3-.2.2 0 .3.1z" fill="#fff"/><path d="m24.4 84c1 1.2 1.1 2.2.3 2.8l-2.2 1.8c-.8.6-1.7.3-2.6-.9l-1.5-1.8c-1-1.2-1.1-2.2-.3-2.8l2.2-1.8c.8-.6 1.7-.3 2.6.9zm-2.1-1.3c-.3-.4-.6-.6-.8-.7s-.4-.1-.5 0l-2.2 1.8c-.1.1-.2.3-.1.5 0 .2.2.5.5.9l1.4 1.8c.3.4.6.6.8.7s.4.1.5 0l2.2-1.8c.1-.1.2-.3.1-.5 0-.2-.2-.6-.5-.9z" fill="#fff"/><path d="m18.1 74c0 .1.1.1.1.2v.1.2.2l-1.4 6.4 3.6-1.9c.1-.1.2-.1.3 0l .3.3c.1.2.1.3.1.4s-.1.2-.2.3l-4.5 2.4c-.1.1-.2.1-.3 0s-.2-.1-.2-.3c-.1-.2-.1-.3-.1-.4s0-.2 0-.4l1.4-6.3-3.6 1.9c-.1.1-.2.1-.3 0s-.2-.2-.2-.3c-.1-.2-.1-.3-.1-.4s.1-.2.2-.3l4.5-2.4c.1-.1.2-.1.3 0-.1 0 0 .1.1.3z" fill="#fff"/><path d="m14 66.5c.9-.3 1.7.3 2.1 1.8l1.4 4.3c.1.2 0 .4-.2.5l-4.8 1.5c-.2.1-.4 0-.5-.2l-1.4-4.3c-.5-1.5-.2-2.4.7-2.7zm2.4 5.8-1.2-3.6c-.1-.4-.3-.8-.5-.9-.2-.2-.4-.2-.5-.2l-2.7.9c-.2.1-.3.2-.3.4s0 .6.1 1l1.2 3.6z" fill="#fff"/><path d="m41 30.3-9.2 12.5h55.6l-9.4-12.5z" fill="#ef7e00"/><path d="m39.1 46.3-9.1 31.1h16.3l9.7-31.1z" fill="#ef7e00"/><path d="m62.3 46.3-9.1 31.1h16.3l9.7-31.1z" fill="#ef7e00"/></svg>