<svg id="Capa_1" data-name="Capa 1" xmlns="http://www.w3.org/2000/svg" viewBox="0 0 566.93 566.93"><defs><style>.cls-1{fill:#1d1d1b;}.cls-2{fill:#1c1411;}.cls-3,.cls-4{fill:#ef781b;}.cls-4,.cls-5{stroke:#fff;stroke-miterlimit:10;stroke-width:2px;}.cls-5,.cls-6{fill:#fff;}</style></defs><title>Zondnautica</title><path class="cls-1" d="M283.46,13.63c149,0,269.84,120.8,269.84,269.83S432.49,553.3,283.46,553.3,13.62,432.5,13.62,283.46,134.44,13.63,283.46,13.63Z"/><path class="cls-2" d="M535.14,162.41q2.94,6.1,5.6,12.37Q538.09,168.53,535.14,162.41Z"/><path class="cls-2" d="M55.77,121.83q5.83-8.2,12.24-16Q61.61,113.62,55.77,121.83Z"/><path class="cls-2" d="M480.9,86q9.47,9.48,18,19.83Q490.39,95.51,480.9,86Z"/><path class="cls-2" d="M548,193.91q2.19,6.5,4.07,13.12Q550.21,200.4,548,193.91Z"/><path class="cls-2" d="M283.46,4.25h0A278.46,278.46,0,0,1,385.84,23.62,278.46,278.46,0,0,0,283.46,4.25Z"/><path class="cls-2" d="M498.92,105.86q6.4,7.76,12.24,16Q505.32,113.63,498.92,105.86Z"/><path class="cls-2" d="M518.69,133a279,279,0,0,1,16.45,29.44A279,279,0,0,0,518.69,133Z"/><path class="cls-2" d="M41.24,144.48c1.56-2.69,3.17-5.35,4.8-8C44.41,139.13,42.8,141.79,41.24,144.48Z"/><path class="cls-2" d="M95.73,76.79c2.55-2.32,5.15-4.57,7.78-6.8C100.88,72.22,98.28,74.47,95.73,76.79Z"/><path class="cls-2" d="M133,48.24q8.5-5.44,17.41-10.29Q141.47,42.8,133,48.24Z"/><path class="cls-2" d="M165.28,30.45c2.25-1.05,4.5-2.07,6.78-3.06C169.78,28.38,167.53,29.4,165.28,30.45Z"/><path class="cls-2" d="M68,105.86q6.4-7.76,13.34-15Q74.42,98.1,68,105.86Z"/><path class="cls-2" d="M31.79,162.41q4.41-9.15,9.45-17.93Q36.2,153.26,31.79,162.41Z"/><path class="cls-2" d="M86,86q4.74-4.74,9.7-9.24Q90.77,81.29,86,86Z"/><path class="cls-2" d="M490.14,471.2q-4.5,5-9.24,9.7Q485.64,476.16,490.14,471.2Z"/><path class="cls-2" d="M439.57,515q-8.35,5.65-17.13,10.69Q431.22,520.64,439.57,515Z"/><path class="cls-2" d="M461.07,498.92q-7.76,6.4-16,12.24Q453.3,505.32,461.07,498.92Z"/><path class="cls-2" d="M476.1,485.58q-7.26,6.93-15,13.34Q468.83,492.52,476.1,485.58Z"/><path class="cls-2" d="M398.37,538q-6.18,2.81-12.53,5.3Q392.19,540.81,398.37,538Z"/><path class="cls-2" d="M14.84,207q1.89-6.63,4.08-13.12Q16.73,200.41,14.84,207Z"/><path class="cls-2" d="M385.84,23.62a278.12,278.12,0,0,1,53.73,28.32A278.41,278.41,0,0,0,385.84,23.62Z"/><path class="cls-2" d="M283.46,562.68a278.46,278.46,0,0,0,102.38-19.37,278.46,278.46,0,0,1-102.38,19.37Z"/><path class="cls-2" d="M422.44,525.68q-11.69,6.74-24.07,12.33Q410.75,532.42,422.44,525.68Z"/><path class="cls-2" d="M445.1,55.77q8.2,5.83,16,12.24Q453.31,61.61,445.1,55.77Z"/><path class="cls-2" d="M461.07,68q10.33,8.53,19.83,18Q471.42,76.57,461.07,68Z"/><path class="cls-2" d="M498.92,461.07q-4.28,5.18-8.78,10.13Q494.66,466.25,498.92,461.07Z"/><path class="cls-2" d="M540.74,392.15c-1.77,4.17-3.64,8.3-5.6,12.36C537.1,400.45,539,396.32,540.74,392.15Z"/><path class="cls-2" d="M511.16,445.1q-3.89,5.47-8,10.75Q507.28,450.57,511.16,445.1Z"/><path class="cls-2" d="M532.13,410.58q-6.17,12-13.44,23.38Q525.95,422.62,532.13,410.58Z"/><path class="cls-3" d="M552.08,207q-1.87-6.63-4.07-13.12-3.3-9.72-7.27-19.13-2.65-6.25-5.6-12.37A279,279,0,0,0,518.69,133q-3.63-5.66-7.53-11.14-5.84-8.2-12.24-16-8.54-10.35-18-19.83T461.07,68q-7.76-6.41-16-12.24-2.75-2-5.53-3.83A277.89,277.89,0,0,0,283.46,4.25h0a278.22,278.22,0,0,0-111.4,23.14c-2.28,1-4.53,2-6.78,3.06-3,1.4-6,2.84-8.93,4.35-2,1-4,2.08-6,3.15Q141.47,42.8,133,48.24T116.41,59.72q-2.68,2-5.33,4.08-3.84,3-7.57,6.19c-2.63,2.23-5.23,4.48-7.78,6.8q-5,4.5-9.7,9.24-2.37,2.37-4.68,4.79-6.93,7.28-13.34,15t-12.24,16Q50.67,129,46,136.49c-1.63,2.64-3.24,5.3-4.8,8q-5,8.78-9.45,17.93a276.85,276.85,0,0,0-12.87,31.5q-2.19,6.5-4.08,13.12A280.06,280.06,0,0,0,44.67,428.25q5.25,8.63,11.1,16.85A281.29,281.29,0,0,0,86,480.9q4.74,4.74,9.7,9.24c1.65,1.5,3.32,3,5,4.45q5.07,4.4,10.34,8.53,2.64,2.08,5.33,4.09,8.06,6,16.56,11.48,2.84,1.81,5.71,3.56,5.76,3.51,11.7,6.73c2,1.07,4,2.12,6,3.15a278,278,0,0,0,127.11,30.55h0a278.46,278.46,0,0,0,102.38-19.37q6.35-2.5,12.53-5.3,12.38-5.6,24.07-12.33,8.78-5,17.13-10.69,2.79-1.87,5.53-3.83,8.2-5.84,16-12.24t15-13.34q2.43-2.31,4.8-4.68,4.74-4.74,9.24-9.7t8.78-10.13c1.42-1.72,2.82-3.47,4.2-5.22q4.15-5.28,8-10.75T518.69,434q7.26-11.34,13.44-23.38,1.54-3,3-6.07c2-4.06,3.83-8.19,5.6-12.36A280.46,280.46,0,0,0,552.08,207ZM283.46,553.3c-149,0-269.83-120.81-269.83-269.84S134.44,13.63,283.46,13.63,553.3,134.44,553.3,283.46,432.49,553.3,283.46,553.3Z"/><polyline class="cls-4" points="224.07 322.29 223.64 322.29 133.68 322.29 258.14 258.91 258.14 228.94 258.14 213.24 129.82 213.24 98.28 213.24 98.28 244.64 127.97 244.64 222.17 244.64 98.28 308.01 98.28 337.99 98.28 353.69 224.53 353.69 226.59 353.69 258.14 353.69"/><polyline class="cls-4" points="219.89 353.69 293.59 353.69 350.77 353.69 350.77 328.61 253.97 328.61 323.19 239.32 350.77 239.32 350.77 213.24 336.98 213.24 310.65 213.24 223.23 322.29 224.07 322.29"/><polygon class="cls-5" points="399.86 214.2 368.74 214.14 399.74 283.79 368.49 353.33 399.61 353.39 428.03 283.85 399.86 214.2"/><polygon class="cls-4" points="447.94 214.2 416.82 214.14 447.81 283.79 416.56 353.33 447.68 353.39 476.11 283.85 447.94 214.2"/><path class="cls-6" d="M72.89,258.31A2,2,0,0,1,75,260.6l-.54,26.83a28.26,28.26,0,0,1-.66,5.83,16,16,0,0,1-1.64,4.39,7.92,7.92,0,0,1-2.49,2.74,5.52,5.52,0,0,1-3.22.91l-6-.11a5.6,5.6,0,0,1-3.18-1.05,8,8,0,0,1-2.38-2.84,16,16,0,0,1-1.46-4.44A28.85,28.85,0,0,1,53,287l0-1.91c0-1.4,0-2.62.07-3.65s0-1.95.08-2.74.06-1.52.11-2.15.09-1.26.13-1.86h-.09c-.2.5-.41,1.05-.63,1.63s-.5,1.31-.83,2.16-.76,1.88-1.26,3.1-1.13,2.72-1.9,4.52l-4.86,11.41A2.18,2.18,0,0,1,41.71,299a1.87,1.87,0,0,1-1.75-.87,5,5,0,0,1-.43-2.42c0-.22,0-.5,0-.84s.06-.67.12-1a8.37,8.37,0,0,1,.21-1,2.82,2.82,0,0,1,.38-.88l12.63-27.68-10.5-.21a1.85,1.85,0,0,1-1.8-.85,6.76,6.76,0,0,1,.09-4.72,1.86,1.86,0,0,1,1.83-.78ZM69.8,264.6l-11.26-.22-.44,22.15a28,28,0,0,0,.16,4,10.31,10.31,0,0,0,.59,2.57,3.12,3.12,0,0,0,.93,1.36,2.09,2.09,0,0,0,1.21.4l5.15.11a2.21,2.21,0,0,0,1.2-.36,3,3,0,0,0,1-1.32,10.94,10.94,0,0,0,.69-2.54,27.85,27.85,0,0,0,.32-4Z"/><path class="cls-6" d="M78.74,324.11a5.31,5.31,0,0,1,0,2.31,3.89,3.89,0,0,1-.93,1.67l-25,26.28a2,2,0,0,1-1,.55,1.88,1.88,0,0,1-1-.11,2.84,2.84,0,0,1-1-.64A4.48,4.48,0,0,1,48.67,352a3.1,3.1,0,0,1,0-1.21,2.14,2.14,0,0,1,.54-1l6.94-7.14-5.26-26L41.77,313a1.82,1.82,0,0,1-.89-.72,3,3,0,0,1-.45-1.1,4.38,4.38,0,0,1,0-1.21,4.08,4.08,0,0,1,.32-1.21,3.63,3.63,0,0,1,.63-1,1.76,1.76,0,0,1,1-.5,2,2,0,0,1,1.1.12l33,13.3a3.47,3.47,0,0,1,1.5,1.16A5.52,5.52,0,0,1,78.74,324.11ZM56.58,318.8l3.9,19.32L73,325.26Z"/><path class="cls-6" d="M81.85,349.35a2,2,0,0,1,2.92,1.16l11,24.75a28.49,28.49,0,0,1,1.87,5.57A16.27,16.27,0,0,1,98,385.5a8.11,8.11,0,0,1-1.1,3.54,5.57,5.57,0,0,1-2.53,2.19L88,394a5.51,5.51,0,0,1-3.32.4,7.91,7.91,0,0,1-3.35-1.57,15.61,15.61,0,0,1-3.21-3.41,27.53,27.53,0,0,1-2.87-5.12l-9.3-21-9.3,4.11a1.86,1.86,0,0,1-2,0,6.76,6.76,0,0,1-1.92-4.33c0-.61.49-1.1,1.33-1.47Zm-.13,7-11,4.89,9.07,20.47a28.36,28.36,0,0,0,1.85,3.59,10.56,10.56,0,0,0,1.63,2.07,3,3,0,0,0,1.41.84,2.13,2.13,0,0,0,1.27-.14l5.45-2.42a2.2,2.2,0,0,0,.94-.83,2.91,2.91,0,0,0,.35-1.62,11.06,11.06,0,0,0-.44-2.6,28.11,28.11,0,0,0-1.42-3.78Z"/><path class="cls-6" d="M78.86,411.56a1.87,1.87,0,0,1-2,.25A5.3,5.3,0,0,1,75.28,410a5.15,5.15,0,0,1-.85-2.22,1.88,1.88,0,0,1,1.13-1.64l26.07-15.84a1.84,1.84,0,0,1,2-.25,6.67,6.67,0,0,1,2.45,4c0,.62-.33,1.16-1.12,1.64Z"/><path class="cls-6" d="M114.4,447.54q-6.93,5.56-15.77-5.46L81.68,421a2,2,0,0,1,.38-3.12L105.58,399a1.94,1.94,0,0,1,3.09.34l17,21.1q8.83,11,1.92,16.58ZM88.3,421l14.23,17.71a12.91,12.91,0,0,0,4.7,4.1,3.1,3.1,0,0,0,3.25-.14l13.14-10.55a3.08,3.08,0,0,0,.86-3.16c-.25-1.46-1.25-3.27-3-5.46l-14.23-17.72Z"/><path class="cls-6" d="M138.48,479.21q-11.59-8.08-6.51-15.37L141.62,450q5.08-7.27,16.67.81l11.39,7.95q11.58,8.1,6.5,15.37L166.54,488q-5.08,7.27-16.67-.81Zm14.18,3.62q3.45,2.4,5.64,2.59a3.11,3.11,0,0,0,3.07-1.06L171,470.55a3.11,3.11,0,0,0-.05-3.27c-.64-1.32-2.1-2.77-4.4-4.38l-11.08-7.73c-2.29-1.61-4.17-2.48-5.62-2.62a3.1,3.1,0,0,0-3.08,1.08l-9.65,13.82a3.13,3.13,0,0,0,.06,3.24q.95,2,4.38,4.4Z"/><path class="cls-6" d="M200.22,475c.7.3,1.06.7,1.09,1.18a5.71,5.71,0,0,1-1.54,3.54,1.48,1.48,0,0,1-1.61,0l-4.6-2q-3.85-1.68-6-1.45a3.07,3.07,0,0,0-2.78,1.68l-2.45,5.6L210.68,496c.7.31,1.07.7,1.12,1.19a4,4,0,0,1-.45,1.92,4.14,4.14,0,0,1-1.1,1.63,1.59,1.59,0,0,1-1.63,0l-28.36-12.37-5,11.38c-.37.84-.86,1.29-1.47,1.34a5.32,5.32,0,0,1-2.36-.56,5.13,5.13,0,0,1-2-1.33,1.87,1.87,0,0,1,0-2l9.47-21.7q3.54-8.15,16.5-2.49Z"/><path class="cls-6" d="M237.68,487.22c.74.17,1.17.49,1.3,1a4.56,4.56,0,0,1-.11,2,4.34,4.34,0,0,1-.77,1.81,1.5,1.5,0,0,1-1.58.29l-4.89-1.13c-2.73-.63-4.78-.74-6.17-.32a3.08,3.08,0,0,0-2.43,2.15l-1.38,6,30.14,7q1.11.25,1.32,1a4.25,4.25,0,0,1-.09,2,4,4,0,0,1-.78,1.8,1.56,1.56,0,0,1-1.61.29l-30.14-7L217.69,516q-.31,1.35-1.2,1.59a5.43,5.43,0,0,1-2.42-.12,5.11,5.11,0,0,1-2.18-1,1.84,1.84,0,0,1-.38-1.95l5.33-23.07q2-8.64,15.77-5.46Z"/><path class="cls-6" d="M262.32,511.87l-.2,5.58a3.09,3.09,0,0,0,1.81,2.69c1.24.78,3.27,1.22,6.07,1.32l22.8.83a1.57,1.57,0,0,1,1.48.69,5.32,5.32,0,0,1-.14,3.85,1.56,1.56,0,0,1-1.53.61l-23-.83q-14.13-.51-13.8-9.39l.61-16.84q.31-8.86,14.44-8.36l7.11.26a1.51,1.51,0,0,1,1.43.69,5.38,5.38,0,0,1-.14,3.87,1.52,1.52,0,0,1-1.48.59l-6.92-.25c-2.8-.1-4.84.18-6.14.85a3.11,3.11,0,0,0-2,2.58l-.22,6.11,31,1.12a1.59,1.59,0,0,1,1.49.69,4.18,4.18,0,0,1,.28,2,4.14,4.14,0,0,1-.42,1.92,1.58,1.58,0,0,1-1.53.59Z"/><path class="cls-6" d="M342.17,520.68a9.57,9.57,0,0,1-1.09.14,2.34,2.34,0,0,1-.83-.1,5.19,5.19,0,0,1-.89-.36c-.32-.15-.71-.37-1.17-.64L304.73,500l4.08,24.05a1.88,1.88,0,0,1-.5,1.93,5.28,5.28,0,0,1-2.28.82,5.15,5.15,0,0,1-2.38,0c-.58-.19-.95-.74-1.1-1.65l-5.11-30.08a1.88,1.88,0,0,1,.46-1.89,4.43,4.43,0,0,1,2.13-.82,6.08,6.08,0,0,1,2.52,0,8.47,8.47,0,0,1,2.2,1l33,19.67-4.09-24.1a1.85,1.85,0,0,1,.5-1.92,5,5,0,0,1,2.23-.82,5.23,5.23,0,0,1,2.43,0,1.88,1.88,0,0,1,1.1,1.66l5.11,30.07a1.88,1.88,0,0,1-.5,1.93A5.51,5.51,0,0,1,342.17,520.68Z"/><path class="cls-6" d="M361,498.45q-13.17,5.12-16.39-3.15l-.68-1.74q-3.21-8.28,9.95-13.4l4.45-1.73a1.58,1.58,0,0,1,1.64.06,4.13,4.13,0,0,1,1,1.67,4.07,4.07,0,0,1,.37,1.93c-.07.49-.46.87-1.17,1.15L355.66,485c-2.61,1-4.33,2.07-5.15,3.16a3.1,3.1,0,0,0-.66,3.1l.67,1.73a3.13,3.13,0,0,0,2.58,1.82q2,.39,5.93-1.13l10.5-4.09q13.17-5.13,16.39,3.15l.87,2.23q3.21,8.26-10,13.4L355,516.87a1.6,1.6,0,0,1-1.64-.06,4,4,0,0,1-1-1.67,4.09,4.09,0,0,1-.37-1.93c.07-.49.46-.87,1.17-1.15l21.93-8.53q3.91-1.53,5.15-3.16a3.08,3.08,0,0,0,.66-3.1l-.86-2.22a3.13,3.13,0,0,0-2.58-1.82c-1.35-.26-3.32.12-5.93,1.13Z"/><path class="cls-6" d="M399.8,495a1.85,1.85,0,0,1,.14,2,5.18,5.18,0,0,1-1.9,1.5,5.09,5.09,0,0,1-2.27.72c-.61,0-1.13-.4-1.57-1.21l-14.36-26.92a1.87,1.87,0,0,1-.14-2,5,5,0,0,1,1.86-1.48,5.28,5.28,0,0,1,2.31-.74c.61,0,1.14.4,1.57,1.21Z"/><path class="cls-6" d="M426.87,480.42a5.32,5.32,0,0,1-2.09,1,3.84,3.84,0,0,1-1.9-.15L388.43,469.6a2.23,2.23,0,0,1-1-.67,1.59,1.59,0,0,1-.3-1,3.42,3.42,0,0,1,.23-1.17,4.72,4.72,0,0,1,1.56-2,3.77,3.77,0,0,1,1.16-.55,2.15,2.15,0,0,1,1.28,0l31.91,11.09-.87-33.66a2.27,2.27,0,0,1,1.11-2.05,4.41,4.41,0,0,1,1.12-.58,4.45,4.45,0,0,1,1.25-.23,3.42,3.42,0,0,1,1.17.16,1.68,1.68,0,0,1,1.18,1.7l.67,36.23a3.71,3.71,0,0,1-.47,1.87A5.26,5.26,0,0,1,426.87,480.42Z"/><path class="cls-6" d="M443.94,447.36l4.12,3.77a3.14,3.14,0,0,0,3.23.35q2.1-.66,4.93-3.77l15.37-16.86a1.59,1.59,0,0,1,1.5-.68,4.05,4.05,0,0,1,1.66,1,4,4,0,0,1,1.17,1.55,1.54,1.54,0,0,1-.51,1.56l-15.51,17q-9.52,10.46-16.08,4.46l-12.45-11.35q-6.57-6,3-16.43l4.79-5.25a1.5,1.5,0,0,1,1.46-.64,4,4,0,0,1,1.67,1,4.1,4.1,0,0,1,1.18,1.57,1.51,1.51,0,0,1-.5,1.51l-4.66,5.12c-1.89,2.06-3,3.81-3.33,5.23a3.11,3.11,0,0,0,.67,3.2l4.52,4.12L461,421a1.58,1.58,0,0,1,1.49-.68,4,4,0,0,1,1.67,1,4.07,4.07,0,0,1,1.19,1.57,1.55,1.55,0,0,1-.54,1.54Z"/><path class="cls-6" d="M498.15,398.58q-6.28,12.66-14.24,8.71l-21.2-10.54c-.83-.41-1.25-.92-1.27-1.53a5.22,5.22,0,0,1,.66-2.29,5.29,5.29,0,0,1,1.45-1.95,1.87,1.87,0,0,1,2,.08l21.21,10.54a3.13,3.13,0,0,0,3.19-.52q1.81-1.2,3.69-5L500,383.29c1.25-2.5,1.82-4.48,1.73-5.94a3.1,3.1,0,0,0-1.52-2.85L479,364q-1.25-.61-1.26-1.53a6.67,6.67,0,0,1,2.1-4.24,1.88,1.88,0,0,1,2,.08L503,368.81q8,4,1.66,16.61Z"/><path class="cls-6" d="M524.05,325.83a10.72,10.72,0,0,1-.32,1.05,2.34,2.34,0,0,1-.43.73,6.18,6.18,0,0,1-.68.66c-.27.23-.63.5-1.07.81L490,351.72l23.65,6q1.33.35,1.56,1.23a5.27,5.27,0,0,1-.17,2.42,5.17,5.17,0,0,1-1,2.17,1.89,1.89,0,0,1-2,.34l-29.57-7.5a1.92,1.92,0,0,1-1.55-1.18,4.59,4.59,0,0,1,.11-2.29,6.27,6.27,0,0,1,1-2.3A8.23,8.23,0,0,1,483.9,349l31.35-22.24-23.69-6c-.9-.23-1.42-.64-1.57-1.23a6.65,6.65,0,0,1,1.17-4.58,1.83,1.83,0,0,1,1.95-.34l29.57,7.49q1.35.35,1.56,1.23A5.51,5.51,0,0,1,524.05,325.83Z"/><path class="cls-6" d="M523.55,308.72a1.86,1.86,0,0,1,1.7,1,5.16,5.16,0,0,1,.14,2.42,5.07,5.07,0,0,1-.7,2.27,1.87,1.87,0,0,1-1.9.59L492.5,311.4a1.86,1.86,0,0,1-1.7-1,5.13,5.13,0,0,1-.15-2.38,5.24,5.24,0,0,1,.71-2.31,1.87,1.87,0,0,1,1.9-.6Z"/><path class="cls-6" d="M497.49,281.08l27.4.13a1.85,1.85,0,0,1,1.81.82,5.33,5.33,0,0,1,.42,2.39,5.16,5.16,0,0,1-.44,2.33,1.88,1.88,0,0,1-1.82.81l-27.4-.13-.07,14.37a1.57,1.57,0,0,1-.65,1.5,5.38,5.38,0,0,1-3.87,0,1.56,1.56,0,0,1-.63-1.5l.16-35.14a1.57,1.57,0,0,1,.65-1.5,5.38,5.38,0,0,1,3.87,0,1.56,1.56,0,0,1,.63,1.5Z"/><path class="cls-6" d="M120.27,135.28a8.23,8.23,0,0,1-3,2,2.4,2.4,0,0,1-2.52-.87,2.78,2.78,0,0,1-.67-1,2.73,2.73,0,0,1-.09-1.09l3.16-38.54a2.52,2.52,0,0,1,.47-1.32,8.38,8.38,0,0,1,1.13-1.31c.23-.22.47-.43.71-.63a2.45,2.45,0,0,1,.79-.43,1.76,1.76,0,0,1,.82-.05,2,2,0,0,1,1.34,1.51,9.81,9.81,0,0,1,0,1.49l-3.16,34.7L138,111.68a1.41,1.41,0,0,1,1.38-.53,3.71,3.71,0,0,1,1.44,1,3.79,3.79,0,0,1,1,1.48,1.43,1.43,0,0,1-.57,1.36Z"/><path class="cls-6" d="M154,105.46q-10.53,7.23-15.07.61l-8.61-12.56q-4.55-6.62,6-13.84l10.35-7.1q10.53-7.23,15.07-.61l8.61,12.56q4.54,6.62-6,13.84Zm7.58-10.85a11.63,11.63,0,0,0,4-3.94,2.83,2.83,0,0,0,.08-2.93L157,75.18a2.8,2.8,0,0,0-2.78-1,11.79,11.79,0,0,0-5.1,2.33l-10.07,6.9a11.85,11.85,0,0,0-4,3.93,2.82,2.82,0,0,0-.07,3l8.62,12.56a2.82,2.82,0,0,0,2.76,1,11.66,11.66,0,0,0,5.12-2.31Z"/><path class="cls-6" d="M210,75.6A6.08,6.08,0,0,1,209,76a2.18,2.18,0,0,1-.76.1,4.68,4.68,0,0,1-.85-.12c-.31-.06-.71-.17-1.18-.31l-33.66-9.88,8.88,20.18a1.71,1.71,0,0,1,0,1.8A4.81,4.81,0,0,1,179.63,89a4.63,4.63,0,0,1-2.09.5c-.55,0-1-.45-1.33-1.21L165.1,63a1.74,1.74,0,0,1,0-1.76,4,4,0,0,1,1.69-1.19,5.71,5.71,0,0,1,2.2-.57,7.56,7.56,0,0,1,2.16.4l33.27,10-8.89-20.22a1.67,1.67,0,0,1,0-1.8,6,6,0,0,1,3.91-1.72c.55,0,1,.44,1.33,1.21l11.1,25.23a1.67,1.67,0,0,1,0,1.79A4.78,4.78,0,0,1,210,75.6Z"/><path class="cls-6" d="M251.67,56.81q1.79,7.83-10.66,10.68L217.17,73a1.78,1.78,0,0,1-2.39-1.54L208.7,44.83a1.74,1.74,0,0,1,1.49-2.37L234,37q12.45-2.85,14.24,5ZM219.79,67.57l20-4.59a11.76,11.76,0,0,0,5.18-2.2,2.81,2.81,0,0,0,1.17-2.7l-3.4-14.85a2.8,2.8,0,0,0-2.23-1.94,11.92,11.92,0,0,0-5.63.29l-20,4.58Z"/><path class="cls-6" d="M291.78,63.2c-.41,0-.74,0-1,0A2.45,2.45,0,0,1,290,63a6.09,6.09,0,0,1-.75-.43c-.26-.18-.59-.42-1-.72l-27.65-21.6.81,22a1.69,1.69,0,0,1-.67,1.67,4.75,4.75,0,0,1-2.14.47,4.7,4.7,0,0,1-2.13-.31,1.68,1.68,0,0,1-.79-1.61l-1-27.55a1.74,1.74,0,0,1,.63-1.65,4,4,0,0,1,2-.48,5.73,5.73,0,0,1,2.25.28,7.75,7.75,0,0,1,1.86,1.17L288.74,55.8l-.81-22.07a1.68,1.68,0,0,1,.67-1.67,4.66,4.66,0,0,1,2.09-.46,4.72,4.72,0,0,1,2.18.31,1.68,1.68,0,0,1,.79,1.61l1,27.55a1.7,1.7,0,0,1-.67,1.66A5,5,0,0,1,291.78,63.2Z"/><path class="cls-6" d="M322,35a4.69,4.69,0,0,1,2,.71,3.42,3.42,0,0,1,1.13,1.31l14.43,29.42a1.74,1.74,0,0,1,.14,1,1.64,1.64,0,0,1-.41.86,2.6,2.6,0,0,1-.84.61,4.1,4.1,0,0,1-1.08.31,4.27,4.27,0,0,1-1.13,0,3.19,3.19,0,0,1-1-.36,1.87,1.87,0,0,1-.7-.79L330.56,60l-23.69-3.71L301,62.88a1.7,1.7,0,0,1-.89.54,2.8,2.8,0,0,1-1.08,0,3.61,3.61,0,0,1-1-.34,3.39,3.39,0,0,1-.92-.65,2.77,2.77,0,0,1-.61-.83,1.58,1.58,0,0,1-.14-1,2,2,0,0,1,.45-.89L318.38,36a3.1,3.1,0,0,1,1.45-.91A5,5,0,0,1,322,35ZM310.53,52.15l17.6,2.75-7-14.67Z"/><path class="cls-6" d="M350.92,73.93q-12-4.26-9.35-11.83l7.15-20.17c.28-.78.7-1.22,1.24-1.3a4.7,4.7,0,0,1,2.12.34A4.77,4.77,0,0,1,354,42.06a1.69,1.69,0,0,1,.14,1.79L347,64a2.8,2.8,0,0,0,.81,2.8,11.43,11.43,0,0,0,4.85,2.78l12.2,4.33a11.52,11.52,0,0,0,5.51.9,2.79,2.79,0,0,0,2.4-1.67L379.91,53c.28-.79.69-1.22,1.24-1.3a4.8,4.8,0,0,1,2.16.35,4.55,4.55,0,0,1,1.86,1.08,1.68,1.68,0,0,1,.15,1.79l-7.16,20.16q-2.69,7.56-14.72,3.3Z"/><path class="cls-6" d="M407.34,70.16l-12.2,21.55c-.41.73-.89,1.08-1.45,1.06a4.58,4.58,0,0,1-2.06-.72A4.41,4.41,0,0,1,390,90.67a1.68,1.68,0,0,1,.17-1.79l12.19-21.55L391,60.94c-.6-.34-.89-.74-.89-1.18a3.53,3.53,0,0,1,.58-1.68,3.61,3.61,0,0,1,1.14-1.36,1.42,1.42,0,0,1,1.47.16L421,72.52c.6.34.9.73.9,1.18a3.85,3.85,0,0,1-.58,1.68,3.79,3.79,0,0,1-1.14,1.36,1.42,1.42,0,0,1-1.47-.16Z"/><path class="cls-6" d="M413.9,104c-.48.68-1,1-1.54.92a5,5,0,0,1-2-.93,4.74,4.74,0,0,1-1.5-1.54,1.7,1.7,0,0,1,.35-1.77l15.95-22.48c.48-.69,1-1,1.54-.92a4.51,4.51,0,0,1,2,.91,4.75,4.75,0,0,1,1.54,1.56,1.68,1.68,0,0,1-.35,1.76Z"/><path class="cls-6" d="M425.18,115.13q-9.57-8.44-4.26-14.46L431,89.25q5.31-6,14.88,2.43l15.85,14a1.4,1.4,0,0,1,.63,1.34,3.67,3.67,0,0,1-.91,1.52,3.8,3.8,0,0,1-1.4,1.1,1.42,1.42,0,0,1-1.4-.46L442.93,95.29a12,12,0,0,0-4.79-2.93,2.8,2.8,0,0,0-2.87.66l-10.08,11.42a2.83,2.83,0,0,0-.28,2.92,11.73,11.73,0,0,0,3.49,4.4l15.75,13.9a1.37,1.37,0,0,1,.62,1.32,5.11,5.11,0,0,1-2.3,2.6,1.35,1.35,0,0,1-1.41-.43Z"/><path class="cls-6" d="M481.52,128.62a4.57,4.57,0,0,1,1,1.85,3.39,3.39,0,0,1-.08,1.73l-9.58,31.34a1.85,1.85,0,0,1-.6.84,1.62,1.62,0,0,1-.89.34,2.46,2.46,0,0,1-1-.13,3.84,3.84,0,0,1-1-.5,4.12,4.12,0,0,1-.83-.78,2.76,2.76,0,0,1-.51-1,1.92,1.92,0,0,1,0-1.06l2.72-8.58L456,133.79l-8.8.79a1.64,1.64,0,0,1-1-.22,3,3,0,0,1-.8-.71,3.84,3.84,0,0,1-.53-1,3.54,3.54,0,0,1-.23-1.1,2.86,2.86,0,0,1,.13-1,1.58,1.58,0,0,1,.56-.79,1.8,1.8,0,0,1,.93-.35l32-2.56a3.1,3.1,0,0,1,1.68.33A4.93,4.93,0,0,1,481.52,128.62Zm-20.06,4.65,11,14,4.95-15.46Z"/><path class="cls-6" d="M116.22,93.29a8.1,8.1,0,0,1,3-2,2.4,2.4,0,0,1,2.52.87,2.78,2.78,0,0,1,.67,1,2.56,2.56,0,0,1,.09,1.09l-3.16,38.54a2.59,2.59,0,0,1-.46,1.32,9.07,9.07,0,0,1-1.14,1.31c-.23.22-.46.43-.71.63a2.45,2.45,0,0,1-.79.43,1.63,1.63,0,0,1-.82,0,1.61,1.61,0,0,1-.83-.51,1.63,1.63,0,0,1-.5-1,8.43,8.43,0,0,1,0-1.49l3.16-34.7L98.54,116.89a1.43,1.43,0,0,1-1.39.53,3.71,3.71,0,0,1-1.44-1,3.79,3.79,0,0,1-1-1.48,1.43,1.43,0,0,1,.57-1.36Z"/></svg>